<?xml version="1.0" standalone="no"?>
<!DOCTYPE svg PUBLIC "-//W3C//DTD SVG 1.1//EN" "http://www.w3.org/Graphics/SVG/1.1/DTD/svg11.dtd" >
<svg xmlns="http://www.w3.org/2000/svg" xmlns:xlink="http://www.w3.org/1999/xlink" version="1.1" viewBox="0 0 1580 910">
   <path fill="currentColor"
d="M1206 336zM1233 309zM682 910zM709 883zM985 541zM985 503zM1206 336q-24 -20 -46 -37q-79 -60 -145.5 -97.5t-118.5 -57.5q39 -29 75 -65t69 -79q21 51 58 117.5t97 145.5q17 21 35 43q-1 -8 -3 -16q-20 -114 -42 -192q48 11 99 11t105 -11q-22 78 -43 191
q-17 92 -29 211q113 10 253 10v24q-143 0 -257 11q0 4 -1 8q-13 151 -13 345h-25q0 -193 -13 -344v-4q-109 13 -193 31q-93 21 -158 43q7 -37 9 -76q-94 13 -164 33q-74 21 -125 43q7 -48 7 -99t-7 -105q51 22 124 42q71 20 165 33q-2 -37 -9 -75q65 22 158 42q81 19 187 31
q-10 -100 -24 -182zM682 910q-24 -20 -46 -37q-79 -60 -145.5 -97.5t-118.5 -57.5q39 -29 75 -65t69 -79q21 51 58 117q-2 -104 -10 -192q-113 1 -203 13q-98 14 -171.5 34.5t-124.5 42.5q7 -48 7 -99t-7 -105q51 22 124 42.5t172 33.5q88 12 200 14v-1q-13 -125 -33.5 -218
t-42.5 -158q48 9 99 9t105 -9q-22 65 -43 158t-34 217q-12 115 -13 260q31 49 72 104q18 23 38 46z" />
</svg>
