<?xml version="1.0" standalone="no"?>
<!DOCTYPE svg PUBLIC "-//W3C//DTD SVG 1.1//EN" "http://www.w3.org/Graphics/SVG/1.1/DTD/svg11.dtd" >
<svg xmlns="http://www.w3.org/2000/svg" xmlns:xlink="http://www.w3.org/1999/xlink" version="1.1" viewBox="0 0 1154 906">
   <path fill="currentColor"
d="M919 682q-90 -96 -148 -161.5t-97 -101.5q36 -36 73 -76t78.5 -86t93.5 -101l12 9q-49 78 -84 144t-58 110q19 38 55 105t87 150zM1045 816q-193 0 -344 13.5t-264.5 34t-191.5 42.5q11 -48 11 -99t-11 -105q78 22 191 42q61 12 133 21q0 -103 -5 -194q-113 1 -203 13
q-98 14 -171.5 34.5t-124.5 42.5q7 -48 7 -99t-7 -105q51 22 124 42.5t172 33.5q89 12 202 14q-3 -48 -7 -91q-5 -60 -11 -114q-102 1 -184 12q-98 14 -171.5 34.5t-124.5 42.5q7 -48 7 -99t-7 -105q51 22 124 42.5t172 33.5q80 11 180 13q-8 -67 -19 -124
q-20 -114 -42 -192q48 11 99 11t105 -11q-22 78 -43 191t-34 264q-12 138 -13 313q50 6 106 10q145 13 329 14q0 -189 -13 -336q-13 -151 -33.5 -264.5t-42.5 -191.5q48 11 99 11t105 -11q-22 78 -43 191t-34 264t-13 345h-9v16z" />
</svg>
