<?xml version="1.0" standalone="no"?>
<!DOCTYPE svg PUBLIC "-//W3C//DTD SVG 1.1//EN" "http://www.w3.org/Graphics/SVG/1.1/DTD/svg11.dtd" >
<svg xmlns="http://www.w3.org/2000/svg" xmlns:xlink="http://www.w3.org/1999/xlink" version="1.1" viewBox="0 0 1191 986">
   <path fill="currentColor"
d="M1169 986q-90 -96 -148 -162q-44 -50 -78 -83q-110 2 -198 13q-98 14 -171.5 34.5t-124.5 42.5q7 -48 7 -99t-7 -105q51 22 124.5 42.5t171.5 33.5q83 12 186 13q33 -33 66 -69q37 -40 79 -86q28 -32 62 -68q-69 -75 -117 -129q-44 -50 -78 -83q-110 2 -198 13
q-98 14 -171.5 34.5t-124.5 42.5q7 -48 7 -99t-7 -105q51 22 124.5 42.5t171.5 33.5q83 12 186 13q33 -33 66 -69q37 -40 78.5 -86t93.5 -101l12 9q-49 78 -84 144t-58 110q19 38 55 105q27 49 61 106l14 -14l12 9q-7 12 -15 24q8 12 15 25l-12 8l-14 -14q-33 54 -58 101
q-35 66 -58 110q19 38 55 105t87 150zM386 790q-120 -129 -196.5 -216t-129.5 -135q49 -49 97.5 -102t104.5 -114.5t124 -134.5l17 12q-65 104 -112 192t-77 147q25 50 73 139.5t116 199.5z" />
</svg>
