<?xml version="1.0" standalone="no"?>
<!DOCTYPE svg PUBLIC "-//W3C//DTD SVG 1.1//EN" "http://www.w3.org/Graphics/SVG/1.1/DTD/svg11.dtd" >
<svg xmlns="http://www.w3.org/2000/svg" xmlns:xlink="http://www.w3.org/1999/xlink" version="1.1" viewBox="0 0 1584 921">
   <path fill="currentColor"
d="M1570 463zM1570 425zM1290 463zM1290 425zM1570 463q-30 3 -59 6q-98 14 -171.5 34.5t-124.5 42.5q6 -37 7 -75q-92 13 -162 32q-74 21 -125 43q7 -48 7 -99t-7 -105q-8 62 -14 133q-12 135 -13 304q86 8 185 14q204 14 466 14v24q-261 0 -465 13.5t-356.5 34
t-258.5 42.5q15 -48 15 -99q0 -39 -8 -79q-67 4 -125 11q-98 14 -171.5 34.5t-124.5 42.5q7 -48 7 -99t-7 -105q51 22 124 42.5t171.5 34t224.5 13.5v20q69 11 152 22q68 10 146 18q-1 -168 -13 -301q-13 -151 -33.5 -264.5t-42.5 -191.5q48 11 99 11t105 -11
q-22 78 -43 191q-11 60 -20 131q51 22 124 42q70 20 163 33q-2 -37 -7 -75q51 22 124.5 42.5t171.5 33.5q28 4 59 7v38zM785 526q-90 -96 -148 -162q-44 -50 -78 -83q-110 2 -198 13q-98 14 -171.5 34.5t-124.5 42.5q7 -48 7 -99t-7 -105q51 22 124 42.5t172 33.5
q83 12 186 13q33 -33 66 -69q37 -40 78.5 -86t93.5 -101l12 9q-49 78 -84 144t-58 110q19 38 55 105t87 150zM1574 171q-126 0 -224 13.5t-171.5 34t-124.5 42.5q7 -48 7 -99t-7 -105q51 22 124 42.5t171.5 34t224.5 13.5v24z" />
</svg>
