<?xml version="1.0" standalone="no"?>
<!DOCTYPE svg PUBLIC "-//W3C//DTD SVG 1.1//EN" "http://www.w3.org/Graphics/SVG/1.1/DTD/svg11.dtd" >
<svg xmlns="http://www.w3.org/2000/svg" xmlns:xlink="http://www.w3.org/1999/xlink" version="1.1" viewBox="0 0 1249 811">
   <path fill="currentColor"
d="M415 498zM415 460zM695 498zM695 460zM1123 697q-2 -111 -9 -206q-107 2 -193 13q-98 14 -171.5 34.5t-124.5 42.5q6 -37 7 -76q-96 13 -168 33q-73 21 -124 43q6 -37 7 -75q-92 13 -163 32q-73 21 -124 43q7 -48 7 -99t-7 -105q51 22 124 42q70 20 163 33q-2 -37 -7 -75
q51 22 124 42q72 21 168 34q-2 -37 -7 -76q51 22 124 42.5t172 33.5q85 12 191 13q0 -5 -1 -10q-9 -107 -22 -195q-163 2 -293 13q-151 14 -264.5 34.5t-191.5 42.5q11 -48 11 -99t-11 -105q78 22 191 42.5t264 33.5q129 12 290 13q-4 -23 -8 -44q-21 -114 -42 -192
q48 11 99 11t105 -11q-22 78 -43 191t-34 264t-13 345h-25v-79q-184 1 -328 13q-151 14 -264.5 34.5t-191.5 42.5q11 -48 11 -99t-11 -105q78 22 191 42.5t264 33.5q144 13 328 14z" />
</svg>
