<?xml version="1.0" standalone="no"?>
<!DOCTYPE svg PUBLIC "-//W3C//DTD SVG 1.1//EN" "http://www.w3.org/Graphics/SVG/1.1/DTD/svg11.dtd" >
<svg xmlns="http://www.w3.org/2000/svg" xmlns:xlink="http://www.w3.org/1999/xlink" version="1.1" viewBox="0 0 1419 811">
   <path fill="currentColor"
d="M861 268zM861 230zM585 491q-126 0 -224 13.5t-171.5 34t-124.5 42.5q7 -48 7 -99t-7 -105q51 22 124 42.5t171.5 34t224.5 13.5v24zM802 223q-2 -37 -7 -76q51 22 124 42.5t172 33.5q74 10 164 13q-4 -23 -8 -44q-20 -114 -42 -192q48 11 99 11t105 -11q-22 78 -43 191
t-34 264t-13 345h-25v-79q-251 1 -449 13q-204 14 -356.5 34.5t-258.5 42.5q15 -48 15 -99t-15 -105q106 22 258 42.5t356 33.5q197 13 449 14q-2 -132 -12 -241q-9 -107 -22 -194q-92 2 -168 12q-98 14 -171.5 34.5t-124.5 42.5q6 -38 7 -77q-98 14 -171.5 34.5
t-124.5 42.5q7 -48 7 -99t-7 -105q51 22 124.5 42.5t171.5 33.5z" />
</svg>
