<?xml version="1.0" standalone="no"?>
<!DOCTYPE svg PUBLIC "-//W3C//DTD SVG 1.1//EN" "http://www.w3.org/Graphics/SVG/1.1/DTD/svg11.dtd" >
<svg xmlns="http://www.w3.org/2000/svg" xmlns:xlink="http://www.w3.org/1999/xlink" version="1.1" viewBox="0 0 1685 899">
   <path fill="currentColor"
d="M1316 443zM1316 405zM132 355zM170 355zM362 355zM400 355zM592 355zM630 355zM1675 809q-261 0 -465 13.5t-357 34t-258 42.5q15 -48 15 -99t-15 -105q97 20 234 39q-2 -154 -13 -278q-13 -151 -34 -264.5t-43 -191.5q49 11 99.5 11t104.5 -11q-21 78 -42 191t-34 264
q-11 126 -13 283q152 20 355 33q41 3 84 5q-1 -179 -13 -320q-1 -5 -1 -9l-22 2q-98 14 -171.5 34.5t-124.5 42.5q7 -48 7 -99t-7 -105q51 22 124 42.5t171 33.5q9 2 19 3q-12 -117 -29 -209q-21 -114 -43 -192q49 11 99.5 11t104.5 -11q-21 78 -42 191t-34 264
q-13 142 -13 322q97 5 205 6q0 -183 -13 -327q-13 -151 -34 -264.5t-43 -191.5q49 11 99.5 11t104.5 -11q-21 78 -42 191t-34 264q-13 144 -13 329q61 1 127 1v24zM132 355q-3 -31 -7 -59q-13 -98 -33.5 -171.5t-42.5 -124.5q48 7 99 7t105 -7q-22 51 -42.5 124t-34.5 172
q-3 28 -6 59h-38zM362 355q-3 -31 -7 -59q-13 -98 -33.5 -171.5t-42.5 -124.5q48 7 99 7t105 -7q-22 51 -42.5 124t-34.5 172q-3 28 -6 59h-38zM592 355q-3 -31 -7 -59q-13 -98 -33.5 -171.5t-42.5 -124.5q48 7 99 7t105 -7q-22 51 -42.5 124t-34.5 172q-3 28 -6 59h-38z
M363 800q0 -107 -28.5 -190.5t-73.5 -146t-92 -105.5q104 6 214.5 6t226.5 -6q-47 43 -92 105.5t-73.5 146t-28.5 190.5h-53z" />
</svg>
