<?xml version="1.0" standalone="no"?>
<!DOCTYPE svg PUBLIC "-//W3C//DTD SVG 1.1//EN" "http://www.w3.org/Graphics/SVG/1.1/DTD/svg11.dtd" >
<svg xmlns="http://www.w3.org/2000/svg" xmlns:xlink="http://www.w3.org/1999/xlink" version="1.1" viewBox="0 0 1313 800">
   <path fill="currentColor"
d="M415 498zM415 460zM722 355zM760 355zM952 355zM990 355zM1182 355zM1220 355zM722 355q-2 -31 -6 -59q-14 -98 -34.5 -171.5t-42.5 -124.5q48 7 99 7t105 -7q-22 51 -42.5 124t-33.5 172q-4 28 -7 59h-38zM952 355q-2 -31 -6 -59q-14 -98 -34.5 -171.5t-42.5 -124.5
q48 7 99 7t105 -7q-22 51 -42.5 124t-33.5 172q-4 28 -7 59h-38zM1182 355q-2 -31 -6 -59q-14 -98 -34.5 -171.5t-42.5 -124.5q48 7 99 7t105 -7q-22 51 -42.5 124t-33.5 172q-4 28 -7 59h-38zM953 800q0 -107 -28 -190q-26 -75 -65 -134v15q-126 0 -224 13.5t-171.5 34
t-124.5 42.5q6 -37 7 -75q-92 13 -163 32q-73 21 -124 43q7 -48 7 -99t-7 -105q51 22 124 42q70 20 163 33q-2 -37 -7 -75q51 22 124 42.5t172 33.5q95 13 217 14q-1 -2 -2 -3q-45 -63 -92 -106q104 6 214.5 6t226.5 -6q-47 43 -92 105.5t-73.5 146t-28.5 190.5h-53z" />
</svg>
