<?xml version="1.0" standalone="no"?>
<!DOCTYPE svg PUBLIC "-//W3C//DTD SVG 1.1//EN" "http://www.w3.org/Graphics/SVG/1.1/DTD/svg11.dtd" >
<svg xmlns="http://www.w3.org/2000/svg" xmlns:xlink="http://www.w3.org/1999/xlink" version="1.1" viewBox="0 0 730 811">
   <path fill="currentColor"
d="M509 230q97 7 211 7v24q-118 0 -217 7q-12 85 -21 187v3q107 9 238 9v24q-133 0 -242 9q-6 87 -8 187q112 10 250 10v24q-139 0 -251 10v69h-25v-66h-8q-125 14 -218 34.5t-158 42.5q9 -48 9 -99t-9 -105q65 22 158 42.5t217 33.5q4 1 8 1q-2 -96 -8 -180
q-124 14 -217 34q-93 21 -158 43q9 -48 9 -99t-9 -105q65 22 158 42q91 21 213 34q-8 -96 -20 -176q-109 13 -193 31q-93 21 -158 43q9 -48 9 -99t-9 -105q65 22 158 42q80 18 184 31q-2 -15 -5 -28q-21 -114 -42 -192q48 11 99 11t105 -11q-22 78 -43 191q-3 19 -7 39z" />
</svg>
