<?xml version="1.0" standalone="no"?>
<!DOCTYPE svg PUBLIC "-//W3C//DTD SVG 1.1//EN" "http://www.w3.org/Graphics/SVG/1.1/DTD/svg11.dtd" >
<svg xmlns="http://www.w3.org/2000/svg" xmlns:xlink="http://www.w3.org/1999/xlink" version="1.1" viewBox="0 0 1139 811">
   <path fill="currentColor"
d="M415 498zM415 460zM415 498q-31 3 -59 6q-98 14 -171.5 34.5t-124.5 42.5q7 -48 7 -99t-7 -105q51 22 124 42.5t172 33.5q28 4 59 7v38zM979 262q-92 2 -168 12q-98 14 -171.5 34.5t-124.5 42.5q7 -48 7 -99t-7 -105q51 22 124 42.5t172 33.5q74 10 164 13q-4 -23 -8 -44
q-21 -114 -42 -192q48 11 99 11t105 -11q-22 78 -43 191t-34 264t-13 345h-25v-79q-184 1 -328 13q-151 14 -264.5 34.5t-191.5 42.5q11 -48 11 -99t-11 -105q78 22 191 42.5t264 33.5q144 13 328 14q-2 -132 -12 -241q-9 -107 -22 -194z" />
</svg>
