<?xml version="1.0" standalone="no"?>
<!DOCTYPE svg PUBLIC "-//W3C//DTD SVG 1.1//EN" "http://www.w3.org/Graphics/SVG/1.1/DTD/svg11.dtd" >
<svg xmlns="http://www.w3.org/2000/svg" xmlns:xlink="http://www.w3.org/1999/xlink" version="1.1" viewBox="0 0 1083 804">
   <path fill="currentColor"
d="M546 336zM573 309zM1046 756zM1073 729zM1046 436zM1073 409zM695 447zM695 409zM415 447zM415 409zM546 336q-24 -20 -46 -37q-79 -60 -146 -97.5t-118 -57.5q39 -29 75 -65t69 -79q21 51 58 117.5t97 145.5q18 23 38 46zM1046 756q-24 -20 -46 -37q-79 -60 -146 -97.5
t-118 -57.5q39 -29 75 -65t69 -79q21 51 58 117.5t97 145.5q18 23 38 46zM1046 436q-24 -20 -46 -37q-79 -60 -146 -97q-66 -37 -116 -58q-15 96 -26 215q-13 151 -13 345h-25q0 -193 -13 -344q0 -5 -1 -10q-12 2 -24 3q-98 14 -171.5 34.5t-124.5 42.5q6 -37 7 -75
q-92 13 -163 32q-73 21 -124 43q7 -48 7 -99t-7 -105q51 22 124 42q70 20 163 33q-2 -37 -7 -75q51 22 124 42.5t172 33.5q10 2 20 3q-12 -117 -29 -209q-21 -114 -42 -192q48 11 99 11t105 -11q-22 78 -43 191q-4 23 -8 47q38 -28 73 -63q36 -36 69 -79q21 51 58 117.5
t97 145.5q18 23 38 46z" />
</svg>
