<?xml version="1.0" standalone="no"?>
<!DOCTYPE svg PUBLIC "-//W3C//DTD SVG 1.1//EN" "http://www.w3.org/Graphics/SVG/1.1/DTD/svg11.dtd" >
<svg xmlns="http://www.w3.org/2000/svg" xmlns:xlink="http://www.w3.org/1999/xlink" version="1.1" viewBox="0 0 870 800">
   <path fill="currentColor"
d="M860 436q-193 0 -344 13q-28 3 -54 5v1q-13 151 -13 345h-25q0 -191 -12 -340q-88 10 -160 23q-114 21 -192 43q11 -48 11 -99t-11 -105q78 22 191 42q70 13 154 23q-12 -109 -28 -195q-21 -114 -42 -192q48 11 99 11t105 -11q-22 78 -43 191q-16 90 -28 203q23 2 47 4
q151 14 345 14v24z" />
</svg>
