<?xml version="1.0" standalone="no"?>
<!DOCTYPE svg PUBLIC "-//W3C//DTD SVG 1.1//EN" "http://www.w3.org/Graphics/SVG/1.1/DTD/svg11.dtd" >
<svg xmlns="http://www.w3.org/2000/svg" xmlns:xlink="http://www.w3.org/1999/xlink" version="1.1" viewBox="0 0 1779 812">
   <path fill="currentColor"
d="M1742 812zM1769 785zM1512 812zM1539 785zM511 812zM538 785zM741 812zM768 785zM415 444zM415 406zM1742 812q-24 -20 -46 -37q-79 -60 -146 -97.5t-118 -57.5q39 -29 75 -65t69 -79q21 51 58 117q-2 -119 -13 -217q-13 -125 -34 -218t-42 -158q48 9 99 9t105 -9
q-22 65 -43 158t-34 217q-12 115 -13 260q31 49 72 104q18 23 38 46zM1512 812q-24 -20 -46 -37q-39 -30 -75 -54q-142 1 -255 13q-125 14 -218 34.5t-158 42.5l4 -22l-23 23q-24 -20 -46 -37q-79 -60 -146 -97.5t-118 -57.5q39 -29 75 -65t69 -79q21 51 58 117
q-2 -119 -13 -217q-13 -125 -34 -218t-42 -158q48 9 99 9t105 -9q-22 65 -43 158t-34 217q-12 115 -13 260q31 49 72 104q16 21 35 43q4 -35 4 -70q0 -51 -9 -105q65 22 158 42.5t217 33.5q97 11 216 13q-16 -10 -31 -18q-67 -38 -118 -58q39 -29 75 -65q29 -29 56 -63
q-107 3 -197 12q-125 14 -218 34.5t-158 42.5q9 -48 9 -99t-9 -105q65 22 158 42.5t217 33.5q116 13 264 14q-3 -48 -8 -91q-6 -61 -15 -115q-133 2 -240 13q-125 14 -218 34.5t-158 42.5q9 -48 9 -99t-9 -105q65 22 158 42.5t217 33.5q106 12 237 13q-7 -41 -15 -78
q-21 -93 -42 -158q48 9 99 9t105 -9q-22 65 -43 158t-34 217q-12 115 -13 260q31 49 72 104q18 23 38 46zM511 812q-24 -20 -46 -37q-79 -60 -146 -97.5t-118 -57.5q39 -29 75 -65t69 -79q21 51 58 117q-2 -78 -7 -147l-40 4q-98 14 -171.5 34.5t-124.5 42.5q7 -48 7 -99
t-7 -105q51 22 124 42.5t172 33.5q18 3 37 5q-1 -14 -3 -28q-13 -125 -34 -218t-42 -158q48 9 99 9t105 -9q-22 65 -43 158t-34 217q-12 115 -13 260q31 49 72 104q18 23 38 46zM1404 593q-1 -53 -4 -102q-24 0 -47 1q20 45 51 101z" />
</svg>
