<?xml version="1.0" standalone="no"?>
<!DOCTYPE svg PUBLIC "-//W3C//DTD SVG 1.1//EN" "http://www.w3.org/Graphics/SVG/1.1/DTD/svg11.dtd" >
<svg xmlns="http://www.w3.org/2000/svg" xmlns:xlink="http://www.w3.org/1999/xlink" version="1.1" viewBox="0 0 1220 800">
   <path fill="currentColor"
d="M490 800q0 -193 -13.5 -344t-34 -264.5t-42.5 -191.5q48 11 99 11t105 -11q-22 78 -43 191q-3 18 -6 38q63 20 153 40q85 19 197 32q-8 -58 -18 -109q-20 -114 -42 -192q48 11 99 11t105 -11q-22 78 -43 191q-10 55 -18 118q101 8 222 8v24q-124 0 -227 8q-6 50 -11 106
q-3 40 -6 82q110 10 244 10v24q-136 0 -246 10q-5 101 -5 219h-24q0 -116 -5 -216h-4q-124 14 -217.5 34.5t-158.5 42.5q10 -48 10 -99t-10 -105q65 22 158 42.5t217 33.5q1 1 2 1q-2 -41 -6 -78q-4 -52 -10 -100q-115 13 -203 32q-93 21 -158 43q10 -48 10 -99
q0 -44 -7 -90q-15 95 -26 213q-13 151 -13 345h-24zM386 770q-120 -129 -196.5 -216t-129.5 -135q49 -49 97.5 -102t104.5 -114.5t124 -134.5l17 12q-65 104 -112 192t-77 147q25 50 73 139.5t116 199.5z" />
</svg>
