<?xml version="1.0" standalone="no"?>
<!DOCTYPE svg PUBLIC "-//W3C//DTD SVG 1.1//EN" "http://www.w3.org/Graphics/SVG/1.1/DTD/svg11.dtd" >
<svg xmlns="http://www.w3.org/2000/svg" xmlns:xlink="http://www.w3.org/1999/xlink" version="1.1" viewBox="0 0 1270 910">
   <path fill="currentColor"
d="M511 910zM538 883zM855 336zM882 309zM415 542zM415 504zM511 910q-24 -20 -46 -37q-79 -60 -146 -97.5t-118 -57.5q39 -29 75 -65t69 -79q21 51 58 117q-2 -78 -7 -147l-40 4q-98 14 -171.5 34.5t-124.5 42.5q7 -48 7 -99t-7 -105q51 22 124 42.5t172 33.5q18 3 37 5
q-1 -14 -3 -28q-13 -125 -34 -218t-42 -158q48 9 99 9t105 -9q-22 65 -43 158t-34 217q-12 115 -13 260q31 49 72 104q18 23 38 46zM839 256q19 -21 36 -44q21 52 58 118.5t97 144.5q11 15 24 30q96 5 206 5v24q-95 0 -180 3q44 51 99 106l-17 18q-69 -70 -133 -121
q-59 3 -113 7q-151 14 -264.5 34.5t-191.5 42.5q11 -48 11 -99t-11 -105q78 22 191 42.5t264 33.5q32 3 66 5q-71 -52 -132 -87q-67 -37 -118 -58q37 -27 72 -61q-75 -57 -140 -93q-67 -38 -118 -58q39 -29 75 -65t69 -79q21 51 58 117q36 64 92 139z" />
</svg>
