<?xml version="1.0" standalone="no"?>
<!DOCTYPE svg PUBLIC "-//W3C//DTD SVG 1.1//EN" "http://www.w3.org/Graphics/SVG/1.1/DTD/svg11.dtd" >
<svg xmlns="http://www.w3.org/2000/svg" xmlns:xlink="http://www.w3.org/1999/xlink" version="1.1" viewBox="0 0 1964 800">
   <path fill="currentColor"
d="M473 355zM511 355zM1113 355zM1151 355zM1343 355zM1381 355zM1573 355zM1611 355zM1833 355zM1871 355zM480 800q0 -126 -13.5 -224t-34 -171.5t-42.5 -124.5q37 6 75 7q-13 -92 -33 -163q-20 -73 -42 -124q48 7 99 7t105 -7q-22 51 -43 124q-20 70 -33 163q37 -2 76 -7
q-22 51 -43 124t-34 171.5t-13 224.5h-24zM386 770q-120 -129 -196.5 -216t-129.5 -135q49 -49 97.5 -102t104.5 -114.5t124 -134.5l17 12q-65 104 -112 192t-77 147q25 50 73 139.5t116 199.5zM1120 800q0 -126 -14 -224v-5q-108 2 -195 13q-98 14 -171.5 34.5t-124.5 42.5
q7 -48 7 -99t-7 -105q51 22 124.5 42.5t171.5 33.5q85 12 191 13q-12 -79 -30 -142q-9 -33 -19 -61q-77 3 -142 11q-98 14 -171.5 34.5t-124.5 42.5q7 -48 7 -99t-7 -105q51 22 124.5 42.5t171.5 33.5q61 9 133 12q-7 -19 -14 -35q37 6 75 7q-13 -92 -33 -163
q-20 -73 -42 -124q48 7 99 7t105 -7q-22 51 -43 124q-20 70 -33 163q37 -2 76 -7q-22 51 -43 124t-34 171.5t-13 224.5h-24zM1350 800q0 -126 -13.5 -224t-34 -171.5t-42.5 -124.5q37 6 75 7q-13 -92 -33 -163q-20 -73 -42 -124q48 7 99 7t105 -7q-22 51 -43 124
q-20 70 -33 163q37 -2 76 -7q-22 51 -43 124t-34 171.5t-13 224.5h-24zM1580 800q0 -126 -13.5 -224t-34 -171.5t-42.5 -124.5q37 6 75 7q-13 -92 -33 -163q-20 -73 -42 -124q48 7 99 7t105 -7q-22 51 -43 124q-20 70 -33 163q37 -2 76 -7q-22 51 -43 124t-34 171.5
t-13 224.5h-24zM1840 800q0 -126 -13.5 -224t-34 -171.5t-42.5 -124.5q37 6 75 7q-13 -92 -33 -163q-20 -73 -42 -124q48 7 99 7t105 -7q-22 51 -43 124q-20 70 -33 163q37 -2 76 -7q-22 51 -43 124t-34 171.5t-13 224.5h-24z" />
</svg>
