<?xml version="1.0" standalone="no"?>
<!DOCTYPE svg PUBLIC "-//W3C//DTD SVG 1.1//EN" "http://www.w3.org/Graphics/SVG/1.1/DTD/svg11.dtd" >
<svg xmlns="http://www.w3.org/2000/svg" xmlns:xlink="http://www.w3.org/1999/xlink" version="1.1" viewBox="0 0 1768 870">
   <path fill="currentColor"
d="M495 548zM495 510zM1261 812zM1288 785zM1491 812zM1518 785zM1643 800q0 -193 -13 -344t-34 -264.5t-42 -191.5q48 11 99 11t105 -11q-22 78 -43 191t-34 264t-13 345h-25zM960 171q-160 0 -284.5 13.5t-217.5 34t-158 42.5q9 -48 9 -99t-9 -105q65 22 158 42.5
t217.5 34t284.5 13.5v24zM1261 812q-24 -20 -46 -37q-39 -30 -75 -54q-86 0 -166 2q-5 68 -5 147h-25q0 -79 -5 -147q-103 3 -196 7q-4 61 -4 130h-25q0 -68 -3 -128l-36 2q-86 6 -163 13q-3 53 -3 113h-25q0 -58 -2 -110q-88 8 -163 18q-153 21 -259 43q15 -48 15 -99
t-15 -105q38 8 81 15q6 -44 6 -90q0 -51 -7 -105q51 22 124 42.5t172 33.5l12 2q-5 -21 -11 -41q-8 -30 -17 -57q-5 1 -8 1q-114 21 -192 43q11 -48 11 -99t-11 -105q78 22 191 42.5t264 34t345 13.5v17q19 -1 39 -4q-22 51 -43 124q-14 51 -25 114q18 -16 35 -33
q36 -36 69 -79q21 51 58 117q-2 -119 -13 -217q-13 -125 -34 -218t-42 -158q48 9 99 9t105 -9q-22 65 -43 158t-34 217q-12 115 -13 260q31 49 72 104q18 23 38 46zM1491 812q-24 -20 -46 -37q-79 -60 -146 -97.5t-118 -57.5q39 -29 75 -65t69 -79q21 51 58 117
q-2 -119 -13 -217q-13 -125 -34 -218t-42 -158q48 9 99 9t105 -9q-22 65 -43 158t-34 217q-12 115 -13 260q31 49 72 104q18 23 38 46zM1101 697q-16 -11 -32 -19q-46 -26 -85 -44l-2 12q-3 24 -6 49q61 1 125 2zM155 625q73 12 163 24q73 10 157 19l-4 -32q-6 -45 -13 -84
l-22 2q-98 14 -172 34q-63 18 -109 37zM746 688q90 4 191 6l-6 -48q-13 -98 -34 -172q-18 -64 -37 -110q-21 0 -42 1q-16 43 -32 99q-21 73 -34 172q-3 25 -6 52zM640 378q-30 3 -58 6q-13 36 -26 80q-21 73 -34 172q-2 17 -4 36q74 6 156 11q16 1 33 2q-3 -25 -6 -49
q-13 -98 -34 -172q-13 -48 -27 -86z" />
</svg>
