<?xml version="1.0" standalone="no"?>
<!DOCTYPE svg PUBLIC "-//W3C//DTD SVG 1.1//EN" "http://www.w3.org/Graphics/SVG/1.1/DTD/svg11.dtd" >
<svg xmlns="http://www.w3.org/2000/svg" xmlns:xlink="http://www.w3.org/1999/xlink" version="1.1" viewBox="0 0 691 803">
   <path fill="currentColor"
d="M561 358zM598 358zM439 336zM465 309zM355 566zM381 539zM567 803q0 -126 -13 -224t-34 -171.5t-42 -124.5q36 6 75 7q-13 -92 -33 -163q-21 -73 -42 -124q48 7 99 7t104 -7q-21 51 -42 124q-20 70 -33 163q37 -2 75 -7q-21 51 -42 124t-34 171.5t-13 224.5h-25zM439 336
q-24 -20 -47 -37q-78 -60 -145 -97.5t-118 -57.5q39 -29 75 -65t69 -79q21 51 58 117.5t97 145.5q18 23 37 46q-11 12 -26 27zM355 566q-24 -20 -47 -37q-78 -60 -145 -97.5t-118 -57.5q39 -29 75 -65t69 -79q21 51 58 117.5t97 145.5q18 23 37 46q-11 12 -26 27z" />
</svg>
