<?xml version="1.0" standalone="no"?>
<!DOCTYPE svg PUBLIC "-//W3C//DTD SVG 1.1//EN" "http://www.w3.org/Graphics/SVG/1.1/DTD/svg11.dtd" >
<svg xmlns="http://www.w3.org/2000/svg" xmlns:xlink="http://www.w3.org/1999/xlink" version="1.1" viewBox="0 0 1274 800">
   <path fill="currentColor"
d="M821 434zM821 411zM1140 701q-261 0 -465 13q-98 7 -185 15q-1 34 -1 71h-25q0 -35 -1 -69q-71 8 -133 16q-1 26 -1 53h-25v-50q-143 20 -244 41q15 -48 15 -99t-15 -105q98 20 237 40q-3 -26 -6 -51q-13 -98 -34 -171.5t-42 -124.5q48 7 99 7q31 0 63 -2q-1 -3 -2 -5
q10 2 21 3q11 -1 23 -3q-1 2 -3 5q29 2 58 2q51 0 105 -7q-22 51 -43 124t-34 172q-5 35 -8 73q84 8 180 14q204 14 466 14v24zM1149 800q0 -193 -13 -344l-2 -26q-63 1 -116 6q0 3 -1 5q-8 91 -8 207h-14q0 -116 -8 -206v-3q-66 8 -116 19q-56 13 -95 26q4 -23 5 -46
q-56 8 -98 20q-44 13 -75 26q5 -29 5 -59.5t-5 -63.5q31 13 75 26q42 12 98 20q-1 -23 -5 -46q39 13 95 26q49 11 112 18q-7 -68 -17 -122q-12 -68 -25 -115q29 7 59.5 7t62.5 -7q-13 47 -25 115q-10 55 -18 126q52 5 112 6q-12 -126 -30 -223q-4 -21 -7 -41q-234 1 -420 13
q-204 14 -356.5 34.5t-258.5 42.5q15 -48 15 -99t-15 -105q106 22 258 42.5t356 33.5q184 12 416 14q-15 -72 -30 -127q48 11 99 11t105 -11q-22 78 -43 191t-34 264t-13 345h-25zM459 646q-3 -37 -8 -70q-13 -98 -34 -172q-10 -36 -20 -66q-11 30 -21 66q-21 73 -34 172
q-4 27 -6 56q58 7 123 14z" />
</svg>
