<?xml version="1.0" standalone="no"?>
<!DOCTYPE svg PUBLIC "-//W3C//DTD SVG 1.1//EN" "http://www.w3.org/Graphics/SVG/1.1/DTD/svg11.dtd" >
<svg xmlns="http://www.w3.org/2000/svg" xmlns:xlink="http://www.w3.org/1999/xlink" version="1.1" viewBox="0 0 2110 813">
   <path fill="currentColor"
d="M1585 662zM1611 635zM1747 500zM1774 473zM1910 337zM1937 310zM1585 662q-24 -19 -47 -37q-78 -60 -145 -97.5t-118 -57.5q39 -29 75 -65t69 -79q21 51 58 117.5t97 145.5q17 23 37 46q-11 12 -26 27zM1747 500q-23 -20 -46 -37q-79 -60 -145.5 -97.5t-117.5 -58.5
q39 -29 75 -65t69 -79q20 51 57.5 117.5t97.5 145.5q17 23 37 47zM1910 337q-24 -20 -46 -37q-79 -60 -145.5 -97.5t-118.5 -57.5q39 -29 75 -65t69 -80q21 52 58 118.5t97 144.5q18 23 38 47zM2063 813q-76 -75 -155 -114t-155 -51.5t-140 -9.5q78 -69 156 -147t156 -165
q-3 64 9.5 140t51 155t114.5 155zM1229 803q0 -193 -13 -344t-33.5 -264.5t-42.5 -191.5q48 11 99 11t105 -11q-22 78 -43 191t-34 264t-13 345h-25zM999 803q0 -193 -13 -344v-7q-82 4 -149 27q-84 29 -146.5 73.5t-105.5 91.5q6 -104 6 -214t-6 -226q43 47 105.5 91.5
t145.5 73.5q65 22 144 27q-11 -112 -28 -201q-20 -114 -42 -192q48 11 99 11t105 -11q-22 78 -43 191t-34 264t-13 345h-25zM585 639q-126 0 -224 13.5t-171.5 34t-124.5 42.5q7 -48 7 -99q0 -50 -7 -101v-2v-2h1q6 -46 6 -95.5t-7 -100.5v-2v-2h1q6 -46 6 -95
q0 -51 -7 -105q51 22 124 42.5t171.5 34t224.5 13.5v24q-126 0 -224 13.5t-172 33.5q-70 20 -120 41q50 21 120 40q73 21 171.5 34.5t224.5 13.5v24q-126 0 -224 13.5t-172 33.5q-70 20 -120 41q50 21 120 40q73 21 171.5 34.5t224.5 13.5v24z" />
</svg>
