<?xml version="1.0" standalone="no"?>
<!DOCTYPE svg PUBLIC "-//W3C//DTD SVG 1.1//EN" "http://www.w3.org/Graphics/SVG/1.1/DTD/svg11.dtd" >
<svg xmlns="http://www.w3.org/2000/svg" xmlns:xlink="http://www.w3.org/1999/xlink" version="1.1" viewBox="-5 0 2188 832">
   <path fill="currentColor"
d="M2071 403zM2071 365zM1791 403zM1791 365zM315 832zM341 805zM1349 820q0 -193 -13 -344t-34 -264t-42 -192q-45 72 -77 133q-35 66 -58 110q19 38 55 105t87 150l-13 8q-90 -96 -147 -162q-44 -50 -78 -83q-110 2 -198 13q-98 14 -171.5 34.5t-124.5 42.5q7 -48 7 -99
t-7 -105q51 22 124 42.5t171 33.5q83 12 186 13q34 -33 67 -69q36 -40 78 -86t93 -101l13 9q-4 5 -7 11q48 11 99 11t104 -11q-21 78 -42 191t-34 264t-13 345h-25zM1190 741q-160 0 -284.5 13t-218 34t-157.5 42q9 -48 9 -99t-9 -104q64 21 157 42t218 34t285 13v25z
M439 820q0 -193 -13 -344t-34 -264.5t-42 -191.5q48 11 99 11t104 -11q-21 78 -42 191t-34 264t-13 345h-25zM315 832q-24 -20 -47 -37q-78 -60 -145 -97.5t-118 -57.5q39 -29 75 -65t69 -79q21 51 58 117q-3 -119 -13 -217q-13 -125 -34 -218t-42 -158q48 9 99 9t104 -9
q-21 65 -42 158t-34 217q-12 115 -13 260q30 49 72 104q18 23 37 46q-11 12 -26 27zM2039 406q-14 2 -27 3q-98 14 -171.5 34.5t-124.5 42.5q5 -37 7 -75q-93 13 -163 32q-73 21 -124 43q7 -48 7 -99t-7 -105q51 22 124 42q70 20 163 33q-2 -37 -7 -75q51 22 124 42.5
t171 33.5q12 2 23 3q-10 -81 -22 -148q-21 -114 -42 -192q48 11 99 11t104 -11q-21 78 -42 191t-34 264t-13 345h-25q0 -103 -4 -195q-114 1 -204 13q-98 14 -171.5 34.5t-124.5 42.5q7 -48 7 -99t-7 -105q51 22 124 42.5t171 33.5q90 13 204 14q-3 -66 -8 -125
q-3 -37 -7 -71z" />
</svg>
