<?xml version="1.0" standalone="no"?>
<!DOCTYPE svg PUBLIC "-//W3C//DTD SVG 1.1//EN" "http://www.w3.org/Graphics/SVG/1.1/DTD/svg11.dtd" >
<svg xmlns="http://www.w3.org/2000/svg" xmlns:xlink="http://www.w3.org/1999/xlink" version="1.1" viewBox="0 0 1275 702">
   <path fill="currentColor"
d="M815 375zM815 337zM386 702q-120 -129 -196.5 -216t-129.5 -135q49 -49 97.5 -102t104.5 -114.5t124 -134.5l17 12q-65 104 -112 192t-77 147q25 50 73 139.5t116 199.5zM1260 598q-193 0 -344 13.5t-264.5 34t-191.5 42.5q11 -48 11 -99t-11 -105q78 22 191 42.5t264 34
t345 13.5v24zM1260 138q-193 0 -344 13.5t-264.5 34t-191.5 42.5q11 -48 11 -99t-11 -105q78 22 191 42.5t264 34t345 13.5v24zM1265 368q-126 0 -224 13.5t-171.5 34t-124.5 42.5q6 -37 7 -76q-95 13 -167 33q-74 21 -125 43q8 -48 8 -99t-8 -105q51 22 124 42
q72 21 168 34q-2 -37 -7 -76q51 22 124.5 42.5t171.5 34t224 13.5v24z" />
</svg>
