<?xml version="1.0" standalone="no"?>
<!DOCTYPE svg PUBLIC "-//W3C//DTD SVG 1.1//EN" "http://www.w3.org/Graphics/SVG/1.1/DTD/svg11.dtd" >
<svg xmlns="http://www.w3.org/2000/svg" xmlns:xlink="http://www.w3.org/1999/xlink" version="1.1" viewBox="-5 0 1190 910">
   <path fill="currentColor"
d="M315 910zM341 883zM659 336zM685 309zM979 876zM1005 849zM1149 716zM1175 689zM315 910q-24 -20 -47 -37q-78 -60 -145 -97.5t-118 -57.5q39 -29 75 -65t69 -79q21 51 58 117q-3 -119 -13 -217q-13 -125 -34 -218t-42 -158q48 9 99 9t104 -9q-21 65 -42 158t-34 217
q-12 115 -13 260q30 49 72 104q18 23 37 46q-11 12 -26 27zM659 336q-24 -20 -47 -37q-78 -60 -145 -97.5t-118 -57.5q39 -29 75 -65t69 -79q21 51 58 117.5t97 145.5q18 23 37 46q-11 12 -26 27zM979 876q-24 -20 -47 -37q-78 -60 -145 -97.5t-118 -57.5q39 -29 75 -65
t69 -79q21 51 58 117.5t97 145.5q18 23 37 46q-11 12 -26 27zM1149 716q-24 -20 -47 -37q-78 -60 -145 -97q-50 -29 -92 -47q-122 2 -221 12q-125 14 -218.5 34.5t-157.5 42.5q9 -48 9 -99t-9 -105q64 22 157 42.5t218 33.5q97 11 215 13q29 -23 56 -50q36 -36 69 -79
q21 51 58 117.5t97 145.5q18 23 37 46q-11 12 -26 27z" />
</svg>
