<?xml version="1.0" standalone="no"?>
<!DOCTYPE svg PUBLIC "-//W3C//DTD SVG 1.1//EN" "http://www.w3.org/Graphics/SVG/1.1/DTD/svg11.dtd" >
<svg xmlns="http://www.w3.org/2000/svg" xmlns:xlink="http://www.w3.org/1999/xlink" version="1.1" viewBox="0 0 1540 813">
   <path fill="currentColor"
d="M573 523zM611 523zM573 803zM611 803zM1015 662zM1041 635zM1177 500zM1204 473zM1340 337zM1367 310zM573 803q-3 -31 -7 -59q-9 -71 -23 -130q-103 2 -187 13q-98 14 -171.5 34.5t-124.5 42.5q7 -48 7 -99t-7 -105q51 22 124 42.5t172 33.5q81 11 181 13q-2 -8 -5 -17
q-20 -73 -42 -124q37 6 75 7q-13 -92 -33 -163q-16 -58 -33 -102q-25 4 -47 8q-114 21 -192 42q11 -48 11 -99t-11 -104q78 21 191 42t264 34q148 13 339 13q26 -21 51 -46q36 -36 69 -80q21 52 58 118.5t97 144.5q18 23 38 47l-27 27q-24 -20 -46 -37q-79 -60 -146 -97
q-57 -33 -103 -52q-184 0 -329 13q-58 5 -111 11q43 -1 89 -7q-22 51 -43 124q-20 70 -33 163q37 -2 76 -7q-22 51 -43 124t-34 172q-4 28 -6 59h-38zM1015 662q-24 -19 -47 -37q-78 -60 -145 -97.5t-118 -57.5q39 -29 75 -65t69 -79q21 51 58 117.5t97 145.5q17 23 37 46
q-11 12 -26 27zM1177 500q-23 -20 -46 -37q-79 -60 -145.5 -97.5t-117.5 -58.5q39 -29 75 -65t69 -79q20 51 57.5 117.5t97.5 145.5q17 23 37 47zM1493 813q-76 -75 -155 -114t-155 -51.5t-140 -9.5q78 -69 156 -147t156 -165q-3 64 9.5 140t51 155t114.5 155z" />
</svg>
