<?xml version="1.0" standalone="no"?>
<!DOCTYPE svg PUBLIC "-//W3C//DTD SVG 1.1//EN" "http://www.w3.org/Graphics/SVG/1.1/DTD/svg11.dtd" >
<svg xmlns="http://www.w3.org/2000/svg" xmlns:xlink="http://www.w3.org/1999/xlink" version="1.1" viewBox="0 0 1364 811">
   <path fill="currentColor"
d="M760 578zM760 540zM760 348zM760 310zM760 578q-30 3 -59 6q-98 14 -171.5 34.5t-124.5 42.5q8 -48 8 -99t-8 -105q51 22 124.5 42.5t171.5 33.5q28 4 59 7v38zM760 348q-30 3 -59 6q-98 14 -171.5 34.5t-124.5 42.5q8 -48 8 -99t-8 -105q51 22 124.5 42.5t171.5 33.5
q28 4 59 7v38zM386 770q-120 -129 -196.5 -216t-129.5 -135q49 -49 97.5 -102t104.5 -114.5t124 -134.5l17 12q-65 104 -112 192t-77 147q25 50 73 139.5t116 199.5zM1239 697q-3 -132 -13 -241q-13 -151 -34 -264q-3 -21 -7 -40q-90 2 -165 12l1 1q-49 78 -84 144t-58 110
q19 38 55 105t87 150l-12 8q3 1 7 1q97 14 223 14zM1239 721q-125 0 -223 13q-98 14 -171.5 34.5t-124.5 42.5q7 -48 7 -99t-7 -105q51 22 124 42q71 21 165 33q-90 -96 -147.5 -161.5t-97.5 -101.5q37 -36 73.5 -76t78.5 -86q37 -41 82 -90q-87 13 -153 31q-74 21 -125 43
q7 -48 7 -99t-7 -105q51 22 124.5 42.5t171.5 33.5q74 10 164 13q-15 -72 -30 -126q48 11 99 11t105 -11q-22 78 -43 191t-34 264t-13 345h-24q0 -40 -1 -79z" />
</svg>
