<?xml version="1.0" standalone="no"?>
<!DOCTYPE svg PUBLIC "-//W3C//DTD SVG 1.1//EN" "http://www.w3.org/Graphics/SVG/1.1/DTD/svg11.dtd" >
<svg xmlns="http://www.w3.org/2000/svg" xmlns:xlink="http://www.w3.org/1999/xlink" version="1.1" viewBox="0 0 1212 800">
   <path fill="currentColor"
d="M584 355zM622 355zM814 355zM852 355zM820 800q0 -126 -13 -224t-33.5 -171.5t-42.5 -124.5q37 6 75 7q-13 -92 -33 -163q-20 -73 -42 -124q48 7 99 7t105 -7q-22 51 -43 124q-20 70 -33 163q37 -2 76 -7q-22 51 -43 124t-34 171.5t-13 224.5h-25zM1190 682
q-90 -96 -148 -161.5t-97 -101.5q36 -36 73 -76t78.5 -86t93.5 -101l12 9q-49 78 -84 144t-58 110q19 38 55 105t87 150zM65 489v-2h1q6 -46 6 -95.5t-7 -100.5v-2v-2h1q6 -46 6 -95q0 -51 -7 -105q51 22 124 42.5t172 33.5q86 12 195 13q-6 -27 -13 -52q-20 -73 -42 -124
q48 7 99 7t105 -7q-22 51 -43 124q-20 70 -33 163q37 -2 76 -7q-22 51 -43 124t-34 171.5t-13 224.5h-25q0 -110 -10 -199q-123 0 -219 13q-98 14 -171.5 34.5t-124.5 42.5q7 -48 7 -99q0 -50 -7 -101v-2zM69 489q50 21 120 40q73 21 172 34q95 13 216 14v-1
q-13 -98 -34 -172q0 -2 -1 -2q-100 1 -181 12q-98 14 -172 34q-70 20 -120 41zM69 289q50 21 120 40q73 21 172 34q78 11 174 13q-17 -55 -34 -96q37 6 75 7q-6 -46 -14 -86q-112 1 -201 13q-98 14 -172 34q-70 20 -120 41z" />
</svg>
