<?xml version="1.0" standalone="no"?>
<!DOCTYPE svg PUBLIC "-//W3C//DTD SVG 1.1//EN" "http://www.w3.org/Graphics/SVG/1.1/DTD/svg11.dtd" >
<svg xmlns="http://www.w3.org/2000/svg" xmlns:xlink="http://www.w3.org/1999/xlink" version="1.1" viewBox="0 0 1540 814">
   <path fill="currentColor"
d="M355 662zM381 635zM517 500zM544 473zM680 337zM707 310zM355 662q-24 -19 -47 -37q-78 -60 -145 -97.5t-118 -57.5q39 -29 75 -65t69 -79q21 51 58 117.5t97 145.5q18 23 37 46q-11 12 -26 27zM517 500q-23 -20 -46 -37q-79 -60 -145.5 -97.5t-117.5 -58.5
q39 -29 75 -65t69 -79q20 51 57.5 117.5t97.5 145.5q17 23 37 47zM680 337q-24 -20 -46 -37q-79 -60 -145.5 -97.5t-118.5 -57.5q39 -29 75.5 -65t68.5 -80q21 52 58 118.5t97 144.5q18 23 38 47zM833 813q-76 -75 -155 -114t-155 -51.5t-140 -9.5q78 -69 156 -147t156 -165
q-3 64 9.5 140t51 155t114.5 155zM1289 503q-7 87 -9 187q112 10 250 10v24q-138 0 -251 10v69h-24q0 -34 -1 -66h-8q-124 14 -217.5 34.5t-158.5 42.5q9 -48 9 -99t-9 -105q65 22 158 42.5t217 33.5q4 1 8 1q-2 -96 -8 -180q-124 14 -217 34q-93 21 -158 43q9 -48 9 -99
t-9 -105q65 22 158 42q91 21 213 34q-8 -96 -20 -176q-109 13 -193 31q-93 21 -158 43q9 -48 9 -99t-9 -105q65 22 158 42q80 18 184 31q-2 -15 -5 -28q-20 -114 -42 -192q48 11 99 11t105 -11q-22 78 -43 191q-3 19 -7 39q97 7 211 7v24q-118 0 -216 7q-13 85 -22 187v3
q107 9 238 9v24q-133 0 -241 9z" />
</svg>
