<?xml version="1.0" standalone="no"?>
<!DOCTYPE svg PUBLIC "-//W3C//DTD SVG 1.1//EN" "http://www.w3.org/Graphics/SVG/1.1/DTD/svg11.dtd" >
<svg xmlns="http://www.w3.org/2000/svg" xmlns:xlink="http://www.w3.org/1999/xlink" version="1.1" viewBox="0 0 1370 1020">
   <path fill="currentColor"
d="M844 604zM863 571zM1118 1020q-168 -97 -305.5 -161t-245.5 -102.5t-187 -58.5q34 -36 59.5 -80.5t42.5 -96.5q-72 -38 -135 -64q-92 -37 -166 -56t-129 -26q30 -38 55.5 -82t46.5 -94q33 44 86 98.5t132 115.5q54 42 123 85q30 -38 55.5 -82t46.5 -94q-72 -38 -135 -64
q-92 -37 -166 -56t-129 -26q30 -38 55.5 -82t46.5 -94q33 44 86 98.5t132 115.5q54 42 123 85q34 -36 59.5 -80t42.5 -96q57 58 144 132t211.5 161t292.5 184l-12 22q-168 -97 -305.5 -161t-245.5 -103q-108 -38 -186 -59q30 19 63 38l-12 22q-33 -20 -65 -36q34 44 86 98
q52 53 129 112q17 -33 32 -69q33 45 86 99.5t131.5 115t187.5 123.5l-12 21q-109 -63 -200.5 -100.5t-165.5 -56.5t-129 -25q23 -29 44 -62q-90 -37 -162 -55q-74 -19 -128 -26q30 19 63 39l-12 21q-33 -19 -64 -36q57 58 143 131q87 75 211.5 161.5t292.5 184.5z" />
</svg>
