<?xml version="1.0" standalone="no"?>
<!DOCTYPE svg PUBLIC "-//W3C//DTD SVG 1.1//EN" "http://www.w3.org/Graphics/SVG/1.1/DTD/svg11.dtd" >
<svg xmlns="http://www.w3.org/2000/svg" xmlns:xlink="http://www.w3.org/1999/xlink" version="1.1" viewBox="0 0 2098 899">
   <path fill="currentColor"
d="M490 800q0 -193 -13.5 -344t-34 -264.5t-42.5 -191.5q48 11 99 11t105 -11q-22 78 -43 191t-34 264t-13 345h-24zM386 770q-120 -129 -196.5 -216t-129.5 -135q49 -49 97.5 -102t104.5 -114.5t124 -134.5l17 12q-65 104 -112 192t-77 147q25 50 73 139.5t116 199.5z
M1899 809q-261 0 -464.5 13.5t-356.5 34t-259 42.5q15 -48 15 -99t-15 -105q97 20 234 39q-2 -154 -13 -278q-1 -10 -1 -20q-104 2 -188 13q-98 14 -171.5 34.5t-124.5 42.5q7 -48 7 -99t-7 -105q51 22 124.5 42.5t171.5 33.5q82 12 185 13q-12 -123 -30 -219
q-20 -114 -42 -192q48 11 99 11t105 -11q-22 78 -43 191t-34 264q-11 126 -13 283q152 20 355 33q141 10 311 12q-1 -96 -4 -182q-117 1 -210 13q-98 14 -171.5 34.5t-124.5 42.5q7 -48 7 -99q0 -50 -6 -101h-1v-2v-2h1q6 -46 6 -95.5t-6 -100.5h-1v-2v-2h1q6 -46 6 -95
q0 -51 -7 -105q51 22 124.5 42.5t171.5 33.5q74 10 163 13q-19 -103 -39 -176q48 11 99 11t105 -11q-22 78 -43 191t-34 264q-12 144 -13 329q64 1 131 1v24zM1974 800q0 -193 -13.5 -344t-34 -264.5t-42.5 -191.5q48 11 99 11t105 -11q-22 78 -43 191t-34 264t-13 345h-24z
M1698 202q-92 2 -168 12q-98 14 -171 34q-71 20 -120 41q49 21 119 40q74 21 172 34q85 12 193 13q-11 -96 -25 -174zM1725 401q-108 2 -195 13q-98 14 -171 34q-71 20 -120 41q49 21 119 40q74 21 172 34q92 13 208 14q-3 -64 -8 -121q-2 -28 -5 -55z" />
</svg>
