<?xml version="1.0" standalone="no"?>
<!DOCTYPE svg PUBLIC "-//W3C//DTD SVG 1.1//EN" "http://www.w3.org/Graphics/SVG/1.1/DTD/svg11.dtd" >
<svg xmlns="http://www.w3.org/2000/svg" xmlns:xlink="http://www.w3.org/1999/xlink" version="1.1" viewBox="0 0 1221 926">
   <path fill="currentColor"
d="M1211 836q-126 0 -224 13.5t-171.5 34t-124.5 42.5q7 -44 7 -89q-122 2 -222 12q-125 14 -218 34.5t-158 42.5q9 -48 9 -99q0 -40 -5 -82q-3 0 -4 1l2 -10l-2 -14q2 1 5 2q6 -38 6 -77q0 -40 -7 -82q-2 0 -4 1q1 -6 3 -11q-2 -7 -3 -13q2 1 5 1q6 -37 6 -76
q0 -51 -11 -105q78 22 191 42.5t264 33.5q73 7 157 10q-42 -47 -75 -84q-44 -50 -78 -83q-110 2 -198 13q-98 14 -171.5 34.5t-124.5 42.5q7 -48 7 -99t-7 -105q51 22 124 42.5t172 33.5q83 12 186 13q33 -33 66 -69q37 -40 78.5 -86t93.5 -101l12 9q-49 78 -84 144t-58 110
q19 38 55 105q21 38 46 82q55 1 113 2q-13 -136 -32 -240q-20 -114 -42 -192q48 11 99 11t105 -11q-22 78 -43 191t-34 264q-12 137 -13 311q37 7 78 12q98 14 224 14v24zM698 811q-1 -43 -7 -89q51 22 124 42q32 10 69 17q0 -65 -2 -125q-182 1 -326 13q-151 14 -264 34
q-85 16 -151 32q52 15 117 29q93 21 217 34q100 11 223 13zM146 554q63 15 145 30q113 21 264 34q143 13 326 14q-3 -83 -10 -156q-50 1 -98 2q12 19 24 40l-12 8q-24 -24 -45 -47q-99 3 -184 10q-151 14 -264 34q-82 15 -146 31z" />
</svg>
