<?xml version="1.0" standalone="no"?>
<!DOCTYPE svg PUBLIC "-//W3C//DTD SVG 1.1//EN" "http://www.w3.org/Graphics/SVG/1.1/DTD/svg11.dtd" >
<svg xmlns="http://www.w3.org/2000/svg" xmlns:xlink="http://www.w3.org/1999/xlink" version="1.1" viewBox="0 0 3337 3282">
   <path fill="currentColor"
d="M1557 310zM1584 337zM1720 472zM1747 499zM1882 635zM1909 662zM1774 1060zM1811 1060zM1815 2973zM1788 2946zM1652 2810zM1626 2783zM1490 2647zM1463 2621zM1599 2222zM1561 2222zM3018 1512zM2991 1539zM2855 1675zM2828 1702zM2692 1838zM2666 1864zM2267 1729z
M2267 1767zM355 1770zM381 1743zM517 1608zM544 1581zM680 1445zM707 1418zM1105 1554zM1105 1516zM1557 310q20 -24 37 -46q60 -79 97.5 -146t58.5 -118q28 39 64 75t80 69q-52 21 -118.5 58t-144.5 97q-23 18 -47 38zM1720 472q20 -23 37 -46q60 -78 97.5 -145t57.5 -118
q29 39 65 75t79 69q-51 21 -117.5 58t-145.5 97q-23 17 -46 37zM1882 635q20 -23 37 -46q60 -79 97.5 -145.5t58.5 -118.5q29 40 65 76t79 69q-51 20 -117.5 57t-145.5 97q-23 18 -47 38zM1406 788q75 -76 114 -155t51.5 -155t9.5 -140q70 78 147.5 156t164.5 156
q-64 -3 -139.5 9.5t-155 51t-155.5 114.5zM1416 1270q194 0 345 -13.5t264 -34t191 -42.5q-11 48 -11 99t11 105q-78 -22 -190.5 -42.5t-263.5 -34t-346 -13.5v-24zM1416 1040q194 0 345 -14h9q-1 -13 -3 -25q-13 -98 -34 -171.5t-42 -124.5q48 8 99 8t104 -8
q-21 51 -42 124.5t-34 171.5q-1 10 -3 20q118 -12 210 -29q113 -20 191 -42q-11 48 -11 99t11 105q-78 -22 -190.5 -42.5t-263.5 -34t-346 -13.5v-24zM1815 2973q-20 23 -37 46q-60 79 -97.5 145.5t-57.5 117.5q-29 -39 -65 -75t-79 -69q51 -20 117.5 -57.5t145.5 -97.5
q22 -17 46 -37zM1652 2810q-19 24 -37 46q-60 79 -97 145.5t-58 118.5q-29 -39 -65 -75.5t-79 -68.5q51 -21 117.5 -58t145.5 -97q23 -18 47 -38q11 12 26 27zM1490 2647q-20 24 -37 47q-60 78 -97.5 145t-58.5 118q-28 -39 -64 -75t-80 -69q52 -21 118.5 -58t144.5 -97
q23 -17 47 -37zM1966 2495q-75 75 -114 154.5t-51.5 155.5t-9.5 139q-69 -78 -147 -156t-165 -155q64 2 140 -10t155 -51t155 -115zM1956 2013q-194 0 -344.5 13t-264 34t-191.5 43q11 -49 11 -99.5t-11 -104.5q78 21 191 42t264 34t345 13v25zM1956 2243q-194 0 -344 13
q-5 1 -10 1q2 12 3 24q13 98 34 171.5t43 124.5q-48 -7 -99 -7t-105 7q22 -51 42.5 -124t33.5 -171q2 -10 3 -21q-117 12 -210 29q-113 21 -191 43q11 -49 11 -99.5t-11 -104.5q78 21 191 42t264 34t345 13v25zM3018 1512q23 20 46 37q78 60 145 97.5t118 58.5
q-39 29 -75 65t-69 79q-20 -52 -57.5 -118t-97.5 -145q-17 -23 -37 -47zM2855 1675q23 20 46 37q79 60 145.5 97.5t118.5 57.5q-40 29 -76 65t-68 79q-21 -51 -58 -117.5t-97 -145.5q-18 -22 -38 -46zM2692 1838q24 19 47 37q78 60 145 97t118 58q-39 29 -75 65t-69 79
q-21 -51 -58 -117.5t-97 -145.5q-18 -23 -37 -47zM2540 1361q75 76 154 114.5t155 51t140 10.5q-78 69 -156 147t-155 164q2 -64 -10 -139.5t-51 -155t-115 -154.5zM2058 1372q0 193 13 344t34 264t42 192q-48 -12 -99 -12t-104 12q21 -79 42 -191.5t34 -263.5t13 -345h25z
M2288 1372q0 193 13 344q0 5 1 9q12 -1 24 -3q98 -13 171.5 -34t124.5 -42q-7 48 -7 99t7 105q-51 -22 -124 -43t-171 -34q-11 -1 -21 -2q12 117 29 209q21 113 42 192q-48 -12 -99 -12t-104 12q21 -79 42 -191.5t34 -263.5t13 -345h25zM355 1770q-24 -19 -47 -37
q-78 -60 -145 -97.5t-118 -57.5q39 -29 75 -65t69 -79q21 51 58 117.5t97 145.5q18 23 37 46q-11 12 -26 27zM517 1608q-23 -20 -46 -37q-79 -60 -145.5 -97.5t-117.5 -58.5q39 -29 75 -65t69 -79q20 51 57.5 117.5t97.5 145.5q17 23 37 47zM680 1445q-24 -20 -46 -37
q-79 -60 -145.5 -97.5t-118.5 -57.5q39 -29 75.5 -65t68.5 -80q21 52 58 118.5t97 144.5q18 23 38 47zM833 1921q-76 -75 -155 -114t-155 -51.5t-140 -9.5q78 -69 156 -147t156 -165q-3 64 9.5 140t51 155t114.5 155zM1315 1911q0 -193 -13.5 -344t-34 -264.5t-42.5 -191.5
q48 11 99 11t105 -11q-22 78 -43 191t-34 264t-13 345h-24zM1085 1911q0 -193 -14 -344q0 -5 -1 -10q-12 2 -24 3q-98 14 -171.5 34.5t-124.5 42.5q7 -48 7 -99t-7 -105q51 22 124.5 42.5t171.5 33.5q10 2 20 3q-12 -117 -29 -209q-20 -114 -42 -192q48 11 99 11t105 -11
q-22 78 -43 191t-34 264t-13 345h-24z" />
</svg>
