<?xml version="1.0" standalone="no"?>
<!DOCTYPE svg PUBLIC "-//W3C//DTD SVG 1.1//EN" "http://www.w3.org/Graphics/SVG/1.1/DTD/svg11.dtd" >
<svg xmlns="http://www.w3.org/2000/svg" xmlns:xlink="http://www.w3.org/1999/xlink" version="1.1" viewBox="0 0 1599 906">
   <path fill="currentColor"
d="M455 448zM455 410zM455 448q-31 3 -59 6q-98 14 -171.5 34.5t-124.5 42.5q7 -48 7 -99t-7 -105q51 22 124 42.5t172 33.5q28 4 59 7v38zM1580 816q-261 0 -465 13.5t-356.5 34t-258.5 42.5q15 -48 15 -99t-15 -105q106 22 258 42l26 4q0 -61 -2 -117q-115 1 -206 13
q-98 14 -171.5 34.5t-124.5 42.5q7 -48 7 -99t-7 -105q51 22 124 42.5t172 33.5q90 13 205 14q-4 -81 -10 -151q-9 -107 -22 -194q-95 2 -173 12q-98 14 -171.5 34.5t-124.5 42.5q7 -48 7 -99t-7 -105q51 22 124 42.5t172 33.5q76 11 169 13q-4 -23 -8 -44
q-21 -114 -42 -192q48 11 99 11t105 -11q-22 78 -43 191t-34 264q-11 131 -13 296q134 16 305 27q162 11 360 13q0 -188 -13 -335q-3 -32 -6 -63q-104 2 -189 13q-98 14 -171.5 34.5t-124.5 42.5q7 -48 7 -99t-7 -105q51 22 124 42.5t172 33.5q83 12 187 13
q-11 -97 -26 -176q-21 -114 -42 -192q48 11 99 11t105 -11q-22 78 -43 191t-34 264q-13 147 -13 336q40 1 81 1v24z" />
</svg>
