<?xml version="1.0" standalone="no"?>
<!DOCTYPE svg PUBLIC "-//W3C//DTD SVG 1.1//EN" "http://www.w3.org/Graphics/SVG/1.1/DTD/svg11.dtd" >
<svg xmlns="http://www.w3.org/2000/svg" xmlns:xlink="http://www.w3.org/1999/xlink" version="1.1" viewBox="0 0 1689 906">
   <path fill="currentColor"
d="M455 448zM455 410zM455 448q-31 3 -59 6q-98 14 -171.5 34.5t-124.5 42.5q7 -48 7 -99t-7 -105q51 22 124 42.5t172 33.5q28 4 59 7v38zM1580 816q-261 0 -465 13.5t-356.5 34t-258.5 42.5q15 -48 15 -99t-15 -105q106 22 258 42l26 4q0 -61 -2 -117q-115 1 -206 13
q-98 14 -171.5 34.5t-124.5 42.5q7 -48 7 -99t-7 -105q51 22 124 42.5t172 33.5q90 13 205 14q-4 -81 -10 -151q-9 -107 -22 -194q-95 2 -173 12q-98 14 -171.5 34.5t-124.5 42.5q7 -48 7 -99t-7 -105q51 22 124 42.5t172 33.5q76 11 169 13q-4 -23 -8 -44
q-21 -114 -42 -192q48 11 99 11t105 -11q-22 78 -43 191t-34 264q-11 131 -13 296q104 13 230 22q-1 -123 -9 -221q-10 -113 -26 -198q-15 -82 -30 -139q-44 11 -79 23q9 -48 9 -99t-9 -105q65 22 158 42.5t217 33.5q104 12 234 13q-14 -70 -29 -123q48 11 99 11t105 -11
q-22 78 -43 191t-34 264t-13 345h-9v16zM982 212q32 7 65 7q38 0 78 -9q-16 59 -31.5 143.5t-25.5 197.5q-9 99 -10 224q28 2 56 3q198 13 450 14q0 -138 -7 -255q-106 1 -190 10q-93 10 -163 25.5t-119 31.5q7 -36 7 -74t-7 -78q49 16 118.5 31.5t162.5 25.5q84 9 190 10
q-2 -33 -5 -63q-13 -151 -34 -264q-4 -23 -8 -44q-132 2 -238 13q-125 14 -218 34q-38 9 -71 17z" />
</svg>
