<?xml version="1.0" standalone="no"?>
<!DOCTYPE svg PUBLIC "-//W3C//DTD SVG 1.1//EN" "http://www.w3.org/Graphics/SVG/1.1/DTD/svg11.dtd" >
<svg xmlns="http://www.w3.org/2000/svg" xmlns:xlink="http://www.w3.org/1999/xlink" version="1.1" viewBox="0 0 2054 899">
   <path fill="currentColor"
d="M1557 812zM1584 785zM1787 812zM1814 785zM2017 812zM2044 785zM1557 812q-24 -20 -46 -37q-79 -60 -146 -97.5t-118 -57.5q39 -29 75 -65q29 -29 56 -62h-2l-16 16l-14 -14q-56 3 -105 9q-98 14 -171.5 34.5t-124.5 42.5q7 -48 7 -99t-7 -105q51 22 124 42.5t172 33.5
q33 5 70 8q-62 -58 -119 -101q-78 -60 -145 -97.5t-118 -58.5q39 -28 75 -64t69 -80q21 52 58 118.5t97 144.5q51 67 122 141q45 2 94 3q-3 -48 -8 -91q-13 -125 -34 -218t-42 -158q48 9 99 9t105 -9q-22 65 -43 158t-34 217q-12 115 -13 260q31 49 72 104q18 23 38 46z
M1787 812q-24 -20 -46 -37q-79 -60 -146 -97.5t-118 -57.5q39 -29 75 -65t69 -79q21 51 58 117q-2 -119 -13 -217q-13 -125 -34 -218t-42 -158q48 9 99 9t105 -9q-22 65 -43 158t-34 217q-12 115 -13 260q31 49 72 104q18 23 38 46zM2017 812q-24 -20 -46 -37
q-79 -60 -146 -97.5t-118 -57.5q39 -29 75 -65t69 -79q21 51 58 117q-2 -119 -13 -217q-13 -125 -34 -218t-42 -158q48 9 99 9t105 -9q-22 65 -43 158t-34 217q-12 115 -13 260q31 49 72 104q18 23 38 46zM860 809q-193 0 -344 13.5t-264.5 34t-191.5 42.5q11 -48 11 -99
t-11 -105q78 22 191 42.5t264 33.5q145 13 329 14q0 -98 -4 -184q-153 1 -274 13q-125 14 -218 34.5t-158 42.5q9 -48 9 -99q0 -50 -8 -101h-1v-2v-2h1q8 -46 8 -95.5t-8 -100.5h-1v-2v-2h1q8 -46 8 -95q0 -51 -9 -105q65 22 158 42.5t217 33.5q103 11 229 13
q-19 -103 -39 -176q48 11 99 11t105 -11q-22 78 -43 191t-34 264t-13 345h-9v9zM1449 593q-1 -53 -4 -102q-24 0 -47 1q20 45 51 101zM196 489q63 21 152 40q93 21 217 34q121 13 274 14q-3 -64 -8 -121q-2 -28 -5 -55q-145 1 -260 13q-125 14 -218 34q-89 20 -152 41z
M196 289q63 21 152 40q93 21 217 34q114 13 258 14q-10 -97 -24 -175q-129 1 -233 12q-125 14 -218 34q-89 20 -152 41z" />
</svg>
