<?xml version="1.0" standalone="no"?>
<!DOCTYPE svg PUBLIC "-//W3C//DTD SVG 1.1//EN" "http://www.w3.org/Graphics/SVG/1.1/DTD/svg11.dtd" >
<svg xmlns="http://www.w3.org/2000/svg" xmlns:xlink="http://www.w3.org/1999/xlink" version="1.1" viewBox="0 0 1394 800">
   <path fill="currentColor"
d="M667 615q-8 83 -8 185h-25q0 -100 -8 -183q-58 3 -110 7q-42 4 -80 8q-7 77 -7 168h-25q0 -89 -6 -163q-80 9 -146 21q-114 21 -192 43q11 -48 11 -99t-11 -105q78 22 191 42q63 12 138 21q-13 -88 -32 -156q-21 -73 -42 -124q48 7 99 7t105 -7q-22 51 -43 124
q-20 70 -33 163q35 3 72 6q51 5 107 8q-1 -2 -1 -5q-13 -98 -34 -171.5t-42 -124.5q48 7 99 7t105 -7q-22 51 -43 124t-34 172q0 3 -1 7q49 2 101 3v-24q0 -51 -7 -105q51 22 124 42.5t172 33.5q89 12 202 14q-3 -48 -7 -91q-5 -60 -12 -114q-101 1 -183 12
q-98 14 -171.5 34.5t-124.5 42.5q7 -48 7 -99t-7 -105q51 22 124 42.5t172 33.5q80 11 180 13q-8 -67 -19 -124q-4 -21 -7 -41q-240 1 -430 13q-204 14 -356.5 34.5t-258.5 42.5q15 -48 15 -99t-15 -105q106 22 258 42.5t356 33.5q188 13 426 14q-15 -72 -30 -127
q48 11 99 11t105 -11q-22 78 -43 191t-34 264t-13 345h-25q0 -123 -5 -229q-113 1 -203 13q-98 14 -171.5 34.5t-124.5 42.5q4 -24 5 -49q-53 1 -103 3z" />
</svg>
