<?xml version="1.0" standalone="no"?>
<!DOCTYPE svg PUBLIC "-//W3C//DTD SVG 1.1//EN" "http://www.w3.org/Graphics/SVG/1.1/DTD/svg11.dtd" >
<svg xmlns="http://www.w3.org/2000/svg" xmlns:xlink="http://www.w3.org/1999/xlink" version="1.1" viewBox="0 0 1270 774">
   <path fill="currentColor"
d="M1228 645q-90 -96 -147.5 -161.5t-97.5 -101.5q37 -36 73.5 -76t78 -86t93.5 -101l12 9q-49 78 -84 144t-58 110q19 38 55 105t87 150zM1028 645q-90 -96 -147.5 -161.5t-97.5 -101.5q37 -36 73.5 -76t77.5 -86q42 -46 93 -100q-58 3 -111 7q-42 4 -80 8q-46 74 -80 137
q-35 66 -58 110q19 38 55 105t87 150l-3 2q38 4 78 7q151 14 345 14v24q-193 0 -344 13.5t-264.5 34t-191.5 42.5q11 -48 11 -99t-11 -105q78 22 191 42q76 14 169 25q-85 -91 -140 -154q-57 -65 -97 -101q37 -36 73.5 -76t77.5 -86q35 -38 76 -82q-87 10 -158 23
q-114 21 -192 43q11 -48 11 -99t-11 -105q78 22 191 42.5t264 34t345 13.5v24q-124 0 -231 6l11 8q-49 78 -84 144t-58 110q19 38 55 105t87 150zM386 733q-120 -129 -196.5 -216t-129.5 -135q49 -49 97.5 -102t104.5 -114.5t124 -134.5l17 12q-65 104 -112 192t-77 147
q25 50 73 139.5t116 199.5z" />
</svg>
