<?xml version="1.0" standalone="no"?>
<!DOCTYPE svg PUBLIC "-//W3C//DTD SVG 1.1//EN" "http://www.w3.org/Graphics/SVG/1.1/DTD/svg11.dtd" >
<svg xmlns="http://www.w3.org/2000/svg" xmlns:xlink="http://www.w3.org/1999/xlink" version="1.1" viewBox="0 0 1307 1036">
   <path fill="currentColor"
d="M1285 526q-90 -96 -148 -162q-44 -50 -78 -83q-147 1 -263 13q-124 13 -217.5 34t-158.5 42q10 -48 10 -99t-10 -104q65 21 158 42t217 34q112 12 252 13q33 -33 66 -69q37 -40 78.5 -86t93.5 -101l12 9q-49 78 -84 144t-58 110q19 38 55 105t87 150zM1220 946
q-193 0 -344 13.5t-264.5 34t-191.5 42.5q11 -48 11 -99t-11 -105q78 22 191 42.5t264 34t345 13.5v24zM386 900q-120 -129 -196.5 -216t-129.5 -135q49 -49 97.5 -102t104.5 -114.5t124 -134.5l17 12q-65 104 -112 192t-77 147q25 50 73 139.5t116 199.5z" />
</svg>
