<?xml version="1.0" standalone="no"?>
<!DOCTYPE svg PUBLIC "-//W3C//DTD SVG 1.1//EN" "http://www.w3.org/Graphics/SVG/1.1/DTD/svg11.dtd" >
<svg xmlns="http://www.w3.org/2000/svg" xmlns:xlink="http://www.w3.org/1999/xlink" version="1.1" viewBox="0 0 1259 901">
   <path fill="currentColor"
d="M695 418zM695 380zM695 618zM695 580zM415 618zM415 580zM1140 811q-193 0 -344 13.5t-264.5 34t-191.5 42.5q11 -48 11 -99q0 -50 -10 -102q0 1 -1 1v-2v-2h1q5 -35 6 -71q-92 13 -163 32q-73 21 -124 43q7 -48 7 -99t-7 -105q51 22 124 42q70 20 163 33q-2 -35 -7 -71
v-2v-2h1q6 -46 6 -95q0 -51 -7 -105q51 22 124 42q72 21 168 34q-2 -36 -7 -72v-2v-2v0q7 -46 7 -95q0 -51 -7 -105q51 22 124 42.5t172 33.5q74 10 165 13q-20 -110 -41 -186q48 11 99 11t105 -11q-22 78 -43 191t-34 264t-13 345h-19v11zM1134 787q0 -93 -3 -176
q-117 1 -210 13q-98 14 -171.5 34.5t-124.5 42.5q6 -37 7 -76q-96 13 -168 33q-69 20 -119 41q77 20 186 40q113 21 264 34q148 13 339 14zM1115 386q-11 -95 -24 -174q-93 2 -170 12q-98 14 -172 34q-70 20 -120 41q50 21 120 40q73 21 172 34q86 12 194 13zM632 425
q-96 13 -168 33q-70 20 -120 41q50 21 120 40q72 21 168 34q-2 -36 -7 -72v-2v-2v0q6 -35 7 -72zM1117 411q-109 2 -196 13q-98 14 -172 34q-70 20 -120 41q50 21 120 40q73 21 172 34q92 13 209 14q-3 -69 -9 -131q-2 -23 -4 -45z" />
</svg>
