<?xml version="1.0" standalone="no"?>
<!DOCTYPE svg PUBLIC "-//W3C//DTD SVG 1.1//EN" "http://www.w3.org/Graphics/SVG/1.1/DTD/svg11.dtd" >
<svg xmlns="http://www.w3.org/2000/svg" xmlns:xlink="http://www.w3.org/1999/xlink" version="1.1" viewBox="0 0 992 648">
   <path fill="currentColor"
d="M750 648zM777 621zM955 443zM982 416zM665 337zM692 310zM750 648q-24 -20 -46 -37q-79 -60 -145.5 -97.5t-118.5 -58.5q40 -28 76 -65q13 -13 27 -28q-100 1 -182 12q-98 14 -171.5 34.5t-124.5 42.5q7 -48 7 -99t-7 -105q51 22 124 42.5t172 33.5q90 13 203 14
q11 -13 20 -26q21 52 58 118.5t97 144.5q18 23 38 47zM955 443q-23 -20 -46 -37q-79 -60 -145.5 -97.5t-118.5 -58.5q40 -29 76 -65t68 -79q21 52 58 118t97 145q18 23 38 47zM665 337q-23 -20 -46 -37q-79 -60 -145.5 -97.5t-118.5 -58.5q40 -29 76 -65t69 -79
q20 51 57 117.5t97 145.5q18 23 38 47z" />
</svg>
