<?xml version="1.0" standalone="no"?>
<!DOCTYPE svg PUBLIC "-//W3C//DTD SVG 1.1//EN" "http://www.w3.org/Graphics/SVG/1.1/DTD/svg11.dtd" >
<svg xmlns="http://www.w3.org/2000/svg" xmlns:xlink="http://www.w3.org/1999/xlink" version="1.1" viewBox="0 0 681 648">
   <path fill="currentColor"
d="M355 337zM381 310zM645 443zM671 416zM440 648zM466 621zM355 337q-24 -20 -47 -37q-78 -60 -145 -97.5t-118 -58.5q39 -29 75 -65t69 -79q21 51 58 117.5t97 145.5q18 23 37 47zM645 443q-24 -20 -47 -37q-78 -60 -145 -97.5t-118 -58.5q39 -29 75 -65t69 -79
q21 52 58 118t97 145q17 23 37 47q-11 12 -26 27zM440 648q-24 -20 -47 -37q-78 -60 -145 -97.5t-118 -58.5q39 -28 75 -64.5t69 -79.5q21 52 58 118.5t97 144.5q17 23 37 47q-12 12 -26 27z" />
</svg>
