<?xml version="1.0" standalone="no"?>
<!DOCTYPE svg PUBLIC "-//W3C//DTD SVG 1.1//EN" "http://www.w3.org/Graphics/SVG/1.1/DTD/svg11.dtd" >
<svg xmlns="http://www.w3.org/2000/svg" xmlns:xlink="http://www.w3.org/1999/xlink" version="1.1" viewBox="0 0 923 910">
   <path fill="currentColor"
d="M355 910zM381 883zM731 336zM757 309zM355 910q-24 -20 -47 -37q-78 -60 -145 -97.5t-118 -57.5q39 -29 75 -65t69 -79q21 51 58 117q-3 -119 -13 -217q-13 -125 -34 -218t-42 -158q48 9 99 9t104 -9q-21 65 -42 158t-34 217q-12 115 -13 260q30 49 72 104q18 23 37 46
q-11 12 -26 27zM731 336q-24 -20 -47 -37q-78 -60 -145 -97.5t-118 -57.5q39 -29 75 -65t69 -79q21 51 58 117.5t97 145.5q16 21 35 43q-1 -8 -3 -16q-21 -114 -42 -192q48 11 99 11t104 -11q-21 78 -42 191t-34 264t-13 345h-25q0 -193 -13 -344q-12 -137 -30 -243z" />
</svg>
