<?xml version="1.0" standalone="no"?>
<!DOCTYPE svg PUBLIC "-//W3C//DTD SVG 1.1//EN" "http://www.w3.org/Graphics/SVG/1.1/DTD/svg11.dtd" >
<svg xmlns="http://www.w3.org/2000/svg" xmlns:xlink="http://www.w3.org/1999/xlink" version="1.1" viewBox="0 0 923 910">
   <path fill="currentColor"
d="M604 563zM633 563zM731 336zM757 309zM355 910zM381 883zM437 897q0 -145 -10 -258t-25.5 -198t-31.5 -144q36 9 74 9t79 -9q-17 59 -32.5 143.5t-25.5 197.5t-10 259h-18zM609 897q0 -94 -9.5 -167.5t-25.5 -129t-32 -93.5q28 4 57 5q-10 -69 -25 -122q-16 -55 -32 -93
q36 6 75 6q32 0 67 -4q-79 -60 -145 -97q-67 -38 -118 -58q39 -29 75 -65t69 -79q21 51 58 117.5t97 145.5q16 21 35 43q-1 -8 -3 -16q-21 -114 -42 -192q48 11 99 11t104 -11q-21 78 -42 191t-34 264t-13 345h-25q0 -193 -13 -344q-12 -137 -30 -243l-25 25
q-20 -16 -39 -31q-15 36 -29 85q-15 53 -24 122q27 -1 56 -5q-16 38 -31.5 93t-25.5 128.5t-10 168.5h-19zM355 910q-24 -20 -47 -37q-78 -60 -145 -97.5t-118 -57.5q39 -29 75 -65t69 -79q21 51 58 117q-3 -119 -13 -217q-13 -125 -34 -218t-42 -158q48 9 99 9t104 -9
q-21 65 -42 158t-34 217q-12 115 -13 260q30 49 72 104q18 23 37 46q-11 12 -26 27z" />
</svg>
