<?xml version="1.0" standalone="no"?>
<!DOCTYPE svg PUBLIC "-//W3C//DTD SVG 1.1//EN" "http://www.w3.org/Graphics/SVG/1.1/DTD/svg11.dtd" >
<svg xmlns="http://www.w3.org/2000/svg" xmlns:xlink="http://www.w3.org/1999/xlink" version="1.1" viewBox="0 0 1088 910">
   <path fill="currentColor"
d="M628 541zM628 503zM731 336zM757 309zM355 910zM381 883zM1078 534q-126 0 -224 13q-9 2 -17 3v3q-13 151 -13 345h-25q0 -191 -13 -340q-57 10 -104 23q-73 21 -124 43q5 -37 7 -76q-96 13 -168 33q-72 21 -123 42q-2 53 -2 110q30 49 72 104q18 23 37 46q-11 12 -26 27
q-24 -20 -47 -37q-78 -60 -145 -97.5t-118 -57.5q39 -29 75 -65t69 -79q21 51 58 117q-3 -119 -13 -217q-13 -125 -34 -218t-42 -158q48 9 99 9t104 -9q-21 65 -42 158q-17 75 -29 171q46 18 107 35q72 21 168 34q-2 -37 -7 -76q51 22 124 42q44 13 97 23q-10 -96 -23 -174
l-25 25q-24 -20 -47 -37q-78 -60 -145 -97.5t-118 -57.5q39 -29 75 -65t69 -79q21 51 58 117.5t97 145.5q16 21 35 43q-1 -8 -3 -16q-21 -114 -42 -192q48 11 99 11t104 -11q-21 78 -42 191q-17 91 -29 206q6 1 11 1q98 14 225 14v24zM275 609q5 -41 5 -84v-1q-3 41 -5 85z
" />
</svg>
