<?xml version="1.0" standalone="no"?>
<!DOCTYPE svg PUBLIC "-//W3C//DTD SVG 1.1//EN" "http://www.w3.org/Graphics/SVG/1.1/DTD/svg11.dtd" >
<svg xmlns="http://www.w3.org/2000/svg" xmlns:xlink="http://www.w3.org/1999/xlink" version="1.1" viewBox="0 0 1475 910">
   <path fill="currentColor"
d="M731 336zM757 309zM355 910zM381 883zM1283 336zM1309 309zM907 910zM933 883zM731 336q-24 -20 -47 -37q-78 -60 -145 -97.5t-118 -57.5q39 -29 75 -65t69 -79q21 51 58 117.5t97 145.5q18 23 37 46q-11 12 -26 27zM355 910q-24 -20 -47 -37q-78 -60 -145 -97.5
t-118 -57.5q39 -29 75 -65t69 -79q21 51 58 117q-3 -119 -13 -217q-13 -125 -34 -218t-42 -158q48 9 99 9t104 -9q-21 65 -42 158t-34 217q-4 35 -6 73q23 -25 47 -50q36 -40 78 -86t93 -101l13 9q-49 78 -84 144t-58 110q19 38 55 105t87 149l-13 10q-90 -97 -147 -162
q-42 -48 -74 -80q-4 66 -4 139q30 49 72 104q18 23 37 46q-11 12 -26 27zM637 836q-90 -97 -147.5 -162.5t-96.5 -101.5q36 -36 72.5 -76t78.5 -86t93 -101l13 9q-49 78 -84 144t-58 110q19 38 55 105t87 149zM1351 898q0 -193 -13 -344q-9 -106 -22 -194q-33 55 -58 102
q-35 66 -58 110q19 38 55 105t87 149l-13 10q-90 -97 -147.5 -162.5t-96.5 -101.5q36 -36 72.5 -76t78.5 -86q34 -38 75 -81q-2 -9 -3 -18l-25 25q-24 -20 -47 -37q-78 -60 -145 -97.5t-118 -57.5q39 -29 75 -65t69 -79q21 51 58 117.5t97 145.5q16 21 35 43q-1 -8 -3 -16
q-21 -114 -42 -192q48 11 99 11t104 -11q-21 78 -42 191t-34 264t-13 345h-25zM907 910q-24 -20 -47 -37q-38 -30 -74 -54q2 4 4 7l-13 10q-25 -27 -47 -52q-8 -4 -15 -8q-67 -38 -118 -58q22 -16 42 -34q-5 -5 -9 -10q-58 -66 -97 -102q36 -36 72.5 -76t78.5 -86
q37 -40 81 -88q-6 -35 -13 -66q-21 -93 -42 -158q48 9 99 9t104 -9q-21 65 -42 158t-34 217q-4 35 -6 73q23 -25 47 -50q36 -40 78 -86t93 -101l13 9q-49 78 -84 144t-58 110q19 38 55 105t87 149l-13 10q-90 -97 -147 -162q-42 -48 -74 -80q-4 66 -4 139q30 49 72 104
q18 23 37 46q-11 12 -26 27zM1189 836q-90 -97 -147.5 -162.5t-96.5 -101.5q36 -36 72.5 -76t78.5 -86t93 -101l13 9q-49 78 -84 144t-58 110q19 38 55 105t87 149zM770 350q-37 60 -64 112q-35 66 -58 110q14 27 36 69q30 -31 57 -67q21 51 58 117q-3 -119 -13 -217
q-7 -66 -16 -124z" />
</svg>
