<?xml version="1.0" standalone="no"?>
<!DOCTYPE svg PUBLIC "-//W3C//DTD SVG 1.1//EN" "http://www.w3.org/Graphics/SVG/1.1/DTD/svg11.dtd" >
<svg xmlns="http://www.w3.org/2000/svg" xmlns:xlink="http://www.w3.org/1999/xlink" version="1.1" viewBox="0 0 2394 2340">
   <path fill="currentColor"
d="M1379 686zM1406 713zM805 310zM832 337zM1699 1334zM1672 1361zM2075 760zM2048 787zM1050 1654zM1023 1627zM1624 2030zM1597 2003zM731 1005zM757 978zM355 1579zM381 1552zM817 755q194 0 345 -14q136 -12 242 -30l-25 -25q20 -24 37 -46q60 -79 97.5 -145.5
t58.5 -118.5q28 40 64 76t80 68q-52 21 -118.5 58t-144.5 97q-22 17 -44 35q8 -1 17 -3q113 -20 191 -42q-11 48 -11 99v9h24q0 193 13 344q12 137 30 243l26 -26q23 20 46 37q79 60 145.5 97.5t117.5 58.5q-39 29 -75 65t-69 79q-20 -51 -57.5 -117.5t-97.5 -145.5
q-16 -22 -35 -44q2 9 3 17q21 113 43 192q-48 -12 -99 -12h-9v24q-193 0 -344 14q-137 12 -243 30l25 25q-20 23 -37 46q-60 79 -97.5 145.5t-57.5 118.5q-29 -40 -65 -76t-79 -69q51 -20 117.5 -57t145.5 -97q21 -17 44 -36q-9 2 -17 4q-114 20 -192 42q11 -48 11 -99v-9
h-24q0 -193 -13 -344q-12 -137 -30 -243l-25 25q-24 -20 -47 -37q-78 -60 -145 -97.5t-118 -57.5q39 -29 75 -65t69 -79q21 51 58 117.5t97 145.5q16 21 35 43q-1 -8 -3 -16q-21 -114 -42 -192q48 11 99 11h8v-23zM805 310q20 -24 37 -46q60 -79 97.5 -145.5t58.5 -118.5
q28 40 64 76t80 68q-52 21 -118 58q120 -2 217 -13q125 -13 218.5 -33.5t157.5 -42.5q-9 48 -9 99t9 105q-64 -22 -157 -43t-218 -34q-115 -12 -260 -13q-49 31 -103 72q-23 18 -47 38zM2075 760q23 20 46 37q79 60 145.5 97.5t117.5 58.5q-39 29 -75 65t-69 79
q-20 -51 -57 -117q2 119 12 217q13 124 34 217.5t43 158.5q-48 -10 -99 -10t-105 10q22 -65 42.5 -158t33.5 -218q12 -115 13 -260q-30 -49 -72 -103q-17 -23 -37 -47zM1624 2030q-20 23 -37 46q-60 79 -97.5 145.5t-57.5 118.5q-29 -40 -65 -76t-79 -69q51 -20 117 -57
q-119 2 -217 13q-125 13 -218 33.5t-158 42.5q9 -48 9 -99t-9 -105q65 22 158 42.5t217 34.5q115 12 260 13q49 -31 104 -72q23 -18 46 -38zM355 1579q-24 -20 -47 -37q-78 -60 -145 -97.5t-118 -57.5q39 -29 75 -65t69 -79q21 51 58 117q-3 -119 -13 -217
q-13 -125 -34 -218t-42 -158q48 9 99 9t104 -9q-21 65 -42 158t-34 217q-12 115 -13 260q30 49 72 104q18 23 37 46q-11 12 -26 27zM1605 865q-75 -20 -179 -39q-113 -21 -264 -34q-113 -10 -252 -12q-20 74 -39 178q-21 113 -34 264q-10 114 -12 253q74 20 178 39
q113 20 264 34q114 10 252 12q20 -75 39 -179q21 -112 34 -263q10 -114 13 -253z" />
</svg>
