<?xml version="1.0" standalone="no"?>
<!DOCTYPE svg PUBLIC "-//W3C//DTD SVG 1.1//EN" "http://www.w3.org/Graphics/SVG/1.1/DTD/svg11.dtd" >
<svg xmlns="http://www.w3.org/2000/svg" xmlns:xlink="http://www.w3.org/1999/xlink" version="1.1" viewBox="0 0 1817 811">
   <path fill="currentColor"
d="M423 801zM461 801zM423 521zM461 521zM1028 355zM1066 355zM1455 755zM1482 728zM1618 592zM1645 565zM1781 429zM1807 403zM1420 394zM1447 367zM423 801q-3 -31 -7 -59q-13 -98 -33.5 -171.5t-42.5 -124.5q37 6 75 7q-13 -92 -33 -163q-9 -33 -19 -62q-25 7 -48 13
q11 -48 11 -99q0 -50 -10 -101q-43 68 -74 127q-35 66 -58 110q17 33 46 87q38 -41 84 -90l12 9q-41 66 -73 124q32 57 73 124l-12 10q-46 -50 -84 -91q-27 51 -46 87q19 38 55 105t87 149l-12 10q-90 -97 -147.5 -162.5t-97.5 -101.5q37 -36 73 -76q24 -26 50 -54
q-14 -15 -26 -28q-57 -66 -97 -102q37 -36 73.5 -76t78 -86t93.5 -101l12 9l-8 14q77 21 188 41q113 21 264 34q99 9 218 12q-1 0 -1 -1q-20 -73 -42 -124q48 7 99 7t105 -7q-22 51 -43 124v3h9v24h-16q-15 60 -26 136q37 -2 76 -7q-22 51 -43 124t-34 172q-7 56 -10 121h8
v24h-10q-1 38 -1 79h-24q0 -41 -2 -79q-103 2 -187 13q-98 14 -171.5 34.5t-124.5 42.5q7 -48 7 -99q0 -26 -1 -53l-6 2q2 -13 3 -26q-1 -14 -3 -28l6 2q1 -23 1 -47q0 -26 -1 -53l-6 2q2 -13 3 -26q-1 -14 -3 -28l6 2q1 -23 1 -47q0 -26 -1 -53l-6 2q2 -13 3 -26
q-1 -14 -3 -28l6 2q1 -23 1 -47q0 -35 -3 -72q-11 2 -21 4q-16 42 -32 96q-20 70 -33 163q37 -2 76 -7q-22 51 -43 124t-34 172q-4 28 -6 59h-38zM1455 755q-23 -20 -46 -37q-79 -60 -145.5 -97.5t-117.5 -58.5q39 -29 75 -65t69 -79q20 52 57.5 118.5t97.5 144.5
q17 23 37 47zM1618 592q-24 -20 -46 -37q-79 -60 -145.5 -97.5t-118.5 -57.5q30 -22 58 -49q-74 -56 -138 -91q-66 -38 -118 -58q40 -29 76 -65t68 -79q21 51 58 117q36 64 92 139q25 -28 48 -58q21 51 58 117.5t97 145.5q18 22 38 46zM1781 429q-24 -19 -47 -37
q-78 -60 -145 -97t-118 -58q39 -29 75 -65t69 -79q21 51 58 117.5t97 145.5q17 23 37 47zM623 634q24 8 51 15q74 21 172 34q83 12 186 13q-3 -64 -11 -120v-4q-96 2 -175 12q-98 14 -171 34q-28 8 -52 16zM623 484q24 8 51 15q74 21 172 34q77 11 171 13q-10 -68 -25 -123
q-79 2 -146 11q-98 14 -171 34q-28 8 -52 16zM623 334q24 8 51 15q74 21 172 34q63 9 139 12q-20 -67 -40 -115q37 6 75 7q-1 -8 -2 -15q-94 2 -172 12q-98 14 -171 34q-28 8 -52 16zM615 181q28 9 59 18q74 21 172 34q75 11 168 13q-9 -50 -19 -93q-122 2 -224 11
q-84 8 -156 17z" />
</svg>
