<?xml version="1.0" standalone="no"?>
<!DOCTYPE svg PUBLIC "-//W3C//DTD SVG 1.1//EN" "http://www.w3.org/Graphics/SVG/1.1/DTD/svg11.dtd" >
<svg xmlns="http://www.w3.org/2000/svg" xmlns:xlink="http://www.w3.org/1999/xlink" version="1.1" viewBox="0 0 1819 899">
   <path fill="currentColor"
d="M442 355zM480 355zM672 355zM710 355zM902 355zM940 355zM1710 809q-193 0 -344 13.5t-264.5 34t-191.5 42.5q11 -48 11 -99t-11 -105q78 22 191 42.5t264 33.5q145 13 329 14q0 -98 -4 -184q-153 1 -274 13q-125 14 -218 34.5t-158 42.5q9 -48 9 -99q0 -50 -8 -101h-1
v-2v-2h1q8 -46 8 -95.5t-8 -100.5h-1v-2v-2h1q8 -46 8 -95q0 -51 -9 -105q65 22 158 42.5t217 33.5q103 11 229 13q-19 -103 -39 -176q48 11 99 11t105 -11q-22 78 -43 191t-34 264t-13 345h-9v9zM442 355q-2 -31 -6 -59q-13 -98 -34 -171.5t-43 -124.5q48 7 99 7t105 -7
q-22 51 -42.5 124t-33.5 172q-4 28 -7 59h-38zM672 355q-2 -31 -6 -59q-13 -98 -34 -171.5t-43 -124.5q48 7 99 7t105 -7q-22 51 -42.5 124t-33.5 172q-4 28 -7 59h-38zM902 355q-2 -31 -6 -59q-13 -98 -34 -171.5t-43 -124.5q48 7 99 7t105 -7q-22 51 -42.5 124t-33.5 172
q-4 28 -7 59h-38zM673 800q0 -107 -28 -190q-26 -75 -65 -134v15q-126 0 -224 13.5t-171.5 34t-124.5 42.5q7 -48 7 -99t-7 -105q51 22 124 42.5t172 33.5q95 13 217 14q-1 -2 -2 -3q-45 -63 -91 -106q104 6 214 6t226 -6q-47 43 -92 105.5t-73.5 146t-28.5 190.5h-53z
M1046 489q63 21 152 40q93 21 217 34q121 13 274 14q-3 -64 -8 -121q-2 -28 -5 -55q-145 1 -260 13q-125 14 -218 34q-89 20 -152 41zM1046 289q63 21 152 40q93 21 217 34q114 13 259 14q-11 -97 -25 -175q-129 1 -233 12q-125 14 -218 34q-89 20 -152 41z" />
</svg>
