<?xml version="1.0" standalone="no"?>
<!DOCTYPE svg PUBLIC "-//W3C//DTD SVG 1.1//EN" "http://www.w3.org/Graphics/SVG/1.1/DTD/svg11.dtd" >
<svg xmlns="http://www.w3.org/2000/svg" xmlns:xlink="http://www.w3.org/1999/xlink" version="1.1" viewBox="0 0 1167 800">
   <path fill="currentColor"
d="M964 464zM991 437zM802 626zM829 599zM1042 800q0 -193 -13 -344t-33.5 -264.5t-42.5 -191.5q48 11 99 11t105 -11q-22 78 -43 191t-34 264t-13 345h-25zM964 464q-24 -20 -46 -37q-79 -60 -145.5 -97.5t-118.5 -57.5q39 -29 75 -65t69 -79q21 51 58 117.5t97 145.5
q18 23 38 46zM802 626q-24 -20 -46 -37q-79 -60 -146 -97q-60 -34 -108 -54q-76 3 -141 11q-98 14 -171.5 34.5t-124.5 42.5q7 -48 7 -99t-7 -105q51 22 124 42.5t172 33.5q72 10 161 13q23 -20 45 -42q36 -36 69 -79q21 51 58 117.5t97 145.5q18 23 38 46z" />
</svg>
