<?xml version="1.0" standalone="no"?>
<!DOCTYPE svg PUBLIC "-//W3C//DTD SVG 1.1//EN" "http://www.w3.org/Graphics/SVG/1.1/DTD/svg11.dtd" >
<svg xmlns="http://www.w3.org/2000/svg" xmlns:xlink="http://www.w3.org/1999/xlink" version="1.1" viewBox="0 0 4458 998">
   <path fill="currentColor"
d="M3490 544zM3452 544zM1018 454zM1056 454zM3368 90q261 0 464.5 -13t356.5 -34t259 -43q-16 48 -16 99q0 50 15 102l1 -1q-1 2 -1 3l1 1h-1q-7 46 -7 95q0 51 8 105q-51 -22 -124.5 -42.5t-171.5 -33.5q-73 -10 -162 -13q1 42 7 86l1 -1q-1 1 -1 2t1 2h-1q-7 46 -7 95.5
t7 101.5l1 -1q-1 1 -1 2t1 2h-1q-7 46 -7 95q0 51 8 105q-51 -22 -124.5 -42.5t-171.5 -33.5q-83 -11 -186 -13q6 32 14 60q21 73 43 124q-48 -7 -99 -7t-105 7q22 -51 42 -124q20 -70 33 -163q-37 2 -75 7q22 -51 42.5 -124t33.5 -171q13 -92 14 -209q-45 -1 -91 -1v-24z
M2255 748q261 0 464.5 -13t356.5 -34t259 -43q-16 48 -16 99t16 105q-106 -22 -258.5 -42.5t-356 -34t-465.5 -13.5v-24zM1140 908q-261 0 -465 13.5t-356.5 34t-258.5 42.5q15 -48 15 -99q0 -50 -14 -102l-1 1v-3v-1h1q6 -46 6 -95q0 -51 -7 -105q51 22 124 42.5t172 33.5
q73 10 161 13q-1 -42 -7 -85v-2v-2h1q6 -46 6 -95.5t-7 -100.5v-2v-2h1q6 -46 6 -95q0 -51 -7 -105q51 22 124 42.5t172 33.5q83 12 186 13q-7 -31 -15 -60q-21 -73 -42 -124q48 7 99 7t105 -7q-22 51 -43 124q-20 70 -33 163q37 -2 76 -7q-22 51 -43 124t-34 172
q-12 92 -13 208q45 1 91 1v24zM2253 250q-261 0 -465 13.5t-356.5 34t-258.5 42.5q15 -48 15 -99t-15 -105q106 22 258 42.5t356 34t466 13.5v24zM3993 402q-50 -20 -120 -40q-73 -21 -171 -34q-91 -13 -207 -13q1 4 1 8q13 95 33 166q95 -2 172 -12q98 -13 172 -34
q70 -20 120 -41zM3990 289q88 -2 161 -12q98 -13 172 -34q69 -20 119 -40q-105 -21 -252 -41q-153 -21 -356 -34q-158 -11 -351 -13q1 96 9 175q117 -1 209 -13q98 -13 172 -34t125 -43q-7 44 -8 89zM3993 602q-50 -20 -120 -40q-73 -21 -171 -34q-75 -10 -166 -13
q18 61 37 104q-37 -5 -75 -7q5 41 12 78q106 -2 191 -13q98 -13 172 -34q70 -20 120 -41zM2543 317v6q14 98 34.5 171.5t42.5 124.5q-48 -7 -99 -7t-105 7q22 -51 42.5 -124t33.5 -171q1 -4 1 -8q-112 -4 -238 -4v-24q128 0 242 -3q9 -84 9 -186h24q0 101 9 185
q95 -4 180 -9q5 -1 9 -1q8 -79 8 -175h24q0 94 8 172q103 -7 192 -16q6 -72 6 -156h24q0 82 6 152q41 -5 80 -10q153 -21 259 -43q-16 48 -16 99t16 105q-106 -22 -258 -42q-34 -5 -70 -9q13 81 30 144q21 73 43 124q-48 -7 -99 -7t-105 7q22 -51 42 -124q19 -65 31 -150
q-81 -9 -175 -16q13 94 33 166q21 73 43 124q-48 -7 -99 -7t-105 7q22 -51 42 -124q21 -72 34 -169h-1q-84 -6 -178 -9zM514 596q50 21 120 40q73 21 172 34q91 13 206 14q0 -5 -1 -9q-13 -94 -32 -166q-95 2 -173 12q-98 14 -172 34q-70 20 -120 41zM517 709q-88 3 -161 12
q-98 14 -172 34q-69 20 -118 40q104 21 252 41q152 21 356 34q158 11 350 13q0 -96 -9 -175q-117 1 -209 13q-98 14 -171.5 34.5t-124.5 42.5q7 -43 7 -89zM514 396q50 21 120 40q73 21 172 34q74 10 165 13q-18 -60 -36 -104q37 6 75 7q-6 -41 -13 -78q-106 2 -191 13
q-98 14 -172 34q-70 20 -120 41zM1965 681q0 -3 -1 -6q-13 -98 -34 -171.5t-42 -124.5q48 7 99 7t105 -7q-22 51 -43 124t-34 172q0 4 -1 8q113 3 239 3v24q-128 0 -242 3q-9 84 -9 186h-25q0 -101 -8 -184q-96 3 -181 8q-4 1 -9 1q-7 79 -7 175h-25q0 -94 -7 -172
q-103 7 -192 16q-6 72 -6 156h-25q0 -82 -5 -152q-42 5 -80 10q-153 21 -259 43q15 -48 15 -99t-15 -105q106 22 258 42q33 5 69 9q-12 -81 -30 -144q-21 -73 -42 -124q48 7 99 7t105 -7q-22 51 -43 124q-18 66 -31 151q82 8 175 15q-13 -94 -33 -166q-21 -73 -42 -124
q48 7 99 7t105 -7q-22 51 -43 124q-20 73 -34 169h2q84 6 178 9z" />
</svg>
