<?xml version="1.0" standalone="no"?>
<!DOCTYPE svg PUBLIC "-//W3C//DTD SVG 1.1//EN" "http://www.w3.org/Graphics/SVG/1.1/DTD/svg11.dtd" >
<svg xmlns="http://www.w3.org/2000/svg" xmlns:xlink="http://www.w3.org/1999/xlink" version="1.1" viewBox="-5 0 1232 910">
   <path fill="currentColor"
d="M315 910zM341 883zM659 336zM685 309zM1200 868q-120 -129 -197 -216q-63 -72 -111 -118q-138 2 -248 13q-125 14 -218.5 34.5t-157.5 42.5q9 -48 9 -99t-9 -105q64 22 157 42.5t218 33.5q106 12 238 13q45 -45 90 -94q49 -53 104.5 -114.5t124.5 -134.5l17 12
q-66 104 -112.5 192t-77.5 147q26 50 74 139.5t116 199.5zM315 910q-24 -20 -47 -37q-78 -60 -145 -97.5t-118 -57.5q39 -29 75 -65t69 -79q21 51 58 117q-3 -119 -13 -217q-13 -125 -34 -218t-42 -158q48 9 99 9t104 -9q-21 65 -42 158t-34 217q-12 115 -13 260
q30 49 72 104q18 23 37 46q-11 12 -26 27zM659 336q-24 -20 -47 -37q-78 -60 -145 -97.5t-118 -57.5q39 -29 75 -65t69 -79q21 51 58 117.5t97 145.5q18 23 37 46q-11 12 -26 27z" />
</svg>
