<?xml version="1.0" standalone="no"?>
<!DOCTYPE svg PUBLIC "-//W3C//DTD SVG 1.1//EN" "http://www.w3.org/Graphics/SVG/1.1/DTD/svg11.dtd" >
<svg xmlns="http://www.w3.org/2000/svg" xmlns:xlink="http://www.w3.org/1999/xlink" version="1.1" viewBox="0 0 1412 812">
   <path fill="currentColor"
d="M1050 755zM1077 728zM1213 592zM1240 565zM1375 429zM1402 403zM1015 394zM1042 367zM414 443zM414 405zM731 812zM758 785zM1050 755q-23 -20 -46 -37q-79 -60 -145.5 -97.5t-117.5 -58.5q39 -29 75 -65t69 -79q20 52 57.5 118.5t97.5 144.5q17 23 37 47zM1213 592
q-24 -20 -46 -37q-79 -60 -146 -97.5t-118 -57.5q30 -22 58 -49q-74 -56 -138 -91q-66 -38 -118 -58q39 -29 75 -65t69 -79q21 51 58 117q36 64 92 139q25 -28 48 -58q21 51 58 117.5t97 145.5q18 22 38 46zM1375 429q-23 -19 -46 -37q-78 -60 -145 -97t-118 -58
q39 -29 75 -65t69 -79q21 51 58 117.5t97 145.5q17 23 37 47q-12 11 -27 26zM393 800q0 -193 -13 -344q0 -5 -1 -10q-12 2 -24 3q-98 14 -171.5 34.5t-124.5 42.5q7 -48 7 -99t-7 -105q51 22 124 42.5t172 33.5q10 2 20 3q-12 -117 -29 -209q-21 -114 -42 -192q48 11 99 11
t105 -11q-22 78 -43 191t-34 264t-13 345h-25zM731 812q-24 -20 -46 -37q-79 -60 -146 -97.5t-118 -57.5q39 -29 75 -65t69 -79q21 51 58 117q-2 -119 -13 -217q-13 -125 -34 -218t-42 -158q48 9 99 9t105 -9q-22 65 -43 158t-34 217q-12 115 -13 260q31 49 72 104
q18 23 38 46z" />
</svg>
