<?xml version="1.0" standalone="no"?>
<!DOCTYPE svg PUBLIC "-//W3C//DTD SVG 1.1//EN" "http://www.w3.org/Graphics/SVG/1.1/DTD/svg11.dtd" >
<svg xmlns="http://www.w3.org/2000/svg" xmlns:xlink="http://www.w3.org/1999/xlink" version="1.1" viewBox="0 0 1764 813">
   <path fill="currentColor"
d="M690 662zM716 635zM852 500zM879 473zM1015 337zM1042 310zM690 662q-24 -19 -47 -37q-35 -27 -69 -50q-119 1 -213 13q-98 14 -171.5 34.5t-124.5 42.5q7 -48 7 -99t-7 -105q51 22 124 42.5t172 33.5q78 11 175 13q-20 -12 -38 -22q-67 -38 -118 -58q39 -29 75 -65
q27 -27 53 -58q-80 2 -147 11q-98 14 -171.5 34.5t-124.5 42.5q7 -48 7 -99t-7 -105q51 22 124 42.5t172 33.5q93 13 213 14q-16 -8 -31 -14q39 -29 75 -65t69 -79q20 51 57.5 117.5t97.5 145.5q17 23 37 47l-27 27q-23 -20 -46 -37q-79 -60 -145 -98q-41 -23 -76 -39v19
q-27 0 -53 1q20 44 50 98q37 66 97 145q17 23 37 46q-11 12 -26 27zM1015 337q-24 -20 -46 -37q-79 -60 -145.5 -97.5t-118.5 -57.5q39 -29 75 -65t69 -80q21 52 58 118.5t97 144.5q18 23 38 47zM1168 813q-76 -75 -155 -114t-155 -51.5t-140 -9.5q78 -69 156 -147t156 -165
q-3 64 9.5 140t51 155t114.5 155zM1611 319q-8 -67 -19 -124q-20 -114 -42 -192q48 11 99 11t105 -11q-22 78 -43 191t-34 264t-13 345h-25q0 -123 -5 -229q-113 1 -203 13q-98 14 -171.5 34.5t-124.5 42.5q7 -48 7 -99t-7 -105q51 22 124 42.5t172 33.5q89 12 202 14
q-3 -48 -7 -91q-5 -60 -11 -114q-102 1 -184 12q-98 14 -171.5 34.5t-124.5 42.5q7 -48 7 -99t-7 -105q51 22 124 42.5t172 33.5q80 11 180 13z" />
</svg>
