<?xml version="1.0" standalone="no"?>
<!DOCTYPE svg PUBLIC "-//W3C//DTD SVG 1.1//EN" "http://www.w3.org/Graphics/SVG/1.1/DTD/svg11.dtd" >
<svg xmlns="http://www.w3.org/2000/svg" xmlns:xlink="http://www.w3.org/1999/xlink" version="1.1" viewBox="0 0 1150 763">
   <path fill="currentColor"
d="M1140 114q-261 0 -465 13.5t-356.5 34t-258.5 42.5q15 -48 15 -99t-15 -105q106 22 258 42.5t356 34t466 13.5v24zM1140 574q-261 0 -465 13q-4 1 -9 1q-7 79 -7 175h-25q0 -94 -7 -172q-103 7 -192 16q-6 72 -6 156h-25q0 -82 -5 -152q-42 5 -80 10q-153 21 -259 43
q15 -48 15 -99t-15 -105q106 22 258 42q33 5 69 9q-12 -81 -30 -144q-21 -73 -42 -124q48 7 99 7t105 -7q-22 51 -43 124q-18 66 -31 151q82 8 175 15q-13 -94 -33 -166q-21 -73 -42 -124q48 7 99 7t105 -7q-22 51 -43 124q-20 73 -34 169h2q204 14 466 14v24z" />
</svg>
