<?xml version="1.0" standalone="no"?>
<!DOCTYPE svg PUBLIC "-//W3C//DTD SVG 1.1//EN" "http://www.w3.org/Graphics/SVG/1.1/DTD/svg11.dtd" >
<svg xmlns="http://www.w3.org/2000/svg" xmlns:xlink="http://www.w3.org/1999/xlink" version="1.1" viewBox="0 0 1469 1036">
   <path fill="currentColor"
d="M1092 835q0 -116 -8 -206.5t-20 -158.5q-3 -12 -5 -24q-100 1 -179 8q-91 8 -159 20.5t-115 25.5q7 -29 7 -59.5t-7 -63.5q47 13 114.5 25.5t158.5 20.5q79 7 177 8q-9 -43 -18 -76q29 7 59 7q18 0 36 -2q-42 -48 -74 -79q-147 1 -263 13q-124 13 -217.5 34t-158.5 42
q10 -48 10 -99t-10 -104q65 21 158 42t217 34q112 12 252 13q33 -33 66 -69q37 -40 78.5 -86t93.5 -101l12 9q-49 78 -84 144t-58 110q19 38 55 105t87 150l-12 8q-78 -83 -132 -143q-9 38 -18 87q-13 67 -20.5 158t-7.5 207h-15zM1345 930q0 -193 -13.5 -344t-34 -264.5
t-42.5 -191.5q48 11 99 11t105 -11q-22 78 -43 191t-34 264t-13 345h-24zM386 900q-120 -129 -196.5 -216t-129.5 -135q49 -49 97.5 -102t104.5 -114.5t124 -134.5l17 12q-65 104 -112 192t-77 147q25 50 73 139.5t116 199.5zM1220 946q-193 0 -344 13.5t-264.5 34
t-191.5 42.5q11 -48 11 -99t-11 -105q78 22 191 42.5t264 34t345 13.5v24zM802 730q-4 48 -4 105h-15q0 -56 -5 -103q-61 4 -115 10q-3 43 -3 93h-15q0 -49 -4 -91q-25 3 -48 6q-91 13 -155 26q9 -29 9 -59.5t-9 -63.5q64 13 155 26q20 3 41 5q-7 -48 -17 -86
q-13 -44 -26 -75q29 5 59.5 5t62.5 -5q-13 31 -25 75q-11 39 -19 90q49 5 105 9q-7 -56 -19 -99q-13 -44 -26 -75q29 5 59.5 5t62.5 -5q-13 31 -25 75q-12 43 -20 101h1q50 3 106 5v-3q-8 -59 -20.5 -103t-25.5 -75q29 5 59.5 5t62.5 -5q-13 31 -25.5 75t-20.5 102v5
q67 2 143 2v15q-77 0 -145 2q-5 50 -5 111h-15q0 -61 -5 -111q-58 2 -109 6h-5z" />
</svg>
