<?xml version="1.0" standalone="no"?>
<!DOCTYPE svg PUBLIC "-//W3C//DTD SVG 1.1//EN" "http://www.w3.org/Graphics/SVG/1.1/DTD/svg11.dtd" >
<svg xmlns="http://www.w3.org/2000/svg" xmlns:xlink="http://www.w3.org/1999/xlink" version="1.1" viewBox="0 0 1540 813">
   <path fill="currentColor"
d="M1014 662zM1041 635zM1177 500zM1204 473zM1340 337zM1366 310zM561 358zM598 358zM439 336zM465 309zM355 566zM381 539zM1014 662q-23 -19 -46 -37q-79 -60 -145.5 -97.5t-117.5 -57.5q39 -29 75 -65t69 -79q20 51 57.5 117.5t97.5 145.5q17 23 37 46zM1177 500
q-24 -20 -46 -37q-79 -60 -145.5 -97.5t-118.5 -58.5q40 -29 76 -65t68 -79q21 51 58 117.5t97 145.5q18 23 38 47zM1340 337q-24 -20 -47 -37q-78 -60 -145 -97.5t-118 -57.5q39 -29 75 -65t69 -80q21 52 58 118.5t97 144.5q17 23 37 47zM1492 813q-75 -75 -154 -114
t-155 -51.5t-140 -9.5q78 -69 156 -147t155 -165q-2 64 10 140t51 155t115 155zM567 803q0 -126 -13 -224t-34 -171.5t-42 -124.5q36 6 75 7q-13 -92 -33 -163q-21 -73 -42 -124q48 7 99 7t104 -7q-21 51 -42 124q-20 70 -33 163q37 -2 75 -7q-21 51 -42 124t-34 171.5
t-13 224.5h-25zM439 336q-24 -20 -47 -37q-78 -60 -145 -97.5t-118 -57.5q39 -29 75 -65t69 -79q21 51 58 117.5t97 145.5q18 23 37 46q-11 12 -26 27zM355 566q-24 -20 -47 -37q-78 -60 -145 -97.5t-118 -57.5q39 -29 75 -65t69 -79q21 51 58 117.5t97 145.5q18 23 37 46
q-11 12 -26 27z" />
</svg>
