<?xml version="1.0" standalone="no"?>
<!DOCTYPE svg PUBLIC "-//W3C//DTD SVG 1.1//EN" "http://www.w3.org/Graphics/SVG/1.1/DTD/svg11.dtd" >
<svg xmlns="http://www.w3.org/2000/svg" xmlns:xlink="http://www.w3.org/1999/xlink" version="1.1" viewBox="0 0 1050 802">
   <path fill="currentColor"
d="M459 355zM497 355zM689 355zM727 355zM919 355zM957 355zM385 802q-120 -129 -196.5 -216t-129.5 -135q49 -49 97.5 -102t104.5 -114.5t124 -134.5l17 12q-65 104 -112 192t-77 147q25 50 73 139.5t116 199.5zM459 355q-2 -31 -6 -59q-13 -98 -34 -171.5t-43 -124.5
q49 7 99.5 7t104.5 -7q-21 51 -42 124t-34 172q-4 28 -7 59h-38zM689 355q-2 -31 -6 -59q-13 -98 -34 -171.5t-43 -124.5q49 7 99.5 7t104.5 -7q-21 51 -42 124t-34 172q-4 28 -7 59h-38zM919 355q-2 -31 -6 -59q-13 -98 -34 -171.5t-43 -124.5q49 7 99.5 7t104.5 -7
q-21 51 -42 124t-34 172q-4 28 -7 59h-38zM690 800q0 -107 -28.5 -190.5t-73 -146t-91.5 -105.5q104 6 214 6t226 -6q-47 43 -91.5 105.5t-73.5 146t-29 190.5h-53z" />
</svg>
