<?xml version="1.0" standalone="no"?>
<!DOCTYPE svg PUBLIC "-//W3C//DTD SVG 1.1//EN" "http://www.w3.org/Graphics/SVG/1.1/DTD/svg11.dtd" >
<svg xmlns="http://www.w3.org/2000/svg" xmlns:xlink="http://www.w3.org/1999/xlink" version="1.1" viewBox="0 0 1910 906">
   <path fill="currentColor"
d="M815 812zM841 785zM585 812zM611 785zM355 812zM381 785zM1746 770q-120 -129 -197 -216t-129 -135q48 -49 97 -102t104.5 -114.5t124.5 -134.5l17 12q-66 104 -112.5 192t-77.5 147q26 50 74 139.5t116 199.5zM1900 816q-261 0 -465 13.5t-356.5 34t-258.5 42.5
q15 -48 15 -99v-15l-20 20q-24 -20 -47 -37q-78 -60 -145 -97.5t-118 -57.5q39 -29 75 -65t69 -79q21 51 58 117q-3 -119 -13 -217q-13 -125 -34 -218t-42 -158q48 9 99 9t104 -9q-21 65 -42 158t-34 217q-12 115 -13 260q30 49 72 104q14 18 30 37q-3 -36 -14 -74
q106 22 258 42q79 11 173 20q-117 -125 -192 -210q-77 -87 -129 -135q48 -49 97 -102t104.5 -114.5t124.5 -134.5l17 12q-66 104 -112.5 192t-77.5 147q26 50 74 139.5t116 199.5l-10 7q48 5 100 9q-1 -178 -13 -318q-13 -151 -34 -264.5t-42 -191.5q48 11 99 11t104 -11
q-21 78 -42 191t-34 264q-12 141 -13 320q22 2 46 3q203 14 466 14v24zM585 812q-24 -20 -47 -37q-78 -60 -145 -97.5t-118 -57.5q39 -29 75 -65t69 -79q21 51 58 117q-3 -119 -13 -217q-13 -125 -34 -218t-42 -158q48 9 99 9t104 -9q-21 65 -42 158t-34 217
q-12 115 -13 260q30 49 72 104q18 23 37 46q-11 12 -26 27zM355 812q-24 -20 -47 -37q-78 -60 -145 -97.5t-118 -57.5q39 -29 75 -65t69 -79q21 51 58 117q-3 -119 -13 -217q-13 -125 -34 -218t-42 -158q48 9 99 9t104 -9q-21 65 -42 158t-34 217q-12 115 -13 260
q30 49 72 104q18 23 37 46q-11 12 -26 27z" />
</svg>
