<?xml version="1.0" standalone="no"?>
<!DOCTYPE svg PUBLIC "-//W3C//DTD SVG 1.1//EN" "http://www.w3.org/Graphics/SVG/1.1/DTD/svg11.dtd" >
<svg xmlns="http://www.w3.org/2000/svg" xmlns:xlink="http://www.w3.org/1999/xlink" version="1.1" viewBox="0 0 1600 869">
   <path fill="currentColor"
d="M1210 555zM1230 535zM1273 383zM1294 363zM951 706zM978 679zM771 496zM798 469zM1590 779q-261 0 -465 13.5t-356.5 34t-258.5 42.5q15 -48 15 -99t-15 -105q106 22 258 42.5t356 34t466 13.5v24zM1590 114q-261 0 -465 13.5t-356 33.5q-84 12 -153 23q19 42 47 93
q35 62 89 134q17 -20 33 -41q21 51 58 117.5t97 145.5q18 23 38 46l-27 27q-24 -20 -46 -37q-79 -60 -145.5 -97.5t-118.5 -57.5q38 -28 73 -63q-73 -54 -135 -89q-21 -12 -41 -22q-97 2 -177 12q-98 14 -171.5 34.5t-124.5 42.5q7 -48 7 -99t-7 -105q51 22 124 42.5
t172 33.5q55 8 120 11l-20 -8q39 -29 75 -65q23 -23 45 -49q-38 7 -71 14q15 -48 15 -99t-15 -105q106 22 258 42.5t356 34t466 13.5v24zM1210 555q-17 -14 -34 -27q-59 -45 -109 -73t-89 -44q30 -22 57 -49t51 -59q16 39 43.5 88.5t72.5 108.5q14 17 28 35q-8 9 -20 20z
M1273 383q-17 -15 -34 -28q-59 -45 -109 -73t-89 -43q30 -22 57 -49t51 -59q16 38 43.5 88t72.5 109q14 17 29 35q-9 9 -21 20zM1370 733q0 -145 -10 -258t-25.5 -198t-31.5 -144q36 9 74 9t78 -9q-16 59 -31.5 143.5t-25.5 197.5t-10 259h-18zM585 569q-126 0 -224 13.5
t-171.5 34t-124.5 42.5q7 -48 7 -99t-7 -105q51 22 124 42.5t171.5 34t224.5 13.5v24z" />
</svg>
