<?xml version="1.0" standalone="no"?>
<!DOCTYPE svg PUBLIC "-//W3C//DTD SVG 1.1//EN" "http://www.w3.org/Graphics/SVG/1.1/DTD/svg11.dtd" >
<svg xmlns="http://www.w3.org/2000/svg" xmlns:xlink="http://www.w3.org/1999/xlink" version="1.1" viewBox="0 0 2050 804">
   <path fill="currentColor"
d="M1315 121zM1315 83zM1595 121zM1595 83zM1030 714q-193 0 -344 13.5t-264.5 34t-191.5 42.5q11 -48 11 -99t-11 -105q78 22 191 42.5t264 34t345 13.5v24zM1030 314q-126 0 -224 13.5t-172 33.5q-70 20 -120 41q50 21 120 40q73 21 172 34q73 10 161 13q-3 -14 -7 -29
q106 22 258 42q132 18 302 31q-13 -94 -33 -166q-21 -73 -42 -124q48 7 99 7t105 -7q-22 51 -43 124q-20 73 -34 169h2q204 14 466 14v24q-261 0 -465 13q-4 1 -9 1q-7 79 -7 175h-25q0 -94 -7 -172q-174 12 -308 30q-153 21 -259 43q15 -48 15 -99q0 -25 -3 -50
q-91 2 -166 12q-98 14 -171.5 34.5t-124.5 42.5q7 -43 7 -89q-88 3 -161 12q-98 14 -171.5 34.5t-124.5 42.5q7 -48 7 -99t-7 -105q51 22 124 42.5t172 33.5q73 10 161 13q-1 -42 -7 -85v-2v-2h1q6 -46 6 -95.5t-7 -100.5v-2v-2h1q6 -46 6 -95q0 -51 -7 -105q51 22 124 42.5
t172 33.5q73 10 161 13q-1 -44 -7 -89q51 22 124 42q70 20 163 33q-2 -37 -7 -75q51 22 124 42q70 20 163 33q-2 -37 -7 -75q51 22 124 42.5t171.5 34t224.5 13.5v24q-126 0 -224 13.5t-171.5 34t-124.5 42.5q6 -37 7 -75q-92 13 -163 32q-73 21 -124 43q6 -37 7 -75
q-92 13 -163 32q-73 21 -124 43q7 -43 7 -89q-88 3 -161 12q-98 14 -172 34q-70 20 -120 41q50 21 120 40q73 21 171.5 34.5t224.5 13.5v24z" />
</svg>
