<?xml version="1.0" standalone="no"?>
<!DOCTYPE svg PUBLIC "-//W3C//DTD SVG 1.1//EN" "http://www.w3.org/Graphics/SVG/1.1/DTD/svg11.dtd" >
<svg xmlns="http://www.w3.org/2000/svg" xmlns:xlink="http://www.w3.org/1999/xlink" version="1.1" viewBox="0 0 1194 803">
   <path fill="currentColor"
d="M397 566zM424 539zM481 336zM508 309zM481 336q-24 -20 -46 -37q-79 -60 -146 -97.5t-118 -57.5q39 -29 75 -65t69 -79q21 51 58 117.5t97 145.5q18 23 38 46zM414 549q88 10 190 18q-3 -57 -8 -108q-13 -151 -34 -264.5t-42 -191.5q48 11 99 11t105 -11q-22 78 -43 191
t-34 264q-5 53 -8 111q18 1 35 2q76 5 160 8q-3 -63 -8 -120q-13 -151 -34 -264.5t-42 -191.5q48 11 99 11t105 -11q-22 78 -43 191t-34 264q-5 58 -8 123q93 3 196 3q-4 -66 -9 -125q-13 -151 -34 -264.5t-42 -191.5q48 11 99 11t105 -11q-22 78 -43 191t-34 264
q-5 60 -8 127h41v24h-42q-4 91 -4 194h-25q0 -103 -3 -194q-104 1 -199 4q-3 89 -3 190h-25q0 -100 -3 -189q-85 3 -161 8q-19 2 -38 3q-3 84 -3 178h-25q0 -93 -3 -176q-161 12 -287 29q-153 21 -259 43q15 -48 15 -99t-15 -105q106 22 258 42q25 4 52 7q-10 -8 -19 -15
q-79 -60 -146 -97.5t-118 -57.5q39 -29 75 -65t69 -79q21 51 58 117.5t97 145.5q18 23 38 46l-6 6z" />
</svg>
