<?xml version="1.0" standalone="no"?>
<!DOCTYPE svg PUBLIC "-//W3C//DTD SVG 1.1//EN" "http://www.w3.org/Graphics/SVG/1.1/DTD/svg11.dtd" >
<svg xmlns="http://www.w3.org/2000/svg" xmlns:xlink="http://www.w3.org/1999/xlink" version="1.1" viewBox="0 0 1417 812">
   <path fill="currentColor"
d="M1064 443zM1064 405zM1381 812zM1407 785zM390 752zM417 725zM553 589zM579 562zM715 426zM742 400zM355 391zM381 364zM1043 800q0 -193 -13 -344q0 -5 -1 -10q-12 2 -24 3q-98 14 -171.5 34.5t-124.5 42.5q7 -48 7 -99v-1h-1q-23 -19 -46 -37q-79 -60 -145.5 -97
t-117.5 -58q39 -29 75 -65t69 -79q20 51 57.5 117.5t97.5 145.5q4 6 9 11q-2 -21 -5 -42q51 22 124 42.5t171 33.5q10 2 21 3q-12 -117 -29 -209q-21 -114 -42 -192q48 11 99 11t104 -11q-21 78 -42 191t-34 264t-13 345h-25zM1381 812q-24 -20 -47 -37q-78 -60 -145 -97.5
t-118 -57.5q39 -29 75 -65t69 -79q21 51 58 117q-3 -119 -13 -217q-13 -125 -34 -218t-42 -158q48 9 99 9t104 -9q-21 65 -42 158t-34 217q-12 115 -13 260q30 49 72 104q18 23 37 46q-11 12 -26 27zM390 752q-24 -20 -46 -37q-79 -60 -145.5 -97.5t-118.5 -58.5
q40 -29 76 -65t68 -79q21 52 58 118.5t97 144.5q18 23 38 47zM553 589q-24 -20 -47 -37q-78 -60 -145 -97.5t-118 -57.5q30 -22 58 -49q-74 -56 -138 -91q-67 -38 -118 -58q39 -29 75 -65t69 -79q21 51 58 117q35 64 92 139q25 -28 48 -58q21 51 58 117.5t97 145.5
q17 22 37 46q-11 12 -26 27z" />
</svg>
