<?xml version="1.0" standalone="no"?>
<!DOCTYPE svg PUBLIC "-//W3C//DTD SVG 1.1//EN" "http://www.w3.org/Graphics/SVG/1.1/DTD/svg11.dtd" >
<svg xmlns="http://www.w3.org/2000/svg" xmlns:xlink="http://www.w3.org/1999/xlink" version="1.1" viewBox="0 0 1599 811">
   <path fill="currentColor"
d="M415 498zM415 460zM1312 466zM1340 466zM1144 800q0 -145 -9.5 -258t-25.5 -198q-13 -74 -27 -128q-18 104 -30 239q-13 151 -13 345h-25v-79q-184 1 -328 13q-151 14 -264.5 34.5t-191.5 42.5q11 -48 11 -99t-11 -105q78 22 191 42.5t264 33.5q144 13 328 14
q-2 -111 -9 -206q-144 1 -258 13q-125 14 -218 34.5t-158 42.5q8 -39 9 -79q-12 1 -23 2q-98 14 -171.5 34.5t-124.5 42.5q7 -48 7 -99t-7 -105q51 22 124 42.5t172 33.5q11 2 23 3q-2 -39 -9 -79q65 22 158 42.5t217 33.5q114 12 257 14q0 -6 -1 -11q-9 -107 -22 -194
q-92 2 -168 12q-98 14 -171.5 34.5t-124.5 42.5q7 -48 7 -99t-7 -105q51 22 124 42.5t172 33.5q74 10 164 13q-4 -23 -8 -44q-21 -114 -42 -192q48 11 99 11t105 -11q-22 78 -43 191q-1 5 -2 11q33 6 68 6q38 0 78 -8q-16 59 -31.5 143.5t-25.5 197.5t-10 259h-19zM1317 800
q0 -94 -10 -167.5t-25.5 -129t-31.5 -93.5q27 4 56 5q-10 -69 -24 -122q-16 -55 -32 -93q36 6 74 6t79 -6q-17 38 -32 93q-15 53 -25 122q28 -1 57 -5q-17 38 -32.5 93t-25.5 128.5t-10 168.5h-18zM1474 800q0 -193 -13 -344t-34 -264.5t-42 -191.5q48 11 99 11t105 -11
q-22 78 -43 191t-34 264t-13 345h-25z" />
</svg>
