<?xml version="1.0" standalone="no"?>
<!DOCTYPE svg PUBLIC "-//W3C//DTD SVG 1.1//EN" "http://www.w3.org/Graphics/SVG/1.1/DTD/svg11.dtd" >
<svg xmlns="http://www.w3.org/2000/svg" xmlns:xlink="http://www.w3.org/1999/xlink" version="1.1" viewBox="0 0 1764 986">
   <path fill="currentColor"
d="M785 986q-90 -96 -148 -162q-44 -50 -78 -83q-110 2 -198 13q-98 14 -171.5 34.5t-124.5 42.5q7 -48 7 -99t-7 -105q51 22 124 42.5t172 33.5q83 12 186 13q33 -33 66 -69q37 -40 78 -86q29 -32 63 -68q-70 -75 -117 -129q-44 -50 -78 -83q-110 2 -198 13
q-98 14 -171.5 34.5t-124.5 42.5q7 -48 7 -99t-7 -105q51 22 124 42.5t172 33.5q83 12 186 13q33 -33 66 -69q37 -40 78.5 -86t93.5 -101l12 9q-49 78 -84 144t-58 110q19 38 55 105q27 49 61 106l14 -14l12 9q-7 12 -15 24q8 12 15 25l-12 8l-14 -14q-33 54 -58 101
q-35 66 -58 110q19 38 55 105t87 150zM1639 820q0 -193 -13 -344t-34 -264q-20 -113 -42 -192q-45 72 -77 133q-35 66 -58 110q19 38 55 105t87 150l-12 8q-90 -96 -148 -162q-44 -50 -78 -83q-110 2 -198 13q-98 14 -171.5 34.5t-124.5 42.5q7 -48 7 -99t-7 -105
q51 22 124 42.5t172 33.5q83 12 186 13q33 -33 66 -69q37 -40 78.5 -86t93.5 -101l12 9q-3 5 -7 11q48 11 99 11t105 -11q-22 78 -43 191t-34 264t-13 345h-25zM1480 741q-159 0 -284 13t-218 34t-158 42q9 -48 9 -99t-9 -104q65 21 158 42t217.5 34t284.5 13v25z" />
</svg>
