<?xml version="1.0" standalone="no"?>
<!DOCTYPE svg PUBLIC "-//W3C//DTD SVG 1.1//EN" "http://www.w3.org/Graphics/SVG/1.1/DTD/svg11.dtd" >
<svg xmlns="http://www.w3.org/2000/svg" xmlns:xlink="http://www.w3.org/1999/xlink" version="1.1" viewBox="0 0 1290 892">
   <path fill="currentColor"
d="M415 543zM415 505zM1000 543zM1000 505zM1280 543zM1280 505zM1162 449q-89 -89 -167.5 -149t-145.5 -97.5t-118 -58.5q39 -28 75 -64t69 -80q21 52 58 118.5t97 145t149 167.5zM688 871q-120 -129 -197 -216q-58 -66 -102 -110q-17 2 -33 4q-98 14 -171.5 34.5
t-124.5 42.5q7 -48 7 -99t-7 -105q51 22 124 42.5t172 33.5q12 2 24 3q40 -40 79 -83q49 -53 104.5 -114.5t124.5 -134.5l17 12q-66 104 -112.5 192t-77.5 147q26 50 74 139.5t116 199.5zM1280 543q-31 3 -59 6q-98 14 -171.5 34.5t-124.5 42.5q6 -37 7 -75q-92 13 -163 32
q-73 21 -124 43q7 -48 7 -99t-7 -105q51 22 124 42q70 20 163 33q-2 -37 -7 -75q51 22 124 42.5t172 33.5q28 4 59 7v38zM1278 802q-126 0 -224 13.5t-171.5 34t-124.5 42.5q7 -48 7 -99t-7 -105q51 22 124 42.5t171.5 34t224.5 13.5v24z" />
</svg>
