<?xml version="1.0" standalone="no"?>
<!DOCTYPE svg PUBLIC "-//W3C//DTD SVG 1.1//EN" "http://www.w3.org/Graphics/SVG/1.1/DTD/svg11.dtd" >
<svg xmlns="http://www.w3.org/2000/svg" xmlns:xlink="http://www.w3.org/1999/xlink" version="1.1" viewBox="-5 0 356 812">
   <path fill="currentColor"
d="M315 812zM341 785zM315 812q-24 -20 -47 -37q-78 -60 -145 -97.5t-118 -57.5q39 -29 75 -65t69 -79q21 51 58 117q-3 -119 -13 -217q-13 -125 -34 -218t-42 -158q48 9 99 9t104 -9q-21 65 -42 158t-34 217q-12 115 -13 260q30 49 72 104q18 23 37 46q-11 12 -26 27z" />
</svg>
