<?xml version="1.0" standalone="no"?>
<!DOCTYPE svg PUBLIC "-//W3C//DTD SVG 1.1//EN" "http://www.w3.org/Graphics/SVG/1.1/DTD/svg11.dtd" >
<svg xmlns="http://www.w3.org/2000/svg" xmlns:xlink="http://www.w3.org/1999/xlink" version="1.1" viewBox="0 0 1369 811">
   <path fill="currentColor"
d="M415 498zM415 460zM1244 800q0 -193 -13 -344t-34 -264.5t-42 -191.5q48 11 99 11t105 -11q-22 78 -43 191t-34 264t-13 345h-25zM1004 491q-144 1 -258 13q-125 14 -218 34.5t-158 42.5q8 -39 9 -79q-12 1 -23 2q-98 14 -171.5 34.5t-124.5 42.5q7 -48 7 -99t-7 -105
q51 22 124 42.5t172 33.5q11 2 23 3q-2 -39 -9 -79q65 22 158 42.5t217 33.5q114 12 257 14q0 -6 -1 -11q-9 -107 -22 -194q-92 2 -168 12q-98 14 -171.5 34.5t-124.5 42.5q7 -48 7 -99t-7 -105q51 22 124 42.5t172 33.5q74 10 164 13q-4 -23 -8 -44q-21 -114 -42 -192
q48 11 99 11t105 -11q-22 78 -43 191t-34 264t-13 345h-25v-79q-184 1 -328 13q-151 14 -264.5 34.5t-191.5 42.5q11 -48 11 -99t-11 -105q78 22 191 42.5t264 33.5q144 13 328 14q-2 -111 -9 -206z" />
</svg>
