<?xml version="1.0" standalone="no"?>
<!DOCTYPE svg PUBLIC "-//W3C//DTD SVG 1.1//EN" "http://www.w3.org/Graphics/SVG/1.1/DTD/svg11.dtd" >
<svg xmlns="http://www.w3.org/2000/svg" xmlns:xlink="http://www.w3.org/1999/xlink" version="1.1" viewBox="0 0 1638 800">
   <path fill="currentColor"
d="M390 755zM417 728zM553 592zM579 565zM715 429zM742 403zM355 394zM381 367zM1075 443zM1075 405zM390 755q-24 -20 -46 -37q-79 -60 -145.5 -97.5t-118.5 -58.5q40 -29 76 -65t68 -79q21 52 58 118.5t97 144.5q18 23 38 47zM553 592q-24 -20 -47 -37q-78 -60 -145 -97.5
t-118 -57.5q30 -22 58 -49q-74 -56 -138 -91q-67 -38 -118 -58q39 -29 75 -65t69 -79q21 51 58 117q35 64 92 139q25 -28 48 -58q21 51 58 117.5t97 145.5q17 22 37 46q-11 12 -26 27zM715 429q-23 -19 -46 -37q-79 -60 -145.5 -97t-117.5 -58q39 -29 75 -65t69 -79
q20 51 57.5 117.5t97.5 145.5q10 13 21 27q-2 -30 -6 -61q51 22 124 42.5t171 33.5q10 2 21 3q-12 -117 -29 -209q-21 -114 -42 -192q48 11 99 11t104 -11q-21 78 -42 191t-34 264t-13 345h-25q0 -193 -13 -344q0 -5 -1 -10q-12 2 -24 3q-98 14 -171.5 34.5t-124.5 42.5
q7 -48 7 -99v-9zM1284 800q0 -193 -13 -344t-34 -264.5t-42 -191.5q48 11 99 11t104 -11q-21 78 -42 191t-34 264t-13 345h-25zM1514 800q0 -193 -13 -344t-34 -264.5t-42 -191.5q48 11 99 11t104 -11q-21 78 -42 191t-34 264t-13 345h-25z" />
</svg>
