<?xml version="1.0" standalone="no"?>
<!DOCTYPE svg PUBLIC "-//W3C//DTD SVG 1.1//EN" "http://www.w3.org/Graphics/SVG/1.1/DTD/svg11.dtd" >
<svg xmlns="http://www.w3.org/2000/svg" xmlns:xlink="http://www.w3.org/1999/xlink" version="1.1" viewBox="0 0 1530 800">
   <path fill="currentColor"
d="M569 800q0 -193 -13 -344q-1 -10 -1 -19q-108 2 -194 13q-98 14 -171.5 34.5t-124.5 42.5q7 -48 7 -99t-7 -105q51 22 124 42.5t172 33.5q85 12 191 13q-12 -124 -30 -220q-20 -114 -42 -192q48 11 99 11t105 -11q-22 78 -43 191t-34 264t-13 345h-25zM799 800
q0 -193 -13 -344t-34 -264.5t-42 -191.5q48 11 99 11t105 -11q-22 78 -43 191t-34 264t-13 345h-25zM1520 436q-160 0 -284.5 13.5t-217.5 34t-158 42.5q9 -48 9 -99t-9 -105q65 22 158 42.5t217.5 34t284.5 13.5v24z" />
</svg>
