<?xml version="1.0" standalone="no"?>
<!DOCTYPE svg PUBLIC "-//W3C//DTD SVG 1.1//EN" "http://www.w3.org/Graphics/SVG/1.1/DTD/svg11.dtd" >
<svg xmlns="http://www.w3.org/2000/svg" xmlns:xlink="http://www.w3.org/1999/xlink" version="1.1" viewBox="0 0 2330 908">
   <path fill="currentColor"
d="M1805 757zM1831 730zM1967 595zM1994 568zM2130 432zM2157 405zM1541 721zM1568 694zM1341 521zM1368 494zM355 757zM381 730zM517 595zM544 568zM680 432zM707 405zM1967 595q-23 -20 -46 -37q-79 -60 -145.5 -97.5t-117.5 -58.5q39 -29 75 -65t69 -79q20 51 57.5 117.5
t97.5 145.5q17 23 37 47zM2130 432q-24 -20 -46 -37q-79 -60 -145.5 -97.5t-118.5 -57.5q39 -29 75.5 -65t68.5 -80q21 52 58 118.5t97 144.5q18 23 38 47zM2283 908q-76 -75 -155 -114t-155 -51.5t-140 -9.5q78 -69 156 -147t156 -165q-3 64 9.5 140t51 155t114.5 155z
M1541 721q-24 -20 -46 -37q-79 -60 -145.5 -97.5t-118.5 -57.5q30 -22 59 -49q-76 -57 -141 -93q-66 -38 -118 -58q40 -29 76 -65t68 -79q21 51 58 117q36 65 94 141q25 -27 48 -58q21 51 58 117.5t97 145.5q18 23 38 46zM1066 868q-120 -129 -196.5 -216t-129.5 -135
q49 -49 97.5 -102t104.5 -114.5t124 -134.5l17 12q-65 104 -112 192t-77 147q25 50 73 139.5t116 199.5zM1800 764q-159 0 -283.5 13.5t-218 34t-158.5 42.5q9 -48 9 -99t-9 -105q65 22 158 42.5t217 33.5q118 13 268 14q-12 -10 -25 -20q-78 -60 -145 -97.5t-118 -57.5
q39 -29 75 -65q26 -25 49 -54q-87 -87 -164 -146q-79 -60 -146 -97.5t-118 -58.5q39 -28 75 -64t69 -80q21 52 58 118.5t97 144.5q59 77 145 164l4 -6q21 51 58 117.5t97 145.5q18 23 37 46q-11 12 -26 27q-3 -2 -5 -4v11zM355 757q-24 -19 -47 -37q-78 -60 -145 -97.5
t-118 -57.5q39 -29 75 -65t69 -79q21 51 58 117.5t97 145.5q18 23 37 46q-11 12 -26 27zM517 595q-23 -20 -46 -37q-79 -60 -145.5 -97.5t-117.5 -58.5q39 -29 75 -65t69 -79q20 51 57.5 117.5t97.5 145.5q17 23 37 47zM680 432q-24 -20 -46 -37q-79 -60 -145.5 -97.5
t-118.5 -57.5q39 -29 75.5 -65t68.5 -80q21 52 58 118.5t97 144.5q18 23 38 47zM833 908q-76 -75 -155 -114t-155 -51.5t-140 -9.5q78 -69 156 -147t156 -165q-3 64 9.5 140t51 155t114.5 155z" />
</svg>
