<?xml version="1.0" standalone="no"?>
<!DOCTYPE svg PUBLIC "-//W3C//DTD SVG 1.1//EN" "http://www.w3.org/Graphics/SVG/1.1/DTD/svg11.dtd" >
<svg xmlns="http://www.w3.org/2000/svg" xmlns:xlink="http://www.w3.org/1999/xlink" version="1.1" viewBox="0 0 1259 811">
   <path fill="currentColor"
d="M415 498zM415 460zM695 268zM695 230zM695 498zM695 460zM1134 800q0 -193 -13 -344t-34 -264.5t-42 -191.5q48 11 99 11t105 -11q-22 78 -43 191t-34 264t-13 345h-25zM904 800q0 -193 -13 -344t-34 -264.5t-42 -191.5q48 11 99 11t105 -11q-22 78 -43 191t-34 264
t-13 345h-25zM347 452q-2 -37 -7 -75q51 22 124 42.5t172 33.5q12 2 25 4v-1q-8 -99 -20 -182h-5q-98 14 -171.5 34.5t-124.5 42.5q7 -48 7 -99t-7 -105q51 22 124 42q72 21 169 34q-3 -16 -6 -31q-21 -114 -42 -192q48 11 99 11t105 -11q-22 78 -43 191t-34 264t-13 345
h-25v-79q-111 2 -199 13q-98 14 -171.5 34.5t-124.5 42.5q7 -48 7 -99t-7 -105q51 22 124 42.5t172 33.5q88 12 198 14q-2 -105 -8 -196q-15 1 -29 3q-98 14 -171.5 34.5t-124.5 42.5q6 -37 7 -75q-92 13 -163 32q-73 21 -124 43q7 -48 7 -99t-7 -105q51 22 124 42
q70 20 163 33z" />
</svg>
