<?xml version="1.0" standalone="no"?>
<!DOCTYPE svg PUBLIC "-//W3C//DTD SVG 1.1//EN" "http://www.w3.org/Graphics/SVG/1.1/DTD/svg11.dtd" >
<svg xmlns="http://www.w3.org/2000/svg" xmlns:xlink="http://www.w3.org/1999/xlink" version="1.1" viewBox="0 0 1293 895">
   <path fill="currentColor"
d="M1169 895q0 -193 -13 -344t-34 -264.5t-42 -191.5q48 11 99 11t104 -11q-21 78 -42 191t-34 264t-13 345h-25zM939 895q0 -193 -13 -344t-34 -264.5t-42 -191.5q48 11 99 11t104 -11q-21 78 -42 191t-34 264t-13 345h-25zM545 441q24 30 51 62q48 57 106 120
q-3 -37 -6 -72q-5 -60 -12 -115q-73 1 -139 5zM517 405q76 6 164 6l-2 -20q-56 -52 -108 -91q-78 -60 -145 -98q-42 -23 -77 -40q35 59 84 130q37 54 84 113zM447 448q-6 1 -11 1q-125 14 -218 34.5t-158 42.5q9 -48 9 -99t-9 -105q65 22 158 42q67 16 151 27
q-10 -7 -19 -14q-95 -66 -166 -106q42 -26 78 -62q28 -28 53 -62q-4 -1 -7 -3q9 -6 18 -14q1 -1 2 -3l1 1q28 -22 54 -48q36 -36 69 -80q21 52 58 118.5t97 144.5q29 38 65 79q-5 -29 -10 -55q-21 -114 -42 -192q48 11 99 11t105 -11q-22 78 -43 191t-34 264q-5 54 -8 113
q44 45 92 93l-18 18q-38 -39 -75 -74q-4 91 -4 195h-25q0 -122 -5 -227l-0.5 -1t-1.5 -1q-148 1 -266 13q-125 14 -218 34.5t-158 42.5q9 -48 9 -99t-9 -105q65 22 158 42.5t217 33.5q107 12 241 13q-60 -55 -116 -101q-59 -50 -113 -92z" />
</svg>
