<?xml version="1.0" standalone="no"?>
<!DOCTYPE svg PUBLIC "-//W3C//DTD SVG 1.1//EN" "http://www.w3.org/Graphics/SVG/1.1/DTD/svg11.dtd" >
<svg xmlns="http://www.w3.org/2000/svg" xmlns:xlink="http://www.w3.org/1999/xlink" version="1.1" viewBox="0 0 1078 666">
   <path fill="currentColor"
d="M415 583zM415 545zM415 353zM415 315zM1000 561l68 68l-18 18q-37 -37 -73 -72q-145 1 -261 13q-125 14 -218 34.5t-158 42.5q7 -37 9 -75q-94 13 -165 33q-73 21 -124 43q7 -48 7 -99t-7 -105q51 22 124 42q71 20 165 33q-2 -37 -9 -76q65 22 158 42.5t217 33.5
q105 12 236 13q-81 -76 -154 -137q-34 -30 -67 -56q-7 1 -14 1q-125 14 -218 34.5t-158 42.5q7 -37 9 -75q-94 13 -165 33q-73 21 -124 43q7 -48 7 -99t-7 -105q51 22 124 42q71 20 165 33q-2 -37 -9 -76q65 22 158 42q70 16 159 28q-37 -28 -70 -51q-95 -66 -166 -106
q42 -26 78 -62t66 -82q40 71 105 165q47 69 111 148q100 8 219 8v24q-101 0 -188 5q10 13 21 26q69 82 157 175h10v10z" />
</svg>
