<?xml version="1.0" standalone="no"?>
<!DOCTYPE svg PUBLIC "-//W3C//DTD SVG 1.1//EN" "http://www.w3.org/Graphics/SVG/1.1/DTD/svg11.dtd" >
<svg xmlns="http://www.w3.org/2000/svg" xmlns:xlink="http://www.w3.org/1999/xlink" version="1.1" viewBox="0 0 1010 434">
   <path fill="currentColor"
d="M415 121zM415 83zM1000 344q-160 0 -284.5 13.5t-217.5 34t-158 42.5q9 -48 9 -99t-9 -105q65 22 158 42.5t217.5 34t284.5 13.5v24zM1000 114q-160 0 -284.5 13.5t-217.5 34t-158 42.5q7 -37 9 -76q-94 13 -165 33q-73 21 -124 43q7 -48 7 -99t-7 -105q51 22 124 42
q71 20 165 33q-2 -37 -9 -75q65 22 158 42.5t217.5 34t284.5 13.5v24z" />
</svg>
