<?xml version="1.0" standalone="no"?>
<!DOCTYPE svg PUBLIC "-//W3C//DTD SVG 1.1//EN" "http://www.w3.org/Graphics/SVG/1.1/DTD/svg11.dtd" >
<svg xmlns="http://www.w3.org/2000/svg" xmlns:xlink="http://www.w3.org/1999/xlink" version="1.1" viewBox="0 0 1094 800">
   <path fill="currentColor"
d="M695 443zM695 405zM415 443zM415 405zM1067 770q-120 -129 -196.5 -216t-129.5 -135q49 -49 97.5 -102t104 -114.5t124.5 -134.5l17 12q-66 104 -112.5 192t-77.5 147q26 50 74 139.5t116 199.5zM684 800q0 -193 -13 -344q0 -5 -1 -11l-34 4q-98 14 -171.5 34.5
t-124.5 42.5q6 -37 7 -75q-92 13 -163 32q-73 21 -124 43q7 -48 7 -99t-7 -105q51 22 124 42q70 20 163 33q-2 -37 -7 -75q51 22 124 42.5t172 33.5l30 4q-12 -118 -29 -210q-21 -114 -42 -192q48 11 99 11t105 -11q-22 78 -43 191t-34 264t-13 345h-25z" />
</svg>
