<?xml version="1.0" standalone="no"?>
<!DOCTYPE svg PUBLIC "-//W3C//DTD SVG 1.1//EN" "http://www.w3.org/Graphics/SVG/1.1/DTD/svg11.dtd" >
<svg xmlns="http://www.w3.org/2000/svg" xmlns:xlink="http://www.w3.org/1999/xlink" version="1.1" viewBox="0 0 1574 921">
   <path fill="currentColor"
d="M1559 831q-261 0 -465 13.5t-356.5 34t-258.5 42.5q15 -48 15 -99q0 -39 -8 -79q-67 4 -125 11q-98 14 -171.5 34.5t-124.5 42.5q7 -48 7 -99t-7 -105q51 22 124 42.5t171.5 34t224.5 13.5v20q69 11 152 22q68 10 146 18q-1 -168 -13 -301q-13 -151 -33.5 -264.5
t-42.5 -191.5q48 11 99 11t105 -11q-22 78 -43 191t-34 264q-12 135 -13 304q86 8 185 14q204 14 466 14v24zM785 526q-90 -96 -148 -162q-44 -50 -78 -83q-110 2 -198 13q-98 14 -171.5 34.5t-124.5 42.5q7 -48 7 -99t-7 -105q51 22 124 42.5t172 33.5q83 12 186 13
q33 -33 66 -69q37 -40 78.5 -86t93.5 -101l12 9q-49 78 -84 144t-58 110q19 38 55 105t87 150zM1564 631q-126 0 -224 13.5t-171.5 34t-124.5 42.5q7 -48 7 -99q0 -50 -7 -101v-2v-2h1q6 -46 6 -95.5t-7 -100.5v-2v-2h1q6 -46 6 -95q0 -51 -7 -105q51 22 124 42.5t171.5 34
t224.5 13.5v24q-126 0 -224 13.5t-172 33.5q-70 20 -120 41q50 21 120 40q73 21 171.5 34.5t224.5 13.5v24q-126 0 -224 13.5t-172 33.5q-70 20 -120 41q50 21 120 40q73 21 171.5 34.5t224.5 13.5v24z" />
</svg>
