<?xml version="1.0" standalone="no"?>
<!DOCTYPE svg PUBLIC "-//W3C//DTD SVG 1.1//EN" "http://www.w3.org/Graphics/SVG/1.1/DTD/svg11.dtd" >
<svg xmlns="http://www.w3.org/2000/svg" xmlns:xlink="http://www.w3.org/1999/xlink" version="1.1" viewBox="0 0 1320 793">
   <path fill="currentColor"
d="M1310 114q-193 0 -344 13.5t-264 33.5q-113 21 -191 42q36 2 74 2v24q-126 0 -224 13.5t-171.5 34t-124.5 42.5q7 -48 7 -99t-7 -105q51 22 124 42.5t172 33.5q68 10 149 12q11 -48 11 -98q0 -51 -11 -105q78 22 191 42.5t264 34t345 13.5v24zM511 493q36 2 74 2v24
q-38 0 -74 1q78 22 190 42q113 21 264 34q19 2 39 4q-3 -48 -8 -91q-5 -49 -11 -93q-10 1 -19 1q-151 14 -264 34q-113 21 -191 42zM510 493q11 -48 11 -98q0 -51 -11 -105q78 22 191 42.5t264 33.5q6 1 12 1q-7 -40 -15 -76q-20 -93 -42 -158q48 9 99 9t105 -9
q-22 65 -43 158q-9 38 -16 83q113 6 245 6v24q-136 0 -251 7q-6 46 -12 97q-5 45 -8 94q123 8 271 8v24q-149 0 -273 8q-3 71 -3 151h-25q0 -79 -3 -149q-20 2 -40 3q-151 14 -264.5 34.5t-191.5 42.5q11 -48 11 -99t-11 -105q-81 3 -149 12q-98 14 -171.5 34.5t-124.5 42.5
q7 -48 7 -99t-7 -105q51 22 124 42.5t172 33.5q68 10 149 12z" />
</svg>
