<?xml version="1.0" standalone="no"?>
<!DOCTYPE svg PUBLIC "-//W3C//DTD SVG 1.1//EN" "http://www.w3.org/Graphics/SVG/1.1/DTD/svg11.dtd" >
<svg xmlns="http://www.w3.org/2000/svg" xmlns:xlink="http://www.w3.org/1999/xlink" version="1.1" viewBox="0 0 1318 800">
   <path fill="currentColor"
d="M1281 432zM1308 405zM1281 752zM1308 725zM1281 432q-24 -20 -46 -37q-79 -60 -146 -97q-65 -37 -116 -58q-15 96 -26 215q-13 151 -13 345h-24q0 -123 -6 -229q-113 1 -203 13q-98 14 -171.5 34.5t-124.5 42.5q7 -48 7 -99t-7 -105q51 22 124.5 42.5t171.5 33.5
q89 12 202 14q-3 -48 -7 -91q-5 -60 -11 -114q-102 1 -184 12q-98 14 -171.5 34.5t-124.5 42.5q7 -48 7 -99t-7 -105q51 22 124.5 42.5t171.5 33.5q81 11 181 13q-9 -67 -20 -124q-20 -114 -42 -192q48 11 99 11t105 -11q-22 78 -43 191q-4 23 -8 47q38 -28 74 -63
q36 -36 68 -79q21 51 58 117.5t97 145.5q18 23 38 46zM1281 752q-24 -20 -46 -37q-79 -60 -145.5 -97.5t-118.5 -57.5q40 -29 76 -65t68 -79q21 51 58 117.5t97 145.5q18 23 38 46zM386 770q-120 -129 -196.5 -216t-129.5 -135q49 -49 97.5 -102t104.5 -114.5t124 -134.5
l17 12q-65 104 -112 192t-77 147q25 50 73 139.5t116 199.5z" />
</svg>
