<?xml version="1.0" standalone="no"?>
<!DOCTYPE svg PUBLIC "-//W3C//DTD SVG 1.1//EN" "http://www.w3.org/Graphics/SVG/1.1/DTD/svg11.dtd" >
<svg xmlns="http://www.w3.org/2000/svg" xmlns:xlink="http://www.w3.org/1999/xlink" version="1.1" viewBox="0 0 1419 811">
   <path fill="currentColor"
d="M1288 355zM1326 355zM1311 268zM1311 230zM751 268zM751 230zM1031 268zM1031 230zM585 491q-126 0 -224 13.5t-171.5 34t-124.5 42.5q7 -48 7 -99t-7 -105q51 22 124 42.5t171.5 34t224.5 13.5v24zM1333 287q37 -2 76 -7q-22 51 -43 124t-34 171.5t-13 224.5h-25
q0 -41 -1 -79q-251 1 -448 13q-204 14 -356.5 34.5t-258.5 42.5q15 -48 15 -99t-15 -105q106 22 258 42.5t356 33.5q197 13 448 14q-3 -65 -11 -121q-13 -98 -34 -172q-20 -72 -42 -123q-69 12 -124 27q-74 21 -125 43q6 -37 7 -75q-92 13 -162 32q-74 21 -125 43
q6 -37 7 -75q-92 13 -162 32q-74 21 -125 43q7 -48 7 -99t-7 -105q51 22 124 42q70 20 163 33q-2 -37 -7 -75q51 22 124 42q70 20 163 33q-2 -37 -7 -75q51 22 124.5 42.5t171.5 33.5q9 2 18 3q-10 -56 -23 -102q-20 -73 -42 -124q48 7 99 7t105 -7q-22 51 -43 124
q-20 70 -33 163zM1280 287l-2 -16q-13 2 -26 3q-22 3 -43 7q35 5 71 6z" />
</svg>
