<?xml version="1.0" standalone="no"?>
<!DOCTYPE svg PUBLIC "-//W3C//DTD SVG 1.1//EN" "http://www.w3.org/Graphics/SVG/1.1/DTD/svg11.dtd" >
<svg xmlns="http://www.w3.org/2000/svg" xmlns:xlink="http://www.w3.org/1999/xlink" version="1.1" viewBox="0 0 1159 811">
   <path fill="currentColor"
d="M581 728zM581 690zM581 198zM581 160zM1034 800q0 -193 -13 -344t-33.5 -264.5t-42.5 -191.5q48 11 99 11t105 -11q-22 78 -43 191t-34 264t-13 345h-25zM804 800q0 -193 -13 -344t-33.5 -264.5t-42.5 -191.5q48 11 99 11t105 -11q-22 78 -43 191t-34 264t-13 345h-25z
M82 444q46 18 107 35q73 21 172 34q90 13 206 14q-3 -37 -6 -71q-4 -49 -9 -95q-106 2 -191 13q-98 14 -172 34q-61 18 -107 36zM67 438q5 -42 5 -86q0 -51 -7 -105q51 22 124 42.5t172 33.5q83 12 188 13q-9 -71 -20 -133q-3 1 -7 1q-98 14 -171.5 34.5t-124.5 42.5
q7 -48 7 -99t-7 -105q51 22 124 42q73 21 170 34q-17 -88 -35 -153q48 11 99 11t105 -11q-22 78 -43 191t-34 264t-13 345h-25v-71q-27 2 -52 5q-98 14 -171.5 34.5t-124.5 42.5q7 -48 7 -99t-7 -105q51 22 124.5 42.5t171.5 33.5q25 4 51 6q-1 -72 -5 -138q-115 1 -207 13
q-98 14 -171.5 34.5t-124.5 42.5q7 -48 7 -99q0 -45 -5 -92q-1 0 -2 1q0 -3 1 -7q-1 -3 -1 -7q1 1 2 1z" />
</svg>
