<?xml version="1.0" standalone="no"?>
<!DOCTYPE svg PUBLIC "-//W3C//DTD SVG 1.1//EN" "http://www.w3.org/Graphics/SVG/1.1/DTD/svg11.dtd" >
<svg xmlns="http://www.w3.org/2000/svg" xmlns:xlink="http://www.w3.org/1999/xlink" version="1.1" viewBox="0 0 968 800">
   <path fill="currentColor"
d="M860 443zM860 405zM369 638q-1 -146 -14 -262q-13 -125 -33.5 -218t-42.5 -158q48 9 99 9t105 -9q-22 65 -42.5 158t-34.5 217q-12 117 -13 266q57 7 121 12q144 13 328 14q-3 -115 -12 -211v-10q-15 2 -29 3q-98 14 -171.5 34.5t-124.5 42.5q8 -48 8 -99t-8 -105
q51 22 124.5 42.5t171.5 33.5q12 2 24 3q-12 -117 -29 -209q-20 -114 -42 -192q48 11 99 11t105 -11q-22 78 -42.5 191t-34 264t-13.5 345h-24q0 -56 -1 -109q-184 1 -328 13q-151 14 -264 34.5t-192 42.5q12 -48 12 -99t-12 -105q36 10 79 20q-2 -122 -13 -221
q-13 -125 -33.5 -218t-42.5 -158q48 9 99 9t105 -9q-22 65 -42.5 158t-34.5 217q-10 102 -12 227q40 9 86 17q55 11 119 19z" />
</svg>
