<?xml version="1.0" standalone="no"?>
<!DOCTYPE svg PUBLIC "-//W3C//DTD SVG 1.1//EN" "http://www.w3.org/Graphics/SVG/1.1/DTD/svg11.dtd" >
<svg xmlns="http://www.w3.org/2000/svg" xmlns:xlink="http://www.w3.org/1999/xlink" version="1.1" viewBox="0 0 1439 810">
   <path fill="currentColor"
d="M415 458zM415 420zM1314 800q0 -193 -13 -344q-1 -9 -1 -18q-86 3 -158 9q-21 2 -40 4q-10 113 -10 259h-19q0 -143 -9 -255q-66 8 -120 18q-85 15 -144 31q9 -36 9 -74t-9 -78q59 16 143 31q53 10 116 17q-9 -81 -21 -146q-16 -85 -32 -144q36 9 74.5 9t78.5 -9
q-16 59 -32 143q-12 67 -21 153q17 1 35 3q72 6 157 8q-13 -127 -31 -225q-21 -114 -42 -192q48 11 99 11t105 -11q-22 78 -43 191q-18 99 -31 228h45v18h-46l-2 18q-13 151 -13 345h-25zM415 458q-31 3 -59 6q-98 14 -171.5 34.5t-124.5 42.5q7 -48 7 -99t-7 -105
q51 22 124 42.5t172 33.5q28 4 59 7v38zM705 246q-4 -23 -8 -44q-21 -114 -42 -192q48 11 99 11t105 -11q-22 78 -43 191t-34 264t-13 345h-25q0 -89 -2 -169q-115 1 -206 13q-98 14 -171.5 34.5t-124.5 42.5q7 -48 7 -99t-7 -105q51 22 124 42.5t172 33.5q90 13 205 14
q-4 -81 -10 -151q-9 -107 -22 -194q-95 2 -173 12q-98 14 -171.5 34.5t-124.5 42.5q7 -48 7 -99t-7 -105q51 22 124 42.5t172 33.5q76 11 169 13z" />
</svg>
