<?xml version="1.0" standalone="no"?>
<!DOCTYPE svg PUBLIC "-//W3C//DTD SVG 1.1//EN" "http://www.w3.org/Graphics/SVG/1.1/DTD/svg11.dtd" >
<svg xmlns="http://www.w3.org/2000/svg" xmlns:xlink="http://www.w3.org/1999/xlink" version="1.1" viewBox="0 0 2559 814">
   <path fill="currentColor"
d="M1580 358zM1618 358zM1458 336zM1485 309zM1374 566zM1401 539zM2034 662zM2060 635zM2196 500zM2223 473zM2359 337zM2386 310zM699 221zM699 183zM699 391zM699 353zM699 561zM699 523zM1587 803q0 -126 -13.5 -224t-34 -171.5t-42.5 -124.5q37 6 75 7
q-13 -92 -33 -163q-20 -73 -42 -124q48 7 99 7t105 -7q-22 51 -43 124q-20 70 -33 163q37 -2 76 -7q-22 51 -43 124t-34 171.5t-13 224.5h-24zM1458 336q-24 -20 -46 -37q-79 -60 -145.5 -97.5t-118.5 -57.5q40 -29 76 -65t68 -79q21 51 58 117.5t97 145.5q18 23 38 46z
M1374 566q-24 -20 -46 -37q-79 -60 -146 -97q-50 -28 -91 -47q-91 2 -166 12q-98 14 -171 34q-45 13 -81 26q36 13 80 25q74 21 172 34.5t224 13.5v24q-126 0 -224 13.5t-171.5 34t-124.5 42.5q6 -37 7 -76q-95 13 -167 33q-56 16 -99 32q44 10 95 19q113 21 264 34.5
t345 13.5v24q-193 0 -344 13.5t-264.5 34t-191.5 42.5q11 -48 11 -99q0 -27 -3 -54q-53 -58 -93 -104q-77 -87 -130 -135q49 -49 97.5 -102t104.5 -114q39 -44 85 -93q-1 -6 -2 -13l10 4q15 -16 31 -33l17 12l-20 32q38 14 86 27q72 21 168 34q-2 -37 -7 -76
q51 22 124.5 42.5t171.5 34t224 13.5v24q-126 0 -224 13.5t-171 33.5q-45 13 -81 26q36 13 80 25q74 21 172 34q72 10 159 13q29 -23 56 -50q36 -36 68 -79q21 51 58 117.5t97 145.5q18 23 38 46zM2034 662q-24 -19 -47 -37q-78 -60 -145 -97.5t-118 -57.5q39 -29 75 -65
t69 -79q21 51 58 117.5t97 145.5q18 23 37 46q-11 12 -26 27zM2196 500q-23 -20 -46 -37q-79 -60 -145.5 -97.5t-117.5 -58.5q39 -29 75 -65t69 -79q20 51 57.5 117.5t97.5 145.5q17 23 37 47zM2359 337q-24 -20 -46 -37q-79 -60 -145.5 -97.5t-118.5 -57.5q40 -29 76 -65
t68 -80q21 52 58 118.5t97 144.5q18 23 38 47zM2512 813q-76 -75 -155 -114t-155 -51.5t-140 -9.5q78 -69 156 -147t156 -165q-3 64 9.5 140t51 155t114.5 155zM636 228q-95 13 -167 33q-45 13 -81 26q36 13 80 25q72 21 168 34q-1 -22 -3 -44l-4 2l2 -16l-2 -18l4 2
q2 -22 3 -44zM348 272q4 -33 4 -67q0 -19 -1 -38q-34 57 -61 108q-47 88 -77 147q25 50 73 139q16 29 34 61l26 6q6 -41 6 -83q0 -36 -4 -73l-4 2l2 -16l-2 -18l4 2q4 -33 4 -67q0 -36 -4 -73l-4 2l2 -16l-2 -18zM636 398q-95 13 -167 33q-45 13 -81 26q36 13 80 25
q72 21 168 34q-1 -22 -3 -44l-4 2l2 -16l-2 -18l4 2q2 -22 3 -44z" />
</svg>
