<?xml version="1.0" standalone="no"?>
<!DOCTYPE svg PUBLIC "-//W3C//DTD SVG 1.1//EN" "http://www.w3.org/Graphics/SVG/1.1/DTD/svg11.dtd" >
<svg xmlns="http://www.w3.org/2000/svg" xmlns:xlink="http://www.w3.org/1999/xlink" version="1.1" viewBox="0 0 1332 803">
   <path fill="currentColor"
d="M1201 358zM1239 358zM1079 336zM1106 309zM1045 616zM1072 589zM1207 803q0 -126 -13 -224t-34 -171.5t-42 -124.5q37 6 75 7q-13 -92 -33 -163q-21 -73 -42 -124q48 7 99 7t105 -7q-22 51 -43 124q-20 70 -33 163q37 -2 76 -7q-22 51 -43 124t-34 171.5t-13 224.5h-25z
M1079 336q-24 -20 -46 -37q-79 -60 -146 -97q-50 -29 -92 -47q-154 1 -279 12q-151 14 -264.5 34.5t-191.5 42.5q11 -48 11 -99t-11 -105q78 22 191 42.5t264 33.5q122 11 273 13q29 -23 56 -50q36 -36 69 -79q21 51 58 117.5t97 145.5q18 23 38 46zM1045 616
q-24 -20 -46 -37q-79 -60 -146 -97.5t-118 -57.5q39 -29 75 -65t69 -79q21 51 58 117.5t97 145.5q18 23 38 46zM667 618q-8 83 -8 185h-25q0 -100 -8 -183q-58 3 -110 7q-42 4 -80 8q-7 77 -7 168h-25q0 -89 -6 -163q-80 9 -146 21q-114 21 -192 43q11 -48 11 -99t-11 -105
q78 22 191 42q63 12 138 21q-13 -88 -32 -156q-21 -73 -42 -124q48 7 99 7t105 -7q-22 51 -43 124q-20 70 -33 163q35 3 72 6q51 5 107 8q-1 -2 -1 -5q-13 -98 -34 -171.5t-42 -124.5q48 7 99 7t105 -7q-22 51 -43 124t-34 172q0 3 -1 7q89 4 189 4v24q-102 0 -193 4z" />
</svg>
