<?xml version="1.0" standalone="no"?>
<!DOCTYPE svg PUBLIC "-//W3C//DTD SVG 1.1//EN" "http://www.w3.org/Graphics/SVG/1.1/DTD/svg11.dtd" >
<svg xmlns="http://www.w3.org/2000/svg" xmlns:xlink="http://www.w3.org/1999/xlink" version="1.1" viewBox="0 0 953 800">
   <path fill="currentColor"
d="M822 355zM860 355zM592 355zM630 355zM362 355zM400 355zM132 355zM170 355zM719 800q0 -126 -13.5 -224t-34.5 -172q-17 -61 -35 -107q-4 28 -6 58h-38l-4 -38q-14 39 -28 87q-20 73 -33.5 171.5t-13.5 224.5h-24q0 -126 -13.5 -224t-34.5 -172q-17 -61 -35 -107
q-4 28 -6 58h-38q-3 -31 -7 -59q-13 -98 -33.5 -171.5t-42.5 -124.5q48 7 99 7t105 -7q-22 51 -43 124q-19 68 -32 157q44 6 90 6q42 0 86 -5q-13 -89 -33 -158q-20 -73 -42 -124q48 7 99 7t105 -7q-22 51 -43 124q-19 68 -32 157q44 6 90 6q42 0 86 -5q-13 -89 -33 -158
q-20 -73 -42 -124q48 7 99 7t105 -7q-22 51 -42.5 124t-34.5 172q-3 28 -6 59h-38l-4 -38q-14 39 -28 87q-20 73 -33.5 171.5t-13.5 224.5h-24zM139 800q0 -126 -13.5 -224t-34 -171.5t-42.5 -124.5q37 6 75 7q-13 -92 -33 -163q-20 -73 -42 -124q48 7 99 7t105 -7
q-22 51 -43 124q-19 70 -32 163q36 -2 75 -7q-22 51 -42.5 124t-34 171.5t-13.5 224.5h-24z" />
</svg>
