<?xml version="1.0" standalone="no"?>
<!DOCTYPE svg PUBLIC "-//W3C//DTD SVG 1.1//EN" "http://www.w3.org/Graphics/SVG/1.1/DTD/svg11.dtd" >
<svg xmlns="http://www.w3.org/2000/svg" xmlns:xlink="http://www.w3.org/1999/xlink" version="1.1" viewBox="0 0 723 800">
   <path fill="currentColor"
d="M362 355zM400 355zM132 355zM170 355zM599 520q0 -126 -13 -224t-34 -171.5t-43 -124.5q49 7 99.5 7t104.5 -7q-21 51 -42 124t-34 171.5t-13 224.5h-25zM362 355q-3 -31 -7 -59q-13 -98 -33.5 -171.5t-42.5 -124.5q48 7 99 7t105 -7q-22 51 -42.5 124t-34.5 172
q-3 28 -6 59h-38zM132 355q-3 -31 -7 -59q-13 -98 -33.5 -171.5t-42.5 -124.5q48 7 99 7t105 -7q-22 51 -43 124q-19 69 -32 161q29 2 60 2q51 0 105 -7q-22 51 -42.5 124t-34 171.5t-13.5 224.5h-24q0 -126 -13.5 -224t-34.5 -172q-7 -26 -14 -49h-35z" />
</svg>
