<?xml version="1.0" standalone="no"?>
<!DOCTYPE svg PUBLIC "-//W3C//DTD SVG 1.1//EN" "http://www.w3.org/Graphics/SVG/1.1/DTD/svg11.dtd" >
<svg xmlns="http://www.w3.org/2000/svg" xmlns:xlink="http://www.w3.org/1999/xlink" version="1.1" viewBox="0 0 723 800">
   <path fill="currentColor"
d="M592 355zM630 355zM436 466zM465 466zM599 800q0 -126 -13.5 -224t-34 -171.5t-42.5 -124.5q37 6 75 7q-13 -92 -33 -163q-20 -73 -42 -124q48 7 99 7t105 -7q-22 51 -43 124q-19 70 -32 163q36 -2 75 -7q-22 51 -42.5 124t-34 171.5t-13.5 224.5h-24zM269 800
q0 -145 -10 -258t-26 -198q-13 -74 -27 -128q-18 104 -30 239q-13 151 -13 345h-24q0 -193 -13.5 -344t-34 -264.5t-42.5 -191.5q48 11 99 11t105 -11q-22 78 -43 191q-1 5 -2 11q33 6 68 6q38 0 78 -8q-16 59 -31.5 143.5t-25.5 197.5t-10 259h-18zM441 800
q0 -94 -10 -167.5t-25.5 -129t-31.5 -93.5q28 4 56 5q-9 -69 -24 -122q-16 -55 -32 -93q36 6 74.5 6t78.5 -6q-16 38 -32 93q-15 53 -25 122q28 -1 57 -5q-16 38 -32 93t-25.5 128.5t-9.5 168.5h-19z" />
</svg>
