<?xml version="1.0" standalone="no"?>
<!DOCTYPE svg PUBLIC "-//W3C//DTD SVG 1.1//EN" "http://www.w3.org/Graphics/SVG/1.1/DTD/svg11.dtd" >
<svg xmlns="http://www.w3.org/2000/svg" xmlns:xlink="http://www.w3.org/1999/xlink" version="1.1" viewBox="0 0 953 800">
   <path fill="currentColor"
d="M822 355zM860 355zM746 614q-67 -73 -110 -122q-34 -38 -59 -62q-82 1 -148 10q-74 9 -129 25t-93 32q5 -36 5 -74.5t-5 -78.5q38 16 93 31.5t128 25.5q62 9 140 10q25 -25 50 -52q27 -30 58.5 -64.5t69.5 -75.5l10 6q-37 59 -63.5 108.5t-43.5 82.5q15 28 42 78.5
t65 112.5zM829 800q0 -126 -13.5 -224t-34 -171.5t-42.5 -124.5q37 6 75 7q-13 -92 -33 -163q-20 -73 -42 -124q48 7 99 7t105 -7q-22 51 -43 124q-19 70 -32 163q36 -2 75 -7q-22 51 -42.5 124t-34 171.5t-13.5 224.5h-24zM139 800q0 -193 -13.5 -344t-34 -264.5
t-42.5 -191.5q48 11 99 11t105 -11q-22 78 -42.5 191t-34 264t-13.5 345h-24z" />
</svg>
