<?xml version="1.0" standalone="no"?>
<!DOCTYPE svg PUBLIC "-//W3C//DTD SVG 1.1//EN" "http://www.w3.org/Graphics/SVG/1.1/DTD/svg11.dtd" >
<svg xmlns="http://www.w3.org/2000/svg" xmlns:xlink="http://www.w3.org/1999/xlink" version="1.1" viewBox="0 0 1474 814">
   <path fill="currentColor"
d="M695 502zM695 464zM835 662zM861 635zM997 500zM1024 473zM1160 337zM1187 310zM415 502zM415 464zM835 662q-24 -19 -47 -37q-78 -60 -145 -97q-15 -9 -30 -16q-84 12 -149 30q-73 21 -124 43q6 -37 7 -75q-92 13 -163 32q-73 21 -124 43q7 -48 7 -99t-7 -105
q51 22 124 42q70 20 163 33q-2 -37 -7 -75q51 22 124 42q42 12 93 22q22 -19 43 -40q36 -36 69 -79q21 51 58 117.5t97 145.5q17 23 37 46q-12 12 -26 27zM997 500q-23 -20 -46 -37q-79 -60 -145.5 -97.5t-117.5 -58.5q26 -19 50 -41q-121 2 -222 11q-151 14 -264.5 34.5
t-191.5 42.5q11 -48 11 -99t-11 -105q78 22 191 42.5t264 33.5q113 10 251 13q34 -35 66 -76q20 51 57.5 117.5t97.5 145.5q17 23 37 47zM1160 337q-24 -20 -46 -37q-79 -60 -146 -97.5t-118 -57.5q39 -29 75 -65t69 -80q21 52 58 118.5t97 144.5q18 23 38 47zM1313 813
q-76 -75 -155 -114t-155 -51.5t-140 -9.5q78 -69 156 -147t156 -165q-3 64 9.5 140t50.5 155q39 79 114 154q-1 -176 -13 -316q-13 -151 -34 -264.5t-42 -191.5q48 11 99 11t105 -11q-22 78 -43 191t-34 264t-13 345h-25v-26zM1140 724q-261 0 -465 13.5t-356.5 34
t-258.5 42.5q15 -48 15 -99t-15 -105q106 22 258 42.5t356 34t466 13.5v24z" />
</svg>
