<?xml version="1.0" standalone="no"?>
<!DOCTYPE svg PUBLIC "-//W3C//DTD SVG 1.1//EN" "http://www.w3.org/Graphics/SVG/1.1/DTD/svg11.dtd" >
<svg xmlns="http://www.w3.org/2000/svg" xmlns:xlink="http://www.w3.org/1999/xlink" version="1.1" viewBox="0 0 808 800">
   <path fill="currentColor"
d="M695 348zM695 310zM415 348zM415 310zM695 578zM695 540zM415 578zM415 540zM654 306q-8 -61 -18 -114q-21 -114 -42 -192q48 11 99 11t105 -11q-22 78 -43 191t-34 264t-13 345h-25q0 -118 -5 -221q-21 3 -42 5q-98 14 -171.5 34.5t-124.5 42.5q6 -37 7 -75
q-92 13 -163 32q-73 21 -124 43q7 -48 7 -99t-7 -105q51 22 124 42q70 20 163 33q-2 -37 -7 -75q51 22 124 42.5t172 33.5q19 3 40 5q-2 -43 -6 -82q-5 -55 -10 -105q-12 2 -24 3q-98 14 -171.5 34.5t-124.5 42.5q6 -37 7 -75q-92 13 -163 32q-73 21 -124 43q7 -48 7 -99
t-7 -105q51 22 124 42q70 20 163 33q-2 -37 -7 -75q51 22 124 42.5t172 33.5q9 2 18 3z" />
</svg>
