<?xml version="1.0" standalone="no"?>
<!DOCTYPE svg PUBLIC "-//W3C//DTD SVG 1.1//EN" "http://www.w3.org/Graphics/SVG/1.1/DTD/svg11.dtd" >
<svg xmlns="http://www.w3.org/2000/svg" xmlns:xlink="http://www.w3.org/1999/xlink" version="1.1" viewBox="0 0 1664 906">
   <path fill="currentColor"
d="M1028 431zM1056 431zM1200 431zM1229 431zM585 666q-126 0 -224 13.5t-171.5 34t-124.5 42.5q7 -48 7 -99t-7 -105q51 22 124 42.5t172 33.5q91 13 207 14q-44 -48 -79 -88q-76 -87 -129 -135q49 -49 97 -102q48 -51 102 -111q-110 2 -198 13q-98 14 -171.5 34.5
t-124.5 42.5q7 -48 7 -99t-7 -105q51 22 124 42.5t172 33.5q96 13 220 14q48 -53 105 -114l17 12q-66 104 -112.5 192t-77.5 147q26 50 74 139.5t116 199.5l-17 12q-55 -59 -101 -110v6zM1539 800q0 -193 -13 -344t-34 -264q-4 -21 -7 -41q-176 1 -315 13q-12 1 -23 2
q32 5 65 5q39 0 79 -6q-16 38 -32 93q-15 53 -25 122q28 -1 57 -5q-16 38 -32 93t-25.5 128.5t-9.5 168.5h-19q0 -94 -10 -167.5t-25.5 -129t-31.5 -93.5q28 4 56 5q-9 -69 -24 -122t-31 -91l-22 2q-16 37 -30 89q-15 53 -25 122q28 -1 56 -5q-16 38 -31.5 93t-25.5 128.5
t-10 168.5h-10q60 8 128 13q151 14 345 14v24q-193 0 -344 13.5t-264.5 34t-191.5 42.5q11 -48 11 -99t-11 -105q78 22 191 42q59 11 128 20q0 -94 -10 -167t-25.5 -128.5t-31.5 -93.5q27 4 56 5q-10 -69 -25 -122q-11 -40 -23 -71q-36 5 -68 11q-114 21 -192 43
q11 -48 11 -99t-11 -105q78 22 191 42.5t264 33.5q137 12 311 14q-15 -72 -30 -127q48 11 99 11t105 -11q-22 78 -43 191t-34 264t-13 345h-25zM1482 677q-67 -73 -110.5 -122t-72.5 -76q27 -27 54.5 -56.5t58.5 -64.5t70 -76l10 7q-37 59 -63.5 108t-43.5 82q14 29 41 79
t66 112z" />
</svg>
