<?xml version="1.0" standalone="no"?>
<!DOCTYPE svg PUBLIC "-//W3C//DTD SVG 1.1//EN" "http://www.w3.org/Graphics/SVG/1.1/DTD/svg11.dtd" >
<svg xmlns="http://www.w3.org/2000/svg" xmlns:xlink="http://www.w3.org/1999/xlink" version="1.1" viewBox="0 0 1955 910">
   <path fill="currentColor"
d="M937 471zM960 471zM864 458zM880 442zM814 596zM830 580zM1581 336zM1608 309zM677 910zM704 883zM1360 541zM1360 503zM941 738q0 -75 -8 -134t-20.5 -103t-25.5 -75q22 3 45 4q-7 -55 -19 -97q-13 -44 -26 -75q29 5 59.5 5t63.5 -5q-13 31 -26 75q-12 42 -20 97
q21 -1 42 -3q0 -4 -1 -7q51 22 124 42q71 20 165 33q-2 -37 -9 -75q65 22 158 42q81 19 187 31q-10 -100 -24 -182l-25 25q-24 -20 -46 -37q-79 -60 -145.5 -97.5t-118.5 -57.5q39 -29 75 -65t69 -79q21 51 58 117.5t97 145.5q17 21 35 43q-1 -8 -3 -16q-20 -114 -42 -192
q48 11 99 11t105 -11q-22 78 -43 191q-17 92 -29 211q113 10 253 10v24q-143 0 -257 11q0 4 -1 8q-13 151 -13 345h-25q0 -193 -13 -344v-4q-109 13 -193 31q-93 21 -158 43q7 -37 9 -76q-94 13 -164 33q-74 21 -125 43q7 -48 7 -99q0 -45 -5 -92q-12 28 -23 68
q-12 44 -20 102.5t-8 134.5h-15zM864 458q-14 -12 -28 -22q-47 -36 -87 -58.5t-71 -34.5q24 -18 45.5 -39.5t41.5 -47.5q12 31 34.5 71t58.5 87q10 14 22 28zM814 596q-15 -12 -28 -22q-47 -36 -87 -58.5t-71 -34.5q23 -18 45 -39.5t41 -47.5q13 31 35 71t58 87q11 14 23 28
zM677 910q-24 -20 -46 -37q-79 -60 -145.5 -97.5t-118.5 -57.5q39 -29 75 -65t69 -79q21 51 58 117q-2 -104 -10 -192q-113 1 -203 13q-98 14 -171.5 34.5t-124.5 42.5q7 -48 7 -99t-7 -105q51 22 124 42.5t172 33.5q88 12 200 14v-1q-13 -125 -33.5 -218t-42.5 -158
q48 9 99 9t105 -9q-22 65 -43 158t-34 217q-12 115 -13 260q31 49 72 104q18 23 38 46z" />
</svg>
