<?xml version="1.0" standalone="no"?>
<!DOCTYPE svg PUBLIC "-//W3C//DTD SVG 1.1//EN" "http://www.w3.org/Graphics/SVG/1.1/DTD/svg11.dtd" >
<svg xmlns="http://www.w3.org/2000/svg" xmlns:xlink="http://www.w3.org/1999/xlink" version="1.1" viewBox="0 0 4050 920">
   <path fill="currentColor"
d="M3525 680zM3551 653zM3687 518zM3714 491zM3850 355zM3877 328zM1710 353zM1737 326zM1540 513zM1567 486zM1370 673zM1397 646zM1200 833zM1227 806zM838 376zM876 376zM3525 680q-24 -19 -47 -37q-78 -60 -145 -97q-34 -19 -64 -34q-122 0 -218 13q-98 14 -171.5 34.5
t-124.5 42.5q7 -48 7 -99t-7 -105q51 22 124 42.5t172 33.5q74 10 165 13q39 -29 74 -64q36 -36 69 -79q21 51 58 117.5t97 145.5q17 23 37 46q-12 12 -26 27zM3687 518q-23 -20 -46 -37q-79 -60 -145.5 -97.5t-117.5 -58.5q26 -19 50 -41q-121 2 -222 11
q-151 14 -264.5 34.5t-191.5 42.5q11 -48 11 -99t-11 -105q78 22 191 42.5t264 33.5q113 10 251 13q34 -35 66 -76q20 51 57.5 117.5t97.5 145.5q17 23 37 47zM3850 355q-24 -20 -46 -37q-79 -60 -146 -97.5t-118 -57.5q39 -29 75 -65t69 -80q21 52 58 118.5t97 144.5
q18 23 38 47zM4003 831q-76 -75 -155 -114t-155 -51.5t-140 -9.5q78 -69 156 -147t156 -165q-3 64 9.5 140t51 155t114.5 155zM3830 742q-261 0 -465 13.5t-356.5 34t-258.5 42.5q15 -48 15 -99t-15 -105q106 22 258 42.5t356 34t466 13.5v24zM2729 527q-90 -97 -148 -162
q-44 -50 -78 -83q-110 1 -198 13q-98 13 -171.5 34t-124.5 42q7 -48 7 -99t-7 -104q51 21 124 42t172 34q82 11 186 13q33 -34 66 -70q37 -39 78.5 -85.5t93.5 -101.5l12 9q-49 79 -84 144.5t-58 110.5q19 37 55 104t87 150zM2664 742q-160 0 -284.5 13t-217.5 34t-158 42
q9 -48 9 -99t-9 -104q65 21 158 42t217.5 34t284.5 13v25zM1946 791q-120 -129 -196.5 -216t-129.5 -135q43 -43 86 -90q-21 -18 -42 -34q-79 -60 -146 -97.5t-118 -57.5q39 -29 75 -65t69 -79q21 51 58 117.5t97 145.5q16 20 34 42q42 -46 89 -98q55 -62 124 -135l17 12
q-66 104 -112.5 192t-77.5 147q26 50 74 139.5t116 199.5zM1540 513q-24 -20 -46 -37q-79 -60 -146 -97.5t-118 -57.5q39 -29 75 -65t69 -79q21 51 58 117.5t97 145.5q18 23 38 46zM1370 673q-24 -20 -46 -37q-79 -60 -146 -97.5t-118 -57.5q39 -29 75 -65t69 -79
q21 51 58 117.5t97 145.5q18 23 38 46zM1200 833q-24 -20 -46 -37q-79 -60 -146 -97.5t-118 -57.5q39 -29 75 -65t69 -79q21 51 58 117.5t97 145.5q18 23 38 46zM860 830q-193 0 -344 13.5t-264.5 34t-191.5 42.5q11 -48 11 -99t-11 -105q78 22 191 42.5t264 33.5
q145 13 329 14q0 -101 -10 -184q-150 1 -268 13q-125 14 -218 34.5t-158 42.5q9 -48 9 -99q0 -50 -8 -101h-1v-2v-2h1q8 -46 8 -95.5t-8 -100.5h-1v-2v-2h1q8 -46 8 -95q0 -51 -9 -105q65 22 158 42.5t217 33.5q109 12 245 13q-6 -27 -13 -52q-21 -73 -42 -124q48 7 99 7
t105 -7q-22 51 -43 124q-20 70 -33 163q37 -2 76 -7q-22 51 -43 124t-34 171.5t-13 224.5h-9v9zM830 308q-6 -46 -14 -86q-139 2 -250 13q-125 14 -218 34q-89 20 -152 41q63 21 152 40q93 21 217 34q100 11 224 13q-17 -55 -34 -96q37 6 75 7zM796 423q-127 1 -230 12
q-125 14 -218 34q-89 20 -152 41q63 21 152 40q93 21 217 34q117 13 266 14v-1q-13 -98 -34 -172q0 -1 -1 -2z" />
</svg>
