<?xml version="1.0" standalone="no"?>
<!DOCTYPE svg PUBLIC "-//W3C//DTD SVG 1.1//EN" "http://www.w3.org/Graphics/SVG/1.1/DTD/svg11.dtd" >
<svg xmlns="http://www.w3.org/2000/svg" xmlns:xlink="http://www.w3.org/1999/xlink" version="1.1" viewBox="0 0 1700 813">
   <path fill="currentColor"
d="M1105 446zM1105 408zM355 662zM381 635zM517 500zM544 473zM680 337zM707 310zM1395 803q0 -193 -14 -344v-4q-109 13 -193 31q-93 21 -158 43q7 -37 9 -76q-94 13 -164 33q-74 21 -125 43q7 -48 7 -99t-7 -105q51 22 124 42q71 20 165 33q-2 -37 -9 -75q65 22 158 42
q81 19 188 31q-12 -114 -29 -203q-20 -114 -42 -192q48 11 99 11t105 -11q-22 78 -43 191q-17 92 -29 211q113 10 253 10v24q-142 0 -257 11q0 4 -1 8q-13 151 -13 345h-24zM355 662q-24 -19 -47 -37q-78 -60 -145 -97.5t-118 -57.5q39 -29 75 -65t69 -79q21 51 58 117.5
t97 145.5q18 23 37 46q-11 12 -26 27zM517 500q-23 -20 -46 -37q-79 -60 -145.5 -97.5t-117.5 -58.5q39 -29 75 -65t69 -79q20 51 57.5 117.5t97.5 145.5q17 23 37 47zM680 337q-24 -20 -46 -37q-79 -60 -145.5 -97.5t-118.5 -57.5q39 -29 75.5 -65t68.5 -80q21 52 58 118.5
t97 144.5q18 23 38 47zM833 813q-76 -75 -155 -114t-155 -51.5t-140 -9.5q78 -69 156 -147t156 -165q-3 64 9.5 140t51 155t114.5 155z" />
</svg>
