<?xml version="1.0" standalone="no"?>
<!DOCTYPE svg PUBLIC "-//W3C//DTD SVG 1.1//EN" "http://www.w3.org/Graphics/SVG/1.1/DTD/svg11.dtd" >
<svg xmlns="http://www.w3.org/2000/svg" xmlns:xlink="http://www.w3.org/1999/xlink" version="1.1" viewBox="0 0 1191 1046">
   <path fill="currentColor"
d="M793 733zM809 717zM891 636zM907 620zM988 538zM1004 522zM772 517zM788 501zM386 850q-120 -129 -196.5 -216t-129.5 -135q49 -49 97.5 -102t104.5 -114.5t124 -134.5l17 12q-65 104 -112 192t-77 147q25 50 73 139.5t116 199.5zM1169 1046q-90 -96 -148 -162
q-44 -50 -78 -83q-110 2 -198 13q-98 14 -171.5 34.5t-124.5 42.5q7 -48 7 -99t-7 -105q51 22 124.5 42.5t171.5 33.5q83 12 186 13q33 -33 66 -69q37 -40 79 -86q40 -45 90 -98q-88 -94 -145 -159q-44 -50 -78 -83q-110 2 -198 13q-98 14 -171.5 34.5t-124.5 42.5
q7 -48 7 -99t-7 -105q51 22 124.5 42.5t171.5 33.5q83 12 186 13q33 -33 66 -69q37 -40 78.5 -86t93.5 -101l12 9q-49 78 -84 144t-58 110q19 38 55 105t87 150l-7 5l7 6q-49 78 -84 144t-58 110q19 38 55 105t87 150zM793 733l-28 -22q-47 -36 -87 -58.5t-71 -34.5
q24 -17 45.5 -39t41.5 -47q12 30 34.5 70t58.5 87q10 14 22 28zM891 636q-15 -12 -28 -22q-47 -36 -87 -58.5t-71 -35.5q18 -13 35 -29q-45 -33 -83 -55q-40 -22 -71 -34q23 -18 45 -39.5t41 -47.5q13 31 35 71q21 38 55 83q15 -17 29 -35q13 31 35 71t58 87q11 13 23 28z
M988 538q-14 -12 -28 -22q-47 -36 -87 -58.5t-71 -34.5q24 -17 45.5 -39t41.5 -48q12 31 34.5 71t58.5 87q10 14 22 28z" />
</svg>
