<?xml version="1.0" standalone="no"?>
<!DOCTYPE svg PUBLIC "-//W3C//DTD SVG 1.1//EN" "http://www.w3.org/Graphics/SVG/1.1/DTD/svg11.dtd" >
<svg xmlns="http://www.w3.org/2000/svg" xmlns:xlink="http://www.w3.org/1999/xlink" version="1.1" viewBox="0 0 1288 812">
   <path fill="currentColor"
d="M415 384zM415 346zM695 384zM695 346zM695 614zM695 576zM1251 812zM1278 785zM1021 812zM1048 785zM1251 812q-24 -20 -46 -37q-79 -60 -146 -97.5t-118 -57.5q39 -29 75 -65t69 -79q21 51 58 117q-2 -119 -13 -217q-13 -125 -34 -218t-42 -158q48 9 99 9t105 -9
q-22 65 -43 158t-34 217q-12 115 -13 260q31 49 72 104q18 23 38 46zM1021 812q-24 -20 -46 -37q-79 -60 -146 -97.5t-118 -57.5q39 -29 75 -65t69 -79q21 51 58 117q-2 -119 -13 -217q-13 -125 -34 -218t-42 -158q48 9 99 9t105 -9q-22 65 -43 158t-34 217q-12 115 -13 260
q31 49 72 104q18 23 38 46zM347 338q-2 -37 -7 -75q51 22 124 42.5t172 33.5q11 2 23 3q-10 -82 -23 -150q-21 -114 -42 -192q48 11 99 11t105 -11q-22 78 -43 191t-34 264t-13 345h-25q0 -98 -3 -185q-23 3 -44 5q-98 14 -171.5 34.5t-124.5 42.5q7 -48 7 -99t-7 -105
q51 22 124 42.5t172 33.5q20 3 42 5q-3 -62 -8 -118q-3 -36 -6 -69q-14 2 -28 3q-98 14 -171.5 34.5t-124.5 42.5q6 -37 7 -75q-92 13 -163 32q-73 21 -124 43q7 -48 7 -99t-7 -105q51 22 124 42q70 20 163 33z" />
</svg>
