<?xml version="1.0" standalone="no"?>
<!DOCTYPE svg PUBLIC "-//W3C//DTD SVG 1.1//EN" "http://www.w3.org/Graphics/SVG/1.1/DTD/svg11.dtd" >
<svg xmlns="http://www.w3.org/2000/svg" xmlns:xlink="http://www.w3.org/1999/xlink" version="1.1" viewBox="0 0 1919 910">
   <path fill="currentColor"
d="M415 482zM415 444zM695 482zM695 444zM695 712zM695 674zM1545 336zM1572 309zM1021 910zM1048 883zM1324 541zM1324 503zM1545 336q-24 -20 -46 -37q-79 -60 -145.5 -97.5t-118.5 -57.5q39 -29 75 -65t69 -79q21 51 58 117.5t97 145.5q17 21 35 43q-1 -8 -3 -16
q-20 -114 -42 -192q48 11 99 11t105 -11q-22 78 -43 191q-17 92 -29 211q113 10 253 10v24q-143 0 -257 11q0 4 -1 8q-13 151 -13 345h-25q0 -193 -13 -344v-4q-109 13 -193 31q-93 21 -158 43q7 -37 9 -76q-94 13 -164 33q-74 21 -125 43q7 -48 7 -99t-7 -105q51 22 124 42
q71 20 165 33q-2 -37 -9 -75q65 22 158 42q81 19 187 31q-10 -100 -24 -182zM1021 910q-24 -20 -46 -37q-79 -60 -145.5 -97.5t-118.5 -57.5q39 -29 75 -65t69 -79q21 51 58 117q-2 -119 -13 -217q-13 -125 -33.5 -218t-42.5 -158q48 9 99 9t105 -9q-22 65 -43 158t-34 217
q-12 115 -13 260q31 49 72 104q18 23 38 46zM347 436q-2 -37 -7 -75q51 22 124 42.5t172 33.5q11 2 23 3q-10 -82 -23 -150q-21 -114 -42 -192q48 11 99 11t105 -11q-22 78 -43 191t-34 264t-13 345h-25q0 -98 -3 -185q-23 3 -44 5q-98 14 -171.5 34.5t-124.5 42.5
q7 -48 7 -99t-7 -105q51 22 124 42.5t172 33.5q20 3 42 5q-3 -62 -8 -118q-3 -36 -6 -69q-14 2 -28 3q-98 14 -171.5 34.5t-124.5 42.5q6 -37 7 -75q-92 13 -163 32q-73 21 -124 43q7 -48 7 -99t-7 -105q51 22 124 42q70 20 163 33z" />
</svg>
