<?xml version="1.0" standalone="no"?>
<!DOCTYPE svg PUBLIC "-//W3C//DTD SVG 1.1//EN" "http://www.w3.org/Graphics/SVG/1.1/DTD/svg11.dtd" >
<svg xmlns="http://www.w3.org/2000/svg" xmlns:xlink="http://www.w3.org/1999/xlink" version="1.1" viewBox="0 0 808 800">
   <path fill="currentColor"
d="M695 268zM695 230zM415 268zM415 230zM695 613zM695 575zM415 613zM415 575zM677 355zM715 355zM347 222q-2 -37 -7 -75q51 22 124 42.5t172 33.5q11 2 23 3q-10 -55 -23 -102q-21 -73 -42 -124q48 7 99 7t105 -7q-22 51 -43 124q-20 70 -33 163q37 -2 76 -7
q-22 51 -43 124t-34 171.5t-13 224.5h-25q0 -102 -8 -185q-20 2 -39 4q-98 14 -171.5 34.5t-124.5 42.5q6 -37 7 -75q-92 13 -163 32q-73 21 -124 43q7 -48 7 -99t-7 -105q51 22 124 42q70 20 163 33q-2 -37 -7 -75q51 22 124 42.5t172 33.5q16 3 34 5q-13 -96 -34 -169
q-20 -73 -42 -123q-72 11 -130 27q-73 21 -124 43q6 -37 7 -75q-92 13 -163 32q-73 21 -124 43q7 -48 7 -99t-7 -105q51 22 124 42q70 20 163 33zM596 280q36 6 73 7l-2 -16q-16 1 -31 3q-21 3 -40 6z" />
</svg>
