<?xml version="1.0" standalone="no"?>
<!DOCTYPE svg PUBLIC "-//W3C//DTD SVG 1.1//EN" "http://www.w3.org/Graphics/SVG/1.1/DTD/svg11.dtd" >
<svg xmlns="http://www.w3.org/2000/svg" xmlns:xlink="http://www.w3.org/1999/xlink" version="1.1" viewBox="0 0 1760 800">
   <path fill="currentColor"
d="M1165 443zM1165 405zM677 355zM715 355zM415 613zM415 575zM695 613zM695 575zM415 268zM415 230zM695 268zM695 230zM1454 800q0 -193 -13 -344v-4q-109 13 -193 31q-93 21 -158 43q7 -37 9 -76q-94 13 -165 33q-73 21 -124 43q7 -48 7 -99t-7 -105q51 22 124 42
q71 20 165 33q-2 -37 -9 -75q65 22 158 42q81 19 187 31q-11 -114 -28 -203q-21 -114 -42 -192q48 11 99 11t105 -11q-22 78 -43 191q-17 92 -29 211q113 10 253 10v24q-143 0 -257 11q-1 4 -1 8q-13 151 -13 345h-25zM722 287q37 -2 76 -7q-22 51 -43 124t-34 171.5
t-13 224.5h-25q0 -102 -8 -185q-20 2 -39 4q-98 14 -171.5 34.5t-124.5 42.5q6 -37 7 -75q-92 13 -163 32q-73 21 -124 43q7 -48 7 -99t-7 -105q51 22 124 42q70 20 163 33q-2 -37 -7 -75q51 22 124 42.5t172 33.5q16 3 34 5q-13 -96 -34 -169q-20 -73 -42 -123
q-72 11 -130 27q-73 21 -124 43q6 -37 7 -75q-92 13 -163 32q-73 21 -124 43q7 -48 7 -99t-7 -105q51 22 124 42q70 20 163 33q-2 -37 -7 -75q51 22 124 42.5t172 33.5q11 2 23 3q-10 -55 -23 -102q-21 -73 -42 -124q48 7 99 7t105 -7q-22 51 -43 124q-20 70 -33 163z
M669 287l-2 -16q-16 1 -31 3q-21 3 -40 6q36 6 73 7z" />
</svg>
