<?xml version="1.0" standalone="no"?>
<!DOCTYPE svg PUBLIC "-//W3C//DTD SVG 1.1//EN" "http://www.w3.org/Graphics/SVG/1.1/DTD/svg11.dtd" >
<svg xmlns="http://www.w3.org/2000/svg" xmlns:xlink="http://www.w3.org/1999/xlink" version="1.1" viewBox="0 0 6478 6408">
   <path fill="currentColor"
d="M3221 355zM3259 355zM3309 1738zM3309 1776zM3307 6053zM3269 6053zM3219 4670zM3219 4632zM6113 3161zM6113 3199zM4730 3249zM4692 3249zM415 3247zM415 3209zM1798 3159zM1836 3159zM2864 645q193 0 344 -14h4q-13 -109 -32 -193q-20 -93 -42 -158q37 7 75 9
q-13 -93 -33 -164q-20 -74 -42 -125q48 8 99 8t105 -8q-22 51 -43 124q-20 71 -33 165q37 -2 76 -9q-22 65 -43 158q-18 82 -30 188q113 -12 203 -29q114 -20 192 -42q-11 48 -11 99t11 105q-78 -22 -191 -43q-93 -17 -211 -29q-10 113 -10 253h-24q0 -142 -11 -257
q-4 0 -8 -1q-151 -13 -345 -13v-24zM2855 1860q0 -261 -13.5 -464.5t-34 -356.5t-42.5 -259q48 16 99 16q49 0 101 -15v-1q1 0 3 1l1 -1v1q46 7 95 7q51 0 105 -8q-22 51 -42.5 124.5t-34.5 171.5q-9 73 -12 161q42 0 85 -6v-1q1 0 2 1q1 -1 2 -1v1q46 7 95 7t101 -7v-1
q1 0 2 1q1 -1 2 -1v1q46 7 95 7q51 0 105 -8q-22 51 -42.5 124.5t-34.5 171.5q-11 83 -12 186q31 -7 59 -15q74 -20 125 -42q-8 48 -8 99t8 105q-51 -22 -124 -43q-70 -19 -163 -32q2 36 7 75q-51 -22 -124.5 -42.5t-171.5 -34.5q-92 -12 -208 -13q-1 45 -1 91h-24z
M3513 2973q0 -261 -13.5 -464.5t-34 -356.5t-42.5 -259q48 16 99 16t105 -16q-22 106 -42.5 258t-34 356t-13.5 466h-24zM3664 5763q-194 0 -345 14h-3q12 109 31 193q21 93 43 158q-37 -7 -76 -9q13 94 33 164q21 74 43 125q-49 -8 -99.5 -8t-104.5 8q21 -51 42 -124
q20 -71 33 -165q-37 2 -75 9q21 -65 42 -158q18 -81 31 -188q-114 12 -204 29q-113 20 -191 42q11 -48 11 -99t-11 -105q78 22 191 43q92 17 210 29q10 -113 10 -253h25q0 142 10 257q4 0 8 1q151 13 346 13v24zM3673 4548q0 261 13 464.5t34 356.5t43 259q-49 -15 -100 -15
q-49 0 -101 14l1 1q-2 0 -3 -1l-1 1v-1q-47 -7 -96 -7q-50 0 -104 8q21 -51 42 -124.5t34 -171.5q10 -73 12 -161q-41 1 -85 6l1 1h-2h-2v-1q-46 -7 -95.5 -7t-101.5 7l1 1h-2h-2v-1q-46 -7 -96 -7t-104 8q21 -51 42 -124.5t34 -171.5q11 -83 13 -186q-32 7 -60 15
q-73 20 -124 42q7 -48 7 -99t-7 -105q51 22 124 43q70 20 162 33q-1 -37 -6 -76q51 22 124 43t171 34q92 12 209 13v-91h25zM3015 3435q0 261 13 464.5t34 356.5t43 259q-49 -15 -99.5 -15t-104.5 15q21 -106 42 -258t34 -356t13 -466h25zM5823 2804q0 194 13 344q1 2 1 4
q109 -13 193 -31q93 -21 158 -43q-8 37 -9 76q93 -13 164 -33q74 -21 125 -43q-8 48 -8 99t8 105q-51 -22 -125 -42q-70 -20 -164 -33q2 37 9 75q-65 -22 -158 -42q-82 -19 -188 -31q12 114 28 204q21 113 43 191q-48 -11 -99 -11t-105 11q22 -78 42 -191q17 -92 29 -210
q-112 -11 -252 -11v-24q142 0 257 -11v-8q14 -151 14 -345h24zM4608 2795q261 0 464.5 -13t356.5 -34t259 -43q-16 48 -16 99q0 50 15 102l1 -1q-1 2 -1 3l1 1h-1q-7 46 -7 95q0 51 8 105q-51 -22 -124.5 -42.5t-171.5 -33.5q-73 -10 -162 -13q1 42 7 86l1 -1q-1 1 -1 2t1 2
h-1q-7 46 -7 95.5t7 101.5l1 -1q-1 1 -1 2t1 2h-1q-7 46 -7 95q0 51 8 105q-51 -22 -124.5 -42.5t-171.5 -33.5q-83 -11 -186 -13q6 32 14 60q21 73 43 124q-48 -7 -99 -7t-105 7q22 -51 42 -124q20 -70 33 -163q-37 2 -75 7q22 -51 42.5 -124t33.5 -171q13 -92 14 -209
q-45 -1 -91 -1v-24zM3495 3453q261 0 464.5 -13t356.5 -34t259 -43q-16 48 -16 99t16 105q-106 -22 -258.5 -42.5t-356 -34t-465.5 -13.5v-24zM704 3604q0 -193 -13 -344v-4q-109 13 -193 31q-93 21 -158 43q7 -37 9 -76q-94 13 -165 33q-73 21 -124 43q7 -48 7 -99t-7 -105
q51 22 124 42q71 20 165 33q-2 -37 -9 -75q65 22 158 42q81 19 187 31q-11 -114 -28 -203q-21 -114 -42 -192q48 11 99 11t105 -11q-22 78 -43 191q-17 92 -29 211q113 10 253 10v24q-143 0 -257 11q-1 4 -1 8q-13 151 -13 345h-25zM1920 3613q-261 0 -465 13.5t-356.5 34
t-258.5 42.5q15 -48 15 -99q0 -50 -14 -102l-1 1v-3v-1h1q6 -46 6 -95q0 -51 -7 -105q51 22 124 42.5t172 33.5q73 10 161 13q-1 -42 -7 -85v-2v-2h1q6 -46 6 -95.5t-7 -100.5v-2v-2h1q6 -46 6 -95q0 -51 -7 -105q51 22 124 42.5t172 33.5q83 12 186 13q-7 -31 -15 -60
q-21 -73 -42 -124q48 7 99 7t105 -7q-22 51 -43 124q-20 70 -33 163q37 -2 76 -7q-22 51 -43 124t-34 172q-12 92 -13 208q45 1 91 1v24zM3033 2955q-261 0 -465 13.5t-356.5 34t-258.5 42.5q15 -48 15 -99t-15 -105q106 22 258 42.5t356 34t466 13.5v24zM3167 1235
q-21 49 -41 119q-20 74 -34 172q-12 91 -13 207q5 -1 9 -2q94 -12 166 -32q-2 -95 -13 -173q-13 -98 -34 -171q-19 -71 -40 -120zM3054 1238q-3 -89 -13 -162q-13 -98 -34 -171q-19 -69 -39 -119q-21 104 -42 252q-20 152 -34 356q-10 158 -12 351q95 -1 175 -10
q-1 -116 -14 -209q-13 -98 -33.5 -171.5t-42.5 -124.5q43 7 89 8zM3367 1235q-21 49 -41 119q-20 74 -34 172q-10 75 -12 166q60 -18 104 -37q-6 37 -7 75q41 -6 77 -13q-1 -105 -13 -191q-13 -98 -34 -171q-19 -71 -40 -120zM3082 2685q3 0 6 -1q98 -13 171.5 -33.5
t124.5 -42.5q-8 48 -8 99t8 105q-51 -22 -124.5 -42.5t-171.5 -34.5q-4 0 -8 -1q-3 113 -3 239h-24q0 -128 -4 -242q-83 -9 -185 -9v-24q101 0 184 -9q-3 -95 -9 -181v-8q-80 -8 -175 -8v-24q94 0 172 -8q-7 -103 -17 -192q-71 -6 -155 -6v-24q81 0 151 -6q-4 -42 -10 -80
q-20 -153 -42 -259q48 16 99 16t105 -16q-22 106 -43 258q-4 34 -8 69q80 -12 143 -30q74 -20 125 -42q-8 48 -8 99t8 105q-51 -22 -124 -43q-66 -18 -151 -31q-8 82 -15 176q94 -13 165 -34q74 -20 125 -42q-8 48 -8 99t8 105q-51 -22 -124 -43q-73 -20 -170 -33v1
q-5 84 -8 178zM3361 5173q20 -49 40 -119q21 -74 34 -172q12 -91 13 -206q-4 0 -8 1q-95 12 -167 32q3 95 13 173q13 98 34 171q20 71 41 120zM3474 5171q2 88 12 161q13 98 34 171q20 70 40 119q21 -104 41 -252q21 -152 34 -356q10 -158 13 -350q-96 0 -175 9
q1 116 13 209q13 98 34 171.5t43 124.5q-44 -7 -89 -7zM3161 5173q20 -49 40 -119q21 -74 34 -172q10 -74 13 -165q-61 17 -104 36q5 -37 7 -75q-41 6 -78 13q2 106 13 191q13 98 34 171q20 71 41 120zM3446 3723q-3 0 -6 1q-98 13 -171.5 33.5t-124.5 42.5q7 -48 7 -99
t-7 -105q51 22 124 43t171 34q4 0 8 1q3 -113 3 -239h25q0 128 3 242q84 9 186 9v24q-101 0 -185 9q4 95 9 181q0 4 1 8q79 8 175 8v24q-94 0 -173 8q8 103 17 192q72 6 156 6v24q-82 0 -152 6q5 42 10 80q21 153 43 259q-49 -15 -99.5 -15t-104.5 15q21 -106 42 -258
q5 -33 9 -69q-81 12 -144 30q-73 20 -124 42q7 -48 7 -99t-7 -105q51 22 124 43q65 18 150 31q9 -82 15 -175q-94 13 -165 33q-73 20 -124 42q7 -48 7 -99t-7 -105q51 22 124 43q72 20 169 33v-1q6 -84 9 -178zM5233 3107q-50 -20 -120 -40q-73 -21 -171 -34
q-91 -13 -207 -13q1 4 1 8q13 95 33 166q95 -2 172 -12q98 -13 172 -34q70 -20 120 -41zM5230 2994q88 -2 161 -12q98 -13 172 -34q69 -20 119 -40q-105 -21 -252 -41q-153 -21 -356 -34q-158 -11 -351 -13q1 96 9 175q117 -1 209 -13q98 -13 172 -34t125 -43q-7 44 -8 89z
M5233 3307q-50 -20 -120 -40q-73 -21 -171 -34q-75 -10 -166 -13q18 61 37 104q-37 -5 -75 -7q5 41 12 78q106 -2 191 -13q98 -13 172 -34q70 -20 120 -41zM3783 3022v6q14 98 34.5 171.5t42.5 124.5q-48 -7 -99 -7t-105 7q22 -51 42.5 -124t33.5 -171q1 -4 1 -8
q-112 -4 -238 -4v-24q128 0 242 -3q9 -84 9 -186h24q0 101 9 185q95 -4 180 -9q5 -1 9 -1q8 -79 8 -175h24q0 94 8 172q103 -7 192 -16q6 -72 6 -156h24q0 82 6 152q41 -5 80 -10q153 -21 259 -43q-16 48 -16 99t16 105q-106 -22 -258 -42q-34 -5 -70 -9q13 81 30 144
q21 73 43 124q-48 -7 -99 -7t-105 7q22 -51 42 -124q19 -65 31 -150q-81 -9 -175 -16q13 94 33 166q21 73 43 124q-48 -7 -99 -7t-105 7q22 -51 42 -124q21 -72 34 -169h-1q-84 -6 -178 -9zM1294 3301q50 21 120 40q73 21 172 34q91 13 206 14q0 -5 -1 -9q-13 -94 -32 -166
q-95 2 -173 12q-98 14 -172 34q-70 20 -120 41zM1297 3414q-88 3 -161 12q-98 14 -172 34q-69 20 -118 40q104 21 252 41q152 21 356 34q158 11 350 13q0 -96 -9 -175q-117 1 -209 13q-98 14 -171.5 34.5t-124.5 42.5q7 -43 7 -89zM1294 3101q50 21 120 40q73 21 172 34
q74 10 165 13q-18 -60 -36 -104q37 6 75 7q-6 -41 -13 -78q-106 2 -191 13q-98 14 -172 34q-70 20 -120 41zM2745 3386q0 -3 -1 -6q-13 -98 -34 -171.5t-42 -124.5q48 7 99 7t105 -7q-22 51 -43 124t-34 172q0 4 -1 8q113 3 239 3v24q-128 0 -242 3q-9 84 -9 186h-25
q0 -101 -8 -184q-96 3 -181 8q-4 1 -9 1q-7 79 -7 175h-25q0 -94 -7 -172q-103 7 -192 16q-6 72 -6 156h-25q0 -82 -5 -152q-42 5 -80 10q-153 21 -259 43q15 -48 15 -99t-15 -105q106 22 258 42q33 5 69 9q-12 -81 -30 -144q-21 -73 -42 -124q48 7 99 7t105 -7
q-22 51 -43 124q-18 66 -31 151q82 8 175 15q-13 -94 -33 -166q-21 -73 -42 -124q48 7 99 7t105 -7q-22 51 -43 124q-20 73 -34 169h2q84 6 178 9z" />
</svg>
