<?xml version="1.0" standalone="no"?>
<!DOCTYPE svg PUBLIC "-//W3C//DTD SVG 1.1//EN" "http://www.w3.org/Graphics/SVG/1.1/DTD/svg11.dtd" >
<svg xmlns="http://www.w3.org/2000/svg" xmlns:xlink="http://www.w3.org/1999/xlink" version="1.1" viewBox="0 0 1401 800">
   <path fill="currentColor"
d="M1390 151q-193 0 -344 13.5t-264.5 34t-191.5 42.5q11 -48 11 -99t-11 -105q78 22 191 42.5t264 34t345 13.5v24zM330 620l-41 10q-154 37 -187 54q-28 14 -38 0q-4 -6 -4 -8q0 -7 16 -26q16 -18 25 -62q1 -3 3 -10t2.5 -10t1 -10t-0.5 -16t-2 -22q-1 -11 -2.5 -35.5
l-1.5 -24.5q3 0 20 13q41 31 95 56q23 10 41 16t44 12t46 11q27 1 73 2q-3 -60 -8 -114q-13 -151 -33.5 -264.5t-42.5 -191.5q48 11 99 11t105 -11q-22 78 -43 191t-34 264q-5 55 -8 115q96 2 186 3q-13 -96 -34 -169q-20 -73 -42 -124q48 7 99 7t105 -7q-22 51 -43 124
q-20 73 -34 170q95 1 179 2q-13 -98 -33.5 -171.5t-42.5 -124.5q48 7 99 7t105 -7q-22 51 -43 124t-34 172v1q102 2 180 3q0 -2 -1 -4q-13 -98 -33.5 -171.5t-42.5 -124.5q48 7 99 7t105 -7q-22 51 -43 124t-34 172v5q228 4 230 4q9 4 9 11q-1 9 -16 16q-4 2 -228 4
q-8 83 -8 184h-25q0 -101 -8 -184q-82 1 -189 1q-8 83 -8 183h-25q0 -100 -8 -182h-189q-8 82 -8 182h-25q0 -99 -8 -181h-193q-3 86 -3 181h-25q0 -95 -3 -180h-92z" />
</svg>
