<?xml version="1.0" standalone="no"?>
<!DOCTYPE svg PUBLIC "-//W3C//DTD SVG 1.1//EN" "http://www.w3.org/Graphics/SVG/1.1/DTD/svg11.dtd" >
<svg xmlns="http://www.w3.org/2000/svg" xmlns:xlink="http://www.w3.org/1999/xlink" version="1.1" viewBox="0 0 1758 975">
   <path fill="currentColor"
d="M1354 288zM1354 250zM1524 731q-126 0 -224 13.5t-171.5 34t-124.5 42.5q7 -48 7 -99q0 -26 -2 -53q-2 1 -5 2q2 -13 3 -26q-1 -14 -3 -28l6 2q1 -23 1 -47q0 -26 -2 -53q-2 1 -5 2q2 -13 3 -26q-1 -14 -3 -28l6 2q1 -23 1 -47q0 -27 -2 -55l-10 4q4 -24 6 -49
q-1 -3 -1 -5h1q1 -22 1 -45q0 -51 -7 -105q51 22 124.5 42.5t171.5 33.5q16 3 33 5q29 -30 58 -61q37 -40 78.5 -86t93.5 -101l12 9q-49 78 -84 144t-58 110q19 38 55 105q10 19 22 39h19v24h-2.5h-2.5q23 41 51 87l-12 8q-49 -51 -88 -94q-93 2 -170 12q-98 14 -172 34
q-27 8 -51 16q24 8 51 15q73 21 171.5 34.5t224.5 13.5v24q-126 0 -224 13.5t-172 33.5q-27 8 -51 16q24 8 51 15q73 21 171.5 34.5t224.5 13.5v24zM585 671q-126 0 -224 13.5t-172 33.5q-44 13 -81 26q37 13 81 25q73 21 172 34q75 11 168 13q-3 -22 -10 -45q106 22 258 42
q50 7 106 13q-1 -167 -13 -300q-13 -151 -33.5 -264.5t-42.5 -191.5q48 11 99 11t105 -11q-22 78 -43 191t-34 264q-12 135 -13 304q103 11 225 18q204 14 466 14v24q-261 0 -465 13.5t-356.5 34t-258.5 42.5q15 -48 15 -99q0 -17 -1 -34q-95 2 -172 12q-98 14 -171.5 34.5
t-124.5 42.5q7 -48 7 -99q0 -36 -3 -73l-4 2l2 -16l-2 -18l4 2q3 -33 3 -67q0 -36 -3 -73l-4 2l2 -16l-2 -18l4 2q3 -33 3 -67q0 -36 -3 -73l-4 2l2 -16l-2 -18l4 2q3 -33 3 -67q0 -51 -7 -105q51 22 124 42.5t172 33.5q83 12 186 13q33 -33 66 -69q37 -40 78.5 -86
t93.5 -101l12 9q-49 78 -84 144t-58 110q19 38 55 105t87 150l-12 8q-90 -96 -148 -162q-44 -50 -78 -83q-110 2 -198 13q-98 14 -172 34q-44 13 -81 26q37 13 81 25q73 21 171.5 34.5t224.5 13.5v24q-126 0 -224 13.5t-172 33.5q-44 13 -81 26q37 13 81 25
q73 21 171.5 34.5t224.5 13.5v24zM1633 870q0 -193 -13 -344t-33.5 -264.5t-42.5 -191.5q48 11 99 11t105 -11q-22 78 -43 191t-34 264t-13 345h-25zM1340 289q-23 2 -45 5q-98 14 -171 34q-26 8 -50 15q26 8 54 16q73 21 172 34q66 9 146 12q-19 -21 -36 -41
q-39 -44 -70 -75z" />
</svg>
