<?xml version="1.0" standalone="no"?>
<!DOCTYPE svg PUBLIC "-//W3C//DTD SVG 1.1//EN" "http://www.w3.org/Graphics/SVG/1.1/DTD/svg11.dtd" >
<svg xmlns="http://www.w3.org/2000/svg" xmlns:xlink="http://www.w3.org/1999/xlink" version="1.1" viewBox="0 0 1580 910">
   <path fill="currentColor"
d="M985 541zM985 503zM682 910zM709 883zM1206 336zM1233 309zM1274 898q0 -193 -13 -344v-4q-109 13 -193 31q-93 21 -158 43q7 -37 9 -76q-94 13 -164 33q-74 21 -125 43q7 -48 7 -99t-7 -105q51 22 124 42q71 20 165 33q-2 -37 -9 -75q65 22 158 42q81 19 187 31
q-10 -100 -24 -182l-25 25q-24 -20 -46 -37q-79 -60 -145.5 -97.5t-118.5 -57.5q39 -29 75 -65t69 -79q21 51 58 117.5t97 145.5q17 21 35 43q-1 -8 -3 -16q-20 -114 -42 -192q48 11 99 11t105 -11q-22 78 -43 191q-17 92 -29 211q113 10 253 10v24q-143 0 -257 11q0 4 -1 8
q-13 151 -13 345h-25zM682 910q-24 -20 -46 -37q-79 -60 -145.5 -97.5t-118.5 -57.5q5 -4 11 -8q-11 1 -21 2q-98 14 -171.5 34.5t-124.5 42.5q7 -48 7 -99q0 -50 -7 -102l-1 1q7 -48 7 -99t-7 -105l1 1q7 -47 7 -96q0 -51 -7 -105q51 22 124 42.5t172 33.5q76 11 169 13
l-4 -18q-20 -93 -42 -158q48 9 99 9t105 -9q-22 65 -43 158t-34 217q-12 115 -13 260q31 49 72 104q18 23 38 46zM70 387q49 21 119 40q73 21 172 34q88 12 200 14v-1q-10 -97 -25 -174q-96 2 -174 12q-98 14 -172 34q-70 20 -120 41zM70 587q50 21 120 40q73 21 172 34
q33 5 69 8l16 -16q36 -36 69 -79q18 44 49 101h8q-2 -95 -9 -176q-113 1 -203 13q-98 14 -172 34q-70 20 -119 41z" />
</svg>
