<?xml version="1.0" standalone="no"?>
<!DOCTYPE svg PUBLIC "-//W3C//DTD SVG 1.1//EN" "http://www.w3.org/Graphics/SVG/1.1/DTD/svg11.dtd" >
<svg xmlns="http://www.w3.org/2000/svg" xmlns:xlink="http://www.w3.org/1999/xlink" version="1.1" viewBox="0 0 1227 910">
   <path fill="currentColor"
d="M511 910zM538 883zM415 542zM415 504zM855 336zM882 309zM909 898q0 -193 -13 -344q-1 -8 -1 -17q-61 3 -114 10q-98 14 -171.5 34.5t-124.5 42.5q7 -48 7 -99t-7 -105q51 22 124 42.5t172 33.5q51 7 111 11q-10 -101 -24 -184l-13 13q-24 -20 -46 -37
q-79 -60 -146 -97.5t-118 -57.5q39 -29 75 -65t69 -79q21 51 58 117.5t97 145.5q8 10 17 21q-20 -109 -41 -186q48 11 99 11t105 -11q-22 78 -43 191q-18 96 -30 220h16q33 -33 66 -69q37 -40 78.5 -86t93.5 -101l12 9q-49 78 -84 144t-58 110q19 38 55 105t87 149l-12 10
q-90 -97 -148 -162q-44 -51 -78 -84q-15 0 -30 1l-2 18q-13 151 -13 345h-25zM511 910q-24 -20 -46 -37q-79 -60 -146 -97.5t-118 -57.5q39 -29 75 -65t69 -79q21 51 58 117q-2 -78 -7 -147l-40 4q-98 14 -171.5 34.5t-124.5 42.5q7 -48 7 -99t-7 -105q51 22 124 42.5
t172 33.5q18 3 37 5q-1 -14 -3 -28q-13 -125 -34 -218t-42 -158q48 9 99 9t105 -9q-22 65 -43 158t-34 217q-12 115 -13 260q31 49 72 104q18 23 38 46z" />
</svg>
