<?xml version="1.0" standalone="no"?>
<!DOCTYPE svg PUBLIC "-//W3C//DTD SVG 1.1//EN" "http://www.w3.org/Graphics/SVG/1.1/DTD/svg11.dtd" >
<svg xmlns="http://www.w3.org/2000/svg" xmlns:xlink="http://www.w3.org/1999/xlink" version="1.1" viewBox="0 0 1173 811">
   <path fill="currentColor"
d="M582 355zM620 355zM812 355zM850 355zM1042 355zM1080 355zM720 491q-160 0 -284.5 13.5t-217.5 34t-158 42.5q9 -48 9 -99t-9 -105q65 22 158 42.5t217 33.5q122 13 278 14q-1 -2 -2 -3q-45 -63 -92 -106q104 6 214.5 6t226.5 -6q-47 43 -92 105.5t-73.5 146
t-28.5 190.5h-53q0 -41 -4 -79q-163 2 -293 13q-151 14 -264.5 34.5t-191.5 42.5q11 -48 11 -99t-11 -105q78 22 191 42.5t264 33.5q129 12 291 13q-7 -46 -21 -86q-26 -75 -65 -134v15zM582 355q-2 -31 -6 -59q-3 -18 -5 -35q-117 1 -210 13q-98 14 -171.5 34.5
t-124.5 42.5q7 -48 7 -99t-7 -105q51 22 124 42.5t172 33.5q90 13 206 14q-11 -62 -25 -113q-21 -73 -43 -124q48 7 99 7t105 -7q-22 51 -42.5 124t-33.5 172q-4 28 -7 59h-38zM812 355q-2 -31 -6 -59q-14 -98 -34.5 -171.5t-42.5 -124.5q48 7 99 7t105 -7q-22 51 -42.5 124
t-33.5 172q-4 28 -7 59h-38zM1042 355q-2 -31 -6 -59q-14 -98 -34.5 -171.5t-42.5 -124.5q48 7 99 7t105 -7q-22 51 -42.5 124t-33.5 172q-4 28 -7 59h-38z" />
</svg>
