<?xml version="1.0" standalone="no"?>
<!DOCTYPE svg PUBLIC "-//W3C//DTD SVG 1.1//EN" "http://www.w3.org/Graphics/SVG/1.1/DTD/svg11.dtd" >
<svg xmlns="http://www.w3.org/2000/svg" xmlns:xlink="http://www.w3.org/1999/xlink" version="1.1" viewBox="0 0 1266 800">
   <path fill="currentColor"
d="M1135 355zM1173 355zM1180 287q37 -2 76 -7q-22 51 -43 124t-34 171.5t-13 224.5h-25q0 -104 -9 -189q-124 0 -234 3q-9 84 -9 186h-25q0 -101 -8 -184q-96 3 -181 8q-4 1 -9 1q-7 79 -7 175h-25q0 -94 -7 -172q-103 7 -192 16q-6 72 -6 156h-25q0 -82 -5 -152
q-42 5 -80 10q-153 21 -259 43q15 -48 15 -99t-15 -105q106 22 258 42q33 5 69 9q-12 -81 -30 -144q-21 -73 -42 -124q48 7 99 7t105 -7q-22 51 -43 124q-18 66 -31 151q82 8 175 15q-13 -94 -33 -166q-21 -73 -42 -124q48 7 99 7t105 -7q-22 51 -43 124q-20 73 -34 169h2
q84 6 178 9q0 -3 -1 -6q-13 -98 -34 -171.5t-42 -124.5q48 7 99 7t105 -7q-22 51 -43 124t-34 172q0 4 -1 8q108 3 229 3q-1 -6 -2 -11q-13 -98 -34 -171.5t-42 -124.5q37 6 75 7q-11 -75 -26 -136q-237 1 -426 13q-204 14 -356.5 34.5t-258.5 42.5q15 -48 15 -99t-15 -105
q106 22 258 42.5t356 33.5q186 12 421 14q0 -1 -1 -3q-21 -73 -42 -124q48 7 99 7t105 -7q-22 51 -43 124q-20 70 -33 163z" />
</svg>
