<?xml version="1.0" standalone="no"?>
<!DOCTYPE svg PUBLIC "-//W3C//DTD SVG 1.1//EN" "http://www.w3.org/Graphics/SVG/1.1/DTD/svg11.dtd" >
<svg xmlns="http://www.w3.org/2000/svg" xmlns:xlink="http://www.w3.org/1999/xlink" version="1.1" viewBox="-5 0 1778 910">
   <path fill="currentColor"
d="M1209 541zM1209 503zM315 910zM341 883zM659 336zM685 309zM315 910q-24 -20 -47 -37q-78 -60 -145 -97.5t-118 -57.5q39 -29 75 -65t69 -79q21 51 58 117q-3 -119 -13 -217q-13 -125 -34 -218t-42 -158q48 9 99 9t104 -9q-21 65 -42 158t-34 217q-12 115 -13 260
q30 49 72 104q18 23 37 46q-11 12 -26 27zM659 336q-24 -20 -47 -37q-78 -60 -145 -97.5t-118 -57.5q39 -29 75 -65t69 -79q21 51 58 117.5t97 145.5q18 23 37 46q-11 12 -26 27zM1632 509q-11 -114 -27 -205q-164 2 -296 13q-150 14 -263.5 34.5t-191.5 42.5q11 -48 11 -99
t-11 -105q78 22 191 42.5t264 33.5q129 12 291 13q-20 -106 -40 -181q48 11 99 11t104 -11q-21 78 -42 191t-34 264t-13 345h-25q0 -70 -2 -134q-189 0 -338 13q-150 14 -263.5 34.5t-191.5 42.5q11 -48 11 -99t-11 -105q78 22 191 42.5t264 33.5q148 13 338 14
q-3 -100 -11 -186l-2 -20q-111 1 -199 13q-98 14 -171.5 34.5t-124.5 42.5q5 -37 7 -76q-96 13 -168 33q-73 21 -124 43q6 -44 7 -89q-119 2 -217 12q-125 14 -218.5 34.5t-157.5 42.5q9 -48 9 -99t-9 -105q64 22 157 42.5t218 33.5q98 11 218 13q-1 -43 -7 -89
q51 22 124 42q72 21 168 34q-2 -37 -7 -76q51 22 124 42.5t171 33.5q88 12 198 13z" />
</svg>
