<?xml version="1.0" standalone="no"?>
<!DOCTYPE svg PUBLIC "-//W3C//DTD SVG 1.1//EN" "http://www.w3.org/Graphics/SVG/1.1/DTD/svg11.dtd" >
<svg xmlns="http://www.w3.org/2000/svg" xmlns:xlink="http://www.w3.org/1999/xlink" version="1.1" viewBox="0 0 1564 813">
   <path fill="currentColor"
d="M925 662zM951 635zM1087 500zM1114 473zM1250 337zM1277 310zM581 581zM581 543zM925 662q-24 -19 -47 -37q-78 -60 -145 -97.5t-118 -57.5q39 -29 75 -65t69 -79q21 51 58 117.5t97 145.5q17 23 37 46q-11 12 -26 27zM1087 500q-23 -20 -46 -37q-79 -60 -145.5 -97.5
t-117.5 -58.5q39 -29 75 -65t69 -79q20 51 57.5 117.5t97.5 145.5q17 23 37 47zM1250 337q-24 -20 -46 -37q-79 -60 -145.5 -97.5t-118.5 -57.5q39 -29 75 -65t69 -80q21 52 58 118.5t97 144.5q18 23 38 47zM1403 813q-76 -75 -155 -114t-155 -51.5t-140 -9.5
q78 -69 156 -147t156 -165q-3 64 9.5 140t50.5 155q39 79 114 154q-1 -176 -13 -316q-13 -151 -33.5 -264.5t-42.5 -191.5q48 11 99 11t105 -11q-22 78 -43 191t-34 264t-13 345h-25v-26zM545 345q-102 1 -184 12q-98 14 -171.5 34.5t-124.5 42.5q7 -48 7 -99t-7 -105
q51 22 124 42.5t172 33.5q80 11 180 13q-8 -67 -19 -124q-20 -114 -42 -192q48 11 99 11t105 -11q-22 78 -43 191t-34 264t-13 345h-25q0 -118 -5 -221q-21 3 -42 5q-98 14 -171.5 34.5t-124.5 42.5q7 -48 7 -99t-7 -105q51 22 124.5 42.5t171.5 33.5q19 3 40 5
q-2 -43 -6 -82q-5 -60 -11 -114z" />
</svg>
