<?xml version="1.0" standalone="no"?>
<!DOCTYPE svg PUBLIC "-//W3C//DTD SVG 1.1//EN" "http://www.w3.org/Graphics/SVG/1.1/DTD/svg11.dtd" >
<svg xmlns="http://www.w3.org/2000/svg" xmlns:xlink="http://www.w3.org/1999/xlink" version="1.1" viewBox="0 0 1338 899">
   <path fill="currentColor"
d="M1213 800q0 -193 -13 -344t-34 -264.5t-42 -191.5q48 11 99 11t105 -11q-22 78 -43 191t-34 264t-13 345h-25zM1139 809q-261 0 -465 13.5t-356.5 34t-258.5 42.5q15 -48 15 -99t-15 -105q97 20 234 39q-2 -154 -13 -278q-13 -151 -34 -264.5t-42 -191.5q48 11 99 11
t105 -11q-22 78 -43 191t-34 264q-11 126 -13 283q152 20 355 33q141 10 310 12q0 -96 -4 -182q-116 1 -209 13q-98 14 -171.5 34.5t-124.5 42.5q7 -48 7 -99q0 -50 -7 -101v-2v-2v0q7 -46 7 -95.5t-7 -100.5v-2v-2v0q7 -46 7 -95q0 -51 -7 -105q51 22 124 42.5t172 33.5
q73 10 163 13q-19 -103 -39 -176q48 11 99 11t105 -11q-22 78 -43 191t-34 264q-13 144 -13 329q64 1 131 1v24zM938 202q-92 2 -168 12q-98 14 -172 34q-70 20 -120 41q50 21 120 40q73 21 172 34q85 12 192 13q-10 -96 -24 -174zM965 401q-108 2 -195 13q-98 14 -172 34
q-70 20 -120 41q50 21 120 40q73 21 172 34q92 13 208 14q-3 -64 -8 -121q-2 -28 -5 -55z" />
</svg>
