<?xml version="1.0" standalone="no"?>
<!DOCTYPE svg PUBLIC "-//W3C//DTD SVG 1.1//EN" "http://www.w3.org/Graphics/SVG/1.1/DTD/svg11.dtd" >
<svg xmlns="http://www.w3.org/2000/svg" xmlns:xlink="http://www.w3.org/1999/xlink" version="1.1" viewBox="0 0 1430 910">
   <path fill="currentColor"
d="M853 711zM869 695zM950 614zM966 598zM1048 516zM1064 500zM832 495zM848 479zM511 910zM538 883zM855 336zM882 309zM415 542zM415 504zM1420 249q-126 0 -224 13.5t-172 33.5q-40 12 -73 23q12 29 32 66q23 40 59 87q10 14 22 28l-16 16q-14 -12 -28 -22
q-47 -36 -87 -58.5t-71 -34.5q24 -17 45 -39q19 -18 36 -40q-23 8 -43 17q7 -48 7 -99t-7 -105q51 22 124 42.5t171.5 34t224.5 13.5v24zM1419 800q-193 0 -344 13.5t-264.5 34t-191.5 42.5q11 -48 11 -99t-11 -105q78 22 191 42.5t264 34t345 13.5v24zM853 711l-28 -22
q-47 -36 -87 -58.5t-71 -34.5q24 -17 45.5 -39t40.5 -47q13 30 35 70t58 87q11 14 23 28zM950 614q-14 -12 -27 -22q-48 -36 -88 -58.5t-70 -35.5q18 -13 34 -29q-44 -33 -82 -55q-40 -22 -71 -34q23 -18 45 -39.5t41 -47.5q13 31 35 71q21 38 55 83q15 -17 29 -35
q12 31 34.5 71t58.5 87q10 13 22 28zM511 910q-24 -20 -46 -37q-79 -60 -146 -97.5t-118 -57.5q39 -29 75 -65t69 -79q21 51 58 117q-2 -78 -7 -147l-40 4q-98 14 -171.5 34.5t-124.5 42.5q7 -48 7 -99t-7 -105q51 22 124 42.5t172 33.5q18 3 37 5q-1 -14 -3 -28
q-13 -125 -34 -218t-42 -158q48 9 99 9t105 -9q-22 65 -43 158t-34 217q-12 115 -13 260q31 49 72 104q18 23 38 46zM855 336q-24 -20 -46 -37q-79 -60 -146 -97.5t-118 -57.5q39 -29 75 -65t69 -79q21 51 58 117.5t97 145.5q18 23 38 46z" />
</svg>
