<?xml version="1.0" standalone="no"?>
<!DOCTYPE svg PUBLIC "-//W3C//DTD SVG 1.1//EN" "http://www.w3.org/Graphics/SVG/1.1/DTD/svg11.dtd" >
<svg xmlns="http://www.w3.org/2000/svg" xmlns:xlink="http://www.w3.org/1999/xlink" version="1.1" viewBox="0 0 1150 906">
   <path fill="currentColor"
d="M1140 816q-261 0 -465 13.5t-356.5 34t-258.5 42.5q15 -48 15 -99t-15 -105q106 22 258 42q79 11 173 20q-117 -125 -192 -210q-76 -87 -129 -135q49 -49 97.5 -102t104 -114.5t124.5 -134.5l17 12q-66 104 -112.5 192t-77.5 147q26 50 74 139.5t116 199.5l-10 7
q48 5 100 9q-1 -178 -13 -318q-13 -151 -34 -264.5t-42 -191.5q48 11 99 11t105 -11q-22 78 -43 191t-34 264q-12 141 -13 320q23 2 46 3q204 14 466 14v24zM986 770q-120 -129 -196.5 -216t-129.5 -135q49 -49 97.5 -102t104 -114.5t124.5 -134.5l17 12q-66 104 -112.5 192
t-77.5 147q26 50 74 139.5t116 199.5z" />
</svg>
