<?xml version="1.0" standalone="no"?>
<!DOCTYPE svg PUBLIC "-//W3C//DTD SVG 1.1//EN" "http://www.w3.org/Graphics/SVG/1.1/DTD/svg11.dtd" >
<svg xmlns="http://www.w3.org/2000/svg" xmlns:xlink="http://www.w3.org/1999/xlink" version="1.1" viewBox="0 0 1149 881">
   <path fill="currentColor"
d="M415 798zM415 760zM1018 375zM1056 375zM415 458zM415 420zM1024 820q0 -126 -13 -224t-34 -171.5t-42 -124.5q37 6 75 7q-13 -92 -33 -163q-21 -73 -42 -124q48 7 99 7t105 -7q-22 51 -43 124q-20 70 -33 163q37 -2 76 -7q-22 51 -43 124t-34 171.5t-13 224.5h-25z
M687 596q33 -33 66 -69q32 -35 69 -75q-100 1 -181 12q-98 14 -171.5 34.5t-124.5 42.5q6 -37 7 -76q-96 13 -168 33q-41 12 -75 24q49 14 109 27q93 21 217 34q112 12 252 13zM699 621q-147 1 -263 13q-125 13 -218 34q-61 13 -110 27q34 13 76 24q72 21 168 34
q-2 -37 -7 -76q51 22 124 42.5t172 33.5q85 12 191 13q-30 -33 -55 -62q-45 -50 -78 -83zM65 679q4 -33 4 -68t-4 -72q-3 1 -5 2q1 -9 3 -19q-2 -8 -3 -15q2 0 4 1q3 -33 3 -66q0 -36 -3 -73q-2 1 -4 1q1 -6 2 -13l-2 -20q3 1 5 2q4 -33 4 -68q0 -51 -9 -104q65 21 158 42
t217 34q112 12 252 13q33 -33 66 -69q37 -40 78.5 -86t93.5 -101l12 9q-49 78 -84 144t-58 110q19 38 55 105q9 16 18 33q27 -29 57 -61l12 9q-27 44 -50 84q23 40 50 85l-12 8q-30 -32 -57 -61q-8 14 -15 28q-35 66 -58 110q19 38 55 105t87 150l-12 8q-38 -40 -70 -75
q-120 1 -214 13q-98 14 -171.5 34.5t-124.5 42.5q6 -37 7 -76q-96 13 -168 33q-73 21 -124 43q7 -48 7 -99q0 -36 -3 -73q-2 1 -4 1q1 -6 2 -13l-2 -20q3 1 5 2zM699 281q-147 1 -263 13q-125 13 -218 34q-61 13 -110 27q34 13 76 24q72 21 168 34q-2 -37 -7 -76
q51 22 124 42.5t172 33.5q85 12 191 13q-30 -33 -55 -62q-45 -50 -78 -83z" />
</svg>
