<?xml version="1.0" standalone="no"?>
<!DOCTYPE svg PUBLIC "-//W3C//DTD SVG 1.1//EN" "http://www.w3.org/Graphics/SVG/1.1/DTD/svg11.dtd" >
<svg xmlns="http://www.w3.org/2000/svg" xmlns:xlink="http://www.w3.org/1999/xlink" version="1.1" viewBox="0 0 1569 920">
   <path fill="currentColor"
d="M785 527q-90 -97 -148 -162q-44 -50 -78 -83q-110 1 -198 13q-98 13 -171.5 34t-124.5 42q7 -48 7 -99t-7 -104q51 21 124 42t172 34q82 11 186 13q33 -34 66 -70q37 -39 78.5 -85.5t93.5 -101.5l12 9q-49 79 -84 144.5t-58 110.5q19 37 55 104q34 63 81 140q8 -47 8 -95
q0 -50 -8 -101h-1v-2v-2h1q8 -46 8 -95q0 -51 -9 -105q65 22 158 42.5t217 33.5q103 11 229 13q-19 -103 -39 -176q48 11 99 11t105 -11q-22 78 -43 191t-34 264t-13 345h-9v9q-193 0 -344 13.5t-264.5 34t-191.5 42.5q11 -48 11 -99q0 -39 -6 -79q-126 2 -229 13
q-125 13 -218 34t-158 42q9 -48 9 -99t-9 -104q65 21 158 42t217 34q101 11 225 13v-1q1 0 2 1h58v14q58 14 131 27q113 21 264 34q145 13 329 14q0 -98 -4 -184q-153 1 -274 13q-125 14 -218 34.5t-158 42.5q9 -48 9 -99q0 -45 -7 -91zM796 510q63 21 152 40q93 21 217 34
q121 13 274 14q-3 -64 -8 -121q-2 -28 -5 -55q-145 1 -260 13q-125 14 -218 34q-89 20 -152 41zM796 310q63 21 152 40q93 21 217 34q114 13 258 14q-10 -97 -24 -175q-129 1 -233 12q-125 14 -218 34q-89 20 -152 41z" />
</svg>
