<?xml version="1.0" standalone="no"?>
<!DOCTYPE svg PUBLIC "-//W3C//DTD SVG 1.1//EN" "http://www.w3.org/Graphics/SVG/1.1/DTD/svg11.dtd" >
<svg xmlns="http://www.w3.org/2000/svg" xmlns:xlink="http://www.w3.org/1999/xlink" version="1.1" viewBox="0 0 1599 743">
   <path fill="currentColor"
d="M699 150zM699 112zM699 320zM699 282zM699 490zM699 452zM1589 381q-107 0 -190.5 28.5t-146 73t-105.5 91.5q6 -104 6 -214q0 -106 -6 -217q-124 0 -222 13q-98 14 -171 34q-45 13 -81 26q36 13 80 25q74 21 172 34.5t224 13.5v24q-126 0 -224 13.5t-171 33.5
q-45 13 -81 26q36 13 80 25q74 21 172 34.5t224 13.5v24q-126 0 -224 13.5t-171.5 34t-124.5 42.5q6 -37 7 -76q-95 13 -167 33q-56 16 -99 32q44 10 95 19q113 21 264 34.5t345 13.5v24q-193 0 -344 13.5t-264.5 34t-191.5 42.5q11 -48 11 -99q0 -27 -3 -54
q-53 -58 -93 -104q-77 -87 -130 -135q49 -49 97.5 -102t104.5 -114q39 -44 85 -93q-1 -6 -2 -13l10 4q15 -16 31 -33l17 12l-20 32q38 14 86 27q72 21 168 34q-2 -37 -7 -76q51 22 124.5 42.5t171.5 34t224 13.5v17q43 46 103 90q63 44 146.5 73t190.5 29v53zM636 157
q-95 13 -167 33q-45 13 -81 26q36 13 80 25q72 21 168 34q-1 -22 -3 -44l-4 2l2 -16l-2 -18l4 2q2 -22 3 -44zM348 201q4 -33 4 -67q0 -19 -1 -38q-34 57 -61 108q-47 88 -77 147q25 50 73 139q16 29 34 61l26 6q6 -41 6 -83q0 -36 -4 -73l-4 2l2 -16l-2 -18l4 2
q4 -33 4 -67q0 -36 -4 -73l-4 2l2 -16l-2 -18zM636 327q-95 13 -167 33q-45 13 -81 26q36 13 80 25q72 21 168 34q-1 -22 -3 -44l-4 2l2 -16l-2 -18l4 2q2 -22 3 -44z" />
</svg>
