<?xml version="1.0" standalone="no"?>
<!DOCTYPE svg PUBLIC "-//W3C//DTD SVG 1.1//EN" "http://www.w3.org/Graphics/SVG/1.1/DTD/svg11.dtd" >
<svg xmlns="http://www.w3.org/2000/svg" xmlns:xlink="http://www.w3.org/1999/xlink" version="1.1" viewBox="0 0 1790 889">
   <path fill="currentColor"
d="M66 489v-2h1q6 -46 6 -95.5t-7 -100.5v-2v-2h1q6 -46 6 -95q0 -51 -7 -105q51 22 124 42.5t172 33.5q73 10 163 13q-19 -103 -39 -176q48 11 99 11t105 -11q-22 78 -43 191t-34 264q-12 134 -13 302q20 4 38 9q67 1 167 3q-1 -175 -13 -313q-13 -151 -33.5 -264.5
t-42.5 -191.5q48 11 99 11t105 -11q-22 78 -43 191t-34 264q-12 139 -13 314q109 2 205 3q-1 -176 -13 -316q-13 -151 -33.5 -264.5t-42.5 -191.5q48 11 99 11t105 -11q-22 78 -43 191t-34 264q-12 140 -13 318q544 8 605 10q0 -96 -4 -182q-116 1 -209 13
q-98 14 -171.5 34.5t-124.5 42.5q7 -48 7 -99q0 -50 -7 -101v-2v-2h1q6 -46 6 -95.5t-7 -100.5v-2v-2h1q6 -46 6 -95q0 -51 -7 -105q51 22 124 42.5t172 33.5q73 10 163 13q-19 -103 -39 -176q48 11 99 11t105 -11q-22 78 -43 191t-34 264t-13 345h-10q-4 6 -13.5 10
t-1045.5 8l-41 10q-154 37 -187 54q-28 14 -38 0q-4 -6 -4 -8q0 -7 16 -26q16 -18 25 -62q1 -3 2.5 -10t2 -10t1.5 -10t0 -16t-2 -22q-1 -11 -2.5 -35.5l-1.5 -24.5q3 0 20 13q41 31 95 56q32 15 68 24q-1 -79 -4 -150q-116 1 -209 13q-98 14 -171.5 34.5t-124.5 42.5
q7 -48 7 -99q0 -50 -7 -101v-2zM70 489q50 21 120 40q73 21 172 34q92 13 208 14q-3 -64 -8 -121q-2 -28 -5 -55q-108 2 -195 13q-98 14 -172 34q-70 20 -120 41zM70 289q50 21 120 40q73 21 172 34q85 12 192 13q-10 -96 -24 -174q-92 2 -168 12q-98 14 -172 34
q-70 20 -120 41zM1620 202q-92 2 -168 12q-98 14 -172 34q-70 20 -120 41q50 21 120 40q73 21 172 34q85 12 192 13q-10 -96 -24 -174zM1647 401q-108 2 -195 13q-98 14 -172 34q-70 20 -120 41q50 21 120 40q73 21 172 34q92 13 208 14q-3 -64 -8 -121q-2 -28 -5 -55z" />
</svg>
