<?xml version="1.0" standalone="no"?>
<!DOCTYPE svg PUBLIC "-//W3C//DTD SVG 1.1//EN" "http://www.w3.org/Graphics/SVG/1.1/DTD/svg11.dtd" >
<svg xmlns="http://www.w3.org/2000/svg" xmlns:xlink="http://www.w3.org/1999/xlink" version="1.1" viewBox="0 0 1790 987">
   <path fill="currentColor"
d="M1596 336zM1623 309zM1596 336q-24 -20 -46 -37q-79 -60 -145.5 -97.5t-118.5 -57.5q39 -29 75 -65t69 -79q21 51 58 117.5t97 145.5q17 22 37 45l-4 -18q-20 -114 -42 -192q48 11 99 11t105 -11q-22 78 -43 191t-34 264t-13 345h-10q-4 6 -14 10q-4 2 -265 4t-521 3
l-259 1l-41 10q-154 37 -187 54q-28 14 -38 0q-4 -6 -4 -8q0 -7 16 -26q16 -18 25 -62q1 -3 2.5 -10t2 -10t1.5 -10t0 -16t-2 -22q-1 -11 -2.5 -35.5l-1.5 -24.5q3 0 20 13q41 31 95 56q32 15 68 24q-1 -79 -4 -150q-116 1 -209 13q-98 14 -171.5 34.5t-124.5 42.5
q7 -48 7 -99q0 -50 -7 -101v-2v-2h1q6 -46 6 -95.5t-7 -100.5v-2v-2h1q6 -46 6 -95q0 -51 -7 -105q51 22 124 42.5t172 33.5q73 10 163 13q-19 -103 -39 -176q48 11 99 11t105 -11q-22 78 -43 191t-34 264q-12 134 -13 302q20 4 38 9q67 1 167 3q-1 -175 -13 -313
q-13 -151 -33.5 -264.5t-42.5 -191.5q48 11 99 11t105 -11q-22 78 -43 191t-34 264q-12 139 -13 314q109 2 205 3q-1 -176 -13 -316q-13 -151 -33.5 -264.5t-42.5 -191.5q48 11 99 11t105 -11q-22 78 -43 191t-34 264q-12 140 -13 318q544 8 605 10q0 -58 -1 -112
q-118 1 -212 13q-98 14 -171.5 34.5t-124.5 42.5q7 -48 7 -99q0 -50 -7 -101v-2v-2h1q6 -46 6 -95q0 -51 -7 -105q51 22 124 42.5t172 33.5q9 2 18 3q-65 -48 -121 -80q-67 -37 -118 -58q39 -28 75 -64t69 -80q21 52 58 118.5t97 144.5l20 26q48 3 101 4q-11 -132 -29 -235z
M1662 700q-73 -72 -138 -125q-38 3 -72 7q-98 14 -172 34q-70 20 -120 41q50 21 120 40q73 21 172 34q93 13 211 14q-1 -23 -1 -45zM1660 664q-3 -49 -6 -95q-41 1 -79 2q38 45 85 93zM530 300q-92 2 -168 12q-98 14 -172 34q-70 20 -120 41q50 21 120 40q73 21 172 34
q85 12 192 13q-10 -96 -24 -174zM557 499q-108 2 -195 13q-98 14 -172 34q-70 20 -120 41q50 21 120 40q73 21 172 34q92 13 208 14q-3 -64 -8 -121q-2 -28 -5 -55z" />
</svg>
