<?xml version="1.0" standalone="no"?>
<!DOCTYPE svg PUBLIC "-//W3C//DTD SVG 1.1//EN" "http://www.w3.org/Graphics/SVG/1.1/DTD/svg11.dtd" >
<svg xmlns="http://www.w3.org/2000/svg" xmlns:xlink="http://www.w3.org/1999/xlink" version="1.1" viewBox="0 0 1601 803">
   <path fill="currentColor"
d="M1470 358zM1508 358zM1358 336zM1385 309zM1318 636zM1345 609zM800 758zM827 731zM963 595zM990 568zM1126 432zM1152 406zM765 397zM792 370zM1476 803q0 -126 -13 -224t-33.5 -171.5t-42.5 -124.5q37 6 75 7q-13 -92 -33 -163q-20 -73 -42 -124q48 7 99 7t105 -7
q-22 51 -43 124q-20 70 -33 163q37 -2 76 -7q-22 51 -43 124t-34 171.5t-13 224.5h-25zM1358 336q-24 -20 -46 -37q-79 -60 -145.5 -97.5t-118.5 -57.5q39 -29 75 -65t69 -79q21 51 58 117.5t97 145.5q18 23 38 46zM1318 636q-24 -20 -46 -37q-79 -60 -145.5 -97.5
t-118.5 -57.5q33 -25 64 -54q-74 -56 -138 -92q-67 -37 -118 -58q39 -29 75 -65t69 -79q21 51 58 118q35 63 91 138q22 -25 43 -52q21 51 58 117.5t97 145.5q18 23 38 46zM800 758q-23 -20 -46 -37q-79 -60 -145 -98q-52 -29 -95 -48q-83 3 -153 12q-98 14 -171.5 34.5
t-124.5 42.5q7 -48 7 -99t-7 -105q51 22 124 42.5t172 33.5q69 10 151 12q28 -22 54 -48q36 -36 69 -79q20 52 57.5 118.5t97.5 144.5q17 23 37 47zM963 595q-24 -20 -46 -37q-79 -60 -145.5 -97.5t-118.5 -57.5q30 -22 58 -49q-74 -56 -138 -91q-66 -38 -118 -58
q39 -29 75 -65t69 -79q21 51 58 117q36 64 92 139q25 -28 48 -58q21 51 58 117.5t97 145.5q18 22 38 46zM585 344q-126 0 -224 13.5t-171.5 34t-124.5 42.5q7 -48 7 -99t-7 -105q51 22 124 42.5t171.5 34t224.5 13.5v24z" />
</svg>
