<?xml version="1.0" standalone="no"?>
<!DOCTYPE svg PUBLIC "-//W3C//DTD SVG 1.1//EN" "http://www.w3.org/Graphics/SVG/1.1/DTD/svg11.dtd" >
<svg xmlns="http://www.w3.org/2000/svg" xmlns:xlink="http://www.w3.org/1999/xlink" version="1.1" viewBox="0 0 1954 971">
   <path fill="currentColor"
d="M1823 425zM1861 425zM1829 870q0 -126 -13 -224t-33.5 -171.5t-42.5 -124.5q37 6 75 7q-13 -92 -33 -163q-20 -73 -42 -124q48 7 99 7t105 -7q-22 51 -43 124q-20 70 -33 163q37 -2 76 -7q-22 51 -43 124t-34 171.5t-13 224.5h-25zM1724 926q-90 -96 -148 -162
q-44 -50 -78 -83q-110 2 -198 13q-98 14 -171.5 34.5t-124.5 42.5q7 -48 7 -99q0 -50 -7 -101v-2v-2h1q6 -46 6 -95.5t-7 -100.5v-2v-2h1q6 -46 6 -95q0 -51 -7 -105q51 22 124 42.5t172 33.5q83 12 186 13q33 -33 66 -69q37 -40 78.5 -86t93.5 -101l12 9q-49 78 -84 144
t-58 110q19 38 55 105q18 33 39 70q17 -19 36 -38l12 9q-17 28 -33 54q16 26 33 55l-12 8q-19 -19 -36 -38q-19 34 -36 65q-35 66 -58 110q19 38 55 105t87 150zM1559 881q-261 0 -465 13.5t-356.5 34t-258.5 42.5q15 -48 15 -99q0 -39 -8 -79q-67 4 -125 11
q-98 14 -171.5 34.5t-124.5 42.5q7 -48 7 -99t-7 -105q51 22 124 42.5t171.5 34t224.5 13.5v20q69 11 152 22q68 10 146 18q-1 -168 -13 -301q-13 -151 -33.5 -264.5t-42.5 -191.5q48 11 99 11t105 -11q-22 78 -43 191t-34 264q-12 135 -13 304q86 8 185 14q204 14 466 14
v24zM785 576q-90 -96 -148 -162q-44 -50 -78 -83q-110 2 -198 13q-98 14 -171.5 34.5t-124.5 42.5q7 -48 7 -99t-7 -105q51 22 124 42.5t172 33.5q83 12 186 13q33 -33 66 -69q37 -40 78.5 -86t93.5 -101l12 9q-49 78 -84 144t-58 110q19 38 55 105t87 150zM1524 481
q-126 0 -224 13.5t-172 33.5q-70 20 -120 41q50 21 120 40q73 21 172 34q83 12 186 13q33 -33 66 -69q37 -40 78 -86q17 -18 35 -38q-51 -56 -89 -99q-44 -50 -78 -83q-110 2 -198 13q-98 14 -172 34q-70 20 -120 41q50 21 120 40q73 21 171.5 34.5t224.5 13.5v24z" />
</svg>
