<?xml version="1.0" standalone="no"?>
<!DOCTYPE svg PUBLIC "-//W3C//DTD SVG 1.1//EN" "http://www.w3.org/Graphics/SVG/1.1/DTD/svg11.dtd" >
<svg xmlns="http://www.w3.org/2000/svg" xmlns:xlink="http://www.w3.org/1999/xlink" version="1.1" viewBox="0 0 2919 899">
   <path fill="currentColor"
d="M1091 812zM1118 785zM1321 812zM1348 785zM2779 800q0 -193 -13 -344q-2 -28 -5 -54q-88 2 -169 5q-3 23 -5 48q-13 151 -13 345h-25q0 -193 -13 -344q-2 -24 -4 -47q-45 3 -88 5q-43 3 -84 6q-1 17 -3 35q-13 151 -13 345h-25q0 -193 -13 -344q-1 -16 -3 -31
q-94 8 -175 18q0 6 -1 12q-13 151 -13 345h-25q0 -193 -13 -344v-6q-145 20 -247 41q14 -44 15 -90q-114 1 -204 13q-98 14 -172 34q-70 20 -120 41q50 21 120 40q73 21 171.5 34.5t224.5 13.5v24q-126 0 -224 13.5t-171.5 34t-124.5 42.5q7 -48 7 -99q0 -50 -7 -101v-2v-2
v0q7 -46 7 -95.5t-7 -100.5v-2v-2v0q7 -46 7 -95q0 -51 -7 -105q51 22 124 42.5t171.5 34t224.5 13.5v24q-126 0 -224 13.5t-172 33.5q-70 20 -120 41q50 21 120 40q73 21 172 34q90 13 204 14q-2 -44 -15 -90q97 20 234 39q-9 -73 -21 -134q-21 -114 -42 -192q48 11 99 11
t105 -11q-22 78 -43 191q-12 66 -22 145q73 9 157 16q-10 -88 -24 -160q-21 -114 -42 -192q48 11 99 11t105 -11q-22 78 -43 191q-14 75 -24 167q37 3 76 5q41 3 85 5q-11 -97 -26 -176q-21 -114 -42 -192q48 11 99 11t105 -11q-22 78 -43 191q-15 80 -26 180q78 3 163 4
q-11 -101 -26 -183q-21 -114 -42 -192q48 11 99 11t105 -11q-22 78 -43 191q-15 82 -26 185q41 1 84 1v24q-44 0 -87 1q-3 25 -5 53q-13 151 -13 345h-25zM1091 812q-24 -20 -46 -37q-79 -60 -146 -97.5t-118 -57.5q6 -4 11 -8l-22 2q-98 14 -171.5 34.5t-124.5 42.5
q7 -48 7 -99q0 -50 -7 -101v-2v-2v0q7 -46 7 -95.5t-7 -100.5v-2v-2v0q7 -46 7 -95q0 -51 -7 -105q51 22 124 42.5t172 33.5q76 11 170 13l-4 -18q-21 -93 -42 -158q48 9 99 9t105 -9q-22 65 -43 158t-34 217q-12 115 -13 260q31 49 72 104q18 23 38 46zM859 809
q-193 0 -344 13.5t-264.5 34t-191.5 42.5q11 -48 11 -99t-11 -105q78 22 191 42q21 4 43 8q-2 -160 -13 -289q-13 -151 -34 -264.5t-42 -191.5q48 11 99 11t105 -11q-22 78 -43 191t-34 264q-11 130 -13 294q88 13 196 22q151 14 345 14v24zM1321 812q-24 -20 -46 -37
q-79 -60 -146 -97.5t-118 -57.5q39 -29 75 -65t69 -79q21 51 58 117q-2 -119 -13 -217q-13 -125 -34 -218t-42 -158q48 9 99 9t105 -9q-22 65 -43 158t-34 217q-12 115 -13 260q31 49 72 104q18 23 38 46zM478 289q50 21 120 40q73 21 172 34q88 12 200 14v-1
q-10 -97 -25 -174q-96 2 -175 12q-98 14 -172 34q-70 20 -120 41zM478 489q50 21 120 40q73 21 172 34q33 5 70 8l16 -16q36 -36 69 -79q18 44 49 101h8q-2 -95 -9 -176q-113 1 -203 13q-98 14 -172 34q-70 20 -120 41z" />
</svg>
