<?xml version="1.0" standalone="no"?>
<!DOCTYPE svg PUBLIC "-//W3C//DTD SVG 1.1//EN" "http://www.w3.org/Graphics/SVG/1.1/DTD/svg11.dtd" >
<svg xmlns="http://www.w3.org/2000/svg" xmlns:xlink="http://www.w3.org/1999/xlink" version="1.1" viewBox="0 0 1699 899">
   <path fill="currentColor"
d="M1536 134zM1536 96zM1361 493zM1361 464zM1510 672q-68 -73 -111 -122q-29 -33 -52 -56q-16 2 -30 4q-74 9 -129 25t-94 32q6 -36 6 -74.5t-6 -78.5q39 16 94 31.5t128 25.5q11 2 22 3q22 -22 43 -45q27 -30 58.5 -64.5t70.5 -75.5l9 6q-37 59 -63 108.5t-43 82.5
q14 28 41 78.5t65 112.5zM1590 809q-193 0 -344 13.5t-264.5 34t-191.5 42.5q10 -44 11 -90q-158 2 -285 13q-151 14 -264.5 34.5t-191.5 42.5q11 -48 11 -99q0 -50 -10 -102q0 1 -1 1v-2v-2h1q6 -46 6 -95q0 -51 -7 -105q51 22 124 42.5t172 33.5q73 10 161 13
q-1 -42 -7 -85v-2v-2h1q6 -46 6 -95.5t-7 -100.5v-2v-2h1q6 -46 6 -95q0 -51 -7 -105q51 22 124 42.5t172 33.5q76 11 170 13q-20 -108 -41 -184q48 11 99 11t105 -11q-22 78 -43 191t-34 264q-11 130 -13 294q88 13 196 22q145 13 329 14q0 -184 -13 -329
q-13 -151 -34 -264q-5 -29 -11 -56q-20 2 -39 4q-98 14 -171.5 34.5t-124.5 42.5q7 -48 7 -99t-7 -105q51 22 124 42.5t172 33.5q15 2 31 4q-12 -51 -23 -93q48 11 99 11t105 -11q-22 78 -43 191t-34 264t-13 345h-9v9zM801 784q-1 -43 -11 -89q78 22 191 42q21 4 43 8
q-1 -71 -3 -136q-120 1 -215 13q-98 14 -171.5 34.5t-124.5 42.5q7 -43 7 -89q-88 3 -161 12q-98 14 -172 34q-69 20 -119 41q77 20 186 40q113 21 264 34q127 12 286 13zM514 497q50 21 120 40q73 21 172 34q94 13 214 14q-3 -68 -9 -129q-2 -24 -4 -47q-112 1 -201 13
q-98 14 -172 34q-70 20 -120 41zM514 297q50 21 120 40q73 21 172 34q88 12 198 14q-10 -97 -24 -175q-95 2 -174 12q-98 14 -172 34q-70 20 -120 41z" />
</svg>
