<?xml version="1.0" standalone="no"?>
<!DOCTYPE svg PUBLIC "-//W3C//DTD SVG 1.1//EN" "http://www.w3.org/Graphics/SVG/1.1/DTD/svg11.dtd" >
<svg xmlns="http://www.w3.org/2000/svg" xmlns:xlink="http://www.w3.org/1999/xlink" version="1.1" viewBox="0 0 1438 800">
   <path fill="currentColor"
d="M1401 752zM1428 725zM1401 432zM1428 405zM799 800q0 -193 -13 -344t-33.5 -264.5t-42.5 -191.5q48 11 99 11t105 -11q-22 78 -43 191t-34 264t-13 345h-25zM1029 800q0 -193 -13 -344t-33.5 -264.5t-42.5 -191.5q48 11 99 11t105 -11q-22 78 -43 191q-4 23 -8 47
q38 -28 73 -63q36 -36 69 -79q21 51 58 117.5t97 145.5q18 23 38 46l-27 27q-24 -20 -46 -37q-79 -60 -146 -97q-65 -37 -116 -58q-15 96 -26 215q-13 151 -13 345h-25zM1401 752q-24 -20 -46 -37q-79 -60 -145.5 -97.5t-118.5 -57.5q39 -29 75 -65t69 -79q21 51 58 117.5
t97 145.5q18 23 38 46zM541 316q-8 -67 -19 -124q-20 -114 -42 -192q48 11 99 11t105 -11q-22 78 -43 191t-34 264t-13 345h-25q0 -123 -5 -229q-113 1 -203 13q-98 14 -171.5 34.5t-124.5 42.5q7 -48 7 -99t-7 -105q51 22 124 42.5t172 33.5q89 12 202 14q-3 -48 -7 -91
q-5 -60 -11 -114q-102 1 -184 12q-98 14 -171.5 34.5t-124.5 42.5q7 -48 7 -99t-7 -105q51 22 124 42.5t172 33.5q80 11 180 13z" />
</svg>
