<?xml version="1.0" standalone="no"?>
<!DOCTYPE svg PUBLIC "-//W3C//DTD SVG 1.1//EN" "http://www.w3.org/Graphics/SVG/1.1/DTD/svg11.dtd" >
<svg xmlns="http://www.w3.org/2000/svg" xmlns:xlink="http://www.w3.org/1999/xlink" version="1.1" viewBox="0 0 1524 800">
   <path fill="currentColor"
d="M839 463zM861 463zM977 463zM999 463zM1115 463zM1137 463zM1271 463zM1293 463zM1399 800q0 -193 -13 -344t-34 -264q-3 -20 -7 -39q-76 2 -330 3.5t-469 2.5l-216 1l-41 10q-154 37 -187 54q-28 14 -38 0q-4 -6 -4 -8q0 -7 16 -26q16 -18 25 -62q1 -3 3 -10t2.5 -10
t1 -10t-0.5 -16t-2 -22q-1 -11 -2.5 -35.5l-1.5 -24.5q3 0 20 13q41 31 95 56q23 10 41 16t44 12t46 11q798 12 992 16q-14 -70 -29 -124q48 11 99 11t105 -11q-22 78 -43 191t-34 264t-13 345h-25zM347 658q43 1 113 2q-3 -44 -9 -84q-13 -98 -34 -172q-10 -36 -20 -66
q-11 30 -21 66q-21 73 -34 172q-5 37 -8 79q6 2 13 3zM859 666q62 1 120 2q-2 -39 -6 -72q-8 -59 -20.5 -103t-25.5 -75q22 3 45 4q-8 -55 -20 -97q-12 -44 -25 -75q29 5 59.5 5t62.5 -5q-13 31 -25 75q-12 42 -20 97q22 -1 45 -4q-13 31 -25.5 75t-20.5 102q-4 34 -6 73
q67 1 120 2q-2 -40 -6 -74q-8 -59 -20.5 -103t-25.5 -75q22 3 45 4q-8 -55 -20 -97q-12 -44 -25 -75q29 5 59.5 5t62.5 -5q-13 31 -25 75q-12 42 -20 97q22 -1 45 -4q-13 31 -25.5 75t-20.5 102q-4 35 -6 76q82 1 139 2q-2 -42 -7 -77q-8 -59 -20.5 -103t-25.5 -75
q22 3 45 4q-8 -55 -20 -97q-12 -44 -25 -75q29 5 59.5 5t62.5 -5q-13 31 -25 75q-12 42 -20 97q22 -1 45 -4q-13 31 -25.5 75t-20.5 102q-4 36 -6 78q90 2 91 2q9 4 9 11q-1 9 -16 16q-2 1 -85 2q-1 13 -1 26h-14v-25q-56 0 -141 1q-1 12 -1 24h-14v-24q-55 0 -123 1
q-1 11 -1 23h-14v-23q-58 0 -123 1q-1 11 -1 22h-14v-22q-161 1 -352 1q-2 44 -2 91h-25q0 -47 -1 -91q-75 1 -132 1q-2 43 -2 90h-25q0 -43 -1 -83l-14 3q-154 37 -187 54q-28 14 -38 0q-4 -6 -4 -8q0 -7 16 -26q16 -18 25 -62q1 -3 3 -10t2.5 -10t1 -10t-0.5 -16t-2 -22
q-1 -11 -2.5 -35.5l-1.5 -24.5q3 0 20 13q41 31 95 56q33 15 83 27q-3 -36 -8 -70q-13 -98 -33.5 -171.5t-42.5 -124.5q48 7 99 7q31 0 63 -2q-1 -3 -2 -5q10 2 21 3q11 -1 23 -3q-1 2 -2 5q28 2 57 2q51 0 105 -7q-19 45 -38 107q30 13 74 25t102 20q37 5 80 7
q-4 -11 -8 -21q22 3 45 4q-8 -55 -20 -97q-12 -44 -25 -75q29 5 59.5 5t62.5 -5q-13 31 -25 75q-12 42 -20 97q22 -1 45 -4q-13 31 -25.5 75t-20.5 102q-4 33 -6 71zM803 456q-46 1 -85 7q-59 8 -103 20.5t-75 25.5q5 -29 5 -60q0 -29 -5 -60q-2 8 -4 15q-21 73 -34 172
q-5 40 -8 85q190 3 347 5q-2 -38 -6 -70q0 -1 -1 -3q-64 1 -116 8q-59 8 -103 20.5t-75 25.5q5 -29 5 -59.5t-5 -63.5q31 13 75 25.5t102 20.5q51 7 115 8q-7 -48 -18 -85q-5 -20 -11 -37z" />
</svg>
