<?xml version="1.0" standalone="no"?>
<!DOCTYPE svg PUBLIC "-//W3C//DTD SVG 1.1//EN" "http://www.w3.org/Graphics/SVG/1.1/DTD/svg11.dtd" >
<svg xmlns="http://www.w3.org/2000/svg" xmlns:xlink="http://www.w3.org/1999/xlink" version="1.1" viewBox="0 0 1162 697">
   <path fill="currentColor"
d="M800 697zM827 670zM963 534zM990 507zM1126 371zM1152 345zM765 336zM792 309zM800 697q-23 -20 -46 -37q-79 -60 -145 -98q-52 -29 -95 -48q-83 3 -153 12q-98 14 -171.5 34.5t-124.5 42.5q7 -48 7 -99t-7 -105q51 22 124 42.5t172 33.5q69 10 151 12q28 -22 54 -48
q36 -36 69 -79q20 52 57.5 118.5t97.5 144.5q17 23 37 47zM963 534q-24 -20 -46 -37q-79 -60 -145.5 -97.5t-118.5 -57.5q30 -22 58 -49q-74 -56 -138 -91q-66 -38 -118 -58q39 -29 75 -65t69 -79q21 51 58 117q36 64 92 139q25 -28 48 -58q21 51 58 117.5t97 145.5
q18 22 38 46zM1126 371q-24 -19 -47 -37q-78 -60 -145 -97t-118 -58q39 -29 75 -65t69 -79q21 51 58 117.5t97 145.5q17 23 37 47q-12 11 -26 26zM585 283q-126 0 -224 13.5t-171.5 34t-124.5 42.5q7 -48 7 -99t-7 -105q51 22 124 42.5t171.5 34t224.5 13.5v24z" />
</svg>
