<?xml version="1.0" standalone="no"?>
<!DOCTYPE svg PUBLIC "-//W3C//DTD SVG 1.1//EN" "http://www.w3.org/Graphics/SVG/1.1/DTD/svg11.dtd" >
<svg xmlns="http://www.w3.org/2000/svg" xmlns:xlink="http://www.w3.org/1999/xlink" version="1.1" viewBox="0 0 870 812">
   <path fill="currentColor"
d="M532 812zM559 785zM532 812q-24 -20 -46 -37q-79 -60 -146 -97.5t-118 -57.5q39 -29 75 -65t69 -79q21 51 58 117q-2 -71 -6 -134q-91 11 -166 24q-114 21 -192 43q11 -48 11 -99t-11 -105q78 22 191 42q73 14 161 24q0 -6 -1 -12q-13 -125 -34 -218t-42 -158q48 9 99 9
t105 -9q-22 65 -43 158t-34 217l-2 18q27 3 55 5q151 14 345 14v24q-193 0 -344 13q-31 3 -61 6q-5 83 -6 180q31 49 72 104q18 23 38 46z" />
</svg>
