<?xml version="1.0" standalone="no"?>
<!DOCTYPE svg PUBLIC "-//W3C//DTD SVG 1.1//EN" "http://www.w3.org/Graphics/SVG/1.1/DTD/svg11.dtd" >
<svg xmlns="http://www.w3.org/2000/svg" xmlns:xlink="http://www.w3.org/1999/xlink" version="1.1" viewBox="0 0 1553 770">
   <path fill="currentColor"
d="M1420 666q-159 0 -284 13.5t-218 34t-158 42.5q9 -48 9 -99t-9 -105q65 22 158 42.5t217 33.5q120 13 273 14q-44 -48 -79 -88q-76 -87 -129 -135q49 -49 97.5 -102t104 -114.5t124.5 -134.5l17 12q-66 104 -112.5 192t-77.5 147q26 50 74 139.5t116 199.5l-17 12
q-58 -62 -106 -115v11zM1152 449q-89 -89 -167.5 -149t-145.5 -97.5t-118 -58.5q39 -28 75 -64t69 -80q21 52 58 118.5t97 145t149 167.5zM585 666q-126 0 -224 13.5t-171.5 34t-124.5 42.5q7 -48 7 -99t-7 -105q51 22 124 42.5t172 33.5q91 13 207 14q-44 -48 -79 -88
q-76 -87 -129 -135q49 -49 97 -102q48 -51 102 -111q-110 2 -198 13q-98 14 -171.5 34.5t-124.5 42.5q7 -48 7 -99t-7 -105q51 22 124 42.5t172 33.5q96 13 220 14q48 -53 105 -114l17 12q-66 104 -112.5 192t-77.5 147q26 50 74 139.5t116 199.5l-17 12q-55 -59 -101 -110
v6z" />
</svg>
