<?xml version="1.0" standalone="no"?>
<!DOCTYPE svg PUBLIC "-//W3C//DTD SVG 1.1//EN" "http://www.w3.org/Graphics/SVG/1.1/DTD/svg11.dtd" >
<svg xmlns="http://www.w3.org/2000/svg" xmlns:xlink="http://www.w3.org/1999/xlink" version="1.1" viewBox="0 0 1274 1470">
   <path fill="currentColor"
d="M1149 1470q0 -193 -13 -344t-34 -264q-4 -21 -7 -41q-166 2 -299 13q-151 14 -264.5 34.5t-191.5 42.5q11 -48 11 -99t-11 -105q29 8 63 16q-1 -39 -4 -75q-42 5 -80 10q-153 21 -259 43q15 -48 15 -99t-15 -105q106 22 258 42q33 5 69 9q-12 -81 -30 -144
q-21 -73 -42 -124q48 7 99 7t105 -7q-22 51 -43 124q-18 66 -31 151q82 8 175 15q-13 -94 -33 -166q-21 -73 -42 -124q48 7 99 7t105 -7q-22 51 -43 124q-20 73 -34 169h2q84 6 178 9q0 -3 -1 -6q-13 -98 -34 -171.5t-42 -124.5q48 7 99 7t105 -7q-22 51 -43 124t-34 172
q0 4 -1 8q113 3 239 3v24q-128 0 -242 3q-9 80 -9 176q93 5 201 6q-15 -71 -30 -126q43 10 88 11q-3 -122 -12 -225q-13 -151 -34 -264q-4 -21 -7 -41q-166 2 -299 13q-151 14 -264.5 34.5t-191.5 42.5q11 -48 11 -99t-11 -105q78 22 191 42.5t264 33.5q131 12 295 13
q-15 -71 -30 -126q48 11 99 11t105 -11q-22 78 -43 191t-34 264q-9 103 -12 226q43 -1 89 -11q-22 78 -43 191t-34 264t-13 345h-25zM666 1295q-7 79 -7 175h-25q0 -94 -7 -172q-103 7 -192 16q-6 72 -6 156h-25q0 -82 -5 -152q-42 5 -80 10q-153 21 -259 43q15 -48 15 -99
t-15 -105q106 22 258 42q33 5 69 9q-12 -81 -30 -144q-21 -73 -42 -124q48 7 99 7t105 -7q-22 51 -43 124q-18 66 -31 151q82 8 175 15q-13 -94 -33 -166q-21 -73 -42 -124q48 7 99 7t105 -7q-22 51 -43 124q-20 73 -34 169h2q84 6 178 9q0 -3 -1 -6q-13 -98 -34 -171.5
t-42 -124.5q48 7 99 7t105 -7q-22 51 -43 124t-34 172q0 4 -1 8q113 3 239 3v24q-128 0 -242 3q-9 84 -9 186h-25q0 -101 -8 -184q-96 3 -181 8q-4 1 -9 1zM666 625q-6 66 -7 144q64 8 136 14q33 3 69 6q0 -95 -8 -173q-96 3 -181 8q-4 1 -9 1zM627 628q-103 7 -192 16
q-4 41 -5 85q46 10 101 20q48 9 103 17q-1 -74 -7 -138z" />
</svg>
