<?xml version="1.0" standalone="no"?>
<!DOCTYPE svg PUBLIC "-//W3C//DTD SVG 1.1//EN" "http://www.w3.org/Graphics/SVG/1.1/DTD/svg11.dtd" >
<svg xmlns="http://www.w3.org/2000/svg" xmlns:xlink="http://www.w3.org/1999/xlink" version="1.1" viewBox="0 0 1087 926">
   <path fill="currentColor"
d="M1040 836q-193 0 -344 13.5t-264.5 34t-191.5 42.5q11 -48 11 -99q0 -40 -7 -82q-2 0 -4 1q1 -6 2 -11q-1 -7 -2 -13q2 1 5 1q6 -37 6 -76q0 -40 -7 -82q-2 0 -4 1q1 -6 2 -11q-1 -7 -2 -13q2 1 5 1q6 -37 6 -76q0 -51 -11 -105q78 22 191 42.5t264 33.5q133 12 300 13
q-44 -48 -78 -87q-46 -51 -80 -85q-179 1 -321 13q-151 14 -264.5 34.5t-191.5 42.5q11 -48 11 -99t-11 -105q78 22 191 42.5t264 33.5q138 13 313 14q33 -33 65 -68q37 -40 78.5 -86t93.5 -101l12 9q-49 78 -84 144t-58 110q19 38 55 105q21 39 48 84h1h1v4q17 29 37 62
l-12 8q-25 -26 -47 -50q-180 1 -322 13q-151 14 -264 34q-83 15 -146 31q63 15 145 30q113 21 264 34.5t345 13.5v24q-193 0 -344 13.5t-264 33.5q-83 15 -146 31q63 15 145 30q113 21 264 34.5t345 13.5v24z" />
</svg>
