<?xml version="1.0" standalone="no"?>
<!DOCTYPE svg PUBLIC "-//W3C//DTD SVG 1.1//EN" "http://www.w3.org/Graphics/SVG/1.1/DTD/svg11.dtd" >
<svg xmlns="http://www.w3.org/2000/svg" xmlns:xlink="http://www.w3.org/1999/xlink" version="1.1" viewBox="0 0 1590 926">
   <path fill="currentColor"
d="M925 526q-90 -96 -148 -162q-45 -50 -78 -83q-147 1 -263 13q-125 13 -218 34t-158 42q9 -48 9 -99t-9 -104q65 21 158 42t217 34q112 12 252 13q33 -33 66 -69q37 -40 78.5 -86t93.5 -101l12 9q-49 78 -84 144t-58 110q19 38 55 105t87 150zM1580 836q-261 0 -465 13.5
t-356.5 34t-258.5 42.5q15 -48 15 -99q0 -41 -10 -84q-78 3 -144 11q-98 14 -171.5 34.5t-124.5 42.5q7 -48 7 -99t-7 -105q51 22 124 42.5t171.5 34t224.5 13.5v21q77 13 173 26q125 18 285 30q-1 -178 -13 -318q-13 -151 -34 -264.5t-42 -191.5q48 11 99 11t105 -11
q-22 78 -43 191t-34 264q-12 141 -13 320q23 2 46 3q204 14 466 14v24zM1426 790q-120 -129 -196.5 -216t-129.5 -135q49 -49 97.5 -102t104 -114.5t124.5 -134.5l17 12q-66 104 -112.5 192t-77.5 147q26 50 74 139.5t116 199.5z" />
</svg>
