<?xml version="1.0" standalone="no"?>
<!DOCTYPE svg PUBLIC "-//W3C//DTD SVG 1.1//EN" "http://www.w3.org/Graphics/SVG/1.1/DTD/svg11.dtd" >
<svg xmlns="http://www.w3.org/2000/svg" xmlns:xlink="http://www.w3.org/1999/xlink" version="1.1" viewBox="0 0 1500 813">
   <path fill="currentColor"
d="M975 662zM1001 635zM1137 500zM1164 473zM1300 337zM1327 310zM414 446zM414 408zM975 662q-24 -19 -47 -37q-78 -60 -145 -97.5t-118 -57.5q39 -29 75 -65t69 -79q21 51 58 117.5t97 145.5q17 23 37 46q-12 12 -26 27zM1137 500q-23 -20 -46 -37q-79 -60 -145.5 -97.5
t-117.5 -58.5q39 -29 75 -65t69 -79q20 51 57.5 117.5t97.5 145.5q17 23 37 47zM1300 337q-24 -20 -46 -37q-79 -60 -146 -97.5t-118 -57.5q39 -29 75 -65t69 -80q21 52 58 118.5t97 144.5q18 23 38 47zM1453 813q-76 -75 -155 -114t-155 -51.5t-140 -9.5q78 -69 156 -147
t156 -165q-3 64 9.5 140t51 155t114.5 155zM393 803q0 -193 -13 -344q0 -5 -1 -10q-12 2 -24 3q-98 14 -171.5 34.5t-124.5 42.5q7 -48 7 -99t-7 -105q51 22 124 42.5t172 33.5q10 2 20 3q-12 -117 -29 -209q-21 -114 -42 -192q48 11 99 11t105 -11q-22 78 -43 191t-34 264
t-13 345h-25zM623 803q0 -193 -13 -344t-34 -264.5t-42 -191.5q48 11 99 11t105 -11q-22 78 -43 191t-34 264t-13 345h-25z" />
</svg>
