<?xml version="1.0" standalone="no"?>
<!DOCTYPE svg PUBLIC "-//W3C//DTD SVG 1.1//EN" "http://www.w3.org/Graphics/SVG/1.1/DTD/svg11.dtd" >
<svg xmlns="http://www.w3.org/2000/svg" xmlns:xlink="http://www.w3.org/1999/xlink" version="1.1" viewBox="0 0 2390 813">
   <path fill="currentColor"
d="M1865 662zM1891 635zM2027 500zM2054 473zM2190 337zM2217 310zM1185 662zM1211 635zM1347 500zM1374 473zM1510 337zM1537 310zM563 358zM601 358zM793 358zM831 358zM1865 662q-24 -19 -47 -37q-78 -60 -145 -97.5t-118 -57.5q39 -29 75 -65t69 -79q21 51 58 117.5
t97 145.5q17 23 37 46q-11 12 -26 27zM2027 500q-23 -20 -46 -37q-79 -60 -145.5 -97.5t-117.5 -58.5q39 -29 75 -65t69 -79q20 51 57.5 117.5t97.5 145.5q17 23 37 47zM2190 337q-24 -20 -46 -37q-79 -60 -146 -97.5t-118 -57.5q39 -29 75 -65t69 -80q21 52 58 118.5
t97 144.5q18 23 38 47zM2343 813q-76 -75 -155 -114t-155 -51.5t-140 -9.5q78 -69 156 -147t156 -165q-3 64 9.5 140t51 155t114.5 155zM1185 662q-24 -19 -47 -37q-78 -60 -145 -97.5t-118 -57.5q39 -29 75 -65t69 -79q21 51 58 117.5t97 145.5q17 23 37 46q-11 12 -26 27z
M1347 500q-23 -20 -46 -37q-79 -60 -145.5 -97.5t-117.5 -58.5q39 -29 75 -65t69 -79q20 51 57.5 117.5t97.5 145.5q17 23 37 47zM1510 337q-24 -20 -46 -37q-79 -60 -146 -97.5t-118 -57.5q39 -29 75 -65t69 -80q21 52 58 118.5t97 144.5q18 23 38 47zM1663 813
q-76 -75 -155 -114t-155 -51.5t-140 -9.5q78 -69 156 -147t156 -165q-3 64 9.5 140t51 155t114.5 155zM569 803q0 -126 -13 -224q-6 -45 -13 -84q-24 0 -47 1l-16 16l-14 -14q-56 3 -105 9q-98 14 -171.5 34.5t-124.5 42.5q7 -48 7 -99t-7 -105q51 22 124 42.5t172 33.5
q33 5 70 8q-62 -58 -119 -101q-78 -60 -145 -97.5t-118 -58.5q39 -28 75 -64t69 -80q21 52 58 118.5t97 144.5q51 67 122 141q33 1 67 2q-7 -33 -15 -62q-21 -73 -42 -124q37 6 75 7q-13 -92 -33 -163q-21 -73 -42 -124q48 7 99 7t105 -7q-22 51 -43 124q-20 70 -33 163
q37 -2 76 -7q-22 51 -43 124t-34 171.5t-13 224.5h-25zM799 803q0 -126 -13 -224t-34 -171.5t-42 -124.5q37 6 75 7q-13 -92 -33 -163q-21 -73 -42 -124q48 7 99 7t105 -7q-22 51 -43 124q-20 70 -33 163q37 -2 76 -7q-22 51 -43 124t-34 171.5t-13 224.5h-25z" />
</svg>
