<?xml version="1.0" standalone="no"?>
<!DOCTYPE svg PUBLIC "-//W3C//DTD SVG 1.1//EN" "http://www.w3.org/Graphics/SVG/1.1/DTD/svg11.dtd" >
<svg xmlns="http://www.w3.org/2000/svg" xmlns:xlink="http://www.w3.org/1999/xlink" version="1.1" viewBox="-5 0 1530 910">
   <path fill="currentColor"
d="M859 536zM885 509zM1489 396zM1515 369zM1319 556zM1345 529zM1149 716zM1175 689zM979 876zM1005 849zM315 910zM341 883zM659 336zM685 309zM1489 396q-24 -20 -47 -37q-78 -60 -145 -97.5t-118 -57.5q39 -29 75 -65t69 -79q21 51 58 117.5t97 145.5q18 23 37 46
q-11 12 -26 27zM1319 556q-24 -20 -47 -37q-78 -60 -145 -97.5t-118 -57.5q39 -29 75 -65t69 -79q21 51 58 117.5t97 145.5q18 23 37 46q-11 12 -26 27zM1149 716q-24 -20 -47 -37q-78 -60 -145 -97q-50 -29 -92 -47h-5l-1 1l-2 -1q-117 2 -213 12q-125 14 -218.5 34.5
t-157.5 42.5q9 -48 9 -99t-9 -105q64 22 157 42.5t218 33.5q83 9 181 12q-6 -4 -12 -9q-78 -60 -145 -97.5t-118 -57.5q30 -22 58 -49q-75 -57 -140 -93q-67 -38 -118 -58q39 -29 75 -65t69 -79q21 51 58 117q36 65 93 141q26 -27 49 -58q21 51 58 117.5t97 145.5
q13 16 26 33q21 -18 40 -37q36 -36 69 -79q21 51 58 117.5t97 145.5q18 23 37 46q-11 12 -26 27zM979 876q-24 -20 -47 -37q-78 -60 -145 -97.5t-118 -57.5q39 -29 75 -65t69 -79q21 51 58 117.5t97 145.5q18 23 37 46q-11 12 -26 27zM315 910q-24 -20 -47 -37
q-78 -60 -145 -97.5t-118 -57.5q39 -29 75 -65t69 -79q21 51 58 117q-3 -119 -13 -217q-13 -125 -34 -218t-42 -158q48 9 99 9t104 -9q-21 65 -42 158t-34 217q-12 115 -13 260q30 49 72 104q18 23 37 46q-11 12 -26 27z" />
</svg>
