<?xml version="1.0" standalone="no"?>
<!DOCTYPE svg PUBLIC "-//W3C//DTD SVG 1.1//EN" "http://www.w3.org/Graphics/SVG/1.1/DTD/svg11.dtd" >
<svg xmlns="http://www.w3.org/2000/svg" xmlns:xlink="http://www.w3.org/1999/xlink" version="1.1" viewBox="0 0 1537 756">
   <path fill="currentColor"
d="M1515 756q-90 -96 -148 -162q-44 -50 -78 -83q-110 2 -198 13q-98 14 -171.5 34.5t-124.5 42.5q7 -44 7 -90q-4 1 -8 1q2 3 3 6l-12 8l-14 -14q-140 2 -255 12q-151 14 -264.5 34.5t-191.5 42.5q11 -48 11 -99t-11 -105q78 22 191 42.5t264 33.5q105 10 232 12
q-65 -70 -110 -121q-44 -50 -78 -83q-110 2 -198 13q-98 14 -171.5 34.5t-124.5 42.5q7 -48 7 -99t-7 -105q51 22 124 42.5t172 33.5q82 12 186 13q33 -33 66 -69q37 -40 78.5 -86t93.5 -101l12 9q-49 78 -84 144t-58 110q19 38 55 105q29 54 68 118h24q-1 -43 -7 -89
q51 22 124 42.5t172 33.5q82 12 186 13q33 -33 66 -69q17 -19 36 -39l-12 -14q-44 -50 -78 -83q-110 2 -198 13q-98 14 -171.5 34.5t-124.5 42.5q7 -48 7 -99t-7 -105q51 22 124 42.5t172 33.5q82 12 186 13q33 -33 66 -69q37 -40 78.5 -86t93.5 -101l12 9q-49 78 -84 144
t-58 110q14 27 36 69v-1q42 -46 94 -101l12 9q-47 75 -81 139q34 63 81 140l-12 8q-53 -56 -94 -101q-21 39 -36 68q19 38 55 105t87 150z" />
</svg>
