<?xml version="1.0" standalone="no"?>
<!DOCTYPE svg PUBLIC "-//W3C//DTD SVG 1.1//EN" "http://www.w3.org/Graphics/SVG/1.1/DTD/svg11.dtd" >
<svg xmlns="http://www.w3.org/2000/svg" xmlns:xlink="http://www.w3.org/1999/xlink" version="1.1" viewBox="0 0 1486 1046">
   <path fill="currentColor"
d="M1088 733zM1104 717zM1185 636zM1201 620zM1283 538zM1299 522zM1067 517zM1083 501zM1088 733l-28 -22q-47 -36 -87 -58.5t-71 -34.5q24 -17 45.5 -39t41.5 -47q12 30 34 70t58 87q11 14 23 28zM1185 636q-14 -12 -27 -22q-48 -36 -88 -58.5t-70 -35.5q18 -13 34 -29
q-44 -33 -82 -55q-40 -22 -71 -34q23 -18 45 -39.5t41 -47.5q13 31 35 71q21 38 55 83q15 -17 29 -35q12 31 34.5 71t58.5 87q11 13 22 28zM1283 538q-14 -12 -28 -22q-47 -36 -87 -58.5t-71 -34.5q24 -17 45.5 -39t41.5 -48q12 31 34.5 71t58.5 87q10 14 22 28zM1464 1046
q-90 -96 -148 -162q-44 -50 -78 -83q-110 2 -198 13q-98 14 -171.5 34.5t-124.5 42.5q7 -48 7 -99t-7 -105q51 22 124 42.5t172 33.5q83 12 186 13q33 -33 66 -69q37 -40 78 -86q41 -45 91 -98q-88 -94 -145 -159q-44 -50 -78 -83q-110 2 -198 13q-98 14 -171.5 34.5
t-124.5 42.5q7 -48 7 -99t-7 -105q51 22 124 42.5t172 33.5q83 12 186 13q33 -33 66 -69q37 -40 78.5 -86t93.5 -101l12 9q-49 78 -84 144t-58 110q19 38 55 105t87 150l-8 5l8 6q-49 78 -84 144t-58 110q19 38 55 105t87 150zM580 746q-126 0 -224 13.5t-171.5 34
t-124.5 42.5q7 -48 7 -99t-7 -105q51 22 124 42.5t172 33.5q91 13 207 14q-44 -48 -79 -88q-76 -87 -129 -135q49 -49 97 -102q48 -51 102 -111q-110 2 -198 13q-98 14 -171.5 34.5t-124.5 42.5q7 -48 7 -99t-7 -105q51 22 124 42.5t172 33.5q96 13 220 14q48 -53 105 -114
l17 12q-66 104 -112.5 192t-77.5 147q26 50 74 139.5t116 199.5l-17 12q-55 -59 -101 -110v6z" />
</svg>
