<?xml version="1.0" standalone="no"?>
<!DOCTYPE svg PUBLIC "-//W3C//DTD SVG 1.1//EN" "http://www.w3.org/Graphics/SVG/1.1/DTD/svg11.dtd" >
<svg xmlns="http://www.w3.org/2000/svg" xmlns:xlink="http://www.w3.org/1999/xlink" version="1.1" viewBox="0 0 1208 812">
   <path fill="currentColor"
d="M1171 432zM1198 405zM1171 752zM1198 725zM907 812zM934 785zM677 812zM704 785zM1171 432q-24 -20 -46 -37q-79 -60 -145.5 -97.5t-118.5 -57.5q39 -29 75 -65t69 -79q21 51 58 117.5t97 145.5q18 23 38 46zM1171 752q-24 -20 -46 -37q-79 -60 -145.5 -97.5
t-118.5 -57.5q39 -29 75 -65t69 -79q21 51 58 117.5t97 145.5q18 23 38 46zM907 812q-24 -20 -46 -37q-79 -60 -145.5 -97.5t-118.5 -57.5q39 -29 75 -65t69 -79q21 51 58 117q-2 -119 -13 -217q-13 -125 -33.5 -218t-42.5 -158q48 9 99 9t105 -9q-22 65 -43 158t-34 217
q-12 115 -13 260q31 49 72 104q18 23 38 46zM677 812q-24 -20 -46 -37q-79 -60 -145.5 -97.5t-118.5 -57.5q26 -20 51 -42q-29 3 -57 6q-98 14 -171.5 34.5t-124.5 42.5q7 -48 7 -99t-7 -105q51 22 124 42.5t172 33.5q44 6 93 10q30 -31 57 -67q13 32 33 70q12 0 24 1
q-3 -93 -12 -171q-2 -18 -4 -35q-106 2 -191 13q-98 14 -171.5 34.5t-124.5 42.5q7 -48 7 -99t-7 -105q51 22 124 42.5t172 33.5q84 12 188 13q-11 -88 -27 -158q-20 -93 -42 -158q48 9 99 9t105 -9q-22 65 -43 158t-34 217q-12 115 -13 260q31 49 72 104q18 23 38 46z
M557 571l12 22q0 -11 -1 -22h-11z" />
</svg>
