<?xml version="1.0" standalone="no"?>
<!DOCTYPE svg PUBLIC "-//W3C//DTD SVG 1.1//EN" "http://www.w3.org/Graphics/SVG/1.1/DTD/svg11.dtd" >
<svg xmlns="http://www.w3.org/2000/svg" xmlns:xlink="http://www.w3.org/1999/xlink" version="1.1" viewBox="0 0 2120 813">
   <path fill="currentColor"
d="M1105 446zM1105 408zM355 662zM381 635zM517 500zM544 473zM680 337zM707 310zM1855 803q0 -193 -14 -344q0 -8 -1 -16q-93 3 -177 8q0 4 -1 7q-13 151 -13 345h-24q0 -193 -14 -344v-4q-96 6 -180 15q-12 146 -12 333h-24q0 -183 -12 -328q-50 5 -94 11q-153 21 -259 43
q12 -37 15 -76q-97 13 -170 33q-74 21 -125 43q7 -48 7 -99t-7 -105q51 22 124 42q73 21 170 34q-3 -37 -14 -76q106 22 258 42q41 6 85 11q-11 -102 -26 -183q-20 -114 -42 -192q48 11 99 11t105 -11q-22 78 -43 191q-15 85 -27 191q78 8 167 14q-12 -114 -29 -204
q-20 -114 -42 -192q48 11 99 11t105 -11q-22 78 -43 191q-17 92 -29 209q81 5 170 8q-12 -122 -30 -216q-20 -114 -42 -192q48 11 99 11t105 -11q-22 78 -43 191q-17 95 -30 218q102 3 214 3v24q-114 0 -216 3l-2 16q-13 151 -13 345h-24zM355 662q-24 -19 -47 -37
q-78 -60 -145 -97.5t-118 -57.5q39 -29 75 -65t69 -79q21 51 58 117.5t97 145.5q18 23 37 46q-11 12 -26 27zM517 500q-23 -20 -46 -37q-79 -60 -145.5 -97.5t-117.5 -58.5q39 -29 75 -65t69 -79q20 51 57.5 117.5t97.5 145.5q17 23 37 47zM680 337q-24 -20 -46 -37
q-79 -60 -145.5 -97.5t-118.5 -57.5q39 -29 75.5 -65t68.5 -80q21 52 58 118.5t97 144.5q18 23 38 47zM833 813q-76 -75 -155 -114t-155 -51.5t-140 -9.5q78 -69 156 -147t156 -165q-3 64 9.5 140t51 155t114.5 155z" />
</svg>
