<?xml version="1.0" standalone="no"?>
<!DOCTYPE svg PUBLIC "-//W3C//DTD SVG 1.1//EN" "http://www.w3.org/Graphics/SVG/1.1/DTD/svg11.dtd" >
<svg xmlns="http://www.w3.org/2000/svg" xmlns:xlink="http://www.w3.org/1999/xlink" version="1.1" viewBox="0 0 2075 814">
   <path fill="currentColor"
d="M1615 501zM1615 463zM355 662zM381 635zM517 500zM544 473zM680 337zM707 310zM2060 724q-193 0 -344 13.5t-264.5 34t-191.5 42.5q11 -48 11 -99t-11 -105q-81 3 -149 12q-98 14 -171.5 34.5t-124.5 42.5q7 -48 7 -99t-7 -105q51 22 124.5 42.5t171.5 33.5q68 10 149 12
q7 -48 7 -98.5t-7 -104.5q-81 3 -149 12q-98 14 -171.5 34.5t-124.5 42.5q7 -48 7 -99t-7 -105q51 22 124.5 42.5t171.5 33.5q68 10 149 12q11 -48 11 -98q0 -51 -11 -105q78 22 191 42.5t264 34t345 13.5v24q-193 0 -344 13.5t-264 33.5q-113 21 -191 42q36 2 74 2v24
q-38 0 -74 1q51 22 123 42q72 21 168 34q-2 -37 -7 -76q51 22 124.5 42.5t171.5 34t224 13.5v24q-126 0 -224 13.5t-171.5 34t-124.5 42.5q6 -37 7 -76q-95 13 -167 33q-73 21 -124 42q36 2 74 2v24q-38 0 -74 1q78 22 190 42q113 21 264 34.5t345 13.5v24zM355 662
q-24 -19 -47 -37q-78 -60 -145 -97.5t-118 -57.5q39 -29 75 -65t69 -79q21 51 58 117.5t97 145.5q18 23 37 46q-11 12 -26 27zM517 500q-23 -20 -46 -37q-79 -60 -145.5 -97.5t-117.5 -58.5q39 -29 75 -65t69 -79q20 51 57.5 117.5t97.5 145.5q17 23 37 47zM680 337
q-24 -20 -46 -37q-79 -60 -145.5 -97.5t-118.5 -57.5q39 -29 75.5 -65t68.5 -80q21 52 58 118.5t97 144.5q18 23 38 47zM833 813q-76 -75 -155 -114t-155 -51.5t-140 -9.5q78 -69 156 -147t156 -165q-3 64 9.5 140t51 155t114.5 155z" />
</svg>
