<?xml version="1.0" standalone="no"?>
<!DOCTYPE svg PUBLIC "-//W3C//DTD SVG 1.1//EN" "http://www.w3.org/Graphics/SVG/1.1/DTD/svg11.dtd" >
<svg xmlns="http://www.w3.org/2000/svg" xmlns:xlink="http://www.w3.org/1999/xlink" version="1.1" viewBox="-5 0 1473 926">
   <path fill="currentColor"
d="M315 832zM341 805zM1344 820q0 -193 -13 -344t-34 -264.5t-42 -191.5q48 11 99 11t104 -11q-21 78 -42 191t-34 264t-13 345h-25zM1130 836q-194 0 -344.5 13.5t-264 34t-191.5 42.5q11 -48 11 -99v-21l-26 26q-24 -20 -47 -37q-78 -60 -145 -97.5t-118 -57.5
q39 -29 75 -65t69 -79q21 51 58 117q-3 -119 -13 -217q-13 -125 -34 -218t-42 -158q48 9 99 9t104 -9q-21 65 -42 158t-34 217q-12 115 -13 260q30 49 72 104q17 22 37 45q-2 -29 -7 -59q-2 0 -4 1q1 -6 2 -11q-1 -7 -2 -13q2 1 4 1q7 -37 7 -76q0 -40 -7 -82q-2 0 -4 1
q1 -6 2 -11q-1 -7 -2 -13q2 1 4 1q7 -37 7 -76q0 -51 -11 -105q78 22 191 42.5t264 33.5q73 7 157 10q-43 -47 -75 -84q-44 -50 -78 -83q-110 2 -198 13q-98 14 -171.5 34.5t-124.5 42.5q7 -48 7 -99t-7 -105q51 22 124 42.5t171 33.5q83 12 186 13q34 -33 67 -69
q36 -40 78 -86t93 -101l13 9q-49 78 -84 144t-58 110q19 38 55 105q21 38 46 82q54 1 113 2q-13 -136 -32 -240q-21 -114 -42 -192q48 11 99 11t104 -11q-21 78 -42 191t-34 264t-13 345h-9v16zM970 479q-99 3 -185 10q-150 14 -264 34q-82 15 -145 31q63 15 145 30
q113 21 264 34q143 13 326 14q-4 -83 -10 -156q-51 1 -98 2q12 19 24 40l-13 8q-23 -24 -44 -47zM1112 656q-183 1 -327 13q-150 14 -264 34q-82 15 -145 31q63 15 145 30q113 21 264 34q144 13 329 14q0 -82 -2 -156z" />
</svg>
