<?xml version="1.0" standalone="no"?>
<!DOCTYPE svg PUBLIC "-//W3C//DTD SVG 1.1//EN" "http://www.w3.org/Graphics/SVG/1.1/DTD/svg11.dtd" >
<svg xmlns="http://www.w3.org/2000/svg" xmlns:xlink="http://www.w3.org/1999/xlink" version="1.1" viewBox="0 0 1320 664">
   <path fill="currentColor"
d="M1310 114q-193 0 -344 13.5t-264 33.5q-113 21 -191 42q36 2 74 2v24q-38 0 -74 1q78 22 190 42q113 21 264 34.5t345 13.5v24q-193 0 -344 13.5t-264 33.5q-113 21 -191 42q36 2 74 2v24q-38 0 -74 1q78 22 190 42q113 21 264 34.5t345 13.5v24q-193 0 -344 13.5
t-264.5 34t-191.5 42.5q11 -48 11 -99t-11 -105q-81 3 -149 12q-98 14 -171.5 34.5t-124.5 42.5q7 -48 7 -99t-7 -105q51 22 124 42.5t172 33.5q68 10 149 12q11 -48 11 -98.5t-11 -104.5q-81 3 -149 12q-98 14 -171.5 34.5t-124.5 42.5q7 -48 7 -99t-7 -105q51 22 124 42.5
t172 33.5q68 10 149 12q11 -48 11 -98q0 -51 -11 -105q78 22 191 42.5t264 34t345 13.5v24z" />
</svg>
