<?xml version="1.0" standalone="no"?>
<!DOCTYPE svg PUBLIC "-//W3C//DTD SVG 1.1//EN" "http://www.w3.org/Graphics/SVG/1.1/DTD/svg11.dtd" >
<svg xmlns="http://www.w3.org/2000/svg" xmlns:xlink="http://www.w3.org/1999/xlink" version="1.1" viewBox="0 0 1649 811">
   <path fill="currentColor"
d="M1518 355zM1556 355zM1524 800q0 -126 -13 -224t-33.5 -171.5t-42.5 -124.5q37 6 75 7q-13 -92 -33 -163q-20 -73 -42 -124q48 7 99 7t105 -7q-22 51 -43 124q-20 70 -33 163q37 -2 76 -7q-22 51 -43 124t-34 171.5t-13 224.5h-25zM1282 467q0 -6 -1 -11
q-9 -107 -22 -195q-163 2 -293 13q-151 14 -264 34q-113 21 -191 42q36 2 74 2v24q-38 0 -74 1q78 22 190 42q113 21 264 34q140 13 317 14zM1284 491q-178 1 -318 13q-151 14 -264 34q-113 21 -191 42q36 2 74 2v24q-38 0 -74 1q78 22 190 42q113 21 264 34q144 13 328 14
q-2 -111 -9 -206zM1294 721q-184 1 -328 13q-151 14 -264.5 34.5t-191.5 42.5q11 -48 11 -99t-11 -105q-81 3 -149 12q-98 14 -171.5 34.5t-124.5 42.5q7 -48 7 -99t-7 -105q51 22 124 42.5t172 33.5q68 10 149 12q11 -48 11 -98.5t-11 -104.5q-81 3 -149 12
q-98 14 -171.5 34.5t-124.5 42.5q7 -48 7 -99t-7 -105q51 22 124 42.5t172 33.5q68 10 149 12q11 -48 11 -98q0 -51 -11 -105q78 22 191 42.5t264 33.5q129 12 290 13q-4 -23 -8 -44q-20 -114 -42 -192q48 11 99 11t105 -11q-22 78 -43 191t-34 264t-13 345h-25v-79z" />
</svg>
