<?xml version="1.0" standalone="no"?>
<!DOCTYPE svg PUBLIC "-//W3C//DTD SVG 1.1//EN" "http://www.w3.org/Graphics/SVG/1.1/DTD/svg11.dtd" >
<svg xmlns="http://www.w3.org/2000/svg" xmlns:xlink="http://www.w3.org/1999/xlink" version="1.1" viewBox="0 0 1149 899">
   <path fill="currentColor"
d="M780 443zM780 405zM1139 809q-261 0 -465 13.5t-356.5 34t-258.5 42.5q15 -48 15 -99t-15 -105q97 20 234 39q-2 -154 -13 -278q-13 -151 -34 -264.5t-42 -191.5q48 11 99 11t105 -11q-22 78 -43 191t-34 264q-11 126 -13 283q152 20 355 33q41 3 84 5q0 -179 -13 -320
q0 -5 -1 -9l-22 2q-98 14 -171.5 34.5t-124.5 42.5q7 -48 7 -99t-7 -105q51 22 124 42.5t172 33.5q9 2 18 3q-12 -117 -29 -209q-21 -114 -42 -192q48 11 99 11t105 -11q-22 78 -43 191t-34 264q-12 142 -13 322q97 5 205 6q0 -183 -13 -327q-13 -151 -34 -264.5t-42 -191.5
q48 11 99 11t105 -11q-22 78 -43 191t-34 264q-13 144 -13 329q62 1 127 1v24z" />
</svg>
