<?xml version="1.0" standalone="no"?>
<!DOCTYPE svg PUBLIC "-//W3C//DTD SVG 1.1//EN" "http://www.w3.org/Graphics/SVG/1.1/DTD/svg11.dtd" >
<svg xmlns="http://www.w3.org/2000/svg" xmlns:xlink="http://www.w3.org/1999/xlink" version="1.1" viewBox="0 0 1933 816">
   <path fill="currentColor"
d="M1342 355zM1380 355zM1572 355zM1610 355zM1802 355zM1840 355zM1342 355q-2 -31 -6 -59q-3 -18 -5 -35q-117 1 -210 13q-98 14 -171.5 34.5t-124.5 42.5q7 -48 7 -99t-7 -105q51 22 124 42.5t172 33.5q90 13 206 14q-11 -62 -25 -113q-21 -73 -43 -124q48 7 99 7t105 -7
q-22 51 -42.5 124t-33.5 172q-4 28 -7 59h-38zM1572 355q-2 -31 -6 -59q-14 -98 -34.5 -171.5t-42.5 -124.5q48 7 99 7t105 -7q-22 51 -42.5 124t-33.5 172q-4 28 -7 59h-38zM1802 355q-2 -31 -6 -59q-14 -98 -34.5 -171.5t-42.5 -124.5q48 7 99 7t105 -7q-22 51 -42.5 124
t-33.5 172q-4 28 -7 59h-38zM1480 491q-160 0 -284.5 13.5t-217.5 34t-158 42.5q9 -48 9 -99t-9 -105q65 22 158 42.5t217 33.5q122 13 278 14q-1 -2 -2 -3q-45 -63 -92 -106q104 6 214.5 6t226.5 -6q-47 43 -92 105.5t-73.5 146t-28.5 190.5h-53q0 -41 -4 -79
q-163 2 -293 13q-151 14 -264.5 34.5t-191.5 42.5q11 -48 11 -99t-11 -105q78 22 191 42.5t264 33.5q129 12 291 13q-7 -46 -21 -86q-26 -75 -65 -134v15zM785 816q-90 -96 -148 -162q-44 -50 -78 -83q-110 2 -198 13q-98 14 -171.5 34.5t-124.5 42.5q7 -48 7 -99t-7 -105
q51 22 124 42.5t172 33.5q83 12 186 13q33 -33 66 -69q17 -19 36 -39l-12 -14q-44 -50 -78 -83q-110 2 -198 13q-98 14 -171.5 34.5t-124.5 42.5q7 -48 7 -99t-7 -105q51 22 124 42.5t172 33.5q83 12 186 13q33 -33 66 -69q37 -40 78.5 -86t93.5 -101l12 9q-49 78 -84 144
t-58 110q14 27 36 69v-1q42 -46 94 -101l12 9q-47 75 -81 139q34 63 81 140l-12 8q-53 -56 -94 -101q-21 39 -36 68q19 38 55 105t87 150z" />
</svg>
