<?xml version="1.0" standalone="no"?>
<!DOCTYPE svg PUBLIC "-//W3C//DTD SVG 1.1//EN" "http://www.w3.org/Graphics/SVG/1.1/DTD/svg11.dtd" >
<svg xmlns="http://www.w3.org/2000/svg" xmlns:xlink="http://www.w3.org/1999/xlink" version="1.1" viewBox="0 0 1182 800">
   <path fill="currentColor"
d="M414 443zM414 405zM414 443zM414 405zM1145 752zM1172 725zM1145 432zM1172 405zM773 800q0 -193 -13 -344t-34 -264.5t-42 -191.5q48 11 99 11t105 -11q-22 78 -43 191q-4 23 -8 47q38 -28 73 -63q36 -36 69 -79q21 51 58 117.5t97 145.5q18 23 38 46l-27 27
q-24 -20 -46 -37q-79 -60 -146 -97q-66 -37 -116 -58q-15 96 -26 215q-13 151 -13 345h-25zM698 682q-90 -96 -148 -161.5t-97 -101.5q36 -36 73 -76t78.5 -86t93.5 -101l12 9q-49 78 -84 144t-58 110q19 38 55 105t87 150zM393 800q0 -193 -13 -344q0 -5 -1 -10
q-12 2 -24 3q-98 14 -171.5 34.5t-124.5 42.5q7 -48 7 -99t-7 -105q51 22 124 42.5t172 33.5q10 2 20 3q-12 -117 -29 -209q-21 -114 -42 -192q48 11 99 11t105 -11q-22 78 -43 191t-34 264t-13 345h-25zM1145 752q-24 -20 -46 -37q-79 -60 -146 -97.5t-118 -57.5
q39 -29 75 -65t69 -79q21 51 58 117.5t97 145.5q18 23 38 46z" />
</svg>
