<?xml version="1.0" standalone="no"?>
<!DOCTYPE svg PUBLIC "-//W3C//DTD SVG 1.1//EN" "http://www.w3.org/Graphics/SVG/1.1/DTD/svg11.dtd" >
<svg xmlns="http://www.w3.org/2000/svg" xmlns:xlink="http://www.w3.org/1999/xlink" version="1.1" viewBox="0 0 1220 800">
   <path fill="currentColor"
d="M490 800q0 -193 -13.5 -344t-34 -264.5t-42.5 -191.5q48 11 99 11t105 -11q-22 78 -43 191t-34 264t-13 345h-24zM1210 436q-159 0 -283.5 13.5t-218 34t-158.5 42.5q10 -48 10 -99t-10 -105q65 22 158 42.5t217.5 34t284.5 13.5v24zM386 770q-120 -129 -196.5 -216
t-129.5 -135q49 -49 97.5 -102t104.5 -114.5t124 -134.5l17 12q-65 104 -112 192t-77 147q25 50 73 139.5t116 199.5z" />
</svg>
