<?xml version="1.0" standalone="no"?>
<!DOCTYPE svg PUBLIC "-//W3C//DTD SVG 1.1//EN" "http://www.w3.org/Graphics/SVG/1.1/DTD/svg11.dtd" >
<svg xmlns="http://www.w3.org/2000/svg" xmlns:xlink="http://www.w3.org/1999/xlink" version="1.1" viewBox="0 0 2009 800">
   <path fill="currentColor"
d="M905 443zM905 405zM1185 443zM1185 405zM490 800q0 -193 -13.5 -344t-34 -264.5t-42.5 -191.5q48 11 99 11t105 -11q-22 78 -43 191t-34 264t-13 345h-24zM386 770q-120 -129 -196.5 -216t-129.5 -135q49 -49 97.5 -102t104.5 -114.5t124 -134.5l17 12q-65 104 -112 192
t-77 147q25 50 73 139.5t116 199.5zM1165 800q0 -193 -14 -344v-10q-13 2 -25 3q-98 14 -171.5 34.5t-124.5 42.5q6 -37 7 -75q-92 13 -162 32q-74 21 -125 43q8 -48 8 -99t-8 -105q51 22 124 42q70 20 163 33q-2 -37 -7 -75q51 22 124.5 42.5t171.5 33.5q10 2 20 3
q-12 -117 -29 -209q-20 -114 -42 -192q48 11 99 11t105 -11q-22 78 -43 191t-34 264t-13 345h-24zM1395 800q0 -193 -13.5 -344t-34 -264.5t-42.5 -191.5q48 11 99 11t105 -11q-22 78 -43 191t-34 264t-13 345h-24zM1777 770q-120 -129 -196.5 -216t-129.5 -135
q49 -49 97.5 -102t104.5 -114.5t124 -134.5l17 12q-65 104 -112 192t-77 147q25 50 73 139.5t116 199.5zM1885 800q0 -193 -13.5 -344t-34 -264.5t-42.5 -191.5q48 11 99 11t105 -11q-22 78 -43 191t-34 264t-13 345h-24z" />
</svg>
