<?xml version="1.0" standalone="no"?>
<!DOCTYPE svg PUBLIC "-//W3C//DTD SVG 1.1//EN" "http://www.w3.org/Graphics/SVG/1.1/DTD/svg11.dtd" >
<svg xmlns="http://www.w3.org/2000/svg" xmlns:xlink="http://www.w3.org/1999/xlink" version="1.1" viewBox="0 0 1569 920">
   <path fill="currentColor"
d="M1351 554zM1378 527zM1151 354zM1178 327zM1351 554q-24 -20 -46 -37q-79 -60 -146 -97.5t-118 -57.5q30 -22 59 -49q-76 -57 -141 -93q-67 -38 -118 -58q39 -29 75 -65t69 -79q21 51 58 117q36 65 94 141q25 -27 48 -58q21 51 58 117.5t97 145.5q18 23 38 46zM1460 830
q-193 0 -344 13.5t-264.5 34t-191.5 42.5q11 -48 11 -99q0 -39 -6 -79q-126 2 -229 13q-125 13 -218 34t-158 42q9 -48 9 -99t-9 -104q65 21 158 42t217 34q101 11 225 13v-1q1 0 2 1h58v14q58 14 131 27q113 21 264 34q145 13 329 14q0 -184 -13 -329q-13 -151 -34 -264.5
t-42 -191.5q48 11 99 11t105 -11q-22 78 -43 191t-34 264t-13 345h-9v9zM785 527q-90 -97 -148 -162q-44 -50 -78 -83q-110 1 -198 13q-98 13 -171.5 34t-124.5 42q7 -48 7 -99t-7 -104q51 21 124 42t172 34q82 11 186 13q33 -34 66 -70q37 -39 78.5 -85.5t93.5 -101.5l12 9
q-49 79 -84 144.5t-58 110.5q19 37 55 104t87 150z" />
</svg>
