<?xml version="1.0" standalone="no"?>
<!DOCTYPE svg PUBLIC "-//W3C//DTD SVG 1.1//EN" "http://www.w3.org/Graphics/SVG/1.1/DTD/svg11.dtd" >
<svg xmlns="http://www.w3.org/2000/svg" xmlns:xlink="http://www.w3.org/1999/xlink" version="1.1" viewBox="0 0 2830 889">
   <path fill="currentColor"
d="M1401 752zM1428 725zM1401 432zM1428 405zM799 800q0 -193 -13 -344t-33.5 -264.5t-42.5 -191.5q48 11 99 11t105 -11q-22 78 -43 191t-34 264t-13 345h-25zM1029 800q0 -193 -13 -344t-33.5 -264.5t-42.5 -191.5q48 11 99 11t105 -11q-22 78 -43 191q-4 23 -8 47
q38 -28 73 -63q36 -36 69 -79q21 51 58 117.5t97 145.5q18 23 38 46l-27 27q-24 -20 -46 -37q-79 -60 -146 -97q-65 -37 -116 -58q-15 96 -26 215q-13 151 -13 345h-25zM1401 752q-24 -20 -46 -37q-79 -60 -145.5 -97.5t-118.5 -57.5q39 -29 75 -65t69 -79q21 51 58 117.5
t97 145.5q18 23 38 46zM2655 176q-19 -103 -39 -176q48 11 99 11t105 -11q-22 78 -43 191t-34 264t-13 345h-10q-4 6 -14 10q-4 2 -265 4t-521 3l-259 1l-41 10q-154 37 -187 54q-28 14 -38 0q-4 -6 -4 -8q0 -7 16 -26q16 -18 25 -62q1 -3 2.5 -10t2 -10t1.5 -10t0 -16
t-2 -22q-1 -11 -2.5 -35.5l-1.5 -24.5q3 0 20 13q41 31 95 56q32 15 68 24q-1 -164 -13 -295q-13 -151 -33.5 -264.5t-42.5 -191.5q48 11 99 11t105 -11q-22 78 -43 191t-34 264q-12 134 -13 302q20 4 38 9q67 1 167 3q-1 -175 -13 -313q-13 -151 -33.5 -264.5t-42.5 -191.5
q48 11 99 11t105 -11q-22 78 -43 191t-34 264q-12 139 -13 314q109 2 205 3q-1 -176 -13 -316q-13 -151 -33.5 -264.5t-42.5 -191.5q48 11 99 11t105 -11q-22 78 -43 191t-34 264q-12 140 -13 318q544 8 605 10q0 -96 -4 -182q-116 1 -209 13q-98 14 -171.5 34.5
t-124.5 42.5q7 -48 7 -99q0 -50 -7 -101v-2v-2h1q6 -46 6 -95.5t-7 -100.5v-2v-2h1q6 -46 6 -95q0 -51 -7 -105q51 22 124 42.5t172 33.5q73 10 163 13zM2660 202q-92 2 -168 12q-98 14 -172 34q-70 20 -120 41q50 21 120 40q73 21 172 34q85 12 192 13q-10 -96 -24 -174z
M2687 401q-108 2 -195 13q-98 14 -172 34q-70 20 -120 41q50 21 120 40q73 21 172 34q92 13 208 14q-3 -64 -8 -121q-2 -28 -5 -55zM541 316q-8 -67 -19 -124q-20 -114 -42 -192q48 11 99 11t105 -11q-22 78 -43 191t-34 264t-13 345h-25q0 -123 -5 -229q-113 1 -203 13
q-98 14 -171.5 34.5t-124.5 42.5q7 -48 7 -99t-7 -105q51 22 124 42.5t172 33.5q89 12 202 14q-3 -48 -7 -91q-5 -60 -11 -114q-102 1 -184 12q-98 14 -171.5 34.5t-124.5 42.5q7 -48 7 -99t-7 -105q51 22 124 42.5t172 33.5q80 11 180 13z" />
</svg>
