<?xml version="1.0" standalone="no"?>
<!DOCTYPE svg PUBLIC "-//W3C//DTD SVG 1.1//EN" "http://www.w3.org/Graphics/SVG/1.1/DTD/svg11.dtd" >
<svg xmlns="http://www.w3.org/2000/svg" xmlns:xlink="http://www.w3.org/1999/xlink" version="1.1" viewBox="0 0 1379 831">
   <path fill="currentColor"
d="M1024 820q0 -193 -13 -344t-34 -264.5t-42 -191.5q48 11 99 11t105 -11q-22 78 -43 191t-34 264t-13 345h-25zM860 741q-193 0 -344 13.5t-264.5 34t-191.5 42.5q11 -48 11 -99t-11 -105q78 22 191 42.5t264 34t345 13.5v24zM925 526q-90 -96 -148 -162q-45 -50 -78 -83
q-147 1 -263 13q-125 13 -218 34t-158 42q9 -48 9 -99t-9 -104q65 21 158 42t217 34q112 12 252 13q33 -33 66 -69q37 -40 78.5 -86t93.5 -101l12 9q-49 78 -84 144t-58 110q19 38 55 105t87 150zM1254 820q0 -193 -13 -344t-34 -264.5t-42 -191.5q48 11 99 11t105 -11
q-22 78 -43 191t-34 264t-13 345h-25z" />
</svg>
