<?xml version="1.0" standalone="no"?>
<!DOCTYPE svg PUBLIC "-//W3C//DTD SVG 1.1//EN" "http://www.w3.org/Graphics/SVG/1.1/DTD/svg11.dtd" >
<svg xmlns="http://www.w3.org/2000/svg" xmlns:xlink="http://www.w3.org/1999/xlink" version="1.1" viewBox="0 0 1689 906">
   <path fill="currentColor"
d="M1319 442zM1347 442zM455 448zM455 410zM1151 776q0 -145 -9.5 -258t-25.5 -198q-14 -77 -28 -132q-18 4 -35 7q-93 21 -158 43q9 -48 9 -99t-9 -105q65 22 158 42.5t217 33.5q104 12 234 13q-14 -70 -29 -123q48 11 99 11t105 -11q-22 78 -43 191t-34 264t-13 345h-9v16
q-261 0 -465 13.5t-356.5 34t-258.5 42.5q15 -48 15 -99t-15 -105q106 22 258 42l26 4q0 -61 -2 -117q-115 1 -206 13q-98 14 -171.5 34.5t-124.5 42.5q7 -48 7 -99t-7 -105q51 22 124 42.5t172 33.5q90 13 205 14q-4 -81 -10 -151q-9 -107 -22 -194q-95 2 -173 12
q-98 14 -171.5 34.5t-124.5 42.5q7 -48 7 -99t-7 -105q51 22 124 42.5t172 33.5q76 11 169 13q-4 -23 -8 -44q-21 -114 -42 -192q48 11 99 11t105 -11q-22 78 -43 191t-34 264q-11 131 -13 296q134 16 305 27q198 13 450 14q0 -189 -13 -336q-13 -151 -34 -264
q-4 -23 -8 -44q-132 2 -238 13q-83 9 -151 21q19 2 39 2q38 0 78 -8q-16 59 -31.5 143.5t-25.5 197.5t-10 259h-19zM1324 776q0 -94 -10 -167.5t-25.5 -129t-31.5 -93.5q27 4 56 5q-10 -69 -24 -122q-16 -55 -32 -93q36 6 74 6t79 -6q-17 38 -32 93q-15 53 -25 122
q28 -1 57 -5q-17 38 -32.5 93t-25.5 128.5t-10 168.5h-18zM455 448q-31 3 -59 6q-98 14 -171.5 34.5t-124.5 42.5q7 -48 7 -99t-7 -105q51 22 124 42.5t172 33.5q28 4 59 7v38z" />
</svg>
