<?xml version="1.0" standalone="no"?>
<!DOCTYPE svg PUBLIC "-//W3C//DTD SVG 1.1//EN" "http://www.w3.org/Graphics/SVG/1.1/DTD/svg11.dtd" >
<svg xmlns="http://www.w3.org/2000/svg" xmlns:xlink="http://www.w3.org/1999/xlink" version="1.1" viewBox="0 0 1689 906">
   <path fill="currentColor"
d="M1020 546zM1049 546zM1193 546zM1221 546zM1365 546zM1394 546zM455 448zM455 410zM1020 546q-2 -23 -5 -44q-9 -74 -25 -129t-32 -93q36 5 74.5 5t78.5 -5q-16 38 -31.5 93t-25.5 129q-3 21 -5 44h-29zM1193 546q-2 -23 -5 -44q-10 -74 -25.5 -129t-31.5 -93q36 5 74 5
t78 -5q-16 38 -31.5 93t-25.5 129q-3 21 -5 44h-28zM1365 546q-2 -23 -5 -44q-9 -74 -25 -129t-32 -93q36 5 74.5 5t78.5 -5q-16 38 -31.5 93t-25.5 129q-3 21 -5 44h-29zM455 448q-31 3 -59 6q-98 14 -171.5 34.5t-124.5 42.5q7 -48 7 -99t-7 -105q51 22 124 42.5t172 33.5
q28 4 59 7v38zM1184 783q-4 -24 -12 -46q-21 -62 -55 -109t-69 -80q78 5 161 5t170 -5q-35 33 -69 79.5t-55 109.5q-8 23 -13 48q148 6 322 7q0 -189 -13 -336q-13 -151 -34 -264q-4 -23 -8 -44q-132 2 -238 13q-125 14 -218 34.5t-158 42.5q9 -48 9 -99t-9 -105
q65 22 158 42.5t217 33.5q104 12 234 13q-14 -70 -29 -123q48 11 99 11t105 -11q-22 78 -43 191t-34 264t-13 345h-9v16q-186 0 -344 7q-3 27 -3 57h-39q0 -29 -3 -55q-39 2 -76 4q-204 14 -356.5 34.5t-258.5 42.5q15 -48 15 -99t-15 -105q106 22 258 42l26 4
q0 -61 -2 -117q-115 1 -206 13q-98 14 -171.5 34.5t-124.5 42.5q7 -48 7 -99t-7 -105q51 22 124 42.5t172 33.5q90 13 205 14q-4 -81 -10 -151q-9 -107 -22 -194q-95 2 -173 12q-98 14 -171.5 34.5t-124.5 42.5q7 -48 7 -99t-7 -105q51 22 124 42.5t172 33.5q76 11 169 13
q-4 -23 -8 -44q-21 -114 -42 -192q48 11 99 11t105 -11q-22 78 -43 191t-34 264q-11 131 -13 296q134 16 305 27q34 3 70 5z" />
</svg>
