<?xml version="1.0" standalone="no"?>
<!DOCTYPE svg PUBLIC "-//W3C//DTD SVG 1.1//EN" "http://www.w3.org/Graphics/SVG/1.1/DTD/svg11.dtd" >
<svg xmlns="http://www.w3.org/2000/svg" xmlns:xlink="http://www.w3.org/1999/xlink" version="1.1" viewBox="0 0 1146 800">
   <path fill="currentColor"
d="M1015 355zM1053 355zM585 341q-126 0 -224 13.5t-171.5 34t-124.5 42.5q7 -48 7 -99t-7 -105q51 22 124 42.5t171.5 34t224.5 13.5v24zM729 562q-12 -89 -32 -158q-20 -73 -42 -124q48 7 99 7t105 -7q-22 51 -43 124q-20 72 -33 167l18 2q92 13 209 14q-1 -6 -2 -11
q-13 -98 -33.5 -171.5t-42.5 -124.5q37 6 75 7q-11 -75 -26 -135q-99 2 -180 12q-98 14 -171.5 34.5t-124.5 42.5q7 -48 7 -99t-7 -105q51 22 124 42.5t172 33.5q78 11 174 13l-1 -2q-20 -73 -42 -124q48 7 99 7t105 -7q-22 51 -43 124q-20 70 -33 163q37 -2 76 -7
q-22 51 -43 124t-34 171.5t-13 224.5h-25q0 -104 -9 -189q-118 1 -211 13q-12 2 -25 4q-7 78 -7 172h-25q0 -90 -6 -166q-60 11 -109 24q-73 21 -124 43q7 -48 7 -99v-30q-82 3 -151 12q-98 14 -171.5 34.5t-124.5 42.5q7 -48 7 -99t-7 -105q51 22 124 42.5t172 33.5
q68 10 149 12q-2 -23 -5 -48q51 22 124 42q45 13 100 23z" />
</svg>
