<?xml version="1.0" standalone="no"?>
<!DOCTYPE svg PUBLIC "-//W3C//DTD SVG 1.1//EN" "http://www.w3.org/Graphics/SVG/1.1/DTD/svg11.dtd" >
<svg xmlns="http://www.w3.org/2000/svg" xmlns:xlink="http://www.w3.org/1999/xlink" version="1.1" viewBox="0 0 714 812">
   <path fill="currentColor"
d="M677 812zM704 785zM677 812q-24 -20 -46 -37q-79 -60 -145.5 -97.5t-118.5 -57.5q39 -29 75 -65q29 -29 56 -62h-2l-16 16l-14 -14q-56 3 -105 9q-98 14 -171.5 34.5t-124.5 42.5q7 -48 7 -99t-7 -105q51 22 124 42.5t172 33.5q33 5 70 8q-62 -58 -119 -101
q-78 -60 -145 -97.5t-118 -58.5q39 -28 75 -64t69 -80q21 52 58 118.5t97 144.5q51 67 122 141q45 2 94 3q-3 -48 -8 -91q-13 -125 -34 -218t-42 -158q48 9 99 9t105 -9q-22 65 -43 158t-34 217q-12 115 -13 260q31 49 72 104q18 23 38 46zM518 492q20 45 51 101
q-1 -53 -4 -102q-24 0 -47 1z" />
</svg>
