<?xml version="1.0" standalone="no"?>
<!DOCTYPE svg PUBLIC "-//W3C//DTD SVG 1.1//EN" "http://www.w3.org/Graphics/SVG/1.1/DTD/svg11.dtd" >
<svg xmlns="http://www.w3.org/2000/svg" xmlns:xlink="http://www.w3.org/1999/xlink" version="1.1" viewBox="0 0 1469 800">
   <path fill="currentColor"
d="M1116 465zM1116 436zM1338 355zM1376 355zM1265 644q-68 -73 -111 -122q-29 -33 -52 -56q-16 2 -30 4q-74 9 -129 25t-93 32q5 -36 5 -74.5t-5 -78.5q38 16 93 31.5t128 25.5q11 2 22 3q22 -22 43 -45q28 -30 59 -64.5t70 -75.5l9 6q-8 13 -15 26q35 5 71 6
q-13 -92 -33 -163q-20 -73 -42 -124q48 7 99 7t105 -7q-22 51 -43 124q-20 70 -33 163q37 -2 76 -7q-22 51 -43 124t-34 171.5t-13 224.5h-25q0 -126 -13 -224t-34 -172q-20 -70 -40 -120q-26 43 -46 80q-26 49 -43 82q14 28 41 78.5t65 112.5zM794 800q0 -193 -13 -344
t-33.5 -264.5t-42.5 -191.5q48 11 99 11t105 -11q-22 78 -43 191t-34 264t-13 345h-25zM536 316q-8 -67 -19 -124q-20 -114 -42 -192q48 11 99 11t105 -11q-22 78 -43 191t-34 264t-13 345h-25q0 -123 -5 -229q-113 1 -203 13q-98 14 -171.5 34.5t-124.5 42.5q7 -48 7 -99
t-7 -105q51 22 124 42.5t172 33.5q89 12 202 14q-3 -48 -7 -91q-5 -60 -11 -114q-102 1 -184 12q-98 14 -171.5 34.5t-124.5 42.5q7 -48 7 -99t-7 -105q51 22 124 42.5t172 33.5q80 11 180 13z" />
</svg>
