<?xml version="1.0" standalone="no"?>
<!DOCTYPE svg PUBLIC "-//W3C//DTD SVG 1.1//EN" "http://www.w3.org/Graphics/SVG/1.1/DTD/svg11.dtd" >
<svg xmlns="http://www.w3.org/2000/svg" xmlns:xlink="http://www.w3.org/1999/xlink" version="1.1" viewBox="0 0 3371 1036">
   <path fill="currentColor"
d="M2846 789zM2872 762zM3008 627zM3035 600zM3171 464zM3198 437zM1187 900q-120 -129 -196.5 -216t-129.5 -135q49 -49 97.5 -102t104 -114.5t124.5 -134.5l17 12q-66 104 -112.5 192t-77.5 147q26 50 74 139.5t116 199.5zM2021 946q-193 0 -344 13.5t-264.5 34
t-191.5 42.5q11 -48 11 -99t-11 -105q78 22 191 42.5t264 34t345 13.5v24zM2846 789q-24 -19 -47 -37q-78 -60 -145 -97q-34 -19 -64 -34q-122 0 -218 13q-98 14 -171.5 34.5t-124.5 42.5q7 -48 7 -99q0 -46 -6 -94q-84 -91 -139 -154q-45 -50 -78 -83q-147 1 -263 13
q-125 13 -218 34t-158 42q9 -48 9 -99t-9 -104q65 21 158 42t217 34q112 12 252 13q33 -33 66 -69q37 -40 78.5 -86t93.5 -101l12 9q-49 78 -84 144t-58 110q19 38 55 105q27 49 61 107q10 -45 10 -93q0 -51 -11 -105q78 22 191 42.5t264 33.5q113 10 251 13q34 -35 66 -76
q20 51 57.5 117.5t97.5 145.5q17 23 37 47l-27 27q-23 -20 -46 -37q-79 -60 -145.5 -97.5t-117.5 -58.5q26 -19 50 -41q-121 2 -222 11q-151 14 -264 34q-111 21 -188 42q11 17 22 36q44 17 103 33q73 21 172 34q74 10 165 13q39 -29 74 -64q36 -36 69 -79q21 51 58 117.5
t97 145.5q17 23 37 46q-12 12 -26 27zM3171 464q-24 -20 -46 -37q-79 -60 -146 -97.5t-118 -57.5q39 -29 75 -65t69 -80q21 52 58 118.5t97 144.5q18 23 38 47zM3324 940q-76 -75 -155 -114t-155 -51.5t-140 -9.5q78 -69 156 -147t156 -165q-3 64 9.5 140t51 155t114.5 155z
M3151 851q-261 0 -465 13.5t-356.5 34t-258.5 42.5q15 -48 15 -99t-15 -105q106 22 258 42.5t356 34t466 13.5v24zM767 818q-137 -137 -253 -234l-4 -4q-147 13 -258 33q-114 21 -192 43q11 -48 11 -99t-11 -105q78 22 191 42q83 16 187 27q-72 -57 -134 -100
q-95 -66 -166 -106q42 -26 78 -62t66 -82q40 71 105 165q61 88 149 194q143 12 324 12v24q-157 0 -286 9q90 104 211 225z" />
</svg>
