<?xml version="1.0" standalone="no"?>
<!DOCTYPE svg PUBLIC "-//W3C//DTD SVG 1.1//EN" "http://www.w3.org/Graphics/SVG/1.1/DTD/svg11.dtd" >
<svg xmlns="http://www.w3.org/2000/svg" xmlns:xlink="http://www.w3.org/1999/xlink" version="1.1" viewBox="0 0 1154 811">
   <path fill="currentColor"
d="M749 313q-45 -35 -86 -63q-95 -66 -166 -106q42 -26 78 -62t66 -82q40 71 105 165q49 70 115 152q130 5 279 5v24q-134 0 -253 4l22 26q69 82 158 175q36 1 73 1v24h-49l53 53l-18 18q-36 -37 -71 -70q-146 1 -273 7q86 97 198 209l-18 18q-130 -130 -241 -224l-46 2
q-204 14 -356.5 34.5t-258.5 42.5q15 -48 15 -99t-15 -105q106 22 258 42q148 21 344 34q-88 -72 -163 -124q-28 -19 -53 -36q-68 7 -127 15q-153 21 -259 43q15 -48 15 -99t-15 -105q106 22 258 42q26 4 54 7q20 -16 39 -35q36 -36 66 -82q34 60 85 136q54 5 112 8
q36 3 75 5zM800 353q-65 2 -125 6q-35 3 -68 5q58 81 138 176q1 1 2 3q130 6 281 8q-81 -77 -155 -138q-37 -32 -73 -60z" />
</svg>
