<?xml version="1.0" standalone="no"?>
<!DOCTYPE svg PUBLIC "-//W3C//DTD SVG 1.1//EN" "http://www.w3.org/Graphics/SVG/1.1/DTD/svg11.dtd" >
<svg xmlns="http://www.w3.org/2000/svg" xmlns:xlink="http://www.w3.org/1999/xlink" version="1.1" viewBox="0 0 2519 813">
   <path fill="currentColor"
d="M1675 446zM1675 408zM1955 446zM1955 408zM925 662zM951 635zM1087 500zM1114 473zM1250 337zM1277 310zM1934 803q0 -193 -13 -344q0 -5 -1 -10q-12 2 -24 3q-98 14 -171.5 34.5t-124.5 42.5q6 -37 7 -75q-92 13 -162 32q-74 21 -125 43q7 -48 7 -99t-7 -105
q51 22 124 42q70 20 163 33q-2 -37 -7 -75q51 22 124.5 42.5t171.5 33.5q10 2 20 3q-12 -117 -29 -209q-20 -114 -42 -192q48 11 99 11t105 -11q-22 78 -43 191t-34 264t-13 345h-25zM2164 803q0 -193 -13 -344t-33.5 -264.5t-42.5 -191.5q48 11 99 11t105 -11
q-22 78 -43 191t-34 264t-13 345h-25zM2394 803q0 -193 -13 -344t-33.5 -264.5t-42.5 -191.5q48 11 99 11t105 -11q-22 78 -43 191t-34 264t-13 345h-25zM925 662q-24 -19 -47 -37q-78 -60 -145 -97.5t-118 -57.5q39 -29 75 -65t69 -79q21 51 58 117.5t97 145.5q17 23 37 46
q-11 12 -26 27zM1087 500q-23 -20 -46 -37q-79 -60 -145.5 -97.5t-117.5 -58.5q39 -29 75 -65t69 -79q20 51 57.5 117.5t97.5 145.5q17 23 37 47zM1250 337q-24 -20 -46 -37q-79 -60 -145.5 -97.5t-118.5 -57.5q39 -29 75 -65t69 -80q21 52 58 118.5t97 144.5q18 23 38 47z
M1403 813q-76 -75 -155 -114t-155 -51.5t-140 -9.5q78 -69 156 -147t156 -165q-3 64 9.5 140t51 155t114.5 155zM574 804q0 -193 -13 -344q-1 -11 -2 -21q-110 2 -198 13q-98 14 -171.5 34.5t-124.5 42.5q7 -48 7 -99t-7 -105q51 22 124 42.5t172 33.5q87 12 196 13
q-12 -123 -30 -218q-20 -114 -42 -192q48 11 99 11t105 -11q-22 78 -43 191t-34 264t-13 345h-25z" />
</svg>
