<?xml version="1.0" standalone="no"?>
<!DOCTYPE svg PUBLIC "-//W3C//DTD SVG 1.1//EN" "http://www.w3.org/Graphics/SVG/1.1/DTD/svg11.dtd" >
<svg xmlns="http://www.w3.org/2000/svg" xmlns:xlink="http://www.w3.org/1999/xlink" version="1.1" viewBox="0 0 1377 657">
   <path fill="currentColor"
d="M973 0zM946 27zM768 205zM741 232zM1058 311zM1031 338zM440 657zM466 630zM645 452zM671 425zM355 346zM381 319zM973 0q23 19 46 37q79 60 145.5 97.5t118.5 57.5q-40 29 -76 65t-69 79q-20 -51 -57 -117.5t-98 -145.5q-17 -23 -37 -46zM768 205q23 20 46 37
q79 60 145.5 97.5t117.5 57.5q-39 29 -75 65t-69 79q-20 -51 -57.5 -117.5t-97.5 -145.5q-17 -23 -37 -46zM1058 311q23 20 46 37q79 60 145.5 97.5t117.5 57.5q-39 29 -75 65t-69 79q-20 -51 -57.5 -117.5t-97.5 -145.5q-17 -23 -37 -46zM440 657q-24 -20 -47 -37
q-78 -60 -145 -97.5t-118 -58.5q39 -28 75 -64.5t69 -79.5q21 52 58 118.5t97 144.5q17 23 37 47q-12 12 -26 27zM645 452q-24 -20 -47 -37q-78 -60 -145 -97.5t-118 -58.5q39 -29 75 -65t69 -79q21 52 58 118t97 145q17 23 37 47q-11 12 -26 27zM355 346q-24 -20 -47 -37
q-78 -60 -145 -97.5t-118 -58.5q39 -29 75 -65t69 -79q21 51 58 117.5t97 145.5q18 23 37 47z" />
</svg>
