<?xml version="1.0" standalone="no"?>
<!DOCTYPE svg PUBLIC "-//W3C//DTD SVG 1.1//EN" "http://www.w3.org/Graphics/SVG/1.1/DTD/svg11.dtd" >
<svg xmlns="http://www.w3.org/2000/svg" xmlns:xlink="http://www.w3.org/1999/xlink" version="1.1" viewBox="0 0 1109 811">
   <path fill="currentColor"
d="M415 498zM415 460zM945 236q-4 -23 -8 -44q-21 -114 -42 -192q48 11 99 11t105 -11q-22 78 -43 191t-34 264t-13 345h-25v-79q-150 1 -268 13q-125 14 -218 34.5t-158 42.5q9 -48 9 -99t-9 -105q65 22 158 42.5t217 33.5q118 13 268 14q-2 -111 -9 -206q-144 1 -258 13
q-125 14 -218 34.5t-158 42.5q7 -37 9 -76q-94 13 -165 33q-73 21 -124 43q7 -48 7 -99t-7 -105q51 22 124 42q71 20 165 33q-2 -37 -9 -75q65 22 158 42.5t217 33.5q114 12 257 14q0 -6 -1 -11q-9 -107 -22 -194q-129 1 -233 12q-125 14 -218 34.5t-158 42.5q9 -48 9 -99
t-9 -105q65 22 158 42.5t217 33.5q103 11 230 13z" />
</svg>
