<?xml version="1.0" standalone="no"?>
<!DOCTYPE svg PUBLIC "-//W3C//DTD SVG 1.1//EN" "http://www.w3.org/Graphics/SVG/1.1/DTD/svg11.dtd" >
<svg xmlns="http://www.w3.org/2000/svg" xmlns:xlink="http://www.w3.org/1999/xlink" version="1.1" viewBox="0 0 923 910">
   <path fill="currentColor"
d="M591 563zM591 534zM731 336zM757 309zM355 910zM381 883zM740 742q-68 -73 -111 -122q-29 -33 -52 -56q-16 2 -31 4q-73 9 -128.5 25t-93.5 32q6 -36 6 -74.5t-6 -78.5q39 16 93.5 31.5t128.5 25.5q11 2 22 3q21 -22 43 -45q27 -30 58.5 -64.5t70.5 -75.5l9 6
q-37 59 -63.5 108.5t-43.5 82.5q15 28 42 78.5t65 112.5zM799 898q0 -193 -13 -344q-12 -137 -30 -243l-25 25q-24 -20 -47 -37q-78 -60 -145 -97.5t-118 -57.5q39 -29 75 -65t69 -79q21 51 58 117.5t97 145.5q16 21 35 43q-1 -8 -3 -16q-21 -114 -42 -192q48 11 99 11
t104 -11q-21 78 -42 191t-34 264t-13 345h-25zM355 910q-24 -20 -47 -37q-78 -60 -145 -97.5t-118 -57.5q39 -29 75 -65t69 -79q21 51 58 117q-3 -119 -13 -217q-13 -125 -34 -218t-42 -158q48 9 99 9t104 -9q-21 65 -42 158t-34 217q-12 115 -13 260q30 49 72 104
q18 23 37 46q-11 12 -26 27z" />
</svg>
