<?xml version="1.0" standalone="no"?>
<!DOCTYPE svg PUBLIC "-//W3C//DTD SVG 1.1//EN" "http://www.w3.org/Graphics/SVG/1.1/DTD/svg11.dtd" >
<svg xmlns="http://www.w3.org/2000/svg" xmlns:xlink="http://www.w3.org/1999/xlink" version="1.1" viewBox="0 0 1920 910">
   <path fill="currentColor"
d="M1883 336zM1910 310zM1395 825zM1422 798zM1558 662zM1584 635zM1720 499zM1747 473zM355 910zM381 883zM917 499zM940 499zM1883 336q-23 -19 -46 -37q-79 -60 -145.5 -97t-118.5 -58q40 -29 76 -65t69 -79q20 51 57.5 117.5t97.5 145.5q17 23 37 47q-12 11 -27 26z
M1395 825q-24 -20 -46 -37q-79 -60 -145.5 -97.5t-118.5 -58.5q39 -29 75 -65t69 -79q21 52 58 118.5t97 144.5q18 23 38 47zM1558 662q-24 -20 -47 -37q-78 -60 -145 -97.5t-118 -57.5q39 -29 75 -65t69 -79q21 51 58 117.5t97 145.5q17 22 37 46q-12 12 -26 27zM1720 499
q-23 -19 -46 -37q-79 -60 -145.5 -97t-118.5 -58q40 -29 76 -65t69 -79q20 51 57.5 117.5t97.5 145.5q17 23 37 47q-12 11 -27 26zM1039 898q0 -193 -13 -344t-34 -264q-4 -21 -8 -40q-98 2 -178 12q-98 14 -171.5 34.5t-124.5 42.5q7 -48 7 -99t-7 -105q51 22 124 42.5
t171 33.5q78 11 174 13q-14 -71 -29 -126q48 11 99 11t104 -11q-21 78 -42 191t-34 264t-13 345h-25zM355 910q-24 -20 -47 -37q-78 -60 -145 -97.5t-118 -57.5q39 -29 75 -65t69 -79q21 51 58 117q-3 -119 -13 -217q-13 -125 -34 -218t-42 -158q48 9 99 9t104 -9
q-21 65 -42 158t-34 217q-12 115 -13 260q30 49 72 104q18 23 37 46q-11 12 -26 27zM991 771q-157 0 -279 8t-214 20.5t-155 25.5q9 -29 9 -60q0 -29 -9 -60v-2v0q4 -28 4 -58t-4 -62q30 13 74 25.5t103 19.5q44 6 97 8q0 -25 -4 -51v-1v-1q4 -28 4 -57.5t-4 -60.5v-1v-1
q4 -28 4 -58t-4 -62q30 13 74 25.5t103 19.5q50 7 112 8q-4 -19 -9 -36q-12 -44 -25 -74q29 4 59.5 4t62.5 -4q-13 30 -25 74q-12 42 -20 98q22 -1 45 -4q-13 30 -25.5 74t-20.5 103q-7 55 -8 125h55v15zM616 584q29 12 71 24q44 13 103 20q55 8 124 8v-5q-8 -56 -20 -100
q-57 2 -103 8q-59 8 -103 20q-43 12 -72 25zM617 652q-53 1 -96 7q-59 8 -103 20q-42 12 -72 24q63 13 152 25q91 13 213 20q95 7 210 8q0 -57 -5 -105q-70 1 -125 8q-59 8 -103.5 20.5t-74.5 25.5q4 -26 4 -53zM616 464q29 12 71 24q44 13 103 20q45 7 100 8
q-11 -36 -22 -62q22 3 45 4q-4 -25 -8 -47q-63 1 -114 8q-59 8 -103 20q-43 12 -72 25z" />
</svg>
