<?xml version="1.0" standalone="no"?>
<!DOCTYPE svg PUBLIC "-//W3C//DTD SVG 1.1//EN" "http://www.w3.org/Graphics/SVG/1.1/DTD/svg11.dtd" >
<svg xmlns="http://www.w3.org/2000/svg" xmlns:xlink="http://www.w3.org/1999/xlink" version="1.1" viewBox="0 0 1475 980">
   <path fill="currentColor"
d="M1283 336zM1309 309zM907 980zM933 953zM731 336zM757 309zM355 910zM381 883zM1351 898q0 -193 -13 -344q-9 -106 -22 -194q-33 55 -58 102q-35 66 -58 110q19 38 55 105t87 149l-13 10q-90 -97 -147.5 -162.5t-96.5 -101.5q36 -36 72.5 -76t78.5 -86q34 -38 75 -81
q-2 -9 -3 -18q-11 10 -25 25q-24 -20 -47 -37q-78 -60 -145 -97.5t-118 -57.5q39 -29 75 -65t69 -79q21 51 58 117.5t97 145.5q16 21 35 43q-2 -8 -3 -16q-21 -114 -43 -192q49 11 99.5 11t104.5 -11q-21 78 -42 191t-34 264t-13 345h-25zM799 758q0 -160 -13 -284
q-7 -66 -16 -123q-37 59 -64 111q-35 66 -58 110q19 38 55 105l4 8q18 -20 34 -41q21 51 58 117.5t97 145.5q17 23 37 46q-12 12 -26 27q-24 -20 -47 -37q-78 -60 -145 -97q-42 -24 -78 -41q6 11 13 21l-13 10q-90 -97 -147.5 -162.5t-96.5 -101.5q36 -36 72.5 -76t78.5 -86
t93 -101l13 9q-49 78 -84 144t-58 110q19 38 55 105q24 44 54 95q29 -23 55 -49l1 -1q-23 -26 -43 -48q-58 -66 -97 -102q36 -36 72.5 -76t78.5 -86q37 -40 81 -88q-6 -35 -13 -66q-21 -93 -43 -158q49 9 99.5 9t104.5 -9q-21 65 -42 158t-34 217q-4 35 -7 73l48 -50
q36 -40 78 -86t93 -101l13 9q-49 78 -84 144t-58 110q19 38 55 105t87 149l-13 10q-90 -97 -147 -162q-42 -48 -74 -80q-4 77 -4 164h-25zM1189 836q-90 -97 -147.5 -162.5t-96.5 -101.5q36 -36 72.5 -76t78.5 -86t93 -101l13 9q-49 78 -84 144t-58 110q19 38 55 105t87 149
zM731 336q-24 -20 -47 -37q-78 -60 -145 -97.5t-118 -57.5q39 -29 75 -65t69 -79q21 51 58 117.5t97 145.5q18 23 37 46q-11 12 -26 27zM355 910q-24 -20 -47 -37q-78 -60 -145 -97.5t-118 -57.5q39 -29 75 -65t69 -79q21 51 58 117q-3 -119 -13 -217q-13 -125 -34 -218
t-42 -158q48 9 99 9t104 -9q-21 65 -42 158t-34 217q-4 35 -6 73q23 -25 47 -50q36 -40 78 -86t93 -101l13 9q-49 78 -84 144t-58 110q19 38 55 105t87 149l-13 10q-90 -97 -147 -162q-42 -48 -74 -80q-4 66 -4 139q30 49 72 104q18 23 37 46q-11 12 -26 27z" />
</svg>
