<?xml version="1.0" standalone="no"?>
<!DOCTYPE svg PUBLIC "-//W3C//DTD SVG 1.1//EN" "http://www.w3.org/Graphics/SVG/1.1/DTD/svg11.dtd" >
<svg xmlns="http://www.w3.org/2000/svg" xmlns:xlink="http://www.w3.org/1999/xlink" version="1.1" viewBox="0 0 923 910">
   <path fill="currentColor"
d="M731 336zM757 309zM355 910zM381 883zM777 836q-90 -97 -147.5 -162.5t-96.5 -101.5q36 -36 72.5 -76t78.5 -86q34 -38 75 -81q-2 -9 -3 -18l-25 25q-24 -20 -47 -37q-78 -60 -145 -97.5t-118 -57.5q39 -29 75 -65t69 -79q21 51 58 117.5t97 145.5q16 21 35 43
q-1 -8 -3 -16q-21 -114 -42 -192q48 11 99 11t104 -11q-21 78 -42 191t-34 264t-13 345h-25q0 -193 -13 -344q-9 -106 -22 -194q-33 55 -58 102q-35 66 -58 110q19 38 55 105t87 149zM637 836q-90 -97 -147.5 -162.5t-96.5 -101.5q36 -36 72.5 -76t78.5 -86t93 -101l13 9
q-49 78 -84 144t-58 110q19 38 55 105t87 149zM497 836q-90 -97 -147 -162q-42 -48 -74 -80q-4 66 -4 139q30 49 72 104q18 23 37 46q-11 12 -26 27q-24 -20 -47 -37q-78 -60 -145 -97.5t-118 -57.5q39 -29 75 -65t69 -79q21 51 58 117q-3 -119 -13 -217q-13 -125 -34 -218
t-42 -158q48 9 99 9t104 -9q-21 65 -42 158t-34 217q-4 35 -6 73q23 -25 47 -50q36 -40 78 -86t93 -101l13 9q-49 78 -84 144t-58 110q19 38 55 105t87 149z" />
</svg>
