<?xml version="1.0" standalone="no"?>
<!DOCTYPE svg PUBLIC "-//W3C//DTD SVG 1.1//EN" "http://www.w3.org/Graphics/SVG/1.1/DTD/svg11.dtd" >
<svg xmlns="http://www.w3.org/2000/svg" xmlns:xlink="http://www.w3.org/1999/xlink" version="1.1" viewBox="0 0 1019 800">
   <path fill="currentColor"
d="M314 542q-90 -97 -147.5 -162.5t-97.5 -101.5q37 -36 73.5 -76t78 -86t93.5 -101l12 9q-49 78 -84 144t-58 110q19 38 55 105t87 149zM395 800q0 -126 -13.5 -224t-34 -171.5t-42.5 -124.5q48 7 99 7t105 -7q-22 51 -43 124t-34 171.5t-13 224.5h-24zM895 800
q0 -194 -13.5 -345t-34.5 -264q-3 -20 -7 -40q-126 0 -224 13.5t-171.5 34t-124.5 42.5q7 -48 7 -99t-7 -105q51 22 124.5 42.5t171.5 33.5q96 13 219 14q-15 -73 -30 -127q48 11 99 11t105 -11q-22 78 -43 190.5t-34 263.5t-13 346h-24z" />
</svg>
