<?xml version="1.0" standalone="no"?>
<!DOCTYPE svg PUBLIC "-//W3C//DTD SVG 1.1//EN" "http://www.w3.org/Graphics/SVG/1.1/DTD/svg11.dtd" >
<svg xmlns="http://www.w3.org/2000/svg" xmlns:xlink="http://www.w3.org/1999/xlink" version="1.1" viewBox="0 0 1159 811">
   <path fill="currentColor"
d="M395 800q0 -126 -13.5 -224t-34 -171.5t-42.5 -124.5q48 7 99 7t105 -7q-22 51 -43 124t-34 171.5t-13 224.5h-24zM314 542q-90 -97 -147.5 -162.5t-97.5 -101.5q37 -36 73.5 -76t78 -86t93.5 -101l12 9l-8 14q77 21 188 41q113 21 264 34q94 9 205 12q-15 -71 -30 -125
q48 11 99 11t105 -11q-17 61 -34 144v7h-1q-4 19 -8 40q-21 112 -34 263t-13 346h-24q0 -41 -1 -79q-113 1 -203 13q-98 14 -171.5 34.5t-124.5 42.5q7 -48 7 -99q0 -50 -6 -101h-1v-2v-2h1q6 -46 6 -95.5t-6 -100.5h-1v-2v-2h1q6 -46 6 -95q0 -51 -7 -105q51 22 124.5 42.5
t171.5 33.5q77 11 173 13q-8 -56 -17 -105q-3 -20 -7 -38q-113 3 -209 11q-151 14 -264.5 34.5t-191.5 42.5q11 -48 11 -99q0 -50 -10 -101q-43 68 -74 127q-35 66 -58 110q19 38 55 105t87 149zM1034 697q-2 -94 -8 -176q-108 2 -195 13q-98 14 -171 34q-71 20 -120 41
q49 21 119 40q74 21 172 34q89 13 203 14zM1025 496q-2 -21 -4 -41q-6 -71 -14 -133q-97 2 -176 12q-98 14 -171 34q-71 20 -120 41q49 21 119 40q74 21 172 34q86 12 194 13z" />
</svg>
