<?xml version="1.0" standalone="no"?>
<!DOCTYPE svg PUBLIC "-//W3C//DTD SVG 1.1//EN" "http://www.w3.org/Graphics/SVG/1.1/DTD/svg11.dtd" >
<svg xmlns="http://www.w3.org/2000/svg" xmlns:xlink="http://www.w3.org/1999/xlink" version="1.1" viewBox="0 0 1589 971">
   <path fill="currentColor"
d="M975 288zM975 250zM415 688zM415 650zM695 688zM695 650zM695 488zM695 450zM1464 870q0 -193 -13 -344t-34 -264.5t-42 -191.5q48 11 99 11t105 -11q-22 78 -43 191t-34 264t-13 345h-25zM1145 681q-126 0 -224 13.5t-171.5 34t-124.5 42.5q6 -37 7 -76q-96 13 -168 33
q-69 20 -119 41q77 20 186 40q113 21 264 34.5t345 13.5v24q-193 0 -344 13.5t-264.5 34t-191.5 42.5q11 -48 11 -99q0 -50 -10 -102q0 1 -1 1v-2v-2h1q5 -35 6 -71q-92 13 -163 32q-73 21 -124 43q7 -48 7 -99t-7 -105q51 22 124 42q70 20 163 33q-2 -35 -7 -71v-2v-2h1
q6 -46 6 -95q0 -51 -7 -105q51 22 124 42q72 21 168 34q-2 -37 -7 -74q-2 1 -5 2q7 -48 7 -99t-7 -105q51 22 124 42.5t172 33.5q16 3 33 5q29 -30 58 -61q37 -40 78.5 -86t93.5 -101l12 9q-20 32 -38 63q44 9 91 9q51 0 105 -11q-22 78 -43 191t-34 264t-13 345h-25
q0 -193 -13 -344t-34 -264q-19 -106 -39 -181q-23 38 -41 72q-35 66 -58 110q19 38 55 105t87 150l-12 8q-22 -23 -42 -45q-121 1 -216 13q-98 14 -172 34q-70 20 -120 41q50 21 120 40q73 21 171.5 34.5t224.5 13.5v24zM961 289q-23 2 -45 5q-98 14 -172 34q-68 20 -117 40
q50 21 122 41q73 21 172 34q85 12 193 13q-48 -51 -83 -92q-39 -44 -70 -75zM632 643q-2 -36 -7 -72v-2v-2v0q6 -35 7 -72q-96 13 -168 33q-70 20 -120 41q50 21 120 40q72 21 168 34z" />
</svg>
