<?xml version="1.0" standalone="no"?>
<!DOCTYPE svg PUBLIC "-//W3C//DTD SVG 1.1//EN" "http://www.w3.org/Graphics/SVG/1.1/DTD/svg11.dtd" >
<svg xmlns="http://www.w3.org/2000/svg" xmlns:xlink="http://www.w3.org/1999/xlink" version="1.1" viewBox="0 0 1553 906">
   <path fill="currentColor"
d="M943 708zM959 692zM1040 611zM1056 595zM1138 513zM1154 497zM922 492zM938 476zM415 538zM415 500zM943 708l-28 -22q-47 -36 -87 -58.5t-71 -34.5q24 -17 45.5 -39t40.5 -47q13 30 35 70t58 87q11 14 23 28zM1040 611q-14 -12 -27 -22q-48 -36 -88 -58.5t-70 -35.5
q18 -13 34 -29q-44 -33 -82 -55q-40 -22 -71 -34q23 -18 45 -39.5t41 -47.5q13 31 35 71q21 38 55 83q15 -17 29 -35q12 31 34.5 71t58.5 87q10 13 22 28zM1138 513q-14 -12 -28 -22q-47 -36 -87 -58.5t-71 -34.5q24 -17 45.5 -39t41.5 -48q12 31 34.5 71t58.5 87
q10 14 22 28zM1420 816q-160 0 -284.5 13.5t-217.5 34t-158 42.5q9 -48 9 -99t-9 -105q65 22 158 42.5t217.5 34t284.5 13.5v24zM1526 865q-120 -129 -196.5 -216t-129.5 -135q49 -49 97.5 -102t104 -114.5t124.5 -134.5l17 12q-66 104 -112.5 192t-77.5 147q26 50 74 139.5
t116 199.5zM1262 449q-89 -89 -167.5 -149t-145.5 -97.5t-118 -58.5q39 -28 75 -64t69 -80q21 52 58 118.5t97 145t149 167.5zM585 761q-126 0 -224 13.5t-171.5 34t-124.5 42.5q7 -48 7 -99t-7 -105q51 22 124 42.5t172 33.5q91 13 207 14q-44 -48 -79 -88
q-57 -65 -101 -108q-16 1 -32 3q-98 14 -171.5 34.5t-124.5 42.5q7 -48 7 -99t-7 -105q51 22 124 42.5t172 33.5q10 2 21 3q40 -40 80 -84q48 -51 102 -111q-110 2 -198 13q-98 14 -171.5 34.5t-124.5 42.5q7 -48 7 -99t-7 -105q51 22 124 42.5t172 33.5q96 13 220 14
q48 -53 105 -114l17 12q-66 104 -112.5 192t-77.5 147q26 50 74 139.5t116 199.5l-17 12q-55 -59 -101 -110v6z" />
</svg>
