<?xml version="1.0" standalone="no"?>
<!DOCTYPE svg PUBLIC "-//W3C//DTD SVG 1.1//EN" "http://www.w3.org/Graphics/SVG/1.1/DTD/svg11.dtd" >
<svg xmlns="http://www.w3.org/2000/svg" xmlns:xlink="http://www.w3.org/1999/xlink" version="1.1" viewBox="0 0 1445 899">
   <path fill="currentColor"
d="M1435 401q-126 0 -224 13.5t-172 33.5q-70 20 -120 41q50 21 120 40q73 21 171.5 34.5t224.5 13.5v24q-126 0 -224 13.5t-171.5 34t-124.5 42.5q7 -48 7 -99q0 -50 -7 -101v-2v-2v0q7 -46 7 -95q0 -51 -7 -105q51 22 124 42.5t171.5 34t224.5 13.5v24zM860 809
q-193 0 -344 13.5t-264.5 34t-191.5 42.5q11 -48 11 -99t-11 -105q78 22 191 42.5t264 33.5q145 13 329 14q0 -98 -4 -184q-153 1 -274 13q-125 14 -218 34.5t-158 42.5q9 -48 9 -99q0 -50 -8 -101h-1v-2v-2h1q8 -46 8 -95.5t-8 -100.5h-1v-2v-2h1q8 -46 8 -95
q0 -51 -9 -105q65 22 158 42.5t217 33.5q103 11 229 13q-19 -103 -39 -176q48 11 99 11t105 -11q-22 78 -43 191t-34 264t-13 345h-9v9zM196 489q63 21 152 40q93 21 217 34q121 13 274 14q-3 -64 -8 -121q-2 -28 -5 -55q-145 1 -260 13q-125 14 -218 34q-89 20 -152 41z
M196 289q63 21 152 40q93 21 217 34q114 13 258 14q-10 -97 -24 -175q-129 1 -233 12q-125 14 -218 34q-89 20 -152 41z" />
</svg>
