<?xml version="1.0" standalone="no"?>
<!DOCTYPE svg PUBLIC "-//W3C//DTD SVG 1.1//EN" "http://www.w3.org/Graphics/SVG/1.1/DTD/svg11.dtd" >
<svg xmlns="http://www.w3.org/2000/svg" xmlns:xlink="http://www.w3.org/1999/xlink" version="1.1" viewBox="0 0 1287 910">
   <path fill="currentColor"
d="M692 501zM692 463zM692 731zM692 693zM699 336zM725 309zM355 910zM381 883zM1277 494q-160 0 -284.5 13.5t-218 34t-157.5 42.5q7 -37 9 -76q-94 13 -165 33q-73 21 -124 43q7 -48 7 -99t-7 -105q51 22 124 42q71 20 164 33q-1 -37 -8 -75q64 22 157 42.5t218 34
t285 13.5v24zM1277 724q-160 0 -284.5 13.5t-218 34t-157.5 42.5q7 -37 9 -76q-94 13 -165 33q-73 21 -124 43q7 -48 7 -99t-7 -105q51 22 124 42q71 20 164 33q-1 -37 -8 -75q64 22 157 42.5t218 34t285 13.5v24zM699 336q-24 -20 -47 -37q-78 -60 -145 -97.5t-118 -57.5
q39 -29 75 -65t69 -79q21 51 58 117.5t97 145.5q18 23 37 46q-11 12 -26 27zM355 910q-24 -20 -47 -37q-78 -60 -145 -97.5t-118 -57.5q39 -29 75 -65t69 -79q21 51 58 117q-3 -119 -13 -217q-13 -125 -34 -218t-42 -158q48 9 99 9t104 -9q-21 65 -42 158t-34 217
q-12 115 -13 260q30 49 72 104q18 23 37 46q-11 12 -26 27z" />
</svg>
