<?xml version="1.0" standalone="no"?>
<!DOCTYPE svg PUBLIC "-//W3C//DTD SVG 1.1//EN" "http://www.w3.org/Graphics/SVG/1.1/DTD/svg11.dtd" >
<svg xmlns="http://www.w3.org/2000/svg" xmlns:xlink="http://www.w3.org/1999/xlink" version="1.1" viewBox="0 0 1499 812">
   <path fill="currentColor"
d="M1462 812zM1489 785zM1232 812zM1259 785zM415 498zM415 460zM695 498zM695 460zM1462 812q-24 -20 -46 -37q-79 -60 -146 -97.5t-118 -57.5q39 -29 75 -65t69 -79q21 51 58 117q-2 -119 -13 -217q-13 -125 -34 -218t-42 -158q48 9 99 9t105 -9q-22 65 -43 158t-34 217
q-12 115 -13 260q31 49 72 104q18 23 38 46zM1232 812q-24 -20 -46 -37q-39 -30 -75 -54q-176 1 -315 13q-151 14 -264.5 34.5t-191.5 42.5q11 -48 11 -99t-11 -105q78 22 191 42.5t264 33.5q124 11 277 13q-16 -10 -32 -18q-67 -38 -118 -58q39 -29 75 -65q29 -29 56 -62
q-71 3 -132 11q-98 14 -171.5 34.5t-124.5 42.5q6 -37 7 -76q-96 13 -168 33q-73 21 -124 43q6 -37 7 -75q-92 13 -163 32q-73 21 -124 43q7 -48 7 -99t-7 -105q51 22 124 42q70 20 163 33q-2 -37 -7 -75q51 22 124 42q72 21 168 34q-2 -37 -7 -76q51 22 124 42.5t172 33.5
q87 12 198 13q-3 -47 -8 -90q-6 -61 -15 -115q-167 2 -300 13q-151 14 -264.5 34.5t-191.5 42.5q11 -48 11 -99t-11 -105q78 22 191 42.5t264 33.5q132 12 297 13q-7 -41 -15 -78q-21 -93 -42 -158q48 9 99 9t105 -9q-22 65 -43 158t-34 217q-12 115 -13 260q31 49 72 104
q18 23 38 46zM1124 593q-1 -53 -4 -102q-24 1 -47 1q20 45 51 101z" />
</svg>
