<?xml version="1.0" standalone="no"?>
<!DOCTYPE svg PUBLIC "-//W3C//DTD SVG 1.1//EN" "http://www.w3.org/Graphics/SVG/1.1/DTD/svg11.dtd" >
<svg xmlns="http://www.w3.org/2000/svg" xmlns:xlink="http://www.w3.org/1999/xlink" version="1.1" viewBox="0 0 1300 813">
   <path fill="currentColor"
d="M775 662zM801 635zM937 500zM964 473zM1100 337zM1127 310zM424 803q0 -193 -13 -344q0 -7 -1 -13q-28 3 -54 6q-98 14 -171.5 34.5t-124.5 42.5q7 -48 7 -99t-7 -105q51 22 124 42.5t172 33.5q24 4 50 6q-12 -119 -29 -212q-20 -114 -42 -192q48 11 99 11t105 -11
q-22 78 -43 191q-17 95 -30 218q32 1 65 2l9 -9q36 -36 69 -79q21 51 58 117.5t97 145.5q17 23 37 46q-12 12 -26 27q-24 -19 -47 -37q-78 -60 -145 -97.5t-118 -57.5q19 -14 37 -29q-20 0 -38 1l-2 16q-13 151 -13 345h-25zM937 500q-23 -20 -46 -37q-79 -60 -145.5 -97.5
t-117.5 -58.5q39 -29 75 -65t69 -79q20 51 57.5 117.5t97.5 145.5q17 23 37 47zM1100 337q-24 -20 -46 -37q-79 -60 -146 -97.5t-118 -57.5q39 -29 75 -65t69 -80q21 52 58 118.5t97 144.5q18 23 38 47zM1253 813q-76 -75 -155 -114t-155 -51.5t-140 -9.5q78 -69 156 -147
t156 -165q-3 64 9.5 140t51 155t114.5 155z" />
</svg>
