<?xml version="1.0" standalone="no"?>
<!DOCTYPE svg PUBLIC "-//W3C//DTD SVG 1.1//EN" "http://www.w3.org/Graphics/SVG/1.1/DTD/svg11.dtd" >
<svg xmlns="http://www.w3.org/2000/svg" xmlns:xlink="http://www.w3.org/1999/xlink" version="1.1" viewBox="0 0 1384 702">
   <path fill="currentColor"
d="M789 565zM789 527zM789 335zM789 297zM1374 558q-159 0 -283.5 13.5t-218 34t-158.5 42.5q7 -37 9 -76q-94 13 -164 33q-74 21 -125 43q8 -48 8 -99t-8 -105q51 22 124 42q71 20 165 33q-2 -37 -9 -75q65 22 158 42.5t217.5 34t284.5 13.5v24zM1374 328
q-159 0 -283.5 13.5t-218 34t-158.5 42.5q7 -37 9 -76q-94 13 -164 33q-74 21 -125 43q8 -48 8 -99t-8 -105q51 22 124 42q71 20 165 33q-2 -37 -9 -75q65 22 158 42.5t217.5 34t284.5 13.5v24zM386 702q-120 -129 -196.5 -216t-129.5 -135q49 -49 97.5 -102t104.5 -114.5
t124 -134.5l17 12q-65 104 -112 192t-77 147q25 50 73 139.5t116 199.5z" />
</svg>
