<?xml version="1.0" standalone="no"?>
<!DOCTYPE svg PUBLIC "-//W3C//DTD SVG 1.1//EN" "http://www.w3.org/Graphics/SVG/1.1/DTD/svg11.dtd" >
<svg xmlns="http://www.w3.org/2000/svg" xmlns:xlink="http://www.w3.org/1999/xlink" version="1.1" viewBox="0 0 1810 853">
   <path fill="currentColor"
d="M1774 336zM1800 310zM1285 825zM1312 798zM1448 662zM1475 635zM1611 499zM1637 473zM800 853zM827 826zM963 690zM990 663zM1126 527zM1152 501zM765 492zM792 465zM1774 336q-24 -19 -47 -37q-78 -60 -145 -97t-118 -58q39 -29 75 -65t69 -79q21 51 58 117.5t97 145.5
q17 23 37 47q-12 11 -26 26zM1285 825q-23 -20 -46 -37q-79 -60 -145.5 -97.5t-117.5 -58.5q39 -29 75 -65q27 -27 52 -58q-12 -10 -24 -19q-78 -60 -145 -97t-118 -58q39 -29 75 -65t69 -79q21 51 58 117.5t97 145.5q17 23 37 47l-19 19q18 39 44 86q38 67 98 145
q17 23 37 47zM1448 662q-24 -20 -46 -37q-79 -60 -145.5 -97.5t-118.5 -57.5q39 -29 75 -65t69 -79q21 51 58 117.5t97 145.5q18 22 38 46zM1611 499q-24 -19 -47 -37q-78 -60 -145 -97t-118 -58q39 -29 75 -65t69 -79q21 51 58 117.5t97 145.5q17 23 37 47q-12 11 -26 26z
M800 853q-23 -20 -46 -37q-79 -60 -145.5 -97.5t-117.5 -58.5q39 -29 75 -65l5 -5q-120 1 -215 13q-98 14 -171.5 34.5t-124.5 42.5q7 -48 7 -99t-7 -105q51 22 124 42.5t171.5 34t224.5 13.5v15q28 -30 55 -65q20 52 57.5 118.5t97.5 144.5q17 23 37 47zM963 690
q-24 -20 -46 -37q-79 -60 -145.5 -97.5t-118.5 -57.5q30 -22 58 -49q-74 -56 -138 -91q-15 -9 -29 -17q-104 2 -188 13q-98 14 -171.5 34.5t-124.5 42.5q7 -48 7 -99t-7 -105q51 22 124 42.5t172 33.5q61 9 134 12q-18 -9 -35 -15q39 -29 75 -65t69 -79q21 51 58 117
q36 64 92 139q25 -28 48 -58q21 51 58 117.5t97 145.5q18 22 38 46z" />
</svg>
