<?xml version="1.0" standalone="no"?>
<!DOCTYPE svg PUBLIC "-//W3C//DTD SVG 1.1//EN" "http://www.w3.org/Graphics/SVG/1.1/DTD/svg11.dtd" >
<svg xmlns="http://www.w3.org/2000/svg" xmlns:xlink="http://www.w3.org/1999/xlink" version="1.1" viewBox="0 0 1320 763">
   <path fill="currentColor"
d="M1310 114q-193 0 -344 13.5t-264.5 34t-191.5 42.5q11 -48 11 -99t-11 -105q78 22 191 42.5t264 34t345 13.5v24zM585 344q-126 0 -224 13.5t-171.5 34t-124.5 42.5q7 -48 7 -99t-7 -105q51 22 124 42.5t171.5 34t224.5 13.5v24zM881 539q-13 -98 -33.5 -171.5
t-42.5 -124.5q48 7 99 7t105 -7q-22 51 -43 124t-34 172v2q171 9 378 9v24q-210 0 -383 9q-8 81 -8 180h-25q0 -97 -7 -178l-42 2q-204 14 -356.5 34.5t-258.5 42.5q15 -48 15 -99t-15 -105q106 22 258 42.5t356 33.5q18 2 37 3z" />
</svg>
