<?xml version="1.0" standalone="no"?>
<!DOCTYPE svg PUBLIC "-//W3C//DTD SVG 1.1//EN" "http://www.w3.org/Graphics/SVG/1.1/DTD/svg11.dtd" >
<svg xmlns="http://www.w3.org/2000/svg" xmlns:xlink="http://www.w3.org/1999/xlink" version="1.1" viewBox="0 0 1320 763">
   <path fill="currentColor"
d="M585 344q-126 0 -224 13.5t-171.5 34t-124.5 42.5q7 -48 7 -99t-7 -105q51 22 124 42.5t171.5 34t224.5 13.5v24zM1310 114q-193 0 -344 13.5t-264.5 34t-191.5 42.5q11 -48 11 -99t-11 -105q78 22 191 42.5t264 34t345 13.5v24zM1112 548q0 -5 -1 -9
q-13 -98 -33.5 -171.5t-42.5 -124.5q48 7 99 7t105 -7q-22 51 -43 124t-34 172q0 4 -1 10q72 1 149 1v24q-79 0 -152 1q-9 85 -9 188h-25q0 -103 -8 -187q-100 2 -189 7q-8 81 -8 180h-25q0 -97 -7 -178l-42 2q-78 5 -149 12q-7 75 -7 164h-25q0 -87 -6 -161q-91 9 -169 19
q-153 21 -259 43q15 -48 15 -99t-15 -105q106 22 258 42q74 11 161 19q-13 -87 -32 -154q-20 -73 -42 -124q48 7 99 7t105 -7q-22 51 -43 124q-19 69 -32 159q67 6 140 10q18 2 37 3q-13 -98 -33.5 -171.5t-42.5 -124.5q48 7 99 7t105 -7q-22 51 -43 124t-34 172v2
q86 5 180 7z" />
</svg>
