<?xml version="1.0" standalone="no"?>
<!DOCTYPE svg PUBLIC "-//W3C//DTD SVG 1.1//EN" "http://www.w3.org/Graphics/SVG/1.1/DTD/svg11.dtd" >
<svg xmlns="http://www.w3.org/2000/svg" xmlns:xlink="http://www.w3.org/1999/xlink" version="1.1" viewBox="0 0 1841 820">
   <path fill="currentColor"
d="M1054 463zM1054 425zM390 775zM417 748zM553 612zM579 585zM715 449zM742 423zM355 414zM381 387zM1818 526q-90 -96 -147.5 -161.5t-96.5 -101.5q36 -36 72.5 -76t78.5 -86t93 -101l13 9q-49 78 -84 144t-58 110q19 38 55 105t87 150zM1493 820q0 -193 -13.5 -344
t-34 -264.5t-42.5 -191.5q48 11 99 11t105 -11q-22 78 -42.5 191t-34 264t-13.5 345h-24zM1263 820q0 -193 -13.5 -344t-34 -264.5t-42.5 -191.5q48 11 99 11t105 -11q-22 78 -42.5 191t-34 264t-13.5 345h-24zM1033 820q0 -193 -13 -344q-1 -5 -1 -10q-12 2 -24 3
q-98 14 -171.5 34.5t-124.5 42.5q7 -48 7 -99v-5q-19 -16 -37 -30q-79 -60 -145.5 -97t-117.5 -58q39 -29 75 -65t69 -79q20 51 58 118q36 65 94 142q-1 -15 -3 -31q51 22 124 42.5t171 33.5q10 2 20 3q-12 -117 -28 -209q-21 -114 -43 -192q48 11 99 11t105 -11
q-22 78 -42.5 191t-34 264t-13.5 345h-24zM390 775q-24 -20 -46 -37q-79 -60 -145.5 -97.5t-118.5 -58.5q40 -29 76 -65t68 -79q21 52 58 118.5t97 144.5q18 23 38 47zM553 612q-24 -20 -47 -37q-78 -60 -145 -97.5t-118 -57.5q30 -22 58 -49q-74 -56 -138 -91
q-67 -38 -118 -58q39 -29 75 -65t69 -79q21 51 58 117q35 64 92 139q25 -28 48 -58q21 51 58 117.5t97 145.5q17 22 37 46q-11 12 -26 27z" />
</svg>
