<?xml version="1.0" standalone="no"?>
<!DOCTYPE svg PUBLIC "-//W3C//DTD SVG 1.1//EN" "http://www.w3.org/Graphics/SVG/1.1/DTD/svg11.dtd" >
<svg xmlns="http://www.w3.org/2000/svg" xmlns:xlink="http://www.w3.org/1999/xlink" version="1.1" viewBox="0 0 1264 800">
   <path fill="currentColor"
d="M442 355zM480 355zM672 355zM710 355zM902 355zM940 355zM1139 800q0 -193 -13 -344t-33.5 -264.5t-42.5 -191.5q48 11 99 11t105 -11q-22 78 -43 191t-34 264t-13 345h-25zM442 355q-2 -31 -6 -59q-13 -98 -34 -171.5t-43 -124.5q48 7 99 7t105 -7q-22 51 -42.5 124
t-33.5 172q-4 28 -7 59h-38zM672 355q-2 -31 -6 -59q-13 -98 -34 -171.5t-43 -124.5q48 7 99 7t105 -7q-22 51 -42.5 124t-33.5 172q-4 28 -7 59h-38zM902 355q-2 -31 -6 -59q-13 -98 -34 -171.5t-43 -124.5q48 7 99 7t105 -7q-22 51 -42.5 124t-33.5 172q-4 28 -7 59h-38z
M673 800q0 -107 -28 -190q-26 -75 -65 -134v15q-126 0 -224 13.5t-171.5 34t-124.5 42.5q7 -48 7 -99t-7 -105q51 22 124 42.5t172 33.5q95 13 217 14q-1 -2 -2 -3q-45 -63 -91 -106q104 6 214 6t226 -6q-47 43 -92 105.5t-73.5 146t-28.5 190.5h-53z" />
</svg>
