<?xml version="1.0" standalone="no"?>
<!DOCTYPE svg PUBLIC "-//W3C//DTD SVG 1.1//EN" "http://www.w3.org/Graphics/SVG/1.1/DTD/svg11.dtd" >
<svg xmlns="http://www.w3.org/2000/svg" xmlns:xlink="http://www.w3.org/1999/xlink" version="1.1" viewBox="0 0 1494 800">
   <path fill="currentColor"
d="M1207 466zM1235 466zM442 355zM480 355zM672 355zM710 355zM902 355zM940 355zM1040 800q0 -145 -10 -258t-25.5 -198t-32.5 -144q36 8 74.5 8t78.5 -8q-16 59 -31.5 143.5t-25.5 197.5t-10 259h-18zM1212 800q0 -94 -10 -167.5t-25.5 -129t-31.5 -93.5q27 4 56 5
q-10 -69 -24 -122q-16 -55 -32 -93q36 6 74 6t79 -6q-17 38 -32 93q-15 53 -25 122q28 -1 57 -5q-17 38 -32.5 93t-25.5 128.5t-10 168.5h-18zM1369 800q0 -193 -13 -344t-33.5 -264.5t-42.5 -191.5q48 11 99 11t105 -11q-22 78 -43 191t-34 264t-13 345h-25zM442 355
q-2 -31 -6 -59q-13 -98 -34 -171.5t-43 -124.5q48 7 99 7t105 -7q-22 51 -42.5 124t-33.5 172q-4 28 -7 59h-38zM672 355q-2 -31 -6 -59q-13 -98 -34 -171.5t-43 -124.5q48 7 99 7t105 -7q-22 51 -42.5 124t-33.5 172q-4 28 -7 59h-38zM902 355q-2 -31 -6 -59
q-13 -98 -34 -171.5t-43 -124.5q48 7 99 7t105 -7q-22 51 -42.5 124t-33.5 172q-4 28 -7 59h-38zM673 800q0 -107 -28 -190q-26 -75 -65 -134v15q-126 0 -224 13.5t-171.5 34t-124.5 42.5q7 -48 7 -99t-7 -105q51 22 124 42.5t172 33.5q95 13 217 14q-1 -2 -2 -3
q-45 -63 -91 -106q104 6 214 6t226 -6q-47 43 -92 105.5t-73.5 146t-28.5 190.5h-53z" />
</svg>
