<?xml version="1.0" standalone="no"?>
<!DOCTYPE svg PUBLIC "-//W3C//DTD SVG 1.1//EN" "http://www.w3.org/Graphics/SVG/1.1/DTD/svg11.dtd" >
<svg xmlns="http://www.w3.org/2000/svg" xmlns:xlink="http://www.w3.org/1999/xlink" version="1.1" viewBox="0 0 2570 1036">
   <path fill="currentColor"
d="M2045 789zM2071 762zM2207 627zM2234 600zM2370 464zM2397 437zM2045 789q-24 -19 -47 -37q-78 -60 -145 -97q-34 -19 -64 -34q-122 0 -218 13q-98 14 -171.5 34.5t-124.5 42.5q7 -48 7 -99q0 -46 -6 -94q-84 -91 -139 -154q-44 -50 -78 -83q-147 1 -263 13
q-124 13 -217.5 34t-158.5 42q10 -48 10 -99t-10 -104q65 21 158 42t217 34q112 12 252 13q33 -33 66 -69q37 -40 78.5 -86t93.5 -101l12 9q-49 78 -84 144t-58 110q19 38 55 105q27 49 62 107q9 -45 9 -93q0 -51 -11 -105q78 22 191 42.5t264 33.5q113 10 251 13
q35 -35 66 -76q20 51 57.5 117.5t97.5 145.5q17 23 37 47l-27 27q-23 -20 -46 -37q-79 -60 -145.5 -97.5t-117.5 -58.5q26 -19 51 -41q-121 2 -223 11q-151 14 -264 34q-111 21 -188 42q11 17 22 36q45 17 103 33q74 21 172 34q74 10 165 13q39 -29 74 -64q36 -36 69 -79
q21 51 58 117.5t97 145.5q18 23 37 46q-11 12 -26 27zM2370 464q-24 -20 -46 -37q-79 -60 -145.5 -97.5t-118.5 -57.5q40 -29 76 -65t68 -80q21 52 58 118.5t97 144.5q18 23 38 47zM2523 940q-76 -75 -155 -114t-155 -51.5t-140 -9.5q78 -69 156 -147t156 -165
q-3 64 9.5 140t51 155t114.5 155zM2350 851q-261 0 -464.5 13.5t-356.5 34t-259 42.5q15 -48 15 -99t-15 -105q106 22 258 42.5t356 34t466 13.5v24zM386 900q-120 -129 -196.5 -216t-129.5 -135q49 -49 97.5 -102t104.5 -114.5t124 -134.5l17 12q-65 104 -112 192t-77 147
q25 50 73 139.5t116 199.5zM1220 946q-193 0 -344 13.5t-264.5 34t-191.5 42.5q11 -48 11 -99t-11 -105q78 22 191 42.5t264 34t345 13.5v24z" />
</svg>
