<?xml version="1.0" standalone="no"?>
<!DOCTYPE svg PUBLIC "-//W3C//DTD SVG 1.1//EN" "http://www.w3.org/Graphics/SVG/1.1/DTD/svg11.dtd" >
<svg xmlns="http://www.w3.org/2000/svg" xmlns:xlink="http://www.w3.org/1999/xlink" version="1.1" viewBox="0 0 2263 899">
   <path fill="currentColor"
d="M1018 355zM1056 355zM2253 151q-261 0 -465 13.5t-356.5 34t-258.5 42.5q15 -48 15 -99t-15 -105q106 22 258 42.5t356 34t466 13.5v24zM1140 809q-261 0 -465 13.5t-356.5 34t-258.5 42.5q15 -48 15 -99q0 -50 -14 -102l-1 1v-3v-1h1q6 -46 6 -95q0 -51 -7 -105
q51 22 124 42.5t172 33.5q73 10 161 13q-1 -42 -7 -85v-2v-2h1q6 -46 6 -95.5t-7 -100.5v-2v-2h1q6 -46 6 -95q0 -51 -7 -105q51 22 124 42.5t172 33.5q83 12 186 13q-7 -31 -15 -60q-21 -73 -42 -124q48 7 99 7t105 -7q-22 51 -43 124q-20 70 -33 163q37 -2 76 -7
q-22 51 -43 124t-34 172q-12 92 -13 208q45 1 91 1v24zM1965 582q0 -3 -1 -6q-13 -98 -34 -171.5t-42 -124.5q48 7 99 7t105 -7q-22 51 -43 124t-34 172q0 4 -1 8q113 3 239 3v24q-128 0 -242 3q-9 84 -9 186h-25q0 -101 -8 -184q-96 3 -181 8q-4 1 -9 1q-7 79 -7 175h-25
q0 -94 -7 -172q-103 7 -192 16q-6 72 -6 156h-25q0 -82 -5 -152q-42 5 -80 10q-153 21 -259 43q15 -48 15 -99t-15 -105q106 22 258 42q33 5 69 9q-12 -81 -30 -144q-21 -73 -42 -124q48 7 99 7t105 -7q-22 51 -43 124q-18 66 -31 151q82 8 175 15q-13 -94 -33 -166
q-21 -73 -42 -124q48 7 99 7t105 -7q-22 51 -43 124q-20 73 -34 169h2q84 6 178 9zM514 497q50 21 120 40q73 21 172 34q91 13 206 14q0 -5 -1 -9q-13 -94 -32 -166q-95 2 -173 12q-98 14 -172 34q-70 20 -120 41zM517 610q-88 3 -161 12q-98 14 -172 34q-69 20 -118 40
q104 21 252 41q152 21 356 34q158 11 350 13q0 -96 -9 -175q-117 1 -209 13q-98 14 -171.5 34.5t-124.5 42.5q7 -43 7 -89zM514 297q50 21 120 40q73 21 172 34q74 10 165 13q-18 -60 -36 -104q37 6 75 7q-6 -41 -13 -78q-106 2 -191 13q-98 14 -172 34q-70 20 -120 41z" />
</svg>
