<?xml version="1.0" standalone="no"?>
<!DOCTYPE svg PUBLIC "-//W3C//DTD SVG 1.1//EN" "http://www.w3.org/Graphics/SVG/1.1/DTD/svg11.dtd" >
<svg xmlns="http://www.w3.org/2000/svg" xmlns:xlink="http://www.w3.org/1999/xlink" version="1.1" viewBox="0 0 1923 819">
   <path fill="currentColor"
d="M1485 351zM1485 313zM1485 581zM1485 543zM685 662zM711 635zM847 500zM874 473zM1010 337zM1037 310zM1684 819q-90 -96 -148 -162q-39 -44 -69 -74q-21 2 -41 4q-98 14 -171.5 34.5t-124.5 42.5q7 -48 7 -99t-7 -105q51 22 124.5 42.5t171.5 33.5q14 2 29 4
q28 -29 57 -60q17 -19 36 -39l-12 -14q-39 -44 -69 -74q-21 2 -41 4q-98 14 -171.5 34.5t-124.5 42.5q7 -48 7 -99t-7 -105q51 22 124.5 42.5t171.5 33.5q14 2 29 4q28 -29 57 -60q37 -40 78.5 -86t93.5 -101l12 9q-49 78 -84 144t-58 110q14 27 36 69v-1q42 -46 94 -101
l12 9q-47 75 -81 139q34 63 81 140l-12 8q-53 -56 -94 -101q-21 39 -36 68q19 38 55 105t87 150zM1798 803q0 -193 -13 -344t-33.5 -264.5t-42.5 -191.5q48 11 99 11t105 -11q-22 78 -43 191t-34 264t-13 345h-25zM685 662q-24 -19 -47 -37q-35 -27 -69 -50q-119 1 -213 13
q-98 14 -171.5 34.5t-124.5 42.5q7 -48 7 -99t-7 -105q51 22 124 42.5t172 33.5q78 11 175 13q-20 -12 -38 -22q-67 -38 -118 -58q39 -29 75 -65q27 -27 53 -58q-80 2 -147 11q-98 14 -171.5 34.5t-124.5 42.5q7 -48 7 -99t-7 -105q51 22 124 42.5t172 33.5q93 13 213 14
q-16 -8 -31 -14q39 -29 75 -65t69 -79q20 51 57.5 117.5t97.5 145.5q17 23 37 47l-27 27q-23 -20 -46 -37q-79 -60 -145 -98q-41 -23 -76 -39v19q-27 0 -53 1q20 44 50 98q37 66 97 145q17 23 37 46q-11 12 -26 27zM1010 337q-24 -20 -46 -37q-79 -60 -145.5 -97.5
t-118.5 -57.5q39 -29 75 -65t69 -80q21 52 58 118.5t97 144.5q18 23 38 47zM1163 813q-76 -75 -155 -114t-155 -51.5t-140 -9.5q78 -69 156 -147t156 -165q-3 64 9.5 140t51 155t114.5 155z" />
</svg>
