<?xml version="1.0" standalone="no"?>
<!DOCTYPE svg PUBLIC "-//W3C//DTD SVG 1.1//EN" "http://www.w3.org/Graphics/SVG/1.1/DTD/svg11.dtd" >
<svg xmlns="http://www.w3.org/2000/svg" xmlns:xlink="http://www.w3.org/1999/xlink" version="1.1" viewBox="0 0 1465 601">
   <path fill="currentColor"
d="M1455 511q-160 0 -284.5 13.5t-217.5 34t-158 42.5q8 -44 9 -90q-5 1 -10 1q2 3 3 6l-12 8l-14 -14q-140 2 -255 12q-151 14 -264.5 34.5t-191.5 42.5q11 -48 11 -99t-11 -105q78 22 191 42.5t264 33.5q105 10 232 12q-65 -70 -110 -121q-44 -50 -78 -83q-110 2 -198 13
q-98 14 -171.5 34.5t-124.5 42.5q7 -48 7 -99t-7 -105q51 22 124 42.5t172 33.5q82 12 186 13q33 -33 66 -69q37 -40 78.5 -86t93.5 -101l12 9q-49 78 -84 144t-58 110q19 38 55 105q29 54 68 118h26q-1 -43 -9 -89q65 22 158 42.5t217.5 34t284.5 13.5v24zM1455 281
q-160 0 -284.5 13.5t-217.5 34t-158 42.5q9 -48 9 -99t-9 -105q65 22 158 42.5t217.5 34t284.5 13.5v24z" />
</svg>
