<?xml version="1.0" standalone="no"?>
<!DOCTYPE svg PUBLIC "-//W3C//DTD SVG 1.1//EN" "http://www.w3.org/Graphics/SVG/1.1/DTD/svg11.dtd" >
<svg xmlns="http://www.w3.org/2000/svg" xmlns:xlink="http://www.w3.org/1999/xlink" version="1.1" viewBox="0 0 1659 906">
   <path fill="currentColor"
d="M973 564zM989 548zM1070 466zM1087 450zM1168 369zM1184 353zM580 666q-126 0 -224 13.5t-171.5 34t-124.5 42.5q7 -48 7 -99t-7 -105q51 22 124 42.5t172 33.5q91 13 207 14q-44 -48 -79 -88q-76 -87 -129 -135q49 -49 97 -102q48 -51 102 -111q-110 2 -198 13
q-98 14 -171.5 34.5t-124.5 42.5q7 -48 7 -99t-7 -105q51 22 124 42.5t172 33.5q96 13 220 14q48 -53 105 -114l17 12q-66 104 -112.5 192t-77.5 147q26 50 74 139.5t116 199.5l-17 12q-55 -59 -101 -110v6zM1509 816q-193 0 -344 13.5t-264.5 34t-191.5 42.5q11 -48 11 -99
t-11 -105q78 22 191 42.5t264 34t345 13.5v24zM973 564q-14 -12 -28 -22q-21 -17 -41 -30q-72 0 -128 7q-59 8 -103 20.5t-75 25.5q5 -29 5 -59.5t-5 -62.5q31 13 75 25.5t102 20.5q48 6 105 8q-11 -8 -22 -14q-40 -22 -71 -35q24 -17 45 -39q17 -16 32 -35q-48 2 -88 7
q-59 8 -103 20.5t-75 25.5q5 -29 5 -59.5t-5 -62.5q31 13 75 25.5t102 20.5q57 7 128 8q-9 -5 -18 -8q23 -18 44.5 -39.5t41.5 -47.5q12 31 34.5 71t58.5 87q11 14 23 28l-17 16q-14 -12 -27 -22q-48 -36 -88 -58q-24 -14 -45 -24v12h-31q11 26 29 59q22 39 58 87
q11 13 23 28zM1168 369q-14 -12 -28 -23q-47 -36 -87 -58t-71 -35q24 -17 45 -39q19 -18 36 -39q-89 10 -162 23q-114 21 -192 43q11 -48 11 -99t-11 -105q78 22 191 42.5t264 33.5q137 12 311 14q-15 -72 -30 -127q48 11 99 11t105 -11q-22 78 -43 191t-34 264t-13 345h-25
q0 -159 -8 -289q-60 1 -108 8q-59 8 -103 20.5t-75 25.5q5 -29 5 -59.5t-5 -63.5q31 13 75 25.5t102 20.5q48 7 107 8q-1 -21 -3 -40q-4 -43 -8 -82q-52 1 -95 7q-59 8 -103 20.5t-75 25.5q5 -29 5 -59.5t-5 -63.5q31 13 75 25.5t102 20.5q43 6 94 8q-10 -92 -24 -166
q-4 -21 -7 -41q-176 1 -315 13q-49 5 -93 10q12 28 31 63q23 40 59 88q10 13 22 28zM1260 655q-46 -46 -93.5 -69t-93 -30.5t-83.5 -6.5q47 -41 93.5 -88t93.5 -99q-2 39 5.5 84t31 92.5t68.5 93.5z" />
</svg>
