<?xml version="1.0" standalone="no"?>
<!DOCTYPE svg PUBLIC "-//W3C//DTD SVG 1.1//EN" "http://www.w3.org/Graphics/SVG/1.1/DTD/svg11.dtd" >
<svg xmlns="http://www.w3.org/2000/svg" xmlns:xlink="http://www.w3.org/1999/xlink" version="1.1" viewBox="0 0 2112 896">
   <path fill="currentColor"
d="M1663 532zM1663 504zM1287 466zM1315 466zM823 653zM839 637zM920 556zM936 540zM1018 458zM1034 442zM802 437zM818 421zM580 666q-126 0 -224 13.5t-171.5 34t-124.5 42.5q7 -48 7 -99t-7 -105q51 22 124 42.5t172 33.5q91 13 207 14q-44 -48 -79 -88
q-76 -87 -129 -135q49 -49 97 -102q48 -51 102 -111q-110 2 -198 13q-98 14 -171.5 34.5t-124.5 42.5q7 -48 7 -99t-7 -105q51 22 124 42.5t172 33.5q96 13 220 14q48 -53 105 -114l17 12q-66 104 -112.5 192t-77.5 147q26 50 74 139.5t116 199.5l-17 12q-55 -59 -101 -110
v6zM823 653l-28 -22q-47 -36 -87 -58.5t-71 -34.5q24 -17 45.5 -39t40.5 -47q13 30 35 70t58 87q11 14 23 28zM920 556q-14 -12 -27 -22q-48 -36 -88 -58.5t-70 -35.5q18 -13 34 -29q-44 -33 -82 -55q-40 -22 -71 -34q23 -18 45 -39.5t41 -47.5q13 31 35 71q21 38 55 83
q15 -17 29 -35q12 31 34.5 71t58.5 87q10 13 22 28zM1018 458q-14 -12 -28 -22q-47 -36 -87 -58.5t-71 -34.5q24 -17 45.5 -39t41.5 -48q12 31 34.5 71t58.5 87q10 14 22 28zM979 825l-41 10q-154 37 -187 54q-28 14 -38 0q-4 -6 -4 -8q0 -7 16 -26q16 -18 25 -62
q1 -3 2.5 -10t2 -10t1.5 -10t0 -16t-2 -22q-1 -11 -2.5 -35.5l-1.5 -24.5q3 0 20 13q41 31 95 56q22 10 40.5 16t44.5 12t46 11q48 1 123 2q0 -130 -9 -233q-10 -113 -25.5 -198t-32.5 -144q36 8 74.5 8t78.5 -8q-16 59 -31.5 143.5t-25.5 197.5q-9 104 -10 235q74 1 154 2
q-1 -81 -10 -146q-10 -73 -25.5 -128.5t-31.5 -93.5q27 4 56 5q-10 -69 -24 -122q-16 -55 -32 -93q36 6 74 6t79 -6q-17 38 -32 93q-15 53 -25 122q28 -1 57 -5q-17 38 -32.5 93t-25.5 129q-8 65 -9 146q384 6 569 9q-1 -137 -10 -245v-3q-82 10 -145 24q-70 15 -118 31
q5 -27 6 -56q-70 10 -123 25q-55 15 -93 31q5 -36 5 -74t-5 -78q38 16 93 31q53 15 123 25q-1 -28 -6 -56q48 16 118 31q61 14 141 23q-9 -85 -21 -152q-16 -85 -32 -144q36 9 74 9t79 -9q-17 59 -32 143q-13 70 -22 158q85 8 190 8v18q-107 0 -193 8q-1 3 -1 6
q-9 108 -10 246q131 3 133 3q9 4 9 11q-1 9 -16 16q-4 2 -265 4t-521 3zM979 160l-41 10q-154 37 -187 54q-28 14 -38 0q-4 -6 -4 -8q0 -7 16 -26q16 -18 25 -62q1 -3 2.5 -10t2 -10t1.5 -10t0 -16t-2 -22q-1 -11 -2.5 -35.5l-1.5 -24.5q3 0 20 13q41 31 95 56
q22 10 40.5 16t44.5 12t46 11q1031 16 1035 17q9 4 9 11q-1 9 -16 16q-4 2 -265 4t-521 3z" />
</svg>
