<?xml version="1.0" standalone="no"?>
<!DOCTYPE svg PUBLIC "-//W3C//DTD SVG 1.1//EN" "http://www.w3.org/Graphics/SVG/1.1/DTD/svg11.dtd" >
<svg xmlns="http://www.w3.org/2000/svg" xmlns:xlink="http://www.w3.org/1999/xlink" version="1.1" viewBox="0 0 870 647">
   <path fill="currentColor"
d="M573 235q129 9 287 9v24q-181 0 -325 12q-92 110 -155 201q-65 95 -105 166q-26 -42 -62 -78.5t-82 -66.5q71 -40 165 -105q67 -46 145 -108q-105 11 -189 26q-114 21 -192 43q11 -48 11 -99t-11 -105q78 22 191 42q112 21 261 34q114 -96 248 -230l17 17
q-116 117 -204 218z" />
</svg>
