<?xml version="1.0" standalone="no"?>
<!DOCTYPE svg PUBLIC "-//W3C//DTD SVG 1.1//EN" "http://www.w3.org/Graphics/SVG/1.1/DTD/svg11.dtd" >
<svg xmlns="http://www.w3.org/2000/svg" xmlns:xlink="http://www.w3.org/1999/xlink" version="1.1" viewBox="0 0 730 800">
   <path fill="currentColor"
d="M498 309q101 8 222 8v24q-124 0 -227 8q-6 50 -11 106q-3 40 -6 82q109 10 244 10v24q-136 0 -246 10q-5 101 -5 219h-25q0 -116 -4 -216h-4q-125 14 -218 34.5t-158 42.5q9 -48 9 -99t-9 -105q65 22 158 42.5t217 33.5q1 1 2 1q-3 -41 -6 -78q-4 -52 -10 -100
q-115 13 -203 32q-93 21 -158 43q9 -48 9 -99t-9 -105q65 22 158 42q85 19 196 32q-7 -58 -17 -109q-21 -114 -42 -192q48 11 99 11t105 -11q-22 78 -43 191q-10 55 -18 118z" />
</svg>
