<?xml version="1.0" standalone="no"?>
<!DOCTYPE svg PUBLIC "-//W3C//DTD SVG 1.1//EN" "http://www.w3.org/Graphics/SVG/1.1/DTD/svg11.dtd" >
<svg xmlns="http://www.w3.org/2000/svg" xmlns:xlink="http://www.w3.org/1999/xlink" version="1.1" viewBox="0 0 1394 811">
   <path fill="currentColor"
d="M925 504zM952 477zM1123 702zM1150 675zM1270 800q0 -193 -13.5 -344t-34.5 -264q-3 -21 -7 -41q-166 2 -299 13q-81 7 -151 17q20 46 52 104q36 64 92 139q25 -28 48 -58q21 51 58 117.5t97 145.5q18 22 38 46l-20 20q62 2 130 2v24q-193 0 -344 13.5t-264.5 34
t-191.5 42.5q11 -48 11 -99t-11 -105q78 22 191 42.5t264 33.5q91 8 199 12q-19 -16 -37 -30q-79 -60 -145.5 -97.5t-118.5 -57.5q30 -22 58 -49q-74 -56 -138 -91q-66 -38 -118 -58q40 -29 76 -65q29 -30 56 -64q-50 7 -95 15q-114 21 -192 43q11 -48 11 -99t-11 -105
q78 22 191 42.5t264 33.5q131 12 295 13q-15 -71 -30 -126q48 11 99 11t105 -11q-22 78 -43 191t-34 264t-13 345h-24zM386 770q-120 -129 -196.5 -216t-129.5 -135q49 -49 97.5 -102t104.5 -114.5t124 -134.5l17 12q-65 104 -112 192t-77 147q25 50 73 139.5t116 199.5z
" />
</svg>
