<?xml version="1.0" standalone="no"?>
<!DOCTYPE svg PUBLIC "-//W3C//DTD SVG 1.1//EN" "http://www.w3.org/Graphics/SVG/1.1/DTD/svg11.dtd" >
<svg xmlns="http://www.w3.org/2000/svg" xmlns:xlink="http://www.w3.org/1999/xlink" version="1.1" viewBox="0 0 870 647">
   <path fill="currentColor"
d="M767 647q-137 -137 -253 -234l-4 -4q-147 13 -258 33q-114 21 -192 43q11 -48 11 -99t-11 -105q78 22 191 42q83 16 187 27q-72 -57 -134 -100q-95 -66 -166 -106q42 -26 78 -62t66 -82q40 71 105 165q61 88 149 194q143 12 324 12v24q-157 0 -286 9q90 104 211 225z" />
</svg>
