<?xml version="1.0" standalone="no"?>
<!DOCTYPE svg PUBLIC "-//W3C//DTD SVG 1.1//EN" "http://www.w3.org/Graphics/SVG/1.1/DTD/svg11.dtd" >
<svg xmlns="http://www.w3.org/2000/svg" xmlns:xlink="http://www.w3.org/1999/xlink" version="1.1" viewBox="0 0 1298 803">
   <path fill="currentColor"
d="M355 566zM381 539zM439 336zM465 309zM1288 439q-160 0 -284.5 13.5t-218 34t-157.5 42.5q9 -48 9 -99t-9 -105q64 22 157 42.5t218 34t285 13.5v24zM355 566q-24 -20 -47 -37q-78 -60 -145 -97.5t-118 -57.5q39 -29 75 -65t69 -79q21 51 58 117.5t97 145.5q18 23 37 46
q-11 12 -26 27zM439 336q-24 -20 -47 -37q-78 -60 -145 -97.5t-118 -57.5q39 -29 75 -65t69 -79q21 51 58 117.5t97 145.5q18 23 37 46q-11 12 -26 27zM567 803q0 -193 -13 -344t-34 -264.5t-42 -191.5q48 11 99 11t104 -11q-21 78 -42 191t-34 264t-13 345h-25z" />
</svg>
