<?xml version="1.0" standalone="no"?>
<!DOCTYPE svg PUBLIC "-//W3C//DTD SVG 1.1//EN" "http://www.w3.org/Graphics/SVG/1.1/DTD/svg11.dtd" >
<svg xmlns="http://www.w3.org/2000/svg" xmlns:xlink="http://www.w3.org/1999/xlink" version="1.1" viewBox="0 0 1320 869">
   <path fill="currentColor"
d="M951 706zM978 679zM771 496zM798 469zM1002 399zM1031 399zM1175 399zM1203 399zM951 706q-24 -20 -46 -37q-79 -60 -145.5 -97.5t-118.5 -57.5q38 -28 73 -63q-73 -54 -135 -89q-21 -12 -41 -22q-97 2 -177 12q-98 14 -171.5 34.5t-124.5 42.5q7 -48 7 -99t-7 -105
q51 22 124 42.5t172 33.5q55 8 120 11l-20 -8q39 -29 75 -65q26 -26 50 -55q-41 10 -76 19q11 -48 11 -99t-11 -104q78 21 191 42t264 34t345 13v25q-193 0 -344 13t-264 34q-48 9 -89 17q20 45 50 99q35 62 89 134q17 -20 33 -41q21 51 58 117.5t97 145.5q18 23 38 46z
M1007 733q0 -94 -10 -167.5t-25.5 -129t-31.5 -93.5q27 4 56 5q-9 -69 -24 -122q-16 -55 -32 -93q36 6 74 6t79 -6q-17 38 -32 93q-15 53 -25 122q28 -1 57 -5q-17 38 -32.5 93t-25 128.5t-9.5 168.5h-19zM1180 733q0 -94 -10 -167.5t-25.5 -129t-32.5 -93.5q28 4 57 5
q-10 -69 -25 -122q-15 -55 -32 -93q37 6 75 6t78 -6q-16 38 -32 93q-14 53 -24 122q28 -1 56 -5q-16 38 -31.5 93t-25.5 128.5t-10 168.5h-18zM585 569q-126 0 -224 13.5t-171.5 34t-124.5 42.5q7 -48 7 -99t-7 -105q51 22 124 42.5t171.5 34t224.5 13.5v24zM1310 779
q-193 0 -344 13.5t-264.5 34t-191.5 42.5q11 -48 11 -99t-11 -105q78 22 191 42.5t264 34t345 13.5v24z" />
</svg>
