<?xml version="1.0" standalone="no"?>
<!DOCTYPE svg PUBLIC "-//W3C//DTD SVG 1.1//EN" "http://www.w3.org/Graphics/SVG/1.1/DTD/svg11.dtd" >
<svg xmlns="http://www.w3.org/2000/svg" xmlns:xlink="http://www.w3.org/1999/xlink" version="1.1" viewBox="0 0 1238 800">
   <path fill="currentColor"
d="M414 443zM414 405zM1113 800q0 -193 -13 -344t-34 -264.5t-42 -191.5q48 11 99 11t105 -11q-22 78 -43 191t-34 264t-13 345h-25zM1006 770q-120 -129 -196.5 -216t-129.5 -135q49 -49 97.5 -102t104 -114.5t124.5 -134.5l17 12q-66 104 -112.5 192t-77.5 147
q26 50 74 139.5t116 199.5zM623 800q0 -193 -13 -344t-34 -264.5t-42 -191.5q48 11 99 11t105 -11q-22 78 -43 191t-34 264t-13 345h-25zM393 800q0 -193 -13 -344q0 -5 -1 -10q-12 2 -24 3q-98 14 -171.5 34.5t-124.5 42.5q7 -48 7 -99t-7 -105q51 22 124 42.5t172 33.5
q10 2 20 3q-12 -117 -29 -209q-21 -114 -42 -192q48 11 99 11t105 -11q-22 78 -43 191t-34 264t-13 345h-25z" />
</svg>
