<?xml version="1.0" standalone="no"?>
<!DOCTYPE svg PUBLIC "-//W3C//DTD SVG 1.1//EN" "http://www.w3.org/Graphics/SVG/1.1/DTD/svg11.dtd" >
<svg xmlns="http://www.w3.org/2000/svg" xmlns:xlink="http://www.w3.org/1999/xlink" version="1.1" viewBox="0 0 1150 763">
   <path fill="currentColor"
d="M1140 114q-193 0 -344 13.5t-264.5 34t-191.5 42.5q11 -48 11 -99t-11 -105q78 22 191 42.5t264 34t345 13.5v24zM852 545q0 -3 -1 -6q-13 -98 -34 -171.5t-42 -124.5q48 7 99 7t105 -7q-22 51 -43 124t-34 172q0 4 -1 8q113 3 239 3v24q-128 0 -242 3q-9 84 -9 186h-25
q0 -101 -8 -184q-96 3 -181 8q-4 1 -9 1q-7 79 -7 175h-25q0 -94 -7 -172q-103 7 -192 16q-6 72 -6 156h-25q0 -82 -5 -152q-42 5 -80 10q-153 21 -259 43q15 -48 15 -99t-15 -105q106 22 258 42q33 5 69 9q-12 -81 -30 -144q-21 -73 -42 -124q48 7 99 7t105 -7
q-22 51 -43 124q-18 66 -31 151q82 8 175 15q-13 -94 -33 -166q-21 -73 -42 -124q48 7 99 7t105 -7q-22 51 -43 124q-20 73 -34 169h2q84 6 178 9z" />
</svg>
