<?xml version="1.0" standalone="no"?>
<!DOCTYPE svg PUBLIC "-//W3C//DTD SVG 1.1//EN" "http://www.w3.org/Graphics/SVG/1.1/DTD/svg11.dtd" >
<svg xmlns="http://www.w3.org/2000/svg" xmlns:xlink="http://www.w3.org/1999/xlink" version="1.1" viewBox="0 0 1530 800">
   <path fill="currentColor"
d="M581 578zM581 540zM799 800q0 -193 -13 -344t-33.5 -264.5t-42.5 -191.5q48 11 99 11t105 -11q-22 78 -43 191q-3 18 -6 38q63 20 153 40q85 19 196 32q-7 -58 -17 -109q-20 -114 -42 -192q48 11 99 11t105 -11q-22 78 -43 191q-10 55 -18 118q101 8 222 8v24
q-124 0 -227 8q-6 50 -11 106q-3 40 -6 82q109 10 244 10v24q-136 0 -246 10q-5 101 -5 219h-25q0 -116 -4 -216h-4q-125 14 -218 34.5t-158 42.5q9 -48 9 -99t-9 -105q65 22 158 42.5t217 33.5q1 1 2 1q-2 -41 -6 -78q-4 -52 -10 -100q-115 13 -203 32q-93 21 -158 43
q9 -48 9 -99q0 -44 -7 -90q-14 95 -25 213q-13 151 -13 345h-25zM541 316q-8 -67 -19 -124q-20 -114 -42 -192q48 11 99 11t105 -11q-22 78 -43 191t-34 264t-13 345h-25q0 -118 -5 -221q-21 3 -42 5q-98 14 -171.5 34.5t-124.5 42.5q7 -48 7 -99t-7 -105q51 22 124.5 42.5
t171.5 33.5q19 3 40 5q-2 -43 -6 -82q-5 -60 -11 -114q-102 1 -184 12q-98 14 -171.5 34.5t-124.5 42.5q7 -48 7 -99t-7 -105q51 22 124 42.5t172 33.5q80 11 180 13z" />
</svg>
