<?xml version="1.0" standalone="no"?>
<!DOCTYPE svg PUBLIC "-//W3C//DTD SVG 1.1//EN" "http://www.w3.org/Graphics/SVG/1.1/DTD/svg11.dtd" >
<svg xmlns="http://www.w3.org/2000/svg" xmlns:xlink="http://www.w3.org/1999/xlink" version="1.1" viewBox="0 0 752 697">
   <path fill="currentColor"
d="M355 336zM381 309zM715 371zM742 345zM553 534zM579 507zM390 697zM417 670zM715 371q-23 -19 -46 -37q-79 -60 -145.5 -97t-117.5 -58q39 -29 75 -65t69 -79q20 51 57.5 117.5t97.5 145.5q17 23 37 47q-12 11 -27 26zM553 534q-24 -20 -47 -37q-78 -60 -145 -97.5
t-118 -57.5q30 -22 58 -49q-74 -56 -138 -91q-67 -38 -118 -58q39 -29 75 -65t69 -79q21 51 58 117q35 64 92 139q25 -28 48 -58q21 51 58 117.5t97 145.5q17 22 37 46q-11 12 -26 27zM390 697q-24 -20 -46 -37q-79 -60 -145.5 -97.5t-118.5 -58.5q40 -29 76 -65t68 -79
q21 52 58 118.5t97 144.5q18 23 38 47z" />
</svg>
