<?xml version="1.0" standalone="no"?>
<!DOCTYPE svg PUBLIC "-//W3C//DTD SVG 1.1//EN" "http://www.w3.org/Graphics/SVG/1.1/DTD/svg11.dtd" >
<svg xmlns="http://www.w3.org/2000/svg" xmlns:xlink="http://www.w3.org/1999/xlink" version="1.1" viewBox="0 0 969 899">
   <path fill="currentColor"
d="M860 809q-193 0 -344 13.5t-264.5 34t-191.5 42.5q11 -48 11 -99t-11 -105q78 22 191 42.5t264 33.5q145 13 329 14q0 -98 -4 -184q-153 1 -274 13q-125 14 -218 34.5t-158 42.5q9 -48 9 -99q0 -50 -8 -101h-1v-2v-2h1q8 -46 8 -95.5t-8 -100.5h-1v-2v-2h1q8 -46 8 -95
q0 -51 -9 -105q65 22 158 42.5t217 33.5q103 11 229 13q-19 -103 -39 -176q48 11 99 11t105 -11q-22 78 -43 191t-34 264t-13 345h-9v9zM799 202q-129 1 -233 12q-125 14 -218 34q-89 20 -152 41q63 21 152 40q93 21 217 34q114 13 258 14q-10 -97 -24 -175zM826 401
q-145 1 -260 13q-125 14 -218 34q-89 20 -152 41q63 21 152 40q93 21 217 34q121 13 274 14q-3 -64 -8 -121q-2 -28 -5 -55z" />
</svg>
