<?xml version="1.0" standalone="no"?>
<!DOCTYPE svg PUBLIC "-//W3C//DTD SVG 1.1//EN" "http://www.w3.org/Graphics/SVG/1.1/DTD/svg11.dtd" >
<svg xmlns="http://www.w3.org/2000/svg" xmlns:xlink="http://www.w3.org/1999/xlink" version="1.1" viewBox="0 0 2769 811">
   <path fill="currentColor"
d="M1918 355zM1956 355zM2148 355zM2186 355zM2378 355zM2416 355zM2638 355zM2676 355zM1026 268zM1026 230zM746 268zM746 230zM1306 268zM1306 230zM1283 355zM1321 355zM1924 800q0 -126 -13 -224v-5q-108 2 -195 13q-98 14 -171.5 34.5t-124.5 42.5q7 -48 7 -99
t-7 -105q51 22 124 42.5t172 33.5q85 12 191 13q-12 -79 -30 -142q-9 -33 -19 -61q-77 3 -142 11q-98 14 -171.5 34.5t-124.5 42.5q7 -48 7 -99t-7 -105q51 22 124 42.5t172 33.5q61 9 133 12q-7 -19 -14 -35q37 6 75 7q-13 -92 -33 -163q-20 -73 -42 -124q48 7 99 7t105 -7
q-22 51 -43 124q-20 70 -33 163q37 -2 76 -7q-22 51 -43 124t-34 171.5t-13 224.5h-25zM2154 800q0 -126 -13 -224t-33.5 -171.5t-42.5 -124.5q37 6 75 7q-13 -92 -33 -163q-20 -73 -42 -124q48 7 99 7t105 -7q-22 51 -43 124q-20 70 -33 163q37 -2 76 -7q-22 51 -43 124
t-34 171.5t-13 224.5h-25zM2384 800q0 -126 -13 -224t-33.5 -171.5t-42.5 -124.5q37 6 75 7q-13 -92 -33 -163q-20 -73 -42 -124q48 7 99 7t105 -7q-22 51 -43 124q-20 70 -33 163q37 -2 76 -7q-22 51 -43 124t-34 171.5t-13 224.5h-25zM2644 800q0 -126 -13 -224
t-33.5 -171.5t-42.5 -124.5q37 6 75 7q-13 -92 -33 -163q-20 -73 -42 -124q48 7 99 7t105 -7q-22 51 -43 124q-20 70 -33 163q37 -2 76 -7q-22 51 -43 124t-34 171.5t-13 224.5h-25zM580 491q-126 0 -224 13.5t-171.5 34t-124.5 42.5q7 -48 7 -99t-7 -105q51 22 124 42.5
t171.5 34t224.5 13.5v24zM678 222q-2 -37 -7 -75q51 22 124 42q70 20 163 33q-2 -37 -7 -75q51 22 124.5 42.5t171.5 33.5q9 2 18 3q-10 -56 -23 -102q-20 -73 -42 -124q48 7 99 7t105 -7q-22 51 -43 124q-20 70 -33 163q37 -2 76 -7q-22 51 -43 124t-34 171.5t-13 224.5
h-25q0 -41 -1 -79q-251 1 -448 13q-204 14 -356.5 34.5t-258.5 42.5q15 -48 15 -99t-15 -105q106 22 258 42.5t356 33.5q197 13 448 14q-3 -65 -11 -121q-13 -98 -34 -172q-20 -72 -42 -123q-69 12 -124 27q-74 21 -125 43q6 -37 7 -75q-92 13 -162 32q-74 21 -125 43
q6 -37 7 -75q-92 13 -162 32q-74 21 -125 43q7 -48 7 -99t-7 -105q51 22 124 42q70 20 163 33zM1204 281q35 5 71 6l-2 -16q-13 2 -26 3q-22 3 -43 7z" />
</svg>
