<?xml version="1.0" standalone="no"?>
<!DOCTYPE svg PUBLIC "-//W3C//DTD SVG 1.1//EN" "http://www.w3.org/Graphics/SVG/1.1/DTD/svg11.dtd" >
<svg xmlns="http://www.w3.org/2000/svg" xmlns:xlink="http://www.w3.org/1999/xlink" version="1.1" viewBox="0 0 1500 970">
   <path fill="currentColor"
d="M355 910zM381 883zM699 336zM725 309zM692 731zM692 693zM692 501zM692 463zM355 910q-24 -20 -47 -37q-78 -60 -145 -97.5t-118 -57.5q39 -29 75 -65t69 -79q21 51 58 117q-3 -119 -13 -217q-13 -125 -34 -218t-42 -158q48 9 99 9t104 -9q-21 65 -42 158t-34 217
q-12 115 -13 260q30 49 72 104q18 23 37 46q-11 12 -26 27zM699 336q-24 -20 -47 -37q-78 -60 -145 -97.5t-118 -57.5q39 -29 75 -65t69 -79q21 51 58 117.5t97 145.5q18 23 37 46q-11 12 -26 27zM1477 970q-90 -97 -147.5 -162.5t-96.5 -101.5q19 -19 38 -39
q-15 -15 -27 -29q-21 39 -36 68q19 38 55 105t87 149l-13 10q-90 -97 -147 -162q-45 -51 -78 -84q-111 1 -199 13q-98 14 -171.5 34.5t-124.5 42.5q5 -37 7 -75q-93 13 -163 32q-73 21 -124 43q7 -48 7 -99t-7 -105q51 22 124 42q70 20 162 33q-1 -37 -6 -75q51 22 124 42.5
t171 33.5q84 12 187 13q33 -33 67 -69q17 -19 36 -39q-7 -7 -12 -13q-45 -51 -78 -84q-111 1 -199 13q-98 14 -171.5 34.5t-124.5 42.5q5 -37 7 -75q-93 13 -163 32q-73 21 -124 43q7 -48 7 -99t-7 -105q51 22 124 42q70 20 162 33q-1 -37 -6 -75q51 22 124 42.5t171 33.5
q84 12 187 13q33 -33 67 -69q36 -40 78 -86t93 -101l13 9q-49 78 -84 144t-58 110q13 27 36 69v-1q13 -15 27 -30q-21 -22 -38 -38q36 -36 72.5 -76t78.5 -86t93 -101l13 9q-49 78 -84 144t-58 110q13 27 36 69v-1q42 -46 93 -101l13 9q-47 75 -82 139q35 63 82 139l-13 10
q-52 -57 -93 -102q-21 39 -36 68q19 38 55 105t87 149zM1342 591q-7 -7 -12 -13q-18 -20 -34 -37q-15 26 -28 50q13 24 28 49l10 -10q17 -19 36 -39z" />
</svg>
