<?xml version="1.0" standalone="no"?>
<!DOCTYPE svg PUBLIC "-//W3C//DTD SVG 1.1//EN" "http://www.w3.org/Graphics/SVG/1.1/DTD/svg11.dtd" >
<svg xmlns="http://www.w3.org/2000/svg" xmlns:xlink="http://www.w3.org/1999/xlink" version="1.1" viewBox="0 0 694 800">
   <path fill="currentColor"
d="M431 461q-62 -58 -119 -101q-78 -60 -145 -97.5t-118 -58.5q39 -28 75 -64t69 -80q21 52 58 118.5t97 144.5q51 67 122 141q42 2 87 2q0 -5 -1 -10q-13 -151 -34 -264.5t-42 -191.5q48 11 99 11t105 -11q-22 78 -43 191t-34 264t-13 345h-25q0 -171 -10 -309q-32 1 -63 2
l-16 16l-14 -14q-56 3 -105 9q-98 14 -171.5 34.5t-124.5 42.5q7 -48 7 -99t-7 -105q51 22 124 42.5t172 33.5q33 5 70 8z" />
</svg>
