<?xml version="1.0" standalone="no"?>
<!DOCTYPE svg PUBLIC "-//W3C//DTD SVG 1.1//EN" "http://www.w3.org/Graphics/SVG/1.1/DTD/svg11.dtd" >
<svg xmlns="http://www.w3.org/2000/svg" xmlns:xlink="http://www.w3.org/1999/xlink" version="1.1" viewBox="0 0 1469 813">
   <path fill="currentColor"
d="M825 662zM851 635zM987 500zM1014 473zM1150 337zM1177 310zM1344 803q0 -193 -13 -344t-34 -264.5t-42 -191.5q48 11 99 11t105 -11q-22 78 -43 191t-34 264t-13 345h-25zM825 662q-24 -19 -47 -37q-36 -27 -69 -50q-153 1 -273 13q-125 14 -218 34.5t-158 42.5
q9 -48 9 -99t-9 -105q65 22 158 42.5t217 33.5q105 12 236 13q-20 -12 -38 -22q-67 -38 -118 -58q39 -29 75 -65t69 -79q21 51 58 117.5t97 145.5q17 23 37 46q-12 12 -26 27zM987 500q-23 -20 -46 -37q-79 -60 -145.5 -97.5t-117.5 -58.5q39 -29 75 -65t69 -79
q20 51 57.5 117.5t97.5 145.5q17 23 37 47zM1150 337q-24 -20 -46 -37q-79 -60 -146 -97q-52 -30 -95 -49q-134 2 -242 13q-125 14 -218 34.5t-158 42.5q9 -48 9 -99t-9 -105q65 22 158 42.5t217 33.5q107 12 240 13q29 -22 55 -49q36 -36 69 -80q21 52 58 118.5t97 144.5
q18 23 38 47zM1303 813q-76 -75 -155 -114t-155 -51.5t-140 -9.5q78 -69 156 -147t156 -165q-3 64 9.5 140t51 155t114.5 155z" />
</svg>
