<?xml version="1.0" standalone="no"?>
<!DOCTYPE svg PUBLIC "-//W3C//DTD SVG 1.1//EN" "http://www.w3.org/Graphics/SVG/1.1/DTD/svg11.dtd" >
<svg xmlns="http://www.w3.org/2000/svg" xmlns:xlink="http://www.w3.org/1999/xlink" version="1.1" viewBox="0 0 2103 800">
   <path fill="currentColor"
d="M1253 355zM1290 355zM1483 355zM1520 355zM1713 355zM1750 355zM1973 355zM2010 355zM390 755zM417 728zM553 592zM579 565zM715 429zM742 403zM355 394zM381 367zM1259 800q0 -126 -13 -224q0 -2 -1 -5q-108 2 -194 13q-98 14 -171.5 34.5t-124.5 42.5q7 -48 7 -99
t-7 -105q51 22 124 42.5t171 33.5q85 12 192 13q-12 -79 -30 -142q-9 -33 -19 -61q-77 3 -142 11q-98 14 -171.5 34.5t-124.5 42.5q7 -48 7 -99t-7 -105q51 22 124 42.5t171 33.5q61 9 133 12q-6 -19 -13 -35q36 6 75 7q-13 -92 -33 -163q-21 -73 -42 -124q48 7 99 7t104 -7
q-21 51 -42 124q-20 70 -33 163q37 -2 75 -7q-21 51 -42 124t-34 171.5t-13 224.5h-25zM1489 800q0 -126 -13 -224t-34 -171.5t-42 -124.5q36 6 75 7q-13 -92 -33 -163q-21 -73 -42 -124q48 7 99 7t104 -7q-21 51 -42 124q-20 70 -33 163q37 -2 75 -7q-21 51 -42 124
t-34 171.5t-13 224.5h-25zM1719 800q0 -126 -13 -224t-34 -171.5t-42 -124.5q36 6 75 7q-13 -92 -33 -163q-21 -73 -42 -124q48 7 99 7t104 -7q-21 51 -42 124q-20 70 -33 163q37 -2 75 -7q-21 51 -42 124t-34 171.5t-13 224.5h-25zM1979 800q0 -126 -13 -224t-34 -171.5
t-42 -124.5q36 6 75 7q-13 -92 -33 -163q-21 -73 -42 -124q48 7 99 7t104 -7q-21 51 -42 124q-20 70 -33 163q37 -2 75 -7q-21 51 -42 124t-34 171.5t-13 224.5h-25zM390 755q-24 -20 -46 -37q-79 -60 -145.5 -97.5t-118.5 -58.5q40 -29 76 -65t68 -79q21 52 58 118.5
t97 144.5q18 23 38 47zM553 592q-24 -20 -47 -37q-78 -60 -145 -97.5t-118 -57.5q30 -22 58 -49q-74 -56 -138 -91q-67 -38 -118 -58q39 -29 75 -65t69 -79q21 51 58 117q35 64 92 139q25 -28 48 -58q21 51 58 117.5t97 145.5q17 22 37 46q-11 12 -26 27zM715 429
q-23 -19 -46 -37q-79 -60 -145.5 -97t-117.5 -58q39 -29 75 -65t69 -79q20 51 57.5 117.5t97.5 145.5q17 23 37 47q-12 11 -27 26z" />
</svg>
