<?xml version="1.0" standalone="no"?>
<!DOCTYPE svg PUBLIC "-//W3C//DTD SVG 1.1//EN" "http://www.w3.org/Graphics/SVG/1.1/DTD/svg11.dtd" >
<svg xmlns="http://www.w3.org/2000/svg" xmlns:xlink="http://www.w3.org/1999/xlink" version="1.1" viewBox="0 0 870 781">
   <path fill="currentColor"
d="M860 158zM860 120zM859 691q-193 0 -344 13.5t-264 34t-192 42.5q12 -48 12 -99t-12 -105q36 10 79 20q-2 -122 -13 -221q-13 -125 -33.5 -218t-42.5 -158q48 9 99 9t105 -9q-22 65 -42.5 158t-34.5 217q-10 102 -12 227q40 9 86 17q55 11 119 19q-1 -146 -14 -262
q-13 -125 -33.5 -218t-42.5 -158q48 9 99 9t105 -9q-22 65 -42.5 158t-34.5 217q-12 117 -13 266q57 7 121 12q151 14 345 14v24zM860 158q-30 3 -59 6q-98 14 -171.5 34.5t-124.5 42.5q8 -48 8 -99t-8 -105q51 22 124.5 42.5t171.5 33.5q28 4 59 7v38z" />
</svg>
