<?xml version="1.0" standalone="no"?>
<!DOCTYPE svg PUBLIC "-//W3C//DTD SVG 1.1//EN" "http://www.w3.org/Graphics/SVG/1.1/DTD/svg11.dtd" >
<svg xmlns="http://www.w3.org/2000/svg" xmlns:xlink="http://www.w3.org/1999/xlink" version="1.1" viewBox="0 0 1159 909">
   <path fill="currentColor"
d="M966 336zM993 309zM835 249q-126 0 -224 13.5t-171.5 34t-124.5 42.5q7 -48 7 -99q0 -49 -6 -101q-43 69 -74 127q-35 66 -58 110q19 38 55 105t87 149l-12 10q-90 -97 -147.5 -162.5t-97.5 -101.5q37 -36 73.5 -76t78 -86t93.5 -101l12 9q-4 7 -9 14q51 21 122 41
q74 21 172 34q89 12 202 14q-20 -13 -39 -23q-66 -38 -118 -58q40 -29 76 -65t68 -79q21 51 58 117.5t97 145.5q17 21 36 44l-4 -18q-20 -113 -42 -191q48 11 99 11t105 -11q-22 78 -43 190.5t-34 263.5t-13 346h-24q0 -41 -1 -79q-113 1 -203 13q-98 14 -171.5 34.5
t-124.5 42.5q7 -48 7 -99q0 -50 -6 -101h-1v-2v-2h1q6 -46 6 -95.5t-6 -100.5h-1v-2v-2h1q6 -46 6 -95q0 -51 -7 -105q51 22 124.5 42.5t171.5 33.5q77 11 173 13q-6 -44 -13 -83l-25 25q-24 -20 -46 -37q-44 -34 -85 -60v10zM395 898q0 -126 -13.5 -224t-34 -171.5
t-42.5 -124.5q48 7 99 7t105 -7q-22 51 -43 124t-34 171.5t-13 224.5h-24zM1034 795q-2 -94 -8 -176q-108 2 -195 13q-98 14 -171 34q-71 20 -120 41q49 21 119 40q74 21 172 34q89 13 203 14zM1025 594q-2 -21 -4 -41q-6 -71 -14 -133q-97 2 -176 12q-98 14 -171 34
q-71 20 -120 41q49 21 119 40q74 21 172 34q86 12 194 13z" />
</svg>
