<?xml version="1.0" standalone="no"?>
<!DOCTYPE svg PUBLIC "-//W3C//DTD SVG 1.1//EN" "http://www.w3.org/Graphics/SVG/1.1/DTD/svg11.dtd" >
<svg xmlns="http://www.w3.org/2000/svg" xmlns:xlink="http://www.w3.org/1999/xlink" version="1.1" viewBox="0 0 1450 910">
   <path fill="currentColor"
d="M1021 336zM1048 309zM415 676zM415 638zM415 446zM415 408zM677 910zM704 883zM995 676zM995 638zM995 446zM995 408zM1440 669q-193 0 -344 13.5t-264.5 34t-191.5 42.5q7 -48 7 -99t-7 -105q78 22 191 42.5t264 34t345 13.5v24zM1440 439q-193 0 -344 13.5t-264.5 34
t-191.5 42.5q7 -48 7 -99t-7 -105q78 22 191 42.5t264 34t345 13.5v24zM1021 336q-24 -20 -46 -37q-79 -60 -146 -97.5t-118 -57.5q39 -29 75 -65t69 -79q21 51 58 117.5t97 145.5q18 23 38 46zM677 910q-24 -20 -46 -37q-79 -60 -146 -97.5t-118 -57.5q26 -20 51 -42
q-29 3 -57 6q-98 14 -171.5 34.5t-124.5 42.5v-2q-2 1 -5 2q7 -48 7 -99t-7 -105q3 1 5 2v-2q51 22 124 42.5t172 33.5q44 6 93 10q30 -31 57 -67q13 32 33 70q12 0 24 1q-4 -93 -12 -171q-2 -18 -4 -35q-106 2 -191 13q-98 14 -171.5 34.5t-124.5 42.5v-2q-2 1 -5 2
q7 -48 7 -99t-7 -105q3 1 5 2v-2q51 22 124 42.5t172 33.5q84 12 188 13q-11 -88 -27 -158q-21 -93 -42 -158q48 9 99 9t105 -9q-22 65 -43 158t-34 217q-12 115 -13 260q31 49 72 104q18 23 38 46zM557 669l12 22q0 -11 -1 -22h-11z" />
</svg>
