<?xml version="1.0" standalone="no"?>
<!DOCTYPE svg PUBLIC "-//W3C//DTD SVG 1.1//EN" "http://www.w3.org/Graphics/SVG/1.1/DTD/svg11.dtd" >
<svg xmlns="http://www.w3.org/2000/svg" xmlns:xlink="http://www.w3.org/1999/xlink" version="1.1" viewBox="0 0 1659 811">
   <path fill="currentColor"
d="M415 443zM415 405zM1528 355zM1566 355zM1509 721q-193 0 -344 13.5t-264.5 34t-191.5 42.5q11 -48 11 -99t-11 -105q78 22 191 42q37 7 79 13q-77 -83 -129 -142q-58 -65 -97 -101q36 -36 73 -76t78 -86q30 -33 64 -70q-35 5 -67 11q-114 21 -192 43q11 -48 11 -99
t-11 -105q78 22 191 42.5t264 33.5q142 13 324 14q0 -1 -1 -3q-20 -73 -42 -124q48 7 99 7t105 -7q-22 51 -43 124q-20 70 -33 163q37 -2 76 -7q-22 51 -43 124t-34 171.5t-13 224.5h-25q0 -126 -13 -224t-33.5 -171.5t-42.5 -124.5q37 6 75 7q-11 -75 -26 -136
q-159 1 -289 10l5 4q-49 78 -84 144t-58 110q19 38 55 105t87 150l-12 8q-90 -96 -148 -161.5t-97 -101.5q36 -36 73 -76t78 -86q40 -43 88 -95q-14 1 -27 2q-90 8 -166 19q-42 68 -73 126q-35 66 -58 110q19 38 55 105q35 64 83 142q73 10 158 17q151 14 345 14v24z
M580 666q-126 0 -224 13.5t-171.5 34t-124.5 42.5q7 -48 7 -99t-7 -105q51 22 124 42.5t172 33.5q91 13 207 14q-44 -48 -79 -88q-57 -65 -100 -108q-14 2 -28 3q-98 14 -171.5 34.5t-124.5 42.5q7 -48 7 -99t-7 -105q51 22 124.5 42.5t171.5 33.5q8 2 17 3q40 -41 79 -84
q48 -51 102 -111q-110 2 -198 13q-98 14 -171.5 34.5t-124.5 42.5q7 -48 7 -99t-7 -105q51 22 124 42.5t172 33.5q96 13 220 14q48 -53 105 -114l17 12q-66 104 -112.5 192t-77.5 147q26 50 74 139.5t116 199.5l-17 12q-55 -59 -101 -110v6zM1398 682q-90 -96 -148 -161.5
t-97 -101.5q36 -36 73 -76t78.5 -86t93.5 -101l12 9q-49 78 -84 144t-58 110q19 38 55 105t87 150z" />
</svg>
