<?xml version="1.0" standalone="no"?>
<!DOCTYPE svg PUBLIC "-//W3C//DTD SVG 1.1//EN" "http://www.w3.org/Graphics/SVG/1.1/DTD/svg11.dtd" >
<svg xmlns="http://www.w3.org/2000/svg" xmlns:xlink="http://www.w3.org/1999/xlink" version="1.1" viewBox="0 0 1794 800">
   <path fill="currentColor"
d="M1669 800q0 -193 -13 -344t-34 -264.5t-42 -191.5q48 11 99 11t105 -11q-22 78 -43 191t-34 264t-13 345h-25zM1433 547q-3 -48 -7 -91q-5 -60 -12 -115q-135 2 -243 13q-125 14 -218 34.5t-158 42.5q9 -48 9 -99t-9 -105q65 22 158 42.5t217 33.5q107 12 241 13
q-8 -67 -19 -124q-21 -114 -42 -192q48 11 99 11t105 -11q-22 78 -43 191t-34 264t-13 345h-25q0 -123 -5 -229q-147 1 -263 13q-125 14 -218 34.5t-158 42.5q8 -44 9 -90q-5 1 -10 1q2 3 3 6l-12 8l-14 -14q-140 2 -255 12q-151 14 -264.5 34.5t-191.5 42.5q11 -48 11 -99
t-11 -105q78 22 191 42.5t264 33.5q105 10 232 12q-65 -70 -110 -121q-44 -50 -78 -83q-110 2 -198 13q-98 14 -171.5 34.5t-124.5 42.5q7 -48 7 -99t-7 -105q51 22 124 42.5t172 33.5q82 12 186 13q33 -33 66 -69q37 -40 78.5 -86t93.5 -101l12 9q-49 78 -84 144t-58 110
q19 38 55 105q29 54 68 118h26q-1 -43 -9 -89q65 22 158 42.5t217 33.5q116 13 263 14z" />
</svg>
