<?xml version="1.0" standalone="no"?>
<!DOCTYPE svg PUBLIC "-//W3C//DTD SVG 1.1//EN" "http://www.w3.org/Graphics/SVG/1.1/DTD/svg11.dtd" >
<svg xmlns="http://www.w3.org/2000/svg" xmlns:xlink="http://www.w3.org/1999/xlink" version="1.1" viewBox="0 0 1496 940">
   <path fill="currentColor"
d="M1050 576zM1079 576zM1223 576zM1251 576zM1395 576zM1424 576zM833 355zM871 355zM1063 355zM1101 355zM1293 355zM1331 355zM1050 576q-2 -23 -4 -44q-10 -74 -25.5 -129t-32.5 -93q34 5 71 5q-2 -9 -3 -19q-13 -98 -34 -171.5t-42 -124.5q48 7 99 7t105 -7
q-22 51 -43 124t-34 172l-2 18l36 -4q-16 38 -31.5 93t-25.5 129q-3 21 -5 44h-29zM1223 576q-2 -23 -5 -44q-10 -74 -25.5 -129t-31.5 -93q36 5 74 5q26 0 53 -2q-1 -9 -2 -17q-13 -98 -34 -171.5t-42 -124.5q48 7 99 7t105 -7q-22 51 -43 124t-34 172l-2 14q35 5 73 5
t78 -5q-16 38 -31.5 93t-25.5 129q-3 21 -5 44h-29q-2 -23 -4 -44q-10 -74 -26 -129q-15 -52 -30 -89q-3 20 -4 41h-34q-8 22 -15 48q-16 55 -26 129q-3 21 -5 44h-28zM1224 910q0 -80 -21.5 -142.5t-55 -109.5t-69.5 -80q78 5 161 5t170 -5q-35 33 -69 79.5t-55 109
t-21 143.5h-40zM823 632q-8 -74 -19 -136q-144 1 -258 13q-125 14 -218 34q-46 11 -85 21q39 10 85 20q93 21 217 34q122 13 278 14zM826 656q-157 0 -280 13q-125 14 -218 34q-62 14 -111 28l34 6q113 21 264 34q141 13 321 14q-3 -69 -10 -129zM799 472q-3 -18 -7 -34
q-12 -56 -25 -101q-122 2 -221 12q-125 14 -218 34q-46 11 -85 21q39 10 85 20q93 21 217 34q113 12 254 14zM174 565q-2 -11 -4 -23l6 2q3 -28 3 -57q0 -31 -3 -63l-6 2q2 -11 4 -21q-2 -11 -4 -23l6 2q3 -28 3 -57q0 -31 -3 -63l-6 2q2 -11 4 -21q-2 -11 -4 -23l6 2
q3 -28 3 -57q0 -51 -9 -105q65 22 158 42.5t217 33.5q113 12 254 14q-3 -14 -7 -28q-21 -73 -42 -124q48 7 99 7t105 -7q-22 51 -43 124q-20 71 -33 165q37 -2 76 -9q-22 65 -43 158t-34 217.5t-13 284.5h-25q0 -69 -2 -131q-179 1 -321 13q-151 14 -264.5 34.5t-191.5 42.5
q11 -48 11 -99t-11 -105q50 14 114 27q5 -37 5 -75q0 -31 -3 -63l-6 2q2 -11 4 -21zM760 311q-5 -16 -10 -31q37 7 75 9q-8 -61 -20 -113q-144 1 -259 13q-125 14 -218 34q-46 11 -85 21q39 10 85 20q93 21 217 34q97 11 215 13z" />
</svg>
