<?xml version="1.0" standalone="no"?>
<!DOCTYPE svg PUBLIC "-//W3C//DTD SVG 1.1//EN" "http://www.w3.org/Graphics/SVG/1.1/DTD/svg11.dtd" >
<svg xmlns="http://www.w3.org/2000/svg" xmlns:xlink="http://www.w3.org/1999/xlink" version="1.1" viewBox="0 0 1817 986">
   <path fill="currentColor"
d="M1145 288zM1145 250zM865 288zM865 250zM580 511q-126 0 -224 13.5t-171.5 34t-124.5 42.5q7 -48 7 -99t-7 -105q51 22 124 42.5t171.5 34t224.5 13.5v24zM1675 986q-90 -96 -148 -162q-44 -49 -77 -82q-52 1 -102 2q-9 84 -9 186h-25q0 -101 -8 -184q-96 3 -181 8
q-4 1 -9 1q-7 79 -7 175h-25q0 -94 -7 -172q-103 7 -192 16q-6 72 -6 156h-25q0 -82 -5 -152q-42 5 -80 10q-153 21 -259 43q14 -44 15 -89q-93 2 -169 12q-98 14 -171.5 34.5t-124.5 42.5q7 -48 7 -99t-7 -105q51 22 124 42.5t172 33.5q76 11 169 13q-2 -43 -15 -89
q106 22 258 42q33 5 69 9q-12 -81 -30 -144q-21 -73 -42 -124q48 7 99 7t105 -7q-22 51 -43 124q-18 66 -31 151q82 8 175 15q-13 -94 -33 -166q-21 -73 -42 -124q48 7 99 7t105 -7q-22 51 -43 124q-20 73 -34 169h2q84 6 178 9q0 -3 -1 -6q-13 -98 -34 -171.5t-42 -124.5
q48 7 99 7t105 -7q-22 51 -43 124t-34 172q0 4 -1 8q42 1 86 1q33 -33 66 -68q37 -40 78.5 -86t93.5 -101l12 9q-49 78 -84 144q-33 61 -55 104h42v24h-36q18 35 46 87q36 67 87 150zM1795 526q-90 -96 -148 -162q-44 -50 -78 -83q-110 2 -198 13q-98 14 -171.5 34.5
t-124.5 42.5q6 -37 7 -76q-96 13 -168 33q-73 21 -124 43q6 -37 7 -75q-92 13 -163 32q-73 21 -124 43q7 -43 7 -89q-88 3 -161 12q-98 14 -171.5 34.5t-124.5 42.5q7 -48 7 -99t-7 -105q51 22 124 42.5t172 33.5q73 10 161 13q-1 -44 -7 -89q51 22 124 42q70 20 163 33
q-2 -37 -7 -75q51 22 124 42q72 21 168 34q-2 -37 -7 -76q51 22 124 42.5t172 33.5q82 12 186 13q33 -33 66 -69q37 -40 78.5 -86t93.5 -101l12 9q-49 78 -84 144t-58 110q19 38 55 105t87 150z" />
</svg>
