<?xml version="1.0" standalone="no"?>
<!DOCTYPE svg PUBLIC "-//W3C//DTD SVG 1.1//EN" "http://www.w3.org/Graphics/SVG/1.1/DTD/svg11.dtd" >
<svg xmlns="http://www.w3.org/2000/svg" xmlns:xlink="http://www.w3.org/1999/xlink" version="1.1" viewBox="0 0 1819 800">
   <path fill="currentColor"
d="M415 448zM415 410zM1547 593q-116 0 -206 8q-5 0 -9 1q4 6 8 13l-10 7q-9 -9 -18 -19q-73 8 -130 18q-68 13 -115 26q7 -29 7 -60q0 -13 -1 -26q-50 1 -91 7q-59 8 -103 20.5t-75 25.5q4 -29 4 -59.5t-4 -63.5q31 13 74.5 25.5t102.5 20.5q41 6 90 7q-1 -10 -4 -20
q47 13 115 26q42 8 94 14q-37 -40 -64 -71q-46 -53 -78 -82q29 -29 58.5 -60.5t62.5 -68.5l14 -16q-47 6 -87 13q-68 13 -115 26q3 -10 4 -20q-48 1 -89 7q-59 8 -103 20.5t-75 25.5q4 -29 4 -60q0 -17 -1 -34q-15 94 -25 211q-13 151 -13 345h-25q0 -89 -2 -169
q-115 1 -206 13q-98 14 -171.5 34.5t-124.5 42.5q7 -48 7 -99t-7 -105q51 22 124 42.5t172 33.5q90 13 205 14q-4 -81 -10 -151q-9 -107 -22 -194q-95 2 -173 12q-98 14 -171.5 34.5t-124.5 42.5q7 -48 7 -99t-7 -105q51 22 124 42.5t172 33.5q76 11 169 13q-4 -23 -8 -44
q-21 -114 -42 -192q48 11 99 11t105 -11q-22 78 -43 191q-2 13 -5 27q29 12 67 23q44 12 103 20q42 6 92 7q1 -11 1 -23q0 -30 -7 -63q47 13 115 26q55 10 125 17q11 -12 23 -24l10 7q-6 10 -12 19q6 1 12 1q84 7 190 8q-9 -43 -18 -76q29 7 59.5 7t62.5 -7
q-13 47 -25.5 114.5t-20.5 158.5t-8 207h-14q0 -116 -8 -206.5t-21 -158.5l-4 -24q-107 0 -192 8q-18 1 -34 3q-19 32 -35 61q-28 53 -46 88q15 31 44 84q18 34 41 72q14 2 29 3q91 8 207 8v15zM1694 800q0 -193 -13 -344t-34 -264.5t-42 -191.5q48 11 99 11t105 -11
q-22 78 -43 191t-34 264t-13 345h-25zM415 448q-31 3 -59 6q-98 14 -171.5 34.5t-124.5 42.5q7 -48 7 -99t-7 -105q51 22 124 42.5t172 33.5q28 4 59 7v38z" />
</svg>
