<?xml version="1.0" standalone="no"?>
<!DOCTYPE svg PUBLIC "-//W3C//DTD SVG 1.1//EN" "http://www.w3.org/Graphics/SVG/1.1/DTD/svg11.dtd" >
<svg xmlns="http://www.w3.org/2000/svg" xmlns:xlink="http://www.w3.org/1999/xlink" version="1.1" viewBox="0 0 1454 811">
   <path fill="currentColor"
d="M1329 800q0 -193 -13 -344t-34 -264q-4 -21 -7 -41q-179 1 -320 13q-29 3 -57 6q-31 53 -57 102q-47 88 -78 147q26 50 74 139q30 56 68 121q24 2 49 4q151 14 345 14v24q-193 0 -344 13l-16 2l14 22l-17 12q-15 -16 -29 -31q-121 12 -216 29q-114 21 -192 43
q11 -48 11 -99q0 -22 -2 -45q-83 3 -152 12q-98 14 -171.5 34.5t-124.5 42.5q7 -48 7 -99t-7 -105q51 22 124 42.5t172 33.5q68 10 149 12q-2 -16 -6 -33q78 22 191 42q71 13 156 23q-61 -66 -107 -118q-76 -87 -129 -135q49 -49 97.5 -102t104.5 -114l24 -26q-79 9 -145 21
q-114 21 -192 43q4 -17 6 -34q-81 3 -149 12q-98 14 -171.5 34.5t-124.5 42.5q7 -48 7 -99t-7 -105q51 22 124 42.5t172 33.5q69 10 153 13q1 -20 1 -39q0 -51 -11 -105q78 22 191 42q92 17 208 29l38 -40l17 12l-20 32q10 1 21 1q139 13 316 14q-15 -72 -30 -127
q48 11 99 11t105 -11q-22 78 -43 191t-34 264t-13 345h-25z" />
</svg>
