<?xml version="1.0" standalone="no"?>
<!DOCTYPE svg PUBLIC "-//W3C//DTD SVG 1.1//EN" "http://www.w3.org/Graphics/SVG/1.1/DTD/svg11.dtd" >
<svg xmlns="http://www.w3.org/2000/svg" xmlns:xlink="http://www.w3.org/1999/xlink" version="1.1" viewBox="0 0 1149 880">
   <path fill="currentColor"
d="M1024 880q0 -193 -13 -344t-34 -264.5t-42 -191.5q48 11 99 11t105 -11q-22 78 -43 191t-34 264t-13 345h-25zM925 527q-90 -97 -148 -162q-44 -50 -78 -83q-110 1 -198 13q-98 13 -171.5 34t-124.5 42q7 -48 7 -99t-7 -104q51 21 124 42t172 34q82 11 186 13
q33 -34 66 -70q37 -39 78.5 -85.5t93.5 -101.5l12 9q-49 79 -84 144.5t-58 110.5q19 37 55 104t87 150zM622 661q0 -3 -1 -6q-13 -98 -34 -171.5t-42 -124.5q48 7 99 7t105 -7q-22 51 -43 124t-34 172q0 4 -1 8q89 4 189 4v24q-102 0 -193 4q-8 83 -8 184h-25
q0 -100 -8 -182q-58 3 -110 7q-42 4 -80 8q-7 76 -7 167h-25q0 -88 -6 -162q-80 9 -146 21q-114 21 -192 43q11 -48 11 -99t-11 -105q78 22 191 42q63 12 138 21q-13 -89 -32 -157q-21 -73 -42 -124q48 7 99 7t105 -7q-22 51 -43 124q-20 70 -33 164q35 3 72 6q51 5 107 8z
" />
</svg>
