<?xml version="1.0" standalone="no"?>
<!DOCTYPE svg PUBLIC "-//W3C//DTD SVG 1.1//EN" "http://www.w3.org/Graphics/SVG/1.1/DTD/svg11.dtd" >
<svg xmlns="http://www.w3.org/2000/svg" xmlns:xlink="http://www.w3.org/1999/xlink" version="1.1" viewBox="0 0 1443 702">
   <path fill="currentColor"
d="M1145 375zM1145 337zM865 375zM865 337zM1310 598q-193 0 -344 13.5t-264.5 34t-191.5 42.5q11 -48 11 -99t-11 -105q-81 3 -149 12q-98 14 -171.5 34.5t-124.5 42.5q7 -48 7 -99t-7 -105q51 22 124 42.5t172 33.5q68 10 149 12q7 -48 7 -98.5t-7 -104.5q-81 3 -149 12
q-98 14 -171.5 34.5t-124.5 42.5q7 -48 7 -99t-7 -105q51 22 124 42.5t172 33.5q68 10 149 12q11 -48 11 -98q0 -51 -11 -105q78 22 191 42.5t264 34t345 13.5v1q49 -54 106 -115l17 12q-66 104 -112.5 192t-77.5 147q26 50 74 139.5t116 199.5l-17 12q-58 -62 -106 -115v11
zM1107 333q40 -40 80 -84q48 -51 102 -111q-181 1 -323 13q-151 14 -264 34q-113 21 -191 42q36 2 74 2v24q-38 0 -74 1q51 22 123 42q70 20 163 33q-2 -37 -7 -75q51 22 124.5 42.5t171.5 33.5q10 2 21 3zM1118 378q-16 1 -32 3q-98 14 -171.5 34.5t-124.5 42.5
q6 -37 7 -75q-92 13 -162 32q-73 21 -124 42q36 2 74 2v24q-38 0 -74 1q78 22 190 42q113 21 264 34q146 13 333 14q-44 -48 -79 -88q-57 -65 -101 -108z" />
</svg>
