<?xml version="1.0" standalone="no"?>
<!DOCTYPE svg PUBLIC "-//W3C//DTD SVG 1.1//EN" "http://www.w3.org/Graphics/SVG/1.1/DTD/svg11.dtd" >
<svg xmlns="http://www.w3.org/2000/svg" xmlns:xlink="http://www.w3.org/1999/xlink" version="1.1" viewBox="0 0 1649 811">
   <path fill="currentColor"
d="M1524 800q0 -193 -13 -344t-33.5 -264.5t-42.5 -191.5q48 11 99 11t105 -11q-22 78 -43 191t-34 264t-13 345h-25zM511 350q36 2 74 2v24q-38 0 -74 1q78 22 190 42q113 21 264 34q140 13 317 14q0 -6 -1 -11q-9 -107 -22 -195q-163 2 -293 13q-151 14 -264 34
q-113 21 -191 42zM510 350q11 -48 11 -98q0 -51 -11 -105q78 22 191 42.5t264 33.5q129 12 290 13q-4 -23 -8 -44q-20 -114 -42 -192q48 11 99 11t105 -11q-22 78 -43 191t-34 264t-13 345h-25v-79q-184 1 -328 13q-151 14 -264.5 34.5t-191.5 42.5q11 -48 11 -99t-11 -105
q-81 3 -149 12q-98 14 -171.5 34.5t-124.5 42.5q7 -48 7 -99t-7 -105q51 22 124 42.5t172 33.5q68 10 149 12q11 -48 11 -98.5t-11 -104.5q-81 3 -149 12q-98 14 -171.5 34.5t-124.5 42.5q7 -48 7 -99t-7 -105q51 22 124 42.5t172 33.5q68 10 149 12zM511 580q36 2 74 2v24
q-38 0 -74 1q78 22 190 42q113 21 264 34q144 13 328 14q-2 -111 -9 -206q-178 1 -318 13q-151 14 -264 34q-113 21 -191 42z" />
</svg>
