<?xml version="1.0" standalone="no"?>
<!DOCTYPE svg PUBLIC "-//W3C//DTD SVG 1.1//EN" "http://www.w3.org/Graphics/SVG/1.1/DTD/svg11.dtd" >
<svg xmlns="http://www.w3.org/2000/svg" xmlns:xlink="http://www.w3.org/1999/xlink" version="1.1" viewBox="0 0 752 662">
   <path fill="currentColor"
d="M715 336zM742 310zM552 499zM579 472zM390 662zM416 635zM715 336q-24 -19 -46 -37q-79 -60 -145.5 -97t-118.5 -58q39 -29 75.5 -65t68.5 -79q21 51 58 117.5t97 145.5q18 23 38 47q-12 11 -27 26zM552 499q-23 -20 -46 -37q-79 -60 -145.5 -97.5t-117.5 -57.5
q39 -29 75 -65t69 -79q20 51 57.5 117.5t97.5 145.5q17 22 37 46zM390 662q-24 -20 -47 -37q-78 -60 -145 -97.5t-118 -58.5q39 -29 75 -65t69 -79q21 52 58 118.5t97 144.5q18 23 37 47z" />
</svg>
