<?xml version="1.0" standalone="no"?>
<!DOCTYPE svg PUBLIC "-//W3C//DTD SVG 1.1//EN" "http://www.w3.org/Graphics/SVG/1.1/DTD/svg11.dtd" >
<svg xmlns="http://www.w3.org/2000/svg" xmlns:xlink="http://www.w3.org/1999/xlink" version="1.1" viewBox="0 0 1519 774">
   <path fill="currentColor"
d="M1509 684q-193 0 -344 13.5t-264.5 34t-191.5 42.5q11 -48 11 -99t-11 -105q78 22 191 42q37 7 79 13q-77 -83 -129 -142q-58 -65 -97 -101q36 -36 73 -76t78 -86q30 -33 64 -70q-35 5 -67 11q-114 21 -192 43q11 -48 11 -99t-11 -105q78 22 191 42.5t264 34t345 13.5v24
q-168 0 -304 10l5 4q-49 78 -84 144t-58 110q19 38 55 105t87 150l-12 8q-90 -96 -148 -161.5t-97 -101.5q36 -36 73 -76t78 -86q40 -43 88 -95q-14 1 -27 2q-90 8 -166 19q-42 68 -73 126q-35 66 -58 110q19 38 55 105q35 64 83 142q73 10 158 17q151 14 345 14v24z
M580 629q-126 0 -224 13.5t-171.5 34t-124.5 42.5q7 -48 7 -99t-7 -105q51 22 124 42.5t172 33.5q91 13 207 14q-44 -48 -79 -88q-76 -87 -129 -135q49 -49 97 -102q48 -51 102 -111q-110 2 -198 13q-98 14 -171.5 34.5t-124.5 42.5q7 -48 7 -99t-7 -105q51 22 124 42.5
t172 33.5q96 13 220 14q48 -53 105 -114l17 12q-66 104 -112.5 192t-77.5 147q26 50 74 139.5t116 199.5l-17 12q-55 -59 -101 -110v6zM1398 645q-90 -96 -148 -161.5t-97 -101.5q36 -36 73 -76t78.5 -86t93.5 -101l12 9q-49 78 -84 144t-58 110q19 38 55 105t87 150z" />
</svg>
