<?xml version="1.0" standalone="no"?>
<!DOCTYPE svg PUBLIC "-//W3C//DTD SVG 1.1//EN" "http://www.w3.org/Graphics/SVG/1.1/DTD/svg11.dtd" >
<svg xmlns="http://www.w3.org/2000/svg" xmlns:xlink="http://www.w3.org/1999/xlink" version="1.1" viewBox="-5 0 1575 910">
   <path fill="currentColor"
d="M315 910zM341 883zM659 336zM685 309zM315 910q-24 -20 -47 -37q-78 -60 -145 -97.5t-118 -57.5q39 -29 75 -65t69 -79q21 51 58 117q-3 -119 -13 -217q-13 -125 -34 -218t-42 -158q48 9 99 9t104 -9q-21 65 -42 158t-34 217q-12 115 -13 260q30 49 72 104q18 23 37 46
q-11 12 -26 27zM659 336q-24 -20 -47 -37q-78 -60 -145 -97.5t-118 -57.5q39 -29 75 -65t69 -79q21 51 58 117.5t97 145.5q18 23 37 46q-11 12 -26 27zM1318 598q-6 87 -8 187q112 10 250 10v24q-139 0 -251 10v69h-25v-66h-8q-125 14 -218.5 34.5t-157.5 42.5q9 -48 9 -99
t-9 -105q64 22 157 42.5t218 33.5q4 1 8 1q-2 -96 -8 -180q-124 14 -217 34q-94 21 -158 43q9 -48 9 -99q0 -23 -2 -46q-147 1 -263 13q-125 14 -218.5 34.5t-157.5 42.5q9 -48 9 -99t-9 -105q64 22 157 42.5t218 33.5q116 13 262 14q-2 -18 -5 -35q64 22 157 42
q92 21 214 34q-9 -96 -20 -176q-109 13 -193 31q-94 21 -158 43q9 -48 9 -99t-9 -105q64 22 157 42q81 18 185 31q-2 -15 -5 -28q-21 -114 -42 -192q48 11 99 11t104 -11q-21 78 -42 191q-4 19 -7 39q96 7 211 7v24q-118 0 -217 7q-12 85 -21 187v3q107 9 238 9v24
q-133 0 -242 9z" />
</svg>
