<?xml version="1.0" standalone="no"?>
<!DOCTYPE svg PUBLIC "-//W3C//DTD SVG 1.1//EN" "http://www.w3.org/Graphics/SVG/1.1/DTD/svg11.dtd" >
<svg xmlns="http://www.w3.org/2000/svg" xmlns:xlink="http://www.w3.org/1999/xlink" version="1.1" viewBox="0 0 1404 800">
   <path fill="currentColor"
d="M1394 443zM1394 405zM1114 443zM1114 405zM834 443zM834 405zM554 443zM554 405zM1394 443q-30 3 -59 6q-98 14 -171.5 34.5t-124.5 42.5q6 -37 7 -75q-92 13 -162 32q-74 21 -125 43q6 -37 7 -75q-92 13 -162 32q-74 21 -125 43q6 -37 7 -75q-92 13 -162 32
q-74 21 -125 43q8 -48 8 -99t-8 -105q51 22 124 42q70 20 163 33q-2 -37 -7 -75q51 22 124 42q70 20 163 33q-2 -37 -7 -75q51 22 124 42q70 20 163 33q-2 -37 -7 -75q51 22 124.5 42.5t171.5 33.5q28 4 59 7v38zM139 800q0 -193 -13.5 -344t-34 -264.5t-42.5 -191.5
q48 11 99 11t105 -11q-22 78 -42.5 191t-34 264t-13.5 345h-24z" />
</svg>
