<?xml version="1.0" standalone="no"?>
<!DOCTYPE svg PUBLIC "-//W3C//DTD SVG 1.1//EN" "http://www.w3.org/Graphics/SVG/1.1/DTD/svg11.dtd" >
<svg xmlns="http://www.w3.org/2000/svg" xmlns:xlink="http://www.w3.org/1999/xlink" version="1.1" viewBox="0 0 1518 910">
   <path fill="currentColor"
d="M355 910zM381 883zM699 336zM725 309zM355 910q-24 -20 -47 -37q-78 -60 -145 -97.5t-118 -57.5q39 -29 75 -65t69 -79q21 51 58 117q-3 -119 -13 -217q-13 -125 -34 -218t-42 -158q48 9 99 9t104 -9q-21 65 -42 158t-34 217q-12 115 -13 260q30 49 72 104q18 23 37 46
q-11 12 -26 27zM699 336q-24 -20 -47 -37q-78 -60 -145 -97.5t-118 -57.5q39 -29 75 -65t69 -79q21 51 58 117.5t97 145.5q18 23 37 46q-11 12 -26 27zM1355 334q-4 -23 -8 -44q-21 -114 -42 -192q48 11 99 11t104 -11q-21 78 -42 191t-34 264t-13 345h-25v-79
q-150 1 -268 13q-125 14 -218.5 34.5t-157.5 42.5q9 -48 9 -99t-9 -105q64 22 157 42.5t218 33.5q118 13 268 14q-2 -111 -9 -206q-144 1 -258 13q-125 14 -218.5 34.5t-157.5 42.5q9 -48 9 -99q0 -22 -2 -45q-80 3 -148 12q-98 14 -171.5 34.5t-124.5 42.5q7 -48 7 -99
t-7 -105q51 22 124 42.5t171 33.5q67 9 147 12q-2 -16 -5 -33q64 22 157 42.5t218 33.5q114 12 257 14q-1 -6 -1 -11q-9 -107 -22 -194q-129 1 -233 12q-125 14 -218.5 34.5t-157.5 42.5q9 -48 9 -99t-9 -105q64 22 157 42.5t218 33.5q103 11 230 13z" />
</svg>
