<?xml version="1.0" standalone="no"?>
<!DOCTYPE svg PUBLIC "-//W3C//DTD SVG 1.1//EN" "http://www.w3.org/Graphics/SVG/1.1/DTD/svg11.dtd" >
<svg xmlns="http://www.w3.org/2000/svg" xmlns:xlink="http://www.w3.org/1999/xlink" version="1.1" viewBox="0 0 1570 434">
   <path fill="currentColor"
d="M415 351zM415 313zM415 121zM415 83zM975 121zM975 83zM695 351zM695 313zM695 121zM695 83zM1560 114q-160 0 -284.5 13.5t-217.5 34t-158 42.5q7 -37 9 -76q-94 13 -165 33q-73 21 -124 43q6 -37 7 -75q-92 13 -163 32q-73 21 -124 43q6 -37 7 -75q-92 13 -163 32
q-73 21 -124 43q7 -48 7 -99t-7 -105q51 22 124 42q70 20 163 33q-2 -37 -7 -75q51 22 124 42q70 20 163 33q-2 -37 -7 -75q51 22 124 42q71 20 165 33q-2 -37 -9 -75q65 22 158 42.5t217.5 34t284.5 13.5v24zM1280 344q-160 0 -284.5 13.5t-217.5 34t-158 42.5q7 -37 9 -76
q-94 13 -165 33q-73 21 -124 43q6 -37 7 -75q-92 13 -163 32q-73 21 -124 43q7 -48 7 -99t-7 -105q51 22 124 42q70 20 163 33q-2 -37 -7 -75q51 22 124 42q71 20 165 33q-2 -37 -9 -75q65 22 158 42.5t217.5 34t284.5 13.5v24z" />
</svg>
