<?xml version="1.0" standalone="no"?>
<!DOCTYPE svg PUBLIC "-//W3C//DTD SVG 1.1//EN" "http://www.w3.org/Graphics/SVG/1.1/DTD/svg11.dtd" >
<svg xmlns="http://www.w3.org/2000/svg" xmlns:xlink="http://www.w3.org/1999/xlink" version="1.1" viewBox="0 0 983 800">
   <path fill="currentColor"
d="M852 355zM890 355zM592 355zM630 355zM362 355zM400 355zM132 355zM170 355zM859 800q0 -126 -13.5 -224t-34 -171.5t-42.5 -124.5q37 6 75 7q-13 -92 -33 -163q-20 -73 -42 -124q48 7 99 7t105 -7q-22 51 -43 124q-19 70 -32 163q36 -2 75 -7q-22 51 -42.5 124
t-34 171.5t-13.5 224.5h-24zM599 800q0 -126 -13.5 -224t-34 -171.5t-42.5 -124.5q37 6 75 7q-13 -92 -33 -163q-20 -73 -42 -124q48 7 99 7t105 -7q-22 51 -43 124q-19 70 -32 163q36 -2 75 -7q-22 51 -42.5 124t-34 171.5t-13.5 224.5h-24zM369 800q0 -126 -13.5 -224
t-34 -171.5t-42.5 -124.5q37 6 75 7q-13 -92 -33 -163q-20 -73 -42 -124q48 7 99 7t105 -7q-22 51 -43 124q-19 70 -32 163q36 -2 75 -7q-22 51 -42.5 124t-34 171.5t-13.5 224.5h-24zM139 800q0 -126 -13.5 -224t-34 -171.5t-42.5 -124.5q37 6 75 7q-13 -92 -33 -163
q-20 -73 -42 -124q48 7 99 7t105 -7q-22 51 -43 124q-19 70 -32 163q36 -2 75 -7q-22 51 -42.5 124t-34 171.5t-13.5 224.5h-24z" />
</svg>
