<?xml version="1.0" standalone="no"?>
<!DOCTYPE svg PUBLIC "-//W3C//DTD SVG 1.1//EN" "http://www.w3.org/Graphics/SVG/1.1/DTD/svg11.dtd" >
<svg xmlns="http://www.w3.org/2000/svg" xmlns:xlink="http://www.w3.org/1999/xlink" version="1.1" viewBox="0 0 833 1138">
   <path fill="currentColor"
d="M386 1138q-120 -129 -196.5 -216t-129.5 -135q49 -49 97.5 -102t104.5 -114l2 -2q-41 -45 -74 -83q-77 -87 -130 -135q49 -49 97.5 -102t104.5 -114.5t124 -134.5l17 12q-65 104 -112 192t-77 147q25 50 73 139q9 16 18 33q31 -33 65 -70q-58 -64 -100 -102
q49 -49 97.5 -102t104.5 -114.5t124 -134.5l17 12q-65 104 -112 192t-77 147q25 50 73 139q9 16 18 33q31 -33 65 -70q-58 -64 -100 -102q49 -49 97.5 -102t104.5 -114.5t124 -134.5l17 12q-65 104 -112 192t-77 147q25 50 73 139.5t116 199.5l-17 12q-120 -129 -196 -216
q-6 -7 -12 -13q-31 49 -57 95q32 58 72 122l-17 12q-43 -47 -81 -88l-14 26q-47 88 -77 147q25 50 73 139.5t116 199.5l-17 12q-120 -129 -196.5 -216t-129.5 -135q49 -49 98 -102q0 -1 1 -2q-34 -36 -64 -69l-14 26q-47 88 -77 147q25 50 73 139.5t116 199.5zM388 473
q-31 49 -57 95q26 46 56 96q40 -44 85 -93l2 -2q-41 -45 -74 -83q-6 -7 -12 -13z" />
</svg>
