<?xml version="1.0" standalone="no"?>
<!DOCTYPE svg PUBLIC "-//W3C//DTD SVG 1.1//EN" "http://www.w3.org/Graphics/SVG/1.1/DTD/svg11.dtd" >
<svg xmlns="http://www.w3.org/2000/svg" xmlns:xlink="http://www.w3.org/1999/xlink" version="1.1" viewBox="0 0 723 1080">
   <path fill="currentColor"
d="M592 355zM630 355zM362 355zM400 355zM132 355zM170 355zM592 635zM630 635zM362 635zM400 635zM132 635zM170 635zM363 1080q0 -107 -28.5 -190.5t-73.5 -146t-92 -105.5q104 6 214.5 6t226.5 -6q-47 43 -92 105.5t-73.5 146t-28.5 190.5h-53zM592 635q-3 -31 -7 -59
q-13 -98 -33.5 -171.5t-42.5 -124.5q37 6 75 7q-13 -92 -33 -163q-20 -73 -42 -124q48 7 99 7t105 -7q-22 51 -43 124q-19 70 -32 163q36 -2 75 -7q-22 51 -42.5 124t-34.5 172q-3 28 -6 59h-38zM362 635q-3 -31 -7 -59q-13 -98 -33.5 -171.5t-42.5 -124.5q37 6 75 7
q-13 -92 -33 -163q-20 -73 -42 -124q48 7 99 7t105 -7q-22 51 -43 124q-19 70 -32 163q36 -2 75 -7q-22 51 -42.5 124t-34.5 172q-3 28 -6 59h-38zM132 635q-3 -31 -7 -59q-13 -98 -33.5 -171.5t-42.5 -124.5q37 6 75 7q-13 -92 -33 -163q-20 -73 -42 -124q48 7 99 7t105 -7
q-22 51 -43 124q-19 70 -32 163q36 -2 75 -7q-22 51 -42.5 124t-34.5 172q-3 28 -6 59h-38z" />
</svg>
