<?xml version="1.0" standalone="no"?>
<!DOCTYPE svg PUBLIC "-//W3C//DTD SVG 1.1//EN" "http://www.w3.org/Graphics/SVG/1.1/DTD/svg11.dtd" >
<svg xmlns="http://www.w3.org/2000/svg" xmlns:xlink="http://www.w3.org/1999/xlink" version="1.1" viewBox="0 0 870 800">
   <path fill="currentColor"
d="M860 571q-193 0 -344 13q-32 3 -63 6q-4 98 -4 210h-25q0 -110 -4 -206q-93 10 -168 24q-114 21 -192 43q11 -48 11 -99t-11 -105q78 22 191 42q74 14 165 25q-2 -35 -5 -68q-4 -47 -9 -90q-82 10 -150 22q-114 21 -192 43q11 -48 11 -99t-11 -105q78 22 191 42
q65 12 142 22q-7 -53 -16 -99q-21 -114 -42 -192q48 11 99 11t105 -11q-22 78 -43 191q-9 51 -17 109q18 2 36 3q151 14 345 14v24q-193 0 -344 13q-23 2 -44 4q-5 46 -10 97q-3 35 -5 73q28 3 58 5q151 14 345 14v24z" />
</svg>
