<?xml version="1.0" standalone="no"?>
<!DOCTYPE svg PUBLIC "-//W3C//DTD SVG 1.1//EN" "http://www.w3.org/Graphics/SVG/1.1/DTD/svg11.dtd" >
<svg xmlns="http://www.w3.org/2000/svg" xmlns:xlink="http://www.w3.org/1999/xlink" version="1.1" viewBox="0 0 870 811">
   <path fill="currentColor"
d="M860 721q-193 0 -344 13q-35 3 -67 7v59h-25v-57q-95 11 -172 25q-114 21 -192 43q11 -48 11 -99t-11 -105q78 22 191 42q77 15 172 25q-2 -84 -7 -160q-90 11 -164 24q-114 21 -192 43q11 -48 11 -99t-11 -105q78 22 191 42q72 14 159 24q-8 -84 -18 -156
q-76 10 -140 21q-114 21 -192 43q11 -48 11 -99t-11 -105q78 22 191 42q59 11 129 20q-1 -9 -3 -17q-21 -114 -42 -192q48 11 99 11t105 -11q-22 78 -43 191q-3 15 -5 30l24 2q151 14 345 14v24q-193 0 -344 13q-17 2 -34 3q-11 79 -19 172q25 2 52 4q151 14 345 14v24
q-193 0 -344 13q-30 3 -58 6q-6 78 -8 167q32 4 65 6q151 14 345 14v24z" />
</svg>
