<?xml version="1.0" standalone="no"?>
<!DOCTYPE svg PUBLIC "-//W3C//DTD SVG 1.1//EN" "http://www.w3.org/Graphics/SVG/1.1/DTD/svg11.dtd" >
<svg xmlns="http://www.w3.org/2000/svg" xmlns:xlink="http://www.w3.org/1999/xlink" version="1.1" viewBox="0 0 942 831">
   <path fill="currentColor"
d="M920 526q-90 -96 -148 -162q-44 -50 -78 -83q-115 1 -211 9q-12 81 -20 179q25 2 52 4q151 14 345 14v24q-193 0 -344 13q-30 3 -58 6q-6 78 -8 167q32 4 65 6q151 14 345 14v24q-193 0 -344 13q-35 3 -67 7v59h-25v-57q-95 11 -172 25q-114 21 -192 43q11 -48 11 -99
t-11 -105q78 22 191 42q77 15 172 25q-2 -84 -7 -160q-90 11 -164 24q-114 21 -192 43q11 -48 11 -99t-11 -105q78 22 191 42q72 14 159 24q-8 -88 -19 -164q-97 12 -173 29q-93 21 -158 43q9 -48 9 -99t-9 -105q65 22 158 42q72 17 164 28q-2 -13 -5 -25q-21 -114 -42 -192
q48 11 99 11t105 -11q-22 78 -43 191q-3 18 -6 37q88 7 192 8q33 -33 66 -69q37 -40 78.5 -86t93.5 -101l12 9q-49 78 -84 144t-58 110q19 38 55 105t87 150z" />
</svg>
