<?xml version="1.0" standalone="no"?>
<!DOCTYPE svg PUBLIC "-//W3C//DTD SVG 1.1//EN" "http://www.w3.org/Graphics/SVG/1.1/DTD/svg11.dtd" >
<svg xmlns="http://www.w3.org/2000/svg" xmlns:xlink="http://www.w3.org/1999/xlink" version="1.1" viewBox="0 0 942 831">
   <path fill="currentColor"
d="M920 526q-90 -96 -148 -162q-17 -19 -33 -36q-17 28 -31 55q-35 66 -58 110q19 38 55 105q29 54 68 118q42 1 87 1v24q-36 0 -71 1q1 3 3 6l-12 8l-14 -14q-137 2 -250 12q-35 3 -67 7v59h-25v-57q-95 11 -172 25q-114 21 -192 43q11 -48 11 -99t-11 -105q78 22 191 42
q77 15 172 25q-2 -94 -8 -176q-31 3 -59 6q-98 14 -171.5 34.5t-124.5 42.5q7 -48 7 -99t-7 -105q51 22 124 42.5t172 33.5q26 4 56 7q-1 -2 -1 -4q-8 -96 -20 -177q-97 12 -173 29q-93 21 -158 43q9 -48 9 -99t-9 -105q65 22 158 42q72 17 164 28q-2 -13 -5 -25
q-21 -114 -42 -192q48 11 99 11t105 -11q-22 78 -43 191q-3 18 -6 37q88 7 192 8q33 -33 66 -69q37 -40 78.5 -86t93.5 -101l12 9q-49 78 -84 144t-58 110q19 38 55 105t87 150zM694 281q-115 1 -211 9q-12 84 -21 185q0 4 -1 8q39 3 81 3q33 -33 66 -69q37 -40 78 -86
l28 -30q-10 -11 -20 -20zM450 697q32 4 65 6q103 9 226 12q-64 -70 -109 -121q-44 -50 -78 -83q-50 1 -95 4q-6 85 -9 182z" />
</svg>
