<?xml version="1.0" standalone="no"?>
<!DOCTYPE svg PUBLIC "-//W3C//DTD SVG 1.1//EN" "http://www.w3.org/Graphics/SVG/1.1/DTD/svg11.dtd" >
<svg xmlns="http://www.w3.org/2000/svg" xmlns:xlink="http://www.w3.org/1999/xlink" version="1.1" viewBox="0 0 589 534">
   <path fill="currentColor"
d="M553 534zM579 507zM355 336zM381 309zM553 534q-24 -20 -47 -37q-78 -60 -145 -97.5t-118 -57.5q30 -22 58 -49q-74 -56 -138 -91q-67 -38 -118 -58q39 -29 75 -65t69 -79q21 51 58 117q35 64 92 139q25 -28 48 -58q21 51 58 117.5t97 145.5q17 22 37 46q-11 12 -26 27z
" />
</svg>
