<?xml version="1.0" standalone="no"?>
<!DOCTYPE svg PUBLIC "-//W3C//DTD SVG 1.1//EN" "http://www.w3.org/Graphics/SVG/1.1/DTD/svg11.dtd" >
<svg xmlns="http://www.w3.org/2000/svg" xmlns:xlink="http://www.w3.org/1999/xlink" version="1.1" viewBox="0 0 760 801">
   <path fill="currentColor"
d="M590 550l-10 -41q-37 -154 -53 -187q-14 -28 -1 -38q6 -4 9 -4q7 0 25 16q12 10 34 18l-4 -44l-10 -41q-37 -154 -53 -187q-14 -28 -1 -38q6 -4 9 -4q7 0 25 16q19 16 62 25q4 1 10.5 2.5t9.5 2t10 1t16 0t23 -1.5q10 -1 34.5 -3t24.5 -1q0 3 -13 20q-31 41 -56 95
q-10 22 -16 40.5t-11.5 44.5t-11.5 46t-11 37q22 5 60 1q10 -1 34.5 -3t24.5 -1q0 3 -13 20q-31 41 -56 95q-10 22 -16 40.5t-11.5 44.5t-11.5 46q-15 221 -17 225q-3 9 -10 9q-10 -1 -17 -16q-2 -4 -4 -63t-3 -115zM263 403l-8 -31q-28 -116 -40 -141q-11 -21 -1 -28
q5 -3 7 -3q5 0 19 12t47 19q2 1 7 2l7.5 1.5t7.5 1t12 0t17 -1.5q8 -1 26 -2.5t18 -0.5q0 2 -9 15q-23 31 -42 71q-8 17 -12.5 30.5t-8.5 33t-9 34.5q-11 376 -12 379q-3 7 -8 6q-8 0 -13 -11q-1 -3 -2.5 -99.5t-2.5 -191.5v-95zM435 613l-7 -31q-28 -116 -41 -141
q-10 -21 0 -28q4 -3 6 -3q6 0 19 12q9 8 26 13l-3 -32l-7 -31q-28 -116 -41 -141q-10 -21 0 -28q4 -3 6 -3q6 0 19 12q14 12 47 19q3 1 8 2t7 1.5t7.5 1t12 0t16.5 -1.5q8 -1 26.5 -2.5t18.5 -0.5q0 2 -10 15q-23 31 -42 71q-8 17 -12 30.5t-8.5 33t-8.5 34.5t-8 28
q16 4 44 1q8 -1 26.5 -2.5t18.5 -0.5q0 2 -10 15q-23 31 -42 71q-8 17 -12 30.5t-8.5 33t-8.5 34.5q-12 166 -13 169q-2 7 -8 6q-7 0 -12 -11q-2 -3 -3 -47t-2 -87zM130 270l-10 -41q-37 -154 -53 -187q-14 -28 -1 -38q6 -4 9 -4q7 0 25 16q19 16 62 25q4 1 10.5 2.5t9.5 2
t10 1t16 0t23 -1.5q10 -1 34.5 -3t24.5 -1q0 3 -13 20q-31 41 -56 95q-10 22 -16 40.5t-11.5 44.5t-11.5 46q-15 501 -17 505q-3 9 -10 9q-10 -1 -17 -16q-2 -4 -4 -133t-3 -255z" />
</svg>
