<?xml version="1.0" standalone="no"?>
<!DOCTYPE svg PUBLIC "-//W3C//DTD SVG 1.1//EN" "http://www.w3.org/Graphics/SVG/1.1/DTD/svg11.dtd" >
<svg xmlns="http://www.w3.org/2000/svg" xmlns:xlink="http://www.w3.org/1999/xlink" version="1.1" viewBox="0 0 990 801">
   <path fill="currentColor"
d="M737 211q3 -3 8.5 -3.5t9.5 2t3 6.5q-3 12 -28.5 59t-36.5 85q-12 38 3.5 86t45.5 87q14 19 24 47t5 32q-1 1 -3.5 -1.5t-6 -7.5t-7.5 -12q-13 -26 -51 -65q-26 -27 -46.5 -41t-73.5 -42q-10 -5 -16 -11l-157 4l-31 8q-116 28 -141 40q-21 10 -28 0q-3 -4 -3 -6
q0 -5 12 -19t19 -47q1 -2 2 -7l1.5 -7.5t1 -7.5t0 -12t-1.5 -17q-1 -8 -2.5 -26t-0.5 -18q2 0 15 9q31 23 71 42q17 8 30.5 12t33 8.5t34.5 9.5q89 6 138 9q5 -6 18 -11q6 -3 20 -13.5t27 -21.5t28 -24t17 -14q12 -10 29.5 -48.5t37.5 -63.5zM663 367l2 -2q-1 0 -2 2z
M820 550l-10 -41q-37 -154 -53 -187q-14 -28 -1 -38q6 -4 9 -4q7 0 25 16q12 10 34 18l-4 -44l-10 -41q-37 -154 -53 -187q-14 -28 -1 -38q6 -4 9 -4q7 0 25 16q19 16 62 25q4 1 10.5 2.5t9.5 2t10 1t16 0t23 -1.5q10 -1 34.5 -3t24.5 -1q0 3 -13 20q-31 41 -56 95
q-10 22 -16 40.5t-11.5 44.5t-11.5 46t-11 37q22 5 60 1q10 -1 34.5 -3t24.5 -1q0 3 -13 20q-31 41 -56 95q-10 22 -16 40.5t-11.5 44.5t-11.5 46q-15 221 -17 225q-3 9 -10 9q-10 -1 -17 -16q-2 -4 -4 -63t-3 -115zM130 270l-10 -41q-37 -154 -53 -187q-14 -28 -1 -38
q6 -4 9 -4q7 0 25 16q19 16 62 25q4 1 10.5 2.5t9.5 2t10 1t16 0t23 -1.5q10 -1 34.5 -3t24.5 -1q0 3 -13 20q-31 41 -56 95q-10 22 -16 40.5t-11.5 44.5t-11.5 46q-15 501 -17 505q-3 9 -10 9q-10 -1 -17 -16q-2 -4 -4 -133t-3 -255z" />
</svg>
