<?xml version="1.0" standalone="no"?>
<!DOCTYPE svg PUBLIC "-//W3C//DTD SVG 1.1//EN" "http://www.w3.org/Graphics/SVG/1.1/DTD/svg11.dtd" >
<svg xmlns="http://www.w3.org/2000/svg" xmlns:xlink="http://www.w3.org/1999/xlink" version="1.1" viewBox="0 0 1700 896">
   <path fill="currentColor"
d="M1473 275q2 -3 7.5 -3.5t9.5 2t3 6.5q-3 11 -28 58t-37 85q-11 39 4.5 86.5t44.5 86.5q15 19 24.5 47t5.5 32q-1 1 -3.5 -1.5t-6.5 -7.5t-7 -12q-13 -26 -51 -64q-26 -27 -46.5 -41.5t-73.5 -42.5t-6 -47q6 -2 20.5 -13t27 -21.5t27.5 -23.5t17 -15q12 -10 30 -48.5
t38 -62.5zM682 55q7 -9 16.5 -5.5t6.5 14.5q-5 20 -26.5 59t-47.5 91.5t-42 104.5q-20 69 7.5 153.5t80.5 153.5q27 36 50 85.5t16 56.5q-2 1 -7 -3.5t-11 -14t-13 -21.5q-10 -18 -36.5 -51.5t-53.5 -62.5q-47 -48 -83.5 -73.5t-130.5 -74.5q-19 -10 -30.5 -20.5t-16 -21.5
t4.5 -22t33 -20q10 -4 35.5 -23.5t48 -38.5t49.5 -42t30 -26q18 -15 33 -46t36.5 -74t50.5 -78zM335 215l-41 10q-154 37 -187 54q-28 14 -38 0q-4 -6 -4 -8q0 -7 16 -26q16 -18 25 -62q1 -3 3 -10t2.5 -10t1 -10t-0.5 -16t-2 -22q-1 -11 -2.5 -35.5l-1.5 -24.5q3 0 20 13
q41 31 95 56q23 10 41 16t44 12t46 11q221 16 225 17q9 4 9 11q-1 9 -16 16q-4 2 -62.5 4t-115.5 3zM335 675l-41 10q-154 37 -187 54q-28 14 -38 0q-4 -6 -4 -8q0 -7 16 -26q16 -18 25 -62q1 -3 3 -10t2.5 -10t1 -10t-0.5 -16t-2 -22q-1 -11 -2.5 -35.5l-1.5 -24.5
q3 0 20 13q41 31 95 56q23 10 41 16t44 12t46 11q221 16 225 17q9 4 9 11q-1 9 -16 16q-4 2 -62.5 4t-115.5 3zM1531 270l-10 -41q-11 -43 -20 -78q-1 1 -2 1q-4 2 -132.5 4t-255.5 3l-127 1l-41 10q-154 37 -187 54q-28 14 -38 0q-4 -6 -4 -8q0 -7 16 -26q16 -18 26 -62
q0 -3 2 -10t2.5 -10t1 -10t0 -16t-2.5 -22q-1 -11 -2.5 -35.5t-0.5 -24.5q2 0 19 13q41 31 95 56q23 10 41 16t44 12t46 11q417 13 493 16q-17 -63 -27 -82q-14 -28 -1 -38q7 -4 9 -4q7 0 25 16q19 16 63 25q3 1 9.5 2.5t10 2t10 1t16 0t22.5 -1.5q11 -1 35 -3t24 -1
q0 3 -12 20q-31 41 -56 95q-11 22 -16.5 40.5t-11.5 44.5t-12 46q-15 501 -16 505q-4 9 -11 9q-10 -1 -17 -16q-1 -4 -3 -133t-3 -255zM984 825l-41 10q-154 37 -187 54q-28 14 -38 0q-4 -6 -4 -8q0 -7 16 -26q16 -18 26 -62q0 -3 2 -10t2.5 -10t1 -10t0 -16t-2.5 -22
q-1 -11 -2.5 -35.5t-0.5 -24.5q2 0 19 13q41 31 95 56q23 10 41 16t44 12t46 11q501 16 505 17q9 4 9 11q0 9 -16 16q-4 2 -132.5 4t-255.5 3zM1026 578l-7 -31q-28 -116 -41 -141q-10 -21 0 -28q5 -3 6 -3q6 0 19 12q9 8 26 13l-3 -32l-7 -31q-28 -116 -41 -141
q-10 -21 0 -28q5 -3 6 -3q6 0 19 12q15 12 47 19q3 1 8 2t7 1.5t7.5 1t12 0t16.5 -1.5q8 -1 26.5 -2.5t18.5 -0.5q0 2 -10 15q-23 31 -41 71q-8 17 -12.5 30.5t-9 33t-8.5 34.5t-8 28q16 4 44 1q8 -1 26.5 -2.5t18.5 -0.5q0 2 -10 15q-23 31 -41 71q-8 17 -12.5 30.5t-9 33
t-8.5 34.5q-12 166 -13 169q-2 7 -8 7q-7 -1 -12 -12q-1 -2 -2 -21t-1.5 -44.5t-1 -50.5t-0.5 -43zM1199 578l-8 -31q-28 -116 -40 -141q-10 -21 0 -28q4 -3 6 -3q5 0 19 12q9 8 25 13l-2 -32l-8 -31q-28 -116 -40 -141q-10 -21 0 -28q4 -3 6 -3q5 0 19 12t47 19q2 1 7 2
l7.5 1.5t7.5 1t12 0t17 -1.5q8 -1 26.5 -2.5t18.5 -0.5q0 2 -10 15q-23 31 -42 71q-8 17 -12 30.5t-8.5 33t-9.5 34.5q-4 15 -7 28q16 4 44 1q8 -1 26.5 -2.5t18.5 -0.5q0 2 -10 15q-23 31 -42 71q-8 17 -12 30.5t-8.5 33t-9.5 34.5q-11 166 -12 169q-3 7 -8 7
q-7 -1 -12 -12q-1 -2 -2 -21t-2 -44.5t-1.5 -50.5t-0.5 -43v-17zM1398 431l3 -3zM553 315q0 -1 1 -1q-1 0 -1 1z" />
</svg>
