<?xml version="1.0" standalone="no"?>
<!DOCTYPE svg PUBLIC "-//W3C//DTD SVG 1.1//EN" "http://www.w3.org/Graphics/SVG/1.1/DTD/svg11.dtd" >
<svg xmlns="http://www.w3.org/2000/svg" xmlns:xlink="http://www.w3.org/1999/xlink" version="1.1" viewBox="0 0 1271 801">
   <path fill="currentColor"
d="M381 55q8 -9 17.5 -5.5t6.5 14.5q-5 20 -26.5 59t-48 91.5t-41.5 104.5q-20 69 7.5 153.5t79.5 153.5q27 36 50 85.5t16 56.5q-1 1 -6 -3.5t-11.5 -14t-12.5 -21.5q-10 -18 -36.5 -51.5t-53.5 -62.5q-47 -48 -83.5 -73.5t-130.5 -74.5q-19 -10 -31 -20.5t-16 -21.5t5 -22
t32 -20q11 -4 36 -23.5t48 -38.5t49.5 -42t30.5 -26q18 -15 33 -46t36.5 -74t49.5 -78zM730 160l-41 10q-154 37 -187 54q-28 14 -38 0q-4 -6 -4 -8q0 -7 16 -26q16 -18 25 -62q1 -3 2.5 -10t2 -10t1 -10t0 -16t-1.5 -22q-1 -11 -3 -35.5t-1 -24.5q3 0 20 13q41 31 94 56
q23 10 41.5 16t44.5 12t45 11q502 16 506 17q9 4 9 11q-1 9 -16 16q-4 2 -133 4t-255 3zM253 315q0 -1 1 -1q-1 0 -1 1zM730 730l-41 10q-154 37 -187 54q-28 14 -38 0q-4 -6 -4 -8q0 -7 16 -26q16 -18 25 -62q1 -3 2.5 -10t2 -10t1 -10t0 -16t-1.5 -22q-1 -11 -3 -35.5
t-1 -24.5q3 0 20 13q41 31 94 56q23 10 41.5 16t44.5 12t45 11q502 16 506 17q9 4 9 11q-1 9 -16 16q-4 2 -133 4t-255 3z" />
</svg>
