<?xml version="1.0" standalone="no"?>
<!DOCTYPE svg PUBLIC "-//W3C//DTD SVG 1.1//EN" "http://www.w3.org/Graphics/SVG/1.1/DTD/svg11.dtd" >
<svg xmlns="http://www.w3.org/2000/svg" xmlns:xlink="http://www.w3.org/1999/xlink" version="1.1" viewBox="0 0 1956 896">
   <path fill="currentColor"
d="M936 585l-6 -25q-23 -92 -32 -112q-9 -17 -1 -22q4 -3 5 -3q5 0 16 10q7 6 20 10l-2 -26l-6 -25q-23 -92 -32 -112q-9 -17 -1 -22q4 -3 5 -3q5 0 16 10q11 9 37 15q20 4 41 2q6 -1 21 -2t15 0t-8 12q-18 24 -33 56q-7 14 -10.5 25t-7 26.5t-6.5 27.5q-4 12 -6 22
q12 3 35 1q6 -1 21 -2t15 0t-8 12q-18 24 -33 56q-7 14 -10.5 25t-7 26.5t-6.5 27.5q-9 133 -10 135q-2 6 -7 5q-5 0 -9 -9q-2 -2 -3 -37.5t-1 -69.5zM827 420l-22 -13q-81 -50 -102 -57q-18 -6 -16 -16q1 -4 2 -5q3 -3 17 -4q15 -1 38 -16q1 -1 4.5 -3t5.5 -3t5 -4t6.5 -7
t8.5 -10q4 -5 13.5 -16t10.5 -11q1 1 3 14q4 30 16 64q5 14 10.5 24t14 23.5t14.5 24.5q17 30 18 32q2 5 -1 8q-4 4 -13 1q-6 -2 -33 -26zM777 558l-22 -13q-81 -50 -102 -57q-18 -6 -16 -16q0 -4 1 -5q3 -3 18 -4t37 -16q2 -1 5.5 -3t5 -3t4.5 -4l7 -7t9 -10q4 -5 13.5 -16
l9.5 -11q1 1 3 14q5 30 17 64q5 14 10.5 24t14 23.5t14.5 24.5q16 30 18 32q2 5 -1 8q-4 4 -14 1q-5 -2 -32 -26zM1520 275l-37 -23q-135 -82 -170 -94q-14 -5 -21 -12t-6 -14t3 -9q5 -5 29 -7q25 -2 62 -26q3 -2 9 -5.5t8.5 -5.5t8 -6t11.5 -11t14 -18q7 -8 23 -26.5
t17 -17.5q1 2 4 23q8 51 28 106q9 24 17.5 41t23 39.5t24.5 40.5q28 49 30 53q4 9 -2 14q-7 7 -22 1q-10 -4 -54 -43zM561 365l-10 -41q-38 -154 -54 -187q-14 -28 -1 -38q7 -4 9 -4q7 0 25 16q19 16 63 25q3 1 9.5 2.5t10 2t10 1t16 0t22.5 -1.5q11 -1 35 -3t24 -1
q0 3 -12 20q-31 41 -56 95q-11 22 -16.5 40.5t-11.5 44.5t-12 46q-9 221 -14 319q1 1 1 2q9 24 17.5 41t23 39.5t24.5 40.5q28 49 30 53q4 9 -2 14q-7 7 -22 1q-10 -4 -54 -43l-37 -23q-135 -82 -170 -94q-14 -5 -21 -12t-6 -14t3 -9q5 -5 29 -7q25 -2 62 -26q3 -2 9 -5.5
t8.5 -5.5t8 -6t11.5 -11t14 -18q22 -26 36 -41q0 -37 -1 -79q-12 2 -70 3.5t-110 2.5l-52 1l-41 10q-154 37 -187 54q-28 14 -38 0q-4 -6 -4 -8q0 -7 16 -26q16 -18 25 -62q1 -3 3 -10t2.5 -10t1 -10t-0.5 -16t-2 -22q-1 -11 -2.5 -35.5l-1.5 -24.5q3 0 20 13q41 31 95 56
q23 10 41 16t44 12t46 11q172 12 215 16zM1555 540l-41 10q-154 37 -187 54q-28 14 -38 0q-4 -6 -4 -8q0 -7 16 -26q10 -12 18 -34l-44 4l-41 10q-154 37 -187 54q-28 14 -38 0q-4 -6 -4 -8q0 -7 16 -26q16 -18 26 -62q0 -3 2 -10t2.5 -10t1 -10t0 -16t-2.5 -22
q-1 -11 -2.5 -35.5t-0.5 -24.5q2 0 19 13q41 31 95 56q23 10 41 16t44 12t46 11q20 6 37 11q5 -22 1 -59q-1 -11 -2.5 -35.5t-0.5 -24.5q2 0 19 13q41 31 95 56q23 10 41 16t44 12t46 11q29 2 70 3l-1 -126l-10 -41q-38 -154 -54 -187q-14 -28 -1 -38q7 -4 9 -4q7 0 25 16
q19 16 63 25q3 1 9.5 2.5t10 2t10 1t16 0t22.5 -1.5q11 -1 35 -3t24 -1q0 3 -12 20q-31 41 -56 95q-11 22 -16.5 40.5t-11.5 44.5t-12 46q-1 46 -3 111q245 11 248 12q9 4 9 11q0 9 -16 16q-6 3 -243 6q-10 346 -11 349q-4 9 -11 9q-10 -1 -17 -16q-3 -7 -6 -341z" />
</svg>
