<?xml version="1.0" standalone="no"?>
<!DOCTYPE svg PUBLIC "-//W3C//DTD SVG 1.1//EN" "http://www.w3.org/Graphics/SVG/1.1/DTD/svg11.dtd" >
<svg xmlns="http://www.w3.org/2000/svg" xmlns:xlink="http://www.w3.org/1999/xlink" version="1.1" viewBox="0 0 4031 924">
   <path fill="currentColor"
d="M3508 685q-13 2 -21 -7.5t-6 -18.5q0 -4 1 -7l-19 -16l-36 -22q-117 -72 -160 -91q-3 3 -7 4q-4 2 -62.5 4t-115.5 3l-57 1l-41 10q-154 37 -187 54q-28 14 -38 0q-4 -6 -4 -8q0 -7 16 -26q16 -18 25 -62q1 -3 2.5 -10t2 -10t1.5 -10t0 -16t-2 -22q-1 -11 -2.5 -35.5
l-1.5 -24.5q3 0 20 13q41 31 95 56q22 10 40.5 16t44.5 12t46 11q124 9 188 14q-1 -2 0 -4q1 -7 3 -9q5 -5 29 -7q25 -1 62 -26q3 -2 9 -5.5t8.5 -5t7.5 -6t11 -11.5t15 -17q7 -9 23 -27.5t16 -17.5q2 2 5 23q7 51 28 106q8 24 17 41t23 39.5t24 40.5q8 13 15 26
q15 -9 43.5 -30.5t66.5 -51.5t48 -37l-4 -2q-4 -1 -17.5 -12t-25.5 -21l-11 -10l-37 -22q-135 -83 -170 -94q-13 -5 -20.5 -12t-6 -14.5t2.5 -9.5q5 -5 29 -6q19 -2 44 -15l-448 5l-41 10q-154 37 -187 54q-28 14 -38 0q-4 -6 -4 -8q0 -7 16 -26q16 -18 25 -62q1 -3 3 -10
t2.5 -10t1 -10t-0.5 -16t-2 -22q-1 -11 -2.5 -35.5l-1.5 -24.5q3 0 20 13q41 31 95 56q23 10 41 16t44 12t46 11q373 12 478 16q8 -9 22 -26q7 -8 23 -26.5t17 -18.5q2 2 5 23q7 51 27 107q9 23 18 40t23 39.5t24 40.5q28 50 30 54v1q18 -13 62.5 -55.5t64.5 -66.5
q6 -8 21 -25q-4 0 -9 -2t-18.5 -13t-24.5 -21l-12 -10l-36 -22q-135 -82 -170 -94q-14 -5 -21 -12t-6 -14.5t3 -8.5q5 -5 29 -7q25 -2 62 -26q3 -2 9 -5.5t8.5 -5.5t7.5 -6.5t11.5 -11t14.5 -17.5q7 -8 23 -26.5t17 -17.5t4 22q8 51 28 107q8 24 17 41t23.5 39.5t23.5 40.5
q29 49 30 53l1 1l3 -4q3 3 5 23q20 241 143 457q5 9 -1 14q-4 4 -10 5t-12 -4q-40 -50 -164 -91v1q-1 9 -16 16q-4 2 -202.5 4t-395.5 3l-197 1l-41 10q-154 37 -187 54q-28 14 -38 0q-4 -6 -4 -8q0 -7 16 -26q16 -18 25 -62q1 -3 3 -10t2.5 -10t1 -10t-0.5 -16t-2 -22
q-1 -11 -2.5 -35.5l-1.5 -24.5q3 0 20 13q41 31 95 56q23 10 41 16t44 12t46 11q625 13 759 16q-81 -24 -164 -36t-124 -8zM2716 5q3 -5 10.5 -5.5t13 3t4.5 8.5q-4 15 -38 78t-49 114q-16 51 5 114.5t60 115.5q19 25 32 62.5t8 43.5q-2 1 -5.5 -2t-8 -10.5t-9.5 -16.5
q-18 -34 -68 -85q-35 -36 -62.5 -55t-97.5 -57q-14 -7 -22 -14l-210 5l-41 10q-154 38 -187 54q-28 14 -38 1q-4 -6 -4 -9q0 -7 16 -25q16 -19 25 -62q1 -4 2.5 -10.5t2 -9.5t1.5 -10t0 -16t-2 -23q-1 -10 -2.5 -34.5l-1.5 -24.5q3 0 20 12q41 31 95 56q22 11 40.5 16.5
t44.5 11.5t46 12q118 8 183 13q7 -8 25 -15q7 -4 26 -18.5t36 -28.5t37.5 -31.5t22.5 -19.5q16 -13 39.5 -64.5t50.5 -83.5zM1942 90q7 -9 16.5 -5.5t6.5 14.5q-5 20 -26.5 59t-47.5 91.5t-42 104.5q-20 69 7.5 153.5t80.5 153.5q27 36 50 85.5t16 56.5q-2 1 -7 -3.5
t-11 -14t-13 -21.5q-10 -18 -36.5 -51.5t-53.5 -62.5q-47 -48 -83.5 -73.5t-130.5 -74.5q-19 -10 -30.5 -20.5t-16 -21.5t4.5 -22t33 -20q10 -4 35.5 -23.5t48 -38.5t49.5 -42t30 -26q18 -15 33 -46t36.5 -74t50.5 -78zM2617 213q2 -2 3 -4q-2 1 -3 4zM2274 764l-41 10
q-154 38 -187 54q-28 14 -38 1q-4 -6 -4 -9q0 -7 16 -25q16 -19 25 -62q1 -4 3 -10.5t2.5 -9.5t1 -10t-0.5 -16t-2 -23q-1 -10 -2.5 -34.5l-1.5 -24.5q3 0 20 12q41 31 95 56q23 11 41 16.5t44 11.5t46 12q361 15 365 17q9 3 9 10q-1 10 -16 17q-4 2 -97.5 3.5t-185.5 2.5z
M1813 350q0 -1 1 -1q-1 0 -1 1zM1648 309l-36 -23q-135 -82 -170 -94q-14 -5 -21 -12t-6 -14t3 -9q5 -5 29 -7q25 -2 62 -26q3 -2 9 -5.5t8.5 -5.5t8 -6t11.5 -11t14 -18q7 -8 23 -26.5t17 -17.5q1 2 4 23q8 51 28 106q9 24 17.5 41t23 39.5t23.5 40.5q29 49 30 53
q5 9 -1 14q-7 7 -22 1q-5 -2 -18.5 -12.5t-24.5 -20.5zM1478 469l-36 -23q-135 -82 -170 -94q-14 -5 -21 -12t-6 -14t3 -9q5 -5 29 -7q25 -2 62 -26q3 -2 9 -5.5t8.5 -5.5t8 -6t11.5 -11t14 -18q7 -8 23 -26.5t17 -17.5q1 2 4 23q8 51 28 106q9 24 17.5 41t23 39.5
t23.5 40.5q29 49 30 53q5 9 -1 14q-7 7 -22 1q-5 -2 -18.5 -12.5t-24.5 -20.5zM1308 629l-36 -23q-135 -82 -170 -94q-14 -5 -21 -12t-6 -14t3 -9q5 -5 29 -7q25 -2 62 -26q3 -2 9 -5.5t8.5 -5.5t8 -6t11.5 -11t14 -18q7 -8 23 -26.5t17 -17.5q1 2 4 23q8 51 28 106
q9 24 17.5 41t23 39.5t23.5 40.5q29 49 30 53q5 9 -1 14q-7 7 -22 1q-5 -2 -18.5 -12.5t-24.5 -20.5zM1138 789l-36 -23q-135 -82 -170 -94q-14 -5 -21 -12t-6 -14t3 -9q5 -5 29 -7q25 -2 62 -26q3 -2 9 -5.5t8.5 -5.5t8 -6t11.5 -11t14 -18q7 -8 23 -26.5t17 -17.5
q1 2 4 23q8 51 28 106q9 24 17.5 41t23 39.5t23.5 40.5q29 49 30 53q5 9 -1 14q-7 7 -22 1q-5 -2 -18.5 -12.5t-24.5 -20.5zM836 585l-10 -41q-15 -61 -27 -105l-339 6l-41 10q-117 28 -165 45q39 29 92 54q23 10 41 16t44 12t46 11q313 14 359 17v-25zM887 602
q-15 221 -16 225q-4 9 -11 9q-1 0 -2 -1q-4 6 -13 10q-4 2 -132.5 4t-255.5 3l-127 1l-41 10q-154 37 -187 54q-28 14 -38 0q-4 -6 -4 -8q0 -7 16 -26q16 -18 25 -62q1 -3 3 -10t2.5 -10t1 -10t-0.5 -16t-2 -22q-1 -11 -2.5 -35.5l-1.5 -24.5q3 0 20 13q41 31 95 56
q23 10 41 16t44 12t46 11q428 13 496 17q-3 -21 -6 -181h-2q-4 2 -97.5 4t-185.5 3l-92 1l-41 10q-154 37 -187 54q-28 14 -38 0q-4 -6 -4 -8q0 -7 16 -26q16 -18 25 -62q1 -3 3 -10t2.5 -10t1 -10t-0.5 -16t-2 -22t-3 -36q-28 14 -38 0q-4 -6 -4 -8q0 -7 16 -26
q16 -18 25 -62q1 -3 3 -10t2.5 -10t1 -10t-0.5 -16t-2 -22t-3 -36q-28 14 -38 0q-4 -6 -4 -8q0 -7 16 -26q16 -18 25 -62q1 -3 3 -10t2.5 -10t1 -10t-0.5 -16t-2 -22q-1 -11 -2.5 -35.5l-1.5 -24.5q3 0 20 13q41 31 95 56q23 10 41 16t44 12t46 11q248 11 335 15
q-27 -105 -40 -131q-14 -28 -1 -38q7 -4 9 -4q7 0 25 16q19 16 63 25q3 1 9.5 2.5t10 2t10 1t16 0t22.5 -1.5q11 -1 35 -3t24 -1q0 3 -12 20q-31 41 -56 95q-11 22 -16.5 40.5t-11.5 44.5t-12 46q-5 20 -10 37q21 5 59 1q11 -1 35 -3t24 -1q0 3 -12 20q-31 41 -56 95
q-11 22 -16.5 40.5t-11.5 44.5t-12 46zM836 305l-10 -41q-3 -13 -6 -25q-32 1 -122 2.5t-164 2.5l-74 1l-41 10q-117 28 -165 45q39 29 92 54q23 10 41 16t44 12t46 11q212 9 313 14q-11 -37 -18 -50q-14 -28 -1 -38q7 -4 9 -4q7 0 25 16q12 10 34 18z" />
</svg>
