<?xml version="1.0" standalone="no"?>
<!DOCTYPE svg PUBLIC "-//W3C//DTD SVG 1.1//EN" "http://www.w3.org/Graphics/SVG/1.1/DTD/svg11.dtd" >
<svg xmlns="http://www.w3.org/2000/svg" xmlns:xlink="http://www.w3.org/1999/xlink" version="1.1" viewBox="0 0 1213 999">
   <path fill="currentColor"
d="M1156 4q3 -4 10.5 -4.5t13 2.5t3.5 9q-4 15 -37.5 77.5t-49.5 113.5q-15 51 6 115t60 116q9 12 18 30q4 3 4 7q10 23 15.5 44t1.5 24q-1 2 -4.5 -1.5t-8.5 -10.5t-9 -16q-3 -5 -7 -11q-4 8 -21.5 40t-31 61.5t-23.5 61.5q-15 51 6 115t60 116q19 25 32 62.5t7 42.5
q-1 2 -4.5 -1.5t-8.5 -10.5t-9 -16q-18 -34 -68 -86q-35 -36 -62.5 -55t-98.5 -56q-13 -7 -22 -14l-209 5l-41 10q-154 37 -187 54q-28 14 -38 0q-4 -6 -4 -8q0 -7 16 -26q16 -18 25 -62q1 -3 2.5 -10t2 -10t1 -10t0 -16t-1.5 -22q-1 -11 -3 -35.5t-1 -24.5q3 0 20 13
q41 31 94 56q23 10 41.5 16t44.5 12t45 11q119 9 184 14q7 -9 24 -16q8 -3 27 -17.5t36 -29t37 -31.5t23 -19q16 -14 38.5 -63t46.5 -80q-20 -25 -40 -46q-35 -36 -62.5 -55t-98.5 -56q-13 -7 -22 -14l-209 5l-41 10q-154 37 -187 54q-28 14 -38 0q-4 -6 -4 -8q0 -7 16 -26
q16 -18 25 -62q1 -3 2.5 -10t2 -10t1 -10t0 -16t-1.5 -22q-1 -11 -3 -35.5t-1 -24.5q3 0 20 13q41 31 94 56q23 10 41.5 16t44.5 12t45 11q119 9 184 14q7 -9 24 -16q8 -3 27 -17.5t36 -29t37 -31.5t23 -19q16 -14 39.5 -65t50.5 -84zM381 89q8 -9 17.5 -5.5t6.5 14.5
q-5 20 -26.5 59t-48 91.5t-41.5 104.5q-20 69 7.5 153.5t79.5 153.5q27 36 50 85.5t16 56.5q-1 1 -6 -3.5t-11.5 -14t-12.5 -21.5q-10 -18 -36.5 -51.5t-53.5 -62.5q-47 -48 -83.5 -73.5t-130.5 -74.5q-19 -10 -31 -20.5t-16 -21.5t5 -22t32 -20q11 -4 36 -23.5t48 -38.5
t49.5 -42t30.5 -26q18 -15 33 -46t36.5 -74t49.5 -78zM1057 212q1 -2 3 -4q-2 1 -3 4zM1057 672q1 -2 3 -4q-2 1 -3 4zM253 349q0 -1 1 -1q-1 0 -1 1z" />
</svg>
