<?xml version="1.0" standalone="no"?>
<!DOCTYPE svg PUBLIC "-//W3C//DTD SVG 1.1//EN" "http://www.w3.org/Graphics/SVG/1.1/DTD/svg11.dtd" >
<svg xmlns="http://www.w3.org/2000/svg" xmlns:xlink="http://www.w3.org/1999/xlink" version="1.1" viewBox="0 0 1213 1059">
   <path fill="currentColor"
d="M381 149q8 -9 17.5 -5.5t6.5 14.5q-5 20 -26.5 59t-48 91.5t-41.5 104.5q-20 69 7.5 153.5t79.5 153.5q27 36 50 85.5t16 56.5q-1 1 -6 -3.5t-11.5 -14t-12.5 -21.5q-10 -18 -36.5 -51.5t-53.5 -62.5q-47 -48 -83.5 -73.5t-130.5 -74.5q-19 -10 -31 -20.5t-16 -21.5
t5 -22t32 -20q11 -4 36 -23.5t48 -38.5t49.5 -42t30.5 -26q18 -15 33 -46t36.5 -74t49.5 -78zM1156 524q3 -4 10.5 -4.5t13 2.5t3.5 9q-4 15 -37.5 77.5t-49.5 113.5q-15 51 6 115t60 116q19 25 32 62.5t7 42.5q-1 2 -4.5 -1.5t-8.5 -10.5t-9 -16q-18 -34 -68 -86
q-35 -36 -62.5 -55t-98.5 -56q-13 -7 -22 -14l-209 5l-41 10q-154 37 -187 54q-28 14 -38 0q-4 -6 -4 -8q0 -7 16 -26q16 -18 25 -62q1 -3 2.5 -10t2 -10t1 -10t0 -16t-1.5 -22q-1 -11 -3 -35.5t-1 -24.5q3 0 20 13q41 31 94 56q23 10 41.5 16t44.5 12t45 11q119 9 184 14
q7 -9 24 -16q8 -3 27 -17.5t36 -29t37 -31.5t23 -19q16 -14 39.5 -65t50.5 -84zM1156 4q3 -4 10.5 -4.5t13 2.5t3.5 9q-4 15 -37.5 77.5t-49.5 113.5q-15 51 6 115t60 116q19 25 32 62.5t7 42.5q-1 2 -4.5 -1.5t-8.5 -10.5t-9 -16q-18 -34 -68 -86q-35 -36 -62.5 -55
t-98.5 -56q-13 -7 -22 -14l-209 5l-41 10q-154 37 -187 54q-28 14 -38 0q-4 -6 -4 -8q0 -7 16 -26q16 -18 25 -62q1 -3 2.5 -10t2 -10t1 -10t0 -16t-1.5 -22q-1 -11 -3 -35.5t-1 -24.5q3 0 20 13q41 31 94 56q23 10 41.5 16t44.5 12t45 11q119 9 184 14q7 -9 24 -16
q8 -3 27 -17.5t36 -29t37 -31.5t23 -19q16 -14 39.5 -65t50.5 -84zM253 409q0 -1 1 -1q-1 0 -1 1zM1057 732q1 -2 3 -4q-2 1 -3 4zM1057 212q1 -2 3 -4q-2 1 -3 4zM756 712l-22 -13q-81 -49 -102 -57q-18 -6 -16 -15q0 -5 2 -6q2 -3 17 -4t37 -15q2 -1 5.5 -3.5t5 -3.5
t4.5 -3.5t7 -7t9 -10.5q4 -5 13.5 -16l9.5 -11q1 2 3 14q5 31 17 64q5 14 10.5 24.5t14 24t14.5 23.5q17 30 18 33q2 5 -1 8q-4 4 -14 0q-5 -2 -32 -26zM853 615l-21 -14q-82 -49 -103 -56q-17 -6 -16 -16q1 -4 2 -5q3 -3 18 -4q9 -1 22 -7l-20 -17l-22 -13
q-81 -50 -102 -57q-18 -6 -17 -16q1 -4 2 -5q3 -3 18 -4t37 -16q2 -1 5.5 -3t5 -3t4.5 -4t6.5 -7t9.5 -10q4 -5 13.5 -16l9.5 -11q1 1 3 14q5 30 17 64q5 14 10.5 24t13.5 23.5t14 24.5q7 11 12 20q11 -7 25 -24q4 -5 14 -16l10 -11q1 1 3 14q4 30 16 63q6 15 11 25
t13.5 23.5t14.5 24.5q17 30 18 32q3 5 0 8q-5 4 -14 1q-6 -3 -33 -26zM951 517l-22 -13q-81 -50 -102 -57q-18 -6 -16 -15q1 -5 2 -6q3 -3 17 -4q15 -1 37 -15q2 -2 5.5 -4t5 -3t5 -3.5t7 -7t8.5 -10.5q4 -5 13.5 -16t10.5 -11q1 1 2 14q5 31 17 64q5 14 10.5 24t14 23.5
t14.5 24.5q17 30 18 32q2 6 -1 9q-4 4 -13 0q-3 -1 -11 -7.5t-15 -12.5z" />
</svg>
