<?xml version="1.0" standalone="no"?>
<!DOCTYPE svg PUBLIC "-//W3C//DTD SVG 1.1//EN" "http://www.w3.org/Graphics/SVG/1.1/DTD/svg11.dtd" >
<svg xmlns="http://www.w3.org/2000/svg" xmlns:xlink="http://www.w3.org/1999/xlink" version="1.1" viewBox="0 0 1304 801">
   <path fill="currentColor"
d="M330 386l-41 10q-154 37 -187 54q-28 14 -38 0q-4 -6 -4 -8q0 -7 16 -26q16 -18 25 -62q1 -3 3 -10t2.5 -10t1 -10t-0.5 -16t-2 -22q-1 -11 -2.5 -35.5l-1.5 -24.5q3 0 20 13q41 31 95 56q23 10 41 16t44 12t46 11q20 6 37 11q5 -22 1 -59q-1 -11 -2.5 -35.5l-1.5 -24.5
q3 0 20 13q41 31 95 56q23 10 41 16t44 12t46 11q31 9 48 14v-78l-10 -41q-38 -154 -54 -187q-14 -28 -1 -38q7 -4 9 -4q7 0 25 16q19 16 63 25q3 1 9.5 2.5t10 2t10 1t16 0t22.5 -1.5q11 -1 35 -3t24 -1q0 3 -12 20q-31 41 -56 95q-11 22 -16.5 40.5t-11.5 44.5t-12 46
q-15 501 -16 505q-4 9 -11 9q-10 -1 -17 -16q-2 -5 -4 -176q-12 4 -68 7l-41 10q-154 37 -187 54q-28 14 -38 0q-4 -6 -4 -8q0 -7 16 -26q16 -18 25 -62q1 -3 3 -10t2.5 -10t1 -10t-0.5 -16t-2 -22q-1 -11 -2.5 -35.5l-1.5 -24.5q3 0 20 13q41 31 95 56q23 10 41 16t44 12
t46 11l51 15q-1 -87 -2 -200l-66 7l-41 10q-154 37 -187 54q-28 14 -38 0q-4 -6 -4 -8q0 -7 16 -26q10 -12 18 -34zM1189 754l-36 -23q-135 -82 -170 -94q-14 -5 -21 -12t-6 -14t3 -9q5 -5 29 -7q25 -2 62 -26q3 -2 9 -5.5t8.5 -5.5t8 -6t11.5 -11t14 -18q21 -26 36 -41
l-2 -212l-10 -41q-38 -154 -54 -187q-14 -28 -1 -38q7 -4 9 -4q7 0 25 16q19 16 63 25q3 1 9.5 2.5t10 2t10 1t16 0t22.5 -1.5q11 -1 35 -3t24 -1q0 3 -12 20q-31 41 -56 95q-11 22 -16.5 40.5t-11.5 44.5t-12 46q-9 221 -14 319q1 1 1 2q9 24 17.5 41t23 39.5t23.5 40.5
q29 49 30 53q5 9 -1 14q-7 7 -22 1q-10 -4 -55 -43zM959 754l-36 -23q-135 -82 -170 -94q-14 -5 -21 -12t-6 -14t3 -9q5 -5 29 -7q25 -2 62 -26q3 -2 9 -5.5t8.5 -5.5t8 -6t11.5 -11t14 -18q21 -26 36 -41l-2 -212l-10 -41q-38 -154 -54 -187q-14 -28 -1 -38q7 -4 9 -4
q7 0 25 16q19 16 63 25q3 1 9.5 2.5t10 2t10 1t16 0t22.5 -1.5q11 -1 35 -3t24 -1q0 3 -12 20q-31 41 -56 95q-11 22 -16.5 40.5t-11.5 44.5t-12 46q-9 221 -14 319q1 1 1 2q9 24 17.5 41t23 39.5t23.5 40.5q29 49 30 53q5 9 -1 14q-7 7 -22 1q-10 -4 -55 -43z" />
</svg>
