<?xml version="1.0" standalone="no"?>
<!DOCTYPE svg PUBLIC "-//W3C//DTD SVG 1.1//EN" "http://www.w3.org/Graphics/SVG/1.1/DTD/svg11.dtd" >
<svg xmlns="http://www.w3.org/2000/svg" xmlns:xlink="http://www.w3.org/1999/xlink" version="1.1" viewBox="0 0 6478 6408">
   <path fill="currentColor"
d="M3219 550l-10 -41q-37 -154 -54 -187q-14 -28 0 -37q6 -5 8 -5q7 0 26 16q12 11 33 18l-3 -44l-10 -41q-37 -154 -54 -187q-14 -28 0 -37q6 -5 8 -5q7 0 26 16q18 16 62 26q3 0 10 2t10 2.5t10 1t16 0t22 -2.5q11 -1 35.5 -2.5t24.5 -0.5q0 2 -13 19q-31 41 -56 95
q-11 23 -16.5 41t-11.5 44t-12 46q-5 20 -10 37q22 5 59 1q11 -1 35.5 -2.5t24.5 -0.5q0 2 -13 19q-31 41 -56 95q-11 23 -16.5 41t-11.5 44t-12 46q-1 29 -3 70l127 -1l41 -10q154 -37 187 -54q28 -14 38 0q4 6 4 8q0 7 -16 25q-16 19 -25 63q-1 3 -2.5 9.5t-2 10
l-1.5 10.5t0 16t2 22q1 11 2.5 35.5l1.5 24.5q-3 0 -20 -13q-41 -31 -95 -56q-22 -11 -40.5 -16.5t-44.5 -11.5t-46 -12q-47 -1 -112 -3q-10 245 -11 248q-4 9 -11 9q-10 0 -16 -16q-3 -6 -6 -242q-346 -11 -349 -12q-9 -4 -9 -11q1 -10 16 -16q7 -3 341 -7zM3046 1050
l-10 -41q-28 -117 -45 -165q-29 40 -54 92q-11 23 -16.5 41t-11.5 44t-12 46q-8 460 -13 676q26 -3 170 -6v-2q-2 -4 -4 -62.5t-3 -115.5l-1 -57l-10 -41q-37 -154 -54 -187q-14 -28 0 -37q6 -5 8 -5q7 0 26 16q12 11 36 19zM3097 1067q-10 151 -14 206q26 6 63 2
q13 -1 36 -3q-14 -28 0 -37q6 -5 8 -5q7 0 26 16q18 16 62 26q3 0 10 2t10 2.5t10 1t16 0t22 -2.5q13 -1 36 -3q-14 -28 0 -37q6 -5 8 -5q7 0 26 16q18 16 62 26q3 0 10 2t10 2.5t10 1t16 0t22 -2.5q11 -1 35.5 -2.5t24.5 -0.5q0 2 -13 19q-31 41 -56 95q-11 23 -16.5 41
t-11.5 44t-12 46q-9 137 -14 197q112 -28 139 -42q28 -14 38 0q4 6 4 8q0 7 -16 25q-16 19 -25 63q-1 3 -2.5 9.5t-2 10l-1.5 10.5t0 16t2 22q1 11 2.5 35.5l1.5 24.5q-3 0 -20 -13q-41 -31 -95 -56q-22 -11 -40.5 -16.5t-44.5 -11.5t-46 -12q-20 -5 -37 -10q-5 21 -1 59
q1 11 2.5 35.5l1.5 24.5q-3 0 -20 -13q-41 -31 -95 -56q-22 -11 -40.5 -16.5t-44.5 -11.5t-46 -12q-169 -11 -214 -15q-2 79 -2 80q-4 9 -11 9q-10 0 -16 -16q-2 -4 -4 -202.5t-3 -395.5l-1 -197l-10 -41q-37 -154 -54 -187q-14 -28 0 -37q6 -5 8 -5q7 0 26 16q18 16 62 26
q3 0 10 2t10 2.5t10 1t16 0t22 -2.5q13 -1 36 -3q-14 -28 0 -37q6 -5 8 -5q7 0 26 16q18 16 62 26q3 0 10 2t10 2.5t10 1t16 0t22 -2.5q11 -1 35.5 -2.5t24.5 -0.5q0 2 -13 19q-31 41 -56 95q-11 23 -16.5 41t-11.5 44t-12 46zM3246 1500l-10 -41q-28 -117 -45 -165
q-29 40 -54 92q-11 23 -16.5 41t-11.5 44t-12 46q-12 185 -16 219h33l41 -10q55 -14 96 -25zM3297 1517q-7 109 -12 175q42 -12 57 -20q28 -14 38 0q4 6 4 8q0 7 -16 25q-10 12 -18 34l44 -3l41 -10q9 -2 17 -4l-6 -222l-10 -41q-28 -117 -45 -165q-29 40 -54 92
q-11 23 -16.5 41t-11.5 44t-12 46zM3114 2689l41 -10q154 -37 187 -54q28 -14 38 0q4 6 4 8q0 7 -16 25q-16 19 -25 63q-1 3 -2.5 9.5t-2 10l-1.5 10.5t0 16t2 22q1 11 2.5 35.5l1.5 24.5q-3 0 -20 -13q-41 -31 -95 -56q-22 -11 -40.5 -16.5t-44.5 -11.5t-46 -12
q-4 0 -13 -1q-4 224 -5 226q-4 9 -11 9q-10 0 -16 -16q-2 -4 -4 -221q-172 -12 -176 -13q-9 -4 -9 -11q1 -10 16 -16q7 -4 168 -7q0 -80 -1 -183q-171 -12 -174 -13q-9 -4 -9 -11q1 -10 16 -16q7 -4 167 -7q-1 -88 -1 -183q-170 -12 -173 -13q-9 -4 -9 -11q1 -10 16 -16
q7 -4 165 -7v-67l-10 -41q-37 -154 -54 -187q-14 -28 0 -37q6 -5 8 -5q7 0 26 16q18 16 62 26q3 0 10 2t10 2.5t10 1t16 0t22 -2.5q11 -1 35.5 -2.5t24.5 -0.5q0 2 -13 19q-31 41 -56 95q-11 23 -16.5 41t-11.5 44t-12 46v49h19l41 -10q154 -37 187 -54q28 -14 38 0q4 6 4 8
q0 7 -16 25q-16 19 -25 63q-1 3 -2.5 9.5t-2 10l-1.5 10.5t0 16t2 22q1 11 2.5 35.5l1.5 24.5q-3 0 -20 -13q-41 -31 -95 -56q-22 -11 -40.5 -16.5t-44.5 -11.5t-46 -12h-3q-2 91 -4 179h24l41 -10q154 -37 187 -54q28 -14 38 0q4 6 4 8q0 7 -16 25q-16 19 -25 63
q-1 3 -2.5 9.5t-2 10l-1.5 10.5t0 16t2 22q1 11 2.5 35.5l1.5 24.5q-3 0 -20 -13q-41 -31 -95 -56q-22 -11 -40.5 -16.5t-44.5 -11.5t-46 -12h-8q-2 101 -4 179h29zM3504 2163l-10 -41q-37 -154 -54 -187q-14 -28 0 -37q6 -5 8 -5q7 0 26 16q18 16 62 26q3 0 10 2t10 2.5
t10 1t16 0t22 -2.5q11 -1 35.5 -2.5t24.5 -0.5q0 2 -13 19q-31 41 -56 95q-11 23 -16.5 41t-11.5 44t-12 46q-15 781 -16 785q-4 9 -11 9q-10 0 -16 -16q-2 -4 -4 -202.5t-3 -395.5zM3309 5858l10 41q37 154 54 187q13 28 0 38q-6 4 -9 4q-6 0 -25 -16q-12 -10 -34 -18l4 44
l10 41q37 154 54 187q13 28 0 38q-6 4 -9 4q-6 0 -25 -16t-62 -26q-4 0 -10.5 -2t-9.5 -2.5t-10 -1t-16 0t-22 2.5q-11 1 -35.5 2.5t-24.5 0.5q0 -2 13 -19q31 -41 56 -95q10 -23 16 -41t12 -44t11 -46q6 -20 11 -37q-22 -5 -59 -1q-11 1 -35.5 2.5t-24.5 0.5q0 -2 13 -19
q31 -41 56 -95q10 -23 16 -41t12 -44t11 -46q2 -29 3 -70l-126 1l-41 10q-154 38 -187 54q-28 14 -38 1q-4 -7 -4 -9q0 -7 16 -25q16 -19 25 -63q1 -3 2.5 -9.5t2 -10t1 -10t0 -16t-1.5 -22.5q-1 -11 -3 -35t-1 -24q3 0 20 12q41 31 94 56q23 11 41.5 16.5t44.5 11.5t45 12
q47 1 112 3q11 -245 12 -248q3 -9 11 -9q9 0 16 16q3 6 6 243q345 10 348 11q10 4 9 11q0 10 -15 17q-7 3 -341 6zM3482 5358l10 41q28 117 45 165q29 -39 54 -92q10 -23 16 -41t12 -44t11 -46q9 -460 14 -676q-26 3 -171 6q1 1 1 2q2 4 4 62.5t3 115.5l1 57l10 41
q37 154 54 187q13 28 0 38q-6 4 -9 4q-6 0 -25 -16q-12 -11 -36 -19zM3430 5341q11 -151 15 -206q-27 -6 -63 -2q-13 1 -37 3h1q13 28 0 38q-6 4 -9 4q-6 0 -25 -16t-62 -26q-4 0 -10.5 -2t-9.5 -2.5t-10 -1t-16 0t-22 2.5q-13 1 -37 3h1q13 28 0 38q-6 4 -9 4q-6 0 -25 -16
t-62 -26q-4 0 -10.5 -2t-9.5 -2.5t-10 -1t-16 0t-22 2.5q-11 1 -35.5 2.5t-24.5 0.5q0 -2 13 -19q31 -41 56 -95q10 -23 16 -41t12 -44t11 -46q10 -137 14 -197q-111 29 -138 42q-28 14 -38 1q-4 -7 -4 -9q0 -7 16 -25q16 -19 25 -63q1 -3 2.5 -9.5t2 -10t1 -10t0 -16
t-1.5 -22.5q-1 -11 -3 -35t-1 -24q3 0 20 12q41 31 94 56q23 11 41.5 16.5t44.5 11.5t45 12q21 5 37 10q6 -21 2 -59q-1 -11 -3 -35t-1 -24q3 0 20 12q41 31 94 56q23 11 41.5 16.5t44.5 11.5t45 12q170 11 215 15q2 -79 2 -80q3 -9 11 -9q9 0 16 16q2 4 4 202.5t3 395.5
l1 197l10 41q37 154 54 187q13 28 0 38q-6 4 -9 4q-6 0 -25 -16t-62 -26q-4 0 -10.5 -2t-9.5 -2.5t-10 -1t-16 0t-22 2.5q-13 1 -37 3h1q13 28 0 38q-6 4 -9 4q-6 0 -25 -16t-62 -26q-4 0 -10.5 -2t-9.5 -2.5t-10 -1t-16 0t-22 2.5q-11 1 -35.5 2.5t-24.5 0.5q0 -2 13 -19
q31 -41 56 -95q10 -23 16 -41t12 -44t11 -46zM3282 4908l10 41q28 117 45 165q29 -39 54 -92q10 -23 16 -41t12 -44t11 -46q13 -185 16 -219h-32l-41 10q-55 14 -96 25zM3230 4891q8 -109 13 -175q-42 13 -57 20q-28 14 -38 1q-4 -7 -4 -9q0 -7 16 -25q10 -12 18 -34l-44 3
l-41 10q-9 2 -17 4l6 222l10 41q28 117 45 165q29 -39 54 -92q10 -23 16 -41t12 -44t11 -46zM3414 3719l-41 10q-154 38 -187 54q-28 14 -38 1q-4 -7 -4 -9q0 -7 16 -25q16 -19 25 -63q1 -3 2.5 -9.5t2 -10t1 -10t0 -16t-1.5 -22.5q-1 -11 -3 -35t-1 -24q3 0 20 12
q41 31 94 56q23 11 41.5 16.5t44.5 11.5t45 12q5 0 14 1q4 -224 5 -226q3 -9 11 -9q9 0 16 16q2 4 4 221q172 12 175 13q10 4 9 11q0 10 -15 17q-7 3 -169 6q1 80 2 183q170 12 173 13q10 4 9 11q0 10 -15 17q-7 3 -167 6q1 88 1 183q169 12 172 13q10 4 9 11q0 10 -15 17
q-7 3 -166 6l1 67l10 41q37 154 54 187q13 28 0 38q-6 4 -9 4q-6 0 -25 -16t-62 -26q-4 0 -10.5 -2t-9.5 -2.5t-10 -1t-16 0t-22 2.5q-11 1 -35.5 2.5t-24.5 0.5q0 -2 13 -19q31 -41 56 -95q10 -23 16 -41t12 -44t11 -46q1 -18 1 -49h-19l-41 10q-154 38 -187 54
q-28 14 -38 1q-4 -7 -4 -9q0 -7 16 -25q16 -19 25 -63q1 -3 2.5 -9.5t2 -10t1 -10t0 -16t-1.5 -22.5q-1 -11 -3 -35t-1 -24q3 0 20 12q41 31 94 56q23 11 41.5 16.5t44.5 11.5t45 12h4q2 -91 4 -179h-24l-41 10q-154 38 -187 54q-28 14 -38 1q-4 -7 -4 -9q0 -7 16 -25
q16 -19 25 -63q1 -3 2.5 -9.5t2 -10t1 -10t0 -16t-1.5 -22.5q-1 -11 -3 -35t-1 -24q3 0 20 12q41 31 94 56q23 11 41.5 16.5t44.5 11.5t45 12h9q2 -101 4 -179h-29zM3024 4245l10 41q37 154 54 187q13 28 0 38q-6 4 -9 4q-6 0 -25 -16t-62 -26q-4 0 -10.5 -2t-9.5 -2.5
t-10 -1t-16 0t-22 2.5q-11 1 -35.5 2.5t-24.5 0.5q0 -2 13 -19q31 -41 56 -95q10 -23 16 -41t12 -44t11 -46q15 -781 17 -785q3 -9 11 -9q9 0 16 16q1 2 2.5 85t2 199.5t1.5 232.5t1 197zM5918 3159l41 -10q154 -37 187 -54q28 -13 37 0q5 6 5 8q0 7 -16 26q-11 12 -18 34
l44 -4l41 -10q154 -37 187 -54q28 -13 37 0q5 6 5 8q0 7 -16 26t-26 62q0 4 -2 10.5t-2.5 9.5t-1 10t0 16t2.5 22q1 11 2.5 35.5t0.5 24.5q-2 0 -19 -13q-41 -31 -95 -56q-23 -10 -41 -16t-44 -12t-46 -11q-20 -6 -37 -11q-5 22 -1 59q1 11 2.5 35.5t0.5 24.5q-2 0 -19 -13
q-41 -31 -95 -56q-23 -10 -41 -16t-44 -12t-46 -11q-29 -2 -70 -3l1 126l10 41q37 154 54 187q14 28 0 38q-6 4 -8 4q-7 0 -25 -16q-19 -16 -63 -25q-3 -1 -10 -2.5t-10 -2t-10 -1t-16 0t-22 1.5q-11 1 -35.5 3t-24.5 1q0 -3 13 -20q31 -41 56 -94q11 -23 16.5 -41.5
t11.5 -44.5t12 -45q1 -47 3 -112q-245 -11 -248 -12q-9 -3 -9 -11q0 -9 16 -16q6 -3 242 -6q11 -346 12 -349q4 -9 11 -9q10 1 16 16q3 7 7 341zM5418 2986l41 -10q117 -28 165 -45q-40 -29 -92 -54q-23 -10 -41 -16t-44 -12t-46 -11q-460 -9 -676 -14q3 26 6 171q1 -1 2 -1
q4 -2 62.5 -4t115.5 -3l57 -1l41 -10q154 -37 187 -54q28 -13 37 0q5 6 5 8q0 7 -16 26q-11 12 -19 36zM5401 3038q-151 -11 -206 -15q-6 27 -2 63q1 13 3 37v-1q28 -13 37 0q5 6 5 8q0 7 -16 26t-26 62q0 4 -2 10.5t-2.5 9.5t-1 10t0 16t2.5 22q1 13 3 37v-1q28 -13 37 0
q5 6 5 8q0 7 -16 26t-26 62q0 4 -2 10.5t-2.5 9.5t-1 10t0 16t2.5 22q1 11 2.5 35.5t0.5 24.5q-2 0 -19 -13q-41 -31 -95 -56q-23 -10 -41 -16t-44 -12t-46 -11q-137 -10 -197 -14q28 111 42 138q14 28 0 38q-6 4 -8 4q-7 0 -25 -16q-19 -16 -63 -25q-3 -1 -10 -2.5t-10 -2
t-10 -1t-16 0t-22 1.5q-11 1 -35.5 3t-24.5 1q0 -3 13 -20q31 -41 56 -94q11 -23 16.5 -41.5t11.5 -44.5t12 -45q5 -21 10 -37q-21 -6 -59 -2q-11 1 -35.5 3t-24.5 1q0 -3 13 -20q31 -41 56 -94q11 -23 16.5 -41.5t11.5 -44.5t12 -45q11 -170 15 -215q-79 -2 -80 -2
q-9 -3 -9 -11q0 -9 16 -16q4 -2 202.5 -4t395.5 -3l197 -1l41 -10q154 -37 187 -54q28 -13 37 0q5 6 5 8q0 7 -16 26t-26 62q0 4 -2 10.5t-2.5 9.5t-1 10t0 16t2.5 22q1 13 3 37v-1q28 -13 37 0q5 6 5 8q0 7 -16 26t-26 62q0 4 -2 10.5t-2.5 9.5t-1 10t0 16t2.5 22
q1 11 2.5 35.5t0.5 24.5q-2 0 -19 -13q-41 -31 -95 -56q-23 -10 -41 -16t-44 -12t-46 -11zM4968 3186l41 -10q117 -28 165 -45q-40 -29 -92 -54q-23 -10 -41 -16t-44 -12t-46 -11q-185 -13 -220 -16l1 32l10 41q13 55 25 96zM4951 3238q-109 -8 -175 -13q12 42 20 57
q14 28 0 38q-6 4 -8 4q-7 0 -25 -16q-12 -10 -34 -18l3 44l10 41q2 9 4 17l222 -6l41 -10q117 -28 165 -45q-40 -29 -92 -54q-23 -10 -41 -16t-44 -12t-46 -11zM3779 3054l10 41q37 154 54 187q14 28 0 38q-6 4 -8 4q-7 0 -25 -16q-19 -16 -63 -25q-3 -1 -10 -2.5t-10 -2
t-10 -1t-16 0t-22 1.5q-11 1 -35.5 3t-24.5 1q0 -3 13 -20q31 -41 56 -94q11 -23 16.5 -41.5t11.5 -44.5t12 -45v-14q-223 -4 -225 -5q-9 -3 -9 -11q0 -9 16 -16q4 -2 221 -4q12 -172 13 -176q4 -9 11 -9q10 1 16 16q4 7 7 169q80 -1 183 -2q12 -170 13 -174q4 -9 11 -9
q10 1 16 16q3 7 7 167q88 -1 183 -1q12 -169 13 -173q4 -9 11 -9q10 1 16 16q3 7 7 166l67 -1l41 -10q154 -37 187 -54q28 -13 37 0q5 6 5 8q0 7 -16 26t-26 62q0 4 -2 10.5t-2.5 9.5t-1 10t0 16t2.5 22q1 11 2.5 35.5t0.5 24.5q-2 0 -19 -13q-41 -31 -95 -56
q-23 -10 -41 -16t-44 -12t-46 -11q-18 -1 -49 -1v19l10 41q37 154 54 187q14 28 0 38q-6 4 -8 4q-7 0 -25 -16q-19 -16 -63 -25q-3 -1 -10 -2.5t-10 -2t-10 -1t-16 0t-22 1.5q-11 1 -35.5 3t-24.5 1q0 -3 13 -20q31 -41 56 -94q11 -23 16.5 -41.5t11.5 -44.5t12 -45v-4
q-91 -2 -179 -4v24l10 41q37 154 54 187q14 28 0 38q-6 4 -8 4q-7 0 -25 -16q-19 -16 -63 -25q-3 -1 -10 -2.5t-10 -2t-10 -1t-16 0t-22 1.5q-11 1 -35.5 3t-24.5 1q0 -3 13 -20q31 -41 56 -94q11 -23 16.5 -41.5t11.5 -44.5t12 -45v-9q-101 -2 -179 -4v29zM4305 3444
l41 -10q154 -37 187 -54q28 -13 37 0q5 6 5 8q0 7 -16 26t-26 62q0 4 -2 10.5t-2.5 9.5t-1 10t0 16t2.5 22q1 11 2.5 35.5t0.5 24.5q-2 0 -19 -13q-41 -31 -95 -56q-23 -10 -41 -16t-44 -12t-46 -11q-781 -16 -785 -17q-9 -3 -9 -11q0 -9 16 -16q4 -2 202.5 -4t395.5 -3z
M610 3249l-41 10q-154 37 -187 54q-28 14 -38 0q-4 -6 -4 -8q0 -7 16 -26q10 -12 18 -34l-44 4l-41 10q-154 37 -187 54q-28 14 -38 0q-4 -6 -4 -8q0 -7 16 -26q16 -18 25 -62q1 -3 3 -10t2.5 -10t1 -10t-0.5 -16t-2 -22q-1 -11 -2.5 -35.5l-1.5 -24.5q3 0 20 13
q41 31 95 56q23 10 41 16t44 12t46 11q20 6 37 11q5 -22 1 -59q-1 -11 -2.5 -35.5l-1.5 -24.5q3 0 20 13q41 31 95 56q23 10 41 16t44 12t46 11q28 2 70 3l-1 -126l-10 -41q-38 -154 -54 -187q-14 -28 -1 -38q7 -4 9 -4q7 0 25 16q19 16 63 25q3 1 9.5 2.5t10 2t10 1t16 0
t22.5 -1.5q11 -1 35 -3t24 -1q0 3 -12 20q-31 41 -56 95q-11 22 -16.5 40.5t-11.5 44.5t-12 46q-1 46 -3 111q245 11 248 12q9 4 9 11q-1 9 -16 16q-6 3 -243 6q-10 346 -11 349q-4 9 -11 9q-10 -1 -17 -16q-3 -7 -6 -341zM1110 3422l-41 10q-117 28 -165 45q39 29 92 54
q23 10 41 16t44 12t46 11q460 9 676 14q-3 -26 -6 -170h-2q-4 2 -62.5 4t-115.5 3l-57 1l-41 10q-154 37 -187 54q-28 14 -38 0q-4 -6 -4 -8q0 -7 16 -26q11 -12 19 -36zM1127 3370q151 11 206 15q6 -26 2 -63q-1 -13 -3 -36q-28 14 -38 0q-4 -6 -4 -8q0 -7 16 -26
q16 -18 25 -62q1 -3 3 -10t2.5 -10t1 -10t-0.5 -16t-2 -22t-3 -36q-28 14 -38 0q-4 -6 -4 -8q0 -7 16 -26q16 -18 25 -62q1 -3 3 -10t2.5 -10t1 -10t-0.5 -16t-2 -22q-1 -11 -2.5 -35.5l-1.5 -24.5q3 0 20 13q41 31 95 56q23 10 41 16t44 12t46 11q136 10 197 15
q-29 -112 -42 -139q-14 -28 -1 -38q7 -4 9 -4q7 0 25 16q19 16 63 25q3 1 9.5 2.5t10 2t10 1t16 0t22.5 -1.5q11 -1 35 -3t24 -1q0 3 -12 20q-31 41 -56 95q-11 22 -16.5 40.5t-11.5 44.5t-12 46q-5 20 -10 37q21 5 59 1q11 -1 35 -3t24 -1q0 3 -12 20q-31 41 -56 95
q-11 22 -16.5 40.5t-11.5 44.5t-12 46q-11 169 -15 214q79 2 80 2q9 4 9 11q-1 9 -16 16q-4 2 -202.5 4t-395.5 3l-197 1l-41 10q-154 37 -187 54q-28 14 -38 0q-4 -6 -4 -8q0 -7 16 -26q16 -18 25 -62q1 -3 3 -10t2.5 -10t1 -10t-0.5 -16t-2 -22t-3 -36q-28 14 -38 0
q-4 -6 -4 -8q0 -7 16 -26q16 -18 25 -62q1 -3 3 -10t2.5 -10t1 -10t-0.5 -16t-2 -22q-1 -11 -2.5 -35.5l-1.5 -24.5q3 0 20 13q41 31 95 56q23 10 41 16t44 12t46 11zM1560 3222l-41 10q-117 28 -165 45q39 29 92 54q23 10 41 16t44 12t46 11q185 13 219 16v-32l-10 -41
q-14 -55 -25 -96zM1577 3170q108 8 175 13q-13 -42 -20 -57q-14 -28 -1 -38q7 -4 9 -4q7 0 25 16q12 10 34 18l-3 -44l-10 -41q-2 -9 -4 -17l-222 6l-41 10q-117 28 -165 45q39 29 92 54q23 10 41 16t44 12t46 11zM2749 3354l-10 -41q-38 -154 -54 -187q-14 -28 -1 -38
q7 -4 9 -4q7 0 25 16q19 16 63 25q3 1 9.5 2.5t10 2t10 1t16 0t22.5 -1.5q11 -1 35 -3t24 -1q0 3 -12 20q-31 41 -56 95q-11 22 -16.5 40.5t-11.5 44.5t-12 46q0 4 -1 13q224 4 226 5q9 4 9 11q-1 9 -16 16q-4 2 -221 4q-12 172 -13 176q-4 9 -11 9q-10 -1 -17 -16
q-3 -7 -6 -168q-80 0 -183 1q-12 170 -13 174q-4 9 -11 9q-10 -1 -17 -16q-3 -7 -6 -167q-89 1 -183 1q-12 169 -13 173q-4 9 -11 9q-10 -1 -17 -16q-3 -7 -6 -165h-67l-41 10q-154 37 -187 54q-28 14 -38 0q-4 -6 -4 -8q0 -7 16 -26q16 -18 25 -62q1 -3 3 -10t2.5 -10
t1 -10t-0.5 -16t-2 -22q-1 -11 -2.5 -35.5l-1.5 -24.5q3 0 20 13q41 31 95 56q23 10 41 16t44 12t46 11q18 1 49 1v-19l-10 -41q-38 -154 -54 -187q-14 -28 -1 -38q7 -4 9 -4q7 0 25 16q19 16 63 25q3 1 9.5 2.5t10 2t10 1t16 0t22.5 -1.5q11 -1 35 -3t24 -1q0 3 -12 20
q-31 41 -56 95q-11 22 -16.5 40.5t-11.5 44.5t-12 46v3q91 2 179 4v-24l-10 -41q-38 -154 -54 -187q-14 -28 -1 -38q7 -4 9 -4q7 0 25 16q19 16 63 25q3 1 9.5 2.5t10 2t10 1t16 0t22.5 -1.5q11 -1 35 -3t24 -1q0 3 -12 20q-31 41 -56 95q-11 22 -16.5 40.5t-11.5 44.5
t-12 46v8q101 2 179 4v-29zM2223 2964l-41 10q-154 37 -187 54q-28 14 -38 0q-4 -6 -4 -8q0 -7 16 -26q16 -18 25 -62q1 -3 3 -10t2.5 -10t1 -10t-0.5 -16t-2 -22q-1 -11 -2.5 -35.5l-1.5 -24.5q3 0 20 13q41 31 95 56q23 10 41 16t44 12t46 11q781 16 785 17q9 4 9 11
q-1 9 -16 16q-4 2 -202.5 4t-395.5 3z" />
</svg>
