<?xml version="1.0" standalone="no"?>
<!DOCTYPE svg PUBLIC "-//W3C//DTD SVG 1.1//EN" "http://www.w3.org/Graphics/SVG/1.1/DTD/svg11.dtd" >
<svg xmlns="http://www.w3.org/2000/svg" xmlns:xlink="http://www.w3.org/1999/xlink" version="1.1" viewBox="0 0 1685 889">
   <path fill="currentColor"
d="M126 337q-11 -10 -9.5 -21.5t8.5 -16.5q3 -2 6 -3l-2 -26l-10 -41q-37 -154 -53 -187q-14 -28 -1 -38q6 -4 9 -4q7 0 25 16q19 16 62 25q4 1 10.5 2.5t9.5 2t10 1t16 0t23 -1.5q10 -1 34.5 -3t24.5 -1q0 3 -13 20q-31 41 -56 95q-10 22 -16 40.5t-11.5 44.5t-11.5 46
q-4 14 -8 29q17 4 52.5 9t83.5 10.5t60 7.5l-2 -4q-2 -4 -4 -21.5t-3 -32.5l-1 -15l-10 -41q-37 -154 -53 -187q-14 -28 -1 -38q6 -4 9 -4q7 0 25 16q19 16 62 25q4 1 10.5 2.5t9.5 2t10 1t16 0t23 -1.5q10 -1 34.5 -3t24.5 -1q0 3 -13 20q-31 41 -56 95q-10 22 -16 40.5
t-11.5 44.5t-11.5 46q-15 55 -17 59v1q21 3 80.5 4.5t95.5 -1.5q10 -1 32 -3q-3 -3 -5 -8q-2 -4 -4 -21.5t-3 -32.5l-1 -15l-10 -41q-37 -154 -53 -187q-14 -28 -1 -38q6 -4 9 -4q7 0 25 16q19 16 62 25q4 1 10.5 2.5t9.5 2t10 1t16 0t23 -1.5q10 -1 34.5 -3t24.5 -1
q0 3 -13 20q-31 41 -56 95q-10 22 -16 40.5t-11.5 44.5t-11.5 46q-15 55 -17 59h5q0 5 -13 20q-156 185 -222 425q-2 9 -10 9q-6 -1 -12 -5t-5 -11q6 -56 -39.5 -154t-104 -179.5t-97.5 -113.5zM864 818l-41 10q-154 37 -187 54q-28 14 -38 0q-4 -6 -4 -8q0 -7 16 -26
q16 -18 26 -62q0 -3 2 -10t2.5 -10t1 -10t0 -16t-2.5 -22q-1 -11 -2.5 -35.5t-0.5 -24.5q2 0 19 13q41 31 95 56q33 15 76 25l-6 -482l-10 -41q-38 -154 -54 -187q-14 -28 -1 -38q7 -4 9 -4q7 0 25 16q19 16 63 25q3 1 9.5 2.5t10 2t10 1t16 0t22.5 -1.5q11 -1 35 -3t24 -1
q0 3 -12 20q-31 41 -56 95q-11 22 -16.5 40.5t-11.5 44.5t-12 46q-11 362 -15 473q13 3 25 6q208 5 410 9q-3 -52 -6 -335l-55 5l-41 10q-154 37 -187 54q-28 14 -38 0q-4 -6 -4 -8q0 -7 16 -26q16 -18 26 -62q0 -3 2 -10t2.5 -10t1 -10t0 -16t-2.5 -22q-1 -11 -2.5 -35.5
t-0.5 -24.5q2 0 19 13q41 31 95 56q23 10 41 16t44 12t46 11q21 6 38 11l-1 -134l-10 -41q-38 -154 -54 -187q-14 -28 -1 -38q7 -4 9 -4q7 0 25 16q19 16 63 25q3 1 9.5 2.5t10 2t10 1t16 0t22.5 -1.5q11 -1 35 -3t24 -1q0 3 -12 20q-31 41 -56 95q-11 22 -16.5 40.5
t-11.5 44.5t-12 46q-12 401 -16 488q122 3 202 4q-2 -25 -3.5 -152t-2.5 -242l-1 -115l-10 -41q-38 -154 -54 -187q-14 -28 -1 -38q7 -4 9 -4q7 0 25 16q19 16 63 25q3 1 9.5 2.5t10 2t10 1t16 0t22.5 -1.5q11 -1 35 -3t24 -1q0 3 -12 20q-31 41 -56 95q-11 22 -16.5 40.5
t-11.5 44.5t-12 46q-12 418 -16 493q115 3 117 3q9 4 9 11q0 9 -16 16q-4 2 -202.5 4t-395.5 3z" />
</svg>
