<?xml version="1.0" standalone="no"?>
<!DOCTYPE svg PUBLIC "-//W3C//DTD SVG 1.1//EN" "http://www.w3.org/Graphics/SVG/1.1/DTD/svg11.dtd" >
<svg xmlns="http://www.w3.org/2000/svg" xmlns:xlink="http://www.w3.org/1999/xlink" version="1.1" viewBox="0 0 1581 896">
   <path fill="currentColor"
d="M336 705l-41 10q-154 37 -187 54q-28 14 -38 0q-4 -6 -4 -8q0 -7 16 -26q16 -18 25 -62q1 -3 3 -10t2.5 -10t1 -10t-0.5 -16t-2 -22t-3 -37l-1 1q-28 14 -38 0q-4 -6 -4 -8q0 -7 16 -26q16 -18 25 -62q1 -3 3 -10t2.5 -10t1 -10t-0.5 -16t-2 -22l-3 -36q-27 13 -37 0
q-4 -6 -4 -8q0 -7 16 -26q16 -18 25 -62q1 -3 3 -10t2.5 -10t1 -10t-0.5 -16t-2 -22q-1 -11 -2.5 -35.5l-1.5 -24.5q3 0 20 13q41 31 95 56q23 10 41 16t44 12t46 11q125 9 189 14q-27 -104 -40 -130q-14 -28 -1 -38q7 -4 9 -4q7 0 25 16q19 16 63 25q3 1 9.5 2.5t10 2t10 1
t16 0t22.5 -1.5q11 -1 35 -3t24 -1q0 3 -12 20q-31 41 -56 95q-11 22 -16.5 40.5t-11.5 44.5t-12 46q-9 221 -14 319q1 1 1 2q9 24 17.5 41t23 39.5t24.5 40.5q28 49 30 53q4 9 -2 14q-7 7 -22 1q-5 -2 -18.5 -12.5t-24.5 -20.5l-11 -10l-37 -23q-135 -82 -170 -94
q-14 -5 -21 -12t-6 -14v-2zM353 653q69 5 131 10q2 -2 6.5 -4.5t6.5 -4t6 -5t7.5 -7t9 -9.5t12.5 -15q22 -26 36 -41q0 -37 -1 -79q-12 2 -70 3.5t-110 2.5l-52 1l-41 10q-116 28 -165 45q40 29 93 54q23 10 41 16t44 12t46 11zM336 305l-41 10q-118 29 -166 45q40 29 92 54
q23 10 41 16t44 12t46 11q172 12 215 16l-1 -104l-10 -41q-3 -13 -6 -25zM1180 540l-41 10q-154 37 -187 54q-28 14 -38 0q-4 -6 -4 -8q0 -7 16 -26q10 -12 18 -34l-44 4l-41 10q-154 37 -187 54q-28 14 -38 0q-4 -6 -4 -8q0 -7 16 -26q16 -18 26 -62q0 -3 2 -10t2.5 -10
t1 -10t0 -16t-2.5 -22q-1 -11 -2.5 -35.5t-0.5 -24.5q2 0 19 13q41 31 95 56q23 10 41 16t44 12t46 11q20 6 37 11q5 -22 1 -59q-1 -11 -2.5 -35.5t-0.5 -24.5q2 0 19 13q41 31 95 56q23 10 41 16t44 12t46 11q29 2 70 3l-1 -126l-10 -41q-38 -154 -54 -187q-14 -28 -1 -38
q7 -4 9 -4q7 0 25 16q19 16 63 25q3 1 9.5 2.5t10 2t10 1t16 0t22.5 -1.5q11 -1 35 -3t24 -1q0 3 -12 20q-31 41 -56 95q-11 22 -16.5 40.5t-11.5 44.5t-12 46q-1 46 -3 111q245 11 248 12q9 4 9 11q0 9 -16 16q-6 3 -243 6q-10 346 -11 349q-4 9 -11 9q-10 -1 -17 -16
q-3 -7 -6 -341zM1145 275l-37 -23q-135 -82 -170 -94q-14 -5 -21 -12t-6 -14t3 -9q5 -5 29 -7q25 -2 62 -26q3 -2 9 -5.5t8.5 -5.5t8 -6t11.5 -11t14 -18q7 -8 23 -26.5t17 -17.5q1 2 4 23q8 51 28 106q9 24 17.5 41t23 39.5t24.5 40.5q28 49 30 53q4 9 -2 14q-7 7 -22 1
q-5 -2 -18.5 -12.5t-24.5 -20.5z" />
</svg>
