<?xml version="1.0" standalone="no"?>
<!DOCTYPE svg PUBLIC "-//W3C//DTD SVG 1.1//EN" "http://www.w3.org/Graphics/SVG/1.1/DTD/svg11.dtd" >
<svg xmlns="http://www.w3.org/2000/svg" xmlns:xlink="http://www.w3.org/1999/xlink" version="1.1" viewBox="0 0 1250 896">
   <path fill="currentColor"
d="M1192 240q3 -4 10.5 -4.5t13 2.5t4.5 9q-4 15 -38 77.5t-49 113.5q-16 51 5 115t60 116q19 25 32 62.5t8 42.5q-2 2 -5.5 -1.5t-8 -10.5t-9.5 -16q-18 -34 -68 -86q-35 -36 -62.5 -55t-97.5 -56q-14 -7 -22 -14h-18q-10 349 -11 352q-4 9 -11 9q-10 -1 -17 -16
q-3 -7 -6 -343l-147 3l-41 10q-154 37 -187 54q-28 14 -38 0q-4 -6 -4 -8q0 -7 16 -26q16 -18 25 -62q1 -3 2.5 -10t2 -10t1.5 -10t0 -16t-2 -22q-1 -11 -2.5 -35.5l-1.5 -24.5q3 0 20 13q41 31 95 56q22 10 40.5 16t44.5 12t46 11q68 5 130 10l-1 -133l-10 -41
q-38 -154 -54 -187q-14 -28 -1 -38q7 -4 9 -4q7 0 25 16q19 16 63 25q3 1 9.5 2.5t10 2t10 1t16 0t22.5 -1.5q11 -1 35 -3t24 -1q0 3 -12 20q-31 41 -56 95q-11 22 -16.5 40.5t-11.5 44.5t-12 46q-1 50 -3 119q5 0 6 1q7 -9 25 -16q7 -3 26 -17.5t36 -29t37.5 -31.5
t22.5 -19q16 -14 39.5 -65t50.5 -84zM1093 448q2 -2 3 -4q-2 1 -3 4zM449 849l-36 -23q-135 -82 -170 -94q-14 -5 -21 -12t-6 -14t3 -9q5 -5 29 -7q25 -2 62 -26q3 -2 9 -5.5t8.5 -5.5t8 -6t11.5 -11t14 -18q21 -26 36 -41v-43q-7 2 -23.5 3.5t-29.5 2.5l-14 1l-41 10
q-154 37 -187 54q-28 14 -38 0q-4 -6 -4 -8q0 -7 16 -26q16 -18 25 -62q1 -3 3 -10t2.5 -10t1 -10t-0.5 -16t-2 -22q-1 -11 -2.5 -35.5l-1.5 -24.5q3 0 20 13q41 31 95 56q23 10 41 16t44 12t46 11q33 10 49 14l-1 -138l-10 -41q-38 -154 -54 -187q-14 -28 -1 -38q7 -4 9 -4
q7 0 25 16q19 16 63 25q3 1 9.5 2.5t10 2t10 1t16 0t22.5 -1.5q11 -1 35 -3t24 -1q0 3 -12 20q-31 41 -56 95q-11 22 -16.5 40.5t-11.5 44.5t-12 46q-9 221 -14 319q1 1 1 2q9 24 17.5 41t23 39.5t23.5 40.5q29 49 30 53q5 9 -1 14q-7 7 -22 1q-5 -2 -18.5 -12.5
t-24.5 -20.5zM793 275l-36 -23q-135 -82 -170 -94q-14 -5 -21 -12t-6 -14t3 -9q5 -5 29 -7q25 -2 62 -26q3 -2 9 -5.5t8.5 -5.5t8 -6t11.5 -11t14 -18q7 -8 23 -26.5t17 -17.5q1 2 4 23q8 51 28 106q9 24 17.5 41t23 39.5t23.5 40.5q29 49 30 53q5 9 -1 14q-7 7 -22 1
q-5 -2 -18.5 -12.5t-24.5 -20.5z" />
</svg>
