<?xml version="1.0" standalone="no"?>
<!DOCTYPE svg PUBLIC "-//W3C//DTD SVG 1.1//EN" "http://www.w3.org/Graphics/SVG/1.1/DTD/svg11.dtd" >
<svg xmlns="http://www.w3.org/2000/svg" xmlns:xlink="http://www.w3.org/1999/xlink" version="1.1" viewBox="0 0 1210 801">
   <path fill="currentColor"
d="M576 337q-10 -10 -8.5 -21.5t8.5 -16.5q3 -2 6 -3l-2 -26l-3 -12q-3 2 -7 4t-62.5 4t-115.5 3l-57 1l-41 10q-154 37 -187 54q-28 14 -38 0q-4 -6 -4 -8q0 -7 16 -26q16 -18 25 -62q1 -3 2.5 -10t2 -10t1.5 -10t0 -16t-2 -22q-1 -11 -2.5 -35.5l-1.5 -24.5q3 0 20 13
q41 31 95 56q22 10 40.5 16t44.5 12t46 11q186 13 220 17l-2 -6q-37 -154 -54 -187q-13 -28 0 -38q6 -4 9 -4q6 0 25 16t62 25q4 1 10.5 2.5t9.5 2t10 1t16 0t22 -1.5q11 -1 35.5 -3t24.5 -1q0 3 -13 20q-31 41 -56 95q-10 22 -16 40.5t-12 44.5t-11 46q-4 14 -8 29
q17 4 52.5 9t83.5 10.5t60 7.5l-2 -4q-2 -4 -4 -21.5t-3 -32.5l-1 -15l-10 -41q-37 -154 -54 -187q-13 -28 0 -38q6 -4 9 -4q6 0 25 16t62 25q4 1 10.5 2.5t9.5 2t10 1t16 0t22 -1.5q11 -1 35.5 -3t24.5 -1q0 3 -13 20q-31 41 -56 95q-10 22 -16 40.5t-12 44.5t-11 46
q-15 55 -17 59v1q21 3 80.5 4.5t94.5 -1.5l33 -3q-3 -3 -5 -8q-2 -4 -4 -21.5t-3 -32.5l-1 -15l-10 -41q-37 -154 -54 -187q-13 -28 0 -38q6 -4 9 -4q6 0 25 16t62 25q4 1 10.5 2.5t9.5 2t10 1t16 0t22 -1.5q11 -1 35.5 -3t24.5 -1q0 3 -13 20q-31 41 -56 95
q-10 22 -16 40.5t-12 44.5t-11 46q-15 55 -17 59h5q0 5 -13 20q-156 185 -222 425q-2 9 -11 9q-5 -1 -11 -5t-5 -11q3 -25 -5 -60l-483 6l-41 10q-154 37 -187 54q-28 14 -38 0q-4 -6 -4 -8q0 -7 16 -26q16 -18 25 -62q1 -3 3 -10t2.5 -10t1 -10t-0.5 -16t-2 -22
q-1 -11 -2.5 -35.5l-1.5 -24.5q3 0 20 13q41 31 95 56q23 10 41 16t44 12t46 11q331 11 457 15q-29 -88 -102 -200q-15 2 -108.5 3.5t-178.5 2.5l-85 1l-41 10q-154 37 -187 54q-28 14 -38 0q-4 -6 -4 -8q0 -7 16 -26q16 -18 25 -62q1 -3 3 -10t2.5 -10t1 -10t-0.5 -16
t-2 -22q-1 -11 -2.5 -35.5l-1.5 -24.5q3 0 20 13q41 31 95 56q23 10 41 16t44 12t46 11q249 11 336 15q-64 -92 -107 -126z" />
</svg>
