<?xml version="1.0" standalone="no"?>
<!DOCTYPE svg PUBLIC "-//W3C//DTD SVG 1.1//EN" "http://www.w3.org/Graphics/SVG/1.1/DTD/svg11.dtd" >
<svg xmlns="http://www.w3.org/2000/svg" xmlns:xlink="http://www.w3.org/1999/xlink" version="1.1" viewBox="0 0 2310 889">
   <path fill="currentColor"
d="M1837 649q-10 11 -21.5 9.5t-16.5 -8.5q-4 -6 -4 -9q0 -7 16 -25q1 -2 4 -11l-201 5l-41 10q-154 37 -187 54q-28 14 -38 0q-4 -6 -4 -8q0 -7 16 -26q16 -18 25 -62q1 -3 2.5 -10t2 -10t1.5 -10t0 -16t-2 -22t-3 -36q-28 14 -38 0q-4 -6 -4 -8q0 -7 16 -26q16 -18 25 -62
q1 -3 2.5 -10t2 -10t1.5 -10t0 -16t-2 -22t-3 -36q-28 14 -38 0q-4 -6 -4 -8q0 -7 16 -26q16 -18 25 -62q1 -3 2.5 -10t2 -10t1.5 -10t0 -16t-2 -22q-1 -11 -2.5 -35.5l-1.5 -24.5q3 0 20 13q41 31 95 56q22 10 40.5 16t44.5 12t46 11q175 13 216 16q-1 -12 -1 -19v-9
q5 0 20 13q185 156 424 222q10 2 9 10q0 6 -4 12t-11 5q-56 -6 -154 39.5t-179.5 104t-113.5 97.5zM744 210l-41 10q-117 28 -165 45q39 29 92 54q22 10 40.5 16t44.5 12t46 11q172 12 215 16l-1 -104l-10 -41q-3 -13 -6 -25zM761 158q126 9 190 14q-27 -104 -40 -130
q-14 -28 -1 -38q7 -4 9 -4q7 0 25 16q19 16 63 25q3 1 9.5 2.5t10 2t10 1t16 0t22.5 -1.5q11 -1 35 -3t24 -1q0 3 -12 20q-31 41 -56 95q-11 22 -16.5 40.5t-11.5 44.5t-12 46q-9 221 -14 319q1 1 1 2q9 24 17.5 41t23 39.5t23.5 40.5q29 49 30 53q5 9 -1 14q-7 7 -22 1
q-5 -2 -18.5 -12.5t-24.5 -20.5l-12 -10l-36 -23q-135 -82 -170 -94q-14 -5 -21 -12t-6 -14v-2l-52 1l-41 10q-154 37 -187 54q-28 14 -38 0q-4 -6 -4 -8q0 -7 16 -26q16 -18 25 -62q1 -3 2.5 -10t2 -10t1.5 -10t0 -16t-2 -22t-3 -36q-28 14 -38 0q-4 -6 -4 -8q0 -7 16 -26
q16 -18 25 -62q1 -3 2.5 -10t2 -10t1.5 -10t0 -16t-2 -22t-3 -36q-28 14 -38 0q-4 -6 -4 -8q0 -7 16 -26q16 -18 25 -62q1 -3 2.5 -10t2 -10t1.5 -10t0 -16t-2 -22q-1 -11 -2.5 -35.5l-1.5 -24.5q3 0 20 13q41 31 95 56q22 10 40.5 16t44.5 12t46 11zM744 410l-41 10
q-117 28 -165 45q39 29 92 54q22 10 40.5 16t44.5 12t46 11q70 5 132 10q1 -2 6 -4.5t7 -4l6 -4.5t7.5 -7t9 -10t12.5 -15q21 -26 36 -41q0 -37 -1 -79q-12 2 -70 3.5t-110 2.5zM285 270l-10 -41q-38 -154 -54 -187q-14 -28 -1 -38q7 -4 9 -4q7 0 25 16q19 16 63 25
q3 1 9.5 2.5t10 2t10 1t16 0t22.5 -1.5q11 -1 35 -3t24 -1q0 3 -12 20q-31 41 -56 95q-11 22 -16.5 40.5t-11.5 44.5t-12 46q-11 362 -15 473q13 3 25 6q501 16 505 17q9 4 9 11q-1 9 -16 16q-4 2 -132.5 4t-255.5 3l-127 1l-41 10q-154 37 -187 54q-28 14 -38 0
q-4 -6 -4 -8q0 -7 16 -26q16 -18 25 -62q1 -3 3 -10t2.5 -10t1 -10t-0.5 -16t-2 -22q-1 -11 -2.5 -35.5l-1.5 -24.5q3 0 20 13q41 31 95 56q33 15 76 25zM1259 754l-36 -23q-135 -82 -170 -94q-14 -5 -21 -12t-6 -14t3 -9q5 -5 29 -7q25 -2 62 -26q3 -2 9 -5.5t8.5 -5.5
t8 -6t11.5 -11t14 -18q21 -26 36 -41l-2 -212l-10 -41q-38 -154 -54 -187q-14 -28 -1 -38q7 -4 9 -4q7 0 25 16q19 16 63 25q3 1 9.5 2.5t10 2t10 1t16 0t22.5 -1.5q11 -1 35 -3t24 -1q0 3 -12 20q-31 41 -56 95q-11 22 -16.5 40.5t-11.5 44.5t-12 46q-9 221 -14 319
q1 1 1 2q9 24 17.5 41t23 39.5t23.5 40.5q29 49 30 53q5 9 -1 14q-7 7 -22 1q-5 -2 -18.5 -12.5t-24.5 -20.5zM1614 210l-41 10q-117 28 -165 45q39 29 92 54q22 10 40.5 16t44.5 12t46 11q176 13 217 16q3 -28 4 -81.5t-2 -87.5v-3h-1q-4 2 -62.5 4t-115.5 3zM1614 410
l-41 10q-117 28 -165 45q39 29 92 54q22 10 40.5 16t44.5 12t46 11q127 9 190 14q5 -30 13 -95.5t9 -73.5q-17 2 -74 3.5t-106 2.5z" />
</svg>
