<?xml version="1.0" standalone="no"?>
<!DOCTYPE svg PUBLIC "-//W3C//DTD SVG 1.1//EN" "http://www.w3.org/Graphics/SVG/1.1/DTD/svg11.dtd" >
<svg xmlns="http://www.w3.org/2000/svg" xmlns:xlink="http://www.w3.org/1999/xlink" version="1.1" viewBox="0 0 1431 894">
   <path fill="currentColor"
d="M1170 255l-41 10q-154 37 -187 54q-28 14 -38 0q-4 -6 -4 -8q0 -7 16 -26q16 -18 25 -62q1 -3 2.5 -10t2 -10t1.5 -10t0 -16t-2 -22q-1 -11 -2.5 -35.5l-1.5 -24.5q3 0 20 13q41 31 95 56q22 10 40.5 16t44.5 12t46 11q221 16 225 17q9 4 9 11q-1 9 -16 16q-4 2 -62.5 4
t-115.5 3zM889 806l-41 10q-154 37 -187 54q-28 14 -38 0q-4 -6 -4 -8q0 -7 16 -26q16 -18 25 -62q1 -3 3 -10t2.5 -10t1 -10t-0.5 -16t-2 -22q-1 -11 -2.5 -35.5l-1.5 -24.5q3 0 20 13q41 31 95 56q23 10 41 16t44 12t46 11q501 16 505 17q9 4 9 11q-1 9 -16 16
q-4 2 -132.5 4t-255.5 3zM816 673l-22 -13q-81 -49 -102 -57q-18 -6 -16 -15q1 -5 2 -6q3 -3 17 -4q15 -1 37 -15q2 -1 5.5 -3.5t5 -3.5t5 -3.5t7 -7t8.5 -10.5q4 -5 13.5 -16t10.5 -11q1 2 3 14q4 31 16 64q5 14 10.5 24.5t14 24t14.5 23.5q17 30 18 33q2 5 -1 8
q-4 4 -13 0q-3 -1 -11 -7.5t-15 -12.5zM914 576l-22 -14q-81 -49 -102 -56q-18 -6 -16 -16q0 -4 1 -5q3 -3 18 -4q9 -1 22 -7l-20 -17l-22 -13q-81 -50 -102 -57q-18 -6 -16 -16q0 -4 2 -5q2 -3 17 -4t37 -16q2 -1 5.5 -3t5 -3t4.5 -4l7 -7t9 -10q4 -5 13.5 -16l9.5 -11
q1 1 3 14q5 30 17 64q5 14 10.5 24t14 23.5t14.5 24.5t11 20q11 -7 26 -24q4 -5 13.5 -16l9.5 -11q1 1 3 14q5 30 17 63q5 15 10.5 25t13.5 23.5t14 24.5q17 30 18 32q3 5 0 8q-5 4 -14 1q-2 -1 -10.5 -7.5t-15.5 -12.5zM1011 478l-22 -13q-81 -50 -102 -57q-18 -6 -16 -15
q1 -5 2 -6q3 -3 17 -4q15 -1 38 -15q1 -2 4.5 -4t5.5 -3t5 -3.5t6.5 -7t8.5 -10.5q4 -5 13.5 -16t10.5 -11q1 1 3 14q4 31 16 64q5 14 10.5 24t14 23.5t14.5 24.5q17 30 18 32q2 6 -1 9q-4 4 -13 0q-3 -1 -11 -7.5t-15 -12.5zM449 849l-36 -23q-135 -82 -170 -94
q-14 -5 -21 -12t-6 -14t3 -9q5 -5 29 -7q25 -2 62 -26q3 -2 9 -5.5t8.5 -5.5t8 -6t11.5 -11t14 -18q21 -26 36 -41v-43q-7 2 -23.5 3.5t-29.5 2.5l-14 1l-41 10q-154 37 -187 54q-28 14 -38 0q-4 -6 -4 -8q0 -7 16 -26q16 -18 25 -62q1 -3 3 -10t2.5 -10t1 -10t-0.5 -16
t-2 -22q-1 -11 -2.5 -35.5l-1.5 -24.5q3 0 20 13q41 31 95 56q23 10 41 16t44 12t46 11q33 10 49 14l-1 -138l-10 -41q-38 -154 -54 -187q-14 -28 -1 -38q7 -4 9 -4q7 0 25 16q19 16 63 25q3 1 9.5 2.5t10 2t10 1t16 0t22.5 -1.5q11 -1 35 -3t24 -1q0 3 -12 20
q-31 41 -56 95q-11 22 -16.5 40.5t-11.5 44.5t-12 46q-9 221 -14 319q1 1 1 2q9 24 17.5 41t23 39.5t23.5 40.5q29 49 30 53q5 9 -1 14q-7 7 -22 1q-5 -2 -18.5 -12.5t-24.5 -20.5zM793 275l-36 -23q-135 -82 -170 -94q-14 -5 -21 -12t-6 -14t3 -9q5 -5 29 -7q25 -2 62 -26
q3 -2 9 -5.5t8.5 -5.5t8 -6t11.5 -11t14 -18q7 -8 23 -26.5t17 -17.5q1 2 4 23q8 51 28 106q9 24 17.5 41t23 39.5t23.5 40.5q29 49 30 53q5 9 -1 14q-7 7 -22 1q-5 -2 -18.5 -12.5t-24.5 -20.5z" />
</svg>
