<?xml version="1.0" standalone="no"?>
<!DOCTYPE svg PUBLIC "-//W3C//DTD SVG 1.1//EN" "http://www.w3.org/Graphics/SVG/1.1/DTD/svg11.dtd" >
<svg xmlns="http://www.w3.org/2000/svg" xmlns:xlink="http://www.w3.org/1999/xlink" version="1.1" viewBox="0 0 1185 885">
   <path fill="currentColor"
d="M912 344q3 -4 10.5 -4.5t13 2.5t4.5 9q-5 16 -33 67q6 8 11 15q19 25 32 62.5t8 42.5q-2 2 -5.5 -1.5t-8 -10.5t-9.5 -16q-11 -21 -45 -60q-24 49 -37 92q-16 51 5 115t60 116q19 25 32 62.5t8 42.5q-2 2 -5.5 -1.5t-8 -10.5t-9.5 -16q-18 -34 -68 -86q-35 -36 -62.5 -55
t-97.5 -56q-15 -8 -24 -16l-353 6l-41 10q-86 21 -136 36q26 17 63 34q23 10 41 16t44 12t46 11q24 7 41 12q6 -23 2 -60q-1 -11 -2.5 -35.5l-1.5 -24.5q3 0 20 13q41 31 95 56q22 10 40.5 16t44.5 12t46 11q221 16 225 17q9 4 9 11q-1 9 -16 16q-4 2 -62.5 4t-115.5 3
l-57 1l-41 10q-154 37 -187 54q-28 14 -38 0q-4 -6 -4 -8q0 -7 16 -26q10 -12 18 -34l-49 4l-41 10q-154 37 -187 54q-28 14 -38 0q-4 -6 -4 -8q0 -7 16 -26q16 -18 25 -62q1 -3 3 -10t2.5 -10t1 -10t-0.5 -16t-2 -22q0 -3 -1 -8q-1 1 -2 1q-28 14 -38 1q-4 -6 -4 -9
q0 -7 16 -25q16 -19 25 -62q1 -4 3 -10.5t2.5 -9.5t1 -10t-0.5 -16t-2 -23q0 -2 -1 -7l-2 2q-28 14 -38 0q-4 -6 -4 -8q0 -7 16 -26q16 -18 25 -62q1 -3 3 -10t2.5 -10t1 -10t-0.5 -16t-2 -22q0 -3 -1 -8q-1 1 -2 1q-28 14 -38 1q-4 -6 -4 -9q0 -7 16 -25q16 -19 25 -62
q1 -4 3 -10.5t2.5 -9.5t1 -10t-0.5 -16t-2 -23q-1 -10 -2.5 -34.5l-1.5 -24.5q3 0 20 12q41 31 95 56q23 11 41 16.5t44 11.5t46 12q235 10 328 14q6 -8 25 -16q7 -3 26 -17.5t36 -29t37.5 -31.5t22.5 -19q16 -14 39.5 -65t50.5 -84q3 -4 10.5 -4.5t13 2.5t4.5 9
q-4 15 -38 77.5t-49 113.5q-23 76 33 180q12 -20 26 -38zM347 592q235 10 328 14q6 -8 25 -16q7 -3 26 -17.5t36 -29t37.5 -31.5t22.5 -19q11 -9 20 -26q-41 4 -227 7l-41 10q-154 37 -187 54q-28 14 -38 0q-4 -6 -4 -8q0 -7 16 -26q10 -12 18 -34l-49 4l-41 10
q-85 21 -135 35q26 17 62 33q23 11 41 16.5t44 11.5t46 12zM813 552q2 -2 3 -4q-2 1 -3 4zM1016 584l-10 -41q-38 -154 -54 -187q-14 -28 -1 -38q7 -4 9 -4q7 0 25 16q12 10 34 18l-3 -44l-10 -41q-38 -154 -54 -187q-14 -28 -1 -38q7 -4 9 -4q7 0 25 16q19 16 63 25
q3 1 9.5 2.5t10 2t10 1t16 0t22.5 -1.5q11 -1 35 -3t24 -1q0 3 -12 20q-31 41 -56 95q-11 22 -16.5 40.5t-11.5 44.5t-12 46q-5 20 -10 37q21 5 59 1q11 -1 35 -3t24 -1q0 3 -12 20q-31 41 -56 95q-11 22 -16.5 40.5t-11.5 44.5t-12 46q-15 221 -16 225q-4 9 -11 9
q-10 -1 -17 -16q-1 -4 -3 -63t-3 -115zM330 303l-41 10q-86 21 -136 36q26 17 63 34q23 10 41 16t44 12t46 11q24 7 41 12q6 -23 2 -60q-1 -11 -2.5 -35.5l-1.5 -24.5q3 0 20 13q41 31 95 56q22 10 40.5 16t44.5 12t46 11q218 15 225 17q7 -16 8 -17q-34 -35 -61.5 -53.5
t-96.5 -55.5q-15 -8 -24 -16zM813 212q2 -2 3 -4q-2 1 -3 4z" />
</svg>
