<?xml version="1.0" standalone="no"?>
<!DOCTYPE svg PUBLIC "-//W3C//DTD SVG 1.1//EN" "http://www.w3.org/Graphics/SVG/1.1/DTD/svg11.dtd" >
<svg xmlns="http://www.w3.org/2000/svg" xmlns:xlink="http://www.w3.org/1999/xlink" version="1.1" viewBox="0 0 1605 924">
   <path fill="currentColor"
d="M772 5q3 -5 10.5 -5.5t13 3t4.5 8.5q-4 15 -38 78t-49 114q-16 51 5 114.5t60 115.5q14 18 25 45q2 -1 3 -3q16 -18 25 -62q1 -3 3 -10t2.5 -10t1 -10t-0.5 -16t-2 -22t-3 -36q-28 14 -38 0q-4 -6 -4 -8q0 -7 16 -26q16 -18 25 -62q1 -3 3 -10t2.5 -10t1 -10t-0.5 -16
t-2 -22q-1 -11 -2.5 -35.5l-1.5 -24.5q3 0 20 13q41 31 95 56q23 10 41 16t44 12t46 11q248 11 335 15q-27 -105 -40 -131q-14 -28 -1 -38q7 -4 9 -4q7 0 25 16q19 16 63 25q3 1 9.5 2.5t10 2t10 1t16 0t22.5 -1.5q11 -1 35 -3t24 -1q0 3 -12 20q-31 41 -56 95
q-11 22 -16.5 40.5t-11.5 44.5t-12 46q-15 501 -16 505q-4 9 -11 9q-1 0 -2 -1q-4 6 -13 10q-4 2 -132.5 4t-255.5 3l-127 1l-41 10q-154 37 -187 54q-28 14 -38 0q-4 -6 -4 -8q0 -7 16 -26q16 -18 25 -62l2.5 -10t2 -9t1.5 -9.5t0.5 -15t-2.5 -20.5q-4 2 -97.5 3.5
t-185.5 2.5l-92 1l-41 10q-154 38 -187 54q-28 14 -38 1q-4 -6 -4 -9q0 -7 16 -25q16 -19 25 -62q1 -4 3 -10.5t2.5 -9.5t1 -10t-0.5 -16t-2 -23q-1 -10 -2.5 -34.5l-1.5 -24.5q3 0 20 12q41 31 95 56q23 11 41 16.5t44 11.5t46 12q301 13 356 16q-1 -15 -1.5 -25.5
l-0.5 -10.5q3 0 20 13q41 31 95 56q23 10 41 16t44 12t46 11q429 13 496 17q-2 -20 -4 -183l-4 2q-4 2 -97.5 4t-185.5 3l-92 1l-41 10q-154 37 -187 54q-28 14 -38 0q-4 -6 -4 -8q0 -7 16 -26q16 -18 25 -62q1 -3 3 -10t2.5 -10t1 -10t-0.5 -16t-2 -22t-3 -36q-9 4 -16 5
q5 21 2 25q-2 1 -5.5 -2t-8 -10.5t-9.5 -16.5q-1 -1 -1 -2q-2 -2 -3 -4q-22 -35 -64 -79q-35 -36 -62.5 -55t-97.5 -57q-14 -7 -22 -14l-210 5l-41 10q-154 38 -187 54q-28 14 -38 1q-4 -6 -4 -9q0 -7 16 -25q16 -19 25 -62q1 -4 2.5 -10.5t2 -9.5t1.5 -10t0 -16t-2 -23
q-1 -10 -2.5 -34.5l-1.5 -24.5q3 0 20 12q41 31 95 56q22 11 40.5 16.5t44.5 11.5t46 12q118 8 183 13q7 -8 25 -15q7 -4 26 -18.5t36 -28.5t37.5 -31.5t22.5 -19.5q16 -13 39.5 -64.5t50.5 -83.5zM673 213q2 -2 3 -4q-2 1 -3 4zM1077 593q326 14 362 17q-1 -76 -2 -173h-2
q-4 2 -97.5 4t-185.5 3l-92 1l-41 10q-117 28 -165 45q39 29 92 54q23 10 41 16t44 12t46 11zM1077 393q315 14 360 17l-1 -105l-10 -41q-3 -13 -6 -25q-32 1 -122 2.5t-164 2.5l-74 1l-41 10q-117 28 -165 45q39 29 92 54q23 10 41 16t44 12t46 11z" />
</svg>
