<?xml version="1.0" standalone="no"?>
<!DOCTYPE svg PUBLIC "-//W3C//DTD SVG 1.1//EN" "http://www.w3.org/Graphics/SVG/1.1/DTD/svg11.dtd" >
<svg xmlns="http://www.w3.org/2000/svg" xmlns:xlink="http://www.w3.org/1999/xlink" version="1.1" viewBox="0 0 1605 924">
   <path fill="currentColor"
d="M772 5q3 -5 10.5 -5.5t13 3t4.5 8.5q-4 15 -38 78t-49 114q-16 51 5 114.5t60 115.5q19 25 32 62.5t8 43.5q-2 1 -5.5 -2t-8 -10.5t-9.5 -16.5q-18 -34 -68 -85q-35 -36 -62.5 -55t-97.5 -57q-14 -7 -22 -14l-210 5l-41 10q-154 38 -187 54q-28 14 -38 1q-4 -6 -4 -9
q0 -7 16 -25q16 -19 25 -62q1 -4 2.5 -10.5t2 -9.5t1.5 -10t0 -16t-2 -23q-1 -10 -2.5 -34.5l-1.5 -24.5q3 0 20 12q41 31 95 56q22 11 40.5 16.5t44.5 11.5t46 12q118 8 183 13q7 -8 25 -15q7 -4 26 -18.5t36 -28.5t37.5 -31.5t22.5 -19.5q16 -13 39.5 -64.5t50.5 -83.5z
M1009 731l-36 -22q-136 -82 -171 -94q-13 -5 -20.5 -12t-6 -14.5t2.5 -9.5q5 -4 29 -6q25 -2 63 -26q3 -2 8.5 -5.5t8 -5.5t8 -6.5t11.5 -11t14 -17.5q7 -8 23 -26.5t17 -18.5q2 2 5 23q7 51 27 107q9 23 18 40t23 39.5t24 40.5q28 50 30 54q4 9 -1 14q-7 6 -23 0
q-4 -1 -17.5 -12t-25.5 -21zM1171 569l-36 -23q-135 -82 -170 -94q-14 -5 -21 -12t-6 -14t3 -9q5 -5 29 -7q16 -1 37 -11l-34 -28l-36 -23q-135 -82 -170 -94q-14 -4 -21 -11.5t-6 -14.5t3 -9q5 -5 29 -7q25 -2 62 -26q3 -2 9 -5.5t8.5 -5.5t8 -6t11.5 -11t14 -18
q7 -8 23 -26.5t17 -17.5q1 2 4 23q8 51 28 106q9 24 17.5 41t23 39.5t23.5 40.5q11 18 19 33q19 -11 43 -41q7 -8 23 -26.5t17 -17.5q1 2 4 23q8 51 28 106q9 24 17.5 41t23 39.5t23.5 40.5q29 49 30 53q5 9 -1 14q-7 7 -22 1q-5 -2 -18.5 -12.5t-24.5 -20.5zM1334 406
l-36 -22q-135 -83 -170 -95q-14 -4 -21.5 -11t-6 -14.5t3.5 -9.5q5 -5 29 -6q25 -2 62 -26q3 -2 9 -5.5t8.5 -5.5t7.5 -6.5t11 -11.5t15 -17q7 -8 23 -26.5l16 -18.5q2 2 5 23q7 51 28 106q8 24 17 41t23 39.5t24 40.5q28 50 30 54q4 9 -1 14q-7 6 -23 0q-4 -1 -17.5 -12
t-24.5 -21zM1436 305l-10 -41q-38 -154 -54 -187q-14 -28 -1 -38q7 -4 9 -4q7 0 25 16q19 16 63 25q3 1 9.5 2.5t10 2t10 1t16 0t22.5 -1.5q11 -1 35 -3t24 -1q0 3 -12 20q-31 41 -56 95q-11 22 -16.5 40.5t-11.5 44.5t-12 46q-15 501 -16 505q-4 9 -11 9q-1 0 -2 -1
q-4 6 -13 10q-4 2 -132.5 4t-255.5 3l-127 1l-41 10q-154 37 -187 54q-28 14 -38 0q-4 -6 -4 -8q0 -7 16 -26q16 -18 25 -62l2.5 -10t2 -9t1.5 -9.5t0.5 -15t-2.5 -20.5q-4 2 -97.5 3.5t-185.5 2.5l-92 1l-41 10q-154 38 -187 54q-28 14 -38 1q-4 -6 -4 -9q0 -7 16 -25
q16 -19 25 -62q1 -4 3 -10.5t2.5 -9.5t1 -10t-0.5 -16t-2 -23q-1 -10 -2.5 -34.5l-1.5 -24.5q3 0 20 12q41 31 95 56q23 11 41 16.5t44 11.5t46 12q301 13 356 16q-1 -15 -1.5 -25.5l-0.5 -10.5q3 0 20 13q41 31 95 56q23 10 41 16t44 12t46 11q429 13 496 17
q-2 -18 -3.5 -146t-2.5 -248zM673 213q2 -2 3 -4q-2 1 -3 4z" />
</svg>
