<?xml version="1.0" standalone="no"?>
<!DOCTYPE svg PUBLIC "-//W3C//DTD SVG 1.1//EN" "http://www.w3.org/Graphics/SVG/1.1/DTD/svg11.dtd" >
<svg xmlns="http://www.w3.org/2000/svg" xmlns:xlink="http://www.w3.org/1999/xlink" version="1.1" viewBox="0 0 1794 979">
   <path fill="currentColor"
d="M1545 4q3 -4 10.5 -4.5t13 2.5t4.5 9q-4 15 -38 77.5t-49 113.5q-16 51 5 115t60 116q19 25 32 62.5t8 42.5q-2 2 -5.5 -1.5t-8 -10.5t-9.5 -16q-13 -25 -51 -68l-8 4t-62.5 4t-115.5 3l-57 1l-41 10q-67 16 -113 29q17 9 40 20q23 10 41 16t44 12t46 11q221 16 225 17
q9 4 9 11q-1 9 -16 16q-4 2 -62.5 4t-115.5 3l-57 1l-41 10q-67 16 -113 29q17 9 40 20q23 10 41 16t44 12t46 11q221 16 225 17q9 4 9 11q-1 9 -16 16q-4 2 -62.5 4t-115.5 3l-57 1l-41 10q-154 37 -187 54q-28 14 -38 0q-4 -6 -4 -8q0 -7 16 -26q16 -18 25 -62
q1 -3 3 -11.5t2 -10.5t1 -13.5t-1 -20.5l-4 2q-28 14 -38 0q-4 -6 -4 -8q0 -7 16 -26q16 -18 25 -62q1 -3 3 -11.5t2 -10.5t1 -13.5t-1 -20.5l-4 2q-28 14 -38 0q-4 -6 -4 -8q0 -7 16 -26q16 -18 25 -62q1 -3 3 -11.5t2.5 -11.5t0.5 -12.5t-1 -22.5q-5 2 -9 4q-28 14 -38 0
q-4 -6 -4 -8q0 -7 16 -26q16 -18 26 -62q0 -3 2 -10t2.5 -10t1 -10t0 -16t-2.5 -22q-1 -11 -2.5 -35.5t-0.5 -24.5q2 0 19 13q41 31 95 56q23 10 41 16t44 12t46 11l28 8q7 -5 19 -10q8 -3 27 -17.5t35.5 -29t37 -31.5t22.5 -19q16 -14 39.5 -65t50.5 -84zM772 54
q3 -4 10.5 -4.5t13 2.5t4.5 9q-4 15 -38 77.5t-49 113.5q-16 51 5 115t60 116q19 25 32 62.5t8 42.5q-2 2 -5.5 -1.5t-8 -10.5t-9.5 -16q-18 -34 -68 -86q-35 -36 -62.5 -55t-97.5 -56q-14 -7 -22 -14l-210 5l-41 10q-86 21 -135 36q25 16 62 33q23 10 41 16t44 12t46 11
q221 16 225 17q9 4 9 11q-1 9 -16 16q-4 2 -62.5 4t-115.5 3l-57 1l-41 10q-86 21 -135 36q25 16 62 33q23 10 41 16t44 12t46 11q221 16 225 17q9 4 9 11q-1 9 -16 16q-4 2 -62.5 4t-115.5 3l-57 1l-41 10q-86 21 -135 36q25 16 62 33q23 10 41 16t44 12t46 11
q169 12 214 16q-1 -9 -2 -20t-2.5 -35.5t-0.5 -24.5q2 0 19 13q41 31 95 56q23 10 41 16t44 12t46 11q29 1 75 2q-1 -34 -3 -160t-2 -235l-1 -109l-10 -41q-38 -154 -54 -187q-14 -28 -1 -38q7 -4 9 -4q7 0 25 16q19 16 63 25q3 1 9.5 2.5t10 2t10 1t16 0t22.5 -1.5
q11 -1 35 -3t24 -1q0 3 -12 20q-31 41 -56 95q-11 22 -16.5 40.5t-11.5 44.5t-12 46q-12 399 -16 488q677 13 681 14q9 4 9 11q0 9 -16 16q-9 4 -795 8l-41 10q-154 37 -187 54q-28 14 -38 0q-4 -6 -4 -8q0 -7 16 -26q16 -18 26 -62q0 -4 1.5 -10t2.5 -9q-16 2 -73.5 3.5
t-106.5 2.5l-50 1l-41 10q-154 37 -187 54q-28 14 -38 0q-4 -6 -4 -8q0 -7 16 -26q16 -18 25 -62q1 -3 3 -10t2.5 -10t1 -10t-0.5 -16t-2 -22q0 -2 -1 -8l-2 2q-28 14 -38 0q-4 -6 -4 -8q0 -7 16 -26q16 -18 25 -62q1 -3 3 -10t2.5 -10t1 -10t-0.5 -16t-2 -22q0 -2 -1 -8
l-2 2q-28 14 -38 0q-4 -6 -4 -8q0 -7 16 -26q16 -18 25 -62q1 -3 3 -10t2.5 -10t1 -10t-0.5 -16t-2 -22q0 -2 -1 -8l-2 2q-28 14 -38 0q-4 -6 -4 -8q0 -7 16 -26q16 -18 25 -62q1 -3 3 -10t2.5 -10t1 -10t-0.5 -16t-2 -22q-1 -11 -2.5 -35.5l-1.5 -24.5q3 0 20 13
q41 31 95 56q23 10 41 16t44 12t46 11q118 9 183 14q7 -9 25 -16q8 -3 27 -17.5t35.5 -29t37 -31.5t22.5 -19q16 -14 39.5 -65t50.5 -84zM1625 354l-10 -41q-38 -154 -54 -187q-14 -28 -1 -38q7 -4 9 -4q7 0 25 16q19 16 63 25q3 1 9.5 2.5t10 2t10 1t16 0t22.5 -1.5
q11 -1 35 -3t24 -1q0 3 -12 20q-31 41 -56 95q-11 22 -16.5 40.5t-11.5 44.5t-12 46q-15 501 -16 505q-4 9 -11 9q-10 -1 -17 -16q-1 -4 -3 -133t-3 -255zM1291 402q145 10 202 15q-31 -32 -58.5 -50t-94.5 -54q-13 -7 -21 -13l-50 4l-41 10q-65 16 -109 28q17 10 41 21
q23 10 41 16t44 12t46 11zM1446 212q2 -2 3 -4q-2 1 -3 4zM673 262q2 -2 3 -4q-2 1 -3 4z" />
</svg>
