<?xml version="1.0" standalone="no"?>
<!DOCTYPE svg PUBLIC "-//W3C//DTD SVG 1.1//EN" "http://www.w3.org/Graphics/SVG/1.1/DTD/svg11.dtd" >
<svg xmlns="http://www.w3.org/2000/svg" xmlns:xlink="http://www.w3.org/1999/xlink" version="1.1" viewBox="0 0 1600 752">
   <path fill="currentColor"
d="M1126 636q-10 11 -21 9.5t-16 -8.5q-4 -6 -4 -9q0 -7 15 -25q7 -7 18 -98l-218 6l-41 10q-154 37 -187 54q-28 14 -38 0q-4 -6 -4 -8q0 -7 16 -26q10 -12 18 -34l-49 4l-41 10q-139 34 -180 50q16 9 36 19q23 10 41.5 16t44.5 12t45 11q502 16 506 17q9 4 9 11
q-1 9 -16 16q-4 2 -133 4t-255 3l-127 1l-41 10q-33 8 -61 15q2 10 -1 13q-2 2 -12 -10q-90 24 -113 36q-28 14 -38 0q-4 -6 -4 -8q0 -7 16 -26q16 -18 25 -62q1 -3 2.5 -10t2 -10t1 -10t0 -16t-1.5 -22q-1 -5 -2 -18q-45 -46 -81 -71t-129 -74q-19 -10 -31 -20.5t-16 -21.5
t5 -22t32 -20q11 -4 36 -23.5t48 -38.5t49.5 -42t30.5 -26q18 -15 33 -46t36.5 -74t49.5 -78q8 -9 17.5 -5.5t6.5 14.5q-1 3 -2 7q1 1 3 2q41 31 94 56q23 10 41.5 16t44.5 12t45 11q25 7 42 12q6 -23 2 -60q-1 -11 -3 -35.5t-1 -24.5q3 0 20 13q41 31 94 56q23 10 41.5 16
t44.5 12t45 11q184 13 220 16v-2q1 0 8 4q2 1 3 2q5 3 8 7q185 156 425 222q10 2 9 10q0 6 -4 12t-11 5q-56 -6 -154 39.5t-180 104t-114 97.5zM615 171l-41 10q-86 21 -136 36q26 16 62 33q23 10 41.5 16t44.5 12t45 11q25 7 42 12q6 -23 2 -60q0 -3 -1 -8l-2 2
q-28 14 -38 0q-4 -6 -4 -8q0 -7 16 -26q10 -12 18 -34zM900 171l-41 10q-86 21 -136 36q26 16 62 33q23 10 41.5 16t44.5 12t45 11q210 15 225 17q2 -76 -1 -114q-1 -9 -3 -30q-1 1 -2 1q-4 2 -63 4t-115 3zM389 233l-2 2q-28 14 -38 0q-4 -6 -4 -8q0 -7 16 -26
q16 -18 25 -62q1 -3 2.5 -10t2 -10t1 -10t0 -16t-1.5 -22q-1 -5 -1 -16q-4 8 -28.5 52.5t-42 82.5t-29.5 80q-18 61 2.5 135.5t64.5 142.5q2 -3 5 -7q16 -18 25 -62q1 -3 2.5 -10t2 -10t1 -10t0 -16t-1.5 -22q0 -3 -1 -8l-2 2q-28 14 -38 0q-4 -6 -4 -8q0 -7 16 -26
q16 -18 25 -62q1 -3 2.5 -10t2 -10t1 -10t0 -16t-1.5 -22q0 -3 -1 -8zM615 341l-41 10q-86 21 -136 36q26 16 62 33q23 10 41.5 16t44.5 12t45 11q25 7 42 12q6 -23 2 -60q0 -3 -1 -8l-2 2q-28 14 -38 0q-4 -6 -4 -8q0 -7 16 -26q10 -12 18 -34zM900 341l-41 10
q-86 21 -136 36q26 16 62 33q23 10 41.5 16t44.5 12t45 11q152 11 206 15q12 -95 14 -103q2 -9 4 -40q-3 1 -5 2q-4 2 -63 4t-115 3zM253 266q0 -1 1 -1q-1 0 -1 1z" />
</svg>
