<?xml version="1.0" standalone="no"?>
<!DOCTYPE svg PUBLIC "-//W3C//DTD SVG 1.1//EN" "http://www.w3.org/Graphics/SVG/1.1/DTD/svg11.dtd" >
<svg xmlns="http://www.w3.org/2000/svg" xmlns:xlink="http://www.w3.org/1999/xlink" version="1.1" viewBox="0 0 1804 871">
   <path fill="currentColor"
d="M1635 270l-10 -41q-38 -154 -54 -187q-14 -28 -1 -38q7 -4 9 -4q7 0 25 16q19 16 63 25q3 1 9.5 2.5t10 2t10 1t16 0t22.5 -1.5q11 -1 35 -3t24 -1q0 3 -12 20q-31 41 -56 95q-11 22 -16.5 40.5t-11.5 44.5t-12 46q-15 501 -16 505q-4 9 -11 9q-10 -1 -17 -16
q-1 -4 -3 -133t-3 -255zM490 370l-13 3q14 5 31 8q3 1 9.5 2.5t10 2t10 1t16 0t22.5 -1.5q11 -1 35 -3t24 -1q0 3 -12 20q-31 41 -56 95q-11 22 -16.5 40.5t-11.5 44.5t-12 46q-1 23 -4 55q95 2 184 4l-1 -76l-10 -41q-38 -154 -54 -187q-3 -7 -5 -13zM507 318
q501 16 505 17q9 4 9 11q-1 9 -16 16q-3 2 -100 3v1q19 16 63 25q3 1 9.5 2.5t10 2t10 1t16 0t22.5 -1.5q11 -1 35 -3t24 -1q0 3 -12 20q-31 41 -56 95q-15 32 -29 89q25 -2 62 -26q3 -2 9 -5.5t8.5 -5.5t8 -6t11.5 -11t14 -18q21 -26 36 -41l-2 -212l-10 -41
q-38 -154 -54 -187q-14 -28 -1 -38q7 -4 9 -4q7 0 25 16q19 16 63 25q3 1 9.5 2.5t10 2t10 1t16 0t22.5 -1.5q11 -1 35 -3t24 -1q0 3 -12 20q-31 41 -56 95q-11 22 -16.5 40.5t-11.5 44.5t-12 46q-9 221 -14 319q1 1 1 2q9 24 17.5 41t23 39.5t23.5 40.5q29 49 30 53
q5 9 -1 14q-7 7 -22 1q-5 -2 -18.5 -12.5t-24.5 -20.5l-12 -10l-36 -23q-14 -8 -27 -16q-4 4 -11 7q-3 2 -144 3q-9 134 -10 137q-4 9 -11 9q-10 -1 -17 -16q-2 -6 -5 -129q-79 1 -188 1q-9 122 -9 125q-4 9 -11 9q-10 -1 -17 -16q-2 -6 -5 -117q-87 0 -188 1q-9 120 -9 123
q-4 9 -11 9q-10 -1 -17 -16q-2 -6 -5 -116l-148 1l-41 10q-154 37 -187 54q-28 14 -38 0q-4 -6 -4 -8q0 -7 16 -26q16 -18 25 -62q1 -3 3 -10t2.5 -10t1 -10t-0.5 -16t-2 -22q-1 -11 -2.5 -35.5l-1.5 -24.5q3 0 20 13q11 8 22 15q4 -7 13 -18q16 -18 25 -62q1 -3 3 -10
t2.5 -10t1 -10t-0.5 -16t-2 -22q-1 -11 -2.5 -35.5l-1.5 -24.5q3 0 20 13q11 8 22 15q4 -7 13 -18q16 -18 25 -62q1 -3 3 -10t2.5 -10t1 -10t-0.5 -16t-2 -22q-1 -11 -2.5 -35.5l-1.5 -24.5q3 0 20 13q10 7 19 14v-1q0 -7 16 -26q16 -18 25 -62q1 -3 3 -10t2.5 -10t1 -10
t-0.5 -16t-2 -22q-1 -11 -2.5 -35.5l-1.5 -24.5q3 0 20 13q41 31 95 56q23 10 41 16t44 12t46 11q361 16 365 17q9 4 9 11q-1 9 -16 16q-4 2 -97.5 4t-185.5 3l-92 1l-41 10q-154 37 -187 54q-12 5 -21 6q23 14 55 29q23 10 41 16t44 12t46 11zM253 437q19 11 43 22
q23 10 41 16t44 12t46 11q10 3 23 7q-23 -87 -35 -117q-124 31 -153 46q-5 2 -9 3zM410 550l-41 10q-154 37 -187 54q-5 2 -9 3q19 11 43 22q23 10 41 16t44 12t46 11q52 2 130 3l-1 -71l-10 -41q-3 -12 -6 -23zM1429 754l-36 -23q-135 -82 -170 -94q-14 -5 -21 -12t-6 -14
t3 -9q5 -5 29 -7q25 -2 62 -26q3 -2 9 -5.5t8.5 -5.5t8 -6t11.5 -11t14 -18q21 -26 36 -41l-2 -212l-10 -41q-38 -154 -54 -187q-14 -28 -1 -38q7 -4 9 -4q7 0 25 16q19 16 63 25q3 1 9.5 2.5t10 2t10 1t16 0t22.5 -1.5q11 -1 35 -3t24 -1q0 3 -12 20q-31 41 -56 95
q-11 22 -16.5 40.5t-11.5 44.5t-12 46q-9 221 -14 319q1 1 1 2q9 24 17.5 41t23 39.5t23.5 40.5q29 49 30 53q5 9 -1 14q-7 7 -22 1q-5 -2 -18.5 -12.5t-24.5 -20.5zM1101 694q-83 -48 -108 -57q-3 -1 -5 -2q-1 1 -1 2q-1 23 -4 54q81 2 118 3zM695 368q17 8 43 13
q3 1 9.5 2.5t10 2t10 1t16 0t22.5 -1.5q11 -1 35 -3t24 -1q0 3 -12 20q-31 41 -56 95q-11 22 -16.5 40.5t-11.5 44.5t-12 46q-2 25 -4 60q106 2 184 3l-1 -70l-10 -41q-38 -154 -54 -187q-7 -15 -7 -26q-69 1 -170 2z" />
</svg>
