<?xml version="1.0" standalone="no"?>
<!DOCTYPE svg PUBLIC "-//W3C//DTD SVG 1.1//EN" "http://www.w3.org/Graphics/SVG/1.1/DTD/svg11.dtd" >
<svg xmlns="http://www.w3.org/2000/svg" xmlns:xlink="http://www.w3.org/1999/xlink" version="1.1" viewBox="0 0 1310 801">
   <path fill="currentColor"
d="M330 160l-41 10q-154 37 -187 54q-28 14 -38 0q-4 -6 -4 -8q0 -7 16 -26q16 -18 25 -62q1 -3 3 -10t2.5 -10t1 -10t-0.5 -16t-2 -22q-1 -11 -2.5 -35.5l-1.5 -24.5q3 0 20 13q41 31 95 56q23 10 41 16t44 12t46 11q617 12 757 16q-18 -63 -27 -82q-14 -28 -1 -38
q7 -4 9 -4q7 0 25 16q19 16 63 25q3 1 9.5 2.5t10 2t10 1t16 0t22.5 -1.5q11 -1 35 -3t24 -1q0 3 -12 20q-31 41 -56 95q-11 22 -16.5 40.5t-11.5 44.5t-12 46q-15 501 -16 505q-4 9 -11 9q-10 -1 -17 -16q-3 -7 -6 -353q-35 1 -124 2q-7 207 -8 209q-2 6 -6 6
q-6 -1 -10 -10q-2 -4 -4 -205l-52 1l-24 6q-93 23 -113 32q-17 9 -22 1q-3 -4 -3 -6q0 -4 10 -15q6 -7 10 -20l-26 2l-24 6q-93 23 -113 32q-17 9 -22 1q-3 -4 -3 -6q0 -4 10 -15t15 -37q4 -20 2 -41q0 -6 -1 -21l-1 -15q1 0 12 8q24 18 57 33q13 7 24 10.5t26.5 7t27.5 6.5
q12 4 22 6q4 -12 1 -35q0 -6 -1 -21l-1 -15q1 0 12 8q24 18 57 33q13 7 24 10.5t26.5 7t27.5 6.5q17 1 42 2v-76l-6 -25q-23 -92 -33 -112q-8 -17 0 -22q4 -3 5 -3q4 0 15 10q12 9 38 15q20 4 41 2q6 -1 20.5 -2t14.5 0t-7 12q-19 24 -34 56q-6 14 -9.5 25t-7 26.5
t-7.5 27.5q0 28 -2 67q87 4 124 6l-1 -143l-10 -41q-10 -42 -19 -76q-47 2 -242.5 3.5t-367.5 2.5zM347 658q44 1 111 3l-2 -111l-10 -41q-19 -76 -33 -124q-12 21 -26 51q-11 22 -16.5 40.5t-11.5 44.5t-12 46q-3 42 -6 90q3 1 6 1zM459 709q-67 1 -122 1q-6 80 -6 82
q-4 9 -11 9q-10 -1 -17 -16q-1 -4 -4 -68l-10 3q-154 37 -187 54q-28 14 -38 0q-4 -6 -4 -8q0 -7 16 -26q16 -18 25 -62q1 -3 3 -10t2.5 -10t1 -10t-0.5 -16t-2 -22q-1 -11 -2.5 -35.5l-1.5 -24.5q3 0 20 13q41 31 95 56q33 15 82 27l-2 -96l-10 -41q-38 -154 -54 -187
q-14 -28 -1 -38q7 -4 9 -4q7 0 25 16q19 16 63 25q3 1 9.5 2.5t9.5 2t9.5 1t15.5 0.5t22 -2q-1 -2 -2 -3q-14 -28 -1 -38q7 -4 9 -4q7 0 25 16q19 16 63 25q3 1 9.5 2.5t10 2t10 1t16 0t22.5 -1.5q11 -1 35 -3t24 -1q0 3 -12 20q-31 41 -56 95q-11 22 -16.5 40.5t-11.5 44.5
t-12 46q-3 45 -6 95q627 12 631 13q9 4 9 11q-1 9 -16 16q-7 4 -628 7q-6 81 -6 83q-4 9 -11 9q-10 -1 -17 -16q-2 -4 -4 -76z" />
</svg>
