<?xml version="1.0" standalone="no"?>
<!DOCTYPE svg PUBLIC "-//W3C//DTD SVG 1.1//EN" "http://www.w3.org/Graphics/SVG/1.1/DTD/svg11.dtd" >
<svg xmlns="http://www.w3.org/2000/svg" xmlns:xlink="http://www.w3.org/1999/xlink" version="1.1" viewBox="0 0 1560 801">
   <path fill="currentColor"
d="M347 658q43 1 111 2l-2 -110l-10 -41q-19 -76 -33 -124q-12 21 -26 51q-11 22 -16.5 40.5t-11.5 44.5t-12 46q-3 42 -6 90q3 1 6 1zM330 160l-41 10q-154 37 -187 54q-28 14 -38 0q-4 -6 -4 -8q0 -7 16 -26q16 -18 25 -62q1 -3 3 -10t2.5 -10t1 -10t-0.5 -16t-2 -22
q-1 -11 -2.5 -35.5l-1.5 -24.5q3 0 20 13q41 31 95 56q23 10 41 16t44 12t46 11q842 13 1007 16q-18 -63 -27 -82q-14 -28 -1 -38q7 -4 9 -4q7 0 25 16q19 16 63 25q3 1 9.5 2.5t10 2t10 1t16 0t22.5 -1.5q11 -1 35 -3t24 -1q0 3 -12 20q-31 41 -56 95q-11 22 -16.5 40.5
t-11.5 44.5t-12 46q-15 501 -16 505q-4 9 -11 9q-10 -1 -17 -16q-1 -4 -3 -133t-3 -255l-1 -127l-10 -41q-10 -42 -19 -76q-55 2 -313 3.5t-488 2.5zM702 598l-25 6q-92 23 -112 32q-17 9 -22 1q-3 -4 -3 -6q0 -4 10 -15q9 -11 15 -37q4 -20 2 -41q-1 -6 -2 -21t0 -15t12 8
q24 18 56 33q14 7 25 10.5t26.5 7t27.5 6.5q93 7 125 9l-6 -21q-16 -68 -26 -97l-103 2l-25 6q-92 23 -112 32q-17 9 -22 1q-3 -4 -3 -6q0 -4 10 -15q9 -11 15 -37q4 -20 2 -41v-4q-10 17 -20 40q-11 22 -16.5 40.5t-11.5 44.5t-12 46q-3 44 -6 94q184 3 338 5
q-1 -31 -1 -72zM712 429q46 3 84 6q-3 -10 3 -14q4 -3 5 -3q4 0 15 10q7 6 21 10l-3 -26l-6 -25q-22 -92 -32 -112q-8 -17 0 -22q4 -3 5 -3q4 0 15 10q12 9 38 15q20 4 41 2q6 -1 20.5 -2t14.5 0t-7 12q-19 24 -34 56q-6 14 -9.5 25t-7 26.5t-7.5 27.5q-3 12 -6 22
q13 3 36 1q6 -1 20.5 -2t14.5 0t-7 12q-19 24 -34 56q-6 14 -9.5 25t-7 26.5t-7.5 27.5q-2 40 -5 76q65 1 114 2l-2 -88l-6 -25q-22 -92 -32 -112q-8 -17 0 -22q4 -3 5 -3q4 0 15 10q7 6 21 10l-3 -26l-6 -25q-22 -92 -32 -112q-8 -17 0 -22q4 -3 5 -3q4 0 15 10q12 9 38 15
q20 4 41 2q6 -1 20.5 -2t14.5 0t-7 12q-19 24 -34 56q-6 14 -9.5 25t-7 26.5t-7.5 27.5q-3 12 -6 22q13 3 36 1q6 -1 20.5 -2t14.5 0t-7 12q-19 24 -34 56q-6 14 -9.5 25t-7 26.5t-7.5 27.5q-2 42 -5 78q59 1 114 2l-2 -90l-6 -25q-22 -92 -32 -112q-8 -17 0 -22q4 -3 5 -3
q4 0 15 10q7 6 21 10l-3 -26l-6 -25q-22 -92 -32 -112q-8 -17 0 -22q4 -3 5 -3q4 0 15 10q12 9 38 15q20 4 41 2q6 -1 20.5 -2t14.5 0t-7 12q-19 24 -34 56q-6 14 -9.5 25t-7 26.5t-7.5 27.5q-3 12 -6 22q13 3 36 1q6 -1 20.5 -2t14.5 0t-7 12q-19 24 -34 56q-6 14 -9.5 25
t-7 26.5t-7.5 27.5q-3 43 -5 81q80 1 133 2l-3 -93l-6 -25q-22 -92 -32 -112q-8 -17 0 -22q4 -3 5 -3q4 0 15 10q7 6 21 10l-3 -26l-6 -25q-22 -92 -32 -112q-8 -17 0 -22q4 -3 5 -3q4 0 15 10q12 9 38 15q20 4 41 2q6 -1 20.5 -2t14.5 0t-7 12q-19 24 -34 56q-6 14 -9.5 25
t-7 26.5t-7.5 27.5q-3 12 -6 22q13 3 36 1q6 -1 20.5 -2t14.5 0t-7 12q-19 24 -34 56q-6 14 -9.5 25t-7 26.5t-7.5 27.5q-3 45 -5 83q86 2 87 2q9 4 9 11q-1 9 -16 16q-2 1 -83 2q-1 20 -2 21q-2 6 -6 6q-6 -1 -10 -10q-1 -1 -1 -16q-54 0 -137 1q-1 18 -2 19q-2 6 -6 6
q-6 -1 -10 -10q-1 -1 -1 -15q-54 0 -119 1q-1 17 -2 18q-2 6 -6 6q-6 -1 -10 -10q-1 -1 -1 -14q-57 0 -119 1q-1 16 -2 17q-2 6 -6 6q-6 -1 -10 -10q-1 -1 -1 -13q-158 1 -344 1q-6 81 -6 83q-4 9 -11 9q-10 -1 -17 -16q-2 -4 -4 -76q-70 1 -122 1q-6 80 -6 82q-4 9 -11 9
q-10 -1 -17 -16q-1 -4 -4 -68l-10 3q-154 37 -187 54q-28 14 -38 0q-4 -6 -4 -8q0 -7 16 -26q16 -18 25 -62q1 -3 3 -10t2.5 -10t1 -10t-0.5 -16t-2 -22q-1 -11 -2.5 -35.5l-1.5 -24.5q3 0 20 13q41 31 95 56q33 15 82 27l-2 -96l-10 -41q-38 -154 -54 -187q-14 -28 -1 -38
q7 -4 9 -4q7 0 25 16q19 16 63 25q3 1 9.5 2.5t9.5 2t9.5 1t15.5 0.5t22 -2q-1 -2 -2 -3q-14 -28 -1 -38q7 -4 9 -4q7 0 25 16q19 16 63 25q3 1 9.5 2.5t10 2t10 1t16 0t22.5 -1.5q11 -1 35 -3t24 -1q0 3 -12 20q-13 17 -23 33q23 17 53 31q14 7 25 10.5t26.5 7t27.5 6.5z
" />
</svg>
