<?xml version="1.0" standalone="no"?>
<!DOCTYPE svg PUBLIC "-//W3C//DTD SVG 1.1//EN" "http://www.w3.org/Graphics/SVG/1.1/DTD/svg11.dtd" >
<svg xmlns="http://www.w3.org/2000/svg" xmlns:xlink="http://www.w3.org/1999/xlink" version="1.1" viewBox="0 0 702 639">
   <path fill="currentColor"
d="M494 476l-36 -22q-135 -82 -170 -94q-14 -5 -21 -12t-6 -14.5t3 -8.5q5 -5 29 -7q16 -1 37 -12l-37 -31l-37 -23q-135 -82 -170 -94q-14 -5 -21 -12t-6 -14t3 -9q5 -5 29 -7q25 -2 62 -26q3 -2 9 -5.5t8.5 -5.5t8 -6t11.5 -11t14 -18q7 -8 23 -26.5t17 -17.5q1 2 4 23
q8 51 28 106q9 24 18 41t23 39.5t24 40.5q12 22 21 38q20 -12 44 -42q7 -8 23 -26.5t17 -17.5t4 22q8 51 28 107q9 24 17.5 41t23 39.5t23.5 40.5q146 167 148 170q4 9 -1 14q-7 7 -23 1q-4 -2 -47 -42t-84 -79z" />
</svg>
