<?xml version="1.0" standalone="no"?>
<!DOCTYPE svg PUBLIC "-//W3C//DTD SVG 1.1//EN" "http://www.w3.org/Graphics/SVG/1.1/DTD/svg11.dtd" >
<svg xmlns="http://www.w3.org/2000/svg" xmlns:xlink="http://www.w3.org/1999/xlink" version="1.1" viewBox="0 0 1110 930">
   <path fill="currentColor"
d="M1052 4q3 -4 10.5 -4.5t13 2.5t4.5 9q-4 15 -38 77.5t-49 113.5q-16 51 5 115t60 116q19 25 32 62.5t8 42.5q-2 2 -5.5 -1.5t-8 -10.5t-9.5 -16q-18 -34 -68 -86q-35 -36 -62.5 -55t-97.5 -56q-17 -9 -26 -17l-491 6l-41 10q-154 37 -187 54q-28 14 -38 0q-4 -6 -4 -8
q0 -7 16 -26q16 -18 25 -62q1 -3 3 -10t2.5 -10t1 -10t-0.5 -16t-2 -22q-1 -11 -2.5 -35.5l-1.5 -24.5q3 0 20 13q41 31 95 56q23 10 41 16t44 12t46 11q353 11 468 15q7 -8 25 -15q7 -3 26 -17.5t36 -29t37.5 -31.5t22.5 -19q16 -14 39.5 -65t50.5 -84zM510 859l-41 10
q-154 37 -187 54q-28 14 -38 0q-4 -6 -4 -8q0 -7 16 -26q16 -18 25 -62q1 -3 3 -10t2.5 -10t1 -10t-0.5 -16t-2 -22q0 -5 -1 -17q-1 0 -2 1q-28 14 -38 0q-4 -6 -4 -8q0 -7 16 -26q16 -18 25 -62q1 -3 3 -10t2.5 -10t1 -10t-0.5 -16t-2 -22q0 -5 -1 -17q-1 0 -2 1
q-28 14 -38 0q-4 -6 -4 -8q0 -7 16 -26q16 -18 25 -62q1 -3 3 -10t2.5 -10t1 -10t-0.5 -16t-2 -22q-1 -11 -2.5 -35.5l-1.5 -24.5q3 0 20 13q41 31 95 56q23 10 41 16t44 12t46 11q501 16 505 17q9 4 9 11q-1 9 -16 16q-4 2 -132.5 4t-255.5 3l-127 1l-41 10q-95 23 -146 39
q30 20 73 40q23 10 41 16t44 12t46 11q501 16 505 17q9 4 9 11q-1 9 -16 16q-4 2 -132.5 4t-255.5 3l-127 1l-41 10q-95 23 -146 39q30 20 73 40q23 10 41 16t44 12t46 11q501 16 505 17q9 4 9 11q-1 9 -16 16q-4 2 -132.5 4t-255.5 3zM953 212q2 -2 3 -4q-2 1 -3 4z" />
</svg>
