<?xml version="1.0" standalone="no"?>
<!DOCTYPE svg PUBLIC "-//W3C//DTD SVG 1.1//EN" "http://www.w3.org/Graphics/SVG/1.1/DTD/svg11.dtd" >
<svg xmlns="http://www.w3.org/2000/svg" xmlns:xlink="http://www.w3.org/1999/xlink" version="1.1" viewBox="0 0 2371 801">
   <path fill="currentColor"
d="M1847 650q-13 2 -20.5 -7.5t-6.5 -18.5q1 -4 2 -7l-19 -16l-37 -22q-135 -83 -170 -95q-14 -4 -21 -11t-6 -14.5t3 -9.5q5 -5 29 -7q25 -1 62 -26q3 -2 9 -5.5t8.5 -5t8 -6t11.5 -11.5t14 -17q7 -9 23 -27.5t17 -17.5q1 2 4 23q8 51 28 106q9 24 17.5 41t23 39.5
t24.5 40.5l14 26q16 -9 44.5 -30.5t66.5 -51.5t47 -37l-4 -2q-4 -1 -17.5 -12t-24.5 -21l-12 -10l-36 -22q-135 -83 -170 -94q-14 -5 -21.5 -12t-6 -14.5t3.5 -9.5q5 -5 29 -6q25 -2 62 -26q3 -2 9 -5.5t8.5 -5.5t7.5 -6.5t11 -11.5t15 -17q7 -8 23 -26.5l16 -18.5q2 2 5 23
q7 51 28 107q8 23 17 40t23 39.5t24 40.5q28 50 30 54l1 1q17 -13 62 -55.5t64 -66.5q7 -8 21 -25q-4 0 -9 -2q-4 -2 -17.5 -13t-25.5 -21l-11 -10l-36 -22q-136 -82 -171 -94q-13 -5 -20.5 -12t-6 -14.5t2.5 -8.5q5 -5 29 -7q25 -2 63 -26q3 -2 8.5 -5.5t8 -5.5t8 -6.5
t11.5 -11t14 -17.5q7 -8 23 -26.5t17 -17.5q2 1 5 22q7 51 27 107q9 24 18 41t23 39.5t24 40.5q28 49 30 53v1q3 -4 4 -4q3 3 4 23q20 241 144 457q5 9 -1 14q-4 4 -10.5 5t-12.5 -4q-35 -44 -136.5 -81t-200.5 -53.5t-150 -11.5zM1167 650q-13 2 -20.5 -7.5t-6.5 -18.5
q1 -4 2 -7l-19 -16l-37 -22q-135 -83 -170 -95q-14 -4 -21 -11t-6 -14.5t3 -9.5q5 -5 29 -7q25 -1 62 -26q3 -2 9 -5.5t8.5 -5t8 -6t11.5 -11.5t14 -17q7 -9 23 -27.5t17 -17.5q1 2 4 23q8 51 28 106q9 24 17.5 41t23 39.5t24.5 40.5l14 26q16 -9 44.5 -30.5t66.5 -51.5
t47 -37l-4 -2q-4 -1 -17.5 -12t-24.5 -21l-12 -10l-36 -22q-135 -83 -170 -94q-14 -5 -21.5 -12t-6 -14.5t3.5 -9.5q5 -5 29 -6q25 -2 62 -26q3 -2 9 -5.5t8.5 -5.5t7.5 -6.5t11 -11.5t15 -17q7 -8 23 -26.5l16 -18.5q2 2 5 23q7 51 28 107q8 23 17 40t23 39.5t24 40.5
q28 50 30 54l1 1q17 -13 62 -55.5t64 -66.5q7 -8 21 -25q-4 0 -9 -2q-4 -2 -17.5 -13t-25.5 -21l-11 -10l-36 -22q-136 -82 -171 -94q-13 -5 -20.5 -12t-6 -14.5t2.5 -8.5q5 -5 29 -7q25 -2 63 -26q3 -2 8.5 -5.5t8 -5.5t8 -6.5t11.5 -11t14 -17.5q7 -8 23 -26.5t17 -17.5
q2 1 5 22q7 51 27 107q9 24 18 41t23 39.5t24 40.5q28 49 30 53v1q3 -4 4 -4q3 3 4 23q20 241 144 457q5 9 -1 14q-4 4 -10.5 5t-12.5 -4q-35 -44 -136.5 -81t-200.5 -53.5t-150 -11.5zM297 338l-37 -22q-135 -82 -170 -94q-14 -5 -21 -12t-6 -14.5t3 -8.5q5 -5 29 -7
q25 -2 62 -26q3 -2 9 -5.5t8.5 -5.5t8 -6.5t11.5 -11t14 -17.5q7 -8 23 -26.5t17 -17.5t4 22q8 51 28 107q9 24 18 41t23 39.5t24 40.5q82 94 124 143q43 3 69 5q-28 -113 -42 -140q-14 -28 0 -38q6 -4 8 -4q7 0 26 16q12 10 34 18l-4 -44l-10 -41q-37 -154 -54 -187
q-14 -28 0 -38q6 -4 8 -4q7 0 26 16q18 16 62 25q3 1 10 2.5t10 2t10 1t16 0t22 -1.5q11 -1 35.5 -3t24.5 -1q0 3 -13 20q-31 41 -56 95q-10 22 -16 40.5t-12 44.5t-11 46q-6 20 -11 37q22 5 59 1q11 -1 35.5 -3t24.5 -1q0 3 -13 20q-31 41 -56 95q-10 22 -16 40.5t-12 44.5
t-11 46q-16 221 -17 225q-4 9 -11 9q-9 -1 -16 -16q-2 -4 -4 -63t-3 -115l-1 -57l-10 -41q-2 -8 -3 -15q-20 1 -55 2q0 1 -1 2q-7 7 -23 1l-2 -2l-131 3l-42 10q-154 37 -187 54q-28 14 -37 0q-5 -6 -5 -8q0 -7 16 -26q17 -18 26 -62q1 -3 2.5 -10t2 -10t1 -10t0 -16
t-2.5 -22q-1 -11 -2.5 -35.5t-0.5 -24.5q2 0 19 13q41 31 95 56q23 10 41.5 16t44 12t45.5 11q29 2 66 5zM790 550l-10 -41q-37 -154 -54 -187q-14 -28 0 -38q6 -4 8 -4q7 0 26 16q12 10 34 18l-4 -44l-10 -41q-37 -154 -54 -187q-14 -28 0 -38q6 -4 8 -4q7 0 26 16
q18 16 62 25q3 1 10 2.5t10 2t10 1t16 0t22 -1.5q11 -1 35.5 -3t24.5 -1q0 3 -13 20q-31 41 -56 95q-10 22 -16 40.5t-12 44.5t-11 46q-6 20 -11 37q22 5 59 1q11 -1 35.5 -3t24.5 -1q0 3 -13 20q-31 41 -56 95q-10 22 -16 40.5t-12 44.5t-11 46q-16 221 -17 225q-4 9 -11 9
q-9 -1 -16 -16q-2 -4 -4 -63t-3 -115z" />
</svg>
