<?xml version="1.0" standalone="no"?>
<!DOCTYPE svg PUBLIC "-//W3C//DTD SVG 1.1//EN" "http://www.w3.org/Graphics/SVG/1.1/DTD/svg11.dtd" >
<svg xmlns="http://www.w3.org/2000/svg" xmlns:xlink="http://www.w3.org/1999/xlink" version="1.1" viewBox="0 0 1400 801">
   <path fill="currentColor"
d="M381 55q8 -9 17.5 -5.5t6.5 14.5q-5 20 -26.5 59t-48 91.5t-41.5 104.5q-20 69 7.5 153.5t79.5 153.5q27 36 50 85.5t16 56.5q-1 1 -6 -3.5t-11.5 -14t-12.5 -21.5q-10 -18 -36.5 -51.5t-53.5 -62.5q-47 -48 -83.5 -73.5t-130.5 -74.5q-19 -10 -31 -20.5t-16 -21.5t5 -22
t32 -20q11 -4 36 -23.5t48 -38.5t49.5 -42t30.5 -26q18 -15 33 -46t36.5 -74t49.5 -78zM1230 270l-10 -41q-10 -41 -18 -75q-49 3 -181 5q-4 12 -37 74t-48 111q-15 51 6 115t60 116q19 25 32 62.5t7 42.5v1q187 13 190 14t4 2zM1282 287q-15 501 -17 505q-3 9 -10 9
q-10 -1 -17 -16q-1 -3 -2 -70q-5 4 -11 7q-4 2 -63 4t-115 3l-57 1l-41 10q-154 37 -187 54q-28 14 -38 0q-4 -6 -4 -8q0 -7 16 -26q16 -18 25 -62q1 -3 2.5 -10t2 -10t1 -10t0 -16t-1.5 -22q-1 -11 -3 -35.5t-1 -24.5q3 0 20 13q41 31 94 56q23 10 41.5 16t44.5 12t45 11
q14 1 34 3q-7 -2 -21 -29q-18 -34 -68 -86q-35 -36 -62.5 -55t-98.5 -56q-14 -8 -22.5 -15.5t-12 -15.5t3.5 -16.5t24 -15.5q8 -3 27 -17.5t36 -29t37 -31.5t23 -19q16 -14 37.5 -60.5t40.5 -73.5l-35 9q-154 37 -187 54q-28 14 -38 0q-4 -6 -4 -8q0 -7 16 -26
q16 -18 25 -62q1 -3 2.5 -10t2 -10t1 -10t0 -16t-1.5 -22q-1 -11 -3 -35.5t-1 -24.5q3 0 20 13q41 31 94 56q23 10 41.5 16t44.5 12t45 11q123 9 187 14q-17 -61 -26 -80q-14 -28 -1 -38q6 -4 9 -4q7 0 25 16q19 16 62 25q4 1 10.5 2.5t9.5 2t10 1t16 0t23 -1.5
q10 -1 34.5 -3t24.5 -1q0 3 -13 20q-30 41 -55 95q-11 22 -16.5 40.5t-11.5 44.5t-12 46zM897 354q1 -2 3 -4q-2 1 -3 4zM675 580l-41 10q-154 37 -187 54q-28 14 -38 0q-4 -6 -4 -8q0 -7 16 -26q16 -18 25 -62q1 -3 2.5 -10t2 -10t1 -10t0 -16t-1.5 -22q-1 -11 -3 -35.5
t-1 -24.5q3 0 20 13q41 31 94 56q23 10 41.5 16t44.5 12t45 11q56 16 60 17q9 4 9 11q-1 9 -16 16q-4 2 -21.5 4t-32.5 3zM675 350l-41 10q-154 37 -187 54q-28 14 -38 0q-4 -6 -4 -8q0 -7 16 -26q16 -18 25 -62q1 -3 2.5 -10t2 -10t1 -10t0 -16t-1.5 -22q-1 -11 -3 -35.5
t-1 -24.5q3 0 20 13q41 31 94 56q23 10 41.5 16t44.5 12t45 11q56 16 60 17q9 4 9 11q-1 9 -16 16q-4 2 -21.5 4t-32.5 3zM253 315q0 -1 1 -1q-1 0 -1 1z" />
</svg>
