<?xml version="1.0" standalone="no"?>
<!DOCTYPE svg PUBLIC "-//W3C//DTD SVG 1.1//EN" "http://www.w3.org/Graphics/SVG/1.1/DTD/svg11.dtd" >
<svg xmlns="http://www.w3.org/2000/svg" xmlns:xlink="http://www.w3.org/1999/xlink" version="1.1" viewBox="0 0 1509 1059">
   <path fill="currentColor"
d="M1451 4q3 -4 10.5 -4.5t13 2.5t4.5 9q-4 15 -38 77.5t-49 113.5q-16 51 5 115t60 116q19 25 32 62.5t8 42.5q-2 2 -5.5 -1.5t-8 -10.5t-9.5 -16q-18 -34 -68 -86q-35 -36 -62.5 -55t-97.5 -56q-14 -7 -22 -14l-210 5l-41 10q-154 37 -187 54q-28 14 -38 0q-4 -6 -4 -8
q0 -7 16 -26q16 -18 25 -62q1 -3 3 -10t2.5 -10t1 -10t-0.5 -16t-2 -22q-1 -11 -2.5 -35.5l-1.5 -24.5q3 0 20 13q41 31 95 56q23 10 41 16t44 12t46 11q118 9 183 14q7 -9 25 -16q8 -3 27 -17.5t35.5 -29t37 -31.5t22.5 -19q16 -14 39.5 -65t50.5 -84zM1451 524
q3 -4 10.5 -4.5t13 2.5t4.5 9q-4 15 -38 77.5t-49 113.5q-16 51 5 115t60 116q19 25 32 62.5t8 42.5q-2 2 -5.5 -1.5t-8 -10.5t-9.5 -16q-18 -34 -68 -86q-35 -36 -62.5 -55t-97.5 -56q-14 -7 -22 -14l-210 5l-41 10q-154 37 -187 54q-28 14 -38 0q-4 -6 -4 -8q0 -7 16 -26
q16 -18 25 -62q1 -3 3 -10t2.5 -10t1 -10t-0.5 -16t-2 -22q-1 -11 -2.5 -35.5l-1.5 -24.5q3 0 20 13q41 31 95 56q23 10 41 16t44 12t46 11q118 9 183 14q7 -9 25 -16q8 -3 27 -17.5t35.5 -29t37 -31.5t22.5 -19q16 -14 39.5 -65t50.5 -84zM677 149q7 -9 16.5 -5.5t6.5 14.5
q-5 20 -26.5 59t-47.5 91.5t-42 104.5q-20 69 7.5 153.5t80.5 153.5q27 36 50 85.5t16 56.5q-2 1 -7 -3.5t-11 -14t-13 -21.5q-10 -18 -36.5 -51.5t-53.5 -62.5q-47 -48 -83.5 -73.5t-130.5 -74.5q-19 -10 -30.5 -20.5t-16 -21.5t4.5 -22t33 -20q10 -4 35.5 -23.5t48 -38.5
t49.5 -42t30 -26q18 -15 33 -46t36.5 -74t50.5 -78zM1051 712l-22 -13q-81 -49 -102 -57q-18 -6 -16 -15q1 -5 2 -6q3 -3 17 -4q15 -1 38 -15q1 -1 4.5 -3.5t5 -3.5t5 -3.5t7 -7t8.5 -10.5q4 -5 13.5 -16t10.5 -11q1 2 3 14q4 31 16 64q5 14 10.5 24.5t14 24t14.5 23.5
q17 30 18 33q2 5 -1 8q-4 4 -13 0q-3 -1 -11 -7.5t-15 -12.5zM1149 615l-22 -14q-81 -49 -102 -56q-18 -6 -16 -16q0 -4 1 -5q3 -3 18 -4q9 -1 22 -7l-20 -17l-22 -13q-81 -50 -102 -57q-18 -6 -16 -16q1 -4 2 -5q3 -3 17 -4q15 -1 37 -16q2 -1 5.5 -3t5 -3t4.5 -4l7 -7
t9 -10q4 -5 13.5 -16t10.5 -11q1 1 2 14q5 30 17 64q5 14 10.5 24t14 23.5t14.5 24.5t11 20q11 -7 26 -24q4 -5 13.5 -16l9.5 -11q1 1 3 14q5 30 17 63q5 15 10.5 25t14 23.5t13.5 24.5q17 30 18 32q3 5 0 8q-4 4 -14 1q-2 -1 -10.5 -7.5t-14.5 -12.5zM1246 517l-22 -13
q-81 -50 -102 -57q-17 -6 -16 -15q1 -5 2 -6q3 -3 17 -4q15 -1 38 -15q2 -2 5.5 -4t5 -3t4.5 -3.5t6.5 -7t8.5 -10.5q4 -5 14 -16l10 -11q1 1 3 14q4 31 16 64q5 14 10.5 24t14 23.5t14.5 24.5q17 30 18 32q3 6 -1 9q-4 4 -13 0q-3 -1 -11 -7.5t-15 -12.5zM1352 212
q2 -2 3 -4q-2 1 -3 4zM1352 732q2 -2 3 -4q-2 1 -3 4zM548 409q0 -1 1 -1q-1 0 -1 1zM330 309l-41 10q-154 37 -187 54q-28 14 -38 0q-4 -6 -4 -8q0 -7 16 -26q16 -18 25 -62q1 -3 3 -10t2.5 -10t1 -10t-0.5 -16t-2 -22q-1 -11 -2.5 -35.5l-1.5 -24.5q3 0 20 13q41 31 95 56
q23 10 41 16t44 12t46 11q221 16 225 17q9 4 9 11q-1 9 -16 16q-4 2 -62.5 4t-115.5 3zM330 769l-41 10q-154 37 -187 54q-28 14 -38 0q-4 -6 -4 -8q0 -7 16 -26q16 -18 25 -62q1 -3 3 -10t2.5 -10t1 -10t-0.5 -16t-2 -22q-1 -11 -2.5 -35.5l-1.5 -24.5q3 0 20 13
q41 31 95 56q23 10 41 16t44 12t46 11q221 16 225 17q9 4 9 11q-1 9 -16 16q-4 2 -62.5 4t-115.5 3z" />
</svg>
