<?xml version="1.0" standalone="no"?>
<!DOCTYPE svg PUBLIC "-//W3C//DTD SVG 1.1//EN" "http://www.w3.org/Graphics/SVG/1.1/DTD/svg11.dtd" >
<svg xmlns="http://www.w3.org/2000/svg" xmlns:xlink="http://www.w3.org/1999/xlink" version="1.1" viewBox="0 0 1368 1024">
   <path fill="currentColor"
d="M655 774l-41 -12q-152 -45 -189 -47q-31 -2 -33 -19q-1 -7 1 -9q3 -6 26 -14q24 -8 53 -41q3 -3 7.5 -8t6.5 -7.5t6 -8t8 -14t10 -20.5q2 -5 8 -19l-191 -104l-41 -12q-152 -44 -189 -47q-31 -2 -33 -18q-1 -7 1 -9q3 -6 26 -14q24 -8 53 -42q3 -2 7.5 -7t6.5 -7.5t6 -8
t8 -14t10 -20.5q4 -10 15 -32t11 -21q2 1 11 20q20 48 54 96q14 21 27.5 35t32.5 32t34 33q117 79 165 112l4 -6q2 1 8 14q9 6 9 7q6 8 3 14l-2 2q17 37 47 79q14 21 27 35t32.5 32t33.5 33q427 264 430 267q6 8 2 14q-5 8 -22 6q-4 0 -116.5 -62.5t-222.5 -125.5zM885 375
l-41 -12q-152 -44 -189 -47q-31 -2 -33 -18q-1 -8 1 -10q3 -6 26 -14q24 -8 53 -41q3 -2 7.5 -7t6.5 -7.5t6 -8.5t8 -14l10 -20q4 -10 14.5 -32t11.5 -21q2 1 11 20q20 48 54 96q14 21 27 35t32.5 32t33.5 33q427 264 430 267q6 7 2 13q-5 9 -22 7q-4 0 -116.5 -63
t-222.5 -125zM442 252l-41 -12q-152 -44 -189 -47q-31 -2 -33 -18q-1 -7 1 -10q3 -6 26 -14q24 -8 53 -41q3 -2 7.5 -7t6.5 -7.5t6 -8.5t8 -14l10 -20q4 -10 15 -32t11 -21q2 1 11 20q20 48 54 96q14 21 27.5 35t32.5 32t34 33q117 79 165 112l4 -6q2 1 8 14q9 6 9 7
q6 7 3 14l-2 2q17 37 47 79q14 21 27 35t32.5 32t33.5 33l31 31q16 -17 31 -52q5 -9 15.5 -31t11.5 -22q2 1 10 21q21 47 55 96q14 20 27 34.5t32.5 32.5t33.5 32q184 124 187 127q6 8 2 14q-5 8 -21 7q-5 -1 -57 -28.5t-101 -55.5l-50 -27l-40 -12q-152 -45 -189 -47
q-32 -2 -33 -18q-1 -8 0 -10q4 -6 27 -14q15 -5 33 -21l-44 -21l-41 -12q-152 -44 -189 -47q-31 -2 -33 -18q-1 -7 1 -9q3 -6 26 -14q24 -9 53 -42q3 -2 7.5 -7t6.5 -7.5t6 -8t8 -14t10 -20.5q2 -5 8 -19z" />
</svg>
