<?xml version="1.0" standalone="no"?>
<!DOCTYPE svg PUBLIC "-//W3C//DTD SVG 1.1//EN" "http://www.w3.org/Graphics/SVG/1.1/DTD/svg11.dtd" >
<svg xmlns="http://www.w3.org/2000/svg" xmlns:xlink="http://www.w3.org/1999/xlink" version="1.1" viewBox="0 0 2045 801">
   <path fill="currentColor"
d="M381 55q8 -9 17.5 -5.5t6.5 14.5q-5 20 -26.5 59t-48 91.5t-41.5 104.5q-20 69 7.5 153.5t79.5 153.5q27 36 50 85.5t16 56.5q-1 1 -6 -3.5t-11.5 -14t-12.5 -21.5q-10 -18 -36.5 -51.5t-53.5 -62.5q-47 -48 -83.5 -73.5t-130.5 -74.5q-19 -10 -31 -20.5t-16 -21.5t5 -22
t32 -20q11 -4 36 -23.5t48 -38.5t49.5 -42t30.5 -26q18 -15 33 -46t36.5 -74t49.5 -78zM1772 55q8 -9 17.5 -5.5t6.5 14.5q-5 20 -26.5 59t-48 91.5t-41.5 104.5q-20 69 7.5 153.5t79.5 153.5q27 36 50 85.5t16 56.5q-1 1 -6 -3.5t-11.5 -14t-12.5 -21.5
q-10 -18 -36.5 -51.5t-53.5 -62.5q-47 -48 -83.5 -73.5t-130.5 -74.5q-19 -10 -31 -20.5t-16 -21.5t5 -22t32 -20q11 -4 36 -23.5t48 -38.5t49.5 -42t30.5 -26q18 -15 33 -46t36.5 -74t49.5 -78zM820 445l-41 10q-154 37 -187 54q-28 14 -38 0q-4 -6 -4 -8q0 -7 16 -26
q16 -18 25 -62q1 -3 2.5 -10t2 -10t1 -10t0 -16t-1.5 -22q-1 -11 -3 -35.5t-1 -24.5q3 0 20 13q41 31 94 56q23 10 41.5 16t44.5 12t45 11q21 6 37 11q6 -22 2 -59q-1 -11 -3 -35.5t-1 -24.5q3 0 20 13q41 31 94 56q23 10 41.5 16t44.5 12t45 11q23 7 41 12l-2 -135l-10 -41
q-37 -154 -53 -187q-14 -28 -1 -38q6 -4 9 -4q7 0 25 16q19 16 62 25q4 1 10.5 2.5t9.5 2t10 1t16 0t23 -1.5q10 -1 34.5 -3t24.5 -1q0 3 -13 20q-30 41 -55 95q-11 22 -16.5 40.5t-11.5 44.5t-12 46q-15 501 -17 505q-3 9 -10 9q-10 -1 -17 -16q-3 -7 -6 -345l-57 5l-41 10
q-154 37 -187 54q-28 14 -38 0q-4 -6 -4 -8q0 -7 16 -26q10 -12 18 -34zM480 270l-10 -41q-37 -154 -53 -187q-14 -28 -1 -38q6 -4 9 -4q7 0 25 16q19 16 62 25q4 1 10.5 2.5t9.5 2t10 1t16 0t23 -1.5q10 -1 34.5 -3t24.5 -1q0 3 -13 20q-30 41 -55 95q-11 22 -16.5 40.5
t-11.5 44.5t-12 46q-15 501 -17 505q-3 9 -10 9q-10 -1 -17 -16q-2 -4 -4 -133t-3 -255zM253 315q0 -1 1 -1q-1 0 -1 1zM1385 270l-10 -41q-37 -154 -53 -187q-14 -28 -1 -38q6 -4 9 -4q7 0 25 16q19 16 62 25q4 1 10.5 2.5t9.5 2t10 1t16 0t23 -1.5q10 -1 34.5 -3t24.5 -1
q0 3 -13 20q-30 41 -55 95q-11 22 -16.5 40.5t-11.5 44.5t-12 46q-15 501 -17 505q-3 9 -10 9q-10 -1 -17 -16q-2 -4 -4 -133t-3 -255zM1644 315q0 -1 1 -1q-1 0 -1 1zM1875 270l-10 -41q-37 -154 -53 -187q-14 -28 -1 -38q6 -4 9 -4q7 0 25 16q19 16 62 25q4 1 10.5 2.5
t9.5 2t10 1t16 0t23 -1.5q10 -1 34.5 -3t24.5 -1q0 3 -13 20q-30 41 -55 95q-11 22 -16.5 40.5t-11.5 44.5t-12 46q-15 501 -17 505q-3 9 -10 9q-10 -1 -17 -16q-2 -4 -4 -133t-3 -255z" />
</svg>
