<?xml version="1.0" standalone="no"?>
<!DOCTYPE svg PUBLIC "-//W3C//DTD SVG 1.1//EN" "http://www.w3.org/Graphics/SVG/1.1/DTD/svg11.dtd" >
<svg xmlns="http://www.w3.org/2000/svg" xmlns:xlink="http://www.w3.org/1999/xlink" version="1.1" viewBox="0 0 1222 930">
   <path fill="currentColor"
d="M772 4q3 -4 10.5 -4.5t13 2.5t4.5 9q-4 15 -38 77.5t-49 113.5q-16 51 5 115t60 116q9 11 17 27q59 2 82 3l-1 -159l-10 -41q-38 -154 -54 -187q-14 -28 -1 -38q7 -4 9 -4q7 0 25 16q19 16 63 25q3 1 9.5 2.5t10 2t10 1t16 0t22.5 -1.5q11 -1 35 -3t24 -1q0 3 -12 20
q-31 41 -56 95q-11 22 -16.5 40.5t-11.5 44.5t-12 46q-11 356 -15 470q58 14 66 16q221 16 225 17q9 4 9 11q-1 9 -16 16q-4 2 -62.5 4t-115.5 3l-57 1l-41 10q-154 37 -187 54q-28 14 -38 0q-4 -6 -4 -8q0 -7 16 -26q11 -12 19 -36l-356 6l-41 10q-154 37 -187 54
q-28 14 -38 0q-4 -6 -4 -8q0 -7 16 -26q16 -18 26 -62q0 -3 2 -10t2.5 -10t1 -10t0 -16t-2.5 -22q0 -5 -1 -17q-1 0 -2 1q-28 14 -38 0q-4 -6 -4 -8q0 -7 16 -26q16 -18 26 -62q0 -3 2 -10t2.5 -10t1 -10t0 -16t-2.5 -22q0 -5 -1 -17q-1 0 -2 1q-28 14 -38 0q-4 -6 -4 -8
q0 -7 16 -26q16 -18 26 -62q0 -3 2 -10t2.5 -10t1 -10t0 -16t-2.5 -22q-2 -18 -3 -44q-25 7 -35 13q-28 14 -38 0q-4 -6 -4 -8q0 -7 16 -26q16 -18 25 -62q1 -3 3 -10t2.5 -10t1 -10t-0.5 -16t-2 -22q-1 -11 -2.5 -35.5l-1.5 -24.5q3 0 20 13q41 31 95 56q23 10 41 16t44 12
t46 11q118 9 183 14q7 -9 25 -16q8 -3 27 -17.5t35.5 -29t37 -31.5t22.5 -19q16 -14 39.5 -65t50.5 -84zM387 807q272 12 346 16q4 -17 4.5 -22.5t-1.5 -41.5q-1 -11 -2.5 -35.5l-1.5 -24.5q3 0 20 13q41 31 95 56q18 8 35 14q-1 -37 -3 -110q-25 2 -152.5 3.5t-241.5 2.5
l-115 1l-41 10q-95 23 -146 39q30 20 73 40q23 10 41 16t44 12t46 11zM387 627q414 13 492 16q-1 -65 -2 -151q-16 1 -67 2q14 38 8 44q-2 2 -5.5 -1.5t-8 -10.5t-9.5 -16q-3 -6 -10 -16l-415 5l-41 10q-95 23 -146 39q30 20 73 40q23 10 41 16t44 12t46 11zM387 447
q222 7 371 12q-16 -19 -31 -35q-35 -36 -62.5 -55t-97.5 -56q-14 -7 -22 -14l-210 5l-41 10q-86 21 -136 36q1 1 3 2q41 31 95 56q23 10 41 16t44 12t46 11zM673 212q2 -2 3 -4q-2 1 -3 4z" />
</svg>
