<?xml version="1.0" standalone="no"?>
<!DOCTYPE svg PUBLIC "-//W3C//DTD SVG 1.1//EN" "http://www.w3.org/Graphics/SVG/1.1/DTD/svg11.dtd" >
<svg xmlns="http://www.w3.org/2000/svg" xmlns:xlink="http://www.w3.org/1999/xlink" version="1.1" viewBox="0 0 2866 889">
   <path fill="currentColor"
d="M2697 270l-10 -41q-3 -13 -6 -25l-215 6l-41 10q-117 28 -165 45q39 29 92 54q23 10 41 16t44 12t46 11q171 12 215 16zM2748 287q-15 501 -16 505q-4 9 -11 9q-1 0 -2 -1q-4 6 -13 10t-1045 8l-41 10q-154 37 -187 54q-28 14 -38 0q-4 -6 -4 -8q0 -7 16 -26
q16 -18 26 -62q0 -3 2 -10t2.5 -10t1 -10t0 -16t-2.5 -22q-1 -11 -2.5 -35.5t-0.5 -24.5q2 0 19 13q41 31 95 56q31 14 66 23l-6 -480l-10 -41q-38 -154 -54 -187q-14 -28 -1 -38q7 -4 9 -4q7 0 25 16q19 16 63 25q3 1 9.5 2.5t10 2t10 1t16 0t22.5 -1.5q11 -1 35 -3t24 -1
q0 3 -12 20q-31 41 -56 95q-11 22 -16.5 40.5t-11.5 44.5t-12 46q-11 357 -15 470q18 5 35 9q66 1 165 3q-1 -39 -3 -163.5t-2 -230.5l-1 -105l-10 -41q-38 -154 -54 -187q-14 -28 -1 -38q7 -4 9 -4q7 0 25 16q19 16 63 25q3 1 9.5 2.5t10 2t10 1t16 0t22.5 -1.5
q11 -1 35 -3t24 -1q0 3 -12 20q-31 41 -56 95q-11 22 -16.5 40.5t-11.5 44.5t-12 46q-11 385 -15 482q108 2 200 3q-1 -35 -3 -160.5t-2 -233.5l-1 -108l-10 -41q-38 -154 -54 -187q-14 -28 -1 -38q7 -4 9 -4q7 0 25 16q19 16 63 25q3 1 9.5 2.5t10 2t10 1t16 0t22.5 -1.5
q11 -1 35 -3t24 -1q0 3 -12 20q-31 41 -56 95q-11 22 -16.5 40.5t-11.5 44.5t-12 46q-12 394 -15 486q535 8 601 10q-2 -19 -4 -180q-9 1 -67.5 3t-112.5 3l-54 1l-41 10q-154 37 -187 54q-28 14 -38 0q-4 -6 -4 -8q0 -7 16 -26q16 -18 25 -62q1 -3 3 -10t2.5 -10t1 -10
t-0.5 -16t-2 -22t-3 -36q-28 14 -38 0q-4 -6 -4 -8q0 -7 16 -26q16 -18 25 -62q1 -3 3 -10t2.5 -10t1 -10t-0.5 -16t-2 -22t-3 -36q-28 14 -38 0q-4 -6 -4 -8q0 -7 16 -26q16 -18 25 -62q1 -3 3 -10t2.5 -10t1 -10t-0.5 -16t-2 -22q-1 -11 -2.5 -35.5l-1.5 -24.5q3 0 20 13
q41 31 95 56q23 10 41 16t44 12t46 11q126 9 190 14q-27 -104 -40 -130q-14 -28 -1 -38q7 -4 9 -4q7 0 25 16q19 16 63 25q3 1 9.5 2.5t10 2t10 1t16 0t22.5 -1.5q11 -1 35 -3t24 -1q0 3 -12 20q-31 41 -56 95q-11 22 -16.5 40.5t-11.5 44.5t-12 46zM2466 410l-41 10
q-117 28 -165 45q39 29 92 54q23 10 41 16t44 12t46 11q176 13 217 16q-1 -75 -2 -171q-13 2 -71 3.5t-110 2.5zM561 270l-10 -41q-38 -154 -54 -187q-14 -28 -1 -38q7 -4 9 -4q7 0 25 16q19 16 63 25q3 1 9.5 2.5t10 2t10 1t16 0t22.5 -1.5q11 -1 35 -3t24 -1q0 3 -12 20
q-31 41 -56 95q-11 22 -16.5 40.5t-11.5 44.5t-12 46q-15 501 -16 505q-4 9 -11 9q-10 -1 -17 -16q-2 -5 -4 -212q-18 2 -75 3.5t-105 2.5l-49 1l-41 10q-154 37 -187 54q-28 14 -38 0q-4 -6 -4 -8q0 -7 16 -26q16 -18 25 -62q1 -3 3 -10t2.5 -10t1 -10t-0.5 -16t-2 -22
q-1 -11 -2.5 -35.5l-1.5 -24.5q3 0 20 13q41 31 95 56q23 10 41 16t44 12t46 11q163 12 211 16q-1 -90 -2 -201q-19 2 -75.5 3.5t-103.5 2.5l-47 1l-41 10q-154 37 -187 54q-28 14 -38 0q-4 -6 -4 -8q0 -7 16 -26q16 -18 25 -62q1 -3 3 -10t2.5 -10t1 -10t-0.5 -16t-2 -22
q-1 -11 -2.5 -35.5l-1.5 -24.5q3 0 20 13q41 31 95 56q23 10 41 16t44 12t46 11q158 11 209 16v-44zM791 270l-10 -41q-38 -154 -54 -187q-14 -28 -1 -38q7 -4 9 -4q7 0 25 16q19 16 63 25q3 1 9.5 2.5t10 2t10 1t16 0t22.5 -1.5q11 -1 35 -3t24 -1q0 3 -12 20
q-31 41 -56 95q-11 22 -16.5 40.5t-11.5 44.5t-12 46q-15 501 -16 505q-4 9 -11 9q-10 -1 -17 -16q-1 -4 -3 -133t-3 -255zM1021 270l-10 -41q-38 -154 -54 -187q-14 -28 -1 -38q7 -4 9 -4q7 0 25 16q19 16 63 25q3 1 9.5 2.5t10 2t10 1t16 0t22.5 -1.5q11 -1 35 -3t24 -1
q0 3 -12 20q-31 41 -56 95q-11 22 -16.5 40.5t-11.5 44.5t-12 46q-15 501 -16 505q-4 9 -11 9q-10 -1 -17 -16q-1 -4 -3 -133t-3 -255zM1340 694l-37 -23q-135 -82 -170 -94q-14 -5 -21 -12t-6 -14t3 -9q5 -5 29 -7q25 -2 62 -26q3 -2 9 -5.5t8.5 -5.5t8 -6t11.5 -11t14 -18
q7 -8 23 -26.5t17 -17.5q1 2 4 23q8 51 28 106q9 24 17.5 41t23 39.5t24.5 40.5q28 49 30 53q4 9 -2 14q-7 7 -22 1q-10 -4 -54 -43zM1340 374l-37 -23q-135 -82 -170 -94q-14 -5 -21 -12t-6 -14t3 -9q5 -5 29 -7q25 -2 62 -26q3 -2 9 -5.5t8.5 -5.5t8 -6t11.5 -11t14 -18
q7 -8 23 -26.5t17 -17.5q1 2 4 23q8 51 28 106q9 24 17.5 41t23 39.5t24.5 40.5q28 49 30 53q4 9 -2 14q-7 7 -22 1q-10 -4 -54 -43z" />
</svg>
