<?xml version="1.0" standalone="no"?>
<!DOCTYPE svg PUBLIC "-//W3C//DTD SVG 1.1//EN" "http://www.w3.org/Graphics/SVG/1.1/DTD/svg11.dtd" >
<svg xmlns="http://www.w3.org/2000/svg" xmlns:xlink="http://www.w3.org/1999/xlink" version="1.1" viewBox="0 0 2130 1270">
   <path fill="currentColor"
d="M857 649q-13 2 -20.5 -7.5t-6.5 -18.5q1 -4 2 -7l-19 -16l-37 -22q-135 -83 -170 -95q-14 -4 -21 -11t-6 -14.5t3 -9.5q5 -5 29 -7q25 -1 62 -26q3 -2 9 -5.5t8.5 -5t8 -6t11.5 -11.5t14 -17q7 -9 23 -27.5t17 -17.5q1 2 4 23q8 51 28 106q9 24 18 41t23 39.5t24 40.5
l14 26q16 -9 44.5 -30.5t66.5 -51.5t48 -37l-4 -2q-5 -1 -18.5 -12t-24.5 -21l-12 -10l-36 -22q-135 -83 -170 -94q-14 -5 -21 -12t-6 -14.5t3 -9.5q5 -5 29 -6q25 -2 62 -26q3 -2 9 -5.5t8.5 -5.5t7.5 -6.5t11 -11.5t15 -17q7 -8 23 -26.5l16 -18.5q2 2 5 23q8 51 28 107
q8 23 17 40t23 39.5t24 40.5q28 50 30 54q1 0 1 1q17 -13 62 -55.5t64 -66.5q7 -8 21 -25q-4 0 -9 -2q-4 -2 -17.5 -13t-25.5 -21l-11 -10l-36 -22q-136 -82 -171 -94q-13 -5 -20.5 -12t-6 -14.5t2.5 -8.5q5 -5 30 -7q24 -2 62 -26q3 -2 8.5 -5.5t8.5 -5.5t8 -6.5t11 -11
t15 -17.5q6 -8 22 -26.5t17 -17.5q2 1 5 22q7 51 27 107q9 24 18 41t23 39.5t24 40.5q28 49 30 53v1l4 -4q3 3 5 23q20 241 143 457q5 9 -1 14q-4 4 -10.5 5t-12.5 -4q-35 -44 -136.5 -81t-200.5 -53.5t-150 -11.5zM337 1119q-13 2 -20.5 -7.5t-6.5 -18.5q1 -4 2 -7l-19 -16
l-37 -22q-135 -83 -170 -95q-14 -4 -21 -11t-6 -14.5t3 -9.5q5 -5 29 -7q25 -1 62 -26q3 -2 9 -5.5t8.5 -5t8 -6t11.5 -11.5t14 -17q7 -9 23 -27.5t17 -17.5q1 2 4 23q8 51 28 106q9 24 18 41t23 39.5t24 40.5l14 26q16 -9 44.5 -30.5t66.5 -51.5t48 -37l-4 -2
q-5 -1 -18.5 -12t-24.5 -21l-12 -10l-36 -22q-135 -83 -170 -94q-14 -5 -21 -12t-6 -14.5t3 -9.5q5 -5 29 -6q25 -2 62 -26q3 -2 9 -5.5t8.5 -5.5t7.5 -6.5t11 -11.5t15 -17q7 -8 23 -26.5l16 -18.5q2 2 5 23q8 51 28 107q8 23 17 40t23 39.5t24 40.5q28 50 30 54q1 0 1 1
q17 -13 62 -55.5t64 -66.5q7 -8 21 -25q-4 0 -9 -2q-4 -2 -17.5 -13t-25.5 -21l-11 -10l-36 -22q-136 -82 -171 -94q-13 -5 -20.5 -12t-6 -14.5t2.5 -8.5q5 -5 30 -7q24 -2 62 -26q3 -2 8.5 -5.5t8.5 -5.5t8 -6.5t11 -11t15 -17.5q6 -8 22 -26.5t17 -17.5q2 1 5 22
q7 51 27 107q9 24 18 41t23 39.5t24 40.5q28 49 30 53v1l4 -4q3 3 5 23q20 241 143 457q5 9 -1 14q-4 4 -10.5 5t-12.5 -4q-35 -44 -136.5 -81t-200.5 -53.5t-150 -11.5zM1317 1036l-22 37q-82 135 -94 170q-5 14 -12 21t-14.5 6t-8.5 -3q-5 -5 -7 -29q-2 -25 -26 -62
q-2 -3 -5.5 -9t-5.5 -8.5t-6.5 -8t-11 -11.5t-17.5 -14q-8 -7 -26.5 -23t-17.5 -17t22 -4q51 -8 107 -28q24 -9 41 -18t39.5 -23t40.5 -24q365 -343 369 -345q8 -4 13 1q7 7 1 23q-2 4 -91.5 96.5t-178.5 182.5zM1487 452l-37 -22q-135 -82 -170 -94q-13 -5 -20.5 -12
t-6 -14.5t2.5 -8.5q5 -5 29 -7q25 -2 63 -26q3 -2 8.5 -5.5t8 -5.5t8 -6.5t11.5 -11t14 -17.5q7 -8 23 -26.5t17 -17.5q2 1 5 22q7 51 27 107q9 24 18 41t23 39.5t24 40.5q145 167 147 170q4 9 -1 14q-7 7 -23 1q-4 -2 -47 -42t-83 -79zM1730 759l-10 -41q-37 -154 -54 -187
q-13 -28 0 -38q6 -4 8 -4q7 0 26 16q12 10 34 18l-4 -44l-10 -41q-37 -154 -54 -187q-13 -28 0 -38q6 -4 8 -4q7 0 26 16t62 25q4 1 10.5 2.5t9.5 2t10 1t16 0t22 -1.5q11 -1 35.5 -3t24.5 -1q0 3 -13 20q-31 41 -56 95q-10 22 -16 40.5t-12 44.5t-11 46q-6 20 -11 37
q22 5 59 1q11 -1 35.5 -3t24.5 -1q0 3 -13 20q-31 41 -56 95q-10 22 -16 40.5t-12 44.5t-11 46q-16 221 -17 225q-3 9 -11 9q-9 -1 -16 -16q-2 -4 -4 -63t-3 -115zM1960 759l-10 -41q-37 -154 -54 -187q-13 -28 0 -38q6 -4 8 -4q7 0 26 16q12 10 34 18l-4 -44l-10 -41
q-37 -154 -54 -187q-13 -28 0 -38q6 -4 8 -4q7 0 26 16t62 25q4 1 10.5 2.5t9.5 2t10 1t16 0t22 -1.5q11 -1 35.5 -3t24.5 -1q0 3 -13 20q-31 41 -56 95q-10 22 -16 40.5t-12 44.5t-11 46q-6 20 -11 37q22 5 59 1q11 -1 35.5 -3t24.5 -1q0 3 -13 20q-31 41 -56 95
q-10 22 -16 40.5t-12 44.5t-11 46q-16 221 -17 225q-3 9 -11 9q-9 -1 -16 -16q-2 -4 -4 -63t-3 -115z" />
</svg>
