<?xml version="1.0" standalone="no"?>
<!DOCTYPE svg PUBLIC "-//W3C//DTD SVG 1.1//EN" "http://www.w3.org/Graphics/SVG/1.1/DTD/svg11.dtd" >
<svg xmlns="http://www.w3.org/2000/svg" xmlns:xlink="http://www.w3.org/1999/xlink" version="1.1" viewBox="0 0 3323 3252">
   <path fill="currentColor"
d="M1565 278q-1 -13 8.5 -21t18.5 -6l6 2l17 -20l22 -36q83 -135 95 -170q4 -14 11 -21t14.5 -6t9.5 3q5 5 7 29q1 25 26 62q1 3 4.5 9t5.5 8.5t6.5 7.5t11.5 11.5t17 14.5q9 7 27 23l18 16q-2 2 -23 5q-51 8 -106 28q-24 8 -41 17t-39.5 23t-40.5 24q-13 8 -26 15
q9 15 30.5 43.5t51.5 66.5t37 48q1 -2 1 -4q2 -4 13 -17.5t21 -25.5l10 -11l22 -36q82 -136 94 -171q5 -13 12 -20.5t14.5 -6t9.5 2.5q4 5 6 30q2 24 26 62q2 3 5.5 8.5t5.5 8.5t6.5 8t11 11t17.5 15q8 6 26.5 22t17.5 17q-1 2 -22 5q-51 7 -107 27q-23 9 -40 18t-39.5 23
t-40.5 24q-50 28 -54 30h-1q12 18 55 62.5t67 64.5q8 7 25 21q0 -4 2 -9q2 -4 12.5 -18t20.5 -25l10 -11l23 -37q82 -135 94 -170q4 -14 11.5 -21t14.5 -6t9 3q5 5 7 29q2 25 26 62q2 3 5.5 9t5.5 8.5t6 8t11 11.5t18 14q8 7 26.5 23t17.5 17q-2 1 -23 4q-51 8 -106 28
q-24 9 -41 18t-39.5 23t-40.5 24q-49 28 -53 30h-1q4 3 4 4q-4 3 -23 4q-242 20 -458 144q-8 4 -13 -1q-4 -5 -5.5 -11t4.5 -12q44 -35 81 -136.5t53.5 -201t10.5 -149.5zM1806 2975q1 13 -8.5 20.5t-17.5 6.5q-4 -1 -7 -2l-17 19l-22 37q-83 135 -94 170q-5 13 -12 20.5
t-14.5 6t-9.5 -2.5q-5 -5 -6 -29q-2 -25 -26 -63q-2 -3 -5.5 -8.5t-5.5 -8t-6.5 -8t-11.5 -11.5t-17 -14q-8 -7 -26.5 -23t-18.5 -17q2 -2 23 -5q51 -7 106 -27q24 -9 41 -18t39.5 -23t40.5 -24q13 -7 26 -15q-9 -15 -30.5 -43.5t-51.5 -66.5t-37 -48q-1 2 -1 4
q-2 5 -13 18.5t-21 24.5l-10 12l-22 36q-82 135 -94 170q-5 14 -12 21t-14.5 6t-8.5 -3q-5 -5 -7 -29q-2 -25 -26 -62q-2 -3 -5.5 -9t-5.5 -8.5t-6.5 -7.5t-11 -11.5t-17.5 -14.5q-8 -7 -26.5 -23t-17.5 -17t22 -4q51 -8 107 -28q24 -8 41 -17t39.5 -23.5t40.5 -23.5
q49 -29 53 -30l1 -1q-12 -17 -55 -62t-67 -65q-8 -6 -25 -21q0 5 -2 10q-2 4 -12.5 17.5t-20.5 25.5l-10 11l-22 36q-83 136 -95 171q-4 13 -11 20.5t-14.5 6t-9.5 -3.5q-5 -4 -7 -29q-1 -25 -26 -62q-2 -3 -5.5 -9t-5 -8.5t-6 -7.5t-11.5 -11t-17 -15q-9 -6 -27.5 -22.5
t-17.5 -16.5q2 -2 23 -5q51 -7 106 -27q24 -9 41 -18t39.5 -23t40.5 -24q50 -28 53 -30h1q-4 -4 -3 -4q3 -3 22 -5q242 -20 458 -143q8 -5 14 1q4 4 5 10t-5 13q-44 35 -81 136.5t-53.5 200.5t-10.5 150zM3034 1506q13 -1 20.5 8t6.5 18q-1 4 -2 7l20 17l36 22
q135 82 170 94q14 5 21 12t6 14.5t-3 9.5q-5 4 -29 6q-25 2 -62 26q-3 2 -9 5.5t-8.5 5.5t-8 6.5t-11.5 11.5t-14 17q-7 8 -23 26.5t-17 18.5q-1 -2 -4 -23q-8 -51 -28 -107q-9 -23 -17.5 -40t-23 -39.5t-23.5 -40.5q-8 -13 -15 -27q-15 10 -44 31.5t-67 51t-47 37.5
q2 0 4 1q4 2 17.5 13t24.5 21l12 10l36 22q135 82 170 94q14 5 21.5 12t6 14t-3.5 9q-5 5 -29 7q-25 2 -62 26q-3 2 -9 5.5t-8.5 5.5t-7.5 6.5t-11 11t-15 17.5q-7 8 -23 26.5t-16 17.5q-2 -2 -5 -22q-7 -52 -28 -107q-8 -24 -17 -41t-23 -39.5t-24 -40.5q-28 -49 -30 -53
q0 -1 -1 -1q-17 12 -61.5 54.5t-64.5 67.5l-21 24q4 1 9 3q4 1 17.5 12t25.5 21l11 10l37 22q135 83 170 95q13 4 20.5 11t6 14.5t-2.5 9.5q-5 5 -29 6q-25 2 -63 26q-3 2 -8.5 5.5t-8 5.5t-8 6.5t-11.5 11.5t-14 17q-7 9 -23 27t-17 18q-2 -2 -5 -23q-7 -51 -27 -106
q-9 -24 -18 -41t-23 -39.5t-24 -40.5q-28 -50 -30 -54q-3 4 -4 3q-3 -3 -4 -22q-20 -242 -144 -458q-5 -8 1 -14q4 -4 10.5 -5t12.5 5q35 44 136.5 81t200.5 53t150 11zM337 1746q-13 2 -20.5 -7.5t-6.5 -18.5q1 -4 2 -7l-19 -16l-37 -22q-135 -83 -170 -95q-14 -4 -21 -11
t-6 -14.5t3 -9.5q5 -5 29 -7q25 -1 62 -26q3 -2 9 -5.5t8.5 -5t8 -6t11.5 -11.5t14 -17q7 -9 23 -27.5t17 -17.5q1 2 4 23q8 51 28 106q9 24 18 41t23 39.5t24 40.5l14 26q16 -9 44.5 -30.5t66.5 -51.5t48 -37l-4 -2q-5 -1 -18.5 -12t-24.5 -21l-12 -10l-36 -22
q-135 -83 -170 -94q-14 -5 -21 -12t-6 -14.5t3 -9.5q5 -5 29 -6q25 -2 62 -26q3 -2 9 -5.5t8.5 -5.5t7.5 -6.5t11 -11.5t15 -17q7 -8 23 -26.5l16 -18.5q2 2 5 23q8 51 28 107q8 23 17 40t23 39.5t24 40.5q28 50 30 54q1 0 1 1q17 -13 62 -55.5t64 -66.5q7 -8 21 -25
q-4 0 -9 -2q-4 -2 -17.5 -13t-25.5 -21l-11 -10l-36 -22q-136 -82 -171 -94q-13 -5 -20.5 -12t-6 -14.5t2.5 -8.5q5 -5 30 -7q24 -2 62 -26q3 -2 8.5 -5.5t8.5 -5.5t8 -6.5t11 -11t15 -17.5q6 -8 22 -26.5t17 -17.5q2 1 5 22q7 51 27 107q9 24 18 41t23 39.5t24 40.5
q28 49 30 53v1l4 -4q3 3 5 23q20 241 143 457q5 9 -1 14q-4 4 -10.5 5t-12.5 -4q-35 -44 -136.5 -81t-200.5 -53.5t-150 -11.5zM1771 960l-10 -41q-37 -154 -54 -187q-14 -28 0 -37q6 -5 8 -5q7 0 25 16q19 16 63 26q3 0 9.5 2t10 2.5t10.5 1t16 0t22 -2.5q11 -1 35.5 -2.5
t24.5 -0.5q0 2 -13 19q-31 41 -56 95q-11 23 -16.5 41t-11.5 44t-12 46q-6 23 -11 40l135 -1l41 -10q154 -38 187 -54q28 -14 38 0q4 6 4 8q0 7 -16 25q-16 19 -25 63q-1 3 -3 9.5t-2.5 10t-1 10.5t0 16t2.5 22q1 11 2.5 35.5l1.5 24.5q-3 0 -20 -13q-41 -31 -95 -56
q-23 -11 -41 -16.5t-44 -11.5t-46 -12q-501 -15 -505 -16q-9 -4 -9 -11q1 -10 16 -16q7 -3 345 -7zM1946 1246l41 -10q154 -38 187 -54q28 -14 38 0q4 6 4 8q0 7 -16 25q-16 19 -25 63q-1 3 -3 9.5t-2.5 10t-1 10.5t0 16t2.5 22q1 11 2.5 35.5l1.5 24.5q-3 0 -20 -13
q-41 -31 -95 -56q-23 -11 -41 -16.5t-44 -11.5t-46 -12q-501 -15 -505 -16q-9 -4 -9 -11q1 -10 16 -16q4 -2 132.5 -4t255.5 -3zM1600 2292l10 41q38 154 54 187q14 29 1 38q-7 4 -9 4q-7 0 -25 -16q-19 -16 -63 -25q-3 -1 -9.5 -2.5t-10 -2t-10 -1t-16 0t-22.5 1.5
q-11 1 -35 3t-24 1q0 -2 12 -19q31 -42 56 -95q11 -23 16.5 -41.5t11.5 -44.5t12 -45q6 -23 11 -40l-135 1l-41 10q-154 37 -187 53q-28 14 -37 1q-5 -6 -5 -9q0 -7 16 -25q16 -19 26 -62q0 -4 2 -10.5t2.5 -9.5t1 -10t0 -16t-2.5 -23q-1 -10 -2.5 -34.5t-0.5 -24.5
q2 0 19 13q41 31 95 55q23 11 41 17t44 11.5t46 11.5q501 15 505 17q9 3 9 10q0 10 -16 17q-6 3 -345 6zM1425 2007l-41 10q-154 37 -187 53q-28 14 -37 1q-5 -6 -5 -9q0 -7 16 -25q16 -19 26 -62q0 -4 2 -10.5t2.5 -9.5t1 -10t0 -16t-2.5 -23q-1 -10 -2.5 -34.5t-0.5 -24.5
q2 0 19 13q41 31 95 55q23 11 41 17t44 11.5t46 11.5q501 15 505 17q9 3 9 10q0 10 -16 17q-4 2 -132.5 4t-255.5 3zM2351 1712l42 -10q154 -38 187 -54q28 -14 37 -1q5 6 5 9q0 7 -16 25q-17 19 -26 62q-1 4 -2.5 10.5t-2 10t-1 10t0 15.5t2.5 23q1 10 2.5 34.5t0.5 24.5
q-2 0 -19 -12q-41 -31 -95 -56q-23 -11 -41.5 -16.5t-44 -11.5t-45.5 -12q-23 -6 -40 -11l1 134l10 42q37 154 54 187q14 28 0 37q-6 5 -8 5q-7 0 -26 -16q-18 -17 -62 -26q-3 -1 -10 -2.5t-10 -2t-10 -1t-16 0t-22 2.5q-11 1 -35.5 2.5t-24.5 0.5q0 -2 13 -19
q31 -41 56 -95q10 -23 16 -41.5t12 -44t11 -45.5q16 -501 17 -505q4 -9 11 -9q9 0 16 15q3 7 7 346zM2066 1886l10 42q37 154 54 187q14 28 0 37q-6 5 -8 5q-7 0 -26 -16q-18 -17 -62 -26q-3 -1 -10 -2.5t-10 -2t-10 -1t-16 0t-22 2.5q-11 1 -35.5 2.5t-24.5 0.5
q0 -2 13 -19q31 -41 56 -95q10 -23 16 -41.5t12 -44t11 -45.5q16 -501 17 -505q4 -9 11 -9q9 0 16 15q2 5 4 133.5t3 255.5zM1020 1541l-42 10q-154 37 -187 54q-28 14 -37 0q-5 -6 -5 -8q0 -7 16 -26q17 -18 26 -62q1 -3 2.5 -10t2 -10t1 -10t0 -16t-1.5 -22
q-2 -11 -3.5 -35.5t-0.5 -24.5q2 0 19 13q42 31 95 56q23 10 41.5 16t44 12t45.5 11q23 7 40 12l-1 -135l-10 -41q-37 -154 -54 -187q-13 -28 0 -38q6 -4 8 -4q7 0 26 16t62 25q4 1 10.5 2.5t9.5 2t10 1t16 0t22 -1.5q11 -1 35.5 -3t24.5 -1q0 3 -13 20q-31 41 -56 95
q-10 22 -16 40.5t-12 44.5t-11 46q-16 501 -17 505q-3 9 -11 9q-9 -1 -16 -16q-3 -7 -6 -345zM1305 1366l-10 -41q-37 -154 -54 -187q-13 -28 0 -38q6 -4 8 -4q7 0 26 16t62 25q4 1 10.5 2.5t9.5 2t10 1t16 0t22 -1.5q11 -1 35.5 -3t24.5 -1q0 3 -13 20q-31 41 -56 95
q-10 22 -16 40.5t-12 44.5t-11 46q-16 501 -17 505q-3 9 -11 9q-9 -1 -16 -16q-2 -4 -4 -133t-3 -255z" />
</svg>
