<?xml version="1.0" standalone="no"?>
<!DOCTYPE svg PUBLIC "-//W3C//DTD SVG 1.1//EN" "http://www.w3.org/Graphics/SVG/1.1/DTD/svg11.dtd" >
<svg xmlns="http://www.w3.org/2000/svg" xmlns:xlink="http://www.w3.org/1999/xlink" version="1.1" viewBox="0 0 730 799">
   <path fill="currentColor"
d="M297 338l-37 -22q-135 -82 -170 -94q-14 -5 -21 -12t-6 -14.5t3 -8.5q5 -5 29 -7q25 -2 62 -26q3 -2 9 -5.5t8.5 -5.5t8 -6.5t11.5 -11t14 -17.5q7 -8 23 -26.5t17 -17.5t4 22q8 51 28 107q9 24 18 41t23 39.5t24 40.5q82 94 124 143q69 5 94 7l-3 -194l-10 -41
q-37 -154 -54 -187q-14 -28 0 -38q6 -4 8 -4q7 0 26 16q18 16 62 25q3 1 10 2.5t10 2t10 1t16 0t22 -1.5q11 -1 35.5 -3t24.5 -1q0 3 -13 20q-31 41 -56 95q-10 22 -16 40.5t-12 44.5t-11 46q-10 221 -14 319v2q9 24 18 41t23 39.5t24 40.5q28 49 30 53q4 9 -1 14
q-7 7 -23 1q-4 -2 -17.5 -12.5t-25.5 -20.5l-11 -10l-36 -23q-136 -82 -171 -94q-13 -5 -20.5 -12t-6 -14t2.5 -9q5 -5 29 -7q25 -2 63 -26q3 -2 8.5 -5.5t8 -5.5t8 -6t11.5 -11t15 -18q8 -10 25 -29q-20 1 -60 2q0 1 -1 2q-7 7 -23 1l-2 -2l-131 3l-42 10q-154 37 -187 54
q-28 14 -37 0q-5 -6 -5 -8q0 -7 16 -26q17 -18 26 -62q1 -3 2.5 -10t2 -10t1 -10t0 -16t-2.5 -22q-1 -11 -2.5 -35.5t-0.5 -24.5q2 0 19 13q41 31 95 56q23 10 41.5 16t44 12t45.5 11q29 2 66 5z" />
</svg>
