<?xml version="1.0" standalone="no"?>
<!DOCTYPE svg PUBLIC "-//W3C//DTD SVG 1.1//EN" "http://www.w3.org/Graphics/SVG/1.1/DTD/svg11.dtd" >
<svg xmlns="http://www.w3.org/2000/svg" xmlns:xlink="http://www.w3.org/1999/xlink" version="1.1" viewBox="0 0 1505 801">
   <path fill="currentColor"
d="M1255 241q3 -3 8.5 -3.5t9.5 2t3 6.5q-3 12 -28.5 59t-36.5 85q-12 38 3.5 86t45.5 87q14 19 24 47t6 32q-1 1 -4 -1.5t-6.5 -7.5t-7.5 -12q-13 -26 -50 -65q-27 -27 -47.5 -41t-73.5 -42q-9 -5 -15 -10l-34 3l-31 8q-115 28 -140 40q-21 10 -28 0q-3 -4 -3 -6
q0 -5 11 -19q13 -14 20 -47q0 -2 1.5 -7t1.5 -7.5t0.5 -7.5t0 -12t-1.5 -17q0 -8 -1.5 -26t-0.5 -18t14 9q31 23 71 42q17 8 31 12t33.5 8.5t34.5 9.5q8 2 18 5q5 -4 13 -7q6 -3 20 -13.5t27 -21.5t28 -24t17 -14q12 -10 29.5 -48.5t37.5 -63.5zM1181 397l2 -2q-1 0 -2 2z
M786 270l-10 -41q-38 -154 -54 -187q-14 -28 -1 -38q7 -4 9 -4q7 0 25 16q19 16 63 25q3 1 9.5 2.5t10 2t10 1t16 0t22.5 -1.5q11 -1 35 -3t24 -1q0 3 -12 20q-31 41 -56 95q-11 22 -16.5 40.5t-11.5 44.5t-12 46q-15 501 -16 505q-4 9 -11 9q-10 -1 -17 -16q-1 -4 -3 -133
t-3 -255zM1336 550l-10 -41q-38 -154 -54 -187q-14 -28 -1 -38q7 -4 9 -4q7 0 25 16q12 10 34 18l-3 -44l-10 -41q-38 -154 -54 -187q-14 -28 -1 -38q7 -4 9 -4q7 0 25 16q19 16 63 25q3 1 9.5 2.5t10 2t10 1t16 0t22.5 -1.5q11 -1 35 -3t24 -1q0 3 -12 20q-31 41 -56 95
q-11 22 -16.5 40.5t-11.5 44.5t-12 46q-5 20 -10 37q21 5 59 1q11 -1 35 -3t24 -1q0 3 -12 20q-31 41 -56 95q-11 22 -16.5 40.5t-11.5 44.5t-12 46q-15 221 -16 225q-4 9 -11 9q-10 -1 -17 -16q-1 -4 -3 -63t-3 -115zM556 270l-10 -41q-38 -154 -54 -187q-14 -28 -1 -38
q7 -4 9 -4q7 0 25 16q19 16 63 25q3 1 9.5 2.5t10 2t10 1t16 0t22.5 -1.5q11 -1 35 -3t24 -1q0 3 -12 20q-31 41 -56 95q-11 22 -16.5 40.5t-11.5 44.5t-12 46q-15 501 -16 505q-4 9 -11 9q-10 -1 -17 -16q-2 -5 -4 -212q-18 2 -75 3.5t-105 2.5l-49 1l-41 10
q-154 37 -187 54q-28 14 -38 0q-4 -6 -4 -8q0 -7 16 -26q16 -18 25 -62q1 -3 3 -10t2.5 -10t1 -10t-0.5 -16t-2 -22q-1 -11 -2.5 -35.5l-1.5 -24.5q3 0 20 13q41 31 95 56q23 10 41 16t44 12t46 11q163 12 211 16q-1 -90 -2 -201q-19 2 -75.5 3.5t-103.5 2.5l-47 1l-41 10
q-154 37 -187 54q-28 14 -38 0q-4 -6 -4 -8q0 -7 16 -26q16 -18 25 -62q1 -3 3 -10t2.5 -10t1 -10t-0.5 -16t-2 -22q-1 -11 -2.5 -35.5l-1.5 -24.5q3 0 20 13q41 31 95 56q23 10 41 16t44 12t46 11q158 11 209 16v-44z" />
</svg>
