<?xml version="1.0" standalone="no"?>
<!DOCTYPE svg PUBLIC "-//W3C//DTD SVG 1.1//EN" "http://www.w3.org/Graphics/SVG/1.1/DTD/svg11.dtd" >
<svg xmlns="http://www.w3.org/2000/svg" xmlns:xlink="http://www.w3.org/1999/xlink" version="1.1" viewBox="0 0 3352 1040">
   <path fill="currentColor"
d="M1183 199q7 -9 16.5 -5.5t6.5 14.5q-5 20 -26.5 59t-47.5 91.5t-42 104.5q-20 69 7.5 153.5t80.5 153.5q27 36 50 85.5t16 56.5q-2 1 -7 -3.5t-11 -14t-13 -21.5q-10 -18 -36.5 -51.5t-53.5 -62.5q-47 -48 -83.5 -73.5t-130.5 -74.5q-19 -10 -30.5 -20.5t-16 -21.5
t4.5 -22t33 -20q10 -4 35.5 -23.5t48 -38.5t49.5 -42t30 -26q18 -15 33 -46t36.5 -74t50.5 -78zM2073 4q3 -4 10.5 -4.5t13 2.5t4.5 9q-4 15 -38 77.5t-49 113.5q-16 51 5 115t60 116q4 5 8 11q16 -19 25 -62q1 -3 3 -10t2.5 -10t1 -10t-0.5 -16t-2 -22q-1 -11 -2.5 -35.5
l-1.5 -24.5q3 0 20 13q41 31 95 56q23 10 41 16t44 12t46 11q373 12 478 16q8 -9 22 -26q7 -8 23 -26.5t17 -18.5q2 2 5 23q7 51 27 107q9 23 18 40t23 39.5t24 40.5q28 50 30 54v1q18 -13 62.5 -55.5t64.5 -66.5q6 -8 21 -25q-4 0 -9 -2t-18.5 -13t-24.5 -21l-12 -10
l-36 -22q-135 -82 -170 -94q-14 -5 -21 -12t-6 -14.5t3 -8.5q5 -5 29 -7q25 -2 62 -26q3 -2 9 -5.5t8.5 -5.5t7.5 -6.5t11.5 -11t14.5 -17.5q7 -8 23 -26.5t17 -17.5t4 22q8 51 28 107q8 24 17 41t23.5 39.5t23.5 40.5q29 49 30 53l1 1l3 -4q3 3 5 23q20 241 143 457
q5 9 -1 14q-4 4 -10 5t-12 -4q-40 -50 -164 -91v1q-1 9 -16 16q-9 4 -795 8l-41 10q-154 37 -187 54q-28 14 -38 0q-4 -6 -4 -8q0 -7 16 -26q16 -18 25 -62q1 -3 3 -10t2.5 -10t1 -10t-0.5 -16t-2 -22q-1 -11 -2.5 -35.5l-1.5 -24.5q3 0 20 13q41 31 95 56q23 10 41 16
t44 12t46 11q625 13 759 16q-81 -24 -164 -36t-124 -8q-13 2 -21 -7.5t-6 -18.5q0 -4 2 -7l-20 -16l-36 -22q-117 -72 -160 -91q-3 3 -7 4q-4 2 -62.5 4t-115.5 3l-57 1l-41 10q-154 37 -187 54q-28 14 -38 0q-4 -6 -4 -8q0 -7 16 -26q16 -18 25 -62q1 -3 2.5 -10t2 -10
t1.5 -10t0 -16t-2 -22q0 -3 -1 -11q0 4 -1.5 5.5t-5 -2t-8 -10.5t-9.5 -16q-18 -34 -68 -86q-35 -36 -62.5 -55t-97.5 -56q-15 -8 -24 -16l-353 6l-41 10q-154 38 -187 54q-28 14 -38 1q-4 -6 -4 -9q0 -7 16 -25q16 -19 25 -62q1 -4 3 -10.5t2.5 -9.5t1 -10t-0.5 -16t-2 -23
q-1 -10 -2.5 -34.5l-1.5 -24.5q3 0 20 12q41 31 95 56q23 11 41 16.5t44 11.5t46 12q235 10 328 14q6 -8 25 -16q7 -3 26 -17.5t36 -29t37.5 -31.5t22.5 -19q16 -14 39.5 -65t50.5 -84zM1054 459q0 -1 1 -1q-1 0 -1 1zM1491 969l-41 10q-154 37 -187 54q-28 14 -38 0
q-4 -6 -4 -8q0 -7 16 -26q16 -18 25 -62q1 -3 3 -10t2.5 -10t1 -10t-0.5 -16t-2 -22q-1 -11 -2.5 -35.5l-1.5 -24.5q3 0 20 13q41 31 95 56q23 10 41 16t44 12t46 11q501 16 505 17q9 4 9 11q-1 9 -16 16q-4 2 -132.5 4t-255.5 3zM1974 212q2 -2 3 -4q-2 1 -3 4zM2832 720
q8 13 15 26q15 -9 43.5 -30.5t66.5 -51.5t48 -37l-4 -2q-10 -3 -54 -43l-37 -22q-135 -83 -170 -94q-13 -5 -20.5 -12t-6 -14.5t2.5 -9.5q5 -5 29 -6q19 -2 44 -15l-448 5l-41 10q-154 37 -187 54q-4 2 -7 3q11 27 14 45q-2 -17 -2.5 -29.5l-0.5 -12.5q3 0 20 13
q41 31 95 56q22 10 40.5 16t44.5 12t46 11q124 9 188 14q-1 -2 0 -4q1 -7 3 -9q5 -5 29 -7q25 -1 62 -26q3 -2 9 -5.5t8.5 -5t7.5 -6t11 -11.5t15 -17q7 -9 23 -27.5t16 -17.5q2 2 5 23q7 51 28 106q8 24 17 41t23 39.5t24 40.5zM330 589l-41 10q-154 37 -187 54
q-28 14 -38 0q-4 -6 -4 -8q0 -7 16 -26q16 -18 25 -62q1 -3 3 -10t2.5 -10t1 -10t-0.5 -16t-2 -22q-1 -11 -2.5 -35.5l-1.5 -24.5q3 0 20 13q41 31 95 56q23 10 41 16t44 12t46 11q50 2 119 4l-80 -78l-36 -22q-135 -82 -170 -94q-14 -5 -21 -12t-6 -14.5t3 -8.5q5 -5 29 -7
q25 -2 62 -26q3 -2 9 -5.5t8.5 -5.5t8 -6.5t11.5 -11t14 -17.5q7 -8 23 -26.5t17 -17.5t4 22q8 51 28 107q9 24 17.5 41t23 39.5t23.5 40.5q43 45 99 104q316 10 319 11q9 4 9 11q-1 9 -16 16q-6 3 -271 6q205 218 206 220q4 9 -1 14q-7 7 -23 1q-7 -3 -243 -235z" />
</svg>
