<?xml version="1.0" standalone="no"?>
<!DOCTYPE svg PUBLIC "-//W3C//DTD SVG 1.1//EN" "http://www.w3.org/Graphics/SVG/1.1/DTD/svg11.dtd" >
<svg xmlns="http://www.w3.org/2000/svg" xmlns:xlink="http://www.w3.org/1999/xlink" version="1.1" viewBox="0 0 1151 799">
   <path fill="currentColor"
d="M745 274l-36 -22q-135 -82 -170 -94q-14 -5 -21 -12t-6 -14.5t3 -8.5q5 -5 29 -7q25 -2 62 -26q3 -2 9 -5.5t8.5 -5.5t8 -6.5t11.5 -11t14 -17.5q7 -8 23 -26.5t17 -17.5t4 22q8 51 28 107q9 24 17.5 41t23 39.5t23.5 40.5q23 24 57 60q280 5 282 6q9 4 9 11q-1 9 -16 16
q-4 2 -240 4q120 127 185 197q61 2 62 2q9 4 9 11q-1 9 -16 16q-1 1 -27 2q40 42 41 43q4 9 -1 14q-7 7 -23 1q-3 -1 -62 -58q-85 2 -269 3q190 202 191 204q4 9 -1 14q-7 7 -23 1q-7 -3 -227 -218l-394 2l-41 10q-154 37 -187 54q-28 14 -38 0q-4 -6 -4 -8q0 -7 16 -26
q16 -18 25 -62q1 -3 3 -10t2.5 -10t1 -10t-0.5 -16t-2 -22q-1 -11 -2.5 -35.5l-1.5 -24.5q3 0 20 13q41 31 95 56q23 10 41 16t44 12t46 11q159 4 334 7l-100 -98l-36 -22q-68 -41 -112 -66l-103 1l-41 10q-154 37 -187 54q-28 14 -38 0q-4 -6 -4 -8q0 -7 16 -26
q16 -18 25 -62q1 -3 3 -10t2.5 -10t1 -10t-0.5 -16t-2 -22q-1 -11 -2.5 -35.5l-1.5 -24.5q3 0 20 13q41 31 95 56q23 10 41 16t44 12t46 11l1 1v-4q1 -8 3 -9q5 -5 29 -7q25 -2 62 -26q3 -2 9 -5.5t8.5 -5.5t8 -6.5t11.5 -11t14 -17.5q7 -8 23 -26.5t17 -17.5t4 22
q8 51 28 107q2 6 4 11q116 2 211 4zM820 348q-100 1 -229 2q3 3 16 25t22 39q53 55 117 123q176 4 274 6q-76 -73 -200 -195z" />
</svg>
