<?xml version="1.0" standalone="no"?>
<!DOCTYPE svg PUBLIC "-//W3C//DTD SVG 1.1//EN" "http://www.w3.org/Graphics/SVG/1.1/DTD/svg11.dtd" >
<svg xmlns="http://www.w3.org/2000/svg" xmlns:xlink="http://www.w3.org/1999/xlink" version="1.1" viewBox="0 0 1150 889">
   <path fill="currentColor"
d="M329 818l-41 10q-154 37 -187 54q-28 14 -38 0q-4 -6 -4 -8q0 -7 16 -26q16 -18 25 -62q1 -3 3 -10t2.5 -10t1 -10t-0.5 -16t-2 -22q-1 -11 -2.5 -35.5l-1.5 -24.5q3 0 20 13q41 31 95 56q33 15 76 25l-6 -482l-10 -41q-38 -154 -54 -187q-14 -28 -1 -38q7 -4 9 -4
q7 0 25 16q19 16 63 25q3 1 9.5 2.5t10 2t10 1t16 0t22.5 -1.5q11 -1 35 -3t24 -1q0 3 -12 20q-31 41 -56 95q-11 22 -16.5 40.5t-11.5 44.5t-12 46q-11 362 -15 473q13 3 25 6q408 8 636 13q-2 -27 -4 -176q-9 1 -67.5 3t-112.5 3l-54 1l-41 10q-154 37 -187 54
q-28 14 -38 0q-4 -6 -4 -8q0 -7 16 -26q16 -18 25 -62q1 -3 2.5 -10t2 -10t1.5 -10t0 -16t-2 -22t-3 -36q-28 14 -38 0q-4 -6 -4 -8q0 -7 16 -26q16 -18 25 -62q1 -3 2.5 -10t2 -10t1.5 -10t0 -16t-2 -22t-3 -36q-28 14 -38 0q-4 -6 -4 -8q0 -7 16 -26q16 -18 25 -62
q1 -3 2.5 -10t2 -10t1.5 -10t0 -16t-2 -22q-1 -11 -2.5 -35.5l-1.5 -24.5q3 0 20 13q41 31 95 56q22 10 40.5 16t44.5 12t46 11q126 9 190 14q-27 -104 -40 -130q-14 -28 -1 -38q7 -4 9 -4q7 0 25 16q19 16 63 25q3 1 9.5 2.5t10 2t10 1t16 0t22.5 -1.5q11 -1 35 -3t24 -1
q0 3 -12 20q-31 41 -56 95q-11 22 -16.5 40.5t-11.5 44.5t-12 46q-12 417 -16 493q119 3 121 3q9 4 9 11q-1 9 -16 16q-4 2 -202.5 4t-395.5 3zM761 558q176 13 217 16q-1 -75 -2 -171q-14 2 -71.5 3.5t-109.5 2.5l-51 1l-41 10q-117 28 -165 45q39 29 92 54q22 10 40.5 16
t44.5 12t46 11zM761 358q171 12 215 16l-1 -104l-10 -41q-3 -13 -6 -25l-215 6l-41 10q-117 28 -165 45q39 29 92 54q22 10 40.5 16t44.5 12t46 11z" />
</svg>
