<?xml version="1.0" standalone="no"?>
<!DOCTYPE svg PUBLIC "-//W3C//DTD SVG 1.1//EN" "http://www.w3.org/Graphics/SVG/1.1/DTD/svg11.dtd" >
<svg xmlns="http://www.w3.org/2000/svg" xmlns:xlink="http://www.w3.org/1999/xlink" version="1.1" viewBox="0 0 770 801">
   <path fill="currentColor"
d="M300 146q4 -4 11 -4.5t12.5 2.5t4.5 9q-4 15 -38 77.5t-49 113.5q-16 51 5 115t60 116q19 25 32.5 62.5t7.5 42.5q-2 2 -5.5 -1.5t-8 -10.5t-9.5 -16q-18 -34 -68 -86q-35 -36 -62 -55t-98 -56q-14 -8 -23 -15.5t-12 -15.5t3.5 -16.5t24.5 -15.5q8 -3 27 -17.5t35.5 -29
t37 -31.5t22.5 -19q16 -14 39.5 -65t50.5 -84zM201 354q2 -2 3 -4q-1 1 -3 4zM600 550l-10 -41q-38 -154 -54 -187q-14 -28 0 -38q6 -4 8 -4q7 0 25 16q12 10 34 18l-3 -44l-10 -41q-38 -154 -54 -187q-14 -28 0 -38q6 -4 8 -4q7 0 25 16q19 16 63 25q3 1 9.5 2.5t10 2
t10.5 1t16 0t22 -1.5q11 -1 35.5 -3t24.5 -1q0 3 -13 20q-31 41 -56 95q-11 22 -16.5 40.5t-11.5 44.5t-12 46q-5 20 -10 37q21 5 59 1q11 -1 35.5 -3t24.5 -1q0 3 -13 20q-31 41 -56 95q-11 22 -16.5 40.5t-11.5 44.5t-12 46q-15 221 -16 225q-4 9 -11 9q-10 -1 -16 -16
q-2 -4 -4 -63t-3 -115zM370 550l-10 -41q-38 -154 -54 -187q-14 -28 0 -38q6 -4 8 -4q7 0 25 16q12 10 34 18l-3 -44l-10 -41q-38 -154 -54 -187q-14 -28 0 -38q6 -4 8 -4q7 0 25 16q19 16 63 25q3 1 9.5 2.5t10 2t10.5 1t16 0t22 -1.5q11 -1 35.5 -3t24.5 -1q0 3 -13 20
q-31 41 -56 95q-11 22 -16.5 40.5t-11.5 44.5t-12 46q-5 20 -10 37q21 5 59 1q11 -1 35.5 -3t24.5 -1q0 3 -13 20q-31 41 -56 95q-11 22 -16.5 40.5t-11.5 44.5t-12 46q-15 221 -16 225q-4 9 -11 9q-10 -1 -16 -16q-2 -4 -4 -63t-3 -115z" />
</svg>
