<?xml version="1.0" standalone="no"?>
<!DOCTYPE svg PUBLIC "-//W3C//DTD SVG 1.1//EN" "http://www.w3.org/Graphics/SVG/1.1/DTD/svg11.dtd" >
<svg xmlns="http://www.w3.org/2000/svg" xmlns:xlink="http://www.w3.org/1999/xlink" version="1.1" viewBox="0 0 984 632">
   <path fill="currentColor"
d="M221 276q23 10 41 16t44 12t46 11q221 16 225 17q9 3 9 10v1q-1 9 -16 16q-4 2 -62.5 4t-115.5 3l-57 1l-41 10q-154 37 -187 54q-13 6 -24 6q-9 0 -13.5 -6t-4.5 -8q0 -7 16 -26q16 -18 25 -62q6 -27 6 -36q0 -12 -2 -32q-4 -38 -4 -57v-3q3 0 20 13q41 31 95 56z
M689 586l-37 -22q-135 -82 -170 -94q-14 -5 -21 -12t-6 -14.5t3 -9.5q5 -4 29 -6q25 -2 62 -26q3 -2 9 -5.5t8.5 -5.5t8 -6.5t11.5 -11t14 -17.5q7 -8 23 -26.5t17 -17.5t4 22q8 51 28 107q9 23 18 40t23 39.5t24 40.5q28 50 30 54q4 9 -2 14q-7 6 -22 1q-4 -2 -18 -13
t-25 -21zM894 381l-37 -22q-135 -82 -170 -94q-14 -5 -21 -12t-6 -14.5t3 -9.5q5 -4 29 -6q25 -2 62 -26q3 -2 9 -5.5t8.5 -5.5t8 -6.5t11.5 -11.5t14 -17q7 -8 23 -26.5t17 -18.5q1 2 5 23q7 51 27 107q9 23 18 40t23 39.5t24 40.5q28 50 30 54q4 9 -1 14q-8 6 -23 0
q-4 -1 -18 -12t-25 -21zM604 275l-37 -22q-135 -83 -170 -94q-13 -5 -20.5 -12t-6.5 -14.5t3 -9.5q5 -5 29 -6q25 -2 63 -26q3 -2 8.5 -5.5t8 -5.5t8 -6.5t11.5 -11.5t14 -17q7 -8 23 -26.5t17 -18.5q2 2 5 23q7 51 27 107q9 23 18 40t23 39.5t24 40.5q28 50 30 54
q4 9 -1 14q-7 6 -23 0q-4 -1 -17.5 -12t-25.5 -21z" />
</svg>
