<?xml version="1.0" standalone="no"?>
<!DOCTYPE svg PUBLIC "-//W3C//DTD SVG 1.1//EN" "http://www.w3.org/Graphics/SVG/1.1/DTD/svg11.dtd" >
<svg xmlns="http://www.w3.org/2000/svg" xmlns:xlink="http://www.w3.org/1999/xlink" version="1.1" viewBox="0 0 674 632">
   <path fill="currentColor"
d="M294 275l-37 -22q-135 -83 -170 -94q-14 -5 -21 -12t-6 -14.5t3 -9.5q5 -5 29 -6q25 -2 62 -26q3 -2 9 -5.5t8.5 -5.5t8 -6.5t11.5 -11.5t14 -17q7 -8 23 -26.5t17 -18.5q1 2 4 23q8 51 28 107q9 23 18 40t23 39.5t24 40.5q28 50 30 54q4 9 -1 14q-8 6 -23 0
q-4 -1 -18 -12t-25 -21zM584 381l-37 -22q-135 -82 -170 -94q-14 -5 -21 -12t-6 -14.5t3 -9.5q5 -4 29 -6q25 -2 62 -26q3 -2 9 -5.5t8.5 -5.5t8 -6.5t11.5 -11.5t14 -17q7 -8 23 -26.5t17 -18.5q1 2 4 23q8 51 28 107q9 23 18 40t23 39.5t24 40.5q28 50 30 54q4 9 -2 14
q-7 6 -22 0q-10 -3 -54 -43zM379 586l-37 -22q-135 -82 -170 -94q-14 -5 -21 -12t-6 -14.5t3 -9.5q5 -4 29 -6q25 -2 62 -26q3 -2 9 -5.5t8.5 -5.5t8 -6.5t11.5 -11t14 -17.5q7 -8 23 -26.5t17 -17.5t4 22q8 51 28 107q9 23 17.5 40t23 39.5t23.5 40.5q29 50 31 54
q4 9 -2 14q-7 6 -22 1q-10 -4 -54 -44z" />
</svg>
