<?xml version="1.0" standalone="no"?>
<!DOCTYPE svg PUBLIC "-//W3C//DTD SVG 1.1//EN" "http://www.w3.org/Graphics/SVG/1.1/DTD/svg11.dtd" >
<svg xmlns="http://www.w3.org/2000/svg" xmlns:xlink="http://www.w3.org/1999/xlink" version="1.1" viewBox="0 0 1364 632">
   <path fill="currentColor"
d="M1035 46l36 22q135 83 170 95q14 4 21.5 11t6 14.5t-3.5 9.5q-5 5 -29 7q-25 1 -62 26q-3 2 -9 5.5t-8.5 5t-7.5 6t-11 11.5t-15 17q-7 9 -23 27.5t-16 17.5q-2 -2 -5 -23q-7 -51 -28 -106q-8 -24 -17 -41t-23 -39.5t-24 -40.5q-28 -50 -30 -53q-4 -9 1 -14q7 -7 23 -1
q9 4 54 43zM830 251l36 22q135 83 170 95q14 4 21 11t6 14.5t-3 9.5q-5 5 -29 7q-25 1 -62 26q-3 2 -9 5.5t-8.5 5t-7.5 6t-11 11.5t-15 17q-7 9 -23 27.5t-16 17.5q-2 -2 -5 -23q-8 -51 -28 -106q-8 -24 -17 -41t-23 -39.5t-24 -40.5q-28 -50 -30 -53q-4 -9 1 -14
q7 -7 22 -1q10 4 55 43zM1120 357l36 23q135 82 170 94q14 4 21 11.5t6 14.5t-3 9q-5 5 -29 7q-25 1 -62 26q-3 2 -9 5.5t-8.5 5t-7.5 6t-11.5 11.5t-14.5 18q-7 8 -23 26.5t-16 17.5q-2 -2 -5 -23q-8 -51 -28 -106q-8 -24 -17 -41t-23 -39.5t-24 -40.5q-29 -49 -30 -53
q-4 -9 1 -14q7 -7 22 -1q5 2 18.5 12.5t24.5 20.5zM379 586l-37 -22q-135 -82 -170 -94q-14 -5 -21 -12t-6 -14.5t3 -9.5q5 -4 29 -6q25 -2 62 -26q3 -2 9 -5.5t8.5 -5.5t8 -6.5t11.5 -11t14 -17.5q7 -8 23 -26.5t17 -17.5t4 22q8 51 28 107q9 23 17.5 40t23 39.5t23.5 40.5
q29 50 31 54q4 9 -2 14q-7 6 -22 1q-10 -4 -54 -44zM584 381l-37 -22q-135 -82 -170 -94q-14 -5 -21 -12t-6 -14.5t3 -9.5q5 -4 29 -6q25 -2 62 -26q3 -2 9 -5.5t8.5 -5.5t8 -6.5t11.5 -11.5t14 -17q7 -8 23 -26.5t17 -18.5q1 2 4 23q8 51 28 107q9 23 18 40t23 39.5
t24 40.5q28 50 30 54q4 9 -2 14q-7 6 -22 0q-10 -3 -54 -43zM294 275l-37 -22q-135 -83 -170 -94q-14 -5 -21 -12t-6 -14.5t3 -9.5q5 -5 29 -6q25 -2 62 -26q3 -2 9 -5.5t8.5 -5.5t8 -6.5t11.5 -11.5t14 -17q7 -8 23 -26.5t17 -18.5q1 2 4 23q8 51 28 107q9 23 18 40
t23 39.5t24 40.5q28 50 30 54q4 9 -1 14q-8 6 -23 0q-4 -1 -18 -12t-25 -21z" />
</svg>
