<?xml version="1.0" standalone="no"?>
<!DOCTYPE svg PUBLIC "-//W3C//DTD SVG 1.1//EN" "http://www.w3.org/Graphics/SVG/1.1/DTD/svg11.dtd" >
<svg xmlns="http://www.w3.org/2000/svg" xmlns:xlink="http://www.w3.org/1999/xlink" version="1.1" viewBox="0 0 960 896">
   <path fill="currentColor"
d="M430 497l-8 -31q-28 -116 -40 -141q-10 -21 0 -28q4 -3 6 -3q5 0 19 12t47 19q2 1 7 2l7.5 1.5t7.5 1t12 0t17 -1.5q8 -1 26.5 -2.5t18.5 -0.5q0 2 -10 15q-23 31 -42 71q-8 17 -12 30.5t-8.5 33t-9.5 34.5q-11 376 -12 379q-3 7 -8 7q-7 -1 -12 -12q-2 -3 -3.5 -99.5
t-1.5 -191.5zM602 707l-7 -31q-28 -116 -40 -141q-11 -21 -1 -28q5 -3 7 -3q5 0 18 12q9 8 26 13l-3 -32l-7 -31q-28 -116 -40 -141q-11 -21 -1 -28q5 -3 7 -3q5 0 18 12q15 12 47 19q3 1 8 2l7.5 1.5t7.5 1t11.5 0t16.5 -1.5q8 -1 26.5 -2.5t18.5 -0.5q0 2 -9 15
q-24 31 -42 71q-8 17 -12.5 30.5t-9 33t-8.5 34.5t-8 28q16 4 44 1q8 -1 26.5 -2.5t18.5 -0.5q0 2 -9 15q-24 31 -42 71q-8 17 -12.5 30.5t-9 33t-8.5 34.5q-11 166 -13 169q-2 7 -8 7q-7 -1 -12 -12q-1 -3 -2.5 -47t-2.5 -87zM790 365l-10 -41q-37 -154 -54 -187
q-14 -28 0 -38q6 -4 8 -4q7 0 25 16q19 16 63 25q3 1 9.5 2.5t10 2t10.5 1t16 0t22 -1.5q11 -1 35.5 -3t24.5 -1q0 3 -13 20q-31 41 -56 95q-11 22 -16.5 40.5t-11.5 44.5t-12 46q-15 501 -16 505q-4 9 -11 9q-10 -1 -16 -16q-2 -4 -4 -133t-3 -255zM669 275l-37 -23
q-135 -82 -170 -94q-14 -5 -21 -12t-6 -14t3 -9q5 -5 29 -7q25 -2 62 -26q3 -2 9 -5.5t8.5 -5.5t8 -6t11.5 -11t14 -18q7 -8 23 -26.5t17 -17.5q1 2 4 23q8 51 28 106q9 24 18 41t23 39.5t24 40.5q28 49 30 53q4 9 -1 14q-8 7 -23 1q-4 -2 -18 -12.5t-25 -20.5zM238 365
l-10 -41q-37 -154 -54 -187q-14 -28 0 -38q6 -4 8 -4q7 0 25 16q19 16 63 25q3 1 9.5 2.5t10 2t10.5 1t16 0t22 -1.5q11 -1 35.5 -3t24.5 -1q0 3 -13 20q-31 41 -56 95q-11 22 -16.5 40.5t-11.5 44.5t-12 46q-9 221 -14 319q1 1 1 2q9 24 18 41t23 39.5t24 40.5q28 49 30 53
q4 9 -1 14q-8 7 -23 1q-4 -2 -18 -12.5t-25 -20.5l-11 -10l-37 -23q-135 -82 -170 -94q-14 -5 -21 -12t-6 -14t3 -9q5 -5 29 -7q25 -2 62 -26q3 -2 9 -5.5t8.5 -5.5t8 -6t11.5 -11t14 -18q22 -26 37 -41z" />
</svg>
