<?xml version="1.0" standalone="no"?>
<!DOCTYPE svg PUBLIC "-//W3C//DTD SVG 1.1//EN" "http://www.w3.org/Graphics/SVG/1.1/DTD/svg11.dtd" >
<svg xmlns="http://www.w3.org/2000/svg" xmlns:xlink="http://www.w3.org/1999/xlink" version="1.1" viewBox="0 0 960 896">
   <path fill="currentColor"
d="M729 336q3 -3 8.5 -3.5t9.5 2t3 6.5q-3 12 -28.5 59t-36.5 85q-12 38 4 86t45 87q14 19 24 47t6 32q-1 1 -4 -1.5t-6.5 -7.5t-6.5 -12q-14 -26 -51 -65q-27 -27 -47.5 -41t-73.5 -42q-8 -5 -15 -10l-34 3l-31 8q-115 28 -140 40q-21 10 -28 0q-3 -4 -3 -6q0 -5 12 -19
t19 -47q0 -2 1.5 -7t2 -7.5t0.5 -7.5v-12t-1 -17q-1 -8 -2.5 -26t-0.5 -18q2 0 14 9q31 23 71 42q18 8 31.5 12t33 8.5t34.5 9.5q8 2 18 5q5 -4 13 -7q6 -3 20.5 -13.5t27 -21.5t27.5 -24t17 -14q12 -10 29.5 -48.5t37.5 -63.5zM655 492q1 -1 3 -2q-2 0 -3 2zM790 365
l-10 -41q-37 -154 -54 -187q-14 -28 0 -38q6 -4 8 -4q7 0 25 16q19 16 63 25q3 1 9.5 2.5t10 2t10.5 1t16 0t22 -1.5q11 -1 35.5 -3t24.5 -1q0 3 -13 20q-31 41 -56 95q-11 22 -16.5 40.5t-11.5 44.5t-12 46q-15 501 -16 505q-4 9 -11 9q-10 -1 -16 -16q-2 -4 -4 -133
t-3 -255zM669 275l-37 -23q-135 -82 -170 -94q-14 -5 -21 -12t-6 -14t3 -9q5 -5 29 -7q25 -2 62 -26q3 -2 9 -5.5t8.5 -5.5t8 -6t11.5 -11t14 -18q7 -8 23 -26.5t17 -17.5q1 2 4 23q8 51 28 106q9 24 18 41t23 39.5t24 40.5q28 49 30 53q4 9 -1 14q-8 7 -23 1
q-4 -2 -18 -12.5t-25 -20.5zM238 365l-10 -41q-37 -154 -54 -187q-14 -28 0 -38q6 -4 8 -4q7 0 25 16q19 16 63 25q3 1 9.5 2.5t10 2t10.5 1t16 0t22 -1.5q11 -1 35.5 -3t24.5 -1q0 3 -13 20q-31 41 -56 95q-11 22 -16.5 40.5t-11.5 44.5t-12 46q-9 221 -14 319q1 1 1 2
q9 24 18 41t23 39.5t24 40.5q28 49 30 53q4 9 -1 14q-8 7 -23 1q-4 -2 -18 -12.5t-25 -20.5l-11 -10l-37 -23q-135 -82 -170 -94q-14 -5 -21 -12t-6 -14t3 -9q5 -5 29 -7q25 -2 62 -26q3 -2 9 -5.5t8.5 -5.5t8 -6t11.5 -11t14 -18q22 -26 37 -41z" />
</svg>
