<?xml version="1.0" standalone="no"?>
<!DOCTYPE svg PUBLIC "-//W3C//DTD SVG 1.1//EN" "http://www.w3.org/Graphics/SVG/1.1/DTD/svg11.dtd" >
<svg xmlns="http://www.w3.org/2000/svg" xmlns:xlink="http://www.w3.org/1999/xlink" version="1.1" viewBox="0 0 1201 801">
   <path fill="currentColor"
d="M780 160l-41 10q-154 37 -187 54q-28 14 -38 0q-4 -6 -4 -8q0 -7 16 -26q16 -18 26 -62q0 -3 2 -10t2.5 -10t1 -10t0 -16t-2.5 -22q-1 -11 -2.5 -35.5t-0.5 -24.5q2 0 19 13q41 31 95 56q23 10 41 16t44 12t46 11q136 10 197 15q-18 -62 -27 -81q-14 -28 0 -38q6 -4 8 -4
q7 0 25 16q19 16 63 25q3 1 9.5 2.5t10 2t10.5 1t16 0t22 -1.5q11 -1 35.5 -3t24.5 -1q0 3 -13 20q-31 41 -56 95q-11 22 -16.5 40.5t-11.5 44.5t-12 46q-15 501 -16 505q-4 9 -11 9q-10 -1 -16 -16q-2 -4 -4 -133t-3 -255l-1 -127l-10 -41q-10 -42 -19 -75zM505 558l-24 6
q-70 17 -100 27q24 18 56 33q13 6 24 9.5t26.5 7t27.5 7.5q277 5 406 8q-2 -16 -4 -103q0 1 -1 1q-2 1 -37.5 2t-69.5 2h-34l-24 6q-93 23 -113 33q-16 8 -22 0q-3 -4 -3 -5q0 -4 10 -15q6 -8 11 -22zM515 528q91 6 124 8q4 -16 1 -38q0 -7 -1 -21h-1q-16 8 -22 0
q-3 -4 -3 -5q0 -4 10 -15q10 -12 15 -38q4 -20 2 -41q0 -7 -1 -21h-1q-16 8 -22 0q-3 -4 -3 -5q0 -4 10 -15q10 -12 15 -38q4 -20 2 -41q0 -6 -1 -20.5l-1 -14.5q2 0 12 7q25 19 57 34q13 6 24 9.5t26.5 7t27.5 7.5q82 5 118 8q-17 -67 -25 -83q-8 -17 0 -23q4 -2 5 -2
q4 0 15 9q12 10 38 15q20 5 41 3q6 -1 20.5 -2l14.5 -1q0 2 -7 12q-19 25 -34 57q-6 14 -9.5 25t-7 26.5t-6.5 27.5q-4 12 -7 22q13 3 36 1q6 -1 20.5 -2l14.5 -1q0 2 -7 12q-19 25 -34 57q-6 14 -9.5 25t-7 26.5t-6.5 27.5q-7 101 -10 128q48 1 48 2q6 2 6 6q0 6 -10 10
q-2 1 -121.5 2t-237.5 2h-118l-24 6q-93 23 -113 33q-16 8 -22 0q-3 -4 -3 -5q0 -4 10 -15q10 -12 15 -38q4 -20 2 -41q0 -7 -1 -21h-1q-16 8 -22 0q-3 -4 -3 -5q0 -4 10 -15q10 -12 15 -38q4 -20 2 -41q0 -6 -1 -20.5l-1 -14.5q2 0 12 7q25 19 57 34q13 6 24 9.5t26.5 7
t27.5 7.5zM775 438l-24 6q-70 17 -100 27q24 18 56 33q13 6 24 9.5t26.5 7t27.5 7.5q111 7 132 9v-19l-6 -25q-8 -33 -15 -58zM785 408q66 4 105 7q-7 -25 -12 -34q-8 -17 0 -23q4 -2 5 -2q4 0 15 9q8 6 21 11l-2 -26l-6 -25q-2 -6 -3 -10l-133 3l-24 6q-70 17 -100 27
q24 18 56 33q13 6 24 9.5t26.5 7t27.5 7.5zM294 754l-37 -23q-135 -82 -170 -94q-14 -5 -21 -12t-6 -14t3 -9q5 -5 29 -7q25 -2 62 -26q3 -2 9 -5.5t8.5 -5.5t8 -6t11.5 -11t14 -18q22 -26 37 -41l-3 -212l-10 -41q-37 -154 -54 -187q-14 -28 0 -38q6 -4 8 -4q7 0 25 16
q19 16 63 25q3 1 9.5 2.5t10 2t10.5 1t16 0t22 -1.5q11 -1 35.5 -3t24.5 -1q0 3 -13 20q-31 41 -56 95q-11 22 -16.5 40.5t-11.5 44.5t-12 46q-9 221 -14 319q1 1 1 2q9 24 18 41t23 39.5t24 40.5q28 49 30 53q4 9 -1 14q-8 7 -23 1q-4 -2 -18 -12.5t-25 -20.5z" />
</svg>
