<?xml version="1.0" standalone="no"?>
<!DOCTYPE svg PUBLIC "-//W3C//DTD SVG 1.1//EN" "http://www.w3.org/Graphics/SVG/1.1/DTD/svg11.dtd" >
<svg xmlns="http://www.w3.org/2000/svg" xmlns:xlink="http://www.w3.org/1999/xlink" version="1.1" viewBox="0 0 960 896">
   <path fill="currentColor"
d="M536 449q2 -2 3 -4q-1 1 -3 4zM790 365l-10 -41q-37 -154 -54 -187q-14 -28 0 -38q6 -4 8 -4q7 0 25 16q19 16 63 25q3 1 9.5 2.5t10 2t10.5 1t16 0t22 -1.5q11 -1 35.5 -3t24.5 -1q0 3 -13 20q-31 41 -56 95q-11 22 -16.5 40.5t-11.5 44.5t-12 46q-15 501 -16 505
q-4 9 -11 9q-10 -1 -16 -16q-2 -4 -4 -133t-3 -255zM628 250q-132 -80 -166 -92q-14 -5 -21 -12t-6 -14t3 -9q5 -5 29 -7q25 -2 62 -26q3 -2 9 -5.5t8.5 -5.5t8 -6t11.5 -11t14 -18q7 -8 23 -26.5t17 -17.5q1 2 4 23q8 51 28 106q9 24 18 41t23 39.5t24 40.5q28 49 30 53
q4 9 -1 14q-8 7 -23 1q-10 -4 -54 -43l-13 -8q-6 12 -22.5 42t-32 63t-25.5 67q-16 51 5 115t60 116q19 25 32.5 62.5t7.5 42.5q-2 2 -5.5 -1.5t-8 -10.5t-9.5 -16q-18 -34 -68 -86q-35 -36 -62 -55t-98 -56q-14 -8 -23 -15.5t-12 -15.5t3.5 -16.5t24.5 -15.5q8 -3 27 -17.5
t35.5 -29t37 -31.5t22.5 -19q16 -14 38.5 -62.5t44.5 -77.5zM238 365l-10 -41q-37 -154 -54 -187q-14 -28 0 -38q6 -4 8 -4q7 0 25 16q19 16 63 25q3 1 9.5 2.5t10 2t10.5 1t16 0t22 -1.5q11 -1 35.5 -3t24.5 -1q0 3 -13 20q-31 41 -56 95q-11 22 -16.5 40.5t-11.5 44.5
t-12 46q-9 221 -14 319q1 1 1 2q9 24 18 41t23 39.5t24 40.5q28 49 30 53q4 9 -1 14q-8 7 -23 1q-10 -4 -54 -43l-37 -23q-135 -82 -170 -94q-14 -5 -21 -12t-6 -14t3 -9q5 -5 29 -7q25 -2 62 -26q3 -2 9 -5.5t8.5 -5.5t8 -6t11.5 -11t14 -18q22 -26 37 -41z" />
</svg>
