<?xml version="1.0" standalone="no"?>
<!DOCTYPE svg PUBLIC "-//W3C//DTD SVG 1.1//EN" "http://www.w3.org/Graphics/SVG/1.1/DTD/svg11.dtd" >
<svg xmlns="http://www.w3.org/2000/svg" xmlns:xlink="http://www.w3.org/1999/xlink" version="1.1" viewBox="0 0 1512 964">
   <path fill="currentColor"
d="M1037 296q3 -4 10.5 -4.5t13 2.5t4.5 9q-4 15 -38 77.5t-49 113.5q-6 21 -6 44q10 -6 28 -20.5t34 -27.5t33 -28t20 -17q16 -14 39.5 -65t50.5 -84q3 -4 10.5 -4.5t13 2.5t4.5 9q-4 15 -38 77.5t-49 113.5q-6 21 -6 44q10 -6 28 -20.5t34 -27.5t33 -28t20 -17
q16 -14 39.5 -65t50.5 -84q3 -3 8 -4q-32 -126 -46 -155q-14 -28 -1 -38q7 -4 9 -4q7 0 25 16q19 16 63 25q3 1 9.5 2.5t10 2t10 1t16 0t22.5 -1.5q11 -1 35 -3t24 -1q0 3 -12 20q-31 41 -56 95q-11 22 -16.5 40.5t-11.5 44.5t-12 46q-15 501 -16 505q-4 9 -11 9
q-10 -1 -17 -16q-1 -3 -2 -64l-8 -14q-18 -34 -68 -86q-34 -35 -60 -53.5t-88 -51.5q19 60 59 114q19 25 32 62.5t8 42.5q-2 2 -5.5 -1.5t-8 -10.5t-9.5 -16q-18 -34 -68 -86q-34 -35 -60 -53.5t-88 -51.5q19 60 59 114q19 25 32 62.5t8 42.5q-2 2 -5.5 -1.5t-8 -10.5
t-9.5 -16q-18 -34 -68 -86q-35 -36 -62 -55t-97 -56q-7 139 -7 142q-2 4 -4 6q3 9 7 20q9 24 17.5 41t23 39.5t24.5 40.5q28 49 30 53q4 9 -2 14q-7 7 -22 1q-5 -2 -18.5 -12.5t-24.5 -20.5l-11 -10l-37 -23q-90 -55 -137 -79q1 11 -1 13q-1 2 -4.5 -1t-7.5 -8.5t-8 -13.5
q-7 -3 -12 -5q-14 -5 -21 -12t-6 -14t3 -9t7 -3q-21 -26 -42 -48q-34 -35 -60 -53.5t-88 -51.5q19 60 59 114q19 25 32.5 62.5t7.5 42.5q-2 2 -5.5 -1.5t-8 -10.5t-9.5 -16q-18 -34 -68 -86q-35 -36 -62 -55t-97 -56q-3 61 -5 96q1 1 1 2q9 24 18 41t23 39.5t24 40.5
q28 49 30 53q4 9 -1 14q-8 7 -23 1q-4 -2 -18 -12.5t-25 -20.5l-11 -10l-37 -23q-135 -82 -170 -94q-14 -5 -21 -12t-6 -14t3 -9q5 -5 29 -7q25 -2 62 -26q3 -2 9 -5.5t8.5 -5.5t8 -6t11.5 -11t14 -18q22 -26 37 -41l-3 -212l-10 -41q-37 -154 -54 -187q-14 -28 0 -38
q6 -4 8 -4q7 0 25 16q19 16 63 25q3 1 9.5 2.5t10 2t10.5 1t16 0t22 -1.5q11 -1 35.5 -3t24.5 -1q0 3 -13 20q-31 41 -56 95q-11 22 -16.5 40.5t-11.5 44.5t-12 46q-3 73 -6 154q14 -9 37 -28t48.5 -41l25.5 -22q16 -14 39.5 -65t50.5 -84q4 -4 11 -4.5t12.5 2.5t4.5 9
q-4 15 -38 77.5t-49 113.5q-6 21 -6 44q10 -6 28.5 -20.5t34 -27.5t32.5 -28t20 -17q16 -14 39.5 -65t50.5 -84q4 -4 11 -4.5t12.5 2.5t4.5 9q-4 15 -38 77.5t-49 113.5q-6 21 -6 44q10 -6 28.5 -20.5t34 -27.5t32.5 -28t20 -17q16 -14 39.5 -65t50.5 -84q3 -3 8 -4
q-32 -126 -46 -155q-14 -28 -1 -38q7 -4 9 -4q7 0 25 16q19 16 63 25q3 1 9.5 2.5t10 2t10 1t16 0t22.5 -1.5q11 -1 35 -3t24 -1q0 3 -12 20q-31 41 -56 95q-11 22 -16.5 40.5t-11.5 44.5t-12 46q-3 73 -6 154q14 -9 36.5 -28t48.5 -41l26 -22q16 -14 39.5 -65t50.5 -84z
M1343 365l-9 -36q-4 9 -21.5 40.5t-31.5 62t-23 62.5q-16 51 5 115t60 116q13 16 24 41zM1222 275l-37 -23q-135 -82 -170 -94q-14 -5 -21 -12t-6 -14t3 -9q5 -5 29 -7q25 -2 62 -26q3 -2 9 -5.5t8.5 -5.5t8 -6t11.5 -11t14 -18q7 -8 23 -26.5t17 -17.5q1 2 4 23
q8 51 28 106q9 24 17.5 41t23 39.5t24.5 40.5q28 49 30 53q4 9 -2 14q-7 7 -22 1q-5 -2 -18.5 -12.5t-24.5 -20.5zM791 365l-9 -35q-4 8 -21.5 40t-31.5 62t-23 62q-13 44 0.5 98t44.5 104l6 -8q25 -30 38 -43zM938 504q2 -2 3 -4q-2 1 -3 4zM1078 504q2 -2 3 -4q-2 1 -3 4z
M1218 504q2 -2 3 -4q-2 1 -3 4zM670 275l-37 -23q-135 -82 -170 -94q-14 -5 -21 -12t-6 -14t3 -9q5 -5 29 -7q25 -2 62 -26q3 -2 9 -5.5t8.5 -5.5t8 -6t11.5 -11t14 -18q7 -8 23 -26.5t17 -17.5q1 2 4 23q8 51 28 106q9 24 18 41t23 39.5t24 40.5q28 49 30 53q4 9 -1 14
q-8 7 -23 1q-4 -2 -18 -12.5t-25 -20.5zM386 504q2 -2 3 -4q-1 1 -3 4zM526 504q2 -2 3 -4q-1 1 -3 4zM652 759q23 -4 54 -25q3 -1 9.5 -5t10.5 -7l-6 -6q-34 -35 -60 -53.5t-88 -51.5q19 60 59 114q11 14 21 34zM666 504q2 -2 3 -4q-1 1 -3 4z" />
</svg>
