<?xml version="1.0" standalone="no"?>
<!DOCTYPE svg PUBLIC "-//W3C//DTD SVG 1.1//EN" "http://www.w3.org/Graphics/SVG/1.1/DTD/svg11.dtd" >
<svg xmlns="http://www.w3.org/2000/svg" xmlns:xlink="http://www.w3.org/1999/xlink" version="1.1" viewBox="0 0 960 896">
   <path fill="currentColor"
d="M624 296q4 -4 11 -4.5t12.5 2.5t4.5 9q-4 15 -38 77.5t-49 113.5q-6 21 -6 44q10 -6 28.5 -20.5t34 -27.5t32.5 -28t20 -17q16 -14 39.5 -65t50.5 -84q3 -3 8 -4q-31 -126 -46 -155q-14 -28 0 -38q6 -4 8 -4q7 0 25 16q19 16 63 25q3 1 9.5 2.5t10 2t10.5 1t16 0t22 -1.5
q11 -1 35.5 -3t24.5 -1q0 3 -13 20q-31 41 -56 95q-11 22 -16.5 40.5t-11.5 44.5t-12 46q-15 501 -16 505q-4 9 -11 9q-10 -1 -16 -16q-2 -3 -3 -64l-8 -14q-18 -34 -68 -86q-34 -35 -60 -53.5t-88 -51.5q19 60 59 114q19 25 32.5 62.5t7.5 42.5q-2 2 -5.5 -1.5t-8 -10.5
t-9.5 -16q-18 -34 -68 -86q-34 -35 -60 -53.5t-88 -51.5q19 60 59 114q19 25 32.5 62.5t7.5 42.5q-2 2 -5.5 -1.5t-8 -10.5t-9.5 -16q-18 -34 -68 -86q-35 -36 -62 -55t-97 -56q-3 61 -5 96q1 1 1 2q9 24 18 41t23 39.5t24 40.5q28 49 30 53q4 9 -1 14q-8 7 -23 1
q-4 -2 -18 -12.5t-25 -20.5l-11 -10l-37 -23q-135 -82 -170 -94q-14 -5 -21 -12t-6 -14t3 -9q5 -5 29 -7q25 -2 62 -26q3 -2 9 -5.5t8.5 -5.5t8 -6t11.5 -11t14 -18q22 -26 37 -41l-3 -212l-10 -41q-37 -154 -54 -187q-14 -28 0 -38q6 -4 8 -4q7 0 25 16q19 16 63 25
q3 1 9.5 2.5t10 2t10.5 1t16 0t22 -1.5q11 -1 35.5 -3t24.5 -1q0 3 -13 20q-31 41 -56 95q-11 22 -16.5 40.5t-11.5 44.5t-12 46q-3 73 -6 154q14 -9 37 -28t48.5 -41l25.5 -22q16 -14 39.5 -65t50.5 -84q4 -4 11 -4.5t12.5 2.5t4.5 9q-4 15 -38 77.5t-49 113.5q-6 21 -6 44
q10 -6 28.5 -20.5t34 -27.5t32.5 -28t20 -17q16 -14 39.5 -65t50.5 -84zM665 504q2 -2 3 -4q-1 1 -3 4zM525 504q2 -2 3 -4q-1 1 -3 4zM385 504q2 -2 3 -4q-1 1 -3 4zM781 329q-4 9 -21.5 40.5t-31.5 62t-23 62.5q-16 51 5 115t60 116q13 16 24 41l-4 -401zM669 275l-37 -23
q-135 -82 -170 -94q-14 -5 -21 -12t-6 -14t3 -9q5 -5 29 -7q25 -2 62 -26q3 -2 9 -5.5t8.5 -5.5t8 -6t11.5 -11t14 -18q7 -8 23 -26.5t17 -17.5q1 2 4 23q8 51 28 106q9 24 18 41t23 39.5t24 40.5q28 49 30 53q4 9 -1 14q-8 7 -23 1q-4 -2 -18 -12.5t-25 -20.5z" />
</svg>
