<?xml version="1.0" standalone="no"?>
<!DOCTYPE svg PUBLIC "-//W3C//DTD SVG 1.1//EN" "http://www.w3.org/Graphics/SVG/1.1/DTD/svg11.dtd" >
<svg xmlns="http://www.w3.org/2000/svg" xmlns:xlink="http://www.w3.org/1999/xlink" version="1.1" viewBox="0 0 2380 2310">
   <path fill="currentColor"
d="M1347 731l41 -10q154 -38 187 -54q28 -14 37 -1q5 7 5 9q0 7 -16 25q-16 19 -26 63q0 3 -2 9.5t-2.5 10t-1 10t0 16t2.5 22.5q1 11 2.5 35t0.5 24q-2 0 -19 -12q-41 -31 -95 -56q-23 -11 -41 -16.5t-44 -11.5t-46 -12q-501 -15 -505 -16q-9 -4 -9 -11q0 -10 16 -17
q4 -1 132.5 -3t255.5 -3zM1437 609l22 -36q83 -135 95 -170q4 -14 11 -21t14.5 -6t9.5 3q5 5 6 29q2 25 26 62q2 3 5.5 9t5.5 8.5t6.5 8t11.5 11.5t17 14q9 7 27 23t18 17q-2 1 -23 4q-51 8 -106 28q-24 9 -41 17.5t-39.5 23t-40.5 23.5q-50 29 -54 30q-9 5 -13 -1
q-7 -7 -1 -22q1 -5 12 -18.5t21 -24.5zM1347 179l41 -10q154 -38 187 -54q28 -14 37 -1q5 7 5 9q0 7 -16 25q-16 19 -26 63q0 3 -2 9.5t-2.5 10t-1 10t0 16t2.5 22.5q1 11 2.5 35t0.5 24q-2 0 -19 -12q-41 -31 -95 -56q-23 -11 -41 -16.5t-44 -11.5t-46 -12
q-221 -9 -319 -14q-1 1 -2 1q-24 9 -41 17.5t-39.5 23t-40.5 23.5q-50 29 -54 30q-9 5 -13 -1q-7 -7 -1 -22q1 -5 12 -18.5t21 -24.5l10 -12l22 -36q83 -135 95 -170q4 -14 11 -21t14.5 -6t9.5 3q5 5 6 29q2 25 26 62q2 3 5.5 9t5.5 8.5t6.5 8t11.5 11.5t17 14q26 22 42 36z
M1638 1287l10 42q38 154 54 187q14 28 1 37q-7 5 -9 5q-7 0 -25 -16q-19 -17 -63 -26q-3 -1 -9.5 -2.5t-10 -2t-10 -1t-16 0t-22.5 2.5q-11 1 -35 2.5t-24 0.5q0 -2 12 -19q31 -42 56 -95q11 -23 16.5 -41.5t11.5 -44t12 -45.5q15 -501 16 -505q4 -9 11 -9q10 0 17 15
q1 5 3 133.5t3 255.5zM1760 1378l36 22q135 83 170 94q14 5 21 12t6 14.5t-3 9.5q-5 5 -29 6q-25 2 -62 26q-3 2 -9 5.5t-8.5 5.5t-8 6.5t-11.5 11.5t-14 17q-7 8 -23 26.5t-17 18.5q-1 -2 -4 -23q-8 -51 -28 -107q-9 -23 -17.5 -40t-23 -39.5t-23.5 -40.5q-29 -50 -30 -54
q-5 -9 1 -14q7 -6 22 0q5 1 18.5 12t24.5 21zM2190 1287l10 42q38 154 54 187q14 28 1 37q-7 5 -9 5q-7 0 -25 -16q-19 -17 -63 -26q-3 -1 -9.5 -2.5t-10 -2t-10 -1t-16 0t-22.5 2.5q-11 1 -35 2.5t-24 0.5q0 -2 12 -19q31 -42 56 -95q11 -23 16.5 -41.5t11.5 -44t12 -45.5
q9 -222 14 -319q-1 -2 -1 -3q-9 -23 -17.5 -40t-23 -39.5t-23.5 -40.5q-29 -50 -30 -54q-5 -9 1 -14q7 -6 22 0q5 1 18.5 12t24.5 21l12 10l36 22q135 83 170 94q14 5 21 12t6 14.5t-3 9.5q-5 5 -29 6q-25 2 -62 26q-3 2 -9 5.5t-8.5 5.5t-8 6.5t-11.5 11.5t-14 17
q-21 26 -36 42zM1082 1579l-42 10q-154 38 -187 54q-28 14 -37 0q-5 -6 -5 -8q0 -7 16 -25q17 -19 26 -63q1 -3 2.5 -9.5t2 -10t1 -10t0 -16t-1.5 -22.5q-2 -11 -3.5 -35.5t-0.5 -24.5q2 0 19 13q42 31 95 56q23 11 41.5 16.5t44 11.5t45.5 12q501 15 505 16q9 4 9 11
q0 10 -15 16q-5 2 -133.5 4t-255.5 3zM991 1700l-22 37q-83 135 -94 170q-5 14 -12 21t-14.5 6t-9.5 -3q-5 -5 -6 -29q-2 -25 -26 -62q-2 -3 -5.5 -9t-5.5 -8.5t-6.5 -8t-11.5 -11.5t-17 -14q-8 -7 -26.5 -23t-18.5 -17q2 -1 23 -4q51 -8 107 -28q23 -9 40 -18t39.5 -23
t40.5 -24q50 -28 54 -30q9 -4 14 1q6 8 0 23q-1 4 -12 18t-21 25zM1082 2131l-42 10q-154 38 -187 54q-28 14 -37 0q-5 -6 -5 -8q0 -7 16 -25q17 -19 26 -63q1 -3 2.5 -9.5t2 -10t1 -10t0 -16t-1.5 -22.5q-2 -11 -3.5 -35.5t-0.5 -24.5q2 0 19 13q42 31 95 56
q23 11 41.5 16.5t44 11.5t45.5 12q222 9 319 14q1 -1 3 -1q23 -9 40 -18t39.5 -23t40.5 -24q50 -28 54 -30q9 -4 14 1q6 8 0 23q-1 4 -12 18t-21 25l-10 11l-22 37q-83 135 -94 170q-5 14 -12 21t-14.5 6t-9.5 -3q-5 -5 -6 -29q-2 -25 -26 -62q-2 -3 -5.5 -9t-5.5 -8.5
t-6.5 -8t-11.5 -11.5t-17 -14q-26 -22 -42 -37zM790 1022l-10 -41q-37 -154 -54 -187q-14 -28 0 -38q6 -4 8 -4q7 0 25 16q19 16 63 25q3 1 9.5 2.5t10 2t10.5 1t16 0t22 -1.5q11 -1 35.5 -3t24.5 -1q0 3 -13 20q-31 41 -56 95q-11 22 -16.5 40.5t-11.5 44.5t-12 46
q-15 501 -16 505q-4 9 -11 9q-10 -1 -16 -16q-2 -4 -4 -133t-3 -255zM669 932l-37 -23q-135 -82 -170 -94q-14 -5 -21 -12t-6 -14t3 -9q5 -5 29 -7q25 -2 62 -26q3 -2 9 -5.5t8.5 -5.5t8 -6t11.5 -11t14 -18q7 -8 23 -26.5t17 -17.5q1 2 4 23q8 51 28 106q9 24 18 41
t23 39.5t24 40.5q28 49 30 53q4 9 -1 14q-8 7 -23 1q-4 -2 -18 -12.5t-25 -20.5zM238 1022l-10 -41q-37 -154 -54 -187q-14 -28 0 -38q6 -4 8 -4q7 0 25 16q19 16 63 25q3 1 9.5 2.5t10 2t10.5 1t16 0t22 -1.5q11 -1 35.5 -3t24.5 -1q0 3 -13 20q-31 41 -56 95
q-11 22 -16.5 40.5t-11.5 44.5t-12 46q-9 221 -14 319q1 1 1 2q9 24 18 41t23 39.5t24 40.5q28 49 30 53q4 9 -1 14q-8 7 -23 1q-4 -2 -18 -12.5t-25 -20.5l-11 -10l-37 -23q-135 -82 -170 -94q-14 -5 -21 -12t-6 -14t3 -9q5 -5 29 -7q25 -2 62 -26q3 -2 9 -5.5t8.5 -5.5
t8 -6t11.5 -11t14 -18q22 -26 37 -41z" />
</svg>
