<?xml version="1.0" standalone="no"?>
<!DOCTYPE svg PUBLIC "-//W3C//DTD SVG 1.1//EN" "http://www.w3.org/Graphics/SVG/1.1/DTD/svg11.dtd" >
<svg xmlns="http://www.w3.org/2000/svg" xmlns:xlink="http://www.w3.org/1999/xlink" version="1.1" viewBox="0 0 1195 802">
   <path fill="currentColor"
d="M300 6q4 -4 11 -4.5t12.5 2.5t4.5 9q-4 15 -38 77.5t-49 113.5q-16 51 5 115t60 116q19 25 32.5 62.5t7.5 42.5q-2 2 -5.5 -1.5t-8 -10.5t-9.5 -16q-18 -34 -68 -86q-35 -36 -62 -55t-98 -56q-14 -8 -23 -15.5t-12 -15.5t3.5 -16.5t24.5 -15.5q8 -3 27 -17.5t35.5 -29
t37 -31.5t22.5 -19q16 -14 39.5 -65t50.5 -84zM584 161l-41 10q-154 37 -187 54q-28 14 -37 0q-5 -6 -5 -8q0 -7 16 -26q16 -18 26 -62q0 -3 2 -10t2.5 -10t1 -10t0 -16t-2.5 -22q-1 -11 -2.5 -35.5t-0.5 -24.5q2 0 19 13q41 31 95 56q23 10 41 16t44 12t46 11q237 8 386 13
q-17 -61 -26 -80q-14 -28 0 -37q6 -5 8 -5q7 0 25 16q19 17 63 26q3 1 9.5 2.5t10 2t10.5 1t16 0t22 -2.5q11 -1 35.5 -2.5t24.5 -0.5q0 2 -13 19q-31 42 -56 95q-11 23 -16.5 41.5t-11.5 44t-12 45.5q-15 501 -16 505q-4 9 -11 9q-10 0 -16 -15q-2 -3 -3 -61q-20 1 -76 2.5
t-103 2.5l-47 1l-41 10q-154 37 -187 54q-28 14 -38 0q-4 -6 -4 -8q0 -7 16 -26q16 -18 26 -62q0 -3 2 -10t2.5 -10t1 -10t0 -16t-2.5 -22q-1 -13 -3 -36q-28 14 -38 0q-4 -6 -4 -8q0 -7 16 -26q16 -18 26 -62q0 -3 2 -10t2.5 -10t1 -10t0 -16t-2.5 -22q-1 -13 -3 -36
q-28 14 -38 0q-4 -6 -4 -8q0 -7 16 -26q16 -18 26 -62q0 -3 2 -10t2.5 -10t1 -10t0 -16t-2.5 -22q-1 -11 -2.5 -35.5t-0.5 -24.5q2 0 19 13q41 31 95 56q23 10 41 16t44 12t46 11q148 11 204 15v-23l-10 -42l-18 -72zM385 551l-10 -41q-38 -154 -54 -187q-14 -28 0 -38
q6 -4 8 -4q7 0 25 16q19 16 63 25q3 1 9.5 2.5t10 2t10.5 1t16 0t22 -1.5q11 -1 35.5 -3t24.5 -1q0 3 -13 20q-31 41 -56 95q-11 22 -16.5 40.5t-11.5 44.5t-12 46q-15 221 -16 225q-4 9 -11 9q-10 -1 -16 -16q-2 -4 -4 -63t-3 -115zM201 214q2 -2 3 -4q-1 1 -3 4zM821 679
q157 11 208 16q-1 -64 -2 -170l-223 6l-41 10q-117 28 -165 45q40 29 92 54q23 10 41 16t44 12t46 11zM821 479q152 11 206 15q-1 -79 -2 -169l-221 6l-41 10q-117 28 -165 45q40 29 92 54q23 10 41 16t44 12t46 11z" />
</svg>
