<?xml version="1.0" standalone="no"?>
<!DOCTYPE svg PUBLIC "-//W3C//DTD SVG 1.1//EN" "http://www.w3.org/Graphics/SVG/1.1/DTD/svg11.dtd" >
<svg xmlns="http://www.w3.org/2000/svg" xmlns:xlink="http://www.w3.org/1999/xlink" version="1.1" viewBox="0 0 1808 801">
   <path fill="currentColor"
d="M300 5q4 -4 11 -4.5t12.5 2.5t4.5 9q-4 15 -38 77.5t-49 113.5q-18 58 13 137q21 -44 46 -75q4 -4 11 -4.5t12.5 2.5t4.5 9q-3 11 -11 27t-21.5 40.5t-22.5 42.5q15 28 33 52q19 25 32.5 62.5t7.5 42.5q-2 2 -5.5 -1.5t-8 -10.5t-9.5 -16q-18 -34 -68 -86l-1 -1
q-8 20 -13 39q-16 51 5 115t60 116q19 25 32.5 62.5t7.5 42.5q-2 2 -5.5 -1.5t-8 -10.5t-9.5 -16q-18 -34 -68 -86q-35 -36 -62 -55t-98 -56q-14 -8 -23 -15.5t-12 -15.5t3.5 -16.5t24.5 -15.5q8 -3 27 -17.5t35.5 -29t37 -31.5t22.5 -19q8 -7 16 -18q-22 -20 -48.5 -36
t-82.5 -46q-14 -8 -23 -15.5t-12 -15.5t3.5 -16.5t24.5 -15.5q8 -3 27 -17.5t35.5 -29t37 -31.5t22.5 -19q16 -14 39.5 -65t50.5 -84zM819 730l-41 10q-154 37 -187 54q-28 14 -38 0q-4 -6 -4 -8q0 -7 16 -26q16 -18 26 -62q0 -3 2.5 -11.5t2 -10.5t0.5 -13.5t-1 -20.5l-4 2
q-28 14 -38 0q-4 -6 -4 -8q0 -7 16 -26q16 -18 26 -62q0 -3 2.5 -11.5t2 -10.5t0.5 -13.5t-1 -20.5l-4 2q-10 5 -19 6q-3 3 -5 7q-31 41 -56 95q-11 22 -16.5 40.5t-11.5 44.5t-12 46q-15 55 -16 59q-4 9 -11 9q-10 -1 -16 -16q-2 -4 -4 -21.5t-3 -32.5l-1 -15l-10 -41
q-38 -154 -54 -187q-14 -28 0 -38q6 -4 8 -4q7 0 25 16q12 10 34 18l-3 -44l-10 -41q-31 -129 -48 -174q-3 1 -6 3q-28 14 -37 0q-5 -6 -5 -8q0 -7 16 -26q16 -18 26 -62q0 -3 2 -10t2.5 -10t1 -10t0 -16t-2.5 -22q-1 -11 -2.5 -35.5t-0.5 -24.5q2 0 19 13q41 31 95 56
q23 10 41 16t44 12t46 11q237 8 386 13q-17 -61 -26 -79q-14 -28 0 -38q6 -4 8 -4q7 0 25 16q19 16 63 25q3 1 9.5 2.5t10 2t10.5 1t16 0t22 -1.5q11 -1 35.5 -3t24.5 -1q0 3 -13 20q-31 41 -56 95q-11 22 -16.5 40.5t-11.5 44.5t-12 46q-5 20 -10 37q21 5 59 1
q11 -1 35.5 -3t24.5 -1q0 3 -13 20q-31 41 -56 95q-11 22 -16.5 40.5t-11.5 44.5t-12 46q-4 70 -9 132q3 3 3 7t-4 8q-6 76 -6 78q-4 9 -11 9q-10 -1 -16 -16q-2 -4 -4 -60zM836 678q129 9 192 14q-1 -50 -3 -117l-206 5l-41 10q-67 16 -113 29l40 20q23 10 41 16t44 12
t46 11zM836 528q123 9 187 14l-8 -33q-11 -47 -21 -83l-175 4l-41 10q-67 16 -113 29l40 20q23 10 41 16t44 12t46 11zM836 378q83 6 148 11q-15 -51 -23 -67q-14 -28 0 -38q6 -4 8 -4q7 0 25 16q12 10 34 18q-1 -17 -3 -39l-206 5l-41 10q-67 16 -113 29l40 20q23 10 41 16
t44 12t46 11zM595 342l-4 2q-28 14 -38 0q-4 -6 -4 -8q0 -7 16 -26q16 -18 26 -62q0 -3 2 -10t2.5 -10t1 -10t0 -16t-2.5 -22q0 -6 -1 -20h-9l-41 10q-71 17 -118 30q12 4 27 7q3 1 9.5 2.5t10 2t10.5 1t16 0t22 -1.5q11 -1 35.5 -3t24.5 -1q0 3 -13 20q-31 41 -56 95
q-11 22 -16.5 40.5t-11.5 44.5t-12 46q-5 20 -10 37q21 5 59 1q9 -1 30 -2q-1 -2 -1 -3q0 -7 16 -26q16 -18 26 -62q0 -3 2.5 -11.5t2 -10.5t0.5 -13.5t-1 -20.5zM836 228q117 9 182 13l-3 -12q-10 -41 -19 -73q-119 2 -347 3q23 15 56 30q23 10 41 16t44 12t46 11zM201 213
q2 -2 3 -4q-1 1 -3 4zM201 473q2 -2 3 -4q-1 1 -3 4zM1393 696l-36 -22q-136 -82 -171 -94q-13 -5 -20.5 -12t-6 -14.5t3.5 -9.5q4 -4 29 -6q24 -2 62 -26q3 -2 8.5 -5.5t8.5 -5.5t8 -6.5t11 -11t15 -17.5q6 -8 22 -26.5t17 -18.5q2 2 5 23q7 51 27 107q9 23 18 40t23 39.5
t24 40.5q28 50 30 54q4 9 -1 14q-7 6 -23 0q-4 -1 -17.5 -12t-25.5 -21zM1556 534l-37 -23q-135 -82 -170 -94q-14 -5 -21 -12t-6 -14t3 -9q5 -5 29 -7q16 -1 37 -11l-33 -28l-37 -23q-135 -82 -170 -94q-14 -4 -21 -11.5t-6 -14.5t3 -9q5 -5 29 -7q25 -2 62 -26
q3 -2 9 -5.5t8.5 -5.5t8 -6t11.5 -11t14 -18q7 -8 23 -26.5t17 -17.5q1 2 4 23q8 51 28 106q9 24 18 41t23 39.5t24 40.5t19 33q18 -11 42 -41q7 -8 23 -26.5t17 -17.5q1 2 4 23q8 51 28 106q9 24 18 41t23 39.5t24 40.5q28 49 30 53q4 9 -1 14q-8 7 -23 1q-4 -2 -18 -12.5
t-25 -20.5zM1718 371l-36 -22q-135 -83 -170 -95q-14 -4 -21 -11t-6 -14.5t3 -9.5q5 -5 29 -6q25 -2 62 -26q3 -2 9 -5.5t8.5 -5.5t7.5 -6.5t11 -11.5t15 -17q7 -8 23 -26.5l16 -18.5q2 2 5 23q8 51 28 106q8 24 17 41t23 39.5t24 40.5q28 50 30 54q4 9 -1 14q-7 6 -22 0
q-5 -1 -18.5 -12t-24.5 -21z" />
</svg>
