<?xml version="1.0" standalone="no"?>
<!DOCTYPE svg PUBLIC "-//W3C//DTD SVG 1.1//EN" "http://www.w3.org/Graphics/SVG/1.1/DTD/svg11.dtd" >
<svg xmlns="http://www.w3.org/2000/svg" xmlns:xlink="http://www.w3.org/1999/xlink" version="1.1" viewBox="0 0 941 801">
   <path fill="currentColor"
d="M680 385l-42 10q-153 37 -187 54q-28 14 -37 0q-4 -6 -4 -8q0 -7 15 -26q17 -18 26 -62q1 -3 2.5 -10t2 -10t1 -10t0 -16t-1.5 -22q-1 -11 -3 -35.5t-1 -24.5q2 0 19 13q42 31 95 56q23 10 41.5 16t44 12t45.5 11q221 16 225 17q10 4 9 11q0 9 -15 16q-4 2 -63 4t-116 3z
M280 550l-10 -41q-37 -154 -53 -187q-14 -28 -1 -38q6 -4 9 -4q7 0 25 16q19 16 62 25q4 1 10.5 2.5t9.5 2t10 1t16 0t23 -1.5q10 -1 34.5 -3t24.5 -1q0 3 -13 20q-31 41 -56 95q-10 22 -16 40.5t-11.5 44.5t-11.5 46q-15 221 -17 225q-3 9 -10 9q-10 -1 -17 -16
q-2 -4 -4 -63t-3 -115zM130 270l-10 -41q-37 -154 -53 -187q-14 -28 -1 -38q6 -4 9 -4q7 0 25 16q19 16 62 25q4 1 10.5 2.5t9.5 2t10 1t16 0t23 -1.5q10 -1 34.5 -3t24.5 -1q0 3 -13 20q-31 41 -56 95q-10 22 -16 40.5t-11.5 44.5t-11.5 46q-15 501 -17 505q-3 9 -10 9
q-10 -1 -17 -16q-2 -4 -4 -133t-3 -255zM535 160l-41 10q-154 37 -188 54q-28 14 -37 0q-4 -6 -4 -8q0 -7 15 -26q17 -18 26 -62q1 -3 2.5 -10t2 -10t1 -10t0 -16t-1.5 -22q-1 -11 -3 -35.5t-1 -24.5q2 0 19 13q42 31 95 56q23 10 41.5 16t44.5 12t45 11q361 16 365 17
q10 4 9 11q0 9 -15 16q-4 2 -98 4t-186 3z" />
</svg>
