<?xml version="1.0" standalone="no"?>
<!DOCTYPE svg PUBLIC "-//W3C//DTD SVG 1.1//EN" "http://www.w3.org/Graphics/SVG/1.1/DTD/svg11.dtd" >
<svg xmlns="http://www.w3.org/2000/svg" xmlns:xlink="http://www.w3.org/1999/xlink" version="1.1" viewBox="0 0 1625 975">
   <path fill="currentColor"
d="M1166 4q3 -4 10.5 -4.5t13 2.5t4.5 9q-4 15 -38 77.5t-49 113.5q-16 51 5 115t60 116q19 25 32 62.5t8 42.5q-2 2 -5.5 -1.5t-8 -10.5t-9.5 -16q-18 -34 -68 -86q-35 -36 -62.5 -55t-97.5 -56q-13 -7 -21 -13l-50 4l-41 10q-113 27 -162 44q41 30 94 55q22 10 40.5 16
t44.5 12t46 11q221 16 225 17q9 4 9 11q-1 9 -16 16q-4 2 -62.5 4t-115.5 3l-57 1l-41 10q-117 28 -165 45q39 29 92 54q22 10 40.5 16t44.5 12t46 11q221 16 225 17q9 4 9 11q-1 9 -16 16q-4 2 -62.5 4t-115.5 3l-57 1l-41 10q-154 37 -187 54q-28 14 -38 0q-4 -6 -4 -8
q0 -7 16 -26q10 -12 18 -34l-49 4l-41 10q-117 28 -165 45q39 29 92 54q23 10 41 16t44 12t46 11q501 16 505 17q9 4 9 11q-1 9 -16 16q-4 2 -132.5 4t-255.5 3l-127 1l-41 10q-154 37 -187 54q-28 14 -38 0q-4 -6 -4 -8q0 -7 16 -26q16 -18 25 -62q1 -3 3 -10t2.5 -10
t1 -10t-0.5 -16t-2 -22t-3 -36q-28 14 -38 0q-4 -6 -4 -8q0 -7 16 -26q10 -12 18 -34l-44 4l-41 10q-154 37 -187 54q-28 14 -38 0q-4 -6 -4 -8q0 -7 16 -26q16 -18 25 -62q1 -3 3 -10t2.5 -10t1 -10t-0.5 -16t-2 -22q-1 -11 -2.5 -35.5l-1.5 -24.5q3 0 20 13q41 31 95 56
q23 10 41 16t44 12t46 11q20 6 37 11q5 -22 1 -59q-1 -13 -3 -36q-28 14 -38 0q-4 -6 -4 -8q0 -7 16 -26q16 -18 25 -62q1 -3 3 -10t2.5 -10t1 -10t-0.5 -16t-2 -22q-1 -11 -2.5 -35.5l-1.5 -24.5q3 0 20 13q41 31 95 56q23 10 41 16t44 12t46 11q24 7 41 12q6 -23 2 -60
q-1 -14 -3 -39q-3 2 -5 3q-28 14 -38 0q-4 -6 -4 -8q0 -7 16 -26q16 -18 25 -62q1 -3 3 -10t2.5 -10t1 -10t-0.5 -16t-2 -22q-1 -11 -2.5 -35.5l-1.5 -24.5q3 0 20 13q41 31 95 56q23 10 41 16t44 12t46 11l28 8q7 -5 19 -10q7 -3 26 -17.5t36 -29t37.5 -31.5t22.5 -19
q16 -14 39.5 -65t50.5 -84zM1456 354l-10 -41q-38 -154 -54 -187q-14 -28 -1 -38q7 -4 9 -4q7 0 25 16q19 16 63 25q3 1 9.5 2.5t10 2t10 1t16 0t22.5 -1.5q11 -1 35 -3t24 -1q0 3 -12 20q-31 41 -56 95q-11 22 -16.5 40.5t-11.5 44.5t-12 46q-15 501 -16 505q-4 9 -11 9
q-10 -1 -17 -16q-1 -4 -3 -133t-3 -255zM1067 212q2 -2 3 -4q-2 1 -3 4zM627 652q24 7 41 12q6 -23 2 -60q-1 -13 -3 -36q-28 14 -38 0q-4 -6 -4 -8q0 -7 16 -26q10 -12 18 -34l-49 4l-41 10q-117 28 -165 45q39 29 92 54q23 10 41 16t44 12t46 11zM1226 354l-10 -41
q-38 -154 -54 -187q-14 -28 -1 -38q7 -4 9 -4q7 0 25 16q19 16 63 25q3 1 9.5 2.5t10 2t10 1t16 0t22.5 -1.5q11 -1 35 -3t24 -1q0 3 -12 20q-31 41 -56 95q-11 22 -16.5 40.5t-11.5 44.5t-12 46q-15 501 -16 505q-4 9 -11 9q-10 -1 -17 -16q-1 -4 -3 -133t-3 -255z" />
</svg>
