<?xml version="1.0" standalone="no"?>
<!DOCTYPE svg PUBLIC "-//W3C//DTD SVG 1.1//EN" "http://www.w3.org/Graphics/SVG/1.1/DTD/svg11.dtd" >
<svg xmlns="http://www.w3.org/2000/svg" xmlns:xlink="http://www.w3.org/1999/xlink" version="1.1" viewBox="0 0 611 892">
   <path fill="currentColor"
d="M297 274l-37 -22q-135 -82 -170 -94q-14 -5 -21 -12t-6 -14.5t3 -8.5q5 -5 29 -7q25 -2 62 -26q3 -2 9 -5.5t8.5 -5.5t8 -6.5t11.5 -11t14 -17.5q7 -8 23 -26.5t17 -17.5t4 22q8 51 28 107q9 24 18 41t23 39.5t24 40.5q53 61 96 110l-10 -40q-37 -154 -54 -187
q-14 -28 0 -38q6 -4 8 -4q7 0 26 16q18 16 62 25q3 1 10 2.5t10 2t10 1t16 0t22 -1.5q11 -1 35.5 -3t24.5 -1q0 3 -13 20q-31 41 -56 95q-10 22 -16 40.5t-12 44.5t-11 46q-1 15 -2 41l1 1q4 9 -1 14q-14 445 -15 449q-4 9 -11 9q-9 -1 -16 -16q-4 -8 -8 -464z" />
</svg>
