<?xml version="1.0" standalone="no"?>
<!DOCTYPE svg PUBLIC "-//W3C//DTD SVG 1.1//EN" "http://www.w3.org/Graphics/SVG/1.1/DTD/svg11.dtd" >
<svg xmlns="http://www.w3.org/2000/svg" xmlns:xlink="http://www.w3.org/1999/xlink" version="1.1" viewBox="0 0 1225 835">
   <path fill="currentColor"
d="M1167 4q3 -4 10.5 -4.5t13 2.5t4.5 9q-4 15 -38 77.5t-49 113.5q-16 51 5 115t60 116q19 25 32 62.5t8 42.5q-2 2 -5.5 -1.5t-8 -10.5t-9.5 -16q-18 -34 -68 -86q-35 -36 -62.5 -55t-97.5 -56q-15 -8 -23.5 -15.5t-12 -15.5t3.5 -16.5t25 -15.5q7 -3 26 -17.5t36 -29
t37.5 -31.5t22.5 -19q16 -14 39.5 -65t50.5 -84zM330 649l-41 10q-154 37 -187 54q-28 14 -38 0q-4 -6 -4 -8q0 -7 16 -26q16 -18 25 -62q1 -3 3 -10t2.5 -10t1 -10t-0.5 -16t-2 -22q-1 -11 -2.5 -35.5l-1.5 -24.5q3 0 20 13q41 31 95 56q23 10 41 16t44 12t46 11
q24 7 41 12q-1 -85 -2 -195l-56 5l-41 10q-154 37 -187 54q-28 14 -38 0q-4 -6 -4 -8q0 -7 16 -26q16 -18 25 -62q1 -3 3 -10t2.5 -10t1 -10t-0.5 -16t-2 -22q-1 -11 -2.5 -35.5l-1.5 -24.5q3 0 20 13q41 31 95 56q23 10 41 16t44 12t46 11q22 7 39 11l-1 -74l-10 -41
q-37 -154 -54 -187q-13 -28 0 -38q6 -4 9 -4q6 0 25 16t62 25q4 1 10.5 2.5t9.5 2t10 1t16 0t22 -1.5q11 -1 35.5 -3t24.5 -1q0 3 -13 20q-31 41 -56 95q-10 22 -16 40.5t-12 44.5t-11 46q-15 501 -17 505q-3 9 -11 9q-9 -1 -16 -16q-2 -5 -4 -175zM1068 212q2 -2 3 -4
q-2 1 -3 4zM845 304l-10 -41q-37 -154 -54 -187q-13 -28 0 -38q6 -4 9 -4q6 0 25 16t62 25q4 1 10.5 2.5t9.5 2t10 1t16 0t22 -1.5q11 -1 35.5 -3t24.5 -1q0 3 -13 20q-31 41 -56 95q-10 22 -16 40.5t-12 44.5t-11 46q-15 501 -17 505q-3 9 -11 9q-9 -1 -16 -16
q-2 -4 -4 -133t-3 -255zM615 304l-10 -41q-37 -154 -54 -187q-13 -28 0 -38q6 -4 9 -4q6 0 25 16t62 25q4 1 10.5 2.5t9.5 2t10 1t16 0t22 -1.5q11 -1 35.5 -3t24.5 -1q0 3 -13 20q-31 41 -56 95q-10 22 -16 40.5t-12 44.5t-11 46q-15 501 -17 505q-3 9 -11 9q-9 -1 -16 -16
q-2 -4 -4 -133t-3 -255z" />
</svg>
