<?xml version="1.0" standalone="no"?>
<!DOCTYPE svg PUBLIC "-//W3C//DTD SVG 1.1//EN" "http://www.w3.org/Graphics/SVG/1.1/DTD/svg11.dtd" >
<svg xmlns="http://www.w3.org/2000/svg" xmlns:xlink="http://www.w3.org/1999/xlink" version="1.1" viewBox="0 0 1281 801">
   <path fill="currentColor"
d="M758 650q-13 2 -21 -7.5t-6 -18.5q0 -4 1 -7l-19 -16l-36 -22q-135 -83 -170 -95q-14 -4 -21.5 -11t-6 -14.5t3.5 -9.5q5 -5 29 -7q6 0 12 -2q-24 1 -62 2q-10 347 -11 350q-4 9 -11 9q-10 -1 -17 -16q-3 -7 -6 -342l-87 2l-41 10q-154 37 -187 54q-28 14 -38 0
q-4 -6 -4 -8q0 -7 16 -26q16 -18 25 -62q1 -3 3 -10t2.5 -10t1 -10t-0.5 -16t-2 -22q-1 -11 -2.5 -35.5l-1.5 -24.5q3 0 20 13q41 31 95 56q23 10 41 16t44 12t46 11q31 3 70 5l-1 -128l-10 -41q-38 -154 -54 -187q-14 -28 -1 -38q7 -4 9 -4q7 0 25 16q19 16 63 25
q3 1 9.5 2.5t10 2t10 1t16 0t22.5 -1.5q11 -1 35 -3t24 -1q0 3 -12 20q-31 41 -56 95q-11 22 -16.5 40.5t-11.5 44.5t-12 46q-1 48 -3 115q105 7 108 8q4 2 6 4q1 -1 5.5 -3.5t5.5 -3.5t5 -3.5t6 -5t6 -6.5t8.5 -9t10.5 -12q7 -9 23 -27.5t16 -17.5q2 2 5 23q7 51 28 106
q8 24 17 41t23 39.5t24 40.5q8 13 15 26q15 -9 43.5 -30.5t66.5 -51.5t48 -37l-4 -2q-4 -1 -17.5 -12t-25.5 -21l-11 -10l-37 -22q-135 -83 -170 -94q-13 -5 -20.5 -12t-6 -14.5t2.5 -9.5q5 -5 29 -6q25 -2 63 -26q3 -2 8.5 -5.5t8 -5.5t8 -6.5t11.5 -11.5t14 -17
q7 -8 23 -26.5t17 -18.5q2 2 5 23q7 51 27 107q9 23 18 40t23 39.5t24 40.5q28 50 30 54v1q18 -13 62.5 -55.5t64.5 -66.5q6 -8 21 -25q-4 0 -9 -2t-18.5 -13t-24.5 -21l-12 -10l-36 -22q-135 -82 -170 -94q-14 -5 -21 -12t-6 -14.5t3 -8.5q5 -5 29 -7q25 -2 62 -26
q3 -2 9 -5.5t8.5 -5.5t7.5 -6.5t11.5 -11t14.5 -17.5q7 -8 23 -26.5t17 -17.5t4 22q8 51 28 107q8 24 17 41t23.5 39.5t23.5 40.5q29 49 30 53l1 1l3 -4q3 3 5 23q20 241 143 457q5 9 -1 14q-4 4 -10 5t-12 -4q-36 -44 -137 -81t-200.5 -53.5t-149.5 -11.5z" />
</svg>
