<?xml version="1.0" standalone="no"?>
<!DOCTYPE svg PUBLIC "-//W3C//DTD SVG 1.1//EN" "http://www.w3.org/Graphics/SVG/1.1/DTD/svg11.dtd" >
<svg xmlns="http://www.w3.org/2000/svg" xmlns:xlink="http://www.w3.org/1999/xlink" version="1.1" viewBox="0 0 1079 681">
   <path fill="currentColor"
d="M335 384l-41 10q-154 37 -187 54q-28 14 -38 0q-4 -6 -4 -8q0 -7 16 -26q16 -18 25 -62q1 -3 3 -10t2.5 -10t1 -10t-0.5 -16t-2 -22q-1 -11 -2.5 -35.5l-1.5 -24.5q3 0 20 13q41 31 95 56q23 10 41 16t44 12t46 11q221 16 225 17q9 4 9 11q-1 9 -16 16q-4 2 -62.5 4
t-115.5 3zM664 635l-36 -22q-136 -82 -171 -94q-13 -5 -20.5 -12t-6 -14.5t2.5 -9.5q5 -4 29 -6q25 -2 63 -26q3 -2 8.5 -5.5t8.5 -5.5t8 -6.5t11 -11t15 -17.5q6 -8 22 -26.5t17 -18.5q2 2 5 23q7 51 27 107q9 23 18 40t23 39.5t24 40.5q28 50 30 54q4 9 -1 14q-7 6 -23 0
q-9 -3 -54 -43zM827 473l-37 -23q-135 -82 -170 -94q-14 -5 -21 -12t-6 -14t3 -9q5 -5 29 -7q16 -1 37 -11l-33 -28l-37 -23q-135 -82 -170 -94q-14 -4 -21 -11.5t-6 -14.5t3 -9q5 -5 29 -7q25 -2 62 -26q3 -2 9 -5.5t8.5 -5.5t8 -6t11.5 -11t14 -18q7 -8 23 -26.5t17 -17.5
q1 2 4 23q8 51 28 106q9 24 17.5 41t23 39.5t24.5 40.5t18 33q19 -11 43 -41q7 -8 23 -26.5t17 -17.5q1 2 4 23q8 51 28 106q9 24 17.5 41t23 39.5t24.5 40.5q28 49 30 53q4 9 -2 14q-7 7 -22 1q-5 -2 -18.5 -12.5t-24.5 -20.5zM989 310l-36 -22q-135 -83 -170 -95
q-14 -4 -21.5 -11t-6 -14.5t3.5 -9.5q5 -5 29 -6q25 -2 62 -26q3 -2 9 -5.5t8.5 -5.5t7.5 -6.5t11 -11.5t15 -17q7 -8 23 -26.5l16 -18.5q2 2 5 23q7 51 28 106q8 24 17 41t23 39.5t24 40.5q28 50 30 54q4 9 -1 14q-7 6 -23 0q-9 -3 -54 -43z" />
</svg>
