<?xml version="1.0" standalone="no"?>
<!DOCTYPE svg PUBLIC "-//W3C//DTD SVG 1.1//EN" "http://www.w3.org/Graphics/SVG/1.1/DTD/svg11.dtd" >
<svg xmlns="http://www.w3.org/2000/svg" xmlns:xlink="http://www.w3.org/1999/xlink" version="1.1" viewBox="0 0 1321 801">
   <path fill="currentColor"
d="M656 550l-10 -41q-38 -154 -54 -187q-14 -28 -1 -38q7 -4 9 -4q7 0 25 16q19 16 63 25q3 1 9.5 2.5t10 2t10 1t16 0t22.5 -1.5q11 -1 35 -3t24 -1q0 3 -12 20q-31 41 -56 95q-11 22 -16.5 40.5t-11.5 44.5t-12 46v5q96 2 179 4v-26l-10 -41q-38 -154 -54 -187
q-14 -28 -1 -38q7 -4 9 -4q7 0 25 16q19 16 63 25q3 1 9.5 2.5t10 2t10 1t16 0t22.5 -1.5q11 -1 35 -3t24 -1q0 3 -12 20q-31 41 -56 95q-11 22 -16.5 40.5t-11.5 44.5t-12 46v10q103 2 179 4v-31l-10 -41q-38 -154 -54 -187q-14 -28 -1 -38q7 -4 9 -4q7 0 25 16
q19 16 63 25q3 1 9.5 2.5t10 2t10 1t16 0t22.5 -1.5q11 -1 35 -3t24 -1q0 3 -12 20q-31 41 -56 95q-11 22 -16.5 40.5t-11.5 44.5t-12 46q0 5 -1 15q134 3 136 3q9 4 9 11q0 9 -16 16q-3 2 -131 3q-12 173 -13 177q-4 9 -11 9q-10 -1 -17 -16q-3 -7 -6 -169q-77 1 -183 1
q-12 171 -13 175q-4 9 -11 9q-10 -1 -17 -16q-3 -7 -6 -167q-85 0 -183 1q-12 169 -13 173q-4 9 -11 9q-10 -1 -17 -16q-3 -7 -6 -166l-157 1l-41 10q-154 37 -187 54q-28 14 -38 0q-4 -6 -4 -8q0 -7 16 -26q16 -18 26 -62q0 -3 2 -10t2.5 -10t1 -10t0 -16t-2.5 -22
q-1 -11 -2.5 -35.5t-0.5 -24.5q2 0 19 13q41 31 95 56q23 10 41 16t44 12t46 11q56 2 139 3v-21zM335 390l-41 10q-154 37 -187 54q-28 14 -38 0q-4 -6 -4 -8q0 -7 16 -26q16 -18 25 -62q1 -3 3 -10t2.5 -10t1 -10t-0.5 -16t-2 -22q-1 -11 -2.5 -35.5l-1.5 -24.5q3 0 20 13
q41 31 95 56q23 10 41 16t44 12t46 11q221 16 225 17q9 4 9 11q-1 9 -16 16q-4 2 -62.5 4t-115.5 3zM780 160l-41 10q-154 37 -187 54q-28 14 -38 0q-4 -6 -4 -8q0 -7 16 -26q16 -18 26 -62q0 -3 2 -10t2.5 -10t1 -10t0 -16t-2.5 -22q-1 -11 -2.5 -35.5t-0.5 -24.5
q2 0 19 13q41 31 95 56q23 10 41 16t44 12t46 11q501 16 505 17q9 4 9 11q0 9 -16 16q-4 2 -132.5 4t-255.5 3z" />
</svg>
