<?xml version="1.0" standalone="no"?>
<!DOCTYPE svg PUBLIC "-//W3C//DTD SVG 1.1//EN" "http://www.w3.org/Graphics/SVG/1.1/DTD/svg11.dtd" >
<svg xmlns="http://www.w3.org/2000/svg" xmlns:xlink="http://www.w3.org/1999/xlink" version="1.1" viewBox="0 0 1864 835">
   <path fill="currentColor"
d="M1806 4q4 -4 11 -4.5t12.5 2.5t4.5 9q-4 15 -38 77.5t-49 113.5q-16 51 5 115t60 116q19 25 32.5 62.5t7.5 42.5q-2 2 -5.5 -1.5t-8 -10.5t-9.5 -16q-18 -34 -68 -86q-35 -36 -62 -55t-98 -56q-14 -8 -23 -15.5t-12 -15.5t3.5 -16.5t24.5 -15.5q8 -3 27 -17.5t35.5 -29
t37 -31.5t22.5 -19q16 -14 39.5 -65t50.5 -84zM1707 212q2 -2 3 -4q-1 1 -3 4zM969 479l-41 10q-154 37 -187 54q-28 14 -37 0q-5 -6 -5 -8q0 -7 16 -26q16 -18 26 -62q0 -3 2 -10t2.5 -10t1 -10t0 -16t-2.5 -22q-1 -11 -2.5 -35.5t-0.5 -24.5q2 0 19 13q41 31 95 56
q23 10 41 16t44 12t46 11q22 7 40 12l-2 -135l-10 -41q-37 -154 -53 -187q-14 -28 -1 -38q6 -4 9 -4q7 0 25 16q19 16 62 25q4 1 10.5 2.5t9.5 2t10 1t16 0t23 -1.5q10 -1 34.5 -3t24.5 -1q0 3 -13 20q-30 41 -55 95q-11 22 -16.5 40.5t-11.5 44.5t-12 46q-15 501 -17 505
q-3 9 -10 9q-10 -1 -17 -16q-3 -7 -6 -345zM1484 304l-10 -41q-37 -154 -53 -187q-14 -28 -1 -38q6 -4 9 -4q7 0 25 16q19 16 62 25q4 1 10.5 2.5t9.5 2t10 1t16 0t23 -1.5q10 -1 34.5 -3t24.5 -1q0 3 -13 20q-30 41 -55 95q-11 22 -16.5 40.5t-11.5 44.5t-12 46
q-15 501 -17 505q-3 9 -10 9q-10 -1 -17 -16q-2 -4 -4 -133t-3 -255zM1254 304l-10 -41q-37 -154 -53 -187q-14 -28 -1 -38q6 -4 9 -4q7 0 25 16q19 16 62 25q4 1 10.5 2.5t9.5 2t10 1t16 0t23 -1.5q10 -1 34.5 -3t24.5 -1q0 3 -13 20q-30 41 -55 95q-11 22 -16.5 40.5
t-11.5 44.5t-12 46q-15 501 -17 505q-3 9 -10 9q-10 -1 -17 -16q-2 -4 -4 -133t-3 -255zM329 730l-36 -22q-136 -82 -171 -94q-13 -5 -20.5 -12t-6 -14.5t3.5 -9.5q4 -4 29 -6q24 -2 62 -26q3 -2 8.5 -5.5t8.5 -5.5t8 -6.5t11 -11t15 -17.5q6 -8 22 -26.5t17 -18.5q2 2 5 23
q7 51 27 107q9 23 18 40t23 39.5t24 40.5q28 50 30 54q4 9 -1 14q-7 6 -23 0q-9 -3 -54 -43zM492 568l-37 -23q-135 -82 -170 -94q-14 -5 -21 -12t-6 -14t3 -9q5 -5 29 -7q16 -1 37 -11l-33 -28l-37 -23q-135 -82 -170 -94q-14 -4 -21 -11.5t-6 -14.5t3 -9q5 -5 29 -7
q25 -2 62 -26q3 -2 9 -5.5t8.5 -5.5t8 -6t11.5 -11t14 -18q7 -8 23 -26.5t17 -17.5q1 2 4 23q8 51 28 106q9 24 18 41t23 39.5t24 40.5t19 33q18 -11 42 -41q7 -8 23 -26.5t17 -17.5q1 2 4 23q8 51 28 106q9 24 18 41t23 39.5t24 40.5q28 49 30 53q4 9 -1 14q-8 7 -23 1
q-4 -2 -18 -12.5t-25 -20.5zM654 405l-36 -22q-135 -83 -170 -95q-14 -4 -21 -11t-6 -14.5t3 -9.5q5 -5 29 -6q25 -2 62 -26q3 -2 9 -5.5t8.5 -5.5t7.5 -6.5t11 -11.5t15 -17q7 -8 23 -26.5l16 -18.5q2 2 5 23q8 51 28 106q8 24 17 41t23 39.5t24 40.5q28 50 30 54
q4 9 -1 14q-7 6 -22 0q-10 -3 -55 -43z" />
</svg>
