<?xml version="1.0" standalone="no"?>
<!DOCTYPE svg PUBLIC "-//W3C//DTD SVG 1.1//EN" "http://www.w3.org/Graphics/SVG/1.1/DTD/svg11.dtd" >
<svg xmlns="http://www.w3.org/2000/svg" xmlns:xlink="http://www.w3.org/1999/xlink" version="1.1" viewBox="0 0 1530 801">
   <path fill="currentColor"
d="M437 337q-11 -10 -9.5 -21.5t8.5 -16.5q3 -2 6 -3l-2 -26l-10 -41q-37 -154 -53 -187q-14 -28 -1 -38q6 -4 9 -4q7 0 25 16q19 16 62 25q4 1 10.5 2.5t9.5 2t10 1t16 0t23 -1.5q10 -1 34.5 -3t24.5 -1q0 3 -13 20q-31 41 -56 95q-10 22 -16 40.5t-11.5 44.5t-11.5 46
q-4 14 -8 29q17 4 52.5 9t83.5 10.5t60 7.5l-2 -4q-2 -4 -4 -21.5t-3 -32.5l-1 -15l-10 -41q-37 -154 -53 -187q-14 -28 -1 -38q6 -4 9 -4q7 0 25 16q19 16 62 25q4 1 10.5 2.5t9.5 2t10 1t16 0t23 -1.5q10 -1 34.5 -3t24.5 -1q0 3 -13 20q-31 41 -56 95q-10 22 -16 40.5
t-11.5 44.5t-11.5 46q-15 55 -17 59v1q21 3 80.5 4.5t95.5 -1.5q10 -1 32 -3q-3 -3 -5 -8q-2 -4 -4 -21.5t-3 -32.5l-1 -15l-10 -41q-37 -154 -53 -187q-14 -28 -1 -38q6 -4 9 -4q7 0 25 16q19 16 62 25q4 1 10.5 2.5t9.5 2t10 1t16 0t23 -1.5q10 -1 34.5 -3t24.5 -1
q0 3 -13 20q-31 41 -56 95q-10 22 -16 40.5t-11.5 44.5t-11.5 46q-15 55 -17 59h5q0 5 -13 20q-156 185 -222 425q-2 9 -10 9q-6 -1 -12 -5t-5 -11q6 -49 -27.5 -128.5t-88.5 -162.5q-12 2 -70 3.5t-110 2.5l-52 1l-41 10q-154 37 -187 54q-28 14 -38 0q-4 -6 -4 -8
q0 -7 16 -26q16 -18 25 -62q1 -3 3 -10t2.5 -10t1 -10t-0.5 -16t-2 -22q-1 -11 -2.5 -35.5l-1.5 -24.5q3 0 20 13q41 31 95 56q23 10 41 16t44 12t46 11q134 10 195 14q-63 -91 -105 -125zM1033 403l-7 -31q-28 -116 -41 -141q-10 -21 0 -28q4 -3 6 -3q5 0 19 12t47 19
q3 1 8 2t7 1.5t7.5 1t12 0t16.5 -1.5q8 -1 26.5 -2.5t18.5 -0.5q0 2 -10 15q-23 31 -42 71q-8 17 -12 30.5t-8.5 33t-8.5 34.5q-12 376 -13 379q-2 7 -8 6q-7 0 -12 -11q-2 -3 -3 -99.5t-2 -191.5zM1206 613l-8 -31q-28 -116 -40 -141q-11 -21 -1 -28q5 -3 7 -3q5 0 19 12
q9 8 25 13l-2 -32l-8 -31q-28 -116 -40 -141q-11 -21 -1 -28q5 -3 7 -3q5 0 19 12t46 19q3 1 8 2l7.5 1.5t7.5 1t12 0t17 -1.5q8 -1 26 -2.5t18 -0.5q0 2 -9 15q-23 31 -42 71q-8 17 -12.5 30.5t-9 33t-8.5 34.5t-8 28q16 4 45 1q8 -1 26 -2.5t18 -0.5q0 2 -9 15
q-23 31 -42 71q-8 17 -12.5 30.5t-9 33t-8.5 34.5q-11 166 -12 169q-3 7 -8 6q-8 0 -13 -11q-1 -3 -2.5 -47t-2.5 -87v-42zM1361 270l-10 -41q-38 -154 -54 -187q-14 -28 -1 -38q7 -4 9 -4q7 0 25 16q19 16 63 25q3 1 9.5 2.5t10 2t10 1t16 0t22.5 -1.5q11 -1 35 -3t24 -1
q0 3 -12 20q-31 41 -56 95q-11 22 -16.5 40.5t-11.5 44.5t-12 46q-15 501 -16 505q-4 9 -11 9q-10 -1 -17 -16q-1 -4 -3 -133t-3 -255z" />
</svg>
