<?xml version="1.0" standalone="no"?>
<!DOCTYPE svg PUBLIC "-//W3C//DTD SVG 1.1//EN" "http://www.w3.org/Graphics/SVG/1.1/DTD/svg11.dtd" >
<svg xmlns="http://www.w3.org/2000/svg" xmlns:xlink="http://www.w3.org/1999/xlink" version="1.1" viewBox="0 0 1855 889">
   <path fill="currentColor"
d="M437 337q-11 -10 -9.5 -21.5t8.5 -16.5q3 -2 6 -3l-2 -26l-10 -41q-37 -154 -53 -187q-14 -28 -1 -38q6 -4 9 -4q7 0 25 16q19 16 62 25q4 1 10.5 2.5t9.5 2t10 1t16 0t23 -1.5q10 -1 34.5 -3t24.5 -1q0 3 -13 20q-31 41 -56 95q-10 22 -16 40.5t-11.5 44.5t-11.5 46
q-4 14 -8 29q17 4 52.5 9t83.5 10.5t60 7.5l-2 -4q-2 -4 -4 -21.5t-3 -32.5l-1 -15l-10 -41q-37 -154 -53 -187q-14 -28 -1 -38q6 -4 9 -4q7 0 25 16q19 16 62 25q4 1 10.5 2.5t9.5 2t10 1t16 0t23 -1.5q10 -1 34.5 -3t24.5 -1q0 3 -13 20q-31 41 -56 95q-10 22 -16 40.5
t-11.5 44.5t-11.5 46q-15 55 -17 59v1q21 3 80.5 4.5t95.5 -1.5q10 -1 32 -3q-3 -3 -5 -8q-2 -4 -4 -21.5t-3 -32.5l-1 -15l-10 -41q-37 -154 -53 -187q-14 -28 -1 -38q6 -4 9 -4q7 0 25 16q19 16 62 25q4 1 10.5 2.5t9.5 2t10 1t16 0t23 -1.5q10 -1 34.5 -3t24.5 -1
q0 3 -13 20q-31 41 -56 95q-10 22 -16 40.5t-11.5 44.5t-11.5 46q-15 55 -17 59h5q0 5 -13 20q-156 185 -222 425q-2 9 -10 9q-6 -1 -12 -5t-5 -11q6 -49 -27.5 -128.5t-88.5 -162.5q-12 2 -70 3.5t-110 2.5l-52 1l-41 10q-154 37 -187 54q-28 14 -38 0q-4 -6 -4 -8
q0 -7 16 -26q16 -18 25 -62q1 -3 3 -10t2.5 -10t1 -10t-0.5 -16t-2 -22q-1 -11 -2.5 -35.5l-1.5 -24.5q3 0 20 13q41 31 95 56q23 10 41 16t44 12t46 11q134 10 195 14q-63 -91 -105 -125zM1310 610l-41 10q-154 37 -187 54q-28 14 -38 0q-4 -6 -4 -8q0 -7 16 -26
q16 -18 26 -62q0 -3 2 -10t2.5 -10t1 -10t0 -16t-2.5 -22q-1 -13 -3 -36q-28 14 -38 0q-4 -6 -4 -8q0 -7 16 -26q16 -18 26 -62q0 -3 2 -10t2.5 -10t1 -10t0 -16t-2.5 -22q-1 -13 -3 -36q-28 14 -38 0q-4 -6 -4 -8q0 -7 16 -26q16 -18 26 -62q0 -3 2 -10t2.5 -10t1 -10
t0 -16t-2.5 -22q-1 -11 -2.5 -35.5t-0.5 -24.5q2 0 19 13q41 31 95 56q23 10 41 16t44 12t46 11q248 11 335 15q-27 -105 -40 -131q-14 -28 -1 -38q7 -4 9 -4q7 0 25 16q19 16 63 25q3 1 9.5 2.5t10 2t10 1t16 0t22.5 -1.5q11 -1 35 -3t24 -1q0 3 -12 20q-31 41 -56 95
q-11 22 -16.5 40.5t-11.5 44.5t-12 46q-15 501 -16 505q-4 9 -11 9q-1 0 -2 -1q-4 6 -13 10q-4 2 -132.5 4t-255.5 3l-127 1l-41 10q-154 37 -187 54q-28 14 -38 0q-4 -6 -4 -8q0 -7 16 -26q16 -18 26 -62q0 -3 2 -10t2.5 -10t1 -10t0 -16t-2.5 -22q-1 -11 -2.5 -35.5
t-0.5 -24.5q2 0 19 13q41 31 95 56q23 10 41 16t44 12t46 11q429 13 496 17q-2 -20 -4 -183l-4 2q-4 2 -97.5 4t-185.5 3zM1327 558q326 14 362 17q-1 -76 -2 -173h-2q-4 2 -97.5 4t-185.5 3l-92 1l-41 10q-117 28 -165 45q39 29 92 54q23 10 41 16t44 12t46 11zM1327 358
q315 14 360 17l-1 -105l-10 -41q-3 -13 -6 -25q-32 1 -122 2.5t-164 2.5l-74 1l-41 10q-117 28 -165 45q39 29 92 54q23 10 41 16t44 12t46 11z" />
</svg>
