<?xml version="1.0" standalone="no"?>
<!DOCTYPE svg PUBLIC "-//W3C//DTD SVG 1.1//EN" "http://www.w3.org/Graphics/SVG/1.1/DTD/svg11.dtd" >
<svg xmlns="http://www.w3.org/2000/svg" xmlns:xlink="http://www.w3.org/1999/xlink" version="1.1" viewBox="0 0 2551 1040">
   <path fill="currentColor"
d="M2027 794q-13 2 -20.5 -7.5t-6.5 -18.5q1 -4 2 -7l-19 -16l-36 -22q-117 -72 -160 -91q-3 3 -7 4q-4 2 -63 4t-115 3l-57 1l-41 10q-154 37 -187 54q-28 14 -38 0q-4 -6 -4 -8q0 -7 16 -26q16 -18 25 -62q1 -3 2.5 -10t2 -10t1 -10t0 -16t-1.5 -22q0 -3 -1 -11
q0 4 -1.5 5.5t-5 -2t-8.5 -10.5t-9 -16q-18 -34 -68 -86q-35 -36 -62.5 -55t-98.5 -56q-14 -8 -23 -16l-353 6l-41 10q-154 38 -187 54q-28 14 -38 1q-4 -6 -4 -9q0 -7 16 -25q16 -19 25 -62q1 -4 2.5 -10.5t2 -9.5t1 -10t0 -16t-1.5 -23q-1 -10 -3 -34.5t-1 -24.5
q3 0 20 12q41 31 94 56q23 11 41.5 16.5t44.5 11.5t45 12q236 10 328 14q7 -8 25 -16q8 -3 27 -17.5t36 -29t37 -31.5t23 -19q16 -14 39.5 -65t50.5 -84q3 -4 10.5 -4.5t13 2.5t3.5 9q-4 15 -37.5 77.5t-49.5 113.5q-15 51 6 115t60 116q4 5 8 11q16 -19 25 -62
q1 -3 2.5 -10t2 -10t1 -10t0 -16t-1.5 -22q-1 -11 -3 -35.5t-1 -24.5q3 0 20 13q41 31 94 56q23 10 41.5 16t44.5 12t45 11q374 12 478 16q9 -9 23 -26q7 -8 23 -26.5t17 -18.5q1 2 4 23q8 51 28 107q9 23 18 40t23 39.5t24 40.5q28 50 30 54v1q17 -13 62 -55.5t65 -66.5
q6 -8 21 -25q-5 0 -10 -2q-4 -2 -17.5 -13t-24.5 -21l-12 -10l-36 -22q-135 -82 -170 -94q-14 -5 -21.5 -12t-6 -14.5t3.5 -8.5q5 -5 29 -7q25 -2 62 -26q3 -2 9 -5.5t8.5 -5.5t7.5 -6.5t11 -11t15 -17.5q7 -8 23 -26.5t16 -17.5q2 1 5 22q7 51 28 107q8 24 17 41t23 39.5
t24 40.5q28 49 30 53v1l4 -4q3 3 5 23q20 241 143 457q5 9 -1 14q-4 4 -10 5t-13 -4q-39 -50 -163 -91v1q-1 9 -16 16q-4 2 -203 4t-395 3l-197 1l-41 10q-154 37 -187 54q-28 14 -38 0q-4 -6 -4 -8q0 -7 16 -26q16 -18 25 -62q1 -3 2.5 -10t2 -10t1 -10t0 -16t-1.5 -22
q-1 -11 -3 -35.5t-1 -24.5q3 0 20 13q41 31 94 56q23 10 41.5 16t44.5 12t45 11q626 13 760 16q-81 -24 -164 -36t-125 -8zM381 199q8 -9 17.5 -5.5t6.5 14.5q-5 20 -26.5 59t-48 91.5t-41.5 104.5q-20 69 7.5 153.5t79.5 153.5q27 36 50 85.5t16 56.5q-1 1 -6 -3.5
t-11.5 -14t-12.5 -21.5q-10 -18 -36.5 -51.5t-53.5 -62.5q-47 -48 -83.5 -73.5t-130.5 -74.5q-19 -10 -31 -20.5t-16 -21.5t5 -22t32 -20q11 -4 36 -23.5t48 -38.5t49.5 -42t30.5 -26q18 -15 33 -46t36.5 -74t49.5 -78zM2031 720q7 13 15 26q15 -9 43.5 -30.5t66.5 -51.5
t48 -37l-4 -2q-4 -1 -18 -12t-25 -21l-11 -10l-37 -22q-135 -83 -170 -94q-14 -5 -21 -12t-6 -14.5t3 -9.5q5 -5 29 -6q19 -2 44 -15l-448 5l-41 10q-154 37 -187 54q-4 2 -8 3q12 27 14 45q-1 -17 -1.5 -29.5l-0.5 -12.5q3 0 20 13q41 31 94 56q23 10 41.5 16t44.5 12
t45 11q125 9 188 14v-4q2 -7 3 -9q5 -5 30 -7q24 -1 62 -26q3 -2 8.5 -5.5t8.5 -5t8 -6t11 -11.5t15 -17q6 -9 22 -27.5t17 -17.5q2 2 5 23q7 51 27 106q9 24 18 41t23 39.5t24 40.5zM253 459q0 -1 1 -1q-1 0 -1 1zM690 969l-41 10q-154 37 -187 54q-28 14 -38 0
q-4 -6 -4 -8q0 -7 16 -26q16 -18 25 -62q1 -3 2.5 -10t2 -10t1 -10t0 -16t-1.5 -22q-1 -11 -3 -35.5t-1 -24.5q3 0 20 13q41 31 94 56q23 10 41.5 16t44.5 12t45 11q502 16 506 17q9 4 9 11q-1 9 -16 16q-4 2 -133 4t-255 3zM1173 212q1 -2 3 -4q-2 1 -3 4z" />
</svg>
