<?xml version="1.0" standalone="no"?>
<!DOCTYPE svg PUBLIC "-//W3C//DTD SVG 1.1//EN" "http://www.w3.org/Graphics/SVG/1.1/DTD/svg11.dtd" >
<svg xmlns="http://www.w3.org/2000/svg" xmlns:xlink="http://www.w3.org/1999/xlink" version="1.1" viewBox="0 0 4458 977">
   <path fill="currentColor"
d="M4178 270l41 -10q117 -28 165 -45q-40 -29 -92 -54q-23 -10 -41 -16t-44 -12t-46 -11q-460 -9 -676 -14q3 26 6 171q1 -1 2 -1q4 -2 62.5 -4t115.5 -3l57 -1l41 -10q154 -37 187 -54q28 -13 37 0q5 6 5 8q0 7 -16 26q-11 12 -19 36zM4161 322q-151 -11 -206 -15
q-6 27 -2 63q1 13 3 37v-1q28 -13 37 0q5 6 5 8q0 7 -16 26t-26 62q0 4 -2 10.5t-2.5 9.5t-1 10t0 16t2.5 22q1 13 3 37v-1q28 -13 37 0q5 6 5 8q0 7 -16 26t-26 62q0 4 -2 10.5t-2.5 9.5t-1 10t0 16t2.5 22q1 11 2.5 35.5t0.5 24.5q-2 0 -19 -13q-41 -31 -95 -56
q-23 -10 -41 -16t-44 -12t-46 -11q-137 -10 -197 -14q28 111 42 138q14 28 0 38q-6 4 -8 4q-7 0 -25 -16q-19 -16 -63 -25q-3 -1 -10 -2.5t-10 -2t-10 -1t-16 0t-22 1.5q-11 1 -35.5 3t-24.5 1q0 -3 13 -20q31 -41 56 -94q11 -23 16.5 -41.5t11.5 -44.5t12 -45q5 -21 10 -37
q-21 -6 -59 -2q-11 1 -35.5 3t-24.5 1q0 -3 13 -20q31 -41 56 -94q11 -23 16.5 -41.5t11.5 -44.5t12 -45q11 -170 15 -215q-79 -2 -80 -2q-9 -3 -9 -11q0 -9 16 -16q4 -2 202.5 -4t395.5 -3l197 -1l41 -10q154 -37 187 -54q28 -13 37 0q5 6 5 8q0 7 -16 26t-26 62
q0 4 -2 10.5t-2.5 9.5t-1 10t0 16t2.5 22q1 13 3 37v-1q28 -13 37 0q5 6 5 8q0 7 -16 26t-26 62q0 4 -2 10.5t-2.5 9.5t-1 10t0 16t2.5 22q1 11 2.5 35.5t0.5 24.5q-2 0 -19 -13q-41 -31 -95 -56q-23 -10 -41 -16t-44 -12t-46 -11zM3728 470l41 -10q117 -28 165 -45
q-40 -29 -92 -54q-23 -10 -41 -16t-44 -12t-46 -11q-185 -13 -220 -16l1 32l10 41q13 55 25 96zM3711 522q-109 -8 -175 -13q12 42 20 57q14 28 0 38q-6 4 -8 4q-7 0 -25 -16q-12 -10 -34 -18l3 44l10 41q2 9 4 17l222 -6l41 -10q117 -28 165 -45q-40 -29 -92 -54
q-23 -10 -41 -16t-44 -12t-46 -11zM2539 338l10 41q37 154 54 187q14 28 0 38q-6 4 -8 4q-7 0 -25 -16q-19 -16 -63 -25q-3 -1 -10 -2.5t-10 -2t-10 -1t-16 0t-22 1.5q-11 1 -35.5 3t-24.5 1q0 -3 13 -20q31 -41 56 -94q11 -23 16.5 -41.5t11.5 -44.5t12 -45v-14
q-223 -4 -225 -5q-9 -3 -9 -11q0 -9 16 -16q4 -2 221 -4q12 -172 13 -176q4 -9 11 -9q10 1 16 16q4 7 7 169q80 -1 183 -2q12 -170 13 -174q4 -9 11 -9q10 1 16 16q3 7 7 167q88 -1 183 -1q12 -169 13 -173q4 -9 11 -9q10 1 16 16q3 7 7 166l67 -1l41 -10q154 -37 187 -54
q28 -13 37 0q5 6 5 8q0 7 -16 26t-26 62q0 4 -2 10.5t-2.5 9.5t-1 10t0 16t2.5 22q1 11 2.5 35.5t0.5 24.5q-2 0 -19 -13q-41 -31 -95 -56q-23 -10 -41 -16t-44 -12t-46 -11q-18 -1 -49 -1v19l10 41q37 154 54 187q14 28 0 38q-6 4 -8 4q-7 0 -25 -16q-19 -16 -63 -25
q-3 -1 -10 -2.5t-10 -2t-10 -1t-16 0t-22 1.5q-11 1 -35.5 3t-24.5 1q0 -3 13 -20q31 -41 56 -94q11 -23 16.5 -41.5t11.5 -44.5t12 -45v-4q-91 -2 -179 -4v24l10 41q37 154 54 187q14 28 0 38q-6 4 -8 4q-7 0 -25 -16q-19 -16 -63 -25q-3 -1 -10 -2.5t-10 -2t-10 -1t-16 0
t-22 1.5q-11 1 -35.5 3t-24.5 1q0 -3 13 -20q31 -41 56 -94q11 -23 16.5 -41.5t11.5 -44.5t12 -45v-9q-101 -2 -179 -4v29zM3065 728l41 -10q154 -37 187 -54q28 -13 37 0q5 6 5 8q0 7 -16 26t-26 62q0 4 -2 10.5t-2.5 9.5t-1 10t0 16t2.5 22q1 11 2.5 35.5t0.5 24.5
q-2 0 -19 -13q-41 -31 -95 -56q-23 -10 -41 -16t-44 -12t-46 -11q-781 -16 -785 -17q-9 -3 -9 -11q0 -9 16 -16q4 -2 202.5 -4t395.5 -3zM330 706l-41 10q-117 28 -165 45q39 29 92 54q23 10 41 16t44 12t46 11q460 9 676 14q-3 -26 -6 -170h-2q-4 2 -62.5 4t-115.5 3l-57 1
l-41 10q-154 37 -187 54q-28 14 -38 0q-4 -6 -4 -8q0 -7 16 -26q11 -12 19 -36zM347 654q151 11 206 15q6 -26 2 -63q-1 -13 -3 -36q-28 14 -38 0q-4 -6 -4 -8q0 -7 16 -26q16 -18 25 -62q1 -3 3 -10t2.5 -10t1 -10t-0.5 -16t-2 -22t-3 -36q-28 14 -38 0q-4 -6 -4 -8
q0 -7 16 -26q16 -18 25 -62q1 -3 3 -10t2.5 -10t1 -10t-0.5 -16t-2 -22q-1 -11 -2.5 -35.5l-1.5 -24.5q3 0 20 13q41 31 95 56q23 10 41 16t44 12t46 11q136 10 197 15q-29 -112 -42 -139q-14 -28 -1 -38q7 -4 9 -4q7 0 25 16q19 16 63 25q3 1 9.5 2.5t10 2t10 1t16 0
t22.5 -1.5q11 -1 35 -3t24 -1q0 3 -12 20q-31 41 -56 95q-11 22 -16.5 40.5t-11.5 44.5t-12 46q-5 20 -10 37q21 5 59 1q11 -1 35 -3t24 -1q0 3 -12 20q-31 41 -56 95q-11 22 -16.5 40.5t-11.5 44.5t-12 46q-11 169 -15 214q79 2 80 2q9 4 9 11q-1 9 -16 16q-4 2 -202.5 4
t-395.5 3l-197 1l-41 10q-154 37 -187 54q-28 14 -38 0q-4 -6 -4 -8q0 -7 16 -26q16 -18 25 -62q1 -3 3 -10t2.5 -10t1 -10t-0.5 -16t-2 -22t-3 -36q-28 14 -38 0q-4 -6 -4 -8q0 -7 16 -26q16 -18 25 -62q1 -3 3 -10t2.5 -10t1 -10t-0.5 -16t-2 -22q-1 -11 -2.5 -35.5
l-1.5 -24.5q3 0 20 13q41 31 95 56q23 10 41 16t44 12t46 11zM780 506l-41 10q-117 28 -165 45q39 29 92 54q23 10 41 16t44 12t46 11q185 13 219 16v-32l-10 -41q-14 -55 -25 -96zM797 454q108 8 175 13q-13 -42 -20 -57q-14 -28 -1 -38q7 -4 9 -4q7 0 25 16q12 10 34 18
l-3 -44l-10 -41q-2 -9 -4 -17l-222 6l-41 10q-117 28 -165 45q39 29 92 54q23 10 41 16t44 12t46 11zM1969 638l-10 -41q-38 -154 -54 -187q-14 -28 -1 -38q7 -4 9 -4q7 0 25 16q19 16 63 25q3 1 9.5 2.5t10 2t10 1t16 0t22.5 -1.5q11 -1 35 -3t24 -1q0 3 -12 20
q-31 41 -56 95q-11 22 -16.5 40.5t-11.5 44.5t-12 46q0 4 -1 13q224 4 226 5q9 4 9 11q-1 9 -16 16q-4 2 -221 4q-12 172 -13 176q-4 9 -11 9q-10 -1 -17 -16q-3 -7 -6 -168q-80 0 -183 1q-12 170 -13 174q-4 9 -11 9q-10 -1 -17 -16q-3 -7 -6 -167q-89 1 -183 1
q-12 169 -13 173q-4 9 -11 9q-10 -1 -17 -16q-3 -7 -6 -165h-67l-41 10q-154 37 -187 54q-28 14 -38 0q-4 -6 -4 -8q0 -7 16 -26q16 -18 25 -62q1 -3 3 -10t2.5 -10t1 -10t-0.5 -16t-2 -22q-1 -11 -2.5 -35.5l-1.5 -24.5q3 0 20 13q41 31 95 56q23 10 41 16t44 12t46 11
q18 1 49 1v-19l-10 -41q-38 -154 -54 -187q-14 -28 -1 -38q7 -4 9 -4q7 0 25 16q19 16 63 25q3 1 9.5 2.5t10 2t10 1t16 0t22.5 -1.5q11 -1 35 -3t24 -1q0 3 -12 20q-31 41 -56 95q-11 22 -16.5 40.5t-11.5 44.5t-12 46v3q91 2 179 4v-24l-10 -41q-38 -154 -54 -187
q-14 -28 -1 -38q7 -4 9 -4q7 0 25 16q19 16 63 25q3 1 9.5 2.5t10 2t10 1t16 0t22.5 -1.5q11 -1 35 -3t24 -1q0 3 -12 20q-31 41 -56 95q-11 22 -16.5 40.5t-11.5 44.5t-12 46v8q101 2 179 4v-29zM1443 248l-41 10q-154 37 -187 54q-28 14 -38 0q-4 -6 -4 -8q0 -7 16 -26
q16 -18 25 -62q1 -3 3 -10t2.5 -10t1 -10t-0.5 -16t-2 -22q-1 -11 -2.5 -35.5l-1.5 -24.5q3 0 20 13q41 31 95 56q23 10 41 16t44 12t46 11q781 16 785 17q9 4 9 11q-1 9 -16 16q-4 2 -202.5 4t-395.5 3z" />
</svg>
