<?xml version="1.0" standalone="no"?>
<!DOCTYPE svg PUBLIC "-//W3C//DTD SVG 1.1//EN" "http://www.w3.org/Graphics/SVG/1.1/DTD/svg11.dtd" >
<svg xmlns="http://www.w3.org/2000/svg" xmlns:xlink="http://www.w3.org/1999/xlink" version="1.1" viewBox="0 0 1268 894">
   <path fill="currentColor"
d="M1195 150q7 -9 16.5 -5.5t6.5 14.5q-5 20 -26.5 59t-47.5 91.5t-42 104.5q-20 69 7.5 153.5t80.5 153.5q27 36 50 85.5t16 56.5q-2 1 -6.5 -3.5t-11 -14t-13.5 -21.5q-9 -18 -36 -51.5t-54 -62.5q-47 -48 -83.5 -73.5t-130.5 -74.5q-26 -14 -38 -28l-346 6l-41 10
q-154 37 -187 54q-28 14 -37 0q-5 -6 -5 -8q0 -7 16 -26q16 -18 26 -62q0 -3 2 -10t2.5 -10t1 -10t0 -16t-2.5 -22q-1 -11 -2.5 -35.5t-0.5 -24.5q2 0 19 13q41 31 95 56q23 10 41 16t44 12t46 11q226 10 322 15q8 -14 36 -25q10 -4 35.5 -23.5t48 -38.5t49.5 -42t30 -26
q18 -15 33.5 -46t36.5 -74t50 -78zM1066 410l1 -1zM253 849l-37 -23q-135 -82 -170 -94q-14 -5 -21 -12t-6 -14t3 -9q5 -5 29 -7q25 -2 62 -26q3 -2 9 -5.5t8.5 -5.5t8 -6t11.5 -11t14 -18q22 -26 37 -41l-3 -212l-10 -41q-37 -154 -54 -187q-14 -28 0 -38q6 -4 8 -4
q7 0 25 16q19 16 63 25q3 1 9.5 2.5t10 2t10.5 1t16 0t22 -1.5q11 -1 35.5 -3t24.5 -1q0 3 -13 20q-31 41 -56 95q-11 22 -16.5 40.5t-11.5 44.5t-12 46q-9 221 -14 319q1 1 1 2q9 24 18 41t23 39.5t24 40.5q28 49 30 53q4 9 -1 14q-8 7 -23 1q-4 -2 -18 -12.5t-25 -20.5z
M597 275l-37 -23q-135 -82 -170 -94q-14 -5 -21 -12t-6 -14t3 -9q5 -5 29 -7q25 -2 62 -26q3 -2 9 -5.5t8.5 -5.5t8 -6t11.5 -11t14 -18q7 -8 23 -26.5t17 -17.5q1 2 4 23q8 51 28 106q9 24 18 41t23 39.5t24 40.5q28 49 30 53q4 9 -1 14q-8 7 -23 1q-4 -2 -18 -12.5
t-25 -20.5z" />
</svg>
