<?xml version="1.0" standalone="no"?>
<!DOCTYPE svg PUBLIC "-//W3C//DTD SVG 1.1//EN" "http://www.w3.org/Graphics/SVG/1.1/DTD/svg11.dtd" >
<svg xmlns="http://www.w3.org/2000/svg" xmlns:xlink="http://www.w3.org/1999/xlink" version="1.1" viewBox="0 0 1959 814">
   <path fill="currentColor"
d="M1671 50q3 -4 10.5 -4.5t13 2.5t4.5 9q-4 15 -38 77.5t-49 113.5q-16 52 7 120q25 -55 52 -88q3 -4 10.5 -4.5t13 2.5t4.5 9q-5 16 -28.5 59.5t-33.5 65.5q17 36 40 67q19 25 32 62.5t8 42.5q-2 2 -5.5 -1.5t-8 -10.5t-9.5 -16q-18 -34 -68 -86l-9 -9q-3 9 -5 17
q-16 51 5 115t60 116q19 25 32 62.5t8 42.5q-2 2 -5.5 -1.5t-8 -10.5t-9.5 -16q-18 -34 -68 -86q-35 -36 -62.5 -55t-97.5 -56q-12 -6 -20 -13l-46 4l-41 10q-154 37 -187 54q-28 14 -38 0q-4 -6 -4 -8q0 -7 16 -26q16 -18 26 -62q0 -3 2 -10t2.5 -10t1 -10t0 -16t-2.5 -22
q-1 -11 -2.5 -35.5t-0.5 -24.5q2 0 19 13q41 31 95 56q23 10 41 16t44 12t46 11q11 4 24 7q7 -5 18 -9q8 -3 27 -17.5t35.5 -29t37 -31.5t22.5 -19v-1q-30 -24 -115 -69q-12 -6 -20 -13l-46 4l-41 10q-154 37 -187 54q-28 14 -38 0q-4 -6 -4 -8q0 -7 16 -26q16 -18 26 -62
q0 -3 2 -10t2.5 -10t1 -10t0 -16t-2.5 -22q-1 -11 -2.5 -35.5t-0.5 -24.5q2 0 19 13q41 31 95 56q23 10 41 16t44 12t46 11q11 4 24 7q7 -5 18 -9q8 -3 27 -17.5t35.5 -29t37 -31.5t22.5 -19q16 -14 39.5 -65t50.5 -84zM668 650q-13 2 -21 -7.5t-6 -18.5q0 -4 2 -7l-20 -16
l-36 -22q-8 -5 -15 -10q-3 3 -7 4q-4 2 -62.5 4t-115.5 3l-57 1l-41 10q-154 37 -187 54q-28 14 -38 0q-4 -6 -4 -8q0 -7 16 -26q16 -18 25 -62q1 -3 3 -10t2.5 -10t1 -10t-0.5 -16t-2 -22q-1 -11 -2.5 -35.5l-1.5 -24.5q3 0 20 13q41 31 95 56q23 10 41 16t44 12t46 11
q114 8 179 13q-83 -49 -109 -58q-14 -4 -21 -11t-6 -14.5t3 -9.5q5 -5 29 -7q25 -1 62 -26q3 -2 9 -5.5t8.5 -5t7.5 -6t11 -11.5t15 -17q7 -9 22 -27q-18 2 -75 3.5t-104 2.5l-48 1l-41 10q-154 37 -187 54q-28 14 -38 0q-4 -6 -4 -8q0 -7 16 -26q16 -18 25 -62q1 -3 3 -10
t2.5 -10t1 -10t-0.5 -16t-2 -22q-1 -11 -2.5 -35.5l-1.5 -24.5q3 0 20 13q41 31 95 56q23 10 41 16t44 12t46 11q182 13 219 16q-15 -9 -14 -20q2 -7 3 -9q5 -5 29 -6q25 -2 63 -26q3 -2 8.5 -5.5t8 -5.5t8 -6.5t11.5 -11.5t15 -17q6 -8 22 -26.5t17 -18.5q2 2 5 23
q7 51 27 107q9 23 18 40t23 39.5t24 40.5q28 50 30 54v1q18 -13 62.5 -55.5t64.5 -66.5q7 -8 21 -25q-4 0 -9 -2t-18.5 -13t-24.5 -21l-12 -10l-36 -22q-135 -82 -170 -94q-14 -5 -21 -12t-6 -14.5t3 -8.5q5 -5 29 -7q25 -2 62 -26q3 -2 9 -5.5t8.5 -5.5t8 -6.5t11.5 -11
t14 -17.5q7 -8 23 -26.5t17 -17.5t4 22q8 51 28 107q9 24 17.5 41t23 39.5t23.5 40.5q29 49 30 53l1 1l3 -4q4 3 5 23q20 241 144 457q4 9 -2 14q-4 4 -10 5t-12 -4q-35 -44 -136.5 -81t-201 -53.5t-149.5 -11.5zM1572 258q2 -2 3 -4q-2 1 -3 4zM1572 488q2 -2 3 -4
q-2 1 -3 4zM1790 270l-10 -41q-38 -154 -54 -187q-14 -28 -1 -38q7 -4 9 -4q7 0 25 16q19 16 63 25q3 1 9.5 2.5t10 2t10 1t16 0t22.5 -1.5q11 -1 35 -3t24 -1q0 3 -12 20q-31 41 -56 95q-11 22 -16.5 40.5t-11.5 44.5t-12 46q-15 501 -16 505q-4 9 -11 9q-10 -1 -17 -16
q-1 -4 -3 -133t-3 -255zM671 576q8 13 15 26q15 -9 43.5 -30.5t66.5 -51.5t48 -37l-4 -2q-4 -1 -17.5 -12t-25.5 -21l-11 -10l-36 -22q-136 -82 -171 -94q2 2 2 5q0 4 -4 8q1 6 2 14q7 51 28 106q8 24 17 41t23 39.5t24 40.5z" />
</svg>
