<?xml version="1.0" standalone="no"?>
<!DOCTYPE svg PUBLIC "-//W3C//DTD SVG 1.1//EN" "http://www.w3.org/Graphics/SVG/1.1/DTD/svg11.dtd" >
<svg xmlns="http://www.w3.org/2000/svg" xmlns:xlink="http://www.w3.org/1999/xlink" version="1.1" viewBox="0 0 1695 896">
   <path fill="currentColor"
d="M964 559q-8 0 -12.5 -5.5t-3.5 -10.5q0 -2 1 -4l-12 -10l-22 -14q-4 -2 -9 -5q-1 1 -4 2q-2 1 -37.5 2.5t-69.5 1.5l-34 1l-25 6q-88 21 -110 31q20 39 46 72q24 32 45.5 76.5t21.5 60.5q0 3 -1 5h-2q-8 0 -29 -39q-10 -18 -36.5 -51.5t-53.5 -62.5q-47 -48 -83.5 -73.5
t-130.5 -74.5q-48 -26 -48 -48q0 -20 39 -36q10 -4 35.5 -23.5t48 -38.5t49.5 -42t30 -26q18 -15 33 -46t36.5 -74t50.5 -78q5 -6 12 -6q12 0 12 11q0 2 -1 4q-5 20 -26.5 59t-47.5 91.5t-42 104.5q-8 28 -8 59q0 70 37 151q7 -12 11 -31q4 -21 2 -41q0 -7 -1.5 -21.5
t-0.5 -14.5t12 8q24 18 56 33q14 7 25 10t26.5 6.5t27.5 7.5q69 5 108 8q-50 -30 -66 -35q-18 -6 -16 -16q1 -4 2 -5q3 -3 17 -4q15 -1 37 -16q2 -1 5.5 -3t5 -3.5t5 -4t7 -6.5t8.5 -10q4 -6 13 -16l-136 4l-25 6q-92 22 -112 32q-17 8 -22 0q-3 -3 -3 -5q0 -4 10 -15
q9 -11 15 -37q4 -21 2 -41q0 -7 -1.5 -21.5t-0.5 -14.5t12 8q24 18 56 33q14 7 25 10t26.5 6.5t27.5 7.5q110 7 131 10q-9 -6 -7 -12q0 -5 1 -6q3 -3 18 -4t37 -16q2 -1 5.5 -3t5 -3t4.5 -4l7 -7t9 -10q4 -5 13.5 -16l9.5 -11q1 1 3 14q5 30 17 64q5 14 10.5 24t13.5 23.5
t14 24.5q17 30 18 32l1 1q10 -8 37 -33.5t39 -39.5l12 -15q-2 0 -5 -2q-3 0 -11 -6.5t-15 -13.5l-7 -6l-22 -13q-81 -49 -102 -56q-18 -6 -16 -16q1 -4 2 -6q3 -2 17 -3q15 -2 38 -16q1 -1 4.5 -3t5.5 -3.5t5 -4t6.5 -6.5t8.5 -11q4 -5 13.5 -16t10.5 -10t3 13q4 31 16 64
q5 14 10.5 24.5t14 24t14.5 24.5q17 29 18 32l2 -2q2 2 3 14q12 145 86 274q3 5 0 8q-8 8 -14 1q-31 -39 -136 -66t-156 -21zM966 514q4 8 9 15q4 -2 95 -71q-2 0 -3 -1q-2 -1 -10.5 -7.5t-15.5 -12.5l-6 -6l-22 -13q-81 -50 -102 -57q1 2 1 3q-1 3 -3 5l2 8q4 31 16 64
q5 15 10.5 25t14 23.5t14.5 24.5zM330 215l-41 10q-154 37 -187 54q-28 14 -38 0q-4 -6 -4 -8q0 -7 16 -26q16 -18 25 -62q1 -3 3 -10t2.5 -10t1 -10t-0.5 -16t-2 -22q-1 -11 -2.5 -35.5l-1.5 -24.5q3 0 20 13q41 31 95 56q23 10 41 16t44 12t46 11q221 16 225 17q9 4 9 11
q-1 9 -16 16q-4 2 -62.5 4t-115.5 3zM330 675l-41 10q-154 37 -187 54q-28 14 -38 0q-4 -6 -4 -8q0 -7 16 -26q16 -18 25 -62q1 -3 3 -10t2.5 -10t1 -10t-0.5 -16t-2 -22q-1 -11 -2.5 -35.5l-1.5 -24.5q3 0 20 13q41 31 95 56q23 10 41 16t44 12t46 11q221 16 225 17
q9 4 9 11q-1 9 -16 16q-4 2 -62.5 4t-115.5 3zM1526 270l-10 -41q-11 -43 -20 -78q-1 1 -2 1q-4 2 -132.5 4t-255.5 3l-127 1l-41 10q-154 37 -187 54q-28 14 -38 0q-4 -6 -4 -8q0 -7 16 -26q16 -18 26 -62q0 -3 2 -10t2.5 -10t1 -10t0 -16t-2.5 -22q-1 -11 -2.5 -35.5
t-0.5 -24.5q2 0 19 13q41 31 95 56q23 10 41 16t44 12t46 11q417 13 493 16q-17 -63 -27 -82q-14 -28 -1 -38q7 -4 9 -4q7 0 25 16q19 16 63 25q3 1 9.5 2.5t10 2t10 1t16 0t22.5 -1.5q11 -1 35 -3t24 -1q0 3 -12 20q-31 41 -56 95q-11 22 -16.5 40.5t-11.5 44.5t-12 46
q-15 501 -16 505q-4 9 -11 9q-10 -1 -17 -16q-2 -6 -5 -272l-126 3l-24 6q-93 23 -113 32q-17 9 -22 1q-3 -4 -3 -5q0 -5 10 -15q10 -12 15 -38q4 -20 2 -41q0 -6 -1 -21l-1 -15q1 0 12 8q24 19 57 34q13 6 24 9.5t26.5 7t27.5 6.5q78 6 116 9q-1 -56 -1 -119l-125 3l-24 6
q-93 23 -113 32q-17 9 -22 1q-3 -4 -3 -5q0 -5 10 -15q10 -12 15 -38q4 -20 2 -41q0 -6 -1 -21l-1 -15q1 0 12 8q24 19 57 34q13 6 24 9.5t26.5 7t27.5 6.5q77 6 114 9v-86zM979 825l-41 10q-154 37 -187 54q-28 14 -38 0q-4 -6 -4 -8q0 -7 16 -26q16 -18 26 -62q0 -3 2 -10
t2.5 -10t1 -10t0 -16t-2.5 -22q-1 -11 -2.5 -35.5t-0.5 -24.5q2 0 19 13q41 31 95 56q23 10 41 16t44 12t46 11q501 16 505 17q9 4 9 11q0 9 -16 16q-4 2 -132.5 4t-255.5 3zM548 315q0 -1 1 -1q-1 0 -1 1z" />
</svg>
