<?xml version="1.0" standalone="no"?>
<!DOCTYPE svg PUBLIC "-//W3C//DTD SVG 1.1//EN" "http://www.w3.org/Graphics/SVG/1.1/DTD/svg11.dtd" >
<svg xmlns="http://www.w3.org/2000/svg" xmlns:xlink="http://www.w3.org/1999/xlink" version="1.1" viewBox="0 0 1695 896">
   <path fill="currentColor"
d="M613 528q-37 -81 -37 -150q0 -31 8 -59q16 -52 42 -104.5t47.5 -91.5t26.5 -59q1 -2 1 -4q0 -11 -12 -11q-7 0 -12 6q-29 35 -50.5 78t-36.5 74t-33 46q-3 3 -30 26t-49.5 42t-48 38.5t-35.5 23.5q-39 16 -39 36q0 22 48 48q94 49 130.5 74.5t83.5 73.5q27 29 53.5 62.5
t36.5 51.5q21 39 29 39h2q1 -2 1 -5q0 -16 -21.5 -60.5t-45.5 -76.5q-26 -33 -46 -72q-7 -13 -13 -26q6 -11 10 -30q4 -21 2 -41q0 -7 -1 -21.5l-1 -14.5q1 0 12 8q24 18 57 33q13 7 24 10t26.5 6.5t27.5 7.5q69 5 108 8q-50 -30 -66 -35q-18 -6 -16 -16q1 -4 2 -5
q3 -3 17 -4q15 -1 38 -16q1 -1 4.5 -3t5 -3.5t5 -4t7 -6.5t8.5 -10q4 -6 13 -16l-136 4l-24 6q-93 22 -113 32q-17 8 -22 0q-3 -3 -3 -5q0 -4 10 -15t15 -37q4 -21 2 -41q0 -7 -1 -21.5l-1 -14.5q1 0 12 8q24 18 57 33q13 7 24 10t26.5 6.5t27.5 7.5q110 7 132 10
q-10 -6 -8 -12q0 -5 1 -6q3 -3 18 -4t37 -16q2 -1 5.5 -3t5 -3t4.5 -4l7 -7t9 -10q4 -5 13.5 -16l9.5 -11q1 1 3 14q5 30 17 64q5 14 10.5 24t14 23.5t13.5 24.5q17 30 18 32l1 1q10 -8 37 -33.5t39 -39.5l12 -15q-2 0 -5 -2q-6 -2 -33 -26l-22 -13q-81 -49 -102 -56
q-17 -6 -16 -16q1 -4 2 -6q3 -2 17 -3q15 -2 38 -16q2 -1 5.5 -3t5 -3.5t4.5 -4t6.5 -6.5t8.5 -11q4 -5 14 -16t10 -10q1 1 3 13q4 31 16 64q5 14 10.5 24.5t14 24t14.5 24.5q17 29 18 32l2 -2q2 2 3 14q12 145 86 274q3 5 0 8q-8 8 -14 1q-20 -25 -93 -47t-136 -31l-63 -9
q-8 0 -12.5 -5.5t-3.5 -10.5q0 -2 1 -4l-12 -10q2 0 6.5 2t7 2.5t6 0t6 -5.5t3.5 -14q-6 -11 -14.5 -24.5t-14 -23.5t-10.5 -25q-12 -33 -16 -64l-2 -8q3 -2 3 -5q0 -1 -1 -3q21 7 102 57l22 13q26 24 32 26q1 1 3 1q-91 69 -95 71zM330 215l-41 10q-154 37 -187 54
q-28 14 -38 0q-4 -6 -4 -8q0 -7 16 -26q16 -18 25 -62q1 -3 3 -10t2.5 -10t1 -10t-0.5 -16t-2 -22q-1 -11 -2.5 -35.5l-1.5 -24.5q3 0 20 13q41 31 95 56q23 10 41 16t44 12t46 11q221 16 225 17q9 4 9 11q-1 9 -16 16q-4 2 -62.5 4t-115.5 3zM330 675l-41 10
q-154 37 -187 54q-28 14 -38 0q-4 -6 -4 -8q0 -7 16 -26q16 -18 25 -62q1 -3 3 -10t2.5 -10t1 -10t-0.5 -16t-2 -22q-1 -11 -2.5 -35.5l-1.5 -24.5q3 0 20 13q41 31 95 56q23 10 41 16t44 12t46 11q221 16 225 17q9 4 9 11q-1 9 -16 16q-4 2 -62.5 4t-115.5 3zM1526 270
l-10 -41q-11 -43 -20 -78q-1 1 -2 1q-4 2 -132.5 4t-255.5 3l-127 1l-41 10q-154 37 -187 54q-28 14 -38 0q-4 -6 -4 -8q0 -7 16 -26q16 -18 26 -62q0 -3 2 -10t2.5 -10t1 -10t0 -16t-2.5 -22q-1 -11 -2.5 -35.5t-0.5 -24.5q2 0 19 13q41 31 95 56q23 10 41 16t44 12t46 11
q417 13 493 16q-17 -63 -27 -82q-14 -28 -1 -38q7 -4 9 -4q7 0 25 16q19 16 63 25q3 1 9.5 2.5t10 2t10 1t16 0t22.5 -1.5q11 -1 35 -3t24 -1q0 3 -12 20q-31 41 -56 95q-11 22 -16.5 40.5t-11.5 44.5t-12 46q-15 501 -16 505q-4 9 -11 9q-10 -1 -17 -16q-2 -6 -5 -272
l-126 3l-24 6q-93 23 -113 32q-17 9 -22 1q-3 -4 -3 -5q0 -5 10 -15q10 -12 15 -38q4 -20 2 -41q0 -6 -1 -21l-1 -15q1 0 12 8q24 19 57 34q13 6 24 9.5t26.5 7t27.5 6.5q78 6 116 9q-1 -56 -1 -119l-125 3l-24 6q-93 23 -113 32q-17 9 -22 1q-3 -4 -3 -5q0 -5 10 -15
q10 -12 15 -38q4 -20 2 -41q0 -6 -1 -21l-1 -15q1 0 12 8q24 19 57 34q13 6 24 9.5t26.5 7t27.5 6.5q77 6 114 9v-86zM979 825l-41 10q-154 37 -187 54q-28 14 -38 0q-4 -6 -4 -8q0 -7 16 -26q16 -18 26 -62q0 -3 2 -10t2.5 -10t1 -10t0 -16t-2.5 -22q-1 -11 -2.5 -35.5
t-0.5 -24.5q2 0 19 13q41 31 95 56q23 10 41 16t44 12t46 11q501 16 505 17q9 4 9 11q0 9 -16 16q-4 2 -132.5 4t-255.5 3zM548 315q0 -1 1 -1q-1 0 -1 1zM905 510q-1 1 -4 2q-2 1 -37.5 2.5t-69.5 1.5l-34 1l-24 6q-87 21 -110 31z" />
</svg>
