<?xml version="1.0" standalone="no"?>
<!DOCTYPE svg PUBLIC "-//W3C//DTD SVG 1.1//EN" "http://www.w3.org/Graphics/SVG/1.1/DTD/svg11.dtd" >
<svg xmlns="http://www.w3.org/2000/svg" xmlns:xlink="http://www.w3.org/1999/xlink" version="1.1" viewBox="0 0 2112 896">
   <path fill="currentColor"
d="M979 825l-41 10q-154 37 -187 54q-28 14 -38 0q-4 -6 -4 -8q0 -7 16 -26q16 -18 26 -62q0 -3 2 -10t2.5 -10t1 -10t0 -16t-2.5 -22q-1 -11 -2.5 -35.5t-0.5 -24.5q2 0 19 13q41 31 95 56q23 10 41 16t44 12t46 11q47 1 122 2l-5 -372l-7 -31q-28 -116 -41 -141
q-10 -21 0 -28q4 -3 6 -3q5 0 19 12t47 19q3 1 8 2t7 1.5t7.5 1t12 0t16.5 -1.5q8 -1 26.5 -2.5t18.5 -0.5q0 2 -10 15q-23 31 -42 71q-8 17 -12 30.5t-8.5 33t-8.5 34.5q-9 285 -12 361q73 1 150 2l-4 -165l-8 -31q-28 -116 -40 -141q-11 -21 -1 -28q5 -3 7 -3q5 0 19 12
q9 8 25 13l-2 -32l-8 -31q-28 -116 -40 -141q-11 -21 -1 -28q5 -3 7 -3q5 0 19 12t46 19q3 1 8 2l7.5 1.5t7.5 1t12 0t17 -1.5q8 -1 26 -2.5t18 -0.5q0 2 -9 15q-23 31 -42 71q-8 17 -12.5 30.5t-9 33t-8.5 34.5t-8 28q16 4 45 1q8 -1 26 -2.5t18 -0.5q0 2 -9 15
q-23 31 -42 71q-8 17 -12.5 30.5t-9 33t-8.5 34.5q-7 112 -11 153q383 6 566 9q-2 -21 -4 -254l-66 1l-31 7q-115 28 -140 41q-21 10 -28 0q-3 -5 -3 -6q0 -6 12 -19q7 -9 13 -26l-33 3l-31 7q-115 28 -140 41q-21 10 -28 0q-3 -5 -3 -6q0 -6 12 -19q12 -14 19 -47
q0 -3 1.5 -8t2 -7t0.5 -7.5v-12t-2 -16.5q0 -8 -1.5 -26.5t-0.5 -18.5q2 0 14 10q31 23 71 41q18 8 31.5 12.5t33 9t34.5 8.5t27 8q4 -16 1 -44q0 -8 -1.5 -26.5t-0.5 -18.5q2 0 14 10q31 23 71 41q18 8 31.5 12.5t33 9t34.5 8.5q21 1 52 2l-1 -94l-7 -31q-28 -116 -40 -141
q-11 -21 -1 -28q5 -3 7 -3q5 0 19 12t46 19q3 1 8 2l7.5 1.5t7.5 1t12 0t17 -1.5q8 -1 26 -2.5t18 -0.5q0 2 -9 15q-23 31 -42 71q-8 17 -12.5 30.5t-9 33t-8.5 34.5q-1 35 -3 84q184 8 186 9q7 2 7 8q0 7 -11 12q-5 2 -183 5q-6 219 -8 254q130 3 131 3q9 4 9 11
q0 9 -16 16q-4 2 -265 4t-521 3zM979 160l-41 10q-154 37 -187 54q-28 14 -38 0q-4 -6 -4 -8q0 -7 16 -26q16 -18 26 -62q0 -3 2 -10t2.5 -10t1 -10t0 -16t-2.5 -22q-1 -11 -2.5 -35.5t-0.5 -24.5q2 0 19 13q41 31 95 56q23 10 41 16t44 12t46 11q1031 16 1035 17q9 4 9 11
q0 9 -16 16q-4 2 -265 4t-521 3zM330 675l-41 10q-154 37 -187 54q-28 14 -38 0q-4 -6 -4 -8q0 -7 16 -26q16 -18 25 -62q1 -3 3 -10t2.5 -10t1 -10t-0.5 -16t-2 -22q-1 -11 -2.5 -35.5l-1.5 -24.5q3 0 20 13q41 31 95 56q23 10 41 16t44 12t46 11q221 16 225 17q9 4 9 11
q-1 9 -16 16q-4 2 -62.5 4t-115.5 3zM330 215l-41 10q-154 37 -187 54q-28 14 -38 0q-4 -6 -4 -8q0 -7 16 -26q16 -18 25 -62q1 -3 3 -10t2.5 -10t1 -10t-0.5 -16t-2 -22q-1 -11 -2.5 -35.5l-1.5 -24.5q3 0 20 13q41 31 95 56q23 10 41 16t44 12t46 11q221 16 225 17
q9 4 9 11q-1 9 -16 16q-4 2 -62.5 4t-115.5 3zM548 315q0 -1 1 -1q-1 0 -1 1zM557 253q18 -15 33 -46t36.5 -74t50.5 -78q5 -6 12 -6q12 0 12 11q0 2 -1 4q-5 20 -26.5 59t-47.5 91.5t-42 104.5q-8 28 -8 59q0 61 27.5 127.5t68.5 120.5q24 32 45.5 76.5t21.5 60.5q0 3 -1 5
h-2q-8 0 -29 -39q-10 -18 -36.5 -51.5t-53.5 -62.5q-47 -48 -83.5 -73.5t-130.5 -74.5q-48 -26 -48 -48q0 -20 39 -36q10 -4 35.5 -23.5t48 -38.5t49.5 -42t30 -26zM786 618l-22 -13q-81 -49 -102 -57q-18 -6 -16 -15q1 -5 2 -6q3 -3 17 -4q15 -1 37 -15q2 -1 5.5 -3.5
t5 -3.5t5 -3.5t7 -7t8.5 -10.5q4 -5 13.5 -16t10.5 -11q1 2 3 14q4 31 16 64q5 14 10.5 24.5t14 24t14.5 23.5q17 30 18 33q2 5 -1 8q-4 4 -13 0q-3 -1 -11 -7.5t-15 -12.5zM884 521l-22 -14q-81 -49 -102 -56q-18 -6 -16 -16q0 -4 1 -5q3 -3 18 -4q9 -1 22 -7l-20 -17
l-22 -13q-81 -50 -102 -57q-18 -6 -16 -16q0 -4 2 -5q2 -3 17 -4t37 -16q2 -1 5.5 -3t5 -3t4.5 -4l7 -7t9 -10q4 -5 13.5 -16l9.5 -11q1 1 3 14q5 30 17 64q5 14 10.5 24t14 23.5t14.5 24.5t11 20q11 -7 26 -24q4 -5 13.5 -16l9.5 -11q1 1 3 14q5 30 17 63q5 15 10.5 25
t13.5 23.5t14 24.5q17 30 18 32q3 5 0 8q-5 4 -14 1q-2 -1 -10.5 -7.5t-15.5 -12.5zM981 423l-22 -13q-81 -50 -102 -57q-18 -6 -16 -15q1 -5 2 -6q3 -3 17 -4q15 -1 38 -15q1 -2 4.5 -4t5.5 -3t5 -3.5t6.5 -7t8.5 -10.5q4 -5 13.5 -16t10.5 -11q1 1 3 14q4 31 16 64
q5 14 10.5 24t14 23.5t14.5 24.5q17 30 18 32q2 6 -1 9q-4 4 -13 0q-3 -1 -11 -7.5t-15 -12.5z" />
</svg>
