<?xml version="1.0" standalone="no"?>
<!DOCTYPE svg PUBLIC "-//W3C//DTD SVG 1.1//EN" "http://www.w3.org/Graphics/SVG/1.1/DTD/svg11.dtd" >
<svg xmlns="http://www.w3.org/2000/svg" xmlns:xlink="http://www.w3.org/1999/xlink" version="1.1" viewBox="0 0 871 628">
   <path fill="currentColor"
d="M409 394l-22 37q-83 135 -95 170q-4 14 -11 21t-14.5 6t-9.5 -3q-5 -5 -6 -29q-2 -25 -26 -62q-2 -3 -5.5 -9t-5.5 -8.5t-6.5 -8t-11.5 -11.5t-17 -14q-8 -7 -26.5 -23t-18.5 -17q2 -1 23 -4q51 -8 106 -28q24 -9 41 -18t39.5 -23t40.5 -24q33 -31 79 -74l-133 1l-41 10
q-154 37 -187 54q-28 14 -38 0q-4 -6 -4 -8q0 -7 16 -26q16 -18 25 -62q1 -3 3 -10t2.5 -10t1 -10t-0.5 -16t-2 -22q-1 -11 -2.5 -35.5l-1.5 -24.5q3 0 20 13q41 31 95 56q23 10 41 16t44 12t46 11q74 3 164 6q239 -225 242 -226q9 -4 14 1q7 7 1 23q-3 6 -196 203
q277 9 280 10q9 4 9 11q-1 9 -16 16q-6 3 -315 6z" />
</svg>
