<?xml version="1.0" standalone="no"?>
<!DOCTYPE svg PUBLIC "-//W3C//DTD SVG 1.1//EN" "http://www.w3.org/Graphics/SVG/1.1/DTD/svg11.dtd" >
<svg xmlns="http://www.w3.org/2000/svg" xmlns:xlink="http://www.w3.org/1999/xlink" version="1.1" viewBox="0 0 1520 801">
   <path fill="currentColor"
d="M997 650q-13 2 -21 -7.5t-6 -18.5q1 -4 2 -7l-20 -16l-36 -22q-135 -83 -170 -95q-14 -4 -21 -11t-6 -14.5t3 -9.5q5 -5 29 -7q25 -1 62 -26q3 -2 9 -5.5t8.5 -5t7.5 -6t11.5 -11.5t14.5 -17q7 -9 23 -27.5t16 -17.5q2 2 5 23q8 51 28 106q8 24 17 41t23 39.5t24 40.5
q8 13 15 26q15 -9 44 -30.5t66.5 -51.5t47.5 -37l-4 -2q-9 -3 -54 -43l-36 -22q-136 -83 -171 -94q-13 -5 -20.5 -12t-6 -14.5t3.5 -9.5q4 -5 29 -6q24 -2 62 -26q3 -2 8.5 -5.5t8.5 -5.5t8 -6.5t11 -11.5t15 -17q6 -8 22 -26.5t17 -18.5q2 2 5 23q7 51 27 107q9 23 18 40
t23 39.5t24 40.5q28 50 30 54v1q18 -13 62.5 -55.5t64.5 -66.5q7 -8 21 -25q-4 0 -9 -2q-4 -2 -18 -13t-25 -21l-11 -10l-37 -22q-135 -82 -170 -94q-14 -5 -21 -12t-6 -14.5t3 -8.5q5 -5 29 -7q25 -2 62 -26q3 -2 9 -5.5t8.5 -5.5t8 -6.5t11.5 -11t14 -17.5q7 -8 23 -26.5
t17 -17.5t4 22q8 51 28 107q9 24 18 41t23 39.5t24 40.5q28 49 30 53v1q3 -4 4 -4q3 3 4 23q20 241 144 457q4 9 -1 14q-5 4 -11 5t-12 -4q-35 -44 -136.5 -81t-201 -53.5t-149.5 -11.5zM558 550l-10 -41q-37 -154 -54 -187q-14 -28 0 -38q6 -4 8 -4q7 0 25 16q12 10 34 18
l-3 -44l-10 -41q-37 -154 -54 -187q-14 -28 0 -38q6 -4 8 -4q7 0 25 16q19 16 63 25q3 1 9.5 2.5t10 2t10.5 1t16 0t22 -1.5q11 -1 35.5 -3t24.5 -1q0 3 -13 20q-31 41 -56 95q-11 22 -16.5 40.5t-11.5 44.5t-12 46q-5 20 -10 37q21 5 59 1q11 -1 35.5 -3t24.5 -1
q0 3 -13 20q-31 41 -56 95q-11 22 -16.5 40.5t-11.5 44.5t-12 46q-15 221 -16 225q-4 9 -11 9q-10 -1 -16 -16q-2 -4 -4 -63t-3 -115zM377 275l-37 -23q-135 -82 -170 -94q-14 -5 -21 -12t-6 -14t3 -9q5 -5 29 -7q25 -2 62 -26q3 -2 9 -5.5t8.5 -5.5t8 -6t11.5 -11t14 -18
q7 -8 23 -26.5t17 -17.5q1 2 4 23q8 51 28 106q9 24 18 41t23 39.5t24 40.5q28 49 30 53q4 9 -1 14q-8 7 -23 1q-10 -4 -54 -43zM293 505l-37 -23q-135 -82 -170 -94q-14 -5 -21 -12t-6 -14t3 -9q5 -5 29 -7q25 -2 62 -26q3 -2 9 -5.5t8.5 -5.5t8 -6t11.5 -11t14 -18
q7 -8 23 -26.5t17 -17.5q1 2 4 23q8 51 28 106q9 24 18 41t23 39.5t24 40.5q28 49 30 53q4 9 -1 14q-8 7 -23 1q-10 -4 -54 -43z" />
</svg>
