<?xml version="1.0" standalone="no"?>
<!DOCTYPE svg PUBLIC "-//W3C//DTD SVG 1.1//EN" "http://www.w3.org/Graphics/SVG/1.1/DTD/svg11.dtd" >
<svg xmlns="http://www.w3.org/2000/svg" xmlns:xlink="http://www.w3.org/1999/xlink" version="1.1" viewBox="0 0 1088 800">
   <path fill="currentColor"
d="M381 87q8 -9 17.5 -5.5t6.5 14.5q-5 20 -26.5 59t-48 91.5t-41.5 104.5q-20 69 7.5 153.5t79.5 153.5q27 36 50 85.5t16 56.5q-1 1 -6 -3.5t-11.5 -14t-12.5 -21.5q-10 -18 -36.5 -51.5t-53.5 -62.5q-47 -48 -83.5 -73.5t-130.5 -74.5q-19 -10 -31 -20.5t-16 -21.5t5 -22
t32 -20q11 -4 36 -23.5t48 -38.5t49.5 -42t30.5 -26q18 -15 33 -46t36.5 -74t49.5 -78zM454 337q-10 -10 -9 -21.5t9 -16.5q3 -2 6 -3l-2 -26l-10 -41q-37 -154 -54 -187q-14 -28 0 -38q6 -4 8 -4q7 0 26 16q18 16 62 25q3 1 10 2.5t10 2t10 1t16 0t22 -1.5q11 -1 35.5 -3
t24.5 -1q0 3 -13 20q-31 41 -56 95q-10 22 -16 40.5t-12 44.5t-12 46q-3 14 -8 29q18 4 53.5 9t83.5 10.5t60 7.5l-2 -4q-2 -4 -4 -21.5t-3 -32.5l-1 -15l-10 -41q-37 -154 -54 -187q-14 -28 0 -38q6 -4 8 -4q7 0 26 16q18 16 62 25q3 1 10 2.5t10 2t10 1t16 0t22 -1.5
q11 -1 35.5 -3t24.5 -1q0 3 -13 20q-31 41 -56 95q-10 22 -16 40.5t-12 44.5t-12 46q-15 55 -16 59l-1 1q22 3 81.5 4.5t94.5 -1.5l33 -3q-3 -3 -5 -8q-2 -4 -4 -21.5t-3 -32.5l-1 -15l-10 -41q-37 -154 -54 -187q-14 -28 0 -38q6 -4 8 -4q7 0 26 16q18 16 62 25q3 1 10 2.5
t10 2t10 1t16 0t22 -1.5q11 -1 35.5 -3t24.5 -1q0 3 -13 20q-31 41 -56 95q-10 22 -16 40.5t-12 44.5t-12 46q-15 55 -16 59h5q0 5 -13 20q-157 185 -222 425q-3 9 -11 9q-5 -1 -11 -5t-5 -11q6 -56 -39.5 -154t-104 -179.5t-98.5 -113.5zM253 347q0 -1 1 -1q-1 0 -1 1z" />
</svg>
