<?xml version="1.0" standalone="no"?>
<!DOCTYPE svg PUBLIC "-//W3C//DTD SVG 1.1//EN" "http://www.w3.org/Graphics/SVG/1.1/DTD/svg11.dtd" >
<svg xmlns="http://www.w3.org/2000/svg" xmlns:xlink="http://www.w3.org/1999/xlink" version="1.1" viewBox="0 0 1601 896">
   <path fill="currentColor"
d="M780 825l-41 10q-154 37 -187 54q-28 14 -38 0q-4 -6 -4 -8q0 -7 16 -26q16 -18 26 -62q0 -3 2 -10t2.5 -10t1 -10t0 -16t-2.5 -22q-1 -11 -2.5 -35.5t-0.5 -24.5q2 0 19 13q41 31 95 56q23 10 41 16t44 12t46 11q781 16 785 17q9 4 9 11q0 9 -16 16q-9 4 -795 8z
M780 160l-41 10q-154 37 -187 54q-28 14 -38 0q-4 -6 -4 -8q0 -7 16 -26q16 -18 26 -62q0 -3 2 -10t2.5 -10t1 -10t0 -16t-2.5 -22q-1 -11 -2.5 -35.5t-0.5 -24.5q2 0 19 13q41 31 95 56q23 10 41 16t44 12t46 11q781 16 785 17q9 4 9 11q0 9 -16 16q-9 4 -795 8zM1164 548
l-27 -16q-101 -62 -127 -71q-11 -3 -16.5 -8.5t-4.5 -11t3 -6.5q3 -4 21 -5q19 -2 47 -20q2 -1 6.5 -3.5t6.5 -4t6 -5t8.5 -8.5t10.5 -13q5 -6 17 -20t13 -14q1 2 3 17q6 39 21 80q6 18 13 31t17.5 29.5t17.5 30.5q22 37 23 40q3 7 -1 10q-5 5 -17 1q-3 -1 -13 -9.5
t-19 -15.5zM1227 376l-27 -17q-101 -61 -128 -70q-10 -4 -15.5 -9t-4.5 -10.5t3 -7.5q3 -3 21 -5q19 -1 47 -19q2 -2 6.5 -4.5t6.5 -4t6 -5t8.5 -8.5t10.5 -13q5 -6 17 -19.5t13 -13.5q1 1 3 17q6 38 21 80q6 18 13 30.5t17.5 29.5t17.5 30q22 38 23 41q3 6 -1 10
q-5 5 -17 0q-3 -1 -13 -9t-19 -16zM1363 373l-7 -31q-28 -116 -40 -141q-11 -21 -1 -28q5 -3 7 -3q5 0 18 12q15 12 47 19q3 1 8 2l7.5 1.5t7.5 1t11.5 0t17.5 -1.5q8 -1 26 -2.5t18 -0.5q0 2 -9 15q-24 31 -42 71q-8 17 -12.5 30.5t-9 33t-8.5 34.5q-11 376 -13 379
q-2 7 -7 7q-8 -1 -13 -12q-1 -3 -2.5 -99.5t-2.5 -191.5zM890 685l-37 -23q-135 -82 -170 -94q-14 -5 -21 -12t-6 -14t3 -9q5 -5 29 -7q23 -1 56 -22l-34 -29l-37 -23q-79 -48 -125 -73l-213 6l-41 10q-154 37 -187 54q-28 14 -38 0q-4 -6 -4 -8q0 -7 16 -26q16 -18 25 -62
q1 -3 3 -10t2.5 -10t1 -10t-0.5 -16t-2 -22q-1 -11 -2.5 -35.5l-1.5 -24.5q3 0 20 13q41 31 95 56q23 10 41 16t44 12t46 11q66 5 127 9q-4 -5 -3 -10q1 -7 3 -9q5 -5 29 -7q25 -2 62 -26q3 -2 9 -5.5t8.5 -5.5t8 -6t11.5 -11t14 -18q7 -8 23 -26.5t17 -17.5q1 2 4 23
q8 51 28 106q9 24 17.5 41t23 39.5t24.5 40.5q10 17 18 32q10 -8 25 -28q7 -8 23 -26.5t17 -17.5q1 2 4 23q8 51 28 106q9 24 17.5 41t23 39.5t24.5 40.5q28 49 30 53q4 9 -2 14q-7 7 -22 1q-10 -4 -54 -43zM335 615l-41 10q-154 37 -187 54q-28 14 -38 0q-4 -6 -4 -8
q0 -7 16 -26q16 -18 25 -62q1 -3 3 -10t2.5 -10t1 -10t-0.5 -16t-2 -22q-1 -11 -2.5 -35.5l-1.5 -24.5q3 0 20 13q41 31 95 56q23 10 41 16t44 12t46 11q221 16 225 17q9 4 9 11q-1 9 -16 16q-4 2 -62.5 4t-115.5 3z" />
</svg>
