<?xml version="1.0" standalone="no"?>
<!DOCTYPE svg PUBLIC "-//W3C//DTD SVG 1.1//EN" "http://www.w3.org/Graphics/SVG/1.1/DTD/svg11.dtd" >
<svg xmlns="http://www.w3.org/2000/svg" xmlns:xlink="http://www.w3.org/1999/xlink" version="1.1" viewBox="0 0 1321 896">
   <path fill="currentColor"
d="M890 685l-37 -23q-135 -82 -170 -94q-14 -5 -21 -12t-6 -14t3 -9q5 -5 29 -7q23 -1 56 -22l-34 -29l-37 -23q-79 -48 -125 -73l-213 6l-41 10q-154 37 -187 54q-28 14 -38 0q-4 -6 -4 -8q0 -7 16 -26q16 -18 25 -62q1 -3 3 -10t2.5 -10t1 -10t-0.5 -16t-2 -22
q-1 -11 -2.5 -35.5l-1.5 -24.5q3 0 20 13q41 31 95 56q23 10 41 16t44 12t46 11q66 5 127 9q-4 -5 -3 -10q1 -7 3 -9q5 -5 29 -7q25 -2 62 -26q3 -2 9 -5.5t8.5 -5.5t8 -6t11.5 -11t14 -18q7 -8 23 -26.5t17 -17.5q1 2 4 23q8 51 28 106q9 24 17.5 41t23 39.5t24.5 40.5
q10 17 18 32q10 -8 25 -28q7 -8 23 -26.5t17 -17.5q1 2 4 23q8 51 28 106q9 24 17.5 41t23 39.5t24.5 40.5q28 49 30 53q4 9 -2 14q-7 7 -22 1q-10 -4 -54 -43zM1001 583l-8 -31q-28 -116 -40 -141q-11 -21 -1 -28q5 -3 7 -3q5 0 19 12q9 8 25 13l-2 -32l-8 -31
q-28 -116 -40 -141q-11 -21 -1 -28q5 -3 7 -3q5 0 19 12t47 19q2 1 7 2l7.5 1.5t7.5 1t12 0t17 -1.5q8 -1 26 -2.5t18 -0.5q0 2 -9 15q-23 31 -42 71q-8 17 -12.5 30.5t-8.5 33t-9 34.5q-4 15 -7 28q16 4 44 1q8 -1 26 -2.5t18 -0.5q0 2 -9 15q-23 31 -42 71
q-8 17 -12.5 30.5t-8.5 33t-9 34.5q-11 166 -12 169q-3 7 -8 7q-7 -1 -13 -12q-1 -3 -2.5 -47t-2.5 -87v-42zM1173 583l-7 -31q-28 -116 -41 -141q-10 -21 0 -28q5 -3 6 -3q6 0 19 12q9 8 26 13l-3 -32l-7 -31q-28 -116 -41 -141q-10 -21 0 -28q5 -3 6 -3q6 0 19 12
q14 12 47 19q3 1 8 2t7 1.5t7.5 1t12 0t16.5 -1.5q8 -1 26.5 -2.5t18.5 -0.5q0 2 -10 15q-23 31 -41 71q-8 17 -12.5 30.5t-9 33t-8.5 34.5t-8 28q16 4 44 1q8 -1 26.5 -2.5t18.5 -0.5q0 2 -10 15q-23 31 -41 71q-8 17 -12.5 30.5t-9 33t-8.5 34.5q-12 166 -13 169
q-2 7 -8 7q-7 -1 -12 -12q-1 -3 -2.5 -47t-2.5 -87zM335 615l-41 10q-154 37 -187 54q-28 14 -38 0q-4 -6 -4 -8q0 -7 16 -26q16 -18 25 -62q1 -3 3 -10t2.5 -10t1 -10t-0.5 -16t-2 -22q-1 -11 -2.5 -35.5l-1.5 -24.5q3 0 20 13q41 31 95 56q23 10 41 16t44 12t46 11
q221 16 225 17q9 4 9 11q-1 9 -16 16q-4 2 -62.5 4t-115.5 3zM780 159l-41 10q-154 38 -187 54q-28 14 -38 1q-4 -6 -4 -9q0 -7 16 -25q16 -19 26 -62q0 -4 2 -10.5t2.5 -9.5t1 -10t0 -16t-2.5 -23q-1 -10 -2.5 -34.5t-0.5 -24.5q2 0 19 12q41 31 95 56q23 11 41 16.5
t44 11.5t46 12q501 15 505 17q9 3 9 10q0 10 -16 17q-4 2 -132.5 3.5t-255.5 2.5zM780 825l-41 10q-154 37 -187 54q-28 14 -38 0q-4 -6 -4 -8q0 -7 16 -26q16 -18 26 -62q0 -3 2 -10t2.5 -10t1 -10t0 -16t-2.5 -22q-1 -11 -2.5 -35.5t-0.5 -24.5q2 0 19 13q41 31 95 56
q23 10 41 16t44 12t46 11q501 16 505 17q9 4 9 11q0 9 -16 16q-4 2 -132.5 4t-255.5 3z" />
</svg>
