<?xml version="1.0" standalone="no"?>
<!DOCTYPE svg PUBLIC "-//W3C//DTD SVG 1.1//EN" "http://www.w3.org/Graphics/SVG/1.1/DTD/svg11.dtd" >
<svg xmlns="http://www.w3.org/2000/svg" xmlns:xlink="http://www.w3.org/1999/xlink" version="1.1" viewBox="0 0 1230 801">
   <path fill="currentColor"
d="M330 615l-41 10q-154 37 -187 54q-28 14 -38 0q-4 -6 -4 -8q0 -7 16 -26q16 -18 25 -62q1 -3 3 -10t2.5 -10t1 -10t-0.5 -16t-2 -22q-1 -11 -2.5 -35.5l-1.5 -24.5q3 0 20 13q41 31 95 56q23 10 41 16t44 12t46 11q115 3 257 6l-3 -299l-10 -41q-38 -154 -54 -187
q-14 -28 -1 -38q7 -4 9 -4q7 0 25 16q19 16 63 25q3 1 9.5 2.5t10 2t10 1t16 0t22.5 -1.5q11 -1 35 -3t24 -1q0 3 -12 20q-31 41 -56 95q-11 22 -16.5 40.5t-11.5 44.5t-12 46q-4 147 -9 282q108 2 191 4l-3 -303l-10 -41q-38 -154 -54 -187q-14 -28 -1 -38q7 -4 9 -4
q7 0 25 16q19 16 63 25q3 1 9.5 2.5t10 2t10 1t16 0t22.5 -1.5q11 -1 35 -3t24 -1q0 3 -12 20q-31 41 -56 95q-11 22 -16.5 40.5t-11.5 44.5t-12 46q-4 151 -9 287q125 3 191 4l-3 -308l-10 -41q-38 -154 -54 -187q-14 -28 -1 -38q7 -4 9 -4q7 0 25 16q19 16 63 25
q3 1 9.5 2.5t10 2t10 1t16 0t22.5 -1.5q11 -1 35 -3t24 -1q0 3 -12 20q-31 41 -56 95q-11 22 -16.5 40.5t-11.5 44.5t-12 46q-5 154 -9 292q28 1 29 1q9 4 9 11q-1 9 -16 16q-1 1 -23 1q-6 182 -6 184q-4 9 -11 9q-10 -1 -17 -16q-2 -5 -4 -176q-64 1 -192 2q-6 179 -6 181
q-4 9 -11 9q-10 -1 -17 -16q-2 -5 -4 -173q-85 1 -192 1q-6 177 -6 179q-4 9 -11 9q-10 -1 -17 -16q-2 -5 -4 -172zM335 505l-36 -23q-135 -82 -170 -94q-14 -5 -21 -12t-6 -14t3 -9q5 -5 29 -7q25 -2 62 -26q3 -2 9 -5.5t8.5 -5.5t8 -6t11.5 -11t14 -18q7 -8 23 -26.5
t17 -17.5q1 2 4 23q8 51 28 106q9 24 17.5 41t23 39.5t23.5 40.5q29 49 30 53q5 9 -1 14q-7 7 -22 1q-5 -2 -18.5 -12.5t-24.5 -20.5zM419 275l-36 -23q-135 -82 -170 -94q-14 -5 -21 -12t-6 -14t3 -9q5 -5 29 -7q25 -2 62 -26q3 -2 9 -5.5t8.5 -5.5t8 -6t11.5 -11t14 -18
q7 -8 23 -26.5t17 -17.5q1 2 4 23q8 51 28 106q9 24 17.5 41t23 39.5t23.5 40.5q29 49 30 53q5 9 -1 14q-7 7 -22 1q-5 -2 -18.5 -12.5t-24.5 -20.5z" />
</svg>
