<?xml version="1.0" standalone="no"?>
<!DOCTYPE svg PUBLIC "-//W3C//DTD SVG 1.1//EN" "http://www.w3.org/Graphics/SVG/1.1/DTD/svg11.dtd" >
<svg xmlns="http://www.w3.org/2000/svg" xmlns:xlink="http://www.w3.org/1999/xlink" version="1.1" viewBox="0 0 743 681">
   <path fill="currentColor"
d="M293 275l-37 -23q-135 -82 -170 -94q-14 -4 -21 -11.5t-6 -14.5t3 -9q5 -5 29 -7q25 -2 62 -26q3 -2 9 -5.5t8.5 -5.5t8 -6t11.5 -11t14 -18q7 -8 23 -26.5t17 -17.5q1 2 4 23q8 51 28 106q9 24 18 41t23 39.5t24 40.5t19 33q18 -11 42 -41q7 -8 23 -26.5t17 -17.5
q1 2 4 23q8 51 28 106q9 24 18 41t23 39.5t24 40.5q28 49 30 53q4 9 -1 14q-8 7 -23 1q-4 -2 -18 -12.5t-25 -20.5l-11 -10l-37 -23q-135 -82 -170 -94q-14 -5 -21 -12t-6 -14t3 -9q5 -5 29 -7q16 -1 37 -11zM653 310l-36 -22q-135 -83 -170 -95q-14 -4 -21 -11t-6 -14.5
t3 -9.5q5 -5 29 -6q25 -2 62 -26q3 -2 9 -5.5t8.5 -5.5t7.5 -6.5t11 -11.5t15 -17q7 -8 23 -26.5l16 -18.5q2 2 5 23q8 51 28 106q8 24 17 41t23 39.5t24 40.5q28 50 30 54q4 9 -1 14q-7 6 -22 0q-10 -3 -55 -43zM328 635l-36 -22q-136 -82 -171 -94q-13 -5 -20.5 -12
t-6 -14.5t3.5 -9.5q4 -4 29 -6q24 -2 62 -26q3 -2 8.5 -5.5t8.5 -5.5t8 -6.5t11 -11t15 -17.5q6 -8 22 -26.5t17 -18.5q2 2 5 23q7 51 27 107q9 23 18 40t23 39.5t24 40.5q28 50 30 54q4 9 -1 14q-7 6 -23 0q-9 -3 -54 -43z" />
</svg>
