<?xml version="1.0" standalone="no"?>
<!DOCTYPE svg PUBLIC "-//W3C//DTD SVG 1.1//EN" "http://www.w3.org/Graphics/SVG/1.1/DTD/svg11.dtd" >
<svg xmlns="http://www.w3.org/2000/svg" xmlns:xlink="http://www.w3.org/1999/xlink" version="1.1" viewBox="0 0 1434 801">
   <path fill="currentColor"
d="M1034 270l-10 -41q-37 -154 -54 -187q-14 -28 0 -38q6 -4 8 -4q7 0 25 16q19 16 63 25q3 1 9.5 2.5t10 2t10.5 1t16 0t22 -1.5q11 -1 35.5 -3t24.5 -1q0 3 -13 20q-31 41 -56 95q-11 22 -16.5 40.5t-11.5 44.5t-12 46q-15 501 -16 505q-4 9 -11 9q-10 -1 -16 -16
q-3 -7 -7 -345l-57 5l-41 10q-154 37 -187 54q-28 14 -37 0q-5 -6 -5 -8q0 -7 16 -26q16 -18 26 -62q0 -3 2 -10t2.5 -10t1 -10t0 -16t-2.5 -22q-1 -11 -2.5 -35.5t-0.5 -24.5q2 0 19 13q41 31 95 56q23 10 41 16t44 12t46 11q23 7 40 12zM1319 754l-37 -23
q-135 -82 -170 -94q-14 -5 -21 -12t-6 -14t3 -9q5 -5 29 -7q25 -2 62 -26q3 -2 9 -5.5t8.5 -5.5t8 -6t11.5 -11t14 -18q22 -26 37 -41l-3 -212l-10 -41q-37 -154 -54 -187q-14 -28 0 -38q6 -4 8 -4q7 0 25 16q19 16 63 25q3 1 9.5 2.5t10 2t10.5 1t16 0t22 -1.5
q11 -1 35.5 -3t24.5 -1q0 3 -13 20q-31 41 -56 95q-11 22 -16.5 40.5t-11.5 44.5t-12 46q-9 221 -14 319q1 1 1 2q9 24 18 41t23 39.5t24 40.5q28 49 30 53q4 9 -1 14q-8 7 -23 1q-4 -2 -18 -12.5t-25 -20.5zM328 693l-36 -22q-136 -82 -171 -94q-13 -5 -20.5 -12t-6 -14.5
t3.5 -9.5q4 -4 29 -6q24 -2 62 -26q3 -2 8.5 -5.5t8.5 -5.5t8 -6.5t11 -11t15 -17.5q6 -8 22 -26.5t17 -18.5q2 2 5 23q7 51 27 107q9 23 18 40t23 39.5t24 40.5q28 50 30 54q4 9 -1 14q-7 6 -23 0q-4 -1 -17.5 -12t-25.5 -21zM491 531l-37 -23q-135 -82 -170 -94
q-14 -5 -21 -12t-6 -14t3 -9q5 -5 29 -7q16 -1 37 -11l-33 -28l-37 -23q-135 -82 -170 -94q-14 -4 -21 -11.5t-6 -14.5t3 -9q5 -5 29 -7q25 -2 62 -26q3 -2 9 -5.5t8.5 -5.5t8 -6t11.5 -11t14 -18q7 -8 23 -26.5t17 -17.5q1 2 4 23q8 51 28 106q9 24 18 41t23 39.5t24 40.5
t19 33q18 -11 42 -41q7 -8 23 -26.5t17 -17.5q1 2 4 23q8 51 28 106q9 24 18 41t23 39.5t24 40.5q28 49 30 53q4 9 -1 14q-8 7 -23 1q-4 -2 -18 -12.5t-25 -20.5zM653 368l-36 -22q-135 -83 -170 -95q-14 -4 -21 -11t-6 -14.5t3 -9.5q5 -5 29 -6q25 -2 62 -26q3 -2 9 -5.5
t8.5 -5.5t7.5 -6.5t11 -11.5t15 -17q7 -8 23 -26.5l16 -18.5q2 2 5 23q8 51 28 106q8 24 17 41t23 39.5t24 40.5q28 50 30 54q4 9 -1 14q-7 6 -22 0q-5 -1 -18.5 -12t-24.5 -21z" />
</svg>
