<?xml version="1.0" standalone="no"?>
<!DOCTYPE svg PUBLIC "-//W3C//DTD SVG 1.1//EN" "http://www.w3.org/Graphics/SVG/1.1/DTD/svg11.dtd" >
<svg xmlns="http://www.w3.org/2000/svg" xmlns:xlink="http://www.w3.org/1999/xlink" version="1.1" viewBox="0 0 1635 801">
   <path fill="currentColor"
d="M640 500l-41 10q-154 37 -187 54q-28 14 -38 0q-4 -6 -4 -8q0 -7 16 -26q12 -14 20 -42q-3 2 -7 4t-21 4t-33 3l-15 1l-41 10q-154 37 -187 54q-28 14 -38 0q-4 -6 -4 -8q0 -7 16 -26q16 -18 25 -62q1 -3 3 -10t2.5 -10t1 -10t-0.5 -16t-2 -22q-1 -11 -2.5 -35.5
l-1.5 -24.5q3 0 20 13q41 31 95 56q23 10 41 16t44 12t46 11q55 16 59 17q3 1 5 3q1 -3 3 -10t2.5 -10t1 -10t-0.5 -16t-2 -22q-1 -11 -2.5 -35.5l-1.5 -24.5q3 0 20 13q41 31 95 56q23 10 41 16t44 12t46 11q283 12 350 16l-1 -194l-2 -6l-219 6l-41 10q-154 37 -187 54
q-28 14 -38 0q-4 -6 -4 -8q0 -7 16 -26q16 -18 25 -62q1 -3 2.5 -10t2 -10t1.5 -10t0 -16t-2 -22q-1 -11 -2.5 -35.5l-1.5 -24.5q3 0 20 13q41 31 95 56q22 10 40.5 16t44.5 12t46 11q133 10 195 14l-1 -3q-38 -154 -54 -187q-14 -28 -1 -38q7 -4 9 -4q7 0 25 16
q19 16 63 25q3 1 9.5 2.5t10 2t10 1t16 0t22.5 -1.5q11 -1 35 -3t24 -1q0 3 -12 20q-31 41 -56 95q-11 22 -16.5 40.5t-11.5 44.5t-12 46q-15 501 -16 505q-4 9 -11 9q-10 -1 -17 -16q-1 -3 -2 -62q-23 2 -150.5 3.5t-243.5 2.5l-117 1l-41 10q-154 37 -187 54q-28 14 -38 0
q-4 -6 -4 -8q0 -7 16 -26q16 -18 25 -62q1 -3 3 -10t2.5 -10t1 -10t-0.5 -16t-2 -22q-1 -11 -2.5 -35.5l-1.5 -24.5q3 0 20 13q41 31 95 56q23 10 41 16t44 12t46 11q418 13 493 16q-1 -73 -2 -201q-54 4 -368 7zM1138 403l-7 -31q-29 -116 -41 -141q-10 -21 0 -28
q4 -3 6 -3q5 0 19 12t47 19q3 1 7.5 2t7 1.5t7.5 1t12 0t17 -1.5q8 -1 26.5 -2.5t18.5 -0.5q0 2 -10 15q-23 31 -42 71q-8 17 -12 30.5t-8.5 33t-8.5 34.5q-12 376 -13 379q-2 7 -8 6q-7 0 -12 -11q-2 -3 -3 -99.5t-2 -191.5zM1311 613l-8 -31q-28 -116 -40 -141
q-11 -21 -1 -28q5 -3 7 -3q5 0 19 12q9 8 25 13l-2 -32l-8 -31q-28 -116 -40 -141q-11 -21 -1 -28q5 -3 7 -3q5 0 19 12t46 19q3 1 8 2l7.5 1.5t7.5 1t12 0t17 -1.5q8 -1 26 -2.5t18 -0.5q0 2 -9 15q-23 31 -42 71q-8 17 -12.5 30.5t-9 33t-8.5 34.5t-8 28q16 4 45 1
q8 -1 26 -2.5t18 -0.5q0 2 -9 15q-23 31 -42 71q-8 17 -12.5 30.5t-9 33t-8.5 34.5q-11 166 -12 169q-3 7 -8 6q-8 0 -13 -11q-1 -3 -2.5 -47t-2.5 -87v-42zM1466 270l-10 -41q-38 -154 -54 -187q-14 -28 -1 -38q7 -4 9 -4q7 0 25 16q19 16 63 25q3 1 9.5 2.5t10 2t10 1
t16 0t22.5 -1.5q11 -1 35 -3t24 -1q0 3 -12 20q-31 41 -56 95q-11 22 -16.5 40.5t-11.5 44.5t-12 46q-15 501 -16 505q-4 9 -11 9q-10 -1 -17 -16q-1 -4 -3 -133t-3 -255z" />
</svg>
