<?xml version="1.0" standalone="no"?>
<!DOCTYPE svg PUBLIC "-//W3C//DTD SVG 1.1//EN" "http://www.w3.org/Graphics/SVG/1.1/DTD/svg11.dtd" >
<svg xmlns="http://www.w3.org/2000/svg" xmlns:xlink="http://www.w3.org/1999/xlink" version="1.1" viewBox="0 0 1522 964">
   <path fill="currentColor"
d="M1464 430q3 -4 10.5 -4.5t13 2.5t4.5 9q-5 16 -28.5 59.5t-33.5 65.5q17 36 40 67q19 25 32 62.5t8 42.5q-2 2 -5.5 -1.5t-8 -10.5t-9.5 -16q-18 -34 -68 -86l-9 -9q-3 9 -5 17q-16 51 5 115t60 116q19 25 32 62.5t8 42.5q-2 2 -5.5 -1.5t-8 -10.5t-9.5 -16
q-18 -34 -68 -86q-34 -35 -60 -53.5t-88 -51.5q19 60 59 114q19 25 32 62.5t8 42.5q-2 2 -5.5 -1.5t-8 -10.5t-9.5 -16q-18 -34 -68 -86q-35 -36 -62.5 -55t-97.5 -56q-14 -7 -22 -15l-211 6l-41 10q-154 37 -187 54q-28 14 -38 0q-4 -6 -4 -8q0 -7 16 -26q10 -12 18 -34
l-44 4l-41 10q-154 37 -187 54q-28 14 -37 0q-5 -6 -5 -8q0 -7 16 -26q16 -18 26 -62q0 -3 2 -10t2.5 -10t1 -10t0 -16t-2.5 -22q-1 -11 -2.5 -35.5t-0.5 -24.5q2 0 19 13q41 31 95 56q23 10 41 16t44 12t46 11q20 6 37 11q5 -22 1 -59q-1 -11 -2.5 -35.5l-1.5 -24.5
q3 0 20 13q41 31 95 56q23 10 41 16t44 12t46 11q120 9 184 14q7 -9 25 -16q8 -3 27 -17.5t35.5 -29t37 -31.5t22.5 -19v-1q-30 -24 -115 -69q-14 -7 -22 -15l-211 6l-41 10q-154 37 -187 54q-28 14 -38 0q-4 -6 -4 -8q0 -7 16 -26q10 -12 18 -34l-44 4l-41 10
q-154 37 -187 54q-28 14 -37 0q-5 -6 -5 -8q0 -7 16 -26q16 -18 26 -62q0 -3 2 -10t2.5 -10t1 -10t0 -16t-2.5 -22q-1 -11 -2.5 -35.5t-0.5 -24.5q2 0 19 13q41 31 95 56q23 10 41 16t44 12t46 11q20 6 37 11q5 -22 1 -59q-1 -11 -2.5 -35.5l-1.5 -24.5q3 0 20 13
q41 31 95 56q23 10 41 16t44 12t46 11q120 9 184 14q7 -9 25 -16q8 -3 27 -17.5t35.5 -29t37 -31.5t22.5 -19q16 -14 39.5 -65t50.5 -84q3 -4 10.5 -4.5t13 2.5t4.5 9q-4 15 -38 77.5t-49 113.5q-6 21 -6 44q10 -6 28 -20.5t34 -27.5t33 -28t20 -17q16 -14 39.5 -65
t50.5 -84q3 -4 10.5 -4.5t13 2.5t4.5 9q-4 15 -38 77.5t-49 113.5q-16 52 7 120q25 -55 52 -88zM293 849l-37 -23q-135 -82 -170 -94q-14 -5 -21 -12t-6 -14t3 -9q5 -5 29 -7q25 -2 62 -26q3 -2 9 -5.5t8.5 -5.5t8 -6t11.5 -11t14 -18q22 -26 37 -41l-3 -212l-10 -41
q-37 -154 -54 -187q-14 -28 0 -38q6 -4 8 -4q7 0 25 16q19 16 63 25q3 1 9.5 2.5t10 2t10.5 1t16 0t22 -1.5q11 -1 35.5 -3t24.5 -1q0 3 -13 20q-31 41 -56 95q-11 22 -16.5 40.5t-11.5 44.5t-12 46q-9 221 -14 319q1 1 1 2q9 24 18 41t23 39.5t24 40.5q28 49 30 53
q4 9 -1 14q-8 7 -23 1q-4 -2 -18 -12.5t-25 -20.5zM637 275l-37 -23q-135 -82 -170 -94q-14 -5 -21 -12t-6 -14t3 -9q5 -5 29 -7q25 -2 62 -26q3 -2 9 -5.5t8.5 -5.5t8 -6t11.5 -11t14 -18q7 -8 23 -26.5t17 -17.5q1 2 4 23q8 51 28 106q9 24 18 41t23 39.5t24 40.5
q28 49 30 53q4 9 -1 14q-8 7 -23 1q-4 -2 -18 -12.5t-25 -20.5zM1365 638q2 -2 3 -4q-2 1 -3 4zM1365 408q2 -2 3 -4q-2 1 -3 4zM1374 578q-24 -20 -70 -45q-8 15 -14 29q15 31 35 59q12 -10 29 -25t20 -17v-1zM1225 638q2 -2 3 -4q-2 1 -3 4zM1273 516l-1 -0.5l-1 -0.5
q0 2 1 3q0 -1 1 -2zM1259 672q13 -8 40 -30q-10 -12 -20 -22l-9 -9q-3 9 -5 17q-6 21 -6 44zM1225 408q2 -2 3 -4q-2 1 -3 4z" />
</svg>
