<?xml version="1.0" standalone="no"?>
<!DOCTYPE svg PUBLIC "-//W3C//DTD SVG 1.1//EN" "http://www.w3.org/Graphics/SVG/1.1/DTD/svg11.dtd" >
<svg xmlns="http://www.w3.org/2000/svg" xmlns:xlink="http://www.w3.org/1999/xlink" version="1.1" viewBox="0 0 1875 889">
   <path fill="currentColor"
d="M1614 610l-41 10q-154 37 -187 54q-28 14 -38 0q-4 -6 -4 -8q0 -7 16 -26q16 -18 25 -62q1 -3 2.5 -10t2 -10t1.5 -10t0 -16t-2 -22t-3 -36q-28 14 -38 0q-4 -6 -4 -8q0 -7 16 -26q16 -18 25 -62q1 -3 2.5 -10t2 -10t1.5 -10t0 -16t-2 -22t-3 -36q-28 14 -38 0
q-4 -6 -4 -8q0 -7 16 -26q16 -18 25 -62q1 -3 2.5 -10t2 -10t1.5 -10t0 -16t-2 -22q-1 -11 -2.5 -35.5l-1.5 -24.5q3 0 20 13q41 31 95 56q22 10 40.5 16t44.5 12t46 11q221 16 225 17q9 4 9 11q-1 9 -16 16q-4 2 -62.5 4t-115.5 3l-57 1l-41 10q-117 28 -165 45
q39 29 92 54q22 10 40.5 16t44.5 12t46 11q221 16 225 17q9 4 9 11q-1 9 -16 16q-4 2 -62.5 4t-115.5 3l-57 1l-41 10q-117 28 -165 45q39 29 92 54q22 10 40.5 16t44.5 12t46 11q221 16 225 17q9 4 9 11q-1 9 -16 16q-4 2 -62.5 4t-115.5 3zM744 210l-41 10
q-117 28 -165 45q39 29 92 54q22 10 40.5 16t44.5 12t46 11q172 12 215 16l-1 -104l-10 -41q-3 -13 -6 -25zM761 158q126 9 190 14q-27 -104 -40 -130q-14 -28 -1 -38q7 -4 9 -4q7 0 25 16q19 16 63 25q3 1 9.5 2.5t10 2t10 1t16 0t22.5 -1.5q11 -1 35 -3t24 -1q0 3 -12 20
q-31 41 -56 95q-11 22 -16.5 40.5t-11.5 44.5t-12 46q-9 221 -14 319q1 1 1 2q9 24 17.5 41t23 39.5t23.5 40.5q29 49 30 53q5 9 -1 14q-7 7 -22 1q-10 -4 -55 -43l-36 -23q-135 -82 -170 -94q-14 -5 -21 -12t-6 -14v-2l-52 1l-41 10q-154 37 -187 54q-28 14 -38 0
q-4 -6 -4 -8q0 -7 16 -26q16 -18 25 -62q1 -3 2.5 -10t2 -10t1.5 -10t0 -16t-2 -22t-3 -36q-28 14 -38 0q-4 -6 -4 -8q0 -7 16 -26q16 -18 25 -62q1 -3 2.5 -10t2 -10t1.5 -10t0 -16t-2 -22t-3 -36q-28 14 -38 0q-4 -6 -4 -8q0 -7 16 -26q16 -18 25 -62q1 -3 2.5 -10t2 -10
t1.5 -10t0 -16t-2 -22q-1 -11 -2.5 -35.5l-1.5 -24.5q3 0 20 13q41 31 95 56q22 10 40.5 16t44.5 12t46 11zM744 410l-41 10q-117 28 -165 45q39 29 92 54q22 10 40.5 16t44.5 12t46 11q70 5 132 10q1 -2 6 -4.5t7 -4l6 -4.5t7.5 -7t9 -10t12.5 -15q21 -26 36 -41
q0 -37 -1 -79q-12 2 -70 3.5t-110 2.5zM285 270l-10 -41q-38 -154 -54 -187q-14 -28 -1 -38q7 -4 9 -4q7 0 25 16q19 16 63 25q3 1 9.5 2.5t10 2t10 1t16 0t22.5 -1.5q11 -1 35 -3t24 -1q0 3 -12 20q-31 41 -56 95q-11 22 -16.5 40.5t-11.5 44.5t-12 46q-11 362 -15 473
q13 3 25 6q501 16 505 17q9 4 9 11q-1 9 -16 16q-4 2 -132.5 4t-255.5 3l-127 1l-41 10q-154 37 -187 54q-28 14 -38 0q-4 -6 -4 -8q0 -7 16 -26q16 -18 25 -62q1 -3 3 -10t2.5 -10t1 -10t-0.5 -16t-2 -22q-1 -11 -2.5 -35.5l-1.5 -24.5q3 0 20 13q41 31 95 56q33 15 76 25z
M1259 754l-36 -23q-135 -82 -170 -94q-14 -5 -21 -12t-6 -14t3 -9q5 -5 29 -7q25 -2 62 -26q3 -2 9 -5.5t8.5 -5.5t8 -6t11.5 -11t14 -18q21 -26 36 -41l-2 -212l-10 -41q-38 -154 -54 -187q-14 -28 -1 -38q7 -4 9 -4q7 0 25 16q19 16 63 25q3 1 9.5 2.5t10 2t10 1t16 0
t22.5 -1.5q11 -1 35 -3t24 -1q0 3 -12 20q-31 41 -56 95q-11 22 -16.5 40.5t-11.5 44.5t-12 46q-9 221 -14 319q1 1 1 2q9 24 17.5 41t23 39.5t23.5 40.5q29 49 30 53q5 9 -1 14q-7 7 -22 1q-10 -4 -55 -43z" />
</svg>
