<?xml version="1.0" standalone="no"?>
<!DOCTYPE svg PUBLIC "-//W3C//DTD SVG 1.1//EN" "http://www.w3.org/Graphics/SVG/1.1/DTD/svg11.dtd" >
<svg xmlns="http://www.w3.org/2000/svg" xmlns:xlink="http://www.w3.org/1999/xlink" version="1.1" viewBox="0 0 2311 894">
   <path fill="currentColor"
d="M1061 149q8 -9 17.5 -5.5t6.5 14.5q-6 20 -27.5 59t-47.5 91.5t-41 104.5q-21 69 7 153.5t80 153.5q27 36 50 85.5t16 56.5q-2 1 -6.5 -3.5t-11 -14t-12.5 -21.5q-10 -18 -36.5 -51.5t-54.5 -62.5q-47 -48 -83 -73.5t-130 -74.5q-19 -10 -31 -20.5t-16.5 -21.5t5 -22
t32.5 -20q11 -4 36 -23.5t47.5 -38.5t49.5 -42t30 -26q19 -15 34 -46t36 -74t50 -78zM337 744q-13 2 -20.5 -7.5t-6.5 -18.5q1 -4 2 -7l-19 -16l-37 -22q-135 -83 -170 -95q-14 -4 -21 -11t-6 -14.5t3 -9.5q5 -5 29 -7q25 -1 62 -26q3 -2 9 -5.5t8.5 -5t8 -6t11.5 -11.5
t14 -17q7 -9 23 -27.5t17 -17.5q1 2 4 23q8 51 28 106q9 24 18 41t23 39.5t24 40.5l14 26q16 -9 44.5 -30.5t66.5 -51.5t48 -37l-4 -2q-5 -1 -18.5 -12t-24.5 -21l-12 -10l-36 -22q-135 -83 -170 -94q-14 -5 -21 -12t-6 -14.5t3 -9.5q5 -5 29 -6q25 -2 62 -26q3 -2 9 -5.5
t8.5 -5.5t7.5 -6.5t11 -11.5t15 -17q7 -8 23 -26.5l16 -18.5q2 2 5 23q8 51 28 107q8 23 17 40t23 39.5t24 40.5q28 50 30 54q1 0 1 1q17 -13 62 -55.5t64 -66.5q7 -8 21 -25q-4 0 -9 -2q-4 -2 -17.5 -13t-25.5 -21l-11 -10l-36 -22q-136 -82 -171 -94q-13 -5 -20.5 -12
t-6 -14.5t2.5 -8.5q5 -5 30 -7q24 -2 62 -26q3 -2 8.5 -5.5t8.5 -5.5t8 -6.5t11 -11t15 -17.5q6 -8 22 -26.5t17 -17.5q2 1 5 22q7 51 27 107q9 24 18 41t23 39.5t24 40.5q28 49 30 53v1l4 -4q3 3 5 23q20 241 143 457q5 9 -1 14q-4 4 -10.5 5t-12.5 -4q-35 -44 -136.5 -81
t-200.5 -53.5t-150 -11.5zM1743 695l-37 -22q-135 -83 -170 -95q-14 -4 -21 -11t-6 -14.5t3 -9.5q5 -5 29 -7q25 -1 62 -26q3 -2 9 -5.5t8.5 -5t8 -6t11.5 -11.5t14 -17q7 -9 23 -27.5t17 -17.5q1 2 4 23q8 51 28 106q9 24 18 41t23 39.5t24 40.5l14 26q16 -9 44.5 -30.5
t66.5 -51.5t48 -37l-4 -2q-5 -1 -18.5 -12t-24.5 -21l-12 -10l-36 -22q-135 -83 -170 -94q-14 -5 -21 -12t-6 -14.5t3 -9.5q5 -5 29 -6q25 -2 62 -26q3 -2 9 -5.5t8.5 -5.5t7.5 -6.5t11 -11.5t15 -17q7 -8 23 -26.5l16 -18.5q2 2 5 23q8 51 28 107q8 23 17 40t23 39.5
t24 40.5q28 50 30 54q1 0 1 1q17 -13 62 -55.5t64 -66.5q7 -8 21 -25q-4 0 -9 -2q-4 -2 -17.5 -13t-25.5 -21l-11 -10l-36 -22q-136 -82 -171 -94q-13 -5 -20.5 -12t-6 -14.5t2.5 -8.5q5 -5 30 -7q24 -2 62 -26q3 -2 8.5 -5.5t8.5 -5.5t8 -6.5t11 -11t15 -17.5
q6 -8 22 -26.5t17 -17.5q2 1 5 22q7 51 27 107q9 24 18 41t23 39.5t24 40.5q28 49 30 53v1l4 -4q3 3 5 23q20 241 143 457q5 9 -1 14q-4 4 -10.5 5t-12.5 -4q-34 -42 -129.5 -78t-191 -53.5t-153.5 -14.5v1q0 9 -15 16q-4 2 -98 4t-186 3l-91 1l-42 10q-154 37 -187 54
q-28 14 -37 0q-5 -6 -5 -8q0 -7 16 -26q17 -18 26 -62q1 -3 2.5 -10t2 -10t1 -10t0 -16t-1.5 -22q-2 -11 -3.5 -35.5t-0.5 -24.5q2 0 19 13q42 31 95 56q23 10 41.5 16t44 12t45.5 11q252 11 337 15q-4 -7 -3 -14q1 -4 2 -7zM1479 659l-36 -23q-136 -82 -171 -94
q-13 -5 -20.5 -12t-6 -14t2.5 -9q5 -5 30 -7q16 -1 37 -11l-36 -30l-36 -23q-136 -82 -171 -94q-13 -5 -20.5 -12t-6 -14t2.5 -9q5 -5 30 -7q24 -2 62 -26q3 -2 8.5 -5.5t8.5 -5.5t8 -6t11 -11t15 -18q6 -8 22 -26.5t17 -17.5q2 2 5 23q7 51 27 106q9 24 18 41t23 39.5
t24 40.5q11 20 20 36q20 -12 44 -42q6 -8 22 -26.5t17 -17.5q2 2 5 23q7 51 27 106q9 24 18 41t23 39.5t24 40.5q28 49 30 53q4 9 -1 14q-7 7 -23 1q-4 -2 -17.5 -12.5t-25.5 -20.5zM932 409l1 -1zM1439 274l-37 -22q-135 -82 -170 -94q-13 -5 -20.5 -12t-6 -14.5t2.5 -8.5
q5 -5 29 -7q25 -2 63 -26q3 -2 8.5 -5.5t8 -5.5t8 -6.5t11.5 -11t14 -17.5q7 -8 23 -26.5t17 -17.5q2 1 5 22q7 51 27 107q9 24 18 41t23 39.5t24 40.5q145 167 147 170q4 9 -1 14q-7 7 -23 1q-4 -2 -47 -42t-83 -79z" />
</svg>
