<?xml version="1.0" standalone="no"?>
<!DOCTYPE svg PUBLIC "-//W3C//DTD SVG 1.1//EN" "http://www.w3.org/Graphics/SVG/1.1/DTD/svg11.dtd" >
<svg xmlns="http://www.w3.org/2000/svg" xmlns:xlink="http://www.w3.org/1999/xlink" version="1.1" viewBox="0 0 1330 892">
   <path fill="currentColor"
d="M330 671l-41 10q-154 37 -187 54q-28 14 -38 0q-4 -6 -4 -8q0 -7 16 -26q16 -18 25 -62q1 -3 3 -10t2.5 -10t1 -10t-0.5 -16t-2 -22q-1 -11 -2.5 -35.5l-1.5 -24.5q3 0 20 13q41 31 95 56q23 10 41 16t44 12t46 11q226 10 322 15q-82 -80 -198 -195l-141 2l-41 10
q-154 37 -187 54q-28 14 -38 0q-4 -6 -4 -8q0 -7 16 -26q16 -18 25 -62q1 -3 3 -10t2.5 -10t1 -10t-0.5 -16t-2 -22q-1 -11 -2.5 -35.5l-1.5 -24.5q3 0 20 13q41 31 95 56q23 10 41 16t44 12t46 11q29 2 71 4l-22 -14q-135 -82 -170 -94q-14 -5 -21 -12t-6 -14.5t3 -8.5
q5 -5 29 -7q25 -2 62 -26q3 -2 9 -5.5t8.5 -5.5t8 -6.5t11.5 -11t14 -17.5q3 -3 10 -11l-4 -2q-14 -5 -21.5 -12t-6 -14.5t3.5 -8.5q5 -5 29 -7q25 -2 62 -26q3 -2 9 -5.5t8.5 -5.5t7.5 -6.5t11 -11t15 -17.5q7 -8 23 -26.5t16 -17.5q2 1 5 22q7 51 28 107q8 24 17 41
t23 39.5t24 40.5q54 61 97 111l-10 -41q-38 -154 -54 -187q-14 -28 -1 -38q7 -4 9 -4q7 0 25 16q19 16 63 25q3 1 9.5 2.5t10 2t10 1t16 0t22.5 -1.5q11 -1 35 -3t24 -1q0 3 -12 20q-31 41 -56 95q-11 22 -16.5 40.5t-11.5 44.5t-12 46q0 16 -1 42q5 9 -1 14q-3 125 -6 223
q81 87 82 88q4 9 -1 14q-7 7 -23 1q-3 -1 -60 -56q-6 177 -6 179q-4 9 -11 9q-10 -1 -17 -16q-2 -5 -4 -209q-2 -1 -4 -3q-19 2 -111.5 3.5t-175.5 2.5zM480 377l19 19q149 6 194 9l-137 -131l-36 -22q-80 -49 -127 -73q7 34 23 77q9 24 17.5 41t23 39.5t23.5 40.5zM539 438
q97 103 164 175q-1 -82 -2 -179q-22 2 -162 4zM1161 361l-10 -41q-38 -154 -54 -187q-14 -28 -1 -38q6 -4 9 -4q7 0 25 16q19 16 62 25q4 1 10.5 2.5t9.5 2t10 1t16 0t23 -1.5q10 -1 34.5 -3t24.5 -1q0 3 -13 20q-30 41 -55 95q-11 22 -16.5 40.5t-11.5 44.5t-12 46
q-15 501 -17 505q-3 9 -10 9q-10 -1 -17 -16q-2 -4 -3.5 -133t-2.5 -255zM931 361l-10 -41q-38 -154 -54 -187q-14 -28 -1 -38q6 -4 9 -4q7 0 25 16q19 16 62 25q4 1 10.5 2.5t9.5 2t10 1t16 0t23 -1.5q10 -1 34.5 -3t24.5 -1q0 3 -13 20q-30 41 -55 95q-11 22 -16.5 40.5
t-11.5 44.5t-12 46q-15 501 -17 505q-3 9 -10 9q-10 -1 -17 -16q-2 -4 -3.5 -133t-2.5 -255z" />
</svg>
