<?xml version="1.0" standalone="no"?>
<!DOCTYPE svg PUBLIC "-//W3C//DTD SVG 1.1//EN" "http://www.w3.org/Graphics/SVG/1.1/DTD/svg11.dtd" >
<svg xmlns="http://www.w3.org/2000/svg" xmlns:xlink="http://www.w3.org/1999/xlink" version="1.1" viewBox="0 0 1295 891">
   <path fill="currentColor"
d="M1126 270l-10 -41q-2 -8 -4 -15l-217 6l-41 10q-117 28 -165 45q39 29 92 54q22 10 40.5 16t44.5 12t46 11q171 12 215 16zM1177 287q-15 501 -16 505q-4 9 -11 9q-5 0 -9 -5q-1 10 -16 16q-4 2 -132.5 4t-255.5 3l-127 1l-41 10q-154 37 -187 54q-28 14 -38 0
q-4 -6 -4 -8q0 -7 16 -26q16 -18 25 -62q1 -3 3 -10t2.5 -10t1 -10t-0.5 -16t-2 -22t-3 -36q-28 14 -38 0q-4 -6 -4 -8q0 -7 16 -26q10 -12 18 -34l-44 4l-41 10q-154 37 -187 54q-28 14 -38 0q-4 -6 -4 -8q0 -7 16 -26q16 -18 25 -62q1 -3 3 -10t2.5 -10t1 -10t-0.5 -16
t-2 -22q-1 -11 -2.5 -35.5l-1.5 -24.5q3 0 20 13q41 31 95 56q23 10 41 16t44 12t46 11q20 6 37 11q5 -22 1 -59q-1 -13 -3 -36q-28 14 -38 0q-4 -6 -4 -8q0 -7 16 -26q16 -18 25 -62q1 -3 3 -10t2.5 -10t1 -10t-0.5 -16t-2 -22q-1 -11 -2.5 -35.5l-1.5 -24.5q3 0 20 13
q41 31 95 56q23 10 41 16t44 12t46 11q24 7 41 12q6 -23 2 -60q-1 -13 -3 -36q-28 14 -38 0q-4 -6 -4 -8q0 -7 16 -26q16 -18 25 -62q1 -3 2.5 -10t2 -10t1.5 -10t0 -16t-2 -22q-1 -11 -2.5 -35.5l-1.5 -24.5q3 0 20 13q41 31 95 56q22 10 40.5 16t44.5 12t46 11
q130 9 192 14q-29 -113 -42 -140q-14 -28 -1 -38q7 -4 9 -4q7 0 25 16q19 16 63 25q3 1 9.5 2.5t10 2t10 1t16 0t22.5 -1.5q11 -1 35 -3t24 -1q0 3 -12 20q-31 41 -56 95q-11 22 -16.5 40.5t-11.5 44.5t-12 46zM1134 786l-1 -1q-2 -5 -4 -172q-20 4 -234 7l-41 10
q-154 37 -187 54q-28 14 -38 0q-4 -6 -4 -8q0 -7 16 -26q10 -12 18 -34l-49 4l-41 10q-117 28 -165 45q39 29 92 54q23 10 41 16t44 12t46 11q501 16 505 17q1 1 2 1zM610 420l-41 10q-117 28 -165 45q39 29 92 54q23 10 41 16t44 12t46 11q24 7 41 12q6 -23 2 -60
q-1 -13 -3 -36q-28 14 -38 0q-4 -6 -4 -8q0 -7 16 -26q10 -12 18 -34zM895 420l-41 10q-117 28 -165 45q39 29 92 54q22 10 40.5 16t44.5 12t46 11q177 13 217 16q-1 -75 -2 -171q-13 2 -71 3.5t-109 2.5z" />
</svg>
