<?xml version="1.0" standalone="no"?>
<!DOCTYPE svg PUBLIC "-//W3C//DTD SVG 1.1//EN" "http://www.w3.org/Graphics/SVG/1.1/DTD/svg11.dtd" >
<svg xmlns="http://www.w3.org/2000/svg" xmlns:xlink="http://www.w3.org/1999/xlink" version="1.1" viewBox="0 0 1309 801">
   <path fill="currentColor"
d="M381 55q8 -9 17.5 -5.5t6.5 14.5q-5 20 -26.5 59t-48 91.5t-41.5 104.5q-20 69 7.5 153.5t79.5 153.5q27 36 50 85.5t16 56.5q-1 1 -6 -3.5t-11.5 -14t-12.5 -21.5q-10 -18 -36.5 -51.5t-53.5 -62.5q-47 -48 -83.5 -73.5t-130.5 -74.5q-19 -10 -31 -20.5t-16 -21.5t5 -22
t32 -20q11 -4 36 -23.5t48 -38.5t49.5 -42t30.5 -26q18 -15 33 -46t36.5 -74t49.5 -78zM900 270l-10 -41q-37 -154 -53 -187q-14 -28 -1 -38q6 -4 9 -4q7 0 25 16q19 16 62 25q4 1 10.5 2.5t9.5 2t10 1t16 0t23 -1.5q10 -1 34.5 -3t24.5 -1q0 3 -13 20q-30 41 -55 95
q-11 22 -16.5 40.5t-11.5 44.5t-12 46q-15 501 -17 505q-3 9 -10 9q-10 -1 -17 -16q-2 -5 -5 -212q-17 2 -74 3.5t-106 2.5l-48 1l-41 10q-154 37 -187 54q-28 14 -38 0q-4 -6 -4 -8q0 -7 16 -26q16 -18 25 -62q1 -3 2.5 -10t2 -10t1 -10t0 -16t-1.5 -22q-1 -11 -3 -35.5
t-1 -24.5q3 0 20 13q41 31 94 56q23 10 41.5 16t44.5 12t45 11q163 12 212 16q-1 -90 -2 -201q-19 2 -75.5 3.5t-103.5 2.5l-47 1l-41 10q-154 37 -187 54q-28 14 -38 0q-4 -6 -4 -8q0 -7 16 -26q16 -18 25 -62q1 -3 2.5 -10t2 -10t1 -10t0 -16t-1.5 -22q-1 -11 -3 -35.5
t-1 -24.5q3 0 20 13q41 31 94 56q23 10 41.5 16t44.5 12t45 11q159 11 210 16zM1219 374l-36 -23q-135 -82 -170 -94q-14 -5 -21 -12t-6 -14t3 -9q5 -5 29 -7q25 -2 62 -26q3 -2 9 -5.5t8.5 -5.5l7.5 -6t11 -11t15 -18q7 -8 23 -26.5t16 -17.5q2 2 5 23q7 51 28 106
q8 24 17 41t23 39.5t24 40.5q28 49 30 53q4 9 -1 14q-7 7 -23 1q-9 -4 -54 -43zM1219 694l-36 -23q-135 -82 -170 -94q-14 -5 -21 -12t-6 -14t3 -9q5 -5 29 -7q25 -2 62 -26q3 -2 9 -5.5t8.5 -5.5l7.5 -6t11 -11t15 -18q7 -8 23 -26.5t16 -17.5q2 2 5 23q7 51 28 106
q8 24 17 41t23 39.5t24 40.5q28 49 30 53q4 9 -1 14q-7 7 -23 1q-9 -4 -54 -43zM253 315q0 -1 1 -1q-1 0 -1 1z" />
</svg>
