<?xml version="1.0" standalone="no"?>
<!DOCTYPE svg PUBLIC "-//W3C//DTD SVG 1.1//EN" "http://www.w3.org/Graphics/SVG/1.1/DTD/svg11.dtd" >
<svg xmlns="http://www.w3.org/2000/svg" xmlns:xlink="http://www.w3.org/1999/xlink" version="1.1" viewBox="0 0 874 719">
   <path fill="currentColor"
d="M801 6q8 -9 17.5 -5.5t6.5 14.5q-5 20 -26.5 59t-48 91.5t-41.5 104.5q-20 69 7.5 153.5t79.5 153.5q27 36 50 85.5t16 56.5q-1 1 -6 -3.5t-11.5 -14t-12.5 -21.5q-10 -18 -36.5 -51.5t-53.5 -62.5q-47 -48 -83.5 -73.5t-130.5 -74.5q-17 -9 -28 -18q22 93 86 177
q27 36 50 85.5t16 56.5q-1 1 -6 -3.5t-11.5 -14t-12.5 -21.5q-10 -18 -36.5 -51.5t-53.5 -62.5q-47 -48 -83.5 -73.5t-130.5 -74.5q-17 -9 -28 -18q22 93 86 177q27 36 50 85.5t16 56.5q-1 1 -6 -3.5t-11.5 -14t-12.5 -21.5q-10 -18 -36.5 -51.5t-53.5 -62.5
q-47 -48 -83.5 -73.5t-130.5 -74.5q-19 -10 -31 -20.5t-16 -21.5t5 -22t32 -20q11 -4 36 -23.5t48 -38.5t49.5 -42t30.5 -26q18 -15 33 -46t36.5 -74t49.5 -78q8 -9 17.5 -5.5t6.5 14.5q-5 20 -26.5 59t-48 91.5t-41.5 104.5q-11 36 -7 79q9 -8 26 -15q11 -4 36 -23.5
t48 -38.5t49.5 -42t30.5 -26q18 -15 33 -46t36.5 -74t49.5 -78q8 -9 17.5 -5.5t6.5 14.5q-5 20 -26.5 59t-48 91.5t-41.5 104.5q-11 36 -7 79q9 -8 26 -15q11 -4 36 -23.5t48 -38.5t49.5 -42t30.5 -26q18 -15 33 -46t36.5 -74t49.5 -78zM673 266q0 -1 1 -1q-1 0 -1 1z
M463 266q0 -1 1 -1q-1 0 -1 1zM253 266q0 -1 1 -1q-1 0 -1 1z" />
</svg>
