<?xml version="1.0" standalone="no"?>
<!DOCTYPE svg PUBLIC "-//W3C//DTD SVG 1.1//EN" "http://www.w3.org/Graphics/SVG/1.1/DTD/svg11.dtd" >
<svg xmlns="http://www.w3.org/2000/svg" xmlns:xlink="http://www.w3.org/1999/xlink" version="1.1" viewBox="0 0 1451 894">
   <path fill="currentColor"
d="M959 275l-36 -23q-135 -82 -170 -94q-14 -5 -21 -12t-6 -14t3 -9q5 -5 29 -7q25 -2 62 -26q3 -2 9 -5.5t8.5 -5.5t8 -6t11.5 -11t14 -18q7 -8 23 -26.5t17 -17.5q1 2 4 23q8 51 28 106q9 24 17.5 41t23 39.5t23.5 40.5q29 49 30 53q5 9 -1 14q-7 7 -22 1
q-5 -2 -18.5 -12.5t-24.5 -20.5zM335 675l-41 10q-154 37 -187 54q-15 7 -26 6q-12 1 -17 -6q-4 -6 -4 -8q0 -7 16 -26q16 -18 25 -62q1 -3 3 -10t2.5 -10t1 -10t-0.5 -16t-2 -22q-1 -11 -2.5 -35.5t-1 -24.5t4.5 3v-3q3 0 20 13q41 31 95 56q22 10 40.5 16t44.5 12t46 11
q95 7 161 12q6 -7 14 -17q21 -26 36 -41q-1 -62 -1 -139q-20 2 -76.5 3.5t-103.5 2.5l-47 1l-41 10q-154 37 -187 54q-15 7 -26 6q-12 1 -17 -6q-4 -6 -4 -8q0 -7 16 -26q16 -18 25 -62q1 -3 3 -10t2.5 -10t1 -10t-0.5 -16t-2 -22q-1 -11 -2.5 -35.5t-1 -24.5t4.5 3v-3
q3 0 20 13q41 31 95 56q22 10 40.5 16t44.5 12t46 11q158 11 209 16v-44l-10 -41q-38 -154 -54 -187q-14 -28 -1 -38q7 -4 9 -4q7 0 25 16q19 16 63 25q3 1 9.5 2.5t10 2t10 1t16 0t22.5 -1.5q11 -1 35 -3t24 -1q0 3 -12 20q-31 41 -56 95q-11 22 -16.5 40.5t-11.5 44.5
t-12 46q-9 221 -14 319q1 1 1 2q9 24 17.5 41t23 39.5t23.5 40.5q29 49 30 53q5 9 -1 14q-7 7 -22 1q-5 -2 -18.5 -12.5t-24.5 -20.5l-12 -10l-36 -23q-135 -82 -170 -94q-14 -5 -21 -12t-6 -14t3 -9q5 -5 29 -7q20 -1 49 -18zM796 584q23 10 41 16t44 12t46 11
q501 16 505 17q9 4 9 11q-1 9 -16 16q-4 2 -132.5 4t-255.5 3l-127 1l-41 10q-154 37 -187 54q-13 6 -24 6q-9 0 -13.5 -6t-4.5 -8q0 -7 16 -26q16 -18 25 -62q6 -27 6 -36q0 -12 -2 -32q-4 -38 -4 -57v-3q3 0 20 13q41 31 95 56zM796 354q23 10 41 16t44 12t46 11
q501 16 505 17q9 4 9 11q-1 9 -16 16q-4 2 -132.5 4t-255.5 3l-127 1l-41 10q-154 37 -187 54q-13 6 -24 6q-9 0 -13.5 -6t-4.5 -8q0 -7 16 -26q16 -18 25 -62q6 -27 6 -36q0 -12 -2 -32q-4 -38 -4 -57v-3q3 0 20 13q41 31 95 56z" />
</svg>
