<?xml version="1.0" standalone="no"?>
<!DOCTYPE svg PUBLIC "-//W3C//DTD SVG 1.1//EN" "http://www.w3.org/Graphics/SVG/1.1/DTD/svg11.dtd" >
<svg xmlns="http://www.w3.org/2000/svg" xmlns:xlink="http://www.w3.org/1999/xlink" version="1.1" viewBox="0 0 1524 941">
   <path fill="currentColor"
d="M1046 563q-7 -8 -6.5 -16.5t6.5 -12.5l4 -2l-1 -19l-7 -31q-29 -116 -41 -141q-10 -21 0 -28q4 -3 6 -3q5 0 19 12q13 11 43 18l-1 -1q-1 -4 -3 -21.5t-3 -32.5l-1 -15l-10 -41q-38 -154 -54 -187q-14 -28 -1 -38q7 -4 9 -4q7 0 25 16q19 16 63 25q3 1 9.5 2.5t10 2t10 1
t16 0t22.5 -1.5q11 -1 35 -3t24 -1q0 3 -12 20q-31 41 -56 95q-11 22 -16.5 40.5t-11.5 44.5t-12 46q-14 52 -16 58q9 1 28 -1q8 -1 26.5 -2.5t18.5 -0.5q0 2 -10 14q-23 31 -42 72q-8 17 -12 30.5t-8.5 33t-8.5 34.5l-6 22q6 1 147 20q-1 -1 -2 -3q-1 -3 -2.5 -16t-2.5 -24
v-11l-8 -31q-28 -116 -40 -141q-11 -21 -1 -28q5 -3 7 -3q5 0 19 12t46 19q3 1 8 2l7.5 1.5t7.5 1t12 0t17 -1.5q1 0 4 -1q-2 -2 -3 -4q-1 -4 -3 -21.5t-3 -32.5l-1 -15l-10 -41q-38 -154 -54 -187q-14 -28 -1 -38q7 -4 9 -4q7 0 25 16q19 16 63 25q3 1 9.5 2.5t10 2t10 1
t16 0t22.5 -1.5q11 -1 35 -3t24 -1q0 3 -12 20q-31 41 -56 95q-11 22 -16.5 40.5t-11.5 44.5t-12 46q-11 40 -15 54h10h4q0 2 -9 14q-23 31 -42 72q-8 17 -12.5 30.5t-9 33t-8.5 34.5q-11 41 -12 44l-1 1q16 3 61 4t71 -2q8 0 24 -2q-2 -2 -3 -6q-2 -3 -3 -16t-2 -24l-1 -11
l-7 -31q-29 -116 -41 -141q-10 -21 0 -28q4 -3 6 -3q5 0 19 12t47 19q3 1 7.5 2t7 1.5t7.5 1t12 0t17 -1.5q8 -1 26.5 -2.5t18.5 -0.5q0 2 -10 14q-23 31 -42 72q-8 17 -12 30.5t-8.5 33t-8.5 34.5q-12 41 -13 44v1q4 -1 4 0q0 3 -10 14q-117 139 -166 319q-2 7 -8 7
q-5 0 -9 -3.5t-4 -8.5q5 -42 -29 -115.5t-78 -134.5t-74 -85zM831 550l-10 -41q-2 -6 -3 -13q-2 1 -3 1q-4 2 -97.5 4t-185.5 3l-92 1l-41 10q-76 18 -124 32q21 13 51 27q23 10 41 16t44 12t46 11q361 16 365 17q9 4 9 11q-1 9 -16 16q-4 2 -97.5 4t-185.5 3l-92 1l-41 10
q-145 35 -183 52q23 10 41 16t44 12t46 11q397 13 487 16zM882 567q-15 361 -16 365q-4 9 -11 9q-10 -1 -17 -16q-2 -4 -4 -114q-33 2 -159 3.5t-235 2.5l-110 1l-41 10q-154 37 -187 54q-28 14 -38 0q-4 -6 -4 -8q0 -7 16 -26q16 -18 25 -62q1 -3 3 -10t2.5 -10t1 -10
t-0.5 -16t-2 -22q-1 -11 -2.5 -35.5l-1.5 -24.5q3 0 20 13q28 21 56 36q4 -5 9 -12q16 -18 25 -62q1 -3 2.5 -9.5t2 -10t1.5 -10t0.5 -15t-2.5 -21.5q-2 1 -3 2q-28 14 -38 0q-4 -6 -4 -8q0 -7 16 -26q16 -18 25 -62q1 -3 2.5 -9.5t2 -10t1.5 -10t0.5 -15t-2.5 -21.5
q-2 1 -3 2q-28 14 -38 0q-4 -6 -4 -8q0 -7 16 -26q16 -18 25 -62q1 -3 2.5 -9.5t2 -10t1.5 -10t0.5 -15t-2.5 -21.5q-2 1 -3 2q-28 14 -38 0q-4 -6 -4 -8q0 -7 16 -26q16 -18 25 -62q1 -3 3 -10t2.5 -10t1 -10t-0.5 -16t-2 -22q-1 -11 -2.5 -35.5l-1.5 -24.5q3 0 20 13
q41 31 95 56q23 10 41 16t44 12t46 11q266 12 343 16q-22 -84 -33 -107q-14 -28 -1 -38q7 -4 9 -4q7 0 25 16q19 16 63 25q3 1 9.5 2.5t10 2t10 1t16 0t22.5 -1.5q11 -1 35 -3t24 -1q0 3 -12 20q-31 41 -56 95q-11 22 -16.5 40.5t-11.5 44.5t-12 46q-5 20 -10 37q21 5 59 1
q11 -1 35 -3t24 -1q0 3 -12 20q-31 41 -56 95q-11 22 -16.5 40.5t-11.5 44.5t-12 46zM440 185l-41 10q-76 18 -124 32q21 13 51 27q23 10 41 16t44 12t46 11q201 9 304 14q-3 -17 5 -23q7 -4 9 -4q7 0 25 16q12 10 34 18l-3 -44l-10 -41q-7 -27 -13 -51q-23 2 -115 3.5
t-172 2.5zM457 453q293 13 354 16q-23 -91 -37 -129l-334 5l-41 10q-76 18 -124 32q21 13 51 27q23 10 41 16t44 12t46 11z" />
</svg>
