<?xml version="1.0" standalone="no"?>
<!DOCTYPE svg PUBLIC "-//W3C//DTD SVG 1.1//EN" "http://www.w3.org/Graphics/SVG/1.1/DTD/svg11.dtd" >
<svg xmlns="http://www.w3.org/2000/svg" xmlns:xlink="http://www.w3.org/1999/xlink" version="1.1" viewBox="0 0 1475 811">
   <path fill="currentColor"
d="M1003 444l-31 7q-116 28 -140 41q-21 10 -29 0q-3 -5 -3 -6q0 -6 12 -19q12 -14 19 -47q1 -3 2 -8t1.5 -7t1 -7.5t0 -12t-1.5 -16.5q-1 -8 -2 -26.5l-1 -18.5q2 0 15 10q31 23 71 41q17 8 31 12.5t33 9t34 8.5q21 1 53 2l-1 -94l-8 -31q-28 -116 -40 -141q-10 -21 0 -28
q4 -3 6 -3q5 0 19 12t47 19q2 1 7 2l7.5 1.5t7.5 1t12 0t17 -1.5q8 -1 26.5 -2.5t18.5 -0.5q0 2 -10 15q-23 31 -42 71q-8 17 -12 30.5t-8.5 33t-8.5 34.5q-2 35 -3 83q129 4 204 6l-1 -144l-10 -41q-38 -154 -54 -187q-14 -28 -1 -38q7 -4 9 -4q7 0 25 16q19 16 63 25
q3 1 9.5 2.5t10 2t10 1t16 0t22.5 -1.5q11 -1 35 -3t24 -1q0 3 -12 20q-31 41 -56 95q-11 22 -16.5 40.5t-11.5 44.5t-12 46q-1 55 -4 129q40 1 41 2q7 2 7 8q-1 7 -12 12q-2 1 -37 2q-10 349 -11 352q-4 9 -11 9q-10 -1 -17 -16q-3 -7 -6 -344q-74 1 -205 2q-8 259 -9 261
q-3 7 -8 7q-7 -1 -12 -12q-3 -5 -5 -256zM736 280l-2 -6l-224 6l-41 10q-154 37 -187 54q-28 14 -38 0q-4 -6 -4 -8q0 -7 16 -26q16 -18 25 -62q1 -3 3 -10t2.5 -10t1 -10t-0.5 -16t-2 -22q-1 -11 -2.5 -35.5l-1.5 -24.5q3 0 20 13q41 31 95 56q23 10 41 16t44 12t46 11
q141 10 200 15l-1 -4q-38 -154 -54 -187q-14 -28 -1 -38q7 -4 9 -4q7 0 25 16q19 16 63 25q3 1 9.5 2.5t10 2t10 1t16 0t22.5 -1.5q11 -1 35 -3t24 -1q0 3 -12 20q-31 41 -56 95q-11 22 -16.5 40.5t-11.5 44.5t-12 46q-15 501 -16 505q-4 9 -11 9q-10 -1 -17 -16
q-2 -4 -4 -152q-16 2 -73.5 3.5t-106.5 2.5l-49 1l-41 10q-154 37 -187 54q-28 14 -38 0q-4 -6 -4 -8q0 -7 16 -26q16 -18 25 -62q1 -3 3 -10t2.5 -10t1 -10t-0.5 -16t-2 -22q-1 -11 -2.5 -35.5l-1.5 -24.5q3 0 20 13q41 31 95 56q23 10 41 16t44 12t46 11q164 12 212 16z
M330 460l-41 10q-154 37 -187 54q-28 14 -38 0q-4 -6 -4 -8q0 -7 16 -26q16 -18 25 -62q1 -3 3 -10t2.5 -10t1 -10t-0.5 -16t-2 -22q-1 -11 -2.5 -35.5l-1.5 -24.5q3 0 20 13q41 31 95 56q23 10 41 16t44 12t46 11q55 16 59 17q9 4 9 11q-1 9 -16 16q-4 2 -21 4t-33 3z" />
</svg>
