<?xml version="1.0" standalone="no"?>
<!DOCTYPE svg PUBLIC "-//W3C//DTD SVG 1.1//EN" "http://www.w3.org/Graphics/SVG/1.1/DTD/svg11.dtd" >
<svg xmlns="http://www.w3.org/2000/svg" xmlns:xlink="http://www.w3.org/1999/xlink" version="1.1" viewBox="0 0 1855 801">
   <path fill="currentColor"
d="M1327 193q4 -5 10 -3t4 8q-3 11 -12 30q183 6 209 7q-10 -38 -16 -50q-8 -17 0 -22q4 -3 5 -3q4 0 15 10q12 9 38 15q20 4 41 2q6 -1 20.5 -2t14.5 0t-7 12q-19 24 -34 56q-6 14 -9.5 25t-7 26.5t-7.5 27.5q-9 301 -10 303q-2 6 -6 6q-6 -1 -10 -10q-2 -5 -5 -309l-6 -25
q-6 -26 -12 -48q-1 2 -3 2q-5 2 -225 4q-30 55 -42 97q-13 41 4 91.5t48 92.5q11 14 22 34q195 7 197 7q5 2 5 7t-9 9q-4 2 -181 4q9 20 6 24q-1 1 -4 -2t-7 -8.5t-8 -12.5v-1l-115 1l-25 6q-93 23 -112 32q-17 9 -23 1q-3 -4 -3 -6q0 -4 10 -15t15 -37q4 -15 4 -17l-130 3
l-25 6q-92 23 -112 32q-17 9 -22 1q-3 -4 -3 -6q0 -4 10 -15q9 -11 15 -37q4 -20 2 -41q-1 -6 -2 -21t0 -15t12 8q24 18 56 33q14 7 25 10.5t26.5 7t27.5 6.5q83 6 119 9v-5q-1 -6 -2 -21l-1 -15q2 0 12 8q25 18 57 33q14 7 25 10.5t26.5 7t26.5 6.5q38 1 87 3
q-17 -22 -35 -41q-28 -29 -50 -44t-78 -45t-6 -50q6 -3 21.5 -14.5t29 -23t29.5 -25t18 -15.5q4 -3 7.5 -7t5.5 -7.5t5.5 -10t5 -9t5.5 -11.5t5 -11h-59l-25 6q-93 23 -112 32q-17 9 -23 1q-3 -4 -3 -6q0 -1 1 -2l-102 2l-25 6q-92 23 -112 32q-17 9 -22 1q-3 -4 -3 -6
q0 -4 10 -15q9 -11 15 -37q4 -20 2 -41q-1 -6 -2 -21t0 -15t12 8q24 18 56 33q14 7 25 10.5t26.5 7t27.5 6.5q67 5 107 8q6 -11 9 -29q5 -20 3 -41q-1 -6 -2 -21l-1 -15q2 0 12 8q25 18 57 33q14 7 25 10.5t26.5 7t26.5 6.5q27 1 65 2q10 -18 23 -34zM1250 349zM1686 270
l-10 -41q-38 -154 -54 -187q-14 -28 -1 -38q7 -4 9 -4q7 0 25 16q19 16 63 25q3 1 9.5 2.5t10 2t10 1t16 0t22.5 -1.5q11 -1 35 -3t24 -1q0 3 -12 20q-31 41 -56 95q-11 22 -16.5 40.5t-11.5 44.5t-12 46q-15 501 -16 505q-4 9 -11 9q-10 -1 -17 -16q-1 -4 -3 -133t-3 -255z
M736 270l-2 -6l-224 6l-41 10q-154 37 -187 54q-28 14 -38 0q-4 -6 -4 -8q0 -7 16 -26q16 -18 25 -62q1 -3 3 -10t2.5 -10t1 -10t-0.5 -16t-2 -22q-1 -11 -2.5 -35.5l-1.5 -24.5q3 0 20 13q41 31 95 56q23 10 41 16t44 12t46 11q141 10 200 15l-1 -4q-38 -154 -54 -187
q-14 -28 -1 -38q7 -4 9 -4q7 0 25 16q19 16 63 25q3 1 9.5 2.5t10 2t10 1t16 0t22.5 -1.5q11 -1 35 -3t24 -1q0 3 -12 20q-31 41 -56 95q-11 22 -16.5 40.5t-11.5 44.5t-12 46q-15 501 -16 505q-4 9 -11 9q-10 -1 -17 -16q-2 -4 -4 -152q-16 2 -73.5 3.5t-106.5 2.5l-49 1
l-41 10q-154 37 -187 54q-28 14 -38 0q-4 -6 -4 -8q0 -7 16 -26q16 -18 25 -62q1 -3 3 -10t2.5 -10t1 -10t-0.5 -16t-2 -22q-1 -11 -2.5 -35.5l-1.5 -24.5q3 0 20 13q41 31 95 56q23 10 41 16t44 12t46 11q164 12 212 16zM330 450l-41 10q-154 37 -187 54q-28 14 -38 0
q-4 -6 -4 -8q0 -7 16 -26q16 -18 25 -62q1 -3 3 -10t2.5 -10t1 -10t-0.5 -16t-2 -22q-1 -11 -2.5 -35.5l-1.5 -24.5q3 0 20 13q41 31 95 56q23 10 41 16t44 12t46 11q55 16 59 17q9 4 9 11q-1 9 -16 16q-4 2 -21 4t-33 3z" />
</svg>
