<?xml version="1.0" standalone="no"?>
<!DOCTYPE svg PUBLIC "-//W3C//DTD SVG 1.1//EN" "http://www.w3.org/Graphics/SVG/1.1/DTD/svg11.dtd" >
<svg xmlns="http://www.w3.org/2000/svg" xmlns:xlink="http://www.w3.org/1999/xlink" version="1.1" viewBox="0 0 1490 801">
   <path fill="currentColor"
d="M932 55q7 -9 16.5 -5.5t6.5 14.5q-4 18 -21 49q306 10 350 12q-17 -64 -27 -83q-14 -28 -1 -38q7 -4 9 -4q7 0 25 16q19 16 63 25q3 1 9.5 2.5t10 2t10 1t16 0t22.5 -1.5q11 -1 35 -3t24 -1q0 3 -12 20q-31 41 -56 95q-11 22 -16.5 40.5t-11.5 44.5t-12 46
q-15 501 -16 505q-4 9 -11 9q-10 -1 -17 -16q-1 -4 -3 -133t-3 -255l-1 -127l-10 -41q-11 -45 -20 -80q-3 2 -7 3q-7 3 -374 7q-50 91 -71 160q-20 69 7.5 153.5t80.5 153.5q18 24 36 58q325 10 328 11q9 4 9 11q0 9 -16 16q-6 3 -300 6q14 34 9 40q-2 1 -7 -3.5t-11 -14
t-13 -21.5v-1l-193 2l-41 10q-154 37 -187 54q-28 14 -38 0q-4 -6 -4 -8q0 -7 16 -26q16 -18 26 -62q5 -25 5 -29l-216 6l-41 10q-154 37 -187 54q-28 14 -38 0q-4 -6 -4 -8q0 -7 16 -26q16 -18 25 -62q1 -3 3 -10t2.5 -10t1 -10t-0.5 -16t-2 -22q-1 -11 -2.5 -35.5
l-1.5 -24.5q3 0 20 13q41 31 95 56q23 10 41 16t44 12t46 11q138 10 198 15q0 -4 -1 -8q-1 -11 -2.5 -35.5t-0.5 -24.5q2 0 19 13q41 31 95 56q23 10 41 16t44 12t46 11q63 2 144 5q-28 -36 -58 -68q-47 -48 -83.5 -73.5t-130.5 -74.5q-19 -10 -30.5 -20.5t-16 -21.5
t4.5 -22t33 -20q10 -4 35.5 -23.5t48 -38.5t49.5 -42t30 -26q6 -5 11.5 -12t9.5 -12t9.5 -16t8 -15.5t9 -19t8.5 -19.5l-99 1l-41 10q-154 37 -187 54q-28 14 -38 0q-4 -6 -4 -8t1 -5l-170 4l-41 10q-154 37 -187 54q-28 14 -38 0q-4 -6 -4 -8q0 -7 16 -26q16 -18 25 -62
q1 -3 3 -10t2.5 -10t1 -10t-0.5 -16t-2 -22q-1 -11 -2.5 -35.5l-1.5 -24.5q3 0 20 13q41 31 95 56q23 10 41 16t44 12t46 11q112 8 178 13q9 -18 16 -48q0 -3 2 -10t2.5 -10t1 -10t0 -16t-2.5 -22q-1 -11 -2.5 -35.5t-0.5 -24.5q2 0 19 13q41 31 95 56q23 10 41 16t44 12
t46 11q44 2 107 4q17 -31 39 -57zM803 315q0 -1 1 -1q-1 0 -1 1z" />
</svg>
