<?xml version="1.0" standalone="no"?>
<!DOCTYPE svg PUBLIC "-//W3C//DTD SVG 1.1//EN" "http://www.w3.org/Graphics/SVG/1.1/DTD/svg11.dtd" >
<svg xmlns="http://www.w3.org/2000/svg" xmlns:xlink="http://www.w3.org/1999/xlink" version="1.1" viewBox="0 0 1484 719">
   <path fill="currentColor"
d="M1411 6q7 -9 16.5 -5.5t6.5 14.5q-5 20 -26.5 59t-47.5 91.5t-42 104.5q-20 69 7.5 153.5t80.5 153.5q27 36 50 85.5t16 56.5q-2 1 -7 -3.5t-11 -14t-13 -21.5q-10 -18 -36.5 -51.5t-53.5 -62.5q-47 -48 -83.5 -73.5t-130.5 -74.5q-24 -13 -36 -25l-42 3l-41 10
q-154 37 -187 54q-28 14 -38 0q-4 -6 -4 -8q0 -7 16 -26q10 -12 18 -34l-44 4l-41 10q-154 37 -187 54q-28 14 -38 0q-4 -6 -4 -8q0 -7 16 -26q16 -18 26 -62q0 -3 2 -10t2.5 -10t1 -10t0 -16t-2.5 -22q0 -6 -2 -21l-218 6l-41 10q-154 37 -187 54q-28 14 -38 0q-4 -6 -4 -8
q0 -7 16 -26q16 -18 25 -62q1 -3 3 -10t2.5 -10t1 -10t-0.5 -16t-2 -22q-1 -11 -2.5 -35.5l-1.5 -24.5q3 0 20 13q41 31 95 56q23 10 41 16t44 12t46 11q141 10 199 15q0 -8 1 -8t13 9q11 1 12 1q9 4 9 11q0 1 -1 2q34 24 81 46q23 10 41 16t44 12t46 11q20 6 37 11
q5 -22 1 -59q-1 -11 -2.5 -35.5t-0.5 -24.5q2 0 19 13q41 31 95 56q23 10 41 16t44 12t46 11q10 3 23 7q9 -9 29 -17q10 -4 35.5 -23.5t48 -38.5t49.5 -42t30 -26q18 -15 33 -46t36.5 -74t50.5 -78zM1282 266q0 -1 1 -1q-1 0 -1 1zM334 511l-41 10q-154 37 -187 54
q-28 14 -38 0q-4 -6 -4 -8q0 -7 16 -26q16 -18 25 -62q1 -3 3 -10t2.5 -10t1 -10t-0.5 -16t-2 -22q-1 -11 -2.5 -35.5l-1.5 -24.5q3 0 20 13q41 31 95 56q23 10 41 16t44 12t46 11q141 10 199 15q0 -8 1 -8t13 9q11 1 12 1q9 4 9 11q0 1 -1 2q34 24 81 46q23 10 41 16t44 12
t46 11q501 16 505 17q9 4 9 11q0 9 -16 16q-4 2 -132.5 4t-255.5 3l-127 1l-41 10q-154 37 -187 54q-28 14 -38 0q-4 -6 -4 -8q0 -7 16 -26q16 -18 26 -62q0 -3 2 -10t2.5 -10t1 -10t0 -16t-2.5 -22q0 -6 -2 -21zM779 166l-41 10q-154 37 -187 54q-28 14 -38 0q-4 -6 -4 -8
q0 -7 16 -26q16 -18 26 -62q0 -3 2 -10t2.5 -10t1 -10t0 -16t-2.5 -22q-1 -11 -2.5 -35.5t-0.5 -24.5q2 0 19 13q41 31 95 56q23 10 41 16t44 12t46 11q501 16 505 17q9 4 9 11q0 9 -16 16q-4 2 -132.5 4t-255.5 3z" />
</svg>
