<?xml version="1.0" standalone="no"?>
<!DOCTYPE svg PUBLIC "-//W3C//DTD SVG 1.1//EN" "http://www.w3.org/Graphics/SVG/1.1/DTD/svg11.dtd" >
<svg xmlns="http://www.w3.org/2000/svg" xmlns:xlink="http://www.w3.org/1999/xlink" version="1.1" viewBox="0 0 744 646">
   <path fill="currentColor"
d="M654 275l-36 -22q-136 -83 -171 -95q-13 -4 -20.5 -11t-6 -14.5t2.5 -9.5q5 -5 30 -6q24 -2 62 -26q3 -2 8.5 -5.5t8.5 -5.5t8 -6.5t11 -11.5t15 -17q6 -8 22 -26.5t17 -18.5q2 2 5 23q7 51 27 106q9 24 18 41t23 39.5t24 40.5q28 50 30 54q4 9 -1 14q-7 6 -23 0
q-4 -1 -17.5 -12t-25.5 -21zM491 438l-36 -23q-135 -82 -170 -94q-14 -5 -21 -12t-6 -14t3 -9q5 -5 29 -7q25 -2 62 -26q3 -2 9 -5.5t8.5 -5.5l7.5 -6t11 -11t15 -18q7 -8 23 -26.5t16 -17.5q2 2 5 23q8 51 28 106q8 24 17 41t23 39.5t24 40.5q28 49 30 53q4 9 -1 14
q-7 7 -22 1q-5 -2 -18.5 -12.5t-24.5 -20.5zM329 600l-37 -22q-135 -82 -170 -94q-14 -5 -21 -12t-6 -14.5t3 -9.5q5 -4 29 -6q25 -2 62 -26q3 -2 9 -5.5t8.5 -5.5t8 -6.5t11.5 -11t14 -17.5q7 -8 23 -26.5t17 -18.5q1 2 4 23q8 51 28 107q9 23 18 40t23 39.5t24 40.5
q28 50 30 54q4 9 -1 14q-8 6 -23 0q-4 -1 -18 -12t-25 -21z" />
</svg>
