<?xml version="1.0" standalone="no"?>
<!DOCTYPE svg PUBLIC "-//W3C//DTD SVG 1.1//EN" "http://www.w3.org/Graphics/SVG/1.1/DTD/svg11.dtd" >
<svg xmlns="http://www.w3.org/2000/svg" xmlns:xlink="http://www.w3.org/1999/xlink" version="1.1" viewBox="0 0 1520 801">
   <path fill="currentColor"
d="M677 55q7 -9 16.5 -5.5t6.5 14.5q-5 20 -26.5 59t-47.5 91.5t-42 104.5q-20 69 7.5 153.5t80.5 153.5q19 25 37.5 60t25.5 59q9 -18 16 -47q0 -3 2 -10t2.5 -10t1 -10t0 -16t-2.5 -22q-1 -11 -2.5 -35.5t-0.5 -24.5q2 0 19 13q41 31 95 56q23 10 41 16t44 12t46 11
q11 1 31 1q-8 -6 -19 -27q-18 -34 -68 -86q-35 -36 -62.5 -55t-97.5 -56q-15 -8 -23.5 -15.5t-12 -15.5t3.5 -16.5t25 -15.5q8 -3 27 -17.5t35.5 -29t37 -31.5t22.5 -19q16 -14 37.5 -60.5t40.5 -73.5l-35 9q-154 37 -187 54q-28 14 -38 0q-4 -6 -4 -8q0 -7 16 -26
q16 -18 26 -62q0 -3 2 -10t2.5 -10t1 -10t0 -16t-2.5 -22q-1 -11 -2.5 -35.5t-0.5 -24.5q2 0 19 13q41 31 95 56q23 10 41 16t44 12t46 11q501 16 505 17q9 4 9 11q0 9 -16 16q-3 2 -82 3q-4 14 -37.5 76.5t-48.5 112.5q-16 51 5 115t60 116q19 25 32 62.5t8 42.5
q-2 2 -5.5 -1.5t-8 -10.5t-9.5 -16q-18 -34 -68 -86q-35 -36 -62.5 -55t-97.5 -56q-15 -8 -23.5 -15.5t-12 -15.5t3.5 -16.5t25 -15.5q8 -3 27 -17.5t35.5 -29t37 -31.5t22.5 -19q16 -14 38.5 -62t43.5 -77q-66 1 -166 2q-4 12 -37.5 74.5t-47.5 111.5q-16 51 5 115t60 116
q19 25 32 62.5t8 42.5q-2 2 -5.5 -1.5t-8 -10.5t-9.5 -16q-18 -34 -68 -86q-35 -36 -62.5 -55t-97.5 -56q-15 -8 -23.5 -15.5t-12 -15.5t3.5 -16.5t25 -15.5q8 -3 27 -17.5t35.5 -29t37 -31.5t22.5 -19q16 -14 38 -61.5t43 -75.5q-80 1 -166 2q-3 11 -36.5 73t-47.5 111
q-16 51 5 115t60 116q19 24 31.5 60t8.5 45q466 14 470 15q9 4 9 11q0 9 -16 16q-4 2 -132.5 4t-255.5 3l-127 1l-41 10q-154 37 -187 54q-28 14 -38 0q-4 -6 -4 -8q0 -7 16 -26l1 -1q-9 -11 -19 -29.5t-36.5 -52t-53.5 -62.5q-47 -48 -83.5 -73.5t-130.5 -74.5
q-19 -10 -30.5 -20.5t-16 -21.5t4.5 -22t33 -20q10 -4 35.5 -23.5t48 -38.5t49.5 -42t30 -26q18 -15 33 -46t36.5 -74t50.5 -78zM548 315q0 -1 1 -1q-1 0 -1 1zM330 675l-41 10q-154 37 -187 54q-28 14 -38 0q-4 -6 -4 -8q0 -7 16 -26q16 -18 25 -62q1 -3 3 -10t2.5 -10
t1 -10t-0.5 -16t-2 -22q-1 -11 -2.5 -35.5l-1.5 -24.5q3 0 20 13q41 31 95 56q23 10 41 16t44 12t46 11q221 16 225 17q9 4 9 11q-1 9 -16 16q-4 2 -62.5 4t-115.5 3zM330 215l-41 10q-154 37 -187 54q-28 14 -38 0q-4 -6 -4 -8q0 -7 16 -26q16 -18 25 -62q1 -3 3 -10
t2.5 -10t1 -10t-0.5 -16t-2 -22q-1 -11 -2.5 -35.5l-1.5 -24.5q3 0 20 13q41 31 95 56q23 10 41 16t44 12t46 11q221 16 225 17q9 4 9 11q-1 9 -16 16q-4 2 -62.5 4t-115.5 3zM886 354q2 -2 3 -4q-2 1 -3 4zM1086 354q2 -2 3 -4q-2 1 -3 4zM1286 354q2 -2 3 -4q-2 1 -3 4z
" />
</svg>
