<?xml version="1.0" standalone="no"?>
<!DOCTYPE svg PUBLIC "-//W3C//DTD SVG 1.1//EN" "http://www.w3.org/Graphics/SVG/1.1/DTD/svg11.dtd" >
<svg xmlns="http://www.w3.org/2000/svg" xmlns:xlink="http://www.w3.org/1999/xlink" version="1.1" viewBox="0 0 1570 896">
   <path fill="currentColor"
d="M1169 825l-41 10q-154 37 -187 54q-28 14 -37 0q-5 -6 -5 -8q0 -7 16 -26q16 -18 26 -62q0 -3 2 -10t2.5 -10t1 -10t0 -16t-2.5 -22q-1 -11 -2.5 -35.5t-0.5 -24.5q2 0 19 13q41 31 95 56q23 10 41 16t44 12t46 11q40 2 93 4q-1 -70 -2 -183l-108 1l-41 10
q-154 37 -187 54q-28 14 -37 0q-5 -6 -5 -8q0 -7 16 -26q16 -18 26 -62q0 -3 2 -10t2.5 -10t1 -10t0 -16t-2.5 -22q-1 -11 -2.5 -35.5t-0.5 -24.5q2 0 19 13q41 31 95 56q23 10 41 16t44 12t46 11q38 2 90 4l-1 -182v-1l-106 1l-41 10q-154 37 -187 54q-28 14 -37 0
q-5 -6 -5 -8q0 -7 16 -26q16 -18 26 -62q0 -3 2 -10t2.5 -10t1 -10t0 -16t-2.5 -22q-1 -11 -2.5 -35.5t-0.5 -24.5q2 0 19 13q41 31 95 56q23 10 41 16t44 12t46 11q32 2 77 4q-36 -148 -52 -180q-14 -28 0 -38q6 -4 8 -4q7 0 25 16q19 16 63 25q3 1 9.5 2.5t10 2t10.5 1
t16 0t22 -1.5q11 -1 35.5 -3t24.5 -1q0 3 -13 20q-31 41 -56 95q-15 32 -24 69q206 9 209 10q9 4 9 11q0 9 -16 16q-6 3 -212 6q-3 9 -6 19q-2 75 -5 167q227 10 230 11q9 4 9 11q0 9 -16 16q-6 3 -224 6q-4 115 -6 186q234 10 237 11q9 4 9 11q0 9 -16 16q-6 3 -232 6
q-2 62 -2 64q-4 9 -11 9q-10 -1 -16 -16q-2 -2 -3 -56zM537 540l-41 10q-154 37 -187 54q-28 14 -37 0q-5 -6 -5 -8q0 -7 16 -26q16 -18 26 -62q0 -3 2 -10t2.5 -10t1 -10t0 -16t-2.5 -22q-1 -11 -2.5 -35.5t-0.5 -24.5q2 0 19 13q41 31 95 56q23 10 41 16t44 12t46 11
q361 16 365 17q9 4 9 11q0 9 -16 16q-4 2 -97.5 4t-185.5 3zM253 849l-37 -23q-135 -82 -170 -94q-14 -5 -21 -12t-6 -14t3 -9q5 -5 29 -7q25 -2 62 -26q3 -2 9 -5.5t8.5 -5.5t8 -6t11.5 -11t14 -18q22 -26 37 -41l-3 -212l-10 -41q-37 -154 -54 -187q-14 -28 0 -38
q6 -4 8 -4q7 0 25 16q19 16 63 25q3 1 9.5 2.5t10 2t10.5 1t16 0t22 -1.5q11 -1 35.5 -3t24.5 -1q0 3 -13 20q-31 41 -56 95q-11 22 -16.5 40.5t-11.5 44.5t-12 46q-9 221 -14 319q1 1 1 2q9 24 18 41t23 39.5t24 40.5q28 49 30 53q4 9 -1 14q-8 7 -23 1q-4 -2 -18 -12.5
t-25 -20.5zM597 275l-37 -23q-135 -82 -170 -94q-14 -5 -21 -12t-6 -14t3 -9q5 -5 29 -7q25 -2 62 -26q3 -2 9 -5.5t8.5 -5.5t8 -6t11.5 -11t14 -18q7 -8 23 -26.5t17 -17.5q1 2 4 23q8 51 28 106q9 24 18 41t23 39.5t24 40.5q28 49 30 53q4 9 -1 14q-8 7 -23 1
q-4 -2 -18 -12.5t-25 -20.5z" />
</svg>
