<?xml version="1.0" standalone="no"?>
<!DOCTYPE svg PUBLIC "-//W3C//DTD SVG 1.1//EN" "http://www.w3.org/Graphics/SVG/1.1/DTD/svg11.dtd" >
<svg xmlns="http://www.w3.org/2000/svg" xmlns:xlink="http://www.w3.org/1999/xlink" version="1.1" viewBox="0 0 2541 801">
   <path fill="currentColor"
d="M2017 650q-13 2 -20.5 -7.5t-6.5 -18.5q1 -4 2 -7l-19 -16l-36 -22q-136 -83 -171 -95q-13 -4 -20.5 -11t-6 -14.5t2.5 -9.5q5 -5 30 -7q24 -1 62 -26q3 -2 8.5 -5.5t8.5 -5t8 -6t11 -11.5t15 -17q6 -9 22 -27.5t17 -17.5q2 2 5 23q7 51 27 106q9 24 18 41t23 39.5
t24 40.5q7 13 15 26q15 -9 43.5 -30.5t66.5 -51.5t48 -37l-4 -2q-4 -1 -18 -12t-25 -21l-11 -10l-37 -22q-135 -83 -170 -94q-14 -5 -21 -12t-6 -14.5t3 -9.5q5 -5 29 -6q25 -2 62 -26q3 -2 9 -5.5t8.5 -5.5t8 -6.5t11.5 -11.5t14 -17q7 -8 23 -26.5t17 -18.5q1 2 4 23
q8 51 28 107q9 23 18 40t23 39.5t24 40.5q28 50 30 54v1q17 -13 62 -55.5t65 -66.5q6 -8 21 -25q-5 0 -10 -2q-4 -2 -17.5 -13t-24.5 -21l-12 -10l-36 -22q-135 -82 -170 -94q-14 -5 -21.5 -12t-6 -14.5t3.5 -8.5q5 -5 29 -7q25 -2 62 -26q3 -2 9 -5.5t8.5 -5.5t7.5 -6.5
t11 -11t15 -17.5q7 -8 23 -26.5t16 -17.5q2 1 5 22q7 51 28 107q8 24 17 41t23 39.5t24 40.5q28 49 30 53v1l4 -4q3 3 5 23q20 241 143 457q5 9 -1 14q-4 4 -10 5t-13 -4q-35 -44 -136.5 -81t-200.5 -53.5t-150 -11.5zM381 55q8 -9 17.5 -5.5t6.5 14.5q-1 3 -2 7q1 1 3 2
q41 31 94 56q23 10 41.5 16t44.5 12t45 11q25 7 42 12q6 -23 2 -60q-1 -11 -3 -35.5t-1 -24.5q3 0 20 13q41 31 94 56q23 10 41.5 16t44.5 12t45 11q221 16 225 17q10 4 9 11q0 9 -15 16q-4 2 -63 4t-115 3l-57 1l-41 10q-86 21 -136 36q26 16 62 33q23 10 41.5 16t44.5 12
t45 11q104 8 171 13q8 -4 25 -5q25 -2 62 -26q3 -2 9 -5.5t8.5 -5.5l7.5 -6t11 -11t15 -18q7 -8 23 -26.5t16 -17.5q2 2 5 23q7 51 28 106q8 24 17 41t23 39.5t24 40.5q28 49 30 53q4 9 -1 14q-7 7 -23 1q-4 -2 -17.5 -12.5t-24.5 -20.5l-12 -10l-36 -23q-135 -82 -170 -94
q-5 -1 -8 -3l-199 5l-41 10q-86 21 -136 36q26 16 62 33q23 10 41.5 16t44.5 12t45 11q221 16 225 17q10 4 9 11q0 9 -15 16q-4 2 -63 4t-115 3l-57 1l-41 10q-154 37 -187 54q-28 14 -38 0q-4 -6 -4 -8q0 -7 16 -26q10 -12 18 -34l-49 4l-41 10q-139 34 -180 50q16 9 36 19
q23 10 41.5 16t44.5 12t45 11q502 16 506 17q9 4 9 11q-1 9 -16 16q-4 2 -133 4t-255 3l-127 1l-41 10q-33 8 -61 15q2 10 -1 13q-2 2 -12 -10q-90 24 -113 36q-28 14 -38 0q-4 -6 -4 -8q0 -7 16 -26q16 -18 25 -62q1 -3 2.5 -10t2 -10t1 -10t0 -16t-1.5 -22q-1 -5 -2 -18
q-45 -46 -81 -71t-129 -74q-19 -10 -31 -20.5t-16 -21.5t5 -22t32 -20q11 -4 36 -23.5t48 -38.5t49.5 -42t30.5 -26q18 -15 33 -46t36.5 -74t49.5 -78zM1578 550l-10 -41q-37 -154 -53 -187q-14 -28 -1 -38q6 -4 9 -4q7 0 25 16q12 10 34 18l-4 -44l-10 -41
q-37 -154 -53 -187q-14 -28 -1 -38q6 -4 9 -4q7 0 25 16q19 16 62 25q4 1 10.5 2.5t9.5 2t10 1t16 0t23 -1.5q10 -1 34.5 -3t24.5 -1q0 3 -13 20q-30 41 -55 95q-11 22 -16.5 40.5t-11.5 44.5t-12 46t-10 37q21 5 59 1q10 -1 34.5 -3t24.5 -1q0 3 -13 20q-30 41 -55 95
q-11 22 -16.5 40.5t-11.5 44.5t-12 46q-15 221 -17 225q-3 9 -10 9q-10 -1 -17 -16q-2 -4 -4 -63t-3 -115zM1397 275l-36 -23q-135 -82 -170 -94q-14 -5 -21 -12t-6 -14t3 -9q5 -5 29 -7q25 -2 62 -26q3 -2 9 -5.5t8.5 -5.5l7.5 -6t11 -11t15 -18q7 -8 23 -26.5t16 -17.5
q2 2 5 23q7 51 28 106q8 24 17 41t23 39.5t24 40.5q28 49 30 53q4 9 -1 14q-7 7 -23 1q-4 -2 -17.5 -12.5t-24.5 -20.5zM615 220l-41 10q-86 21 -136 36q26 16 62 33q23 10 41.5 16t44.5 12t45 11q25 7 42 12q6 -23 2 -60q0 -3 -1 -8l-2 2q-28 14 -38 0q-4 -6 -4 -8
q0 -7 16 -26q10 -12 18 -34zM389 282l-2 2q-28 14 -38 0q-4 -6 -4 -8q0 -7 16 -26q16 -18 25 -62q1 -3 2.5 -10t2 -10t1 -10t0 -16t-1.5 -22q-1 -5 -1 -16q-4 8 -28.5 52.5t-42 82.5t-29.5 80q-18 61 2.5 135.5t64.5 142.5q2 -3 5 -7q16 -18 25 -62q1 -3 2.5 -10t2 -10
t1 -10t0 -16t-1.5 -22q0 -3 -1 -8l-2 2q-28 14 -38 0q-4 -6 -4 -8q0 -7 16 -26q16 -18 25 -62q1 -3 2.5 -10t2 -10t1 -10t0 -16t-1.5 -22q0 -3 -1 -8zM615 390l-41 10q-86 21 -136 36q26 16 62 33q23 10 41.5 16t44.5 12t45 11q25 7 42 12q6 -23 2 -60q0 -3 -1 -8l-2 2
q-28 14 -38 0q-4 -6 -4 -8q0 -7 16 -26q10 -12 18 -34zM253 315q0 -1 1 -1q-1 0 -1 1z" />
</svg>
