<?xml version="1.0" standalone="no"?>
<!DOCTYPE svg PUBLIC "-//W3C//DTD SVG 1.1//EN" "http://www.w3.org/Graphics/SVG/1.1/DTD/svg11.dtd" >
<svg xmlns="http://www.w3.org/2000/svg" xmlns:xlink="http://www.w3.org/1999/xlink" version="1.1" viewBox="0 0 989 801">
   <path fill="currentColor"
d="M819 270l-10 -41q-37 -154 -53 -187q-14 -28 -1 -38q6 -4 9 -4q7 0 25 16q19 16 62 25q4 1 10.5 2.5t9.5 2t10 1t16 0t23 -1.5q10 -1 34.5 -3t24.5 -1q0 3 -13 20q-31 41 -56 95q-10 22 -16 40.5t-11.5 44.5t-11.5 46q-5 18 -10 34h8q0 3 -13 20l-1 1q-1 3 -1 4
q-2 7 -8 8q-24 35 -46 82q-10 22 -16 40.5t-11.5 44.5t-11.5 46q-15 221 -17 225q-3 9 -10 9q-10 -1 -17 -16q-2 -4 -4 -63t-3 -115l-1 -57l-10 -41q-37 -154 -53 -187q-14 -28 -1 -38q6 -4 9 -4q7 0 25 16q19 16 62 25q4 1 10.5 2.5t9.5 2t10 1t16 0t23 -1.5q4 0 14 -1z
M589 270l-10 -41q-37 -154 -53 -187q-14 -28 -1 -38q6 -4 9 -4q7 0 25 16q19 16 62 25q4 1 10.5 2.5t9.5 2t10 1t16 0t23 -1.5q10 -1 34.5 -3t24.5 -1q0 3 -13 20q-31 41 -56 95q-10 22 -16 40.5t-11.5 44.5t-11.5 46q-5 18 -10 34h8q0 3 -13 20l-1 1q-1 3 -1 4q-2 7 -8 8
q-24 35 -46 82q-10 22 -16 40.5t-11.5 44.5t-11.5 46q-15 221 -17 225q-3 9 -10 9q-10 -1 -17 -16q-2 -4 -4 -63t-3 -115l-1 -57l-10 -41q-37 -154 -53 -187q-14 -28 -1 -38q6 -4 9 -4q7 0 25 16q19 16 62 25q4 1 10.5 2.5t9.5 2t10 1t16 0t23 -1.5q4 0 14 -1zM359 270
l-10 -41q-37 -154 -53 -187q-14 -28 -1 -38q6 -4 9 -4q7 0 25 16q19 16 62 25q4 1 10.5 2.5t9.5 2t10 1t16 0t23 -1.5q10 -1 34.5 -3t24.5 -1q0 3 -13 20q-31 41 -56 95q-10 22 -16 40.5t-11.5 44.5t-11.5 46q-15 55 -17 59q-3 9 -10 9q-10 -1 -17 -16q-2 -4 -4 -21.5
t-3 -32.5zM129 270l-10 -41q-37 -154 -53 -187q-14 -28 -1 -38q6 -4 9 -4q7 0 25 16q19 16 62 25q4 1 10.5 2.5t9.5 2t10 1t16 0t23 -1.5q10 -1 34.5 -3t24.5 -1q0 3 -13 20q-31 41 -56 95q-10 22 -16 40.5t-11.5 44.5t-11.5 46t-11 37q22 5 60 1q10 -1 34.5 -3t24.5 -1
q0 3 -13 20q-31 41 -56 95q-10 22 -16 40.5t-11.5 44.5t-11.5 46q-15 221 -17 225q-3 9 -10 9q-10 -1 -17 -16q-2 -4 -4 -63t-3 -115l-1 -57l-10 -41q-37 -154 -53 -187q-14 -28 -1 -38q6 -4 9 -4q7 0 25 16q12 10 34 18z" />
</svg>
