<?xml version="1.0" standalone="no"?>
<!DOCTYPE svg PUBLIC "-//W3C//DTD SVG 1.1//EN" "http://www.w3.org/Graphics/SVG/1.1/DTD/svg11.dtd" >
<svg xmlns="http://www.w3.org/2000/svg" xmlns:xlink="http://www.w3.org/1999/xlink" version="1.1" viewBox="0 0 533 895">
   <path fill="currentColor"
d="M475 4q4 -4 11.5 -4.5t13 2.5t3.5 9q-4 15 -38 77.5t-49 113.5t5.5 115t60.5 116q19 25 32 62.5t7 42.5q-1 2 -4.5 -1.5t-8.5 -10.5t-10 -16q-17 -34 -67 -86q-36 -36 -63 -55t-98 -56q-14 -8 -23 -15.5t-12 -15.5t4 -16.5t24 -15.5q8 -3 27 -17.5t36 -29t37 -31.5
t23 -19q16 -14 39.5 -65t49.5 -84zM376 212l4 -4q-2 1 -4 4zM130 364l-10 -41q-37 -154 -53 -187q-14 -28 -1 -38q6 -4 9 -4q7 0 25 16q19 16 62 25q4 1 10.5 2.5t9.5 2t10 1t16 0t23 -1.5q10 -1 34.5 -3t24.5 -1q0 3 -13 20q-31 41 -56 95q-10 22 -16 40.5t-11.5 44.5
t-11.5 46q-15 501 -17 505q-3 9 -10 9q-10 -1 -17 -16q-2 -4 -4 -133t-3 -255z" />
</svg>
