<?xml version="1.0" standalone="no"?>
<!DOCTYPE svg PUBLIC "-//W3C//DTD SVG 1.1//EN" "http://www.w3.org/Graphics/SVG/1.1/DTD/svg11.dtd" >
<svg xmlns="http://www.w3.org/2000/svg" xmlns:xlink="http://www.w3.org/1999/xlink" version="1.1" viewBox="0 0 760 801">
   <path fill="currentColor"
d="M361 270l-10 -41q-38 -154 -54 -187q-14 -28 -1 -38q7 -4 9 -4q7 0 25 16q19 16 63 25q3 1 9.5 2.5t10 2t10 1t16 0t22.5 -1.5q11 -1 35 -3t24 -1q0 3 -12 20q-31 41 -56 95q-11 22 -16.5 40.5t-11.5 44.5t-12 46q-15 221 -16 225q-4 9 -11 9q-10 -1 -17 -16
q-1 -4 -3 -63t-3 -115zM591 270l-10 -41q-38 -154 -54 -187q-14 -28 -1 -38q7 -4 9 -4q7 0 25 16q19 16 63 25q3 1 9.5 2.5t10 2t10 1t16 0t22.5 -1.5q11 -1 35 -3t24 -1q0 3 -12 20q-31 41 -56 95q-11 22 -16.5 40.5t-11.5 44.5t-12 46q-15 221 -16 225q-4 9 -11 9
q-10 -1 -17 -16q-1 -4 -3 -63t-3 -115zM130 270l-10 -41q-37 -154 -53 -187q-14 -28 -1 -38q6 -4 9 -4q7 0 25 16q19 16 62 25q4 1 10.5 2.5t9.5 2t10 1t16 0t23 -1.5q10 -1 34.5 -3t24.5 -1q0 3 -13 20q-31 41 -56 95q-10 22 -16 40.5t-11.5 44.5t-11.5 46t-11 37
q22 5 60 1q10 -1 34.5 -3t24.5 -1q0 3 -13 20q-31 41 -56 95q-10 22 -16 40.5t-11.5 44.5t-11.5 46q-15 221 -17 225q-3 9 -10 9q-10 -1 -17 -16q-2 -4 -4 -63t-3 -115l-1 -57l-10 -41q-37 -154 -53 -187q-14 -28 -1 -38q6 -4 9 -4q7 0 25 16q12 10 34 18z" />
</svg>
