<?xml version="1.0" standalone="no"?>
<!DOCTYPE svg PUBLIC "-//W3C//DTD SVG 1.1//EN" "http://www.w3.org/Graphics/SVG/1.1/DTD/svg11.dtd" >
<svg xmlns="http://www.w3.org/2000/svg" xmlns:xlink="http://www.w3.org/1999/xlink" version="1.1" viewBox="0 0 760 1080">
   <path fill="currentColor"
d="M127 617q-11 -10 -9.5 -21.5t8.5 -16.5q3 -2 6 -3l-2 -26l-10 -41q-37 -154 -53 -187q-14 -28 -1 -38q6 -4 9 -4q7 0 25 16q12 10 34 18l-4 -44l-10 -41q-37 -154 -53 -187q-14 -28 -1 -38q6 -4 9 -4q7 0 25 16q19 16 62 25q4 1 10.5 2.5t9.5 2t10 1t16 0t23 -1.5
q10 -1 34.5 -3t24.5 -1q0 3 -13 20q-31 41 -56 95q-10 22 -16 40.5t-11.5 44.5t-11.5 46t-11 37q22 5 60 1q10 -1 34.5 -3t24.5 -1q0 3 -13 20q-31 41 -56 95q-10 22 -16 40.5t-11.5 44.5t-11.5 46q-4 14 -8 29q17 4 52.5 9t83.5 10.5t60 7.5l-2 -4q-2 -4 -4 -21.5t-3 -32.5
l-1 -15l-10 -41q-37 -154 -53 -187q-14 -28 -1 -38q6 -4 9 -4q7 0 25 16q12 10 34 18l-4 -44l-10 -41q-37 -154 -53 -187q-14 -28 -1 -38q6 -4 9 -4q7 0 25 16q19 16 62 25q4 1 10.5 2.5t9.5 2t10 1t16 0t23 -1.5q10 -1 34.5 -3t24.5 -1q0 3 -13 20q-31 41 -56 95
q-10 22 -16 40.5t-11.5 44.5t-11.5 46t-11 37q22 5 60 1q10 -1 34.5 -3t24.5 -1q0 3 -13 20q-31 41 -56 95q-10 22 -16 40.5t-11.5 44.5t-11.5 46q-15 55 -17 59v1q21 3 80.5 4.5t95.5 -1.5q10 -1 32 -3q-3 -3 -5 -8q-2 -4 -4 -21.5t-3 -32.5l-1 -15l-10 -41
q-37 -154 -53 -187q-14 -28 -1 -38q6 -4 9 -4q7 0 25 16q12 10 34 18l-4 -44l-10 -41q-37 -154 -53 -187q-14 -28 -1 -38q6 -4 9 -4q7 0 25 16q19 16 62 25q4 1 10.5 2.5t9.5 2t10 1t16 0t23 -1.5q10 -1 34.5 -3t24.5 -1q0 3 -13 20q-31 41 -56 95q-10 22 -16 40.5
t-11.5 44.5t-11.5 46t-11 37q22 5 60 1q10 -1 34.5 -3t24.5 -1q0 3 -13 20q-31 41 -56 95q-10 22 -16 40.5t-11.5 44.5t-11.5 46q-15 55 -17 59h5q0 5 -13 20q-156 185 -222 425q-2 9 -10 9q-6 -1 -12 -5t-5 -11q6 -56 -39.5 -154t-104 -179.5t-97.5 -113.5z" />
</svg>
