<?xml version="1.0" standalone="no"?>
<!DOCTYPE svg PUBLIC "-//W3C//DTD SVG 1.1//EN" "http://www.w3.org/Graphics/SVG/1.1/DTD/svg11.dtd" >
<svg xmlns="http://www.w3.org/2000/svg" xmlns:xlink="http://www.w3.org/1999/xlink" version="1.1" viewBox="0 0 965 835">
   <path fill="currentColor"
d="M907 4q3 -4 10.5 -4.5t13 2.5t4.5 9q-4 15 -38 77.5t-49 113.5q-16 51 5 115t60 116q19 25 32 62.5t8 42.5q-2 2 -5.5 -1.5t-8 -10.5t-9.5 -16q-18 -34 -68 -86q-35 -36 -62.5 -55t-97.5 -56q-14 -8 -23 -15q-53 2 -207 4q-2 9 -5 19q-2 74 -5 165q387 12 390 13
q9 4 9 11q-1 9 -16 16q-7 4 -384 7q-4 112 -6 183q394 12 397 13q9 4 9 11q-1 9 -16 16q-7 4 -392 7q-2 61 -2 63q-4 9 -11 9q-10 -1 -17 -16q-1 -2 -2 -56l-91 1l-41 10q-154 37 -187 54q-28 14 -38 0q-4 -6 -4 -8q0 -7 16 -26q16 -18 25 -62q1 -3 3 -10t2.5 -10t1 -10
t-0.5 -16t-2 -22q-1 -11 -2.5 -35.5l-1.5 -24.5q3 0 20 13q41 31 95 56q23 10 41 16t44 12t46 11q29 1 73 3q-1 -70 -2 -182l-88 1l-41 10q-154 37 -187 54q-28 14 -38 0q-4 -6 -4 -8q0 -7 16 -26q16 -18 25 -62q1 -3 3 -10t2.5 -10t1 -10t-0.5 -16t-2 -22
q-1 -11 -2.5 -35.5l-1.5 -24.5q3 0 20 13q41 31 95 56q23 10 41 16t44 12t46 11q28 1 70 3l-1 -181l-1 -1l-85 1l-41 10q-154 37 -187 54q-28 14 -38 0q-4 -6 -4 -8q0 -7 16 -26q16 -18 26 -62q0 -3 2 -10t2.5 -10t1 -10t0 -16t-2.5 -22q-1 -11 -2.5 -35.5t-0.5 -24.5
q2 0 19 13q41 31 95 56q23 10 41 16t44 12t46 11q23 1 57 3q-36 -147 -52 -179q-14 -28 -1 -38q7 -4 9 -4q7 0 25 16q19 16 63 25q3 1 9.5 2.5t10 2t10 1t16 0t22.5 -1.5q11 -1 35 -3t24 -1q0 3 -12 20q-31 41 -56 95q-15 32 -24 68q129 6 186 9q7 -9 26 -17q8 -3 27 -17.5
t35.5 -29t37 -31.5t22.5 -19q16 -14 39.5 -65t50.5 -84zM808 212q2 -2 3 -4q-2 1 -3 4z" />
</svg>
