<?xml version="1.0" standalone="no"?>
<!DOCTYPE svg PUBLIC "-//W3C//DTD SVG 1.1//EN" "http://www.w3.org/Graphics/SVG/1.1/DTD/svg11.dtd" >
<svg xmlns="http://www.w3.org/2000/svg" xmlns:xlink="http://www.w3.org/1999/xlink" version="1.1" viewBox="0 0 874 1155">
   <path fill="currentColor"
d="M381 6q8 -9 17.5 -5.5t6.5 14.5q-5 20 -26.5 59t-48 91.5t-41.5 104.5q-11 36 -7 79q9 -8 26 -15q11 -4 36 -23.5t48 -38.5t49.5 -42t30.5 -26q18 -15 33 -46t36.5 -74t49.5 -78q8 -9 17.5 -5.5t6.5 14.5q-5 20 -26.5 59t-48 91.5t-41.5 104.5q-11 36 -7 79q9 -8 26 -15
q11 -4 36 -23.5t48 -38.5t49.5 -42t30.5 -26q18 -15 33 -46t36.5 -74t49.5 -78q8 -9 17.5 -5.5t6.5 14.5q-5 20 -26.5 59t-48 91.5t-41.5 104.5q-20 69 7.5 153.5t79.5 153.5q27 36 50 85.5t16 56.5q-1 1 -6 -3.5t-11.5 -14t-12.5 -21.5q-10 -18 -36.5 -51.5t-53.5 -62.5
q-36 -36 -62 -57t-69 -46q-6 18 -44 87q9 14 19 27q27 36 50 85.5t16 56.5q-1 1 -6 -3.5t-11.5 -14t-12.5 -21.5q-18 -35 -73 -95q-33 64 -50 121q-20 69 7.5 153.5t79.5 153.5q27 36 50 85.5t16 56.5q-1 1 -6 -3.5t-11.5 -14t-12.5 -21.5q-10 -18 -36.5 -51.5t-53.5 -62.5
q-47 -48 -83.5 -73.5t-130.5 -74.5q-19 -10 -31 -20.5t-16 -21.5t5 -22t32 -20q22 -9 108 -82l-4 -8q-10 -18 -36.5 -51.5t-53.5 -62.5q-47 -48 -83.5 -73.5t-130.5 -74.5q-19 -10 -31 -20.5t-16 -21.5t5 -22t32 -20q11 -4 36 -23.5t48 -38.5t49.5 -42t30.5 -26
q18 -15 33 -46t36.5 -74t49.5 -78zM253 266q0 -1 1 -1q-1 0 -1 1zM463 266q0 -1 1 -1q-1 0 -1 1zM290 400q22 93 86 177q32 42 56 97l40 -34q10 -9 20 -23.5t15 -24.5t16 -35q-42 -42 -78.5 -67t-126.5 -72q-17 -9 -28 -18zM673 266q0 -1 1 -1q-1 0 -1 1zM500 400
q13 56 45 113q18 -35 41 -64q-22 -12 -58 -31q-17 -9 -28 -18zM463 702q0 -1 1 -1q-1 0 -1 1z" />
</svg>
